<svg xmlns="http://www.w3.org/2000/svg" width="100" height="100" viewBox="0 0 100 100">
    <g fill="none" fill-rule="evenodd">
        <g transform="translate(1 1)">
            <circle cx="49" cy="49" r="49" fill="#FFF" stroke="#9A4EA1" stroke-width="2"/>
            <g fill-rule="nonzero" transform="translate(11 25)">
                <ellipse cx="17.362" cy="7.885" fill="#F99D33" rx="7.32" ry="7.756"/>
                <ellipse cx="38.354" cy="7.885" fill="#00BDCD" rx="7.32" ry="7.756"/>
                <path fill="#9B4198" d="M73.26 19.615c-1.088-.769-2.298-1.153-3.569-1.153-.423 0-.847.064-1.33.128-1.694.384-3.146 1.41-4.114 2.948L53.84 38.205c-.968 1.539-1.27 3.333-.968 5.128.363 1.795 1.331 3.334 2.783 4.36 1.452 1.025 3.146 1.345 4.84 1.025 1.694-.385 3.146-1.41 4.114-2.949l10.405-16.666c.968-1.539 1.27-3.334.968-5.129-.303-1.795-1.27-3.333-2.722-4.359z"/>
                <path fill="#F2663B" d="M1.633 29.103L12.04 45.769c.968 1.539 2.42 2.564 4.113 2.949 1.694.385 3.388 0 4.84-1.026 2.964-2.115 3.811-6.346 1.815-9.487L12.402 21.538c-.968-1.538-2.42-2.564-4.114-2.948-.424-.064-.847-.128-1.331-.128-1.27 0-2.48.384-3.57 1.153-2.903 2.116-3.75 6.347-1.754 9.488z"/>
                <ellipse cx="59.407" cy="7.885" fill="#9B4198" rx="7.32" ry="7.756"/>
                <path fill="#F99D33" d="M31.397 19.615c-1.089-.769-2.298-1.153-3.569-1.153-.423 0-.847.064-1.33.128-1.695.384-3.147 1.41-4.114 2.948L11.978 38.205c-.968 1.539-1.27 3.333-.968 5.128.363 1.795 1.331 3.334 2.783 4.36 1.452 1.025 3.146 1.345 4.84 1.025 1.694-.385 3.146-1.41 4.113-2.949l10.406-16.666c.968-1.539 1.27-3.334.968-5.129-.303-1.795-1.27-3.333-2.723-4.359z"/>
                <path fill="#8ACC9E" d="M21.597 23.974c-.363 1.795 0 3.59.968 5.129L32.97 45.769c.968 1.539 2.42 2.564 4.114 2.949 1.694.385 3.448 0 4.84-1.026 2.964-2.115 3.811-6.346 1.815-9.487L33.333 21.538c-.968-1.538-2.42-2.564-4.113-2.948-.424-.064-.847-.128-1.331-.128-1.27 0-2.48.384-3.57 1.153-1.391 1.026-2.359 2.564-2.722 4.36z"/>
                <path fill="#00BDCD" d="M43.376 21.538L32.97 38.205c-.968 1.539-1.27 3.333-.968 5.128.363 1.795 1.331 3.334 2.783 4.36 1.452 1.025 3.146 1.345 4.84 1.025 1.694-.385 3.146-1.41 4.114-2.949l10.405-16.666c1.936-3.141 1.15-7.436-1.815-9.488-1.089-.769-2.299-1.153-3.57-1.153-.423 0-.846.064-1.33.128a6.262 6.262 0 0 0-4.053 2.948z"/>
                <path fill="#45469B" d="M43.436 29.103l10.405 16.666c.968 1.539 2.42 2.564 4.114 2.949 1.694.385 3.448 0 4.84-1.026 2.964-2.115 3.811-6.346 1.815-9.487L54.204 21.538c-.968-1.538-2.42-2.564-4.113-2.948-.424-.064-.847-.128-1.331-.128-1.27 0-2.48.384-3.57 1.153-2.903 2.116-3.69 6.347-1.754 9.488z"/>
            </g>
        </g>
    </g>
</svg>
