<svg width="94" height="71" fill="none" xmlns="http://www.w3.org/2000/svg"><path d="M70.06 18.46c-.54.811-1.014 1.623-1.622 2.367-1.218 1.555-2.638 3.178-4.464 4.057-2.772 1.285-5.545 1.893-8.453 2.164-.608.067-1.15.135-1.758.203-3.855.473-7.439.473-11.294.473-3.11 0-6.424.338-9.062 1.96-1.217.745-2.028 1.759-3.11 2.638-1.285 1.014-2.503 2.84-2.908 3.448-.27.541-.338 1.285-.474 1.826-.203 1.217-.203 2.435-.405 3.652-.338 2.231-1.082 4.463-2.84 6.018-.88.744-1.894 1.15-2.841 1.758-1.15.676-1.488 1.825-2.096 2.975-1.285 2.502-1.488 3.381-2.773 5.883-.135.27-.27.608-.27.879 0 .608.946 1.082 1.42.947.473-.203.879-.609 1.217-1.015 2.029-2.434 2.3-3.719 4.193-6.22 1.15-1.488 3.11-1.894 4.801-2.3 1.894-.405 2.976-1.284 4.396-2.637-.203.203-.27 1.353-.27 1.353s1.825-1.488 4.125-3.246c1.081-.812 2.57-.406 4.395-1.961 1.082-.88 1.353-2.773 2.029-3.313.947-.812 1.217.067 1.961.608 1.42 1.014 2.976 1.758 4.599 2.3 0-.271.067-.542.067-.745-.067.339 2.638 1.488 3.043 1.623a17.24 17.24 0 0 0 3.585 1.217c1.082.27 2.096.339 3.043.812 1.014.54 4.53 2.637 5.545 4.192 1.961 2.975 4.666 6.695 6.627 9.602.61.88 1.218 1.826 2.165 2.434.473.27 4.395.947 4.057-.473-.068-.203-.203-.608-.473-.744-1.218-.676-2.435-1.217-3.314-2.231-.811-1.014-1.555-2.232-2.232-3.381-1.487-2.637-4.057-13.253-3.381-15.552-.135.473 1.082 2.028 1.082 2.028s1.623-3.922 1.826-5.274c-.068.608-.135 1.217-.068 1.893.068.676.203 1.082.338 1.217.203.136 1.556-3.922 1.624-5.612-.068.676.27 1.69.676 1.826.203.067 2.367-6.695 1.96-9.129-.27-1.758-3.921-9.534-4.665-8.52Z" fill="#FFE400"/><path d="M39.561 46.184c0 .068.541 1.217.474 1.826 0 .135-.541-.473-.609-.406-.203.88-.473 1.353-.609 2.232-.203 1.082-.203 2.163.068 3.245.406 1.623 1.623 2.976 2.773 4.193.676.744 1.285 1.487 2.096 1.893.812.406 3.246 1.555 1.352 2.367-.676.338-2.163-.068-2.84-.406-2.434-1.217-4.057-3.854-5.68-6.018-.541-.744-1.082-1.488-1.353-2.367-.338-.946-.135-1.623.27-2.502.339-.811.542-1.69.61-2.637.067-2.028-.947-3.99-1.894-5.747-.947-1.826-2.029-3.652-2.164-5.748-.068-1.623.676-3.99 2.434-4.463 1.894-.54 2.773 1.488 3.382 2.908 1.623 3.922 2.502 7.573 1.69 11.63Z" fill="#FFE400"/><path d="M35.91 29.144c-3.652.406-8.116.609-11.091-2.028-2.232-2.029-3.382-5.14-3.382-8.115 0-1.285.203-2.57.61-3.786.472-1.488 1.96-3.652 1.96-3.652s-1.623-.203-2.975.676a7.024 7.024 0 0 0-2.367 2.705c-.947 1.893-1.42 4.936-.609 6.965a2.634 2.634 0 0 0-1.352-1.217c.203 2.907 0 4.192 3.11 7.979-1.082.067-1.826-.406-2.637-1.488-.135.27-.338 1.15.135 1.961 3.584 5.41 11.294 7.032 17.786 2.3.338-.745.54-1.556.811-2.3ZM61.27 48.753c-.069.27-.069.474-.136.744-.135 1.217-.406 2.637-1.42 3.381-1.488 1.014-2.908 1.894-4.531 2.637-2.097.947-2.367.947-4.125 2.3-.27.202-.609.405-.88.27-.202-.135-.405-.676-.405-.947.135-3.38 3.854-3.178 6.086-4.666 1.555-1.081 2.029-1.96 2.164-3.854.068-1.758-.203-3.516-.406-5.274-.338-2.57-.608-5.342.474-7.709.473-.946 1.42-1.96 2.434-1.69 1.15.27 1.488 1.623 1.556 2.772.27 3.043.202 6.086-.27 9.129-.136.946-.407 1.893-.542 2.907ZM72.833 8.385l-.135.135a1.475 1.475 0 0 1-.338.27c-.203.203-.406.406-.541.609l-.338.473c-.27.338-.474.744-.676 1.082 0-.067 0-.135-.068-.135 0-.068-.068-.068-.135-.135-.068 0-.068-.068-.136-.068h-.135c-.135.068-.203.27-.27.473v.068c-.203.676-.27 1.352-.338 2.096v2.705c-.136 1.623-1.353 2.705-2.503 3.652-.27.27-.608.54-.879.81-1.555 1.556-1.555 3.111-3.313 4.667l11.564 3.922c.473-1.623 2.772-1.285 3.787-1.488 1.352-.27 2.57.338 3.922.067.135 0 .609-.202.609-.405 0-.135-1.015-.474-1.218-.541-.879-.473-1.623-1.15-2.231-1.893a13.004 13.004 0 0 1-1.218-2.097c.136.068.203.136.339.203.135.068.27.203.405.27.609.474 1.353.812 2.097 1.083 1.014.27 2.502.473 3.516.202.541-.202 1.082-.473 1.488-.811.676-.473 1.894-1.69 1.555-2.637-.135-.338-.608-.338-1.014-.338-1.69.135-3.449-.338-4.869-1.285a6.598 6.598 0 0 1-1.15-1.217c-.405-.609-.946-1.15-1.555-1.488-.406-.135-.812-.27-1.217-.27l-2.3-.27c.136-.677-.203-1.488-.54-2.097-.068-.203-.204-.338-.271-.54a6.42 6.42 0 0 1-.609-1.42c-.067-.474-.135-.948-.067-1.42v-1.15l-.068-.068h-.203c0-.473 0-.947-.135-1.42 0 0 0-.068-.068-.068 0 0-.067 0-.067-.067-.27.067-.474.338-.677.54ZM8.318 27.994c.068 1.555.88 2.975 1.758 3.178-.879.136-1.69 1.488-1.758 3.043.068-1.758-1.217-2.637-1.893-3.178.879-.135 1.96-1.42 1.893-3.043ZM77.635 41.652c.067 1.556.811 2.908 1.69 3.043-.879.135-1.623 1.488-1.69 2.975.067-1.69-1.15-2.57-1.826-3.042.879-.136 1.893-1.353 1.826-2.976Z" fill="#FFE400"/><path d="M11.7 18.324c.067 1.894 1.15 3.652 2.366 3.787-1.217.203-2.231 1.826-2.299 3.651.068-2.096-1.555-3.178-2.502-3.854 1.082-.068 2.502-1.555 2.434-3.584ZM64.042 13.254c.067 1.555.879 2.908 1.893 3.043-.947.135-1.758 1.487-1.826 2.975.068-1.69-1.284-2.57-2.028-3.043.946-.135 2.028-1.42 1.96-2.975Z" fill="#F1653A"/><path d="M27.862 19.61c.068 1.69 1.014 3.178 2.096 3.313-1.014.135-1.96 1.623-2.028 3.245.067-1.825-1.353-2.772-2.232-3.38 1.014-.068 2.232-1.42 2.164-3.179ZM72.9 46.318c.069 1.42.88 2.773 1.827 2.908-.88.135-1.69 1.352-1.758 2.772.067-1.622-1.218-2.434-1.894-2.907.811-.136 1.894-1.285 1.826-2.773ZM64.65 23.463c1.962 1.758 4.058 3.246 6.425 4.328 1.15.54 2.637 1.217 3.855 1.555 0 .405-.203 1.082-.406 1.555-1.353-.473-3.179-1.217-4.396-1.961-2.434-1.42-4.53-2.705-6.086-4.936-.136-.203-.068-.406.067-.541.203-.135.406-.068.541 0Z" fill="#09BCCA"/><path d="m75.065 32.052-.541-.947-.541.947v.068l.54.946.542-1.014c.068 0 .068 0 0 0Z" fill="#F89C33"/><path d="M74.456 31.037c-.067 0-.067-.068-.067-.068 0-.068.067-.068.067-.068.068 0 .068 0 .136-.067.067-.068.135-.135.135-.203.135-.27.203-.609.203-.947 0-.203 0-.338-.068-.338s-.068-.067-.068-.067c0-.068.068-.068.068-.068h.068c.135.068.203.338.203.473 0 .338-.068.676-.27 1.015-.069.067-.069.202-.204.27 0 .068-.067.135-.203.068ZM42.401 40.572a1.472 1.472 0 0 0-.54.338c-.136.135-.271.338-.339.54-.203.406-.405.947-.676 1.42-.27.474-.947 1.285-1.42 1.556-.473.27-2.3.946-3.517 1.285a.61.61 0 0 1-.338.067c-.067 0-.067 0-.067-.067 0-.068 0-.068.135-.136.067 0 .203-.067.338-.135.541-.135 2.84-1.15 3.246-1.42l.27-.203c.068-.067.203-.135.271-.27.135-.203.609-.744.744-.947.203-.473.338-.947.609-1.42.135-.27.27-.473.473-.676.203-.27.473-.406.744-.541h.135c.068 0 .068 0 .135.068.068 0 .068.067.068.067s.068.068.068.135v.136c0 .067 0 .067-.068.135-.135 0-.27.068-.27.068ZM58.023 45.845c.135.27.338.473.54.608.204.136.948.812 1.76 1.014 1.216.406 2.434 1.285 2.907 1.826.474.541 1.894 2.434 2.57 3.855.068.202.068.202.203.405 0 .068 0 .068-.068.136-.067.067-.135 0-.203-.136-.067-.067-.203-.338-.27-.473-.474-.744-2.164-2.975-2.57-3.449l-.338-.27c-.135-.068-.27-.203-.338-.27-.27-.136-1.015-.744-1.826-1.015-.88-.27-1.894-.879-2.164-1.082-.338-.203-.609-.54-.812-.879 0-.068-.067-.067-.067-.135v-.135c0-.068.067-.068.067-.136.068-.067.068-.067.136-.067.067 0 .067-.068.135-.068h.135c.068.068.203.27.203.27ZM31.514 38.272a2.884 2.884 0 0 1-.812-.743 4.317 4.317 0 0 1-.54-.947 2.804 2.804 0 0 1-.204-1.082c0-.338.068-.744.203-1.014a4.952 4.952 0 0 1 1.15-1.758c.203-.27.54-.474.879-.609.203-.068.406-.068.54 0 .204.068.339.135.474.203.27.203.541.473.744.744.203.27.406.54.541.879.135.338.27.608.406.947.068.337.068.743 0 1.081-.068.339-.27.677-.541.947l-.406.406-.406.338c-.27.203-.608.405-.879.54-.203.068-.405.136-.54.136h-.271c-.136 0-.27 0-.338-.068Zm.203-.473c.473.203 1.014-.068 1.555-.473.135-.068.27-.203.406-.27a.816.816 0 0 0 .338-.339c.203-.203.338-.473.473-.744a1.93 1.93 0 0 0 0-.879c-.067-.338-.203-.608-.338-.879-.135-.27-.27-.608-.473-.811a3.21 3.21 0 0 0-.677-.676l-.405-.203h-.406c-.27.135-.541.27-.744.54a4.112 4.112 0 0 0-1.014 1.624c-.068.27-.136.608-.136.946 0 .338.068.609.203.88.136.27.27.54.474.81.27.136.473.339.744.474ZM35.639 33.134c-.203-.203-.27-.473-.27-.744 0-.27.067-.54.202-.744.136-.202.338-.338.609-.473.135-.067.27-.067.406-.067.135 0 .27.067.405.135.136.067.203.203.27.338.069.135.069.27.069.405v.203c0 .068 0 .136-.068.203l-.203.406a1.24 1.24 0 0 1-.676.473.578.578 0 0 1-.474 0c-.067.068-.203 0-.27-.135Zm.27-.27c.068.067.136.067.203.067.068 0 .136 0 .203-.067.135-.068.27-.203.406-.338.068-.068.068-.136.135-.203 0-.068 0-.068.068-.136v-.405c0-.068-.068-.136-.135-.203-.068-.068-.136-.068-.203-.135h-.27c-.204.067-.339.135-.474.338a1.274 1.274 0 0 0-.136.54c0 .203.068.406.203.542ZM75.47 61.465s.068 0 0 0h.136c.203.135.405.338.54.54a.94.94 0 0 1 .136.745v.067h-.203v-.135c0-.203-.068-.473-.135-.609a1.58 1.58 0 0 0-.474-.473v-.068c-.067 0-.067 0 0-.067-.067.067 0 0 0 0ZM74.862 61.803s.067 0 0 0h.135c.135.067.27.135.338.27l.203.406v.135h-.203l-.067-.067c0-.136-.068-.203-.136-.27a.93.93 0 0 0-.27-.204h-.068v-.135c.068 0 .068-.068.068-.135 0 .067 0 .067 0 0ZM51.193 56.867v.135c-.135.27-.27.474-.474.609-.202.135-.473.27-.743.27h-.068v-.202h.135c.203 0 .406-.068.609-.203.203-.136.338-.338.406-.541v-.068c0-.067.067-.067.135 0-.068-.067-.068-.067 0 0ZM50.72 56.326s.067 0 0 0c.067.068.067.068 0 .135l-.203.406c-.136.135-.27.203-.406.203h-.135l-.068-.068v-.135l.068-.068a.513.513 0 0 0 .27-.135c.068-.067.135-.135.135-.27v-.068h.136c.135-.068.135-.068.202 0 0-.068 0 0 0 0ZM44.565 60.045h.136c.27.135.473.27.608.473.136.203.27.474.27.744v.068h-.202v-.136a1.09 1.09 0 0 0-.203-.608 1.051 1.051 0 0 0-.541-.406h-.068c-.067-.068-.067-.068 0-.135-.067.067-.067.067 0 0ZM44.024 60.517c0-.067 0-.067 0 0 .068-.067.068-.067.136 0l.405.203c.136.136.203.27.203.406v.135l-.067.068h-.136l-.067-.068a.513.513 0 0 0-.136-.27c-.067-.068-.135-.135-.27-.135h-.068v-.136c-.067-.135-.067-.135 0-.203-.067 0-.067 0 0 0ZM17.583 58.559s0 .067 0 0c.067.067.067.067.067.135-.067.27-.135.473-.338.676-.203.203-.405.338-.676.406h-.135v-.203h.067c.203-.068.406-.203.541-.338a.857.857 0 0 0 .27-.609v-.067h.204c-.068 0-.068 0 0 0ZM17.042 58.152c.067.068.067.068.067.136 0 .135-.067.27-.135.405-.067.136-.203.203-.338.27h-.203v-.135l.068-.067c.067-.068.203-.135.203-.203.067-.068.067-.203.067-.27v-.136h.271c-.068 0-.068 0 0 0ZM62.757 25.965c-.676.879-1.69 1.487-2.435 2.299-.338.473-.744.879-1.15 1.284-.202.203-.473.339-.743.474-.27.135-.541.203-.88.27-1.149.135-2.231.203-3.38.203-.542 0-1.15-.068-1.691-.203-.27-.067-.541-.203-.812-.338-.135-.067-.27-.135-.405-.27-.136-.068-.203-.136-.339-.27l-.067-.069-.068-.067v-.068s0-.067.068-.067l.067-.068s.068 0 .068-.068h.068s.067 0 .067.068c.136.068.203.203.338.27.068.068.203.136.338.203.203.136.474.203.744.339a6.672 6.672 0 0 0 1.623.202c1.082.068 2.232 0 3.314-.135.541-.067 1.014-.27 1.42-.676.406-.406.812-.811 1.15-1.217.744-.88 1.758-1.42 2.434-2.232l.068-.067h.068l.067.067c.136.136.136.136.068.136ZM54.371 30.9h2.164s.068 0 .068.068l.068.068s0 .067-.068.067l-.068.068h-2.164l-.067-.068c0-.067 0-.135.067-.203-.067.068 0 0 0 0Z" fill="#45459B"/><path d="M55.52 29.616s0-.067 0 0l.542-.067h.068l.067.067v.068l-.067.068H55.589l-.068-.068c-.068 0-.068 0 0-.068-.068 0 0 0 0 0ZM39.156 45.777c.067-.067.067-.067 0 0 .067 0 .135 0 .135.068.54.608.879 1.42.879 2.231v.068s0 .068-.068.068h-.135c-.203-.068-.406-.136-.541-.27-.135.675-.27 1.352-.541 1.96l-.068.068h-.135v-.203c.27-.676.474-1.42.609-2.164v-.068s.067 0 .067-.067h.068s.068 0 .068.067c.067.136.203.27.405.339-.067-.677-.338-1.353-.811-1.826v-.203c0-.068 0-.068.068-.068ZM21.1 20.692c-.068-.067-.068 0 0 0ZM19.206 20.488h-.068l-.068-.068c-.608-1.15-1.15-2.299-1.69-3.448v-.136c0-.067.068-.067.068-.135h.135c.067 0 .067.068.135.068.473 1.15 1.082 2.299 1.69 3.38v.136c0 .068-.067.068-.067.135-.068.068-.068.068-.135.068ZM21.235 26.71c-.068 0-.068 0-.068-.068a21.485 21.485 0 0 1-3.179-5.207v-.203h.271v.068a22.441 22.441 0 0 0 3.178 5.14v.27h-.202c.067 0 0 0 0 0ZM20.288 29.415h-.068s-.067 0-.067-.068a10.696 10.696 0 0 1-2.367-4.057v-.135s0-.068.067-.068c0 0 .068 0 .068-.067h.135c.068 0 .068.067.068.135.473 1.42 1.285 2.772 2.3 3.922l.067.067v.136c0 .067-.068.067-.068.067-.068.068-.135.068-.135.068ZM20.423 32.458h-.135c-1.285-.947-2.367-2.096-3.179-3.448v-.203s0-.068.068-.068.068-.068.135 0c.068 0 .068.068.136.068a13.168 13.168 0 0 0 3.043 3.38l.067.068v.136c0 .067 0 .067-.067.067h-.068ZM22.046 26.235h-.067s-.068 0-.068-.067c-.541-.609-1.082-1.217-1.488-1.894v-.202s0-.068.068-.068h.135c.068 0 .068.067.135.067.406.677.88 1.285 1.42 1.826.068.068.068.068.068.136 0 .067 0 .067-.068.135-.067.067-.135.067-.135.067ZM18.665 29.415h-.068s-.068 0-.068-.068c-.54-.608-1.081-1.217-1.487-1.893v-.203s0-.067.067-.067h.136c.067 0 .067.067.135.067.406.676.879 1.285 1.42 1.826.068.067.068.067.068.135s0 .068-.068.135c-.068.068-.068.068-.135.068ZM20.626 19.475c-.068 0-.068 0 0 0-.068 0-.068 0-.068-.068-.608-.811-1.082-1.69-1.555-2.57v-.135l.068-.067h.135v.067c.406.88.947 1.758 1.488 2.57v.068s0 .067-.068.067v.068ZM20.288 27.588h-.136l-.067-.068c-1.15-1.758-2.435-3.718-2.705-5.95 0-.068 0-.135.068-.135.067-.068.067-.068.135-.068h.067s.068 0 .068.068l.068.067v.068c.27 2.164 1.555 4.057 2.637 5.748v.202l-.068.068h-.067Z" fill="#45459B"/><path d="M19.814 23.058h-.135l-.067-.067c-1.015-1.826-2.03-3.855-2.367-6.019v-.067s0-.068.067-.068l.068-.067h.135s.068 0 .068.067l.067.068v.067c.27 2.097 1.285 4.057 2.3 5.883v.136s0 .067-.068.067l-.068.068c.068-.068.068-.068 0-.068ZM19.07 18.596h-.135l-.067-.068c-.406-.541-.677-1.217-.812-1.893v-.136l.068-.067h.203l.067.067v.068a6.2 6.2 0 0 0 .609 1.555c.067 0 .067.068.135.135v.203c0 .068-.068.068-.135.136h.067ZM70.872 12.848c0-.203.068-.406.203-.609.135-.203.27-.338.406-.473h.202s.068 0 .068.067v.203s0 .068-.068.068c-.608.405-.54 2.231-.338 3.38v-.067s0-.068.068-.068l.068-.067h.067s.068 0 .068.067l.135.136c.068.067.135.067.203.135.068-.068.135-.203.27-.27.068-.068.203-.068.339-.136.135 0 .27 0 .338.068.135.067.203.203.203.27v.136s0 .067-.068.067c0 0-.068 0-.068.068h-.135s-.067 0-.067-.068c0 0 0-.068-.068-.068-.068-.135-.068-.135-.203-.135-.068 0-.135.068-.203.136-.067.067-.067.135-.135.27 0 .068 0 .068-.068.135 0 0-.067.068-.135.068h-.135c-.068 0-.068-.068-.068-.068a.528.528 0 0 0-.27-.27v.067c-.068.068-.068.203-.136.27 0 .069-.067.069-.067.136-.068 0-.068.068-.136.068-.067 0-.067 0-.135-.068-.067 0-.067-.067-.067-.135-.068-1.15-.136-2.232-.068-3.314ZM85.953 21.096c0-.067.067-.203.067-.27.068-.068.136-.135.27-.135.068 0 .947-.136 1.353.067.338.203.203.88.203.88 0 .067-.068.067-.068.134 0 .068-.067.068-.135.068-.067 0-.067 0-.135.068-.27 0-.609 0-.88-.136-.27-.135-.472-.27-.675-.54v-.136ZM78.378 22.787c0-.068 0-.135.068-.135.068-.068.135-.068.203-.068.067 0 .135 0 .203.068.879.676 3.11 1.555 4.26 1.555 1.556 0 1.961-.406 3.043-.88.068-.067.136-.067.203 0 .068 0 .135.068.135.136.068.068.068.135 0 .203-.067.067-.067.135-.135.135l-.067.068c-1.015.608-1.556.946-3.246.946-1.285 0-3.585-.946-4.599-1.69l-.068-.068v-.27ZM80.07 18.595c-.271-.811-1.488-.54-1.488.27 0 .339.27.61.54.745a.88.88 0 0 0 .88-.338c.067-.203.135-.474.067-.677Z" fill="#45459B"/><path d="M78.852 18.46c-.068.136 0 .203.068.338.067.136.203.203.338.136a.29.29 0 0 0 .27-.27c.068-.339-.54-.474-.676-.204ZM79.596 18.934a.512.512 0 0 0-.135.27c.067.136.203.136.27.068.136-.067.27-.406.068-.473-.068.067-.135.135-.203.135Z" fill="#fff"/><path d="m85.412 29.008-9.874.54-.067 6.56 10.55-.541-.61-6.56Z" fill="#F1653A"/><path d="m85.412 29.008-9.874.54v.61l9.874-.677v-.473Z" fill="#EA4D28"/><path d="m85.682 31.916-4.734.27.135-2.636 1.353.608h.135c.068 0 .203-.067.203-.135.068-.135 0-.27-.135-.338l-.406-.203.88.135c.473 0 .675-.27.743-.405.068-.271 0-.541-.203-.812-.27-.27-.608-.338-.947-.27l-1.623.473-.067-2.637a.291.291 0 0 0-.27-.27.29.29 0 0 0-.271.27l.067 2.705-1.758-.541c-.338-.136-.676 0-.947.27-.203.27-.27.541-.203.812.068.135.203.405.744.405l1.623-.203-.608.541c-.136.068-.136.27 0 .338.067.068.135.068.203.068.067 0 .135 0 .135-.068l.811-.676-.067 2.434-4.802.271a.29.29 0 0 0-.27.27c0 .136.135.27.27.27l4.802-.27-.135 3.178c0 .136.135.271.27.271a.29.29 0 0 0 .27-.27l.136-3.246 4.801-.27a.29.29 0 0 0 .27-.271c-.135 0-.27-.135-.405-.068Zm-2.908-3.38c.203-.068.406.067.406.135.067.135.135.202.067.27 0 .068-.135.135-.202.135l-1.353-.203 1.082-.338Zm-4.396.675c-.135 0-.27-.067-.27-.135 0-.067 0-.203.067-.27.068-.068.136-.135.339-.135h.135l1.082.338-1.353.203Z" fill="#F89C33"/></svg>