<svg width="825" height="550" viewBox="0 0 825 550" fill="none" xmlns="http://www.w3.org/2000/svg">
<path d="M683.815 463.265C689.178 454.218 694.375 444.868 697.098 434.28C699.82 423.693 699.848 411.593 695.118 400.51C690.388 389.428 680.295 379.803 669.295 378.015C660.825 376.64 652.768 380.05 647.213 385.77C641.658 391.49 638.357 399.355 636.322 407.55C632.5 423.06 632.967 440.385 637.642 457.05L683.815 463.265Z" fill="#FFE400"/>
<path d="M673.338 379.253L659.67 459.855L686.647 387.255" stroke="#F1653A" stroke-width="0.5311" stroke-miterlimit="10" stroke-linecap="round" stroke-linejoin="round"/>
<path d="M698.142 410.823L659.67 459.855L697.097 434.28" stroke="#F1653A" stroke-width="0.5311" stroke-miterlimit="10" stroke-linecap="round" stroke-linejoin="round"/>
<path d="M649.963 382.773L659.67 459.855L638.55 401.362" stroke="#F1653A" stroke-width="0.5311" stroke-miterlimit="10" stroke-linecap="round" stroke-linejoin="round"/>
<path d="M37.4 469.727C31.24 461.505 25.2175 453.062 21.395 443.547C17.5725 434.032 16.0875 423.225 19.25 413.463C22.4125 403.7 30.8 395.312 41.0025 394.02C48.8675 393.002 56.87 396.22 62.81 401.473C68.75 406.725 72.7925 413.792 75.7075 421.19C81.18 435.132 82.8025 450.56 80.355 465.355L37.4 469.727Z" fill="url(#paint0_linear)"/>
<path d="M37.3175 395.01L59.84 467.252L25.685 401.83" stroke="#994396" stroke-width="0.507" stroke-miterlimit="10" stroke-linecap="round" stroke-linejoin="round"/>
<path d="M17.6 422.592L59.84 467.252L21.3675 443.547" stroke="#994396" stroke-width="0.507" stroke-miterlimit="10" stroke-linecap="round" stroke-linejoin="round"/>
<path d="M59.84 398.695V467.252L72.8475 415.552" stroke="#994396" stroke-width="0.507" stroke-miterlimit="10" stroke-linecap="round" stroke-linejoin="round"/>
<path d="M73.9475 464.942C67.8425 453.86 61.93 442.42 59.07 429.577C56.21 416.735 56.6225 402.16 62.7275 389.042C68.8325 375.925 81.345 364.678 94.6275 362.973C104.885 361.653 114.427 366.052 120.917 373.147C127.38 380.242 131.065 389.812 133.182 399.767C137.197 418.577 135.987 439.367 129.717 459.277L73.9475 464.942Z" fill="#FFE400"/>
<path d="M89.7325 364.293L103.152 461.753L73.425 373.395" stroke="#F1653A" stroke-width="0.5311" stroke-miterlimit="10" stroke-linecap="round" stroke-linejoin="round"/>
<path d="M58.685 401.335L103.152 461.753L59.07 429.578" stroke="#F1653A" stroke-width="0.5311" stroke-miterlimit="10" stroke-linecap="round" stroke-linejoin="round"/>
<path d="M117.7 369.38L103.152 461.753L130.735 392.178" stroke="#F1653A" stroke-width="0.5311" stroke-miterlimit="10" stroke-linecap="round" stroke-linejoin="round"/>
<path d="M412.5 495.633C640.317 495.633 825 485.204 825 472.34C825 459.476 640.317 449.047 412.5 449.047C184.683 449.047 0 459.476 0 472.34C0 485.204 184.683 495.633 412.5 495.633Z" fill="#CCE8DF"/>
<path d="M573.98 465.96C575.162 465.905 576.373 465.85 577.555 465.795C578.078 465.768 578.6 465.74 579.068 465.493C579.535 465.245 579.865 464.722 579.755 464.227C579.59 463.457 578.6 463.292 577.83 463.237C575.135 463.045 576.702 461.175 577.445 459.662C578.627 457.16 579.618 454.548 580.388 451.88C581.955 446.573 582.753 441.045 582.753 435.517C582.753 403.865 557.095 378.207 525.442 378.207C493.79 378.207 468.132 403.865 468.132 435.517C468.132 440.742 468.847 445.967 470.25 451C470.937 453.447 475.31 460.68 473.055 462.797C472.367 463.457 471.322 463.677 470.387 463.622C469.59 463.567 468.765 463.375 467.995 463.595C467.225 463.815 466.537 464.667 466.922 465.382C467.225 465.987 468.05 466.098 468.765 466.098C487.987 466.263 507.265 466.015 526.487 466.015C542.245 465.988 558.195 466.592 573.98 465.96Z" fill="#45459B"/>
<path d="M592.047 241.973C587.702 256.08 599.665 274.643 613.635 278.355C620.097 280.06 627.165 278.273 632.665 274.478C638.165 270.683 642.235 265.1 645.15 259.078C646.91 255.475 648.34 251.653 648.808 247.665C649.935 238.123 645.205 228.195 637.258 222.805C630.08 217.938 620.372 216.728 612.177 219.615C605.825 221.843 601.012 227.343 597.272 232.705C595.485 235.29 593.285 238.288 592.24 241.285C592.185 241.505 592.102 241.725 592.047 241.973Z" fill="#31B37E"/>
<path d="M638.577 222.915C623.535 237.462 611.573 255.172 603.653 274.533" stroke="#C4D777" stroke-width="0.4047" stroke-miterlimit="10" stroke-linecap="round" stroke-linejoin="round"/>
<path d="M633.847 220.275C624.112 223.3 615.505 229.405 608.492 236.803C601.425 244.255 595.677 253.66 595.402 263.945" stroke="#C4D777" stroke-width="0.4047" stroke-miterlimit="10" stroke-linecap="round" stroke-linejoin="round"/>
<path d="M642.51 226.93C640.612 247.253 629.612 266.53 613.112 278.548" stroke="#C4D777" stroke-width="0.4047" stroke-miterlimit="10" stroke-linecap="round" stroke-linejoin="round"/>
<path d="M513.7 256.41C526.817 263.203 547.195 254.733 553.355 241.615C556.187 235.565 555.665 228.278 552.915 222.2C550.165 216.123 545.38 211.118 539.99 207.158C536.745 204.765 533.252 202.703 529.402 201.52C520.217 198.715 509.602 201.603 502.892 208.478C496.815 214.693 493.927 224.015 495.302 232.595C496.375 239.25 500.912 244.97 505.56 249.59C507.787 251.818 510.345 254.485 513.095 256.053C513.26 256.163 513.48 256.3 513.7 256.41Z" fill="#31B37E"/>
<path d="M503.223 207.24C514.882 224.62 530.172 239.553 547.827 250.773" stroke="#C4D777" stroke-width="0.4047" stroke-miterlimit="10" stroke-linecap="round" stroke-linejoin="round"/>
<path d="M499.757 211.42C500.995 221.54 505.477 231.082 511.527 239.305C517.605 247.582 525.855 254.925 535.892 257.015" stroke="#C4D777" stroke-width="0.4047" stroke-miterlimit="10" stroke-linecap="round" stroke-linejoin="round"/>
<path d="M507.87 204.05C527.532 209.523 544.555 223.768 553.437 242.138" stroke="#C4D777" stroke-width="0.4047" stroke-miterlimit="10" stroke-linecap="round" stroke-linejoin="round"/>
<path d="M464.475 307.45C467.692 321.86 487.3 332.035 501.297 328.323C507.76 326.618 512.985 321.53 515.872 315.508C518.76 309.485 519.502 302.61 519.09 295.955C518.842 291.94 518.155 287.925 516.587 284.24C512.82 275.385 503.8 269.115 494.202 268.4C485.54 267.74 476.52 271.535 470.855 278.08C466.455 283.168 464.997 290.318 464.42 296.835C464.145 299.97 463.732 303.655 464.31 306.763C464.365 306.955 464.42 307.203 464.475 307.45Z" fill="#31B37E"/>
<path d="M495.412 267.795C489.61 287.898 487.987 309.21 490.737 329.945" stroke="#C4D777" stroke-width="0.4047" stroke-miterlimit="10" stroke-linecap="round" stroke-linejoin="round"/>
<path d="M489.995 267.85C483.038 275.303 478.61 284.873 476.217 294.773C473.797 304.755 473.467 315.783 478.335 324.83" stroke="#C4D777" stroke-width="0.4047" stroke-miterlimit="10" stroke-linecap="round" stroke-linejoin="round"/>
<path d="M500.83 269.335C509.272 287.925 509.3 310.118 500.94 328.735" stroke="#C4D777" stroke-width="0.4047" stroke-miterlimit="10" stroke-linecap="round" stroke-linejoin="round"/>
<path d="M467.61 271.508C472.175 285.533 492.662 293.81 506.247 288.778C512.517 286.468 517.247 280.885 519.557 274.615C521.867 268.345 521.95 261.442 520.905 254.842C520.272 250.882 519.227 246.95 517.302 243.403C512.737 234.96 503.14 229.57 493.515 229.763C484.852 229.928 476.217 234.548 471.185 241.615C467.28 247.088 466.51 254.375 466.565 260.92C466.592 264.055 466.537 267.768 467.39 270.82C467.472 271.04 467.555 271.288 467.61 271.508Z" fill="#24B496"/>
<path d="M494.642 229.13C490.765 249.7 491.178 271.068 495.88 291.445" stroke="#C4D777" stroke-width="0.4047" stroke-miterlimit="10" stroke-linecap="round" stroke-linejoin="round"/>
<path d="M489.252 229.68C483.037 237.765 479.545 247.693 478.087 257.785C476.63 267.96 477.345 278.96 483.037 287.513" stroke="#C4D777" stroke-width="0.4047" stroke-miterlimit="10" stroke-linecap="round" stroke-linejoin="round"/>
<path d="M500.197 230.12C510.345 247.83 512.49 269.912 505.945 289.245" stroke="#C4D777" stroke-width="0.4047" stroke-miterlimit="10" stroke-linecap="round" stroke-linejoin="round"/>
<path d="M530.145 280.527C541.667 289.767 563.337 285.45 571.917 273.79C575.877 268.427 576.785 261.167 575.3 254.65C573.787 248.132 570.075 242.302 565.565 237.38C562.87 234.41 559.817 231.687 556.297 229.79C547.827 225.225 536.855 225.995 528.935 231.412C521.785 236.307 517.083 244.887 516.753 253.55C516.478 260.287 519.833 266.777 523.463 272.222C525.195 274.835 527.203 277.97 529.595 280.032C529.787 280.225 529.952 280.39 530.145 280.527Z" fill="#75BE7C"/>
<path d="M529.54 230.257C537.57 249.59 549.642 267.217 564.74 281.682" stroke="#C4D777" stroke-width="0.4047" stroke-miterlimit="10" stroke-linecap="round" stroke-linejoin="round"/>
<path d="M525.305 233.695C524.535 243.87 527.065 254.1 531.382 263.34C535.727 272.635 542.355 281.462 551.815 285.477" stroke="#C4D777" stroke-width="0.4047" stroke-miterlimit="10" stroke-linecap="round" stroke-linejoin="round"/>
<path d="M534.71 228.057C552.915 237.297 566.83 254.595 571.918 274.367" stroke="#C4D777" stroke-width="0.4047" stroke-miterlimit="10" stroke-linecap="round" stroke-linejoin="round"/>
<path d="M422.152 258.583C423.225 273.295 441.127 286.248 455.51 284.625C462.137 283.883 468.078 279.62 471.818 274.065C475.558 268.538 477.29 261.828 477.868 255.173C478.198 251.158 478.115 247.088 477.125 243.21C474.705 233.915 466.675 226.38 457.297 224.263C448.827 222.338 439.367 224.758 432.767 230.395C427.652 234.768 425.177 241.643 423.665 248.023C422.95 251.075 421.987 254.678 422.097 257.84C422.125 258.115 422.125 258.363 422.152 258.583Z" fill="#00A578"/>
<path d="M458.562 223.933C449.872 242.963 445.142 263.808 444.84 284.735" stroke="#C4D777" stroke-width="0.4047" stroke-miterlimit="10" stroke-linecap="round" stroke-linejoin="round"/>
<path d="M453.172 223.163C445.197 229.515 439.422 238.343 435.572 247.775C431.722 257.29 429.77 268.153 433.262 277.805" stroke="#C4D777" stroke-width="0.4047" stroke-miterlimit="10" stroke-linecap="round" stroke-linejoin="round"/>
<path d="M463.705 226.215C469.315 245.823 466.125 267.795 455.097 284.983" stroke="#C4D777" stroke-width="0.4047" stroke-miterlimit="10" stroke-linecap="round" stroke-linejoin="round"/>
<path d="M570.625 276.265C579.782 287.843 601.865 288.53 612.837 279.098C617.925 274.753 620.427 267.905 620.427 261.223C620.427 254.54 618.117 248.023 614.845 242.193C612.865 238.7 610.527 235.373 607.502 232.705C600.297 226.353 589.407 224.62 580.47 228.14C572.385 231.303 565.895 238.618 563.612 246.978C561.852 253.468 563.64 260.563 565.95 266.668C567.077 269.61 568.287 273.103 570.157 275.66C570.322 275.88 570.46 276.073 570.625 276.265Z" fill="#00A578"/>
<path d="M581.295 227.122C584.76 247.747 592.57 267.658 604.037 285.148" stroke="#C4D777" stroke-width="0.4047" stroke-miterlimit="10" stroke-linecap="round" stroke-linejoin="round"/>
<path d="M576.427 229.515C573.402 239.25 573.54 249.782 575.685 259.765C577.83 269.802 582.312 279.895 590.617 285.945" stroke="#C4D777" stroke-width="0.4047" stroke-miterlimit="10" stroke-linecap="round" stroke-linejoin="round"/>
<path d="M586.85 226.16C602.497 239.25 612.177 259.242 612.7 279.647" stroke="#C4D777" stroke-width="0.4047" stroke-miterlimit="10" stroke-linecap="round" stroke-linejoin="round"/>
<path d="M591.8 308.22C592.873 322.933 610.775 335.885 625.157 334.263C631.785 333.52 637.725 329.258 641.465 323.703C645.205 318.175 646.937 311.465 647.515 304.81C647.845 300.795 647.762 296.725 646.772 292.848C644.352 283.553 636.322 276.018 626.945 273.9C618.475 271.975 609.015 274.395 602.415 280.033C597.3 284.405 594.825 291.28 593.313 297.66C592.598 300.713 591.635 304.315 591.745 307.478C591.773 307.725 591.773 307.973 591.8 308.22Z" fill="#00A578"/>
<path d="M628.21 273.543C619.52 292.573 614.79 313.418 614.487 334.345" stroke="#C4D777" stroke-width="0.4047" stroke-miterlimit="10" stroke-linecap="round" stroke-linejoin="round"/>
<path d="M622.82 272.8C614.845 279.152 609.07 287.98 605.22 297.413C601.37 306.928 599.417 317.79 602.91 327.443" stroke="#C4D777" stroke-width="0.4047" stroke-miterlimit="10" stroke-linecap="round" stroke-linejoin="round"/>
<path d="M633.353 275.852C638.963 295.46 635.773 317.432 624.745 334.62" stroke="#C4D777" stroke-width="0.4047" stroke-miterlimit="10" stroke-linecap="round" stroke-linejoin="round"/>
<path d="M410.658 318.917C420.475 329.945 442.558 329.312 452.98 319.275C457.793 314.627 459.91 307.642 459.498 300.987C459.113 294.305 456.418 287.952 452.788 282.315C450.615 278.932 448.085 275.742 444.923 273.267C437.333 267.355 426.388 266.255 417.67 270.297C409.778 273.927 403.728 281.6 401.94 290.097C400.565 296.697 402.765 303.655 405.433 309.622C406.725 312.482 408.155 315.92 410.163 318.367C410.328 318.56 410.493 318.752 410.658 318.917Z" fill="#31B37E"/>
<path d="M418.44 269.253C423.115 289.658 432.08 309.045 444.538 325.847" stroke="#C4D777" stroke-width="0.4047" stroke-miterlimit="10" stroke-linecap="round" stroke-linejoin="round"/>
<path d="M413.738 271.92C411.29 281.82 412.06 292.325 414.755 302.17C417.478 312.07 422.538 321.86 431.2 327.415" stroke="#C4D777" stroke-width="0.4047" stroke-miterlimit="10" stroke-linecap="round" stroke-linejoin="round"/>
<path d="M423.94 267.96C440.33 280.115 451.165 299.503 452.898 319.825" stroke="#C4D777" stroke-width="0.4047" stroke-miterlimit="10" stroke-linecap="round" stroke-linejoin="round"/>
<path d="M533.968 328.68C545.49 337.92 567.16 333.603 575.74 321.943C579.7 316.58 580.607 309.32 579.122 302.802C577.637 296.285 573.898 290.455 569.388 285.532C566.693 282.562 563.64 279.84 560.12 277.942C551.65 273.377 540.678 274.147 532.758 279.565C525.608 284.46 520.905 293.04 520.575 301.702C520.3 308.44 523.655 314.93 527.285 320.375C529.018 322.988 531.025 326.122 533.418 328.185C533.583 328.377 533.775 328.542 533.968 328.68Z" fill="#31B37E"/>
<path d="M533.335 278.41C541.365 297.742 553.437 315.37 568.535 329.835" stroke="#C4D777" stroke-width="0.4047" stroke-miterlimit="10" stroke-linecap="round" stroke-linejoin="round"/>
<path d="M529.127 281.848C528.357 292.023 530.887 302.252 535.205 311.492C539.55 320.787 546.177 329.615 555.637 333.63" stroke="#C4D777" stroke-width="0.4047" stroke-miterlimit="10" stroke-linecap="round" stroke-linejoin="round"/>
<path d="M538.505 276.21C556.71 285.45 570.625 302.747 575.713 322.52" stroke="#C4D777" stroke-width="0.4047" stroke-miterlimit="10" stroke-linecap="round" stroke-linejoin="round"/>
<path d="M160.875 467.253C192.526 467.253 218.185 441.594 218.185 409.943C218.185 378.291 192.526 352.633 160.875 352.633C129.224 352.633 103.565 378.291 103.565 409.943C103.565 441.594 129.224 467.253 160.875 467.253Z" fill="#45459B"/>
<path d="M160.875 437.112C175.881 437.112 188.045 424.948 188.045 409.943C188.045 394.937 175.881 382.773 160.875 382.773C145.869 382.773 133.705 394.937 133.705 409.943C133.705 424.948 145.869 437.112 160.875 437.112Z" fill="#CCE8DF"/>
<path d="M160.875 426.965C170.276 426.965 177.897 419.344 177.897 409.943C177.897 400.541 170.276 392.92 160.875 392.92C151.474 392.92 143.852 400.541 143.852 409.943C143.852 419.344 151.474 426.965 160.875 426.965Z" fill="#00BCCC"/>
<path d="M526.488 464.75C541.493 464.75 553.658 452.586 553.658 437.58C553.658 422.574 541.493 410.41 526.488 410.41C511.482 410.41 499.317 422.574 499.317 437.58C499.317 452.586 511.482 464.75 526.488 464.75Z" fill="#CCE8DF"/>
<path d="M526.487 454.603C535.889 454.603 543.51 446.981 543.51 437.58C543.51 428.179 535.889 420.557 526.487 420.557C517.086 420.557 509.465 428.179 509.465 437.58C509.465 446.981 517.086 454.603 526.487 454.603Z" fill="#00BCCC"/>
<path d="M213.4 408.513C214.335 415.635 214.253 422.95 213.565 430.128C227.26 431.283 240.983 432.355 254.705 433.372C254.925 426.085 254.733 418.77 254.128 411.483C240.57 410.438 226.985 409.475 213.4 408.513Z" fill="#F1653A"/>
<path d="M72.3525 394.653C71.61 394.515 71.0325 394.405 70.675 394.35C64.625 393.498 56.1275 394.955 55.935 402.545C55.715 411.593 64.68 416.405 72.215 417.478C77.1925 418.193 82.17 418.88 87.1475 419.595C91.1625 420.173 102.052 422.978 105.242 419.815C106.672 418.413 106.837 413.187 107.332 411.235C108.267 407.55 109.34 403.893 110.605 400.318C101.833 399.85 80.63 396.275 72.3525 394.653Z" fill="#E6F2E1"/>
<path d="M242.44 359.535C239.525 351.863 235.95 344.135 229.79 338.718C221.623 331.54 210.238 329.505 199.458 328.075C178.063 325.188 156.503 323.4 134.943 322.713C121.688 322.3 107.745 322.438 96.085 328.79C91.2175 331.43 87.0925 335.005 83.545 339.158C80.19 343.09 79.3375 353.375 78.2375 358.38C76.7525 365.118 75.625 371.938 74.69 378.758C73.26 389.015 72.5175 399.355 71.8025 409.695C71.4175 415.25 68.9975 418.33 75.4325 419.375C80.3 420.145 85.2225 420.668 90.145 421.135C93.0325 421.41 103.758 424.05 105.985 422.455C108.405 420.723 108.103 412.583 108.598 409.943C109.588 404.498 110.88 399.08 113.025 393.938C129.03 355.548 193.903 353.458 209.523 393.168C211.475 398.118 212.713 403.315 213.4 408.595C226.985 409.558 240.57 410.52 254.128 411.538C252.67 393.718 248.738 376.2 242.44 359.535Z" fill="#F1653A"/>
<path d="M641.987 427.405C641.41 430.458 640.778 433.483 640.035 436.508C639.128 440.302 637.835 444.345 635.938 447.81C644.16 445.857 656.673 445.83 661.375 437.8C663.795 433.648 664.263 428.56 663.383 423.83C663.245 423.033 662.97 422.153 662.228 421.85C661.65 421.603 660.99 421.823 660.385 422.015C653.868 424.298 649.055 426.58 641.987 427.405Z" fill="#E6F2E1"/>
<path d="M446.188 420.888C387.173 421.465 328.24 417.45 269.445 412.665C264.33 412.252 259.243 411.867 254.128 411.455C254.733 418.742 254.925 426.058 254.705 433.345C287.485 435.765 320.265 437.91 353.045 440.193C383.845 442.365 414.7 443.988 445.555 444.73C445.198 436.783 445.5 428.835 446.188 420.888Z" fill="#E6F2E1"/>
<path d="M641.988 427.405C628.595 429 614.955 429.11 601.508 428.395C593.615 427.983 585.75 427.268 577.885 426.47C578.765 433.153 580.388 448.333 580.388 448.333C597.85 452.76 618.145 452.017 635.938 447.81C637.835 444.318 639.128 440.275 640.035 436.508C640.778 433.483 641.41 430.458 641.988 427.405Z" fill="#F1653A"/>
<path d="M645.7 390.528C645.782 381.37 645.507 372.323 639.237 365.063C631.84 356.51 617.677 354.448 607.282 351.973C592.927 348.535 578.16 347.353 563.502 346.115C544.582 344.548 525.607 343.558 506.632 344.493C494.285 345.098 479.71 345.703 468.462 351.395C458.59 356.373 455.042 369.105 452.897 379.253C449.982 392.975 447.425 406.918 446.187 420.888C445.472 428.835 445.197 436.783 445.555 444.758C454.052 444.95 462.522 445.115 471.02 445.17C471.597 436.728 473.66 428.258 476.905 420.255C480.672 411.043 486.035 402.463 492.745 395.34C509.41 377.603 536.085 378.483 556.82 389.373C569.332 395.945 574.42 410.603 577.445 423.555C577.527 423.94 577.692 425.013 577.885 426.498C585.75 427.295 593.615 428.01 601.507 428.423C614.955 429.138 628.595 429.028 641.987 427.433C644.325 415.25 645.59 402.903 645.7 390.528Z" fill="#F1653A"/>
<path d="M277.008 266.888C277.393 266.118 277.97 265.485 278.768 265.622C279.868 265.787 280.143 267.218 280.17 268.318C280.418 278.878 279.868 291.005 276.843 301.18C275.55 305.525 274.368 303.298 273.598 299.97C272.553 295.433 273.24 290.455 273.708 285.863C274.313 279.868 275.11 273.818 276.623 267.988C276.705 267.603 276.843 267.245 277.008 266.888Z" fill="#45459B"/>
<path d="M658.02 407.578C659.257 382.828 660.467 358.078 661.705 333.328L390.555 317.46C391.353 296.615 392.122 275.743 392.92 254.898C393.25 246.125 393.442 236.775 388.85 229.295C382.25 218.57 368.307 215.408 355.823 213.813C341.247 211.943 326.59 210.843 311.905 210.54C305.085 210.403 298.1 210.458 291.747 212.85C277.282 218.295 269.803 233.943 263.753 248.16C257.84 262.075 251.928 276.018 245.988 289.933C245.355 291.418 214.005 289.575 210.513 289.63C186.67 290.098 162.773 289.355 139.068 291.885C127.133 293.15 114.675 295.35 105.188 302.72C97.24 308.88 92.2075 318.038 88.1375 327.223C86.405 331.183 84.8925 335.143 83.545 339.103C87.0925 334.95 91.2175 331.403 96.085 328.735C107.745 322.383 121.66 322.245 134.943 322.658C156.53 323.345 178.063 325.133 199.458 328.02C210.238 329.478 221.622 331.485 229.79 338.663C235.95 344.08 239.525 351.808 242.44 359.48C248.738 376.118 252.67 393.663 254.128 411.4C259.243 411.785 264.358 412.198 269.445 412.61C328.24 417.395 387.172 421.383 446.187 420.833C447.425 406.863 449.982 392.92 452.897 379.198C455.042 369.078 458.59 356.318 468.462 351.34C479.71 345.675 494.285 345.043 506.632 344.438C525.607 343.53 544.61 344.493 563.502 346.06C578.187 347.27 592.927 348.48 607.282 351.918C617.65 354.393 631.812 356.455 639.237 365.008C645.507 372.268 645.782 381.315 645.7 390.473C645.59 402.848 644.325 415.195 641.987 427.35C646.91 426.773 651.832 426.003 656.672 424.985C657.415 419.265 657.745 413.408 658.02 407.578ZM357.033 296.395C354.997 297.385 352.66 297.99 350.13 298.348C342.568 299.448 333.465 298.293 326.893 298.21C315.48 298.045 304.095 297.44 292.683 297.11C286.11 296.918 279.482 296.725 273.13 295.02C271.26 294.525 269.335 293.838 268.07 292.353C266.475 290.483 266.338 287.815 266.475 285.368C267.08 273.598 272.003 262.543 276.842 251.79C279.098 246.785 281.655 241.45 286.44 238.755C290.758 236.335 296.037 236.61 300.987 236.94C317.157 238.04 333.355 239.14 349.525 240.24C354.997 240.598 361.295 241.45 364.182 246.098C366.08 249.123 365.943 252.945 365.75 256.493C365.337 264.028 364.925 271.535 364.513 279.07C364.128 285.698 363 293.535 357.033 296.395Z" fill="#F89C33"/>
<path d="M365.888 322.465L343.392 321.2" stroke="#45459B" stroke-width="1.1048" stroke-miterlimit="10"/>
<path d="M663.795 287.76L666.93 264.77L397.183 250.8L395.973 272.058L663.795 287.76Z" fill="#45459B"/>
<path d="M663.245 308.44L661.458 329.67L395.478 313.473L395.423 292.738L663.245 308.44Z" fill="#45459B"/>
<path d="M594.055 325.27L598.592 255.448L575.52 254.155L570.982 323.95L594.055 325.27Z" fill="#6778B7"/>
<path d="M506.247 250.855L482.543 249.508L478.665 318.753L501.71 320.678L506.247 250.855Z" fill="#6778B7"/>
<path d="M381.178 238.508L376.283 406.368L263.34 399.245C263.34 399.245 261.91 357.335 248.022 333.713" stroke="#45459B" stroke-width="1.1048" stroke-miterlimit="10" stroke-linecap="round" stroke-linejoin="round"/>
<path d="M306.432 354.283C309.017 354.448 311.245 352.468 311.382 349.883C311.52 347.298 309.567 345.07 306.982 344.933C304.397 344.768 302.17 346.748 302.033 349.333C301.895 351.918 303.848 354.118 306.432 354.283Z" fill="#FFC731"/>
<path d="M319.88 355.08C322.465 355.245 324.692 353.265 324.83 350.68C324.995 348.095 323.015 345.868 320.43 345.73C317.845 345.565 315.617 347.545 315.48 350.13C315.315 352.688 317.295 354.915 319.88 355.08Z" fill="#FFC731"/>
<path d="M343.722 361.543C343.557 360.443 342.98 359.48 342.1 358.82C341.44 358.325 340.67 358.05 339.872 357.995C339.597 357.968 339.322 357.995 339.02 358.023C337.92 358.188 336.957 358.765 336.297 359.645L332.777 364.32L329.835 359.26C329.34 358.408 328.542 357.775 327.607 357.445H327.58C327.497 357.418 327.387 357.363 327.305 357.335C327.03 357.253 326.755 357.225 326.48 357.198H326.452H326.425C326.15 357.17 325.875 357.198 325.572 357.225C325.462 357.253 325.38 357.28 325.27 357.308H325.242C324.28 357.528 323.427 358.05 322.822 358.848L319.33 363.523L316.415 358.49C315.92 357.638 315.122 357.005 314.215 356.675H314.187C314.105 356.648 313.995 356.593 313.912 356.565C313.637 356.483 313.362 356.455 313.087 356.428H313.06H313.032C312.757 356.4 312.482 356.428 312.18 356.455C312.07 356.483 311.987 356.51 311.877 356.538H311.85C310.887 356.758 310.035 357.28 309.43 358.078L305.91 362.753L302.967 357.693C302.417 356.73 301.51 356.043 300.437 355.768C300.162 355.685 299.887 355.658 299.612 355.63C298.815 355.575 298.017 355.768 297.302 356.18C295.322 357.335 294.635 359.865 295.79 361.845L301.867 372.323C302.417 373.285 303.325 373.973 304.397 374.248C304.425 374.248 304.452 374.248 304.452 374.248C304.507 374.248 304.562 374.275 304.59 374.275C304.81 374.33 305.002 374.358 305.222 374.385C305.387 374.385 305.552 374.385 305.717 374.358C305.8 374.358 305.91 374.358 305.992 374.358C306.02 374.358 306.047 374.358 306.047 374.358C307.147 374.193 308.11 373.615 308.77 372.735L312.29 368.033L315.232 373.12C315.645 373.863 316.277 374.413 317.02 374.77C317.102 374.798 317.185 374.825 317.295 374.88C317.46 374.935 317.597 375.018 317.762 375.045H317.79C317.955 375.1 318.12 375.1 318.285 375.128C318.395 375.155 318.505 375.183 318.587 375.183C318.725 375.183 318.835 375.183 318.972 375.183C319.11 375.183 319.247 375.183 319.412 375.155H319.44C319.605 375.128 319.77 375.073 319.935 375.045C320.017 375.018 320.1 375.018 320.182 374.99C320.98 374.715 321.667 374.22 322.162 373.56L325.682 368.858L328.625 373.945C329.175 374.908 330.082 375.595 331.155 375.87C331.182 375.87 331.21 375.87 331.21 375.87C331.265 375.898 331.32 375.898 331.402 375.898C331.595 375.925 331.787 375.98 332.007 375.98C332.227 375.98 332.447 375.98 332.64 375.953C332.695 375.953 332.722 375.953 332.777 375.953C332.805 375.953 332.832 375.953 332.86 375.953C333.96 375.788 334.922 375.21 335.582 374.33L342.842 364.65C343.612 363.715 343.887 362.615 343.722 361.543Z" fill="#FFC731"/>
<path d="M333.382 355.878C335.967 356.043 338.195 354.063 338.332 351.478C338.497 348.893 336.517 346.665 333.932 346.528C331.347 346.363 329.12 348.343 328.982 350.928C328.817 353.485 330.797 355.713 333.382 355.878Z" fill="#FFC731"/>
<path d="M749.43 441.678C749.347 435.573 753.362 421.3 753.005 415.168L734.827 413.408C735.267 419.375 737.385 434.06 737.495 440C741.427 440.88 745.442 441.458 749.43 441.678Z" fill="#F1653A"/>
<path d="M759.137 347.105C756.222 343.035 751.108 341.385 746.653 341.77C742.005 342.183 738.347 345.262 733.975 345.867C730.427 346.362 726.11 345.538 725.093 350.24C723.883 355.823 725.642 362.973 726.44 368.803C727.292 375.293 728.255 381.755 728.997 388.245C730.29 399.877 730.895 411.51 732.352 423.142C732.435 423.802 736.477 424.353 737.11 424.49C739.062 424.875 741.042 425.26 742.995 425.562C747.065 426.195 751.135 426.305 754.985 425.287C756.772 414.37 759.165 390.445 759.742 383.983C760.952 370.068 761.227 375.897 761.887 361.872C762.107 356.867 762.19 351.313 759.137 347.105Z" fill="#F89C33"/>
<path d="M731.94 424.847C735.075 425.865 738.237 426.827 741.427 427.542C743.765 428.065 752.4 428.312 754.435 427.872C754.792 427.79 755.177 427.707 755.452 427.432C755.727 427.157 755.81 426.717 755.865 426.305C756.057 425.067 756.14 423.83 756.14 422.565C756.14 422.428 756.14 422.29 756.057 422.18C755.975 422.07 753.197 422.647 752.867 422.675C751.382 422.785 749.897 422.785 748.412 422.703C745.415 422.565 742.418 422.097 739.448 421.465C738.678 421.3 731.253 419.87 731.28 419.155C731.225 419.732 731.362 424.655 731.94 424.847Z" fill="#FFCE60"/>
<path d="M736.945 451.77C737.055 453.31 737.11 454.877 737.137 456.417C737.22 460.872 735.24 462.797 731.39 463.705C729.025 464.255 726.688 464.805 724.323 465.355C723.003 465.657 722.48 466.207 721.517 467.06C721.132 467.39 720.747 467.857 720.83 468.435C720.885 468.875 721.243 469.287 721.628 469.507C722.013 469.727 722.452 469.81 722.865 469.892C728.145 470.827 733.48 471.02 738.76 471.515C741.043 471.707 743.325 471.927 745.608 472.12C746.955 472.23 749.953 473.137 750.695 471.597C750.998 470.965 750.97 470.195 750.943 469.452C750.805 466.4 751.135 433.372 751.932 433.51C746.212 432.657 740.465 431.942 734.745 431.172C735.432 437.965 736.505 444.922 736.945 451.77Z" fill="#6AC0A2"/>
<g opacity="0.23">
<path opacity="0.23" d="M749.43 441.678C749.347 435.573 753.362 421.3 753.005 415.168L734.827 413.408C735.267 419.375 737.385 434.06 737.495 440C741.427 440.88 745.442 441.458 749.43 441.678Z" fill="#D34831"/>
<path opacity="0.23" d="M759.137 347.105C756.222 343.035 751.108 341.385 746.653 341.77C742.005 342.183 738.347 345.262 733.975 345.867C730.427 346.362 726.11 345.538 725.093 350.24C723.883 355.823 725.642 362.973 726.44 368.803C727.292 375.293 728.255 381.755 728.997 388.245C730.29 399.877 730.895 411.51 732.352 423.142C732.435 423.802 736.477 424.353 737.11 424.49C739.062 424.875 741.042 425.26 742.995 425.562C747.065 426.195 751.135 426.305 754.985 425.287C756.772 414.37 759.165 390.445 759.742 383.983C760.952 370.068 761.227 375.897 761.887 361.872C762.107 356.867 762.19 351.313 759.137 347.105Z" fill="#D34831"/>
<path opacity="0.23" d="M731.94 424.847C735.075 425.865 738.237 426.827 741.427 427.542C743.765 428.065 752.4 428.312 754.435 427.872C754.792 427.79 755.177 427.707 755.452 427.432C755.727 427.157 755.81 426.717 755.865 426.305C756.057 425.067 756.14 423.83 756.14 422.565C756.14 422.428 756.14 422.29 756.057 422.18C755.975 422.07 753.197 422.647 752.867 422.675C751.382 422.785 749.897 422.785 748.412 422.703C745.415 422.565 742.418 422.097 739.448 421.465C738.678 421.3 731.253 419.87 731.28 419.155C731.225 419.732 731.362 424.655 731.94 424.847Z" fill="#D34831"/>
<path opacity="0.23" d="M736.945 451.77C737.055 453.31 737.11 454.877 737.137 456.417C737.22 460.872 735.24 462.797 731.39 463.705C729.025 464.255 726.688 464.805 724.323 465.355C723.003 465.657 722.48 466.207 721.517 467.06C721.132 467.39 720.747 467.857 720.83 468.435C720.885 468.875 721.243 469.287 721.628 469.507C722.013 469.727 722.452 469.81 722.865 469.892C728.145 470.827 733.48 471.02 738.76 471.515C741.043 471.707 743.325 471.927 745.608 472.12C746.955 472.23 749.953 473.137 750.695 471.597C750.998 470.965 750.97 470.195 750.943 469.452C750.805 466.4 751.135 433.372 751.932 433.51C746.212 432.657 740.465 431.942 734.745 431.172C735.432 437.965 736.505 444.922 736.945 451.77Z" fill="#D34831"/>
</g>
<path d="M754.298 442.695C754.078 436.645 757.983 421.96 757.488 415.938L738.375 416.763C738.952 422.62 741.483 436.865 741.73 442.723C745.91 443.025 750.118 443.025 754.298 442.695Z" fill="#F1653A"/>
<path d="M762.465 347.628C759.33 344.025 753.913 343.09 749.238 344.108C744.37 345.153 740.602 348.755 736.037 349.965C732.325 350.955 727.787 350.762 726.825 355.547C725.67 361.24 727.705 368.088 728.64 373.753C729.685 380.05 730.84 386.32 731.747 392.645C733.37 403.975 734.25 415.415 736.01 426.745C736.12 427.405 740.355 427.378 741.042 427.405C743.105 427.515 745.168 427.598 747.258 427.625C751.548 427.68 755.81 427.213 759.825 425.645C761.447 414.59 763.455 390.555 763.895 384.065C764.857 370.123 765.27 375.843 765.655 361.873C765.765 356.868 765.738 351.368 762.465 347.628Z" fill="#F89C33"/>
<path d="M735.625 428.478C738.953 429.028 742.28 429.577 745.635 429.797C748.11 429.962 757.158 429.028 759.275 428.313C759.66 428.175 760.045 428.037 760.32 427.735C760.595 427.405 760.678 426.965 760.733 426.553C760.898 425.315 760.953 424.05 760.953 422.813C760.953 422.675 760.953 422.538 760.843 422.455C760.76 422.373 757.845 423.335 757.515 423.39C755.975 423.693 754.408 423.913 752.84 424.05C749.705 424.325 746.543 424.298 743.408 424.105C742.583 424.05 734.773 423.693 734.773 422.978C734.745 423.5 735.02 428.368 735.625 428.478Z" fill="#FFCE60"/>
<path d="M741.428 454.437C741.565 455.95 741.675 457.49 741.73 459.002C741.895 463.402 739.888 465.602 735.845 467.032C733.398 467.912 730.923 468.765 728.475 469.645C727.1 470.14 726.578 470.745 725.56 471.707C725.148 472.092 724.79 472.615 724.873 473.165C724.955 473.605 725.313 473.935 725.725 474.127C726.138 474.292 726.578 474.32 727.018 474.32C732.573 474.485 738.183 473.962 743.738 473.687C746.13 473.577 748.523 473.44 750.915 473.33C752.345 473.247 755.508 473.715 756.25 472.092C756.553 471.432 756.498 470.662 756.443 469.947C756.223 466.922 755.865 434.197 756.718 434.197C750.695 434.17 744.673 434.252 738.65 434.307C739.558 440.962 740.823 447.7 741.428 454.437Z" fill="#6AC0A2"/>
<path d="M702.487 265.98C702.9 265.788 704.88 269.858 705.155 270.38C704.44 268.675 703.725 266.97 703.34 265.183C703.175 264.358 702.515 261.333 703.45 260.783C704.358 260.233 704.935 263.34 705.182 264.028C705.787 265.788 706.42 267.575 707.025 269.335C706.503 267.685 706.062 265.98 705.87 264.248C705.705 262.68 705.127 261.25 705.43 259.628C705.485 259.325 705.678 258.968 705.98 259.05C706.145 259.105 706.228 259.27 706.31 259.435C707.41 262.213 707.932 264.963 708.785 267.823C708.207 265.843 707.795 263.34 707.988 261.278C708.153 259.628 708.757 259.6 709.39 261.25C710.298 263.67 710.848 266.2 711.04 268.758C711.205 269.253 711.37 269.72 711.535 270.215C711.26 269.418 712.69 266.42 713.708 267.135C714.34 267.575 713.763 270.133 713.653 270.738C713.35 272.525 713.378 274.34 712.003 275.715C711.095 276.65 709.803 277.2 708.483 277.2C706.31 277.2 704.605 273.295 703.862 271.645C703.367 270.518 702.955 269.363 702.68 268.153C702.625 267.768 701.992 266.2 702.487 265.98Z" fill="#D25931"/>
<path d="M693.66 305.497C696.493 296.67 700.727 288.557 704.99 280.39C705.677 279.097 706.365 277.722 706.42 276.265C706.475 274.945 706.173 273.322 707.273 272.607C707.905 272.195 708.785 272.36 709.39 272.8C709.995 273.24 710.38 273.927 710.682 274.642C711.837 277.392 711.37 280.087 710.958 282.92C710.517 285.972 709.94 288.997 709.225 291.995C708.125 296.532 706.722 301.015 704.99 305.36C704.192 307.395 703.56 309.292 701.91 310.75C700.425 312.07 698.583 312.922 696.603 313.005C694.953 313.087 693.22 312.372 692.753 310.777C692.423 309.705 692.78 308.467 693.11 307.285C693.275 306.707 693.468 306.102 693.66 305.497Z" fill="#D25931"/>
<path d="M704.165 315.37C710.105 315.562 715.715 314.325 721.573 313.885C726.193 313.527 730.51 310.887 733.012 306.982C734.14 305.195 734.937 303.077 734.745 300.96C734.607 299.392 733.892 297.742 732.627 296.753C731.583 295.928 730.125 296.065 728.832 296.258C727.155 296.533 726.275 297.632 724.845 298.402C721.38 300.272 717.585 301.482 713.762 302.417C711.095 303.077 708.373 303.435 705.733 304.095C704.495 304.425 703.257 304.865 702.02 305.222C700.81 305.58 699.187 306.405 697.922 306.432C696.63 306.817 695.283 307.23 694.21 307.972C693.138 308.715 692.312 309.897 692.477 311.135C692.752 313.5 695.97 314.6 698.61 314.93C700.452 315.177 702.295 315.315 704.165 315.37Z" fill="#D25931"/>
<path d="M730.427 265.347C727.54 258.142 718.85 254.732 712.443 259.847C709.445 262.24 707.575 265.842 707.218 269.582C706.998 271.865 707.383 274.202 708.4 276.347C708.703 276.98 709.087 277.64 709.142 278.355C709.252 280.115 706.557 280.39 706.557 282.04C706.557 282.7 707.245 283.195 707.905 283.195C708.455 283.222 708.813 282.81 709.335 282.755C709.995 282.672 710.407 283.03 710.682 283.607C710.875 283.992 711.122 284.432 711.535 284.46C711.892 284.487 712.195 284.24 712.443 283.965C712.883 283.497 713.377 282.92 714.037 282.947C714.67 282.975 715.137 283.58 715.495 284.102C716.347 285.395 715.605 286.055 714.423 286.742C713.873 287.045 713.433 287.402 714.065 288.007C714.973 288.887 716.018 290.51 717.448 290.372C719.455 290.207 721.628 288.53 723.113 287.292C724.763 285.945 726.22 284.35 727.457 282.617C729.905 279.207 731.527 275.055 731.5 270.82C731.472 268.977 731.142 267.107 730.427 265.347Z" fill="#F1653A"/>
<path d="M727.128 278.438C730.923 281.683 735.46 284.763 738.787 288.475C741.4 291.363 737.495 296.285 735.57 298.678C731.088 304.26 726.137 309.485 720.912 314.353C720.362 309.1 723.47 304.398 724.515 299.393C725.037 296.863 725.093 295.02 723.525 292.93C722.178 291.087 720.39 289.63 718.932 287.898C718.96 287.898 727.128 278.438 727.128 278.438Z" fill="#F1653A"/>
<path d="M725.23 301.097C724.68 301.317 724.075 301.482 723.443 301.565C722.7 301.675 721.517 307.835 721.325 308.632C720.747 311.245 720.363 313.912 720.198 316.58C719.868 321.778 719.867 327.167 720.06 332.365C720.252 337.563 720.802 342.732 721.022 347.93C721.05 348.755 720.967 362.202 719.29 361.652C723.002 363.247 727.348 362.753 731.28 362.67C735.955 362.56 740.63 361.955 745.25 361.35C747.395 361.075 768.625 357.5 768.267 355.438C764.5 332.942 760.072 309.017 744.452 292.38C741.62 289.382 734.03 284.652 731.692 290.675C731.225 291.885 731.115 293.177 730.675 294.387C729.658 297.302 728.035 299.97 725.23 301.097Z" fill="#45459B"/>
<path d="M711.442 277.273C711.739 277.121 711.734 276.515 711.43 275.92C711.125 275.325 710.638 274.966 710.34 275.118C710.043 275.27 710.048 275.876 710.352 276.471C710.657 277.066 711.144 277.425 711.442 277.273Z" fill="black"/>
<path d="M710.325 271.645C709.582 271.452 708.07 271.837 708.95 272.69C709.362 273.075 710.132 273.35 710.682 273.487C711.177 273.597 712.36 273.597 712.113 272.827C711.948 272.332 710.792 271.782 710.325 271.645Z" fill="#994396"/>
<path d="M764.308 319.027C762.713 318.532 761.228 317.707 759.77 316.91C755.288 314.407 750.805 311.905 746.46 309.182C742.61 306.762 737.77 304.205 735.543 300.08C733.48 296.257 735.268 292.187 739.75 291.72C745.195 291.142 749.65 296.505 753.198 299.832C757.818 304.15 762.328 308.55 767.14 312.592C767.938 313.28 768.763 313.967 769.23 314.902C770.468 317.432 768.378 319.77 765.82 319.385C765.325 319.302 764.83 319.192 764.308 319.027Z" fill="#F1653A"/>
<path d="M726.426 229.638C726.5 222.546 722.387 216.753 717.239 216.698C712.091 216.644 707.857 222.35 707.783 229.442C707.708 236.534 711.821 242.327 716.97 242.381C722.118 242.435 726.352 236.73 726.426 229.638Z" fill="#00BCCC"/>
<path d="M722.989 229.602C723.036 225.137 720.439 221.49 717.189 221.456C713.939 221.421 711.267 225.013 711.22 229.478C711.173 233.943 713.77 237.59 717.019 237.624C720.269 237.658 722.942 234.066 722.989 229.602Z" stroke="#008793" stroke-width="0.1833" stroke-miterlimit="10" stroke-linecap="round" stroke-linejoin="round"/>
<path d="M710.573 220.495C711.04 221.155 711.893 222.365 712.937 223.822" stroke="#008793" stroke-width="0.1833" stroke-miterlimit="10" stroke-linecap="round" stroke-linejoin="round"/>
<path d="M721.16 235.4C722.287 236.967 723.14 238.205 723.552 238.755" stroke="#008793" stroke-width="0.1833" stroke-miterlimit="10" stroke-linecap="round" stroke-linejoin="round"/>
<path d="M710.325 238.452C710.82 237.792 711.7 236.582 712.827 235.07" stroke="#008793" stroke-width="0.1833" stroke-miterlimit="10" stroke-linecap="round" stroke-linejoin="round"/>
<path d="M721.297 223.657C722.397 222.2 723.25 221.017 723.662 220.44" stroke="#008793" stroke-width="0.1833" stroke-miterlimit="10" stroke-linecap="round" stroke-linejoin="round"/>
<path d="M769.56 315.92C769.587 316.057 769.615 316.195 769.615 316.332C769.972 320.045 767.36 323.675 765.463 326.617C762.135 331.76 757.818 336.242 753.858 340.89C753.5 341.33 753.115 341.77 752.565 341.962C751.658 342.292 750.585 341.688 750.173 340.807C749.76 339.927 749.898 338.855 750.31 337.975C750.695 337.095 751.328 336.325 751.905 335.528C755.26 330.935 756.965 325.545 759.055 320.293C759.577 318.972 759.908 317.267 760.65 316.057C761.255 315.067 762.492 314.187 763.455 313.555C764.5 312.895 765.738 312.427 766.92 312.702C768.323 313.087 769.285 314.462 769.56 315.92Z" fill="#F1653A"/>
<path d="M720.968 254.98C724.873 254.43 729.162 255.42 731.912 258.252C735.515 261.937 735.955 267.602 739.64 271.26C743.655 275.247 751.108 272.827 756.195 274.752C761.887 276.897 765.352 283.745 763.73 289.602C759.88 303.325 740.052 298.485 731.747 292.49C726.688 288.832 722.865 283.47 721.105 277.475C720.528 275.55 719.95 273.295 718.135 272.497C716.513 271.782 714.615 272.552 712.828 272.635C709.775 272.745 706.338 270.325 706.695 267.135C707.025 264.302 709.555 261.552 711.508 259.682C714.093 257.207 717.42 255.475 720.968 254.98Z" fill="#994396"/>
<path d="M718.932 272.112C719.18 271.315 719.648 270.655 720.335 270.325C721.105 269.967 722.04 270.187 722.755 270.627C725.175 272.03 724.928 274.752 723.305 276.76C722.535 277.695 720.995 278.96 719.867 277.777C718.795 276.65 718.327 273.982 718.932 272.112Z" fill="#F1653A"/>
<path d="M751.932 342.897C751.19 343.31 750.31 343.447 749.485 343.557C747.89 343.75 746.295 343.915 744.672 343.887C743.655 343.887 741.675 344.052 740.85 343.42C739.915 342.732 741.73 342.595 742.307 342.485C743.572 342.265 744.865 342.155 746.157 342.155C744.287 342.182 742.445 342.045 740.575 341.797C739.64 341.66 738.732 341.44 737.825 341.302C737.302 341.22 736.505 340.917 736.917 340.34C737.44 339.625 739.75 339.817 740.52 339.845C741.427 339.872 742.307 339.955 743.215 339.982C743.875 340.01 744.837 339.735 745.47 339.845C742.582 339.35 739.64 339.267 736.807 338.525C736.505 338.442 736.12 338.277 736.147 337.947C736.175 337.645 736.532 337.507 736.835 337.452C738.127 337.287 739.2 337.727 740.437 337.782C742.115 337.865 743.82 337.92 745.47 338.25C742.885 337.755 740.327 336.985 737.852 335.995C737.495 335.857 737.055 335.555 737.137 335.17C737.22 334.757 737.825 334.73 738.237 334.785C741.73 335.335 745.25 335.885 748.742 336.435C747.862 335.39 746.982 334.015 746.982 332.612C746.982 332.282 747.037 331.952 747.202 331.65C747.367 331.375 747.67 331.127 748 331.127C748.825 331.1 748.605 331.897 748.633 332.42C748.715 333.547 749.43 334.537 750.227 335.362C751.025 336.187 751.933 336.902 752.565 337.865C753.61 339.377 753.72 341.88 751.932 342.897Z" fill="#F1653A"/>
<path d="M732.738 267.657C736.23 266.64 739.695 265.375 742.583 263.092C743.105 262.68 743.655 262.047 743.435 261.415C742.693 259.325 737.468 262.157 736.313 262.57C734.14 263.367 733.783 260.067 733.48 258.692C732.958 256.19 731.83 254.182 729.108 253.715C724.763 252.945 720.5 254.512 716.403 255.75C714.23 256.41 712.085 256.795 709.885 257.235C708.29 257.537 706.503 258.417 705.76 260.012C704.935 261.772 705.65 263.835 705.953 265.76C706.063 266.502 706.09 267.382 705.54 267.905C705.1 268.317 704.468 268.372 703.863 268.372C702.68 268.427 696.163 267.74 697.153 270.38C697.428 271.15 698.39 271.315 699.188 271.342C706.833 271.617 714.835 271.067 722.398 269.94C725.89 269.417 729.355 268.647 732.738 267.657Z" fill="#FFC731"/>
<path d="M697.675 257.317L693.935 251.707" stroke="#F1653A" stroke-width="0.9273" stroke-miterlimit="10" stroke-linecap="round" stroke-linejoin="round"/>
<path d="M694.348 260.892L688.682 257.262" stroke="#F1653A" stroke-width="0.9273" stroke-miterlimit="10" stroke-linecap="round" stroke-linejoin="round"/>
<path d="M693.633 265.457L686.895 265.705" stroke="#F1653A" stroke-width="0.9273" stroke-miterlimit="10" stroke-linecap="round" stroke-linejoin="round"/>
<path d="M321.777 166.595C321.777 166.595 321.392 166.595 321.365 166.595C307.642 166.595 293.948 166.595 280.225 166.595C271.673 166.595 263.12 166.595 254.595 166.595C251.735 166.595 248.875 166.595 246.015 166.595C241.45 166.595 231.028 166.623 231.028 166.623C231.028 166.623 232.513 163.24 233.2 161.453C233.888 159.665 235.4 158.043 237.325 157.823C239.305 157.603 241.478 158.84 243.21 157.85C245.355 156.64 246.07 151.883 247.748 149.875C251.46 145.393 258.473 143.083 263.258 146.383C266.255 148.445 267.768 152.213 270.848 154.138C278.465 158.923 289.41 149.71 297.082 154.413C298.87 155.513 300.19 157.245 302.005 158.263C305.222 160.078 309.21 159.363 312.895 159.5C316.58 159.61 321.447 162.91 321.777 166.595Z" stroke="#00BCCC" stroke-width="0.5732" stroke-miterlimit="10" stroke-linecap="round" stroke-linejoin="round"/>
<path d="M152.075 101.227H75.955C77.055 95.755 77.5775 89.5125 81.125 85.2225C84.7 80.9325 91.3825 78.705 95.975 81.8675C98.835 83.8475 100.293 87.45 103.263 89.2925C110.578 93.885 121.028 85.03 128.398 89.54C130.103 90.585 131.368 92.2625 133.128 93.225C136.208 94.985 140.03 94.27 143.55 94.4075C147.07 94.545 151.773 97.7075 152.075 101.227Z" fill="#00BCCC"/>
<path d="M726.578 99.055H680.047C680.735 95.7275 681.038 91.8775 683.21 89.265C685.383 86.6525 689.48 85.2775 692.285 87.23C694.045 88.44 694.925 90.64 696.74 91.7675C701.195 94.5725 707.603 89.155 712.113 91.9325C713.158 92.565 713.928 93.5825 715 94.1875C716.898 95.26 719.208 94.8475 721.38 94.9025C723.525 94.985 726.385 96.91 726.578 99.055Z" fill="#00BCCC"/>
<defs>
<linearGradient id="paint0_linear" x1="22.2723" y1="445.716" x2="76.2955" y2="422.523" gradientUnits="userSpaceOnUse">
<stop stop-color="#2E2D76"/>
<stop offset="0.0868" stop-color="#33337E"/>
<stop offset="0.3244" stop-color="#3D3E8E"/>
<stop offset="0.5946" stop-color="#434597"/>
<stop offset="0.9649" stop-color="#45479A"/>
</linearGradient>
</defs>
</svg>
