<svg width="133" height="52" viewBox="0 0 133 52" fill="none" xmlns="http://www.w3.org/2000/svg">
<path d="M72.4409 39.043V20.3925C72.4409 19.3049 71.9973 18.0409 70.2954 18.0409C68.5934 18.0409 68.1518 19.299 68.1518 20.3925V39.043H64V19.9457C64 17.0591 65.6686 14 70.2954 14C72.2015 14 73.5972 14.5448 74.5159 15.4286C75.4345 14.5448 76.7969 14 78.7363 14C83.3631 14 85.0297 17.0591 85.0297 19.9457V39.0391H80.8799V20.3925C80.8799 19.3049 80.4363 18.0409 78.7363 18.0409C77.0364 18.0409 76.5908 19.299 76.5908 20.3925V39.043H72.4409Z" fill="#231F20"/>
<path d="M101.091 14V33.0934C101.091 35.982 99.3244 39.0391 94.6937 39.0391C90.0629 39.0391 88.2962 35.982 88.2962 33.0934V14H92.448V32.6524C92.448 33.7401 92.9917 35.0041 94.6937 35.0041C96.3956 35.0041 96.9394 33.7479 96.9394 32.6524V14H101.091Z" fill="#231F20"/>
<path d="M104.424 38.5296V14H111.911C115.178 14 116.507 16.2086 116.507 18.7582V33.7734C116.507 36.321 115.178 38.5296 111.911 38.5296H104.424ZM112.353 19.3343C112.353 18.4858 112.157 17.941 110.891 17.941H108.576V34.5886H110.891C112.151 34.5886 112.353 34.0458 112.353 33.1953V19.3343Z" fill="#231F20"/>
<path d="M130.695 19.1638L132.499 39.0391H128.481L127.937 33.1953H123.583L123.038 39.0391H119.021L120.825 19.1638C120.996 17.161 121.473 14 125.76 14C130.048 14 130.525 17.1669 130.695 19.1638ZM126.781 20.2181C126.646 18.6504 126.475 18.0429 125.76 18.0429C125.046 18.0429 124.875 18.6543 124.74 20.2181L123.923 29.3895H127.598L126.781 20.2181Z" fill="#231F20"/>
<path d="M52 13.4772C51.9991 12.5801 51.75 11.7009 51.2806 10.938C50.8111 10.1751 50.1399 9.55862 49.3419 9.15747C50.1073 8.7718 50.7565 8.1876 51.2222 7.46523C51.688 6.74286 51.9535 5.90852 51.9913 5.04842C52.0292 4.18833 51.8379 3.33368 51.4374 2.57279C51.0368 1.8119 50.4415 1.17236 49.7129 0.720265C48.9842 0.26817 48.1488 0.019913 47.2929 0.00114875C46.4369 -0.0176155 45.5915 0.193795 44.844 0.613531C44.0965 1.03327 43.474 1.6461 43.0409 2.38872C42.6077 3.13133 42.3796 3.97679 42.3801 4.83772C42.3786 5.73235 42.0637 6.59785 41.4908 7.28231C40.918 7.96677 40.1237 8.42647 39.2473 8.58071C37.8496 7.4645 36.3333 6.50734 34.7261 5.72673C34.9467 4.52153 34.704 3.27707 34.047 2.24498C33.39 1.21288 32.3677 0.470174 31.187 0.167021C30.0063 -0.136133 28.7551 0.0228918 27.6865 0.611941C26.6179 1.20099 25.8116 2.17611 25.4306 3.34013C25.035 3.32024 24.6177 3.30831 24.2083 3.30831C19.5247 3.30823 14.9417 4.67441 11.0148 7.24123C7.08785 9.80804 3.9857 13.4653 2.08441 17.7695C0.183109 22.0738 -0.435695 26.8403 0.303009 31.4911C1.04171 36.142 3.10621 40.4775 6.24621 43.972C7.12637 43.5791 7.87423 42.9377 8.39906 42.1257C8.9239 41.3138 9.20316 40.3661 9.20298 39.3977V39.3977C9.20272 38.9198 9.29609 38.4466 9.47776 38.0051C9.65944 37.5635 9.92585 37.1623 10.2618 36.8243C10.5977 36.4863 10.9966 36.2182 11.4356 36.0352C11.8746 35.8523 12.3451 35.7581 12.8203 35.7581H21.4137C22.733 35.7581 23.9981 35.2312 24.931 34.2931C25.8638 33.3551 26.3878 32.0828 26.3878 30.7562C26.3878 29.4295 25.8639 28.157 24.9311 27.2186C23.9983 26.2803 22.7331 25.7528 21.4137 25.7523C21.2891 25.7523 21.1645 25.7523 21.0439 25.7344C20.393 25.6664 19.7727 25.4222 19.2487 25.028C18.7248 24.6337 18.3169 24.1041 18.0684 23.4953C17.8199 22.8866 17.7401 22.2215 17.8374 21.5708C17.9347 20.9201 18.2056 20.308 18.6211 19.7997C18.7695 19.6207 18.9336 19.4557 19.1116 19.3065C19.7596 18.769 20.5738 18.4756 21.4137 18.4772C22.0671 18.4772 22.7141 18.3477 23.3177 18.0962C23.9213 17.8447 24.4698 17.4761 24.9317 17.0114C25.3936 16.5467 25.7599 15.9951 26.0098 15.388C26.2596 14.7809 26.3881 14.1303 26.3878 13.4732C26.3878 12.7534 26.6001 12.0497 26.9978 11.4512C27.3955 10.8527 27.9608 10.3862 28.6221 10.1107C29.2835 9.83525 30.0112 9.76318 30.7133 9.90361C31.4153 10.044 32.0602 10.3907 32.5664 10.8997C33.0726 11.4087 33.4173 12.0572 33.557 12.7632C33.6966 13.4692 33.6249 14.201 33.351 14.866C33.0771 15.5311 32.6132 16.0995 32.018 16.4994C31.4228 16.8994 30.723 17.1128 30.0072 17.1128C28.688 17.1128 27.4228 17.6398 26.49 18.5778C25.5571 19.5159 25.0331 20.7881 25.0331 22.1147C25.0331 23.4413 25.5571 24.7136 26.49 25.6516C27.4228 26.5897 28.688 27.1167 30.0072 27.1167C31.324 27.1161 32.5869 26.5906 33.5189 25.6551C34.451 24.7197 34.9761 23.4508 34.9793 22.1267C34.9789 21.4067 35.1909 20.7027 35.5884 20.1039C35.986 19.5051 36.5512 19.0383 37.2126 18.7625C37.8741 18.4868 38.602 18.4146 39.3042 18.5549C40.0065 18.6953 40.6516 19.042 41.1579 19.5511C41.6642 20.0602 42.0089 20.7089 42.1485 21.4151C42.2881 22.1213 42.2162 22.8533 41.9421 23.5184C41.6679 24.1835 41.2037 24.7519 40.6082 25.1517C40.0127 25.5515 39.3126 25.7646 38.5966 25.7643C37.2772 25.7648 36.0121 26.2922 35.0793 27.2306C34.1465 28.1689 33.6225 29.4414 33.6225 30.7682V30.7682C33.622 31.7327 33.2407 32.6577 32.5625 33.3397C31.8842 34.0218 30.9644 34.4052 30.0052 34.4057C28.6879 34.4073 27.4249 34.9341 26.4932 35.8706C25.5615 36.8072 25.0371 38.077 25.035 39.4017V39.4017C25.0359 39.6475 25.0114 39.8928 24.9619 40.1336C24.9145 40.368 24.8443 40.5972 24.7522 40.8177C24.6605 41.0335 24.5486 41.2399 24.418 41.4343C24.087 41.9286 23.6402 42.3335 23.1171 42.6134C22.5939 42.8932 22.0103 43.0395 21.4177 43.0393H12.8183C11.86 43.0395 10.9221 43.3184 10.1178 43.8424C9.31352 44.3664 8.67711 45.1132 8.28529 45.9927C11.7869 49.0676 16.0948 51.0636 20.6944 51.7422C25.2939 52.4207 29.9905 51.7532 34.2228 49.8193C38.4551 47.8854 42.0442 44.767 44.5612 40.8367C47.0781 36.9064 48.4165 32.3304 48.4163 27.6556C48.4163 27.3672 48.4163 27.0809 48.3985 26.7945C49.3455 26.5483 50.1952 26.0172 50.8338 25.2722C51.4725 24.5272 51.8697 23.6039 51.9723 22.6257C52.0748 21.6475 51.8779 20.6612 51.4079 19.7986C50.9378 18.936 50.217 18.2384 49.3419 17.799C50.1399 17.3973 50.8111 16.7804 51.2805 16.0172C51.7499 15.254 51.999 14.3746 52 13.4772ZM12.8183 34.3978C12.1024 34.3978 11.4026 34.1843 10.8074 33.7843C10.2121 33.3843 9.74822 32.8157 9.47434 32.1506C9.20046 31.4854 9.1289 30.7535 9.26871 30.0474C9.40853 29.3414 9.75343 28.6929 10.2598 28.1839C10.7662 27.675 11.4113 27.3285 12.1135 27.1883C12.8157 27.0481 13.5435 27.1205 14.2048 27.3963C14.8661 27.672 15.4312 28.1388 15.8287 28.7376C16.2261 29.3364 16.4381 30.0403 16.4377 30.7602C16.4377 31.2381 16.344 31.7112 16.1621 32.1527C15.9802 32.5942 15.7136 32.9953 15.3775 33.3331C15.0414 33.6709 14.6424 33.9388 14.2033 34.1215C13.7641 34.3041 13.2935 34.398 12.8183 34.3978V34.3978ZM21.4118 27.1206C22.1277 27.1202 22.8276 27.3334 23.4231 27.733C24.0186 28.1327 24.4828 28.701 24.757 29.366C25.0312 30.031 25.1032 30.7629 24.9638 31.469C24.8243 32.1752 24.4798 32.8239 23.9737 33.3331C23.4676 33.8423 22.8227 34.1891 22.1206 34.3297C21.4184 34.4703 20.6906 34.3983 20.0291 34.1229C19.3677 33.8475 18.8023 33.381 18.4045 32.7824C18.0067 32.1839 17.7944 31.4801 17.7944 30.7602C17.7939 29.4332 17.2695 28.1608 16.3364 27.2225C15.4033 26.2842 14.1379 25.7568 12.8183 25.7563C12.1027 25.7559 11.4032 25.542 10.8084 25.1417C10.2136 24.7414 9.75027 24.1727 9.47702 23.5075C9.20376 22.8424 9.13288 22.1106 9.27332 21.4049C9.41376 20.6992 9.75922 20.0512 10.266 19.543C10.7728 19.0348 11.418 18.6892 12.1202 18.5499C12.8224 18.4106 13.5498 18.4839 14.2106 18.7605C14.8713 19.0371 15.4356 19.5046 15.832 20.1038C16.2285 20.703 16.4392 21.407 16.4377 22.1267C16.4398 23.4519 16.9647 24.7221 17.8973 25.6584C18.8299 26.5947 20.0939 27.1206 21.4118 27.1206V27.1206ZM38.5966 34.3978C37.9433 34.3978 37.2963 34.5272 36.6927 34.7787C36.0891 35.0302 35.5406 35.3988 35.0787 35.8635C34.6168 36.3282 34.2505 36.8798 34.0006 37.4869C33.7507 38.094 33.6223 38.7447 33.6225 39.4017C33.6225 40.1216 33.4102 40.8254 33.0124 41.4239C32.6147 42.0225 32.0493 42.489 31.3878 42.7644C30.7264 43.0398 29.9985 43.1118 29.2964 42.9712C28.5943 42.8306 27.9494 42.4837 27.4433 41.9745C26.9372 41.4653 26.5926 40.8167 26.4532 40.1105C26.3138 39.4044 26.3857 38.6725 26.66 38.0075C26.9342 37.3425 27.3984 36.7742 27.9939 36.3745C28.5893 35.9749 29.2893 35.7617 30.0052 35.7621C31.3244 35.7621 32.5896 35.2351 33.5224 34.2971C34.4552 33.359 34.9793 32.0868 34.9793 30.7602C34.9789 30.0402 35.1909 29.3362 35.5884 28.7374C35.986 28.1386 36.5512 27.6718 37.2126 27.3961C37.8741 27.1204 38.602 27.0481 39.3042 27.1885C40.0065 27.3289 40.6516 27.6755 41.1579 28.1847C41.6642 28.6938 42.0089 29.3425 42.1485 30.0487C42.2881 30.7548 42.2162 31.4868 41.9421 32.1519C41.6679 32.8171 41.2037 33.3855 40.6082 33.7852C40.0127 34.185 39.3126 34.3982 38.5966 34.3978V34.3978ZM30.0052 8.4753C28.6868 8.47688 27.423 9.0045 26.4911 9.94232C25.5593 10.8801 25.0356 12.1515 25.035 13.4772C25.035 14.1967 24.8229 14.9 24.4254 15.4982C24.0279 16.0964 23.463 16.5626 22.802 16.8379C22.141 17.1132 21.4137 17.1853 20.712 17.0449C20.0103 16.9046 19.3657 16.5581 18.8599 16.0494C18.354 15.5407 18.0094 14.8925 17.8699 14.1869C17.7303 13.4813 17.8019 12.7499 18.0757 12.0852C18.3495 11.4205 18.8131 10.8524 19.408 10.4527C20.0029 10.053 20.7023 9.83964 21.4177 9.83964C22.0709 9.83964 22.7177 9.71026 23.3212 9.45889C23.9247 9.20752 24.473 8.83908 24.9349 8.37461C25.3968 7.91014 25.7632 7.35874 26.0132 6.75188C26.2631 6.14501 26.3918 5.49459 26.3918 4.83772C26.393 4.35976 26.4878 3.8867 26.6707 3.44554V3.44554L26.7122 3.35206C26.7419 3.28842 26.7735 3.22279 26.8052 3.15318C26.8368 3.08357 26.8467 3.07562 26.8684 3.03783C26.8902 3.00004 26.9337 2.92844 26.9673 2.87474C27.001 2.82104 27.0108 2.80314 27.0346 2.76933C27.088 2.69177 27.1453 2.61619 27.2047 2.54261C27.2244 2.51675 27.2462 2.49488 27.266 2.46902C27.3154 2.41134 27.3668 2.35566 27.4183 2.30196L27.5053 2.21644C27.5528 2.16871 27.6042 2.12296 27.6556 2.07921L27.7406 2.00562C27.8178 1.94198 27.8989 1.88231 27.9819 1.82464L28.0254 1.79679C28.0986 1.74906 28.1738 1.70332 28.2489 1.65956L28.3439 1.60984L28.5416 1.51239L28.6346 1.47261C28.7315 1.43284 28.8324 1.39505 28.9293 1.36323H28.9491C29.046 1.3334 29.1468 1.30953 29.2418 1.28765L29.3387 1.26975C29.4178 1.25384 29.4969 1.24191 29.578 1.23197H29.6749C29.7857 1.22202 29.8964 1.21407 30.0091 1.21407C30.9541 1.23628 31.853 1.62939 32.5135 2.30933C33.1741 2.98927 33.5439 3.9021 33.5439 4.85264C33.5439 5.80318 33.1741 6.716 32.5135 7.39595C31.853 8.07589 30.9541 8.46899 30.0091 8.49121L30.0052 8.4753ZM50.3763 20.3844C50.4316 20.4879 50.483 20.5933 50.5285 20.7027C50.7158 21.151 50.812 21.6324 50.8114 22.1187C50.8114 22.2321 50.8114 22.3434 50.7955 22.4548C50.7955 22.4906 50.7856 22.5264 50.7817 22.5622C50.7817 22.6378 50.7619 22.7134 50.7481 22.7889L50.7243 22.9083C50.7085 22.9799 50.6887 23.0495 50.669 23.1191C50.669 23.1569 50.6492 23.1947 50.6373 23.2305C50.6096 23.316 50.578 23.4015 50.5444 23.485C50.5325 23.5149 50.5206 23.5447 50.5068 23.5745C50.4712 23.6561 50.4336 23.7356 50.3921 23.8132C50.3703 23.855 50.3466 23.8947 50.3248 23.9345C50.3031 23.9743 50.2655 24.036 50.2339 24.0857C50.2022 24.1354 50.1765 24.1712 50.1468 24.213C50.1172 24.2547 50.0855 24.2985 50.0539 24.3383C50.0222 24.378 49.9866 24.4258 49.951 24.4675C49.9154 24.5093 49.8897 24.5351 49.86 24.569C49.7788 24.6583 49.693 24.7432 49.6029 24.8235C49.5812 24.8434 49.5594 24.8653 49.5377 24.8832C49.5159 24.9011 49.4329 24.9687 49.3795 25.0105L49.2964 25.0721C49.241 25.1119 49.1837 25.1497 49.1263 25.1875L49.0452 25.2372C48.9839 25.273 48.9206 25.3108 48.8474 25.3446L48.8118 25.3625C48.2616 25.6407 47.6498 25.7728 47.0345 25.7465C46.4191 25.7202 45.8207 25.5363 45.2959 25.2122C44.7711 24.888 44.3374 24.4345 44.0358 23.8945C43.7342 23.3545 43.5748 22.746 43.5727 22.1267C43.5727 21.4696 43.444 20.819 43.1939 20.2121C42.9438 19.6051 42.5772 19.0536 42.1151 18.5891C41.653 18.1246 41.1045 17.7562 40.5008 17.5049C39.897 17.2537 39.25 17.1245 38.5966 17.1247H38.5294C37.2102 17.1247 35.945 17.6517 35.0122 18.5898C34.0793 19.5278 33.5553 20.8001 33.5553 22.1267C33.5557 22.8467 33.3437 23.5506 32.9462 24.1494C32.5486 24.7483 31.9834 25.2151 31.3219 25.4908C30.6605 25.7665 29.9326 25.8388 29.2304 25.6984C28.5281 25.558 27.883 25.2113 27.3767 24.7022C26.8704 24.1931 26.5257 23.5444 26.3861 22.8382C26.2465 22.132 26.3183 21.4001 26.5925 20.7349C26.8667 20.0698 27.3309 19.5014 27.9264 19.1016C28.5219 18.7019 29.2219 18.4887 29.9379 18.4891C30.5913 18.4891 31.2383 18.3596 31.8419 18.1081C32.4455 17.8567 32.994 17.488 33.4559 17.0234C33.9178 16.5587 34.2841 16.007 34.534 15.3999C34.7838 14.7929 34.9123 14.1422 34.912 13.4852C34.912 12.5204 35.2932 11.5952 35.9715 10.913C36.6499 10.2308 37.57 9.8476 38.5294 9.8476H38.5966C39.1954 9.84687 39.7891 9.73703 40.3489 9.52342V9.52342C40.8144 9.3461 41.251 9.10011 41.6444 8.79352V8.79352C41.7334 8.7259 41.8184 8.65231 41.9015 8.57673L41.9589 8.52701C42.036 8.45342 42.1131 8.37984 42.1883 8.30227L42.2239 8.26051C42.3566 8.11635 42.4814 7.96497 42.5977 7.80705C42.6234 7.77125 42.6511 7.73744 42.6748 7.70165C42.6985 7.66585 42.7638 7.56839 42.8053 7.50276C42.8469 7.43713 42.8765 7.38741 42.9102 7.32973C42.9438 7.27206 42.9794 7.20444 43.013 7.14079C43.0466 7.07715 43.0882 6.98964 43.1218 6.91208C43.1554 6.83451 43.1732 6.80667 43.195 6.75297C43.2484 6.6237 43.2958 6.49243 43.3393 6.3552C43.3512 6.31543 43.3611 6.27366 43.373 6.2319C43.4026 6.12848 43.4303 6.02307 43.454 5.91567C43.4659 5.86595 43.4738 5.81424 43.4837 5.76452C43.5035 5.65911 43.5193 5.55171 43.5332 5.44432C43.5332 5.39857 43.545 5.35283 43.549 5.3051C43.5628 5.15196 43.5727 4.99882 43.5727 4.8417C43.5719 4.36384 43.6648 3.89051 43.846 3.44874C44.0272 3.00698 44.2931 2.60545 44.6287 2.26709C44.9643 1.92873 45.3628 1.66017 45.8016 1.47676C46.2405 1.29335 46.7109 1.19868 47.1861 1.19816C47.838 1.1979 48.4779 1.37482 49.0381 1.71021C49.5983 2.0456 50.0579 2.52699 50.3683 3.10346C50.4246 3.20677 50.4755 3.31298 50.5206 3.42167C50.7073 3.87017 50.8035 4.35152 50.8035 4.83772C50.8035 5.32393 50.7073 5.80528 50.5206 6.25377C50.4751 6.36117 50.4237 6.46857 50.3683 6.57199C50.0574 7.14795 49.5977 7.62882 49.0376 7.96382C48.4775 8.29883 47.8378 8.47554 47.1861 8.4753V8.4753C47.0299 8.4753 46.8776 8.4753 46.7253 8.49917L46.5829 8.51508C46.4761 8.529 46.3732 8.54491 46.2704 8.56281L46.1141 8.59463C46.0113 8.6185 45.9164 8.64435 45.8096 8.67419L45.6771 8.71197C45.5426 8.75374 45.412 8.80147 45.2815 8.85517L45.1213 8.93074C45.0462 8.96389 44.971 8.99969 44.8958 9.03814C44.8326 9.07195 44.7673 9.10775 44.6981 9.14554C44.6288 9.18333 44.5853 9.21316 44.53 9.24896C44.4746 9.28476 44.3935 9.33448 44.3322 9.38221C44.2709 9.42994 44.261 9.43591 44.2254 9.46177C43.9666 9.65507 43.7269 9.87285 43.5094 10.1121L43.4659 10.1598C43.3908 10.2474 43.3156 10.3349 43.2464 10.4263V10.4363C42.9435 10.8341 42.7015 11.2752 42.5285 11.7449V11.7449C42.2653 12.4551 42.1666 13.2163 42.2396 13.9706C42.3126 14.7249 42.5556 15.4526 42.95 16.0984C43.3444 16.7442 43.8799 17.2912 44.5159 17.6978C45.1518 18.1045 45.8716 18.3601 46.6205 18.4453V18.4453L46.7767 18.4593C46.9132 18.4712 47.0516 18.4811 47.1901 18.4811C47.8417 18.4809 48.4814 18.6576 49.0415 18.9926C49.6016 19.3276 50.0614 19.8085 50.3723 20.3844H50.3763ZM47.1861 17.1168C47.0712 17.1169 46.9563 17.1109 46.842 17.0989C46.7648 17.0989 46.6897 17.079 46.6145 17.0671L46.5196 17.0512C46.4227 17.0333 46.3218 17.0094 46.2308 16.9835H46.213C46.1125 16.9555 46.0135 16.9223 45.9164 16.8841V16.8841C45.2275 16.6243 44.6339 16.1593 44.2148 15.5512C43.7956 14.9432 43.571 14.221 43.5707 13.4812C43.571 13.032 43.6548 12.5868 43.818 12.1686L43.8417 12.099C43.8714 12.0294 43.905 11.9597 43.9386 11.9001C43.9544 11.8663 43.9683 11.8325 43.9861 11.7986C44.0039 11.7648 44.0553 11.6773 44.0909 11.6177C44.1265 11.558 44.1344 11.5421 44.1581 11.5043C44.1819 11.4665 44.2333 11.3969 44.2709 11.3432L44.3559 11.2298C44.3955 11.1801 44.435 11.1344 44.4766 11.0866L44.5774 10.9753C44.619 10.9315 44.6625 10.8897 44.706 10.848L44.8227 10.7406L44.9572 10.6292C45.0007 10.5954 45.0442 10.5616 45.0897 10.5298L45.2281 10.4343C45.2756 10.4025 45.325 10.3746 45.3764 10.3448C45.4279 10.315 45.4694 10.2891 45.5169 10.2653L45.681 10.1857L45.8254 10.1221C45.8827 10.0962 45.9441 10.0763 46.0034 10.0544C46.0627 10.0326 46.0983 10.0206 46.1458 10.0067C46.1933 9.99278 46.2783 9.97091 46.3436 9.955L46.48 9.92119C46.5572 9.90726 46.6343 9.89732 46.7114 9.88738C46.751 9.88738 46.7886 9.87345 46.8281 9.86948C46.9468 9.85754 47.0655 9.85158 47.1861 9.85158C48.1311 9.87379 49.03 10.2669 49.6905 10.9468C50.351 11.6268 50.7208 12.5396 50.7208 13.4901C50.7208 14.4407 50.351 15.3535 49.6905 16.0335C49.03 16.7134 48.1311 17.1065 47.1861 17.1287V17.1168Z" fill="#00867E"/>
<path d="M38.5966 18.4812C38.1209 18.4812 37.6499 18.5755 37.2105 18.7588C36.7711 18.9421 36.372 19.2108 36.036 19.5494C35.7 19.888 35.4337 20.29 35.2524 20.7322C35.071 21.1745 34.9783 21.6483 34.9793 22.1267C34.9793 23.4533 34.4552 24.7256 33.5224 25.6636C32.5896 26.6016 31.3244 27.1286 30.0052 27.1286C28.686 27.1286 27.4208 26.6016 26.488 25.6636C25.5552 24.7256 25.0311 23.4533 25.0311 22.1267C25.0311 20.8001 25.5552 19.5279 26.488 18.5898C27.4208 17.6518 28.686 17.1248 30.0052 17.1248C30.721 17.1248 31.4208 16.9113 32.016 16.5114C32.6112 16.1115 33.0751 15.5431 33.349 14.878C33.6229 14.213 33.6946 13.4812 33.555 12.7752C33.4153 12.0692 33.0706 11.4207 32.5644 10.9116C32.0583 10.4026 31.4134 10.056 30.7113 9.91558C30.0092 9.77514 29.2815 9.84722 28.6201 10.1227C27.9588 10.3982 27.3935 10.8647 26.9958 11.4632C26.5981 12.0617 26.3859 12.7654 26.3859 13.4852C26.3861 14.1422 26.2577 14.7929 26.0078 15.4C25.758 16.0071 25.3916 16.5587 24.9297 17.0234C24.4678 17.4881 23.9193 17.8567 23.3157 18.1082C22.7121 18.3597 22.0651 18.4891 21.4118 18.4891C20.57 18.4835 19.7529 18.7741 19.1017 19.3105C18.9237 19.4597 18.7596 19.6248 18.6112 19.8037C18.195 20.3118 17.9236 20.9239 17.8259 21.5749C17.7282 22.2258 17.8079 22.8912 18.0565 23.5002C18.3051 24.1092 18.7133 24.639 19.2376 25.0331C19.762 25.4273 20.3828 25.671 21.034 25.7384C21.1547 25.7504 21.2793 25.7563 21.4039 25.7563C22.7233 25.7569 23.9884 26.2843 24.9212 27.2226C25.854 28.161 26.378 29.4335 26.378 30.7602V30.7602C26.378 32.0868 25.8539 33.3591 24.9211 34.2971C23.9883 35.2352 22.7231 35.7622 21.4039 35.7622H12.8183C12.3431 35.7622 11.8726 35.8563 11.4336 36.0392C10.9946 36.2222 10.5957 36.4903 10.2598 36.8283C9.92387 37.1663 9.65746 37.5675 9.47579 38.0091C9.29412 38.4506 9.20074 38.9239 9.201 39.4017C9.20008 40.3474 8.93235 41.2735 8.42892 42.0723C7.92549 42.8711 7.20702 43.5098 6.35696 43.9144C6.97693 44.6157 7.63733 45.2798 8.33474 45.9032C8.73684 45.0483 9.37202 44.3257 10.1664 43.8194C10.9608 43.3131 11.8818 43.044 12.8223 43.0433H21.4157C22.0083 43.0435 22.5919 42.8973 23.1151 42.6174C23.6383 42.3375 24.085 41.9326 24.416 41.4383C24.5466 41.2439 24.6586 41.0375 24.7503 40.8218C24.8423 40.6012 24.9126 40.372 24.9599 40.1376C25.0094 39.8968 25.0339 39.6516 25.0331 39.4057V39.4057C25.0331 38.0786 25.5573 36.8058 26.4905 35.8674C27.4237 34.929 28.6894 34.4018 30.0091 34.4018C30.9684 34.4013 31.8881 34.0179 32.5664 33.3358C33.2447 32.6537 33.626 31.7288 33.6265 30.7642V30.7642C33.6265 29.4374 34.1505 28.165 35.0833 27.2266C36.016 26.2883 37.2812 25.7608 38.6006 25.7603C39.56 25.7603 40.4801 25.3771 41.1584 24.6949C41.8368 24.0127 42.2179 23.0875 42.2179 22.1227C42.2179 21.158 41.8368 20.2327 41.1584 19.5506C40.4801 18.8684 39.56 18.4851 38.6006 18.4851L38.5966 18.4812Z" fill="white"/>
<path d="M47.1861 9.83971C47.0655 9.83971 46.9468 9.83971 46.8281 9.85761C46.7886 9.85761 46.751 9.86954 46.7114 9.87551C46.6343 9.87551 46.5572 9.8954 46.48 9.90932L46.3436 9.94313C46.2763 9.95904 46.2091 9.97495 46.1458 9.99484C46.0825 10.0147 46.0509 10.0267 46.0034 10.0426C45.9559 10.0585 45.8828 10.0843 45.8254 10.1102L45.681 10.1738L45.5169 10.2534C45.4694 10.2773 45.4219 10.3051 45.3764 10.3329C45.331 10.3608 45.2756 10.3906 45.2281 10.4224L45.0897 10.5179C45.0442 10.5497 45.0007 10.5835 44.9572 10.6173L44.8227 10.7287L44.706 10.8361C44.6625 10.8779 44.619 10.9197 44.5774 10.9634L44.4766 11.0748C44.435 11.1225 44.3955 11.1683 44.3559 11.218L44.2709 11.3313C44.2333 11.385 44.1937 11.4387 44.1581 11.4924C44.1225 11.5461 44.1127 11.568 44.0909 11.6058C44.0691 11.6436 44.0197 11.7251 43.9861 11.7868C43.9525 11.8484 43.9544 11.8544 43.9386 11.8882C43.905 11.9558 43.8714 12.0254 43.8417 12.0871L43.818 12.1567C43.6259 12.6493 43.5441 13.1783 43.5783 13.7063C43.6124 14.2343 43.7618 14.7482 44.0157 15.2116V15.2116C44.0533 15.2792 44.0909 15.3448 44.1324 15.4104C44.3828 15.8039 44.7057 16.1455 45.0837 16.4168L45.0996 16.4287C45.1589 16.4705 45.2182 16.5103 45.2815 16.5481L45.2973 16.56C45.4926 16.6803 45.6985 16.7822 45.9124 16.8643V16.8643C46.0096 16.9025 46.1086 16.9357 46.2091 16.9637H46.2269C46.3218 16.9896 46.4247 17.0134 46.5156 17.0313L46.6106 17.0473C46.6857 17.0592 46.7609 17.0711 46.838 17.0791C46.9523 17.0911 47.0672 17.0971 47.1822 17.097C48.1271 17.0748 49.026 16.6817 49.6865 16.0017C50.3471 15.3218 50.7169 14.4089 50.7169 13.4584C50.7169 12.5079 50.3471 11.595 49.6865 10.9151C49.026 10.2351 48.1271 9.84204 47.1822 9.81982L47.1861 9.83971Z" fill="white"/>
<path d="M50.3723 20.3845C50.0611 19.8079 49.6007 19.3267 49.0398 18.9916C48.479 18.6566 47.8385 18.4802 47.1861 18.4812V18.4812C47.0477 18.4812 46.9092 18.4812 46.7728 18.4593L46.6165 18.4454C46.5117 18.4334 46.4069 18.4135 46.304 18.3936C46.1596 18.3678 46.0192 18.336 45.8808 18.2982H45.8709C45.7364 18.2604 45.6019 18.2166 45.4753 18.1689H45.4556C45.329 18.1212 45.2064 18.0675 45.0837 18.0118L45.0521 17.9959C44.9354 17.9402 44.8207 17.8785 44.7099 17.8149L44.6664 17.789C44.5596 17.7254 44.4548 17.6598 44.3539 17.5902L44.2986 17.5504C44.2036 17.4828 44.1107 17.4092 44.0197 17.3356L43.9524 17.2779C43.8674 17.2043 43.7863 17.1307 43.7072 17.0512L43.6261 16.9557C43.5529 16.8801 43.4817 16.8046 43.4145 16.725L43.3314 16.6236C43.2701 16.546 43.2088 16.4685 43.1515 16.3889L43.0664 16.2636C43.013 16.186 42.9636 16.1105 42.9161 16.0309C42.8864 15.9812 42.8587 15.9295 42.8311 15.8778C42.8034 15.8261 42.748 15.7266 42.7104 15.6491C42.6728 15.5715 42.657 15.5297 42.6293 15.4681C42.6016 15.4064 42.566 15.3229 42.5364 15.2473C42.5067 15.1717 42.4889 15.1081 42.4652 15.0365C42.4414 14.9649 42.4177 14.8973 42.3979 14.8376C42.3781 14.7779 42.3584 14.6745 42.3406 14.593C42.3228 14.5114 42.3089 14.4637 42.2971 14.3941C42.2852 14.3245 42.2674 14.1952 42.2555 14.1037C42.2555 14.05 42.2377 13.9963 42.2338 13.9426C42.2199 13.7875 42.212 13.6324 42.212 13.4753C42.212 13.3181 42.212 13.2048 42.2298 13.0775C42.2298 13.0317 42.2397 12.984 42.2456 12.9383C42.2456 12.8528 42.2674 12.7672 42.2812 12.6837C42.2951 12.6002 42.299 12.5743 42.3089 12.5206C42.3188 12.4669 42.3445 12.3635 42.3643 12.2859C42.3841 12.2084 42.388 12.1845 42.4019 12.1328C42.4375 12.0035 42.479 11.8762 42.5245 11.7509C42.6976 11.2812 42.9395 10.84 43.2424 10.4423V10.4323C43.3116 10.3409 43.3868 10.2533 43.462 10.1658L43.5055 10.1181C43.7229 9.87884 43.9627 9.66106 44.2214 9.46776C44.257 9.4419 44.2906 9.41406 44.3282 9.3882C44.3658 9.36235 44.4627 9.29671 44.526 9.25495C44.5893 9.21318 44.6387 9.18335 44.6941 9.15153C44.7495 9.11971 44.8227 9.07794 44.8919 9.04413C44.9611 9.01032 45.0422 8.97054 45.1174 8.93673L45.2776 8.86116C45.4061 8.80746 45.5366 8.75973 45.6731 8.71796L45.8056 8.68018C45.9065 8.65034 46.0034 8.62449 46.1102 8.60062L46.2664 8.5688C46.3693 8.5509 46.4642 8.53499 46.5789 8.52107L46.7213 8.50516C46.8736 8.49124 47.0259 8.48129 47.1822 8.48129C47.8339 8.48153 48.4735 8.30482 49.0336 7.96981C49.5937 7.63481 50.0535 7.15394 50.3644 6.57798C50.4198 6.47456 50.4712 6.36716 50.5167 6.25976C50.7034 5.81127 50.7995 5.32992 50.7995 4.84372C50.7995 4.35751 50.7034 3.87616 50.5167 3.42766C50.4715 3.31897 50.4207 3.21276 50.3644 3.10945C50.055 2.53246 49.5964 2.05025 49.0369 1.71382C48.4774 1.37738 47.838 1.19923 47.1861 1.19818V1.19818C46.7109 1.19818 46.2404 1.29233 45.8014 1.47526C45.3623 1.65819 44.9635 1.92631 44.6276 2.26431C44.2916 2.6023 44.0252 3.00353 43.8435 3.44509C43.6619 3.88666 43.5685 4.35989 43.5688 4.83775C43.5688 4.99487 43.5589 5.148 43.545 5.30114C43.545 5.34888 43.5351 5.39462 43.5292 5.44037C43.5154 5.54776 43.4995 5.65516 43.4798 5.76057C43.4798 5.81029 43.462 5.862 43.4501 5.91172C43.4264 6.01912 43.3987 6.12452 43.369 6.22794C43.3571 6.26971 43.3472 6.31147 43.3354 6.35125C43.2919 6.48649 43.2444 6.61775 43.191 6.74902C43.1692 6.80271 43.1435 6.85641 43.1178 6.90812C43.0921 6.95983 43.0486 7.06127 43.0091 7.13684C42.9695 7.21242 42.9418 7.26413 42.9062 7.32578C42.8706 7.38743 42.837 7.44312 42.8014 7.49881C42.7658 7.5545 42.7163 7.63405 42.6709 7.69769C42.6254 7.76133 42.6194 7.7673 42.5937 7.8031C42.4779 7.95892 42.3538 8.10831 42.2219 8.25059L42.1863 8.29235C42.1111 8.36992 42.034 8.44351 41.9569 8.51709L41.8995 8.56681C41.8165 8.64239 41.7314 8.71598 41.6424 8.7836C41.249 9.09018 40.8124 9.33618 40.347 9.5135V9.5135C40.2125 9.56322 40.076 9.60896 39.9395 9.64675L39.8743 9.66465C39.7675 9.69249 39.6607 9.71835 39.5499 9.74023L39.4174 9.76409C39.3225 9.78 39.2196 9.79392 39.1346 9.80387L39.006 9.81779C38.8715 9.82972 38.7351 9.83768 38.5947 9.83768H38.5274C37.568 9.83768 36.6479 10.2209 35.9696 10.9031C35.2912 11.5853 34.9101 12.5105 34.9101 13.4753C34.9103 14.1323 34.7819 14.7829 34.532 15.39C34.2821 15.9971 33.9158 16.5488 33.4539 17.0134C32.992 17.4781 32.4435 17.8467 31.8399 18.0982C31.2363 18.3497 30.5893 18.4792 29.936 18.4792C29.221 18.4796 28.5222 18.693 27.9278 19.0925C27.3334 19.492 26.8701 20.0597 26.5963 20.7238C26.3226 21.3879 26.2506 22.1188 26.3896 22.824C26.5286 23.5292 26.8723 24.1772 27.3773 24.6861C27.8823 25.195 28.5259 25.542 29.2269 25.6834C29.9279 25.8247 30.6548 25.7539 31.3159 25.4801C31.9769 25.2062 32.5424 24.7415 32.941 24.1447C33.3396 23.5478 33.5533 22.8456 33.5553 22.1267C33.5553 20.8001 34.0793 19.5278 35.0122 18.5898C35.945 17.6518 37.2102 17.1248 38.5294 17.1248H38.5966C39.25 17.1245 39.897 17.2537 40.5008 17.5049C41.1045 17.7562 41.653 18.1246 42.1151 18.5891C42.5772 19.0536 42.9438 19.6051 43.1939 20.2121C43.444 20.8191 43.5727 21.4697 43.5727 22.1267C43.5748 23.0894 43.9563 24.012 44.6336 24.6923C45.3109 25.3726 46.2288 25.7553 47.1861 25.7563C47.3084 25.7561 47.4306 25.7488 47.552 25.7344C47.5876 25.7344 47.6252 25.7344 47.6608 25.7225C47.7537 25.7106 47.8427 25.6927 47.9337 25.6728C48.0247 25.6529 48.0642 25.6429 48.1315 25.625C48.3669 25.5618 48.5955 25.4752 48.8138 25.3665L48.8494 25.3486C48.9147 25.3148 48.978 25.277 49.0472 25.2412L49.1283 25.1915C49.1856 25.1537 49.243 25.1159 49.2984 25.0761L49.3814 25.0145C49.4348 24.9727 49.4882 24.9329 49.5397 24.8872C49.5911 24.8414 49.5832 24.8474 49.6049 24.8275C49.695 24.7472 49.7808 24.6623 49.862 24.573C49.8917 24.5391 49.9233 24.5073 49.953 24.4715C49.9827 24.4357 50.0222 24.386 50.0559 24.3423C50.0895 24.2985 50.1192 24.2607 50.1488 24.217L50.2358 24.0897C50.2675 24.0399 50.2971 23.9882 50.3268 23.9385C50.3565 23.8888 50.3723 23.859 50.3941 23.8172C50.4356 23.7396 50.4732 23.6601 50.5088 23.5785C50.5226 23.5487 50.5345 23.5189 50.5463 23.489C50.58 23.4055 50.6116 23.32 50.6393 23.2345C50.6512 23.1987 50.6611 23.1609 50.6709 23.1231C50.6907 23.0535 50.7105 22.9839 50.7263 22.9123L50.7501 22.7929C50.7639 22.7174 50.7758 22.6418 50.7837 22.5662C50.7837 22.5304 50.7837 22.4946 50.7975 22.4588C50.7975 22.3474 50.8133 22.2361 50.8133 22.1227C50.814 21.6364 50.7178 21.155 50.5305 20.7067C50.4791 20.5933 50.4277 20.4879 50.3723 20.3845Z" fill="white"/>
<path d="M12.8183 34.3978C14.8161 34.3978 16.4357 32.7692 16.4357 30.7602C16.4357 28.7512 14.8161 27.1226 12.8183 27.1226C10.8205 27.1226 9.20099 28.7512 9.20099 30.7602C9.20099 32.7692 10.8205 34.3978 12.8183 34.3978Z" fill="white"/>
<path d="M21.4118 17.1168C21.8875 17.1176 22.3587 17.024 22.7983 16.8414C23.238 16.6589 23.6376 16.3909 23.9742 16.0528C24.3107 15.7147 24.5777 15.3132 24.7597 14.8713C24.9417 14.4293 25.0353 13.9556 25.0351 13.4772C25.0356 12.1505 25.5601 10.8782 26.4932 9.94022C27.4263 9.00224 28.6917 8.47531 30.0111 8.47531C30.1267 8.47534 30.2423 8.46936 30.3572 8.45742L30.47 8.44349C30.5451 8.44349 30.6203 8.42361 30.6935 8.40769L30.824 8.37985C30.8912 8.36394 30.9565 8.34803 31.0218 8.32814L31.1582 8.28638C31.2176 8.26649 31.2769 8.24461 31.3362 8.22074L31.4707 8.16506C31.5261 8.14119 31.5815 8.11335 31.6349 8.0855L31.7674 8.01788C31.8188 7.98805 31.8683 7.95822 31.9157 7.9264C32.0146 7.86474 32.1135 7.79911 32.2025 7.72751C32.2282 7.70564 32.2579 7.68575 32.2856 7.66387C32.3133 7.64199 32.3904 7.57238 32.4418 7.52664L32.5209 7.45305C32.5723 7.40333 32.6218 7.35162 32.6693 7.29991L32.7365 7.22434C32.7859 7.16865 32.8314 7.11097 32.8769 7.05131C32.8947 7.02943 32.9125 7.00557 32.9283 6.9817C32.9758 6.91806 33.0193 6.85442 33.0628 6.78282L33.0945 6.73111C33.4318 6.18022 33.6168 5.54875 33.6303 4.90194C33.6438 4.25512 33.4853 3.61641 33.1712 3.0518C32.8571 2.48718 32.3987 2.01714 31.8436 1.69022C31.2884 1.36331 30.6565 1.19138 30.0131 1.1922C29.9004 1.1922 29.7896 1.1922 29.6789 1.2101H29.582C29.5009 1.22005 29.4218 1.23198 29.3426 1.24789L29.2457 1.26579C29.1468 1.28767 29.048 1.31153 28.953 1.34137H28.9332C28.8324 1.37319 28.7355 1.41097 28.6386 1.45075L28.5456 1.49053L28.3478 1.58798L28.2529 1.6377C28.1777 1.68145 28.1026 1.7272 28.0294 1.77493L27.9859 1.80277C27.9028 1.86045 27.8217 1.92012 27.7446 1.98376L27.6596 2.05734C27.6081 2.1011 27.5567 2.14684 27.5092 2.19457L27.4222 2.2801C27.3708 2.33379 27.3194 2.38948 27.2699 2.44716C27.2502 2.47301 27.2284 2.49489 27.2086 2.52074C27.1493 2.59433 27.0919 2.66991 27.0385 2.74747C27.0148 2.78128 26.993 2.81708 26.9713 2.85288C26.9495 2.88868 26.904 2.96028 26.8724 3.01596C26.8408 3.07165 26.8289 3.09154 26.8091 3.13132C26.7893 3.17109 26.7458 3.2586 26.7162 3.3302L26.6746 3.42368C26.5673 3.68833 26.491 3.96465 26.4472 4.24705C26.4472 4.2928 26.4314 4.33854 26.4254 4.38428C26.4195 4.43002 26.4254 4.47179 26.4116 4.51554C26.4116 4.61697 26.3958 4.71443 26.3958 4.82381C26.3958 6.15041 25.8717 7.42266 24.9389 8.36071C24.0061 9.29875 22.7409 9.82573 21.4217 9.82573C20.4767 9.84795 19.5778 10.2411 18.9173 10.921C18.2567 11.6009 17.8869 12.5138 17.8869 13.4643C17.8869 14.4148 18.2567 15.3277 18.9173 16.0076C19.5778 16.6876 20.4767 17.0807 21.4217 17.1029L21.4118 17.1168Z" fill="white"/>
<path d="M12.8183 25.7564C14.1379 25.7569 15.4033 26.2843 16.3364 27.2226C17.2695 28.1609 17.7939 29.4334 17.7944 30.7603C17.7948 31.4797 18.0073 32.1828 18.405 32.7807C18.8027 33.3786 19.3678 33.8446 20.0288 34.1196C20.6899 34.3946 21.4171 34.4664 22.1187 34.3258C22.8203 34.1852 23.4646 33.8386 23.9703 33.3298C24.476 32.821 24.8203 32.1728 24.9597 31.4673C25.0992 30.7617 25.0274 30.0304 24.7536 29.3658C24.4797 28.7013 24.0161 28.1333 23.4212 27.7337C22.8264 27.334 22.1271 27.1208 21.4118 27.1208C20.0939 27.1208 18.8299 26.5949 17.8973 25.6585C16.9647 24.7222 16.4398 23.452 16.4377 22.1268C16.4381 21.4069 16.2261 20.703 15.8287 20.1042C15.4312 19.5054 14.8661 19.0386 14.2048 18.7628C13.5435 18.4871 12.8157 18.4147 12.1135 18.5549C11.4112 18.6951 10.7662 19.0416 10.2598 19.5505C9.75342 20.0595 9.40852 20.708 9.2687 21.414C9.12889 22.1201 9.20045 22.852 9.47433 23.5171C9.74821 24.1823 10.2121 24.7508 10.8073 25.1509C11.4026 25.5509 12.1024 25.7644 12.8183 25.7644V25.7564Z" fill="white"/>
<path d="M38.5966 27.1207C38.1214 27.1207 37.6509 27.2148 37.2119 27.3978C36.7729 27.5807 36.374 27.8488 36.0381 28.1868C35.7022 28.5248 35.4358 28.926 35.2541 29.3676C35.0724 29.8092 34.979 30.2824 34.9793 30.7603C34.9793 32.0868 34.4552 33.3591 33.5224 34.2971C32.5896 35.2352 31.3244 35.7622 30.0052 35.7622C29.2893 35.7618 28.5893 35.9749 27.9939 36.3746C27.3984 36.7743 26.9342 37.3426 26.66 38.0076C26.3857 38.6726 26.3138 39.4044 26.4532 40.1106C26.5926 40.8167 26.9372 41.4654 27.4433 41.9746C27.9494 42.4838 28.5943 42.8306 29.2964 42.9712C29.9985 43.1118 30.7264 43.0399 31.3878 42.7645C32.0493 42.489 32.6147 42.0226 33.0124 41.424C33.4102 40.8254 33.6225 40.1217 33.6225 39.4017C33.6223 38.7447 33.7508 38.0941 34.0006 37.487C34.2505 36.8799 34.6168 36.3282 35.0787 35.8636C35.5406 35.3989 36.0891 35.0303 36.6927 34.7788C37.2963 34.5273 37.9433 34.3978 38.5966 34.3978C39.0789 34.4092 39.5586 34.3234 40.0075 34.1457C40.4563 33.9679 40.8653 33.7017 41.2104 33.3627C41.5555 33.0237 41.8297 32.6188 42.0169 32.1717C42.2041 31.7246 42.3006 31.2444 42.3006 30.7593C42.3006 30.2741 42.2041 29.7939 42.0169 29.3468C41.8297 28.8997 41.5555 28.4948 41.2104 28.1558C40.8653 27.8168 40.4563 27.5506 40.0075 27.3728C39.5586 27.1951 39.0789 27.1093 38.5966 27.1207V27.1207Z" fill="white"/>
</svg>
