<?xml version="1.0" encoding="UTF-8"?>
<svg width="673px" height="70px" viewBox="0 0 673 70" version="1.1" xmlns="http://www.w3.org/2000/svg" xmlns:xlink="http://www.w3.org/1999/xlink">
    <!-- Generator: Sketch 49.1 (51147) - http://www.bohemiancoding.com/sketch -->
    <title>CAMBIATUS_Logo_Finales-2</title>
    <desc>Created with Sketch.</desc>
    <defs></defs>
    <g id="Page-1" stroke="none" stroke-width="1" fill="none" fill-rule="evenodd">
        <g id="CAMBIATUS_Logo_Finales-2" transform="translate(0.000000, -1.000000)" fill="#C3C3C3" fill-rule="nonzero">
            <g id="g10" transform="translate(336.500000, 35.044000) scale(-1, 1) rotate(-180.000000) translate(-336.500000, -35.044000) translate(0.000000, 0.044000)">
                <g id="g12">
                    <g id="g14-Clipped">
                        <g id="g14" transform="translate(-1.333333, -1.333333)">
                            <g id="g20" transform="translate(15.135600, 48.227865)">
                                <path d="M21.3333328,10.6666664 C21.3333328,4.78666655 16.5666663,0.0213333328 10.6879997,0.0213333328 C4.80799988,0.0213333328 0.0413333323,4.78666655 0.0413333323,10.6666664 C0.0413333323,16.5453329 4.80799988,21.3119995 10.6879997,21.3119995 C16.5666663,21.3119995 21.3333328,16.5453329 21.3333328,10.6666664" id="path22"></path>
                            </g>
                            <g id="g24" transform="translate(45.677199, 48.227865)">
                                <path d="M21.3333328,10.6666664 C21.3333328,4.78666655 16.5666663,0.0213333328 10.6879997,0.0213333328 C4.80799988,0.0213333328 0.0426666656,4.78666655 0.0426666656,10.6666664 C0.0426666656,16.5453329 4.80799988,21.3119995 10.6879997,21.3119995 C16.5666663,21.3119995 21.3333328,16.5453329 21.3333328,10.6666664" id="path26"></path>
                            </g>
                            <g id="g28" transform="translate(76.494931, 1.453200)">
                                <path d="M30.6666659,41.3333323 C29.1199993,42.3559989 27.3333326,42.8959989 25.4999994,42.8959989 C24.8653327,42.8959989 24.2239994,42.8319989 23.5946661,42.7026656 C21.1319995,42.1986656 19.0119995,40.767999 17.6253329,38.6693324 L2.49999994,15.7799996 C1.11333331,13.6826663 0.627999984,11.1719997 1.13066664,8.70799978 C1.63466663,6.24533318 3.06533326,4.12533323 5.16399987,2.7386666 C7.25866649,1.35466663 9.77199976,0.869333312 12.2359997,1.3693333 C14.6986663,1.87199995 16.8199996,3.30533325 18.2053329,5.40399986 L33.3319992,28.2919993 C34.7173325,30.3893326 35.2026658,32.9013325 34.6999991,35.3626658 C34.1973325,37.8266657 32.7653325,39.9466657 30.6666659,41.3333323" id="path30"></path>
                            </g>
                            <g id="g32" transform="translate(0.223467, 1.744800)">
                                <path d="M2.6666666,27.9999993 L17.7933329,5.11199987 C19.1799995,3.01333326 21.2999995,1.58133329 23.7626661,1.07866664 C26.2279993,0.573333319 28.7373326,1.06133331 30.8346659,2.44666661 C35.1653325,5.30799987 36.3613324,11.1586664 33.4999992,15.4879996 L18.3719995,38.3773324 C16.9866662,40.475999 14.8666663,41.907999 12.4026664,42.4119989 C11.7746664,42.5399989 11.1333331,42.6039989 10.4999997,42.6039989 C8.66666645,42.6039989 6.87866649,42.0639989 5.33066653,41.0413323 C0.999999975,38.179999 -0.194666662,32.3293325 2.6666666,27.9999993" id="path34"></path>
                            </g>
                            <g id="g36" transform="translate(76.348398, 48.227865)">
                                <path d="M21.3333328,10.6666664 C21.3333328,4.78666655 16.5666663,0.0213333328 10.6879997,0.0213333328 C4.80799988,0.0213333328 0.0413333323,4.78666655 0.0413333323,10.6666664 C0.0413333323,16.5453329 4.80799988,21.3119995 10.6879997,21.3119995 C16.5666663,21.3119995 21.3333328,16.5453329 21.3333328,10.6666664" id="path38"></path>
                            </g>
                            <g id="g40" transform="translate(15.599066, 1.453200)">
                                <path d="M30.6666659,41.3333323 C29.1199993,42.3559989 27.3333326,42.8959989 25.4999994,42.8959989 C24.8653327,42.8959989 24.2239994,42.8319989 23.5946661,42.7026656 C21.1319995,42.1986656 19.0119995,40.767999 17.6253329,38.6693324 L2.49999994,15.7799996 C1.11333331,13.6826663 0.627999984,11.1719997 1.13066664,8.70799978 C1.63466663,6.24533318 3.06533326,4.12533323 5.16399987,2.7386666 C7.25733315,1.35466663 9.77066642,0.869333312 12.2359997,1.3693333 C14.6986663,1.87199995 16.8186662,3.30533325 18.2053329,5.40399986 L33.3319992,28.2919993 C34.7173325,30.3893326 35.2026658,32.9013325 34.6999991,35.3626658 C34.1973325,37.8266657 32.7653325,39.9466657 30.6666659,41.3333323" id="path42"></path>
                            </g>
                            <g id="g44" transform="translate(30.668133, 2.149867)">
                                <path d="M1.3333333,34.6666658 C0.830666646,32.2039992 1.31599997,29.6933326 2.70133327,27.594666 L17.8279996,4.70666655 C19.2146662,2.60799993 21.3333328,1.17599997 23.7973327,0.673333317 C26.2613327,0.175999996 28.7746659,0.657333317 30.8693326,2.04133328 C35.1999991,4.90399988 36.3946658,10.7533331 33.5333325,15.0826663 L18.4079995,37.9719991 C17.0226662,40.071999 14.9026663,41.5026656 12.4386664,42.0066656 C11.809333,42.1359989 11.1679997,42.1986656 10.5333331,42.1986656 C8.69999978,42.1986656 6.91333316,41.6586656 5.36666653,40.6373323 C3.26799992,39.2506657 1.83599995,37.1306657 1.3333333,34.6666658" id="path46"></path>
                            </g>
                            <g id="g48" transform="translate(46.307466, 1.455733)">
                                <path d="M17.3333329,38.6666657 L2.20799994,15.7773329 C0.821333313,13.681333 0.334666658,11.1693331 0.837333312,8.70533312 C1.3413333,6.24266651 2.77333326,4.12266656 4.87066654,2.73599993 C6.96666649,1.3533333 9.47599976,0.866666645 11.9439997,1.36666663 C14.4066663,1.86933329 16.5266663,3.30266658 17.9133329,5.4013332 L33.0399992,28.2893326 C35.9013324,32.6186659 34.7053325,38.4693324 30.3746659,41.3306656 C28.8173326,42.3613323 27.0319993,42.8933323 25.2053327,42.8933323 C24.5733327,42.8933323 23.9373327,42.8293323 23.3039994,42.6999989 C20.8399995,42.1959989 18.7199995,40.7653323 17.3333329,38.6666657" id="path50"></path>
                            </g>
                            <g id="g52" transform="translate(61.119332, 1.744800)">
                                <path d="M2.6666666,27.9999993 L17.7933329,5.11199987 C19.1799995,3.01333326 21.2999995,1.58133329 23.7626661,1.07866664 C26.2253327,0.581333319 28.7386659,1.06266664 30.8346659,2.44666661 C35.1653325,5.30799987 36.3613324,11.1586664 33.4999992,15.4879996 L18.3719995,38.3773324 C16.9866662,40.475999 14.8666663,41.907999 12.4026664,42.4119989 C11.7746664,42.5399989 11.1333331,42.6039989 10.4999997,42.6039989 C8.66666645,42.6039989 6.87866649,42.0639989 5.33066653,41.0413323 C0.999999975,38.179999 -0.194666662,32.3293325 2.6666666,27.9999993" id="path54"></path>
                            </g>
                            <g id="g56" transform="translate(142.073730, 0.235733)">
                                <path d="M0,26.666666 L0,26.8519993 C0,40.9733323 10.7999997,52.6039987 25.9373327,52.6039987 C33.4146658,52.6039987 38.675999,50.5733321 42.8293323,47.0666655 C43.7519989,46.3266655 45.0453322,44.6653322 45.0453322,42.2653323 C45.0453322,38.7573324 42.1839989,35.9893324 38.675999,35.9893324 C36.8306657,35.9893324 35.4453324,36.7279991 34.6146658,37.3733324 C32.1226659,39.311999 29.5373326,40.511999 25.8453327,40.511999 C18.8306662,40.511999 13.845333,34.3279991 13.845333,27.034666 L13.845333,26.8519993 C13.845333,19.2826662 18.7373329,13.1906663 26.398666,13.1906663 C30.0919992,13.1906663 32.9533325,14.481333 35.6293324,16.6053329 C36.3679991,17.1586662 37.7519991,17.8973329 39.4146657,17.8973329 C42.7373323,17.8973329 45.3213322,15.2199996 45.3213322,11.897333 C45.3213322,10.0506664 44.4906656,8.57466645 43.2906656,7.46799981 C39.1373324,3.68266657 33.8759992,1.09733331 25.7533327,1.09733331 C10.8919997,1.09733331 0,12.5439997 0,26.666666" id="path58"></path>
                            </g>
                            <g id="g60" transform="translate(200.313328, 1.220133)">
                                <path d="M33.3333325,18.6666662 L33.3333325,21.1586661 C30.9333326,22.2666661 27.794666,23.0053328 24.3799994,23.0053328 C18.3799995,23.0053328 14.6879996,20.6053328 14.6879996,16.1746663 L14.6879996,15.9893329 C14.6879996,12.205333 17.8266662,9.98933308 22.3493328,9.98933308 C28.9026659,9.98933308 33.3333325,13.589333 33.3333325,18.6666662 M1.11866664,15.4359996 L1.11866664,15.6213329 C1.11866664,26.4199993 9.3333331,31.4053325 21.0559995,31.4053325 C26.0413327,31.4053325 29.6413326,30.5746659 33.1479992,29.3733326 L33.1479992,30.2039992 C33.1479992,36.0213324 29.5493326,39.2506657 22.5333328,39.2506657 C18.6573329,39.2506657 15.5186663,38.695999 12.841333,37.8653324 C12.0106664,37.5893324 11.457333,37.4973324 10.8106664,37.4973324 C7.57999981,37.4973324 4.99599988,39.9893323 4.99599988,43.2199989 C4.99599988,45.7119989 6.56399984,47.8359988 8.77999978,48.6666655 C13.2106663,50.3279987 18.0106662,51.2493321 24.5639994,51.2493321 C32.2253325,51.2493321 37.7639991,49.2199988 41.271999,45.7119989 C44.9639989,42.0199989 46.6253322,36.5746658 46.6253322,29.9279993 L46.6253322,7.40533315 C46.6253322,3.62133324 43.5786656,0.66666665 39.7946657,0.66666665 C35.7333324,0.66666665 33.0559992,3.52799991 33.0559992,6.4826665 L33.0559992,6.5746665 C29.6413326,2.7906666 24.9333327,0.298666659 18.1026662,0.298666659 C8.77999978,0.298666659 1.11866664,5.65199986 1.11866664,15.4359996" id="path62"></path>
                            </g>
                            <g id="g64" transform="translate(266.236393, 1.455733)">
                                <path d="M0,43.9999989 C0,47.8759988 3.13866659,51.0146654 7.01466649,51.0146654 C10.8919997,51.0146654 14.0306663,47.8759988 14.0306663,43.9999989 L14.0306663,43.4453322 C17.2613329,47.5999988 21.5066661,51.3839987 28.614666,51.3839987 C35.0759991,51.3839987 39.967999,48.5226655 42.5533323,43.5373322 C46.8906655,48.6146655 52.0599987,51.3839987 58.7986652,51.3839987 C69.2293316,51.3839987 75.5053314,45.1066655 75.5053314,33.1999992 L75.5053314,7.44666648 C75.5053314,3.57066658 72.3679982,0.430666656 68.490665,0.430666656 C64.6133317,0.430666656 61.4746651,3.57066658 61.4746651,7.44666648 L61.4746651,28.5839993 C61.4746651,35.2306658 58.5213319,38.6453324 53.2599987,38.6453324 C47.9986655,38.6453324 44.7679989,35.2306658 44.7679989,28.5839993 L44.7679989,7.44666648 C44.7679989,3.57066658 41.6293323,0.430666656 37.7533324,0.430666656 C33.8759992,0.430666656 30.7373326,3.57066658 30.7373326,7.44666648 L30.7373326,28.5839993 C30.7373326,35.2306658 27.7839993,38.6453324 22.5226661,38.6453324 C17.2613329,38.6453324 14.0306663,35.2306658 14.0306663,28.5839993 L14.0306663,7.44666648 C14.0306663,3.57066658 10.8919997,0.430666656 7.01466649,0.430666656 C3.13866659,0.430666656 -4.73695145e-15,3.57066658 -4.73695145e-15,7.44666648 L0,43.9999989 Z" id="path66"></path>
                            </g>
                            <g id="g68" transform="translate(360.407058, 0.420667)">
                                <path d="M38.6666657,26.666666 L38.6666657,26.850666 C38.6666657,35.0666658 33.1279992,40.511999 26.574666,40.511999 C20.0213328,40.511999 14.5746663,35.0666658 14.5746663,26.850666 L14.5746663,26.666666 C14.5746663,18.4506662 20.0213328,13.005333 26.574666,13.005333 C33.1279992,13.005333 38.6666657,18.3586662 38.6666657,26.666666 Z M0.729333315,62.9426651 C0.729333315,66.818665 3.8679999,69.9573316 7.74399981,69.9573316 C11.621333,69.9573316 14.7599996,66.818665 14.7599996,62.9426651 L14.7599996,44.3893322 C18.1746662,49.0039988 22.8826661,52.4186654 30.1746659,52.4186654 C41.7133323,52.4186654 52.697332,43.3733322 52.697332,26.850666 L52.697332,26.666666 C52.697332,10.1426664 41.8973323,1.09733331 30.1746659,1.09733331 C22.6973328,1.09733331 18.0826662,4.51333322 14.7599996,8.48133312 L14.7599996,8.38933312 C14.7599996,4.60533322 11.621333,1.46666663 7.74399981,1.46666663 C3.8679999,1.46666663 0.729333315,4.60533322 0.729333315,8.48133312 L0.729333315,62.9426651 Z" id="path70"></path>
                            </g>
                            <g id="g72" transform="translate(429.961723, 1.455733)">
                                <path d="M1.3333333,43.9999989 C1.3333333,47.8759988 4.47199989,51.0146654 8.34799979,51.0146654 C12.225333,51.0146654 15.3626663,47.8759988 15.3626663,43.9999989 L15.3626663,7.44666648 C15.3626663,3.57066658 12.225333,0.430666656 8.34799979,0.430666656 C4.47199989,0.430666656 1.3333333,3.57066658 1.3333333,7.44666648 L1.3333333,43.9999989 Z M0.502666654,62.2759984 C0.502666654,66.3373317 3.91733324,68.8293316 8.34799979,68.8293316 C12.7786663,68.8293316 16.1946663,66.3373317 16.1946663,62.2759984 L16.1946663,62.0906651 C16.1946663,58.0293319 12.7786663,55.4453319 8.34799979,55.4453319 C3.91733324,55.4453319 0.502666654,58.0293319 0.502666654,62.0906651 L0.502666654,62.2759984 Z" id="path74"></path>
                            </g>
                            <g id="g76" transform="translate(462.655055, 1.220133)">
                                <path d="M32.3333325,18.6666662 L32.3333325,21.1586661 C29.9333326,22.2666661 26.794666,23.0053328 23.3799994,23.0053328 C17.3799995,23.0053328 13.6879996,20.6053328 13.6879996,16.1746663 L13.6879996,15.9893329 C13.6879996,12.205333 16.8266662,9.98933308 21.3493328,9.98933308 C27.9026659,9.98933308 32.3333325,13.589333 32.3333325,18.6666662 M0.118666639,15.4359996 L0.118666639,15.6213329 C0.118666639,26.4199993 8.3333331,31.4053325 20.0559995,31.4053325 C25.0413327,31.4053325 28.6413326,30.5746659 32.1479992,29.3733326 L32.1479992,30.2039992 C32.1479992,36.0213324 28.5493326,39.2506657 21.5333328,39.2506657 C17.6573329,39.2506657 14.5186663,38.695999 11.841333,37.8653324 C11.0106664,37.5893324 10.457333,37.4973324 9.8106664,37.4973324 C6.57999981,37.4973324 3.99599988,39.9893323 3.99599988,43.2199989 C3.99599988,45.7119989 5.56399984,47.8359988 7.77999978,48.6666655 C12.2106663,50.3279987 17.0106662,51.2493321 23.5639994,51.2493321 C31.2253325,51.2493321 36.7639991,49.2199988 40.271999,45.7119989 C43.9639989,42.0199989 45.6253322,36.5746658 45.6253322,29.9279993 L45.6253322,7.40533315 C45.6253322,3.62133324 42.5799989,0.66666665 38.7946657,0.66666665 C34.7333324,0.66666665 32.0559992,3.52799991 32.0559992,6.4826665 L32.0559992,6.5746665 C28.6413326,2.7906666 23.9333327,0.298666659 17.1026662,0.298666659 C7.77999978,0.298666659 0.118666639,5.65199986 0.118666639,15.4359996" id="path78"></path>
                            </g>
                            <g id="g80" transform="translate(522.759187, 1.471467)">
                                <path d="M6.6666665,14.9999996 L6.6666665,38.4453323 L6.20399984,38.4453323 C2.88133326,38.4453323 0.203999995,41.1226656 0.203999995,44.4453322 C0.203999995,47.7679988 2.88133326,50.445332 6.20399984,50.445332 L6.6666665,50.445332 L6.6666665,56.6306652 C6.6666665,60.5066651 9.80533309,63.6439984 13.6826663,63.6439984 C17.5586662,63.6439984 20.6959995,60.5066651 20.6959995,56.6306652 L20.6959995,50.445332 L26.8813327,50.445332 C30.2039992,50.445332 32.8813325,47.7679988 32.8813325,44.4453322 C32.8813325,41.1226656 30.2039992,38.4453323 26.8813327,38.4453323 L20.6959995,38.4453323 L20.6959995,17.3066662 C20.6959995,14.077333 22.0826661,12.5079997 25.2199994,12.5079997 C25.6813327,12.5079997 26.6039993,12.5999997 26.8813327,12.5999997 C30.0199992,12.5999997 32.6959992,10.0159997 32.6959992,6.78533314 C32.6959992,4.2933332 31.0346659,2.26133325 29.0959993,1.52399994 C26.5119993,0.507999962 24.1119994,0.138666638 21.0666661,0.138666638 C12.481333,0.138666638 6.6666665,3.55466655 6.6666665,14.9999996" id="path82"></path>
                            </g>
                            <g id="g84" transform="translate(572.247452, 0.902400)">
                                <path d="M45.3333322,7.9999998 C45.3333322,4.1239999 42.1946656,0.983999975 38.3186657,0.983999975 C34.4413325,0.983999975 31.3039992,4.1239999 31.3039992,7.9999998 L31.3039992,8.55333312 C28.0733326,4.39999989 23.9186661,0.615999985 16.8106662,0.615999985 C6.19599985,0.615999985 0.0119999997,7.63199981 0.0119999997,18.9839995 L0.0119999997,44.5533322 C0.0119999997,48.4293321 3.14933325,51.5679987 7.02799982,51.5679987 C10.9039997,51.5679987 14.041333,48.4293321 14.041333,44.5533322 L14.041333,23.4159994 C14.041333,16.7693329 17.1813329,13.3546663 22.5333328,13.3546663 C27.8879993,13.3546663 31.3039992,16.7693329 31.3039992,23.4159994 L31.3039992,44.5533322 C31.3039992,48.4293321 34.4413325,51.5679987 38.3186657,51.5679987 C42.1946656,51.5679987 45.3333322,48.4293321 45.3333322,44.5533322 L45.3333322,7.9999998 Z" id="path86"></path>
                            </g>
                            <g id="g88" transform="translate(632.046918, 0.481867)">
                                <path d="M3.9999999,6.6666665 C2.52399994,7.58933314 1.32266663,9.25066644 1.32266663,11.4666664 C1.32266663,14.605333 3.72266657,17.0053329 6.86133316,17.0053329 C7.8759998,17.0053329 8.89199978,16.7279996 9.63066643,16.2666663 C14.3386663,13.3119997 19.0453329,11.8359997 23.0159994,11.8359997 C27.0773327,11.8359997 28.9226659,13.3119997 28.9226659,15.5279996 L28.9226659,15.7119996 C28.9226659,18.7586662 24.1226661,19.7746662 18.6773329,21.4359995 C11.753333,23.4666661 3.9079999,26.6959993 3.9079999,36.2973324 L3.9079999,36.4813324 C3.9079999,46.5426655 12.0306664,52.173332 21.9999994,52.173332 C27.1693327,52.173332 32.5226659,50.7893321 37.3226657,48.3893321 C39.3533323,47.3733321 40.6453323,45.5279989 40.6453323,43.1279989 C40.6453323,39.9893323 38.1533324,37.5893324 35.0146658,37.5893324 C33.9999992,37.5893324 33.3533325,37.7733324 32.4293325,38.235999 C28.4613326,40.1733323 24.6773327,41.3733323 21.7226661,41.3733323 C18.3066662,41.3733323 16.5533329,39.8973323 16.5533329,37.9586657 L16.5533329,37.7733324 C16.5533329,35.0053325 21.2613328,33.7119992 26.614666,31.8653325 C33.5373325,29.5586659 41.5693323,26.2359993 41.5693323,17.1906662 L41.5693323,17.0053329 C41.5693323,6.02133318 33.3533325,1.03599997 22.6453328,1.03599997 C16.5533329,1.03599997 9.99999975,2.7906666 3.9999999,6.6666665" id="path90"></path>
                            </g>
                        </g>
                    </g>
                </g>
            </g>
        </g>
    </g>
</svg>