<svg width="87" height="60" viewBox="0 0 87 60" fill="none" xmlns="http://www.w3.org/2000/svg">
<path d="M60 15.5535C59.9992 14.5182 59.712 13.5036 59.1704 12.6231C58.6288 11.7427 57.8543 11.0312 56.9335 10.5683C57.8164 10.1235 58.5652 9.44958 59.1025 8.61628C59.6399 7.78298 59.9462 6.8205 59.9899 5.82829C60.0337 4.83607 59.8132 3.85011 59.3513 2.97227C58.8894 2.09443 58.2028 1.35655 57.3624 0.834875C56.5221 0.313195 55.5585 0.0266356 54.5712 0.00480355C53.5839 -0.0170285 52.6088 0.226659 51.7464 0.710689C50.8841 1.19472 50.1659 1.90153 49.6661 2.75811C49.1663 3.61468 48.9029 4.58994 48.9032 5.58313C48.9017 6.61538 48.5386 7.61407 47.8776 8.40379C47.2166 9.1935 46.3001 9.72372 45.289 9.90132C43.6738 8.61332 41.9215 7.50959 40.0642 6.61038C40.3252 5.21668 40.0486 3.77532 39.2906 2.57944C38.5325 1.38357 37.35 0.523005 35.9836 0.172773C34.6171 -0.17746 33.1693 0.00894694 31.9347 0.694078C30.7 1.37921 29.7712 2.51161 29.3372 3.86096C28.875 3.83462 28.4051 3.82223 27.9275 3.82378C22.525 3.82363 17.2383 5.39954 12.7084 8.36049C8.17848 11.3214 4.59975 15.5403 2.40599 20.5057C0.212231 25.4711 -0.502379 30.9699 0.348779 36.3356C1.19994 41.7013 3.58032 46.7035 7.2014 50.7359C8.21645 50.2833 9.07905 49.544 9.68451 48.608C10.29 47.6719 10.6122 46.5792 10.6122 45.4625C10.6129 44.3491 11.0531 43.2815 11.8361 42.4944C12.6191 41.7073 13.6809 41.2651 14.788 41.2651H24.7016C26.2236 41.2645 27.683 40.656 28.759 39.5734C29.835 38.4908 30.4394 37.0228 30.4394 35.4921C30.4394 33.9616 29.8349 32.4937 28.7589 31.4115C27.6828 30.3293 26.2233 29.7213 24.7016 29.7213C24.5587 29.7218 24.416 29.714 24.2741 29.6981C23.5906 29.6299 22.935 29.3901 22.3676 29.0008C21.8835 28.6751 21.4728 28.2508 21.1621 27.7553C20.8514 27.2598 20.6476 26.7042 20.5639 26.1245C20.4803 25.5448 20.5186 24.9539 20.6765 24.39C20.8343 23.8262 21.1081 23.3019 21.4802 22.8512C21.6488 22.6422 21.8385 22.4514 22.0464 22.2818C22.7969 21.6618 23.7396 21.3256 24.7108 21.3313C26.2326 21.3313 27.692 20.7233 28.7681 19.6411C29.8442 18.5588 30.4487 17.091 30.4487 15.5605C30.4482 14.7297 30.6928 13.9174 31.1515 13.2264C31.6101 12.5355 32.2623 11.9968 33.0254 11.6787C33.7885 11.3605 34.6283 11.2771 35.4385 11.4391C36.2487 11.6011 36.993 12.0011 37.5771 12.5886C38.1612 13.1761 38.559 13.9246 38.72 14.7395C38.8811 15.5543 38.7982 16.3989 38.4818 17.1664C38.1655 17.9339 37.6299 18.5898 36.9429 19.0511C36.2558 19.5123 35.4482 19.7583 34.6221 19.7579C33.12 19.7882 31.6895 20.4096 30.6378 21.4887C29.5862 22.5679 28.9971 24.0187 28.9971 25.5298C28.9971 27.0408 29.5862 28.4917 30.6378 29.5708C31.6895 30.6499 33.12 31.2714 34.6221 31.3017C35.3771 31.3017 36.1246 31.1519 36.822 30.8609C37.5193 30.5699 38.1527 30.1434 38.6859 29.6059C39.2191 29.0683 39.6417 28.4302 39.9293 27.7282C40.217 27.0262 40.3641 26.274 40.3623 25.5147C40.3618 24.6839 40.6064 23.8716 41.0651 23.1806C41.5237 22.4896 42.1759 21.951 42.939 21.6328C43.7021 21.3147 44.5419 21.2313 45.3521 21.3933C46.1623 21.5552 46.9066 21.9553 47.4907 22.5427C48.0748 23.1302 48.4726 23.8787 48.6336 24.6936C48.7947 25.5085 48.7118 26.3531 48.3954 27.1206C48.0791 27.888 47.5435 28.5439 46.8565 29.0052C46.1694 29.4665 45.3618 29.7125 44.5357 29.712C43.0139 29.712 41.5545 30.32 40.4784 31.4022C39.4024 32.4845 38.7978 33.9523 38.7978 35.4828C38.7994 36.0351 38.6925 36.5824 38.4833 37.0931C38.2741 37.6039 37.9667 38.068 37.5787 38.4591C37.1908 38.8501 36.73 39.1603 36.2226 39.3718C35.7152 39.5833 35.1713 39.692 34.6221 39.6917C33.1003 39.6917 31.6409 40.2997 30.5648 41.3819C29.4888 42.4642 28.8842 43.932 28.8842 45.4625C28.8842 45.7466 28.8555 46.0301 28.7987 46.3085C28.7445 46.5786 28.6632 46.8426 28.5561 47.0963C28.4505 47.3461 28.3213 47.585 28.1702 47.8098C27.7894 48.383 27.2738 48.8526 26.669 49.177C26.0643 49.5013 25.3892 49.6704 24.7039 49.6691H14.7903C13.6859 49.669 12.6049 49.9896 11.6772 50.5923C10.7496 51.195 10.0147 52.0543 9.5608 53.067C13.5997 56.615 18.569 58.9184 23.8748 59.702C29.1806 60.4856 34.5985 59.7162 39.4812 57.4857C44.3638 55.2553 48.5047 51.6582 51.4089 47.1242C54.3132 42.5901 55.8581 37.311 55.8589 31.9176C55.8589 31.5852 55.8589 31.2552 55.8404 30.9252C56.9306 30.6381 57.9079 30.0238 58.6423 29.1641C59.3766 28.3045 59.8332 27.2402 59.9511 26.1131C60.069 24.9859 59.8428 23.8494 59.3025 22.8548C58.7621 21.8602 57.9334 21.0548 56.9266 20.5457C57.8497 20.0833 58.6264 19.3711 59.1693 18.4893C59.7122 17.6074 59.9999 16.5908 60 15.5535ZM14.7972 39.6917C13.9712 39.6922 13.1637 39.4463 12.4767 38.9851C11.7897 38.5239 11.2541 37.8682 10.9377 37.1008C10.6213 36.3335 10.5383 35.489 10.6991 34.6742C10.86 33.8594 11.2575 33.1108 11.8414 32.5233C12.4253 31.9357 13.1693 31.5355 13.9794 31.3733C14.7895 31.211 15.6292 31.2941 16.3923 31.6119C17.1555 31.9297 17.8078 32.4679 18.2667 33.1586C18.7257 33.8493 18.9706 34.6613 18.9706 35.4921C18.9706 36.6055 18.531 37.6733 17.7484 38.4608C16.9658 39.2484 15.9043 39.6911 14.7972 39.6917ZM24.7108 31.2947C25.5368 31.2947 26.3442 31.5411 27.031 32.0027C27.7177 32.4642 28.2529 33.1203 28.5689 33.8878C28.8849 34.6553 28.9674 35.4998 28.8061 36.3146C28.6448 37.1293 28.2469 37.8776 27.6627 38.4648C27.0785 39.0521 26.3342 39.4519 25.524 39.6136C24.7139 39.7754 23.8742 39.6919 23.1112 39.3737C22.3483 39.0555 21.6963 38.5168 21.2377 37.8259C20.7791 37.135 20.5346 36.3228 20.5351 35.4921C20.5351 33.9616 19.9306 32.4937 18.8545 31.4115C17.7784 30.3293 16.319 29.7213 14.7972 29.7213C13.9715 29.7218 13.1642 29.476 12.4774 29.0151C11.7905 28.5543 11.255 27.8989 10.9384 27.132C10.6218 26.3651 10.5383 25.5209 10.6986 24.7063C10.8589 23.8917 11.2558 23.1432 11.839 22.5553C12.4222 21.9675 13.1655 21.5667 13.9752 21.4037C14.7848 21.2407 15.6243 21.3227 16.3875 21.6394C17.1508 21.9562 17.8036 22.4934 18.2634 23.1831C18.7231 23.8729 18.9693 24.6843 18.9706 25.5147C18.9697 26.2734 19.1175 27.0248 19.4056 27.7261C19.6936 28.4273 20.1163 29.0645 20.6494 29.6014C21.1826 30.1382 21.8157 30.564 22.5125 30.8546C23.2094 31.1452 23.9564 31.2947 24.7108 31.2947ZM44.5357 39.6917C43.0139 39.6917 41.5545 40.2997 40.4784 41.3819C39.4024 42.4642 38.7978 43.932 38.7978 45.4625C38.7983 46.2932 38.5538 47.1054 38.0952 47.7963C37.6367 48.4873 36.9847 49.0259 36.2217 49.3441C35.4587 49.6623 34.619 49.7458 33.8089 49.5841C32.9987 49.4223 32.2545 49.0225 31.6702 48.4352C31.086 47.848 30.6881 47.0997 30.5268 46.285C30.3655 45.4703 30.448 44.6257 30.764 43.8582C31.08 43.0907 31.6152 42.4346 32.302 41.9731C32.9887 41.5115 33.7961 41.2651 34.6221 41.2651C36.1445 41.2651 37.6045 40.6569 38.681 39.5742C39.7575 38.4916 40.3623 37.0232 40.3623 35.4921C40.3623 34.6613 40.6072 33.8493 41.0662 33.1586C41.5251 32.4679 42.1774 31.9297 42.9406 31.6119C43.7037 31.2941 44.5434 31.211 45.3535 31.3733C46.1636 31.5355 46.9076 31.9357 47.4915 32.5233C48.0754 33.1108 48.4729 33.8594 48.6338 34.6742C48.7947 35.489 48.7116 36.3335 48.3952 37.1008C48.0788 37.8682 47.5432 38.5239 46.8562 38.9851C46.1693 39.4463 45.3617 39.6922 44.5357 39.6917ZM34.6221 9.78046C33.1001 9.78108 31.6407 10.3896 30.5647 11.4722C29.4887 12.5548 28.8842 14.0228 28.8842 15.5535C28.8842 16.3843 28.6393 17.1963 28.1803 17.887C27.7214 18.5777 27.0691 19.116 26.3059 19.4338C25.5428 19.7515 24.7031 19.8346 23.893 19.6723C23.0829 19.5101 22.3389 19.1099 21.755 18.5223C21.1711 17.9348 20.7736 17.1862 20.6127 16.3714C20.4519 15.5566 20.5349 14.7121 20.8513 13.9448C21.1677 13.1774 21.7033 12.5217 22.3903 12.0605C23.0773 11.5993 23.8848 11.3534 24.7108 11.3539C26.2326 11.3539 27.692 10.7459 28.7681 9.66367C29.8442 8.58144 30.4487 7.11363 30.4487 5.58313C30.4483 5.02862 30.5574 4.47956 30.7699 3.96787L30.8184 3.86096C30.8531 3.78659 30.8878 3.71222 30.9247 3.62855C30.9617 3.54489 30.9732 3.53791 30.9987 3.49375C31.0241 3.4496 31.0726 3.36825 31.1119 3.3055C31.1512 3.24275 31.1627 3.22416 31.1905 3.18465C31.2529 3.09633 31.3176 3.00802 31.3846 2.92435C31.4077 2.89414 31.4331 2.86857 31.4585 2.83836C31.514 2.77328 31.5718 2.70821 31.6342 2.64546L31.7312 2.54784C31.789 2.49206 31.8468 2.44093 31.9045 2.3898C31.9623 2.33867 31.9692 2.3317 32.0039 2.30614C32.094 2.23176 32.1865 2.16204 32.2812 2.09464L32.332 2.06443C32.4175 2.00865 32.503 1.9552 32.5909 1.90407L32.6995 1.84829L32.9306 1.73441L33.0369 1.68792C33.1501 1.64144 33.2679 1.59961 33.3789 1.56242H33.402C33.5129 1.52756 33.6331 1.49967 33.7394 1.47411L33.8526 1.45319C33.9427 1.43454 34.0337 1.42058 34.1253 1.41136L34.2385 1.39741C34.3656 1.38579 34.4927 1.37882 34.6221 1.37882C35.729 1.37882 36.7905 1.82104 37.5732 2.60819C38.3558 3.39534 38.7955 4.46295 38.7955 5.57615C38.7955 6.68936 38.3558 7.75697 37.5732 8.54412C36.7905 9.33127 35.729 9.77349 34.6221 9.77349V9.78046ZM58.119 23.5229C58.1837 23.6414 58.2437 23.7553 58.2969 23.8878C58.5117 24.403 58.6225 24.956 58.6227 25.5147C58.6227 25.6448 58.6227 25.775 58.6042 25.9028C58.6042 25.9446 58.6042 25.9865 58.5881 26.0283C58.5881 26.1143 58.565 26.2026 58.5488 26.2886C58.5488 26.3351 58.5303 26.3816 58.5211 26.4257C58.5026 26.5094 58.4818 26.5907 58.4587 26.6698C58.4471 26.7139 58.4355 26.7557 58.4217 26.7976C58.3893 26.8975 58.3547 26.9951 58.3154 27.0927C58.3015 27.1253 58.2877 27.1601 58.2715 27.195C58.2299 27.288 58.1883 27.3809 58.1398 27.4716L58.0612 27.611C58.0265 27.6691 57.9919 27.7272 57.9549 27.783C57.9179 27.8388 57.8902 27.8829 57.8555 27.9317C57.8209 27.9805 57.7839 28.0294 57.7469 28.0782C57.7099 28.127 57.6707 28.1781 57.6291 28.2269C57.5875 28.2757 57.5597 28.3036 57.5251 28.3431C57.4303 28.4454 57.3333 28.543 57.2293 28.6359C57.2039 28.6592 57.1784 28.6847 57.153 28.7057C57.1276 28.7266 57.0329 28.8033 56.9705 28.8521L56.8757 28.9241C56.811 28.9706 56.744 29.0148 56.677 29.0566L56.5869 29.1124C56.5129 29.1565 56.4413 29.1984 56.3673 29.2379L56.3257 29.2588C55.6903 29.5849 54.9821 29.7411 54.2693 29.7124C53.5565 29.6838 52.863 29.4712 52.2555 29.0952C51.6479 28.7192 51.1467 28.1924 50.8 27.5653C50.4534 26.9383 50.2729 26.2321 50.2759 25.5147C50.2753 23.984 49.6702 22.5161 48.5938 21.434C47.5174 20.3518 46.0577 19.7439 44.5357 19.7439H44.4548C42.9336 19.7451 41.4751 20.3536 40.3997 21.4356C39.3243 22.5177 38.7199 23.9848 38.7193 25.5147C38.7225 26.3461 38.4802 27.1597 38.0232 27.8525C37.5663 28.5454 36.9151 29.0862 36.1522 29.4065C35.3894 29.7267 34.5491 29.8121 33.738 29.6517C32.9269 29.4913 32.1813 29.0924 31.5958 28.5055C31.0103 27.9186 30.6112 27.1701 30.449 26.3548C30.2868 25.5396 30.3689 24.6943 30.6848 23.926C31.0007 23.1577 31.5363 22.501 32.2236 22.0391C32.911 21.5772 33.7192 21.3308 34.5458 21.3313C35.3009 21.3328 36.0488 21.1844 36.7468 20.8947C37.4447 20.6049 38.0789 20.1795 38.6131 19.6427C39.1472 19.106 39.5707 18.4685 39.8594 17.7667C40.1481 17.065 40.2962 16.3129 40.2953 15.5535C40.2953 14.4425 40.733 13.3768 41.5126 12.5897C42.2922 11.8026 43.3502 11.3582 44.4548 11.3539H44.5311C45.2213 11.3534 45.9057 11.2266 46.5508 10.9797C47.0891 10.7764 47.5939 10.4928 48.0482 10.1384C48.1522 10.0594 48.2493 9.97569 48.3463 9.8897L48.411 9.82927C48.5011 9.7456 48.5913 9.66193 48.6768 9.57129L48.7184 9.52481C48.8709 9.36066 49.0136 9.1876 49.1459 9.00654C49.1759 8.96703 49.2083 8.92752 49.236 8.88568C49.2637 8.84385 49.3377 8.73229 49.3862 8.65327C49.4347 8.57425 49.4694 8.51847 49.5064 8.45108C49.5433 8.38368 49.5873 8.30698 49.6265 8.23493C49.6658 8.16288 49.712 8.06062 49.7513 7.96998C49.7906 7.87934 49.8091 7.84913 49.8345 7.78638C49.8969 7.63764 49.9524 7.48425 50.0009 7.32156C50.0164 7.27581 50.0295 7.22926 50.0402 7.18211C50.0772 7.06126 50.1072 6.9497 50.1349 6.8149L50.1696 6.64059C50.1927 6.51974 50.2112 6.39656 50.2251 6.27106C50.2251 6.21993 50.2389 6.16648 50.2435 6.11302C50.2597 5.93407 50.2713 5.75743 50.2713 5.57615C50.2713 4.46274 50.7109 3.39489 51.4935 2.60737C52.2761 1.81984 53.3376 1.37711 54.4447 1.37649C55.1969 1.37503 55.9354 1.57872 56.5816 1.96588C57.2278 2.35304 57.7575 2.90918 58.1143 3.5751C58.179 3.69363 58.2391 3.80751 58.2923 3.94231C58.5074 4.45986 58.6181 5.01522 58.6181 5.57615C58.6181 6.13709 58.5074 6.69245 58.2923 7.21C58.2391 7.3355 58.179 7.45868 58.1143 7.57721C57.7572 8.2427 57.2273 8.79837 56.5811 9.18511C55.935 9.57184 55.1966 9.77518 54.4447 9.77349C54.2644 9.77349 54.0888 9.77349 53.9132 9.80138L53.7468 9.81997C53.6266 9.83624 53.5157 9.85251 53.3886 9.87575L53.2084 9.91294C53.0882 9.9385 52.9773 9.96872 52.8571 10.0013L52.7023 10.0454C52.5498 10.0942 52.3973 10.15 52.2401 10.2127C52.1777 10.2383 52.1177 10.2685 52.0553 10.2987C51.9929 10.329 51.8819 10.3801 51.7964 10.4242C51.7109 10.4684 51.6485 10.5033 51.5654 10.5474C51.4822 10.5916 51.4359 10.6241 51.3712 10.6659C51.3065 10.7078 51.2141 10.7659 51.1402 10.8193L51.0177 10.9123C50.719 11.1357 50.442 11.387 50.1904 11.663L50.1419 11.7188C50.054 11.8164 49.9686 11.9186 49.8877 12.0232V12.0348C49.5379 12.4941 49.2583 13.0032 49.0581 13.5455C48.7541 14.365 48.6399 15.2434 48.724 16.114C48.8081 16.9846 49.0883 17.8244 49.5434 18.5698C49.9985 19.3151 50.6165 19.9464 51.3504 20.4156C52.0844 20.8849 52.915 21.1797 53.7792 21.2778L53.9594 21.2941C54.1165 21.2941 54.2737 21.3173 54.4354 21.3173C55.1907 21.314 55.9325 21.5176 56.5815 21.9061C57.2304 22.2947 57.7619 22.8536 58.119 23.5229ZM54.4493 19.7509C54.3165 19.7509 54.1839 19.7439 54.0518 19.73C53.964 19.73 53.8785 19.7067 53.7907 19.6928L53.6798 19.6765C53.5689 19.6556 53.4487 19.6277 53.3493 19.5975H53.3285C53.2107 19.565 53.0975 19.5254 52.9842 19.4836C52.4669 19.2901 51.9931 18.9949 51.5904 18.6154C51.1876 18.2358 50.864 17.7794 50.6384 17.2728C50.4128 16.7662 50.2897 16.2195 50.2762 15.6646C50.2628 15.1097 50.3593 14.5576 50.5601 14.0406C50.5717 14.015 50.5786 13.9871 50.5902 13.9615C50.6225 13.8802 50.6618 13.8012 50.6988 13.7291C50.7196 13.6919 50.7358 13.6501 50.7565 13.6129C50.7935 13.5409 50.8351 13.4735 50.8767 13.4037C50.9183 13.334 50.9276 13.3154 50.9553 13.2736C50.983 13.2318 51.0408 13.1504 51.0847 13.0877L51.1817 12.9575C51.228 12.8994 51.2742 12.846 51.3227 12.7925C51.3712 12.7391 51.399 12.7042 51.4383 12.6624C51.4775 12.6205 51.5353 12.5647 51.5861 12.5159C51.637 12.4671 51.674 12.4323 51.7202 12.3928L51.875 12.2649L52.0275 12.1487C52.0807 12.1115 52.1338 12.0744 52.1893 12.0395C52.2447 12.0046 52.3002 11.9698 52.358 11.9349L52.522 11.8419C52.5844 11.8094 52.6468 11.7815 52.7115 11.7513L52.8756 11.6769L53.0836 11.6002C53.1391 11.5816 53.1922 11.5607 53.2477 11.5445C53.3031 11.5282 53.4002 11.505 53.4787 11.4864L53.6382 11.4468C53.726 11.4306 53.8161 11.419 53.904 11.4073L54.038 11.3864C54.1743 11.3864 54.313 11.3655 54.4516 11.3655C55.5418 11.3913 56.5787 11.845 57.3406 12.6295C58.1026 13.4141 58.5291 14.4673 58.5291 15.564C58.5291 16.6607 58.1026 17.7139 57.3406 18.4985C56.5787 19.283 55.5418 19.7367 54.4516 19.7625L54.4493 19.7509Z" fill="#00867E"/>
<path d="M44.5357 21.3313C43.4314 21.3319 42.3723 21.7724 41.5902 22.5564C40.8081 23.3404 40.3666 24.4041 40.3623 25.5147C40.3617 27.0454 39.7566 28.5132 38.6802 29.5953C37.6038 30.6775 36.1441 31.2854 34.6221 31.2854C33.1199 31.2551 31.6895 30.6337 30.6378 29.5545C29.5861 28.4754 28.9971 27.0245 28.9971 25.5135C28.9971 24.0024 29.5861 22.5516 30.6378 21.4725C31.6895 20.3933 33.1199 19.7719 34.6221 19.7416C35.4482 19.742 36.2558 19.4961 36.9429 19.0348C37.6299 18.5735 38.1655 17.9176 38.4818 17.1501C38.7982 16.3826 38.8811 15.538 38.72 14.7232C38.559 13.9083 38.1612 13.1598 37.5771 12.5723C36.993 11.9848 36.2487 11.5848 35.4385 11.4228C34.6282 11.2609 33.7885 11.3442 33.0253 11.6624C32.2622 11.9805 31.6101 12.5192 31.1514 13.2102C30.6928 13.9011 30.4482 14.7134 30.4487 15.5442C30.4508 16.3034 30.304 17.0556 30.0165 17.7576C29.7291 18.4596 29.3068 19.0977 28.7738 19.6353C28.2408 20.1729 27.6075 20.5994 26.9103 20.8904C26.2131 21.1815 25.4657 21.3313 24.7108 21.3313C23.7416 21.3303 22.8025 21.6698 22.0556 22.2911C21.8478 22.4607 21.658 22.6515 21.4895 22.8605C21.1189 23.311 20.8464 23.8346 20.6895 24.3975C20.5325 24.9604 20.4946 25.5502 20.5782 26.1287C20.6618 26.7073 20.8651 27.2618 21.1749 27.7565C21.4847 28.2512 21.8941 28.6751 22.3768 29.0008C22.9442 29.3901 23.5998 29.6298 24.2833 29.698C24.4252 29.714 24.568 29.7218 24.7108 29.7213C26.2326 29.7213 27.692 30.3293 28.7681 31.4115C29.8441 32.4937 30.4487 33.9615 30.4487 35.492V35.492C30.4487 37.0228 29.8442 38.4908 28.7682 39.5734C27.6922 40.656 26.2328 41.2645 24.7108 41.2651H14.7972C13.6901 41.2651 12.6284 41.7073 11.8453 42.4943C11.0623 43.2814 10.6221 44.349 10.6215 45.4624C10.6215 46.5538 10.3133 47.6227 9.73278 48.5448C9.15226 49.4668 8.32328 50.2041 7.34235 50.6708C8.05654 51.4774 8.81654 52.2417 9.61855 52.96C10.083 51.9738 10.8162 51.1404 11.7329 50.5566C12.6496 49.9728 13.7122 49.6626 14.7972 49.6621H24.7108C25.5301 49.6608 26.331 49.4179 27.0144 48.9635C27.6979 48.5091 28.2339 47.8632 28.5561 47.1056C28.6632 46.8519 28.7445 46.5879 28.7987 46.3177C28.8555 46.0394 28.8842 45.7559 28.8842 45.4717V45.4717C28.883 44.7131 29.0305 43.9617 29.3183 43.2605C29.6061 42.5593 30.0286 41.922 30.5615 41.3852C31.0945 40.8483 31.7274 40.4224 32.4242 40.1319C33.1209 39.8413 33.8678 39.6917 34.6221 39.6917C35.1705 39.692 35.7137 39.5836 36.2204 39.3726C36.7272 39.1617 37.1876 38.8524 37.5755 38.4623C37.9633 38.0723 38.2708 37.6092 38.4806 37.0995C38.6903 36.5899 38.7981 36.0436 38.7978 35.492V35.492C38.7978 33.9615 39.4023 32.4937 40.4784 31.4115C41.5545 30.3293 43.0139 29.7213 44.5357 29.7213C45.0922 29.7345 45.6456 29.6356 46.1636 29.4305C46.6815 29.2254 47.1535 28.9183 47.5517 28.5271C47.9499 28.1359 48.2663 27.6687 48.4823 27.1527C48.6984 26.6368 48.8096 26.0826 48.8096 25.5228C48.8096 24.963 48.6984 24.4088 48.4823 23.8929C48.2663 23.3769 47.9499 22.9096 47.5517 22.5185C47.1535 22.1273 46.6815 21.8201 46.1636 21.6151C45.6456 21.41 45.0922 21.3111 44.5357 21.3243V21.3313Z" fill="white"/>
<path d="M54.4493 11.3539C54.3107 11.3539 54.172 11.3539 54.0357 11.3748L53.9017 11.3957C53.8139 11.4073 53.7237 11.419 53.6359 11.4352L53.4765 11.4747C53.4002 11.4933 53.324 11.5096 53.2454 11.5328C53.1668 11.5561 53.1368 11.57 53.0813 11.5886L52.8733 11.6653L52.7093 11.7397C52.6446 11.7699 52.5822 11.7978 52.5198 11.8303L52.3557 11.9233C52.2979 11.9582 52.2425 11.9907 52.187 12.0279C52.1316 12.0651 52.0784 12.0999 52.0253 12.1371L51.8727 12.2533L51.7179 12.3811C51.6717 12.4206 51.6278 12.4625 51.5839 12.5043C51.54 12.5461 51.4845 12.5996 51.436 12.6507C51.3875 12.7019 51.3574 12.7367 51.3204 12.7809C51.2835 12.825 51.2257 12.8878 51.1795 12.9459L51.0824 13.076C51.0385 13.1388 50.9923 13.1992 50.953 13.262C50.9137 13.3247 50.8999 13.348 50.8744 13.3921C50.849 13.4363 50.7913 13.5292 50.7543 13.6013C50.7335 13.6385 50.7173 13.6803 50.6965 13.7175C50.6595 13.7965 50.6203 13.8755 50.5879 13.9499C50.5763 13.9755 50.5694 14.0034 50.5579 14.0289C50.371 14.5129 50.2746 15.0274 50.2736 15.5466C50.2734 16.2487 50.4499 16.9395 50.7866 17.5546V17.5546C50.8305 17.6336 50.8744 17.708 50.923 17.787C51.2112 18.2409 51.583 18.6353 52.0183 18.9491L52.0368 18.9607C52.1061 19.0095 52.1755 19.056 52.2471 19.1001H52.2656C52.4911 19.2404 52.7294 19.3587 52.9773 19.4534V19.4534C53.0906 19.4952 53.2084 19.5347 53.3216 19.5673H53.3424C53.4511 19.5975 53.562 19.6254 53.6729 19.6463L53.7838 19.6626C53.8716 19.6765 53.9571 19.6928 54.0449 19.6997C54.177 19.7137 54.3096 19.7207 54.4424 19.7207C55.5326 19.6949 56.5694 19.2412 57.3314 18.4566C58.0933 17.6721 58.5199 16.6189 58.5199 15.5222C58.5199 14.4255 58.0933 13.3723 57.3314 12.5877C56.5694 11.8031 55.5326 11.3495 54.4424 11.3237L54.4493 11.3539Z" fill="white"/>
<path d="M58.119 23.5229C57.7612 22.8583 57.2311 22.3036 56.585 21.9177C55.9388 21.5318 55.2008 21.3291 54.4493 21.3313V21.3313C54.2876 21.3313 54.1304 21.3197 53.9733 21.308L53.7931 21.2918C53.6706 21.2778 53.5504 21.2546 53.4303 21.2313C53.266 21.2032 53.1033 21.1667 52.9427 21.1221V21.1221C52.7855 21.078 52.633 21.0292 52.4805 20.9734H52.4574C52.3118 20.9199 52.1685 20.8595 52.0299 20.7921L51.9929 20.7758C51.8566 20.7107 51.7272 20.641 51.5977 20.5667L51.5469 20.5364C51.4244 20.4644 51.3158 20.3854 51.1887 20.304L51.1217 20.2599C51.0131 20.1785 50.9045 20.0972 50.8005 20.0112L50.7242 19.9438C50.6272 19.8601 50.5324 19.7741 50.44 19.6835L50.3522 19.5929C50.269 19.5069 50.1858 19.4185 50.1072 19.3256C50.0749 19.2884 50.0425 19.2489 50.0125 19.2094C49.9408 19.1211 49.8692 19.0327 49.8045 18.9398C49.7698 18.8933 49.7375 18.8422 49.7051 18.7934C49.6451 18.705 49.5873 18.6167 49.5318 18.5261C49.4764 18.4354 49.4671 18.4076 49.4348 18.3495C49.4024 18.2914 49.3377 18.1751 49.2961 18.0868C49.2545 17.9985 49.2337 17.9474 49.2037 17.8777C49.1736 17.8079 49.1274 17.708 49.0951 17.622C49.0627 17.536 49.0396 17.4616 49.0142 17.3896C48.9888 17.3175 48.9587 17.2292 48.9356 17.1572C48.9125 17.0851 48.8894 16.9713 48.8686 16.8783C48.8478 16.7853 48.8316 16.7296 48.8178 16.6459C48.8039 16.5622 48.7831 16.4135 48.7692 16.3089C48.7692 16.2461 48.7508 16.1857 48.7438 16.123C48.7276 15.9463 48.7207 15.7674 48.7207 15.5861C48.7207 15.4048 48.7207 15.2723 48.7415 15.1213C48.7415 15.0678 48.7531 15.0144 48.7577 14.9609C48.7692 14.861 48.7831 14.7634 48.7993 14.6657C48.8108 14.603 48.8201 14.5402 48.834 14.4775C48.8478 14.4147 48.8732 14.2985 48.894 14.2079C48.9148 14.1173 48.9218 14.0894 48.9379 14.0313C48.9818 13.8825 49.0281 13.7338 49.0812 13.5897C49.2814 13.0474 49.561 12.5382 49.9108 12.079V12.0674C49.9917 11.9628 50.0772 11.8605 50.165 11.7629L50.2135 11.7072C50.4651 11.4312 50.7421 11.1798 51.0408 10.9565L51.1633 10.8635C51.2396 10.8101 51.3181 10.7589 51.3944 10.7101C51.4706 10.6613 51.5238 10.6288 51.5885 10.5916C51.6532 10.5544 51.7364 10.5079 51.8196 10.4684C51.9028 10.4289 51.9906 10.3824 52.0784 10.3429C52.1662 10.3034 52.2009 10.2825 52.2633 10.2569C52.4112 10.1942 52.5637 10.1384 52.7254 10.0896L52.8803 10.0454C52.9958 10.0129 53.1114 9.98267 53.2315 9.95711L53.4118 9.91992C53.5296 9.89668 53.6429 9.88041 53.77 9.86414L53.9363 9.84555C54.112 9.82928 54.2876 9.81766 54.4678 9.81766C55.2198 9.81935 55.9581 9.61601 56.6043 9.22927C57.2505 8.84254 57.7803 8.28687 58.1375 7.62138C58.2022 7.50285 58.2623 7.38897 58.3154 7.25417C58.5305 6.73662 58.6413 6.18126 58.6413 5.62032C58.6413 5.05938 58.5305 4.50403 58.3154 3.98648C58.2623 3.86097 58.2022 3.7378 58.1375 3.61927C57.7806 2.95334 57.2509 2.39721 56.6047 2.01005C55.9585 1.62289 55.22 1.4192 54.4678 1.42066V1.42066C53.3608 1.42128 52.2992 1.86401 51.5166 2.65154C50.734 3.43906 50.2944 4.50691 50.2944 5.62032C50.2944 5.8016 50.2829 5.97823 50.2667 6.15719C50.2667 6.21065 50.2551 6.2641 50.2482 6.31523C50.2343 6.44073 50.2158 6.56391 50.1927 6.68476L50.1581 6.85907C50.1303 6.98457 50.1003 7.10543 50.0633 7.22628C50.0527 7.27343 50.0396 7.31997 50.024 7.36573C49.9755 7.52144 49.9201 7.67483 49.8577 7.83055C49.8322 7.8933 49.8045 7.95373 49.7745 8.01415C49.7444 8.07458 49.6936 8.19078 49.6497 8.2791C49.6058 8.36742 49.5711 8.4232 49.5295 8.49524C49.4879 8.56729 49.4509 8.63004 49.4094 8.69744C49.3678 8.76484 49.3123 8.85083 49.2591 8.92985C49.206 9.00887 49.1991 9.0112 49.169 9.0507C49.0368 9.23177 48.894 9.40483 48.7415 9.56898L48.6999 9.61546C48.6144 9.7061 48.5243 9.78977 48.4342 9.87344L48.3695 9.93387C48.2724 10.0199 48.1753 10.1035 48.0714 10.1825C47.617 10.537 47.1122 10.8206 46.5739 11.0239C46.4214 11.082 46.2643 11.1331 46.1118 11.1796L46.0378 11.1982C45.9153 11.2307 45.7905 11.2609 45.6634 11.2865L45.5086 11.3144C45.4023 11.333 45.2937 11.3492 45.1828 11.3609L45.0372 11.3771C44.8801 11.3888 44.7229 11.3981 44.5612 11.3981H44.4549C43.3578 11.4023 42.3064 11.8406 41.528 12.6182C40.7496 13.3958 40.3068 14.4502 40.2953 15.5536C40.2962 16.3129 40.1481 17.0651 39.8594 17.7668C39.5708 18.4685 39.1472 19.106 38.6131 19.6427C38.079 20.1795 37.4448 20.6049 36.7468 20.8947C36.0489 21.1844 35.3009 21.3328 34.5459 21.3313C33.7192 21.3308 32.911 21.5772 32.2237 22.0391C31.5363 22.501 31.0008 23.1577 30.6848 23.926C30.3689 24.6943 30.2868 25.5396 30.449 26.3548C30.6112 27.1701 31.0103 27.9186 31.5958 28.5055C32.1813 29.0924 32.9269 29.4913 33.738 29.6517C34.5492 29.8121 35.3894 29.7267 36.1522 29.4065C36.9151 29.0862 37.5663 28.5454 38.0233 27.8525C38.4803 27.1597 38.7225 26.3461 38.7193 25.5147C38.7217 23.986 39.327 22.5207 40.4022 21.4401C41.4774 20.3596 42.9349 19.7521 44.4549 19.7509H44.5311C46.0527 19.7497 47.5125 20.3561 48.5898 21.4369C49.667 22.5176 50.2735 23.9844 50.2759 25.5147C50.2759 26.6281 50.7155 27.6959 51.4982 28.4835C52.2808 29.271 53.3423 29.7137 54.4493 29.7143C54.5926 29.7143 54.7336 29.7143 54.8722 29.6888L54.997 29.6748C55.1033 29.6586 55.2073 29.64 55.3113 29.6167C55.4153 29.5935 55.4638 29.5819 55.5424 29.5609C55.8143 29.4887 56.0783 29.389 56.3304 29.2635L56.372 29.2425C56.4459 29.203 56.5176 29.1612 56.5915 29.117L56.6816 29.0613C56.7487 29.0194 56.8157 28.9753 56.8804 28.9288L56.9751 28.8567C57.0375 28.8103 57.0976 28.7615 57.1577 28.7103C57.2178 28.6592 57.2085 28.6638 57.2339 28.6406C57.3379 28.5476 57.435 28.45 57.5297 28.3478C57.5644 28.3083 57.6014 28.2711 57.6337 28.2316C57.6661 28.192 57.7146 28.1316 57.7516 28.0828C57.7885 28.034 57.8255 27.9875 57.8602 27.9364C57.8948 27.8853 57.9272 27.8388 57.9596 27.7877C57.9919 27.7365 58.0312 27.6738 58.0658 27.6157L58.1444 27.4762C58.1929 27.3856 58.2345 27.2926 58.2761 27.1997C58.2923 27.1648 58.3062 27.1299 58.32 27.0974C58.3593 26.9998 58.394 26.9022 58.4263 26.8022C58.4402 26.7604 58.4518 26.7186 58.4633 26.6744C58.4864 26.5954 58.5072 26.514 58.5257 26.4304C58.5257 26.3862 58.5465 26.3397 58.5534 26.2933C58.5696 26.2073 58.5835 26.1189 58.5927 26.0329C58.5927 25.9911 58.5927 25.9493 58.6089 25.9074C58.6089 25.7796 58.6274 25.6495 58.6274 25.5193C58.6271 24.9607 58.5164 24.4076 58.3016 23.8924C58.2438 23.7623 58.1837 23.6414 58.119 23.5229Z" fill="white"/>
<path d="M14.7973 39.6894C17.1022 39.6894 18.9707 37.8102 18.9707 35.492C18.9707 33.1739 17.1022 31.2947 14.7973 31.2947C12.4923 31.2947 10.6238 33.1739 10.6238 35.492C10.6238 37.8102 12.4923 39.6894 14.7973 39.6894Z" fill="white"/>
<path d="M24.7107 19.7509C25.8174 19.7502 26.8786 19.3078 27.6611 18.5208C28.4437 17.7338 28.8835 16.6665 28.8842 15.5535C28.8842 14.0228 29.4886 12.5547 30.5646 11.4722C31.6406 10.3896 33.1 9.78105 34.622 9.78044C34.7563 9.78054 34.8906 9.77356 35.0241 9.75952L35.1535 9.74325C35.239 9.74325 35.3268 9.72001 35.4124 9.70374C35.4632 9.70374 35.5117 9.6805 35.5626 9.66888C35.6134 9.65726 35.7128 9.63402 35.7936 9.61078C35.8745 9.58754 35.8976 9.58056 35.9485 9.56197L36.1541 9.4876L36.3113 9.42252L36.4985 9.33188L36.6533 9.25286C36.7111 9.22033 36.7665 9.18314 36.8243 9.14828C36.9375 9.07623 37.0554 8.99954 37.1524 8.91587C37.1848 8.8903 37.2195 8.86706 37.2495 8.8415C37.2795 8.81593 37.3697 8.73691 37.4297 8.68346L37.5222 8.59747C37.5823 8.54169 37.6377 8.48126 37.6932 8.42083L37.7717 8.33484C37.8272 8.26977 37.8804 8.20469 37.9312 8.13497L37.9913 8.05595C38.0467 7.98158 38.0976 7.90721 38.1461 7.82354L38.1831 7.76311C38.5749 7.12797 38.7904 6.39883 38.8071 5.65155C38.8238 4.90426 38.6412 4.16612 38.2781 3.5139C37.9151 2.86168 37.3849 2.31921 36.7427 1.9429C36.1005 1.56659 35.3699 1.3702 34.6267 1.37414C34.4973 1.37414 34.3702 1.37414 34.2431 1.39274L34.1298 1.40668C34.0383 1.4159 33.9473 1.42986 33.8571 1.44851L33.7439 1.46943C33.6307 1.495 33.5128 1.52289 33.4065 1.55775H33.3834C33.2679 1.59493 33.1523 1.63677 33.0414 1.68325L32.9351 1.72973L32.704 1.84361L32.5954 1.89939C32.5076 1.95052 32.4221 2.00398 32.3366 2.05976L32.2858 2.08997C32.191 2.15737 32.0986 2.22709 32.0085 2.30146C31.9738 2.32703 31.9414 2.35724 31.9091 2.38513C31.8767 2.41302 31.7935 2.48739 31.7358 2.54317L31.6387 2.64078C31.5763 2.70353 31.5185 2.76861 31.4631 2.83368C31.4377 2.8639 31.4122 2.88946 31.3891 2.91967C31.3221 3.00334 31.2574 3.09166 31.195 3.17997C31.1673 3.21948 31.1419 3.26132 31.1165 3.30083C31.091 3.34034 31.0402 3.42633 31.0032 3.48908C30.9663 3.55183 30.9524 3.5774 30.9293 3.62388C30.9062 3.67036 30.8576 3.7703 30.823 3.85629L30.7744 3.9632C30.6498 4.26854 30.5614 4.5876 30.511 4.91376C30.511 4.96489 30.4948 5.01834 30.4879 5.0718C30.481 5.12525 30.4763 5.17173 30.4717 5.22286C30.4602 5.33907 30.4532 5.45527 30.4532 5.57845C30.4532 7.10895 29.8487 8.57677 28.7727 9.65899C27.6966 10.7412 26.2371 11.3492 24.7154 11.3492C24.1589 11.336 23.6054 11.4349 23.0875 11.64C22.5695 11.8451 22.0976 12.1522 21.6994 12.5434C21.3012 12.9345 20.9848 13.4018 20.7687 13.9178C20.5527 14.4337 20.4414 14.9879 20.4414 15.5477C20.4414 16.1075 20.5527 16.6617 20.7687 17.1776C20.9848 17.6936 21.3012 18.1609 21.6994 18.552C22.0976 18.9432 22.5695 19.2504 23.0875 19.4554C23.6054 19.6605 24.1589 19.7594 24.7154 19.7462L24.7107 19.7509Z" fill="white"/>
<path d="M14.7972 29.7213C16.319 29.7213 17.7785 30.3293 18.8545 31.4115C19.9306 32.4938 20.5351 33.9616 20.5351 35.4921C20.5347 36.3228 20.7792 37.135 21.2377 37.8259C21.6963 38.5168 22.3483 39.0555 23.1113 39.3737C23.8742 39.6919 24.7139 39.7754 25.5241 39.6136C26.3342 39.4519 27.0785 39.0521 27.6627 38.4648C28.2469 37.8776 28.6448 37.1293 28.8062 36.3146C28.9675 35.4998 28.8849 34.6553 28.5689 33.8878C28.2529 33.1203 27.7177 32.4642 27.031 32.0027C26.3442 31.5411 25.5368 31.2947 24.7108 31.2947C23.9564 31.2947 23.2094 31.1452 22.5126 30.8546C21.8157 30.5641 21.1826 30.1382 20.6495 29.6014C20.1164 29.0645 19.6937 28.4273 19.4056 27.7261C19.1175 27.0248 18.9697 26.2734 18.9707 25.5147C18.9711 24.6839 18.7265 23.8716 18.2679 23.1806C17.8092 22.4896 17.1571 21.951 16.394 21.6328C15.6309 21.3147 14.7911 21.2313 13.9809 21.3933C13.1706 21.5552 12.4264 21.9553 11.8422 22.5427C11.2581 23.1302 10.8604 23.8787 10.6993 24.6936C10.5383 25.5085 10.6212 26.3531 10.9375 27.1206C11.2538 27.888 11.7894 28.5439 12.4765 29.0052C13.1635 29.4665 13.9712 29.7125 14.7972 29.712V29.7213Z" fill="white"/>
<path d="M44.5357 31.2947C43.429 31.2953 42.3678 31.7377 41.5853 32.5248C40.8028 33.3118 40.3629 34.379 40.3623 35.492C40.3623 37.0232 39.7575 38.4916 38.681 39.5742C37.6045 40.6569 36.1445 41.2651 34.6221 41.2651C33.7961 41.2651 32.9887 41.5115 32.3019 41.9731C31.6152 42.4346 31.08 43.0907 30.764 43.8582C30.448 44.6257 30.3654 45.4702 30.5268 46.2849C30.6881 47.0997 31.086 47.848 31.6702 48.4352C32.2544 49.0224 32.9987 49.4222 33.8089 49.584C34.619 49.7458 35.4587 49.6623 36.2217 49.3441C36.9846 49.0259 37.6366 48.4872 38.0952 47.7963C38.5538 47.1054 38.7983 46.2932 38.7978 45.4625C38.7978 43.932 39.4023 42.4641 40.4784 41.3819C41.5545 40.2997 43.0139 39.6917 44.5357 39.6917C45.0922 39.7049 45.6456 39.606 46.1636 39.4009C46.6815 39.1959 47.1535 38.8887 47.5517 38.4975C47.9499 38.1064 48.2663 37.6391 48.4823 37.1231C48.6983 36.6072 48.8096 36.053 48.8096 35.4932C48.8096 34.9334 48.6983 34.3792 48.4823 33.8633C48.2663 33.3473 47.9499 32.88 47.5517 32.4889C47.1535 32.0977 46.6815 31.7906 46.1636 31.5855C45.6456 31.3804 45.0922 31.2815 44.5357 31.2947V31.2947Z" fill="white"/>
<circle cx="66.5" cy="34.5" r="20" fill="white" stroke="#F8F8F8"/>
<path d="M58.7874 31.265C60.1787 31.265 61.3066 30.0864 61.3066 28.6325C61.3066 27.1786 60.1787 26 58.7874 26C57.3962 26 56.2683 27.1786 56.2683 28.6325C56.2683 30.0864 57.3962 31.265 58.7874 31.265Z" fill="#F99D33"/>
<path d="M66.0117 31.265C67.403 31.265 68.5309 30.0864 68.5309 28.6325C68.5309 27.1786 67.403 26 66.0117 26C64.6205 26 63.4926 27.1786 63.4926 28.6325C63.4926 30.0864 64.6205 31.265 66.0117 31.265Z" fill="#00BDCD"/>
<path d="M78.0244 32.6139C77.6497 32.3528 77.2333 32.2223 76.7961 32.2223C76.6503 32.2223 76.5046 32.244 76.3381 32.2658C75.7551 32.3963 75.2555 32.7444 74.9223 33.2666L71.3414 38.9232C71.0083 39.4454 70.9042 40.0545 71.0083 40.6637C71.1332 41.2729 71.4663 41.795 71.966 42.1432C72.4657 42.4913 73.0486 42.6 73.6315 42.4913C74.2145 42.3607 74.7142 42.0126 75.0473 41.4905L78.6282 35.8338C78.9613 35.3117 79.0654 34.7025 78.9613 34.0933C78.8572 33.4842 78.5241 32.962 78.0244 32.6139Z" fill="#9B4198"/>
<path d="M53.3744 35.8338L56.9554 41.4905C57.2885 42.0126 57.7881 42.3607 58.3711 42.4913C58.954 42.6218 59.5369 42.4913 60.0366 42.1432C61.0568 41.4252 61.3482 39.9893 60.6612 38.9232L57.0803 33.2666C56.7472 32.7444 56.2475 32.3963 55.6646 32.2658C55.5188 32.244 55.3731 32.2223 55.2065 32.2223C54.7693 32.2223 54.353 32.3528 53.9782 32.6139C52.9789 33.3319 52.6874 34.7678 53.3744 35.8338Z" fill="#F2663B"/>
<path d="M73.2569 31.265C74.6481 31.265 75.776 30.0864 75.776 28.6325C75.776 27.1786 74.6481 26 73.2569 26C71.8656 26 70.7377 27.1786 70.7377 28.6325C70.7377 30.0864 71.8656 31.265 73.2569 31.265Z" fill="#9B4198"/>
<path d="M63.6175 32.6139C63.2428 32.3528 62.8264 32.2223 62.3892 32.2223C62.2435 32.2223 62.0977 32.244 61.9312 32.2658C61.3483 32.3963 60.8486 32.7444 60.5155 33.2666L56.9346 38.9232C56.6015 39.4454 56.4974 40.0545 56.6015 40.6637C56.7264 41.2729 57.0595 41.795 57.5591 42.1432C58.0588 42.4913 58.6417 42.6 59.2247 42.4913C59.8076 42.3607 60.3073 42.0126 60.6404 41.4905L64.2213 35.8338C64.5544 35.3117 64.6585 34.7025 64.5544 34.0933C64.4503 33.4842 64.1172 32.962 63.6175 32.6139Z" fill="#F99D33"/>
<path d="M60.2448 34.0933C60.1199 34.7025 60.2448 35.3117 60.5779 35.8338L64.1589 41.4905C64.492 42.0126 64.9916 42.3607 65.5746 42.4913C66.1575 42.6218 66.7613 42.4913 67.2401 42.1432C68.2603 41.4252 68.5517 39.9893 67.8647 38.9232L64.2838 33.2666C63.9507 32.7444 63.451 32.3963 62.8681 32.2658C62.7223 32.244 62.5766 32.2223 62.41 32.2223C61.9728 32.2223 61.5565 32.3528 61.1817 32.6139C60.7029 32.962 60.3698 33.4842 60.2448 34.0933Z" fill="#8ACC9E"/>
<path d="M67.7397 33.2666L64.1588 38.9232C63.8257 39.4454 63.7216 40.0545 63.8257 40.6637C63.9506 41.2729 64.2837 41.795 64.7834 42.1432C65.2831 42.4913 65.866 42.6 66.4489 42.4913C67.0319 42.3607 67.5315 42.0126 67.8646 41.4905L71.4456 35.8338C72.1118 34.7678 71.8411 33.3101 70.821 32.6139C70.4462 32.3528 70.0298 32.2223 69.5926 32.2223C69.4469 32.2223 69.3012 32.244 69.1346 32.2658C68.5517 32.3963 68.052 32.7444 67.7397 33.2666Z" fill="#00BDCD"/>
<path d="M67.7605 35.8338L71.3415 41.4905C71.6746 42.0126 72.1742 42.3607 72.7572 42.4913C73.3401 42.6218 73.9439 42.4913 74.4227 42.1432C75.4428 41.4252 75.7343 39.9893 75.0473 38.9232L71.4664 33.2666C71.1333 32.7444 70.6336 32.3963 70.0507 32.2658C69.9049 32.244 69.7592 32.2223 69.5926 32.2223C69.1554 32.2223 68.739 32.3528 68.3643 32.6139C67.365 33.3319 67.0943 34.7678 67.7605 35.8338Z" fill="#45469B"/>
</svg>
