<svg width="156" height="132" fill="none" xmlns="http://www.w3.org/2000/svg"><g clip-path="url(#a)"><path d="m9.087.74 146.78 10.431-8.53 120.032L.556 120.77z"/><path d="M31.097 44.444c.177-.645.912-1.167 1.471-.824.205.13.338.337.471.543 2.755 4.354 5.51 8.717 8.265 13.07 1.698 2.685-1.317 3.613-3.766 3.628-1.603.01-3.168-.398-4.717-.795-4.356-1.132-8.713-2.255-13.07-3.386-1.242-.319-4.45-.497-5.061-1.831-.562-1.231.596-1.453 1.716-1.497 2.159-.085 4.276.419 6.42.53l-5.693-1.39c-1.34-.326-3.816-.526-4.553-1.943-1.2-2.304 2.573-1.411 3.638-1.138 2.429.624 5.627.703 7.76 2.137-2.517-1.699-5.307-2.67-8.044-3.924-.78-.36-2.8-1.054-3.126-1.907-.864-2.297 3.983-.202 4.563.07 3.062 1.425 6.446 1.895 9.423 3.595a540.212 540.212 0 0 1-8.158-4.747c-.441-.261-.906-.54-1.187-.98-.281-.439-.318-1.074.052-1.434.45-.437 1.193-.244 1.776-.014 4.579 1.813 8.478 4.868 13.112 6.594.206-.708-.16-1.457-.55-2.085-.39-.628-.836-1.3-.791-2.045.012-.065.035-.145.049-.227Z" fill="#994396" fill-opacity=".9"/><path d="m34.9 48.947-20.544 3.66a3.207 3.207 0 0 1-3.719-2.59l-2.3-12.96a3.208 3.208 0 0 1 2.59-3.718l20.545-3.668a3.207 3.207 0 0 1 3.719 2.59l2.307 12.959a3.224 3.224 0 0 1-2.598 3.727Z" fill="#FDB913"/><path d="M23.254 42.317c-2.41.38-14.916-5.267-14.916-5.267a3.208 3.208 0 0 1 2.59-3.72l20.545-3.667a3.207 3.207 0 0 1 3.719 2.59c-.009.007-9.529 9.685-11.938 10.064Z" fill="#FDE500"/><path d="M31.105 44.445c.177-.645.912-1.168 1.471-.824.205.13.338.336.471.543 2.755 4.354 5.51 8.716 8.265 13.07 1.699 2.685-7.002-4.245-8.747-7.558.206-.708-.328-2.324-.719-2.952-.39-.627-.836-1.3-.79-2.044.012-.074.026-.155.049-.235Z" fill="#994396" fill-opacity=".9"/><path d="M91.828 126.279c29.765 2.116 55.61-20.305 57.726-50.077 2.116-29.772-20.298-55.623-50.063-57.738-29.765-2.115-55.61 20.305-57.726 50.077-2.116 29.773 20.298 55.623 50.063 57.738Z" fill="#8ACC9E"/><path d="m97.87 31.892-1.237 20.177c-.04.68-.081 1.383.179 2.001.631 1.516 4.308 1.342 5.662 1.364 2.502.047 5.449-.139 6.838-2.34.694-1.102.816-2.474.926-3.789l1.315-16.416c-4.544-.455-9.119-.82-13.683-.997Z" fill="#994396" fill-opacity=".9"/><path d="M114.625 49.888a29.688 29.688 0 0 0-2.857-.836c-.048.67-.185 1.327-.529 1.894-.344.559-.868.998-1.412 1.37-3.171 2.191-7.445 2.676-11.016 1.255-.879-.35-1.733-.821-2.347-1.539-.766-.9-1.047-2.153-.825-3.313-.722.113-1.452.201-2.168.347-.868.884-1.535 1.938-1.646 3.154-.144 1.56.676 3.089 1.851 4.126 1.176 1.028 2.67 1.628 4.175 2.063a24.868 24.868 0 0 0 8.199.928c1.807-.102 3.636-.407 5.262-1.212 1.627-.805 3.037-2.15 3.635-3.859.504-1.427.33-3.025-.322-4.378Z" fill="#fff"/><path d="M107.154 42.89c-3.704 1.248-8.256.218-10.554-2.945-1.676-2.305-1.988-5.31-2.008-8.155-.05-6.915.176-17.278 7.311-20.79 3.056-1.508 6.666-1.662 9.989-.908 8.278 1.895 7.498 10.452 5.438 16.773-2.08 6.377-2.743 13.512-10.176 16.024Z" fill="#994396" fill-opacity=".9"/><path d="M118.437 25.053c1.073-.31 2.323-.09 3.139.675 1.087 1.014 1.198 2.806.504 4.129-.693 1.315-2.045 2.188-3.473 2.62-1.016.315-2.229.393-3.052-.29-.714-.593-.928-1.62-.773-2.537.315-1.884 1.743-4.05 3.655-4.597Z" fill="#994396" fill-opacity=".9"/><path d="M102.304 33.324c.028.537.004 1.094-.163 1.6-.168.514-.488.976-.924 1.216-.786.42-1.773-.028-2.233-.833-.321-.573-.741-2.288.063-2.51.293-.078 1.153.427 1.493.492a5.523 5.523 0 0 0 1.764.035Z" fill="#000"/><path d="M116.859 24.933c-.373-.758-1.461-.367-1.782.227-.152.285-.168.62-.199.947-.245 2.522-1.807 4.852-3.97 6.152-2.343 1.412-6.575 1.538-8.771-.278-.442-.368-.869-.842-1.442-.875-.442-.023-.847.244-1.275.37-.898.265-1.882-.11-2.585-.735-1.476-1.304-2.253-3.439-2.065-5.39-.088-.03.01.215-.045.285a.673.673 0 0 0-.108.247c-.208.733-.105 1.135-.782 1.523-.462.262-1.125.224-1.394.771-.299.62.385 1.293.37 1.974-.018.82-.936 1.249-1.48 1.867-.867.974-.644 2.7.438 3.425-.979.473-1.272 1.948-.558 2.755.274.315.697.6.668 1.017-.023.434-.683.584-.861 1.015-.13.32-.139.68-.098 1.029a3.702 3.702 0 0 0 1.708 2.677 3.696 3.696 0 0 0 3.165.315c-.666.24.466 1.077.64 1.163.772.36 1.62.214 2.432.354.616.11 1.196.397 1.799.572.604.174 1.29.231 1.831-.1.508-.318.84-.951 1.43-1.049.625-.112 1.161.436 1.766.594.927.247 1.957-.609 1.901-1.558.339.665 1.216.925 1.922.712.713-.212 1.257-.815 1.576-1.482.318-.668.445-1.415.571-2.146-.074.702.817 1.217 1.476.968.658-.249 1.008-1.005.992-1.713-.007-.699-.305-1.369-.588-2.006.586.313 1.336-.192 1.529-.82.127-.401.09-.807.053-1.212-.031-.372-.07-.745-.003-1.11.188-1.03.433-2.056.63-3.094.382-2.019.723-4.041 1.138-6.058.088-.437.172-.924-.029-1.333Zm-13.854 12.986c-1.929.668-4.188.31-5.81-.923-.428-.326-2.098-2.138-.917-2.572.22-.082.462-.024.688.033.226.057.468.115.686.049.227-.075.402-.333.301-.538.897.327 2.012-.095 2.466-.934.02.52.322 1.017.771 1.28a1.6 1.6 0 0 0 1.492.048c.125.551.619.997 1.182 1.062 2.274.252.32 2.077-.859 2.495Z" fill="#E7E7E7"/><path d="M116.021 16.491a2.022 2.022 0 0 0-1.222.316c-.836.557-1.215 1.615-1.196 2.619.025 1.957.571 3.862.617 5.878.02.881.167 1.927.961 2.32.627.308 1.41.035 1.898-.465.487-.5.749-1.171.992-1.82.951.833 2.515.558 3.431-.306 2.101-1.823 1.715-4.587.605-6.663-.341-.049-.691-.106-1.032-.155.358-.994-.302-2.224-1.328-2.478-1.025-.254-2.181.527-2.321 1.57-.276-.513-.832-.783-1.405-.816ZM96.315 21.64c-.298.037-.604.056-.894-.022-.29-.078-.563-.278-.65-.572-.154-.488.25-.968.658-1.268a5.273 5.273 0 0 1 3.57-.996c1.086.094 1.911 1.09.784 1.806-.973.622-2.333.92-3.468 1.052ZM111.471 23.293c.29.078.589.14.888.104.298-.037.597-.196.724-.475.221-.46-.11-.994-.471-1.348a5.276 5.276 0 0 0-3.394-1.49c-1.089-.061-2.046.808-1.032 1.677.884.745 2.189 1.232 3.285 1.532Z" fill="#E7E7E7"/><path d="M35.49 61.34c-.012-.05-.026-.092-.038-.143-.472-1.693-1.524-2.96.062-4.466 1.172-1.108 3.07-1.228 4.423-.392 1.41.865 2.496 2.339 3.544 3.778 3.204 4.402 6.752 8.344 9.438 13.087a79.127 79.127 0 0 1 6.616 15.238c1.165 3.715 2.063 7.608 1.6 11.47-.552 4.637-5.42 13.249-10.617 7.776-1.116-1.172-1.85-2.646-2.543-4.109-4.19-8.91-7.024-18.38-9.328-27.93-1.142-4.732-1.871-9.616-3.156-14.309Z" fill="#994396" fill-opacity=".9"/><path d="M134.2 61.264c-1.609-1.988-3.577-4.002-5.86-4.945a32.266 32.266 0 0 0-1.371-.706c-3.716-1.817-7.493-3.934-11.438-5.406a38.132 38.132 0 0 0-.906-.32c.66 1.354.825 2.952.33 4.371-.598 1.708-2.016 3.054-3.634 3.86-1.627.804-3.456 1.11-5.262 1.211a24.878 24.878 0 0 1-8.2-.928c-1.505-.435-3-1.026-4.174-2.063-1.176-1.029-1.995-2.566-1.851-4.126.11-1.216.777-2.27 1.645-3.153-.083.018-.166.02-.25.04-4.97 1.051-9.747 2.947-14.082 5.787a4.224 4.224 0 0 0-.866.752 13.9 13.9 0 0 0-1.212 1.089 298.538 298.538 0 0 0-10.002 10.695c-2.964 3.323-5.568 6.894-8.262 10.359-.733.942-1.466 1.893-2.183 2.852a79.381 79.381 0 0 0-3.703-7.429c-1.278-2.252-2.77-4.363-4.333-6.422-1.053-1.381-2.294-2.636-3.19-4.13-.456-.764-.705-1.307-.657-2.093.033-.573.611-.852.334-1.578-.242-.642-.968-1.064-1.649-.956.16-.638.24-1.306.246-1.963.005-.295-.014-.6-.152-.857-.363-.683-1.356-.688-2.081-.427-.826.294-1.561.809-2.28 1.317a162158 162158 0 0 0-5.162 3.627l-1.954 1.373c-.467.328-.986.81-.836 1.354.112.386.54.605.939.658.398.062.813.009 1.208.11-.444.47-.586 1.2-.341 1.801.925.156 1.82-.06 2.657-.403.973 3.652 1.899 7.391 2.978 11.043 2.304 9.548 5.138 19.028 9.328 27.93.685 1.462 1.427 2.928 2.543 4.108 2.66 2.811 5.237 1.909 7.19-.253 1.13-.873 2.15-1.918 2.978-2.714a138.442 138.442 0 0 0 9.35-9.953c-1.167 6.599-2.314 16.839-2.559 23.527 7.351 5.921 20.93 8.029 26.406 8.089 2.597.094 5.548-.033 7.835-.306 3.743-.416 14.916-1.799 27.046-10.988.562-8.367.786-12.328 1.299-20.698a266.584 266.584 0 0 1 3.493 6.107c1.929 3.49 1.268 3.197 3.688 6.368 5.627-5.657 10.048-16.757 11.394-23.91-5.217-10.174-7.321-12.929-14.437-21.701Z" fill="#F2663B" fill-opacity=".9"/><path d="M107.894 26.227c-.054.752-.432 1.333-.849 1.304-.416-.03-.709-.659-.655-1.411.053-.752.431-1.334.848-1.304.417.03.709.659.656 1.41ZM96.952 26.09c.415.03.795-.554.848-1.303.053-.75-.24-1.382-.655-1.411-.416-.03-.796.554-.849 1.304-.053.75.24 1.38.656 1.41Z" fill="#000"/><path d="M97.43 28.5a3.655 3.655 0 1 0 .518-7.293 3.655 3.655 0 0 0-.518 7.292Z" stroke="#FFCE34" stroke-width=".5" stroke-miterlimit="10" stroke-linecap="round" stroke-linejoin="round"/><path d="M99.41 30.801c.178.16.381.307.595.42 1.285.65 1.99-.137 2.526-1.209.411-.817 2.25-5.65.233-5.588-.297.012-.555.175-.783.372-.473.418-.816.97-.975 1.583-.156.58-.225 1.323-.791 1.538-.43.166-.938-.1-1.376.05-.412.143-.62.638-.56 1.07.051.43.312.81.583 1.158.166.21.348.42.548.606Z" fill="#ED6636"/><path d="M107.602 29.871a3.655 3.655 0 1 0 .518-7.291 3.655 3.655 0 0 0-.518 7.291Z" stroke="#FFCE34" stroke-width=".5" stroke-miterlimit="10" stroke-linecap="round" stroke-linejoin="round"/><path d="M101.32 24.289a1.903 1.903 0 0 1 1.754-.862 1.915 1.915 0 0 1 1.558 1.188" stroke="#FFCE34" stroke-width=".5" stroke-miterlimit="10" stroke-linecap="round" stroke-linejoin="round"/><path d="M96.465 52.024c.614.717 1.468 1.189 2.347 1.539 3.579 1.421 7.853.936 11.016-1.255.544-.372 1.068-.803 1.412-1.37.344-.568.481-1.224.529-1.894a23.64 23.64 0 0 0-2.138-.44c-4.675-.685-9.396-.618-13.99.099-.231 1.167.05 2.427.824 3.32Z" fill="#994396" fill-opacity=".9"/><path d="M97.624 104.479c5.793.411 10.948-5.727 11.516-13.711.567-7.984-3.668-14.79-9.46-15.202-5.793-.411-10.949 5.727-11.516 13.711-.567 7.984 3.668 14.79 9.46 15.202Z" fill="#00BCCC"/><path d="M98.004 99.131c3.648.26 6.895-3.608 7.253-8.639.357-5.03-2.31-9.319-5.958-9.578-3.648-.26-6.895 3.609-7.252 8.64-.358 5.03 2.31 9.318 5.957 9.577Z" stroke="#008793" stroke-width=".33" stroke-miterlimit="10" stroke-linecap="round" stroke-linejoin="round"/><path d="M91.895 79.426c.487.782 1.357 2.184 2.427 3.895M102.794 96.94c1.15 1.849 2.05 3.294 2.463 3.956M90.402 99.626c.584-.698 1.688-2.008 3.052-3.637M103.766 83.713l2.891-3.443" stroke="#008793" stroke-width=".33" stroke-miterlimit="10" stroke-linecap="round" stroke-linejoin="round"/></g><defs><clipPath id="a"><path fill="#fff" transform="rotate(4.065 -5.871 128.385)" d="M0 0h147.151v120.334H0z"/></clipPath></defs></svg>