<svg width="301" height="187" fill="none" xmlns="http://www.w3.org/2000/svg">
<path d="M284.345 154.723l-59.199-74.515-37.017-9.46 21.07 60.377 75.146 23.598zM83.184 132.982l28.734-62.234 39.085 9.46v74.8l-67.82-22.026z" fill="#fff"/>
<path d="M151 80.208v74.8l58.198-23.883-21.07-60.377L151 80.208zM83.182 132.982l28.735-62.234-35.776 9.745-59.485 74.23 66.526-21.741z" fill="#fff"/>
<path d="M22.406 150.143l54.746-68.22 34.065-9.654 39.787 9.655 37.128-9.655 35.723 9.37 54.603 69.08-70.264-21.741-57.19 23.313-66.954-21.307-61.644 19.159z" fill="#44C4E1"/>
<path d="M96.777 128.615a.602.602 0 01-.247.181c-.825.408-2.71-.362-3.452-.764-1.144-.608-2.158-.99-2.347-2.387a5.069 5.069 0 01.033-1.294c.097-.66.293-.699.754-1.171.43-.447.377-1.003.735-1.45.214-.272.643-.453.91-.705.533-.492 1.008-1.081 1.456-1.65.826-1.035 1.437-2.355 2.392-3.281.95-.919 1.528-1.766 2.263-2.853.377-.55 1.43-1.398 1.118-2.077-.293-.634-.735-.253-1.222-.505-.163-.084-.312-.434-.468-.557-.273-.207-.5-.097-.702-.375-.234-.323-.124-.828-.143-1.21-.013-.272.006-.433-.065-.712-.11-.44-.442-.575-.599-.88-.26-.498-.194-.724.306-1.19.468-.44 2.75-.421 2.106-1.475-.208-.35-.734-.33-1.033-.531-.325-.214-.657-.615-.904-.919-.5-.628-.514-1.093-1.385-1.068-.93.026-1.553.408-2.522.065-.943-.336-1.612-1.145-2.009-2.019-.175-.381-.266-.634-.5-1.003-.28-.446-.475-.808-.456-1.339.026-.692.364-.783-.253-1.074-.345-.162-.332.065-.722-.252-.266-.22-.591-.764-.676-1.1-.208-.842.247-1.269.657-1.845.24-.336.513-.161.13-.64-.182-.227-.377-.259-.644-.304-.273-.046-.546.116-.793.058-.546-.142-.722-.68-1.066-1.048-.89-.964-2.542-.64-3.654-.233-1.313.479-1.866 1.786-3.25 2.11-1.034.239-1.554.407-2.484.944-.461.265-.981.543-1.332.078-.495-.654.41-.874.578-1.463.15-.518-.071-.99 0-1.508.13-.918.904-1.352 1.671-1.734.917-.453 1.658-.686 2.633-.892 1.378-.292 2.49-.796 3.92-.738.553.026 1.138.162 1.69.077.63-.097 1.184-.446 1.82-.608.384-.097.976-.317 1.36-.323.415-.013.786.284 1.202.22.54-.084 1.255-.835 1.794-.143.624-.051.969-.265 1.613-.375.78-.13 1.605-.336 2.34-.621 1.398-.544 3.056-.362 4.59-.362.617 0 1.215-.117 1.827-.072.942.065 1.846.363 2.789.434 1.014.078 2.171.052 3.159.31.988.26 1.71.738 2.607 1.113.663.279 1.515.201 2.223.22.572.013 1.236.207 1.626.66.344.402.331.816-.299.874-.579.058-1.171.052-1.762.11-1.06.09-1.827-.065-2.835-.324-.663-.174-1.807-.168-1.924.7-.098.756.878.743 1.469.698.845-.065 1.619.007 2.477.045 1.287.059 2.347.42 3.524.64.565.105 1.469.467 1.365 1.21-.065.44-.65.37-.962.383-.494.026-.956.123-1.456.148-1.905.117-3.531.078-5.123 1.217-.657.466-1.294 1.061-2.016 1.436-.669.343-1.443.576-2.138.88-.618.272-1.229.389-1.541 1.042-.176.37-.117.75-.358 1.1-.942 1.391-1.541-.42-2.412-.705-1.293-.427-3.185.233-4.349.744-.39.168-1.97 1.074-1.508 1.799.663 1.048 3.79-2.006 4.167-.188.143.686-.969.757-1.001 1.294-.04.622 1.073.382 1.495.402.02.705-.878 2.238.722 1.844.487-.123.741-.628 1.163-.842.579-.284 1.353-.155 1.983-.155 1.437.007 2.854.363 4.252.57 1.222.181 2.639 1.009 3.764 1.527.767.349 1.359 1.087 2.113 1.423.546.24 1.086.104 1.658.007 1.027-.175 2.444-.13 3.38.394.319.182.475.44.884.589.397.143.833.168 1.223.337.559.233.871.543 1.313.983.578.583.611.453.266 1.055-.312.537-.559.738-1.163.899-.611.162-.657.059-.988.589-.306.479-.475 1.145-.722 1.676-.598 1.314-1.651 2.226-3.192 2.096-1.066-.09-2.341-.245-3.381-.058-.754.136-.507.44-.799.932-.403.679-1.554 1.443-2.269 1.721-.741.285-1.808.007-2.438.388-.176.104-.299.453-.442.622-.345.401-.39.53-.962.491-.286-.019-.884-.478-1.145-.362-.422.188.039.88-.195 1.275-.481.815-2.476.821-3.276.802-.598-.013-1.963-.421-2.314.032-.28.363-.052.79-.501 1.165-.845.705-1.957.893-1.794 2.038.136.977-.195 1.068-1.3 1.275-.475.091-1.483-.013-1.847.414-.643.764.332 1.54.89 1.98.352.24 1.217.686.93 1.068zM115.98 85.004c-.598-.046-1.652.064-2.198.323-.468.22-.468.66.052.97 1.197.713 3.212-.71 4.402.318.364.31.221.828.344 1.236.195.64.605 1.242 1.183 1.605 1.086.679 2.185.905 3.264.161 1.027-.699 1.944-1.656 3.25-1.359 1.008.227 1.983.356 3.017.48.741.09 1.476.213 2.197.388.683.161 1.177.498 1.931.433.995-.084.735-.886.592-1.553-.247-1.158.975-.75 1.625-1.275 1.924-1.559-3.907-2.788-4.733-2.853-1.001-.071-1.905-.595-2.899-.654-.754-.045-1.509.059-2.269.059-.832 0-1.677-.078-2.484.161-1.124.33-2.002 1.366-3.25 1.061-1.118-.271-1.755-.355-2.867-.038-.364.11-.774.323-1.157.537zM145.133 114.587c-.299-.576-.507-.964-.54-1.644-.026-.433.065-.77-.267-1.113-.383-.401-1.124-.42-1.241-1.029-.143-.731.871-1.125.591-1.986-.143-.434-.52-.692-.929-.44-.137.084-.078.356-.254.459-.422.24-.786-.213-1.014-.498-.319-.401-1.131-1.986-1.885-1.507-.208.129-.273.692-.429.912-.312.446-.696.621-1.236.53-.819-.135-1.41-.899-2.093-.252-.325.304-.331.615-.858.692-.637.091-1.313-.491-1.71-.944-.357-.414-.559-.9-.695-1.391-.072-.272.032-.376-.208-.615-.313-.304-.813-.194-1.19-.401-.462-.253-.683-.563-.709-1.081-.039-.848.787-.647 1.027-1.3.267-.738-.617-1.359-.273-2.136.423-.957 1.281-1.566 2.23-1.876.865-.285 1.339-.401 1.716-1.204.644-1.372 2.055-1.255 3.388-1.1 1.092.13 1.885-.75 2.906-1.029.845-.233 1.352-.213 2.171.052.604.194 1.216.142 1.534.809.228.472.072.893.514 1.307.429.395.851.382 1.384.408.475.026.579.284.976.375.851.194.708-.77 1.209-1.048.572-.317 1.502.187 2.028.401.689.278 1.209.194 1.918.123.67-.065 2.431.123 2.061-.984-.416-1.229-1.814-.207-2.633-.161-1.281.07-.917-1.016-1.593-1.722-.936-.97-.741.686-1.105 1.126-.767.926-1.599-.297-2.002-.912-.547-.848-.599-.123-1.073.401-.793.887-1.086-.065-1.632-.589-.611-.582-1.248-.29-1.976-.42-.683-.123-1.313-.764-2.055-.55-.643.18-1.118.847-1.82.957-.546.085-1.053.136-1.586.253-.436.097-.943.097-1.398.064-1.255-.077-1.56-1.889-.136-2.038.552-.058 1.937.628 2.373.071.325-.414-.254-.718-.553-.886-.26-.149-.631-.544-.865-.583-.227-.032-.494.266-.741.272-.383.013-.78-.24-.923-.563-.189-.42-.039-.575.273-.724.455-.22.982-.04 1.281-.511.344-.538.156-.99 1.014-1.159.624-.123 1.703.181 2.126.654.299.33.305.822.617 1.132.241.24.566.395.917.31.338-.077.462-.446.774-.53.305-.084 1.163.285.864-.46-.201-.517-1.111-.595-.812-1.32.182-.452 1.137-1.022 1.566-1.125 1.08-.265 2.627-.984 3.901-1.022 1.846-.052 3.66-.318 5.507-.324.838 0 2.041 0 2.658.602.443.427.605 1.287 1.431 1.06.253-.07.37-.297.63-.374.26-.078.715-.04.988-.052.716-.032 1.964.408 2.237-.453.078-.246-.137-.725.006-.945.156-.24 1.021-.485 1.288-.589.585-.233 1.157-.213 1.781-.213.643 0 1.346-.142 1.983-.046.728.11.728.454 1.222.829.487.369.858-.026 1.417.084.475.09 1.716 1.766 2.223.906.547-.925 2.185-1.605 3.264-1.721 1.359-.143 2.633.647 4.024.42 1.547-.252 2.601-1.1 4.219-.576 1.223.395 2.646.997 3.927 1.074.735.046 4.109-.64 4.291-.161.617.013.793.064 1.43.006 1.073-.097 1.963-.589 3.075-.595 1.411-.007 2.815-.181 4.232-.065 1.06.084 1.899.692 2.893.977.852.24 1.658.544 2.438.97.923.506 1.788 1.295 2.75 1.69 1.183.491 2.483.537 3.699.931 1.066.35 2.12.635 3.244.77.566.072 1.099.117 1.671.046.683-.09 1.027-.195 1.567.278.715.627 1.462 1.307 1.846 2.187.982 2.278-3.888.932-4.934.764-.553-.091-1.834-.531-1.658.252.058.246.332.078.267.414-.091.446-.969.427-1.281.563-.592.265-1.313 1.423-2.055.847-.227-.18-.169-.653-.273-.912-.123-.304-.279-.466-.494-.705-.221-.252-.565-.511-.533-.88.052-.582.702-.589.969-.912.422-.518-.052-.732-.605-.673-.383.038-.708.226-1.092.278-.468.065-.975-.026-1.437-.11-.897-.168-1.631-.557-2.425-.97-.442-.234-1.254-.512-1.56.096-.305.596.351.66.774.822.877.337 1.385.692 1.554 1.598-.631.04-2.042.447-2.367.893-.208.278 0 .518-.52.718-.695.266-1.053-.407-1.69-.368-1.547.09.669 1.695.435 2.33-.143.387-.897.465-1.261.33-.728-.273-.955-1.314-1.658-1.703-.975-.53-1.157.693-.604 1.288.383.414.955.621 1.112 1.23.143.55-.241.99-.592 1.371-.41.453-.761.964-1.17 1.417-.579.641-1.17.259-1.879-.058-.618-.278-2.431-.919-2.425.323.007 1.107 2.152 1.036 2.548 2.207.618 1.818-1.137 2.549-2.594 1.805-.533-.278-.962-.666-1.404-1.042-.175-.148-.5-.556-.812-.271-.384.356.442 1.572-.689 1.1-.722-.304-1.359-2.233-2.263-2.006-.448.11-.227.595-.695.673-.475.084-.475-.46-.683-.777-.585-.899-1.833-1.533-2.88-1.559-1.326-.039-2.945.175-3.127 1.74-.104.887.54 1.152.917 1.89.13.259.637 1.313.383 1.624-.526.641-2.1-1.191-2.425-1.508-.871-.847-1.84-1.585-2.945-2.057-.968-.414-1.41-1.249-2.106-1.974-.52-.543-1.385-.517-2.061-.815a7.146 7.146 0 00-2.015-.57c-.449-.064-.787-.291-1.255-.271-1.333.058.202 1.009-.059 1.566-.123.265-.955.666-1.196.815-.5.31-1.007.569-1.547.796-1.073.453-1.924.828-3.12.815-.781-.006-1.444-.239-2.12-.621-.845-.472-1.066-1.204-1.619-1.948-.572-.77-1.28-.919-1.995-1.469-.215-.161-.852-1.177-1.19-.97-.982.595 1.014 2.873 1.411 3.365.5.614.884.97 1.56 1.378.865.511 1.391 1.604 2.379 1.909.52.161.936.174 1.443.038.449-.116.891-.33 1.372-.168 1.079.356.988 1.346.41 2.097-.475.614-.878 1.048-1.066 1.818-.182.757-.455.848-1.249.932-.845.09-1.202.854-1.69 1.54-.487.679-.546 1.248-.299 1.98.345 1.009 1.131 1.682 1.066 2.847-.084 1.63-1.488 1.371-2.301 2.4-.306.382-.871 1.197-.774 1.728.104.55.897.66.871 1.294-.019.408-.344.731-.708.958-.39.246-1.19.116-1.437.543-.332.563.572.744.423 1.288-.085.304-.703.498-.917.77-.657.822-.52 1.805-1.716 2.058-.39.084-.774.058-1.171.064-.617 0-1.176-.272-1.774-.278-.689-.006-.839.608-1.424.925-1.157.628-2.516-.44-2.633-1.585-.098-.945.111-1.527-.676-2.291-.488-.472-.832-.88-.962-1.572-.124-.692.032-.446.396-.932.65-.886-1.17-1.915-1.625-2.575-.618-.893-1.268-2.375-.54-3.371.273-.375.755-.091 1.093-.304.487-.324.247-1.023.026-1.443z" fill="#C4D436"/>
<path d="M165.972 119.92c-.058.873-.305 1.779-.416 2.258-.136.589.039 1.242-.442 1.689-.592.55-1.45.628-2.106.22-1.203-.751-1.34-1.799-.962-3.074.429-1.449.767-3.656 2.828-3.306.981.175 1.17 1.171 1.098 2.213zM208.504 116.224c-.15.059-.208.214-.098.589.143.466.611.964-.078 1.23-.721.271-2.971-.343-3.426.317-.91 1.3 2.152 2.154 2.737 2.575 1.326.958 1.073 3.125 2.718 3.753a5.589 5.589 0 001.976.375c.826.007 1.073-.064 1.729-.498.975-.641 1.495.984 2.458.058.604-.589.689-.925 1.573-1.035.852-.11 1.612-.324 2.477-.188.507.084 1.02.233 1.495.434.65.272.943.666 1.476 1.08.429.343.76.311 1.274.246 1.248-.161 1.944.149 2.964.88.534.382 1.281 1.023 1.912 1.172.214.051.468-.039.689.012.409.091.702.382 1.131.46.39.071 1.235.123 1.619.013.461-.13.715-.602 1.203-.699.175-.039.357.097.526.058 1.034-.265 1.014-1.469 1.183-2.329.078-.388.416-.473.488-.783.071-.324-.501-.673-.696-.77-.656-.337-1.189-.492-1.755-1.029-1.105-1.035-2.373-1.734-3.732-2.394-.754-.362-1.423-.874-2.177-1.217-.95-.44-1.905-.362-2.919-.323-1.021.039-1.535-1.119-2.094-1.883-.37-.511-2.126-2.336-2.886-1.54-.507.531.611 1.249.65 1.786.071 1.003-1.573.304-2.081.11-.851-.324-1.235-1.081-1.995-1.475-.826-.427-1.814-.311-2.711-.466-.767-.13-1.288-.376-1.593.472-.397 1.094-.527.621-1.463.317-.884-.285-.754.317-1.326.621-.377.201-.969-.032-1.248.071zM246.846 126.816c-.195-.032-.403-.006-.689-.025-.644-.039-1.19-.408-1.632-.848-.306-.304-1.983-1.637-2.087-.498-.065.711 1.573 1.313 1.898 1.915.15.278.254.699.163 1.029-.13.472-.559 1.055-.897 1.404-.442.453-1.482.595-1.209 1.443.266.835 1.93 1.443 2.763 1.268 1.02-.22 2.197-.964 1.885-2.135-.13-.498-.676-.764-.605-1.333.104-.783.442.097.91.058 1.06-.09.54-1.449.091-1.922-.214-.239-.396-.323-.591-.356z" fill="#C4D436"/>
<path d="M213.41 110.35a2.27 2.27 0 01-.358-.007c-.78-.09-1.469-.692-2.281-.498-1.853.44 1.638 2.297 2.301 2.388 1.196.161 2.347.478 3.452.977.657.297 1.274.789 1.937 1.035.741.265.839-.104 1.307-.544.332-.31.709-.342 1.17-.213.592.162 1.034.666 1.6.912.734.317 1.417.557 2.216.518.169-.751-1.183-1.534-1.722-1.87-1.444-.893-3.153-1.32-4.694-1.999-.527-.233-1.04-.305-1.586-.453-.495-.136-.904-.427-1.411-.492-.683-.091-1.294.2-1.931.246zM192.337 107.527c1.099-.013 1.918 1.43 2.536 2.136.578.66 1.352 1.456 2.1 1.902.357.214.819.162 1.215.239.54.098 1.054.305 1.58.434.631.149 1.463-.006 2.035.226.221.091.442.24.455.486.033.472-.806.44-1.196.479-1.398.155-2.353-.195-3.667-.615-2.217-.712-4.446-1.786-6.085-3.462-.942-.964-.435-2.038 1.027-1.825zM198.978 107.936c-.286.259-.605.46-1.034.499-.383.038-.936-.072-.981.427-.039.407.617.834.897 1.016.786.517 1.606 1.087 2.503 1.41.494.175 1.794.505 2.093-.071.13-.246-.032-.777.007-1.061.058-.511.325-1.023.221-1.566-.13-.692-.761-1.301-1.333-1.663-.475-.298-.956-.459-1.365-.071-.358.33-.651.757-1.008 1.08zM205.415 107.075a1.041 1.041 0 01-.071.272c-.527 1.346-2.367-.569-2.893-.97-.93-.719-1.872-1.482-2.575-2.433-.409-.557-.708-2.013.345-1.67 1.164.376 1.697 1.709 2.737 2.246.787.401 2.594 1.41 2.457 2.555z" fill="#C4D436"/>
<path opacity=".14" d="M83.184 132.982l28.734-62.234 39.085 9.46v74.8l-67.82-22.026zM284.345 154.723l-59.199-74.515-37.017-9.46 21.07 60.377 75.146 23.598z" fill="#45459B"/>
<path d="M103.544 63.224l8.328-4.789a.39.39 0 01.377 0l8.328 4.788a.374.374 0 01.188.324v9.57a.366.366 0 01-.188.323l-8.328 4.789a.397.397 0 01-.189.052.39.39 0 01-.188-.052l-8.328-4.788a.375.375 0 01-.189-.324v-9.564c0-.135.072-.258.189-.33z" fill="#F1653A"/>
<path d="M106.411 64.951l5.526-3.177a.252.252 0 01.253 0l5.526 3.177c.078.046.123.13.123.214v6.347c0 .091-.045.175-.123.214l-5.526 3.177a.29.29 0 01-.123.032.295.295 0 01-.124-.032l-5.526-3.177a.249.249 0 01-.123-.213v-6.348a.217.217 0 01.117-.214zM112.066 78.241v-3.235M112.066 61.748V58.44M103.406 73.221s1.151-.653 2.867-1.618M117.828 65.094c1.729-.978 2.893-1.631 2.893-1.631M103.383 63.508l2.886 1.604M117.848 71.559c1.729.964 2.899 1.61 2.899 1.61" stroke="#BC4F2C" stroke-width=".606" stroke-miterlimit="10" stroke-linecap="round" stroke-linejoin="round"/>
<path d="M112.067 82.467c7.838 0 14.192-6.324 14.192-14.125s-6.354-14.125-14.192-14.125-14.192 6.324-14.192 14.125 6.354 14.125 14.192 14.125z" stroke="#F2663B" stroke-width=".728" stroke-miterlimit="10"/>
<path d="M112.066 82.467v28.891" stroke="#F2663B" stroke-width="1.036" stroke-miterlimit="10"/>
<path d="M211.668 63.852c7.838 0 14.192-6.324 14.192-14.125s-6.354-14.125-14.192-14.125-14.191 6.324-14.191 14.125 6.353 14.125 14.191 14.125z" stroke="#00BDCD" stroke-width=".728" stroke-miterlimit="10"/>
<path d="M211.668 63.852v28.89" stroke="#00BDCD" stroke-width="1.036" stroke-miterlimit="10"/>
<path d="M93.52 64.266c7.838 0 14.192-6.324 14.192-14.125s-6.354-14.125-14.192-14.125S79.328 42.34 79.328 50.14s6.354 14.125 14.192 14.125z" stroke="#FFD200" stroke-width=".728" stroke-miterlimit="10"/>
<path d="M93.52 64.266v28.89" stroke="#FFD200" stroke-width="1.036" stroke-miterlimit="10"/>
<path d="M93.52 58.443c4.607 0 8.341-3.716 8.341-8.301s-3.734-8.302-8.34-8.302c-4.607 0-8.341 3.717-8.341 8.302 0 4.584 3.734 8.301 8.34 8.301z" fill="#FFCE34"/>
<path d="M93.52 55.57c3.013 0 5.455-2.43 5.455-5.428 0-2.998-2.442-5.43-5.454-5.43-3.013 0-5.455 2.431-5.455 5.43 0 2.998 2.442 5.428 5.455 5.428zM87.625 44.272l1.976 1.967M97.383 53.978l2.041 2.032M87.625 56.01l2.015-2.006M97.441 46.24l1.983-1.974" stroke="#C4A227" stroke-width=".651" stroke-miterlimit="10" stroke-linecap="round" stroke-linejoin="round"/>
<path d="M183.375 77.169c7.838 0 14.192-6.325 14.192-14.126 0-7.8-6.354-14.125-14.192-14.125-7.837 0-14.191 6.324-14.191 14.125s6.354 14.126 14.191 14.126z" stroke="#F99D33" stroke-width=".728" stroke-miterlimit="10"/>
<path d="M183.375 77.168v18.467" stroke="#F99D33" stroke-width="1.036" stroke-miterlimit="10"/>
<path d="M191.548 63.146l-7.841-10.236a.503.503 0 00-.806 0l-7.697 10.236a.502.502 0 000 .608l7.697 10.237a.503.503 0 00.806 0l7.841-10.237a.485.485 0 000-.608z" fill="#F89C33"/>
<path d="M187.478 63.295l-3.939-5.137a.246.246 0 00-.202-.098.248.248 0 00-.201.104l-3.868 5.138a.258.258 0 000 .304l3.868 5.137a.248.248 0 00.201.104.265.265 0 00.202-.097l3.939-5.138a.26.26 0 000-.317zM183.336 58.054v-5.345M183.336 74.093v-5.35M175.199 63.45h4.083M187.641 63.45h3.913" stroke="#C47D27" stroke-width=".651" stroke-miterlimit="10" stroke-linecap="round" stroke-linejoin="round"/>
<path d="M145.266 63.696c7.838 0 14.192-6.324 14.192-14.125 0-7.802-6.354-14.126-14.192-14.126s-14.192 6.324-14.192 14.126c0 7.8 6.354 14.125 14.192 14.125z" stroke="#00BDCD" stroke-width=".728" stroke-miterlimit="10"/>
<path d="M145.266 63.695v28.892" stroke="#00BDCD" stroke-width="1.036" stroke-miterlimit="10"/>
<path d="M152.411 49.834c.057-5.414-3.095-9.836-7.041-9.877-3.945-.041-7.19 4.314-7.247 9.727-.057 5.414 3.095 9.836 7.04 9.877 3.946.041 7.191-4.314 7.248-9.727z" fill="#00BCCC"/>
<path d="M149.77 49.806c.036-3.412-1.952-6.2-4.44-6.226-2.487-.026-4.533 2.72-4.569 6.132-.037 3.412 1.951 6.2 4.439 6.226 2.488.026 4.534-2.72 4.57-6.132zM140.254 42.873c.364.511 1.008 1.417 1.807 2.53M148.359 54.254l1.834 2.569M140.066 56.572c.371-.498 1.06-1.424 1.925-2.582M148.477 45.28c.832-1.12 1.495-2.006 1.82-2.446" stroke="#008793" stroke-width=".594" stroke-miterlimit="10" stroke-linecap="round" stroke-linejoin="round"/>
<path d="M227.875 103.167c7.838 0 14.192-6.325 14.192-14.126 0-7.8-6.354-14.125-14.192-14.125s-14.191 6.324-14.191 14.125c0 7.802 6.353 14.126 14.191 14.126z" stroke="#F2663B" stroke-width=".728" stroke-miterlimit="10"/>
<path d="M227.875 103.166v19.806" stroke="#F2663B" stroke-width="1.036" stroke-miterlimit="10"/>
<path d="M218.813 49.656c.057-5.413-3.095-9.835-7.04-9.877-3.946-.04-7.191 4.314-7.248 9.728-.057 5.413 3.095 9.835 7.041 9.876 3.945.041 7.19-4.314 7.247-9.727z" fill="#00BCCC"/>
<path d="M216.172 49.628c.036-3.412-1.951-6.2-4.439-6.226-2.488-.026-4.534 2.72-4.57 6.132-.036 3.413 1.952 6.2 4.439 6.226 2.488.026 4.534-2.72 4.57-6.132zM206.656 42.693c.364.512 1.008 1.417 1.808 2.53M214.762 54.068l1.833 2.57M206.469 56.39c.37-.498 1.059-1.423 1.924-2.581M214.879 45.1c.832-1.12 1.495-2.006 1.82-2.446" stroke="#008793" stroke-width=".594" stroke-miterlimit="10" stroke-linecap="round" stroke-linejoin="round"/>
<path d="M219.36 83.923l8.328-4.788a.39.39 0 01.377 0l8.328 4.788a.375.375 0 01.189.323v9.577a.367.367 0 01-.189.323l-8.328 4.788a.39.39 0 01-.188.052.397.397 0 01-.189-.052l-8.328-4.788a.374.374 0 01-.188-.323v-9.57c0-.136.071-.26.188-.33z" fill="#F1653A"/>
<path d="M222.227 85.645l5.526-3.177a.252.252 0 01.253 0l5.526 3.177a.25.25 0 01.124.213v6.348c0 .09-.046.174-.124.213l-5.526 3.177a.29.29 0 01-.123.033.295.295 0 01-.124-.033l-5.525-3.177a.248.248 0 01-.124-.213v-6.348a.23.23 0 01.117-.213zM227.875 98.94v-3.235M227.875 82.447v-3.306M219.223 93.92s1.15-.653 2.867-1.617M233.637 85.793c1.729-.977 2.893-1.63 2.893-1.63M219.199 84.207l2.887 1.605M233.664 92.256c1.729.964 2.9 1.611 2.9 1.611" stroke="#BC4F2C" stroke-width=".606" stroke-miterlimit="10" stroke-linecap="round" stroke-linejoin="round"/>
<path d="M154.883 93.915c7.838 0 14.192-6.325 14.192-14.126 0-7.8-6.354-14.125-14.192-14.125s-14.192 6.324-14.192 14.125c0 7.802 6.354 14.126 14.192 14.126z" stroke="#FFD200" stroke-width=".728" stroke-miterlimit="10"/>
<path d="M154.883 93.914v22.621" stroke="#FFD200" stroke-width="1.036" stroke-miterlimit="10"/>
<path d="M154.884 88.092c4.606 0 8.341-3.717 8.341-8.302 0-4.585-3.735-8.302-8.341-8.302-4.607 0-8.341 3.717-8.341 8.302 0 4.585 3.734 8.302 8.341 8.302z" fill="#FFCE34"/>
<path d="M154.884 85.219c3.013 0 5.455-2.43 5.455-5.429 0-2.998-2.442-5.429-5.455-5.429-3.012 0-5.454 2.43-5.454 5.43 0 2.997 2.442 5.428 5.454 5.428zM148.988 73.92l1.977 1.967M158.738 83.627l2.042 2.032M148.988 85.658l2.016-2.006M158.805 75.888l1.983-1.974" stroke="#C4A227" stroke-width=".651" stroke-miterlimit="10" stroke-linecap="round" stroke-linejoin="round"/>
</svg>