<svg width="579" height="386" viewBox="0 0 579 386" fill="none" xmlns="http://www.w3.org/2000/svg">
<g clip-path="url(#clip0)">
<path d="M330.165 69.0168C333.774 78.358 336.495 88.2975 338.194 98.1405C338.908 102.309 339.217 106.613 338.483 110.801C337.267 117.769 334.488 124.446 330.397 130.217C325.745 136.779 318.585 143.476 310.826 146.198C302.257 149.189 291.951 150.115 282.977 148.726C269.621 146.661 255.127 138.111 250.379 124.852C247.079 115.646 249.607 103.95 257.867 98.7581C261.592 96.4228 266.031 95.5929 270.239 94.2998C274.446 93.0067 278.75 91.0381 281.085 87.2939C282.301 85.3446 282.861 83.0865 283.305 80.8477C284.482 74.8068 284.81 68.6115 286.084 62.5899C287.377 56.5683 289.751 50.5467 294.286 46.3972C301.234 40.0282 311.598 44.6409 317.929 49.7554C323.68 54.3874 327.56 62.2425 330.165 69.0168Z" fill="#ED6636"/>
<path d="M299.497 37.0367C300.848 35.1839 303.936 35.2225 305.538 36.863C308.009 39.372 307.044 45.5287 303.01 45.934C299.266 46.32 297.702 39.4878 299.497 37.0367Z" fill="#ED6636"/>
<path d="M408.871 338.464C405.165 331.362 401.575 324.066 399.838 316.25C398.101 308.414 398.333 299.903 402 292.781C405.667 285.659 413.213 280.255 421.223 280.526C427.418 280.738 433.189 284.231 437.106 289.037C441.024 293.823 443.263 299.806 444.556 305.866C447.007 317.311 446.293 329.412 442.549 340.51L408.871 338.464Z" fill="url(#paint0_linear)"/>
<path d="M418.25 280.834L426.472 339.391L408.427 284.617" stroke="#994396" stroke-width="0.5645" stroke-miterlimit="10" stroke-linecap="round" stroke-linejoin="round"/>
<path d="M399.568 299.594L426.472 339.391L399.819 316.25" stroke="#994396" stroke-width="0.5645" stroke-miterlimit="10" stroke-linecap="round" stroke-linejoin="round"/>
<path d="M435.157 286.528L426.472 339.391L443.051 301.177" stroke="#994396" stroke-width="0.5645" stroke-miterlimit="10" stroke-linecap="round" stroke-linejoin="round"/>
<path d="M123.038 342.363C120.258 334.508 117.634 326.479 117.132 317.832C116.649 309.186 118.463 299.787 123.829 291.913C129.194 284.038 138.516 278.094 147.298 278.383C154.091 278.615 159.823 282.494 163.278 287.782C166.733 293.071 168.084 299.671 168.412 306.368C169.01 319.01 166.019 332.365 159.823 344.602L123.038 342.363Z" fill="url(#paint1_linear)"/>
<path d="M143.997 278.731L142.318 343.405L132.437 282.919" stroke="#FFE400" stroke-width="0.4976" stroke-miterlimit="10"/>
<path d="M119.911 299.459L142.318 343.405L117.132 317.832" stroke="#FFE400" stroke-width="0.4976" stroke-miterlimit="10"/>
<path d="M161.599 285.022L142.318 343.405L167.64 301.196" stroke="#FFE400" stroke-width="0.4976" stroke-miterlimit="10"/>
<path d="M143.013 337.441C141.218 320.457 150.868 303.068 165.806 294.75C180.745 286.431 200.025 287.145 214.809 295.695C229.612 304.245 239.706 320.071 242.254 336.959L143.013 337.441Z" fill="url(#paint2_linear)"/>
<path d="M143.939 323.275L191.514 337.113L152.007 306.252" stroke="#F1653A" stroke-width="0.747" stroke-miterlimit="10" stroke-linecap="round" stroke-linejoin="round"/>
<path d="M163.548 295.869L191.514 337.113L186.033 288.091" stroke="#F1653A" stroke-width="0.747" stroke-miterlimit="10" stroke-linecap="round" stroke-linejoin="round"/>
<path d="M197.864 289.249L191.514 337.113L217.762 297.317" stroke="#F1653A" stroke-width="0.747" stroke-miterlimit="10" stroke-linecap="round" stroke-linejoin="round"/>
<path d="M229.863 308.839L191.514 337.113L239.088 325.861" stroke="#F1653A" stroke-width="0.747" stroke-miterlimit="10" stroke-linecap="round" stroke-linejoin="round"/>
<path d="M445.251 332.346C424.021 326.981 401.903 327.077 380.229 325.108C350.218 322.368 320.052 321.268 289.905 321.268C184.392 321.268 98.8546 335.762 98.8546 353.634C98.8546 365.889 130.68 372.818 139.5 375.018C159.283 379.94 179.799 380.364 200.006 382.198C229.882 384.9 259.913 386 289.905 386C302.585 386 315.266 385.788 327.946 385.363C369.035 383.954 411.959 384.244 451.987 371.93C460.595 369.286 487.769 362.029 477.694 348.191C471.19 339.255 455.422 334.913 445.251 332.346Z" fill="url(#paint3_linear)"/>
<path d="M286.952 154.111C293.553 159.206 302.547 161.001 310.595 158.858C314.05 157.932 317.408 156.253 319.589 153.416C322.561 149.575 322.85 144.364 323.043 139.52C323.352 131.047 323.661 122.555 323.101 114.102C322.831 110.184 322.87 105.243 321.48 101.537C321.461 101.479 321.441 101.421 321.422 101.364C320.361 98.7774 317.485 97.5229 314.899 96.4614C310.228 94.5507 305.21 93.4892 300.173 93.3155C296.834 93.1997 293.534 93.8945 290.33 94.8016C287.145 95.7087 283.922 96.0561 280.603 96.4807C280.255 96.5193 279.908 96.5772 279.618 96.7509C279.252 96.9825 279.039 97.3685 278.866 97.7545C277.515 100.514 276.685 103.506 276.009 106.517C274.928 111.4 274.292 116.379 274.099 121.378C274.021 123.423 273.713 125.759 273.944 127.766C274.214 130.198 275.295 132.784 276.125 135.042C277.399 138.478 278.132 142.029 279.811 145.348C281.548 148.764 283.922 151.775 286.952 154.111Z" fill="#45459B"/>
<path d="M293.167 94.4156C292.82 94.2419 292.414 94.377 292.048 94.5121C286.837 96.4228 281.143 96.4421 275.72 95.6122C270.721 94.8402 266.128 92.447 261.515 90.517C261.226 90.4012 260.936 90.2661 260.666 90.1503C257.771 88.8379 254.914 87.1202 252.637 84.8621C252.309 84.5533 255.86 78.8791 256.227 78.2615C257.404 76.2543 258.678 74.3629 259.836 72.3557C262.21 68.1676 264.97 64.2111 268.077 60.5441C268.27 60.3125 268.463 60.0809 268.54 59.7914C268.675 59.1159 268.038 58.5369 267.421 58.1895C266.591 57.7263 265.491 56.2402 264.429 56.3367C264.043 56.3753 263.715 56.6841 263.445 56.9543C259.411 61.1038 255.32 65.1568 251.132 69.1712C246.403 73.7067 242.215 78.5896 237.95 83.569C237.062 84.6112 236.097 85.9236 236.464 87.236C236.657 87.9308 237.178 88.4712 237.68 88.973C247.194 98.5458 258.234 106.575 270.354 112.635C272.284 113.831 274.292 115.067 276.55 115.375C277.38 115.491 278.827 115.607 279.541 115.047C280.082 114.642 280.101 113.909 280.371 113.33C281.124 111.651 282.513 110.222 283.826 108.987C286.663 106.343 290.098 104.181 292.144 100.785C292.723 99.8582 294.865 95.2841 293.167 94.4156Z" fill="#45459B"/>
<path d="M319.936 124.446C316.964 123.539 314.86 122.42 313.683 118.56C312.081 113.31 312.062 108.292 312.544 102.927C312.602 102.251 313.258 94.6086 313.509 94.6665C312.139 94.4349 310.769 94.184 309.398 93.9524C308.568 97.272 307.989 100.669 307.623 104.066C307.449 105.706 307.314 107.347 307.256 109.006C307.198 110.184 307.545 111.94 306.947 112.963C305.249 115.819 299.227 114.507 296.602 114.275C294.344 114.082 292.105 113.889 289.847 113.696C288.381 113.561 285.833 113.812 284.617 112.789C283.787 112.094 283.806 110.84 283.884 109.759C284.077 107.289 284.347 104.818 284.694 102.367C284.868 101.093 285.08 99.8389 285.312 98.5651C285.543 97.3492 285.872 96.114 286.122 94.8981C284.926 94.57 283.594 94.6279 282.436 95.0911C282.455 96.1333 281.915 97.0983 281.394 98.0054C279.753 100.9 278.345 103.95 277.206 107.076C276.318 109.47 275.585 111.921 274.851 114.372C274.195 116.553 273.539 118.734 273.365 121.011C273.211 123.095 273.462 125.18 273.751 127.245C275.16 137.011 277.881 146.371 277.283 156.369C276.878 163.124 274.755 170.245 273.481 176.962C273.134 178.757 272.497 180.416 271.84 182.095C271.3 183.466 269.679 185.975 269.891 187.403C270.374 190.568 276.357 190.723 278.46 191.417C283.459 193.096 288.535 196.011 294.016 194.409C295.271 194.042 296.371 193.328 297.664 193.039C299.941 192.517 302.605 192.846 304.901 192.846C310.653 192.846 316.018 193.56 321.673 194.293C323.352 194.505 328.254 195.219 329.605 193.695C330.532 192.653 329.74 190.877 329.47 189.661C327.116 179.49 323.893 169.222 323.024 158.8C323.024 155.79 322.696 153.184 323.043 150.173C323.95 142.144 323.159 133.479 323.217 125.373C322.001 125.006 320.92 124.736 319.936 124.446Z" fill="#F89B35"/>
<path d="M333.813 118.386C331.632 112.21 329.084 104.548 324.626 100.07C322.986 98.43 320.921 96.9632 318.585 96.9053C314.552 96.8088 313.857 102.406 314.069 105.532C314.262 108.562 315.266 111.496 316.269 114.372C318.296 120.239 320.148 126.145 322.271 131.973C323.622 135.679 324.491 139.867 327.077 142.955C329.084 145.348 334.624 148.571 337.576 146.448C339.178 145.29 339.912 143.206 339.854 141.218C339.757 137.976 338.194 134.386 337.461 131.201C336.592 127.457 335.762 123.713 334.45 120.104C334.237 119.544 334.025 118.965 333.813 118.386Z" fill="#45459B"/>
<path d="M245.4 314.011C246.384 306.773 245.129 296.332 245.187 288.072C245.245 279.445 245.805 270.721 246.268 262.075C246.596 255.918 246.094 243.103 255.474 244.01C263.098 244.763 261.283 255.011 260.994 260.473C260.627 267.479 260.55 274.485 260.261 281.452C259.894 290.176 257.867 298.764 256.246 307.333C255.667 310.421 256.246 320.245 253.602 321.943L245.4 314.011Z" fill="#45459B"/>
<path d="M271.744 256.401C272.458 253.139 273.23 249.935 274.041 246.828C274.967 243.296 276.009 239.783 277.476 236.444C279.522 231.793 282.378 227.547 285.196 223.34C289.076 217.55 293.418 211.837 296.68 205.719C299.691 200.064 303.222 194.139 301.099 187.5C298.687 179.953 289.133 174.163 281.529 177.714C269.872 183.176 266.475 196.609 261.863 207.205C259.682 212.203 256.825 217.009 254.567 222.027C249.607 232.99 245.554 243.334 243.257 255.127C240.922 267.112 236.966 278.711 233.82 290.484C233.588 291.353 233.376 292.298 233.723 293.109C234.206 294.19 235.479 294.595 236.618 294.904C243.373 296.718 249.839 296.564 256.845 296.622C257.539 296.622 268.212 296.776 268.174 296.255C267.151 283.42 268.926 269.428 271.744 256.401Z" fill="#F89B35"/>
<path d="M242.563 306.523C242.447 305.384 242.331 304.245 242.254 303.106C242.234 302.856 242.234 302.566 242.427 302.392C242.582 302.257 242.813 302.257 243.026 302.257C248.16 302.373 253.293 302.489 258.408 302.605C258.582 302.605 257.964 312.872 257.887 313.799C257.559 317.639 257.153 320.689 258.022 324.452C258.582 326.923 259.72 328.467 258.408 331.111C256.381 335.202 250.63 336.438 247.484 339.526C244.898 342.054 242.022 344.91 238.587 346.281C235.827 347.381 225.308 346.435 225.347 343.231C225.366 341.649 227.624 340.568 228.57 339.468C231.426 336.148 233.82 332.211 236.618 328.853C240.189 324.568 242.775 320.419 243.006 314.686C243.103 311.965 242.833 309.244 242.563 306.523Z" fill="#EAEAEA"/>
<path d="M326.749 271.512C326.093 282.224 325.166 292.916 323.545 303.55C322.696 308.877 321.789 314.204 320.399 319.473C319.705 322.117 318.933 324.761 317.871 327.386C317.331 328.698 316.752 330.011 315.96 331.323C315.15 332.616 314.262 333.986 312.467 335.144C311.521 335.704 310.209 336.129 308.8 335.917C307.43 335.685 306.388 334.99 305.616 334.315C304.129 332.925 303.377 331.516 302.682 330.146C301.389 327.405 300.54 324.684 299.883 321.963C298.571 316.52 297.76 311.097 297.239 305.654C296.216 294.788 296.139 283.903 296.776 273.095C297.413 262.268 298.745 251.479 300.945 240.806C302.045 235.46 303.435 230.172 305.172 224.922C306.059 222.297 307.082 219.692 308.356 217.125C309.012 215.832 309.688 214.558 310.595 213.284C311.521 212.03 312.506 210.717 314.358 209.637C315.343 209.135 316.636 208.787 317.987 209.019C319.299 209.309 320.264 210.003 320.959 210.698C322.31 212.107 322.928 213.516 323.507 214.886C324.568 217.646 325.147 220.367 325.63 223.069C326.575 228.493 326.923 233.877 327.174 239.262C327.675 250.07 327.328 260.801 326.749 271.512ZM324.858 271.416C325.475 260.782 325.379 250.089 324.394 239.513C323.893 234.244 323.082 228.975 321.866 223.919C321.249 221.41 320.438 218.92 319.396 216.778C318.875 215.735 318.218 214.732 317.639 214.269C317.35 214.037 317.157 214.018 317.157 214.018C317.157 214.056 317.138 214.076 316.925 214.191C316.481 214.52 315.787 215.369 315.246 216.334C314.667 217.299 314.185 218.418 313.722 219.557C312.814 221.854 312.081 224.324 311.425 226.814C310.112 231.812 309.225 236.985 308.414 242.157C306.831 252.541 305.924 263.059 305.287 273.578C304.708 284.096 304.38 294.653 304.824 305.133C305.056 310.363 305.403 315.594 306.272 320.612C306.696 323.121 307.256 325.591 308.067 327.753C308.472 328.795 308.993 329.798 309.437 330.3C309.649 330.532 309.765 330.57 309.726 330.628C309.668 330.628 309.688 330.686 309.919 330.609C310.421 330.377 311.232 329.586 311.888 328.66C312.564 327.733 313.181 326.633 313.741 325.514C314.86 323.256 315.845 320.824 316.674 318.354C318.334 313.393 319.685 308.24 320.766 303.049C322.908 292.665 324.24 282.05 324.858 271.416Z" fill="#45459B"/>
<path d="M319.299 271.011L319.28 212.088" stroke="#45459B" stroke-width="0.2346" stroke-miterlimit="10" stroke-linecap="round" stroke-linejoin="round"/>
<path d="M315.304 212.377L322.464 269.93" stroke="#45459B" stroke-width="0.2346" stroke-miterlimit="10" stroke-linecap="round" stroke-linejoin="round"/>
<path d="M322.445 271.609L307.642 331.381" stroke="#45459B" stroke-width="0.2346" stroke-miterlimit="10" stroke-linecap="round" stroke-linejoin="round"/>
<path d="M311.618 331.072L319.28 272.709" stroke="#45459B" stroke-width="0.2346" stroke-miterlimit="10" stroke-linecap="round" stroke-linejoin="round"/>
<path d="M320.322 279.174L302.045 260.975" stroke="#45459B" stroke-width="0.2346" stroke-miterlimit="10" stroke-linecap="round" stroke-linejoin="round"/>
<path d="M300.906 280.506L321.036 263.908" stroke="#45459B" stroke-width="0.2346" stroke-miterlimit="10" stroke-linecap="round" stroke-linejoin="round"/>
<path d="M321.422 263.445L324.877 282.494" stroke="#45459B" stroke-width="0.2346" stroke-miterlimit="10" stroke-linecap="round" stroke-linejoin="round"/>
<path d="M326.016 262.943L320.708 278.731" stroke="#45459B" stroke-width="0.2346" stroke-miterlimit="10" stroke-linecap="round" stroke-linejoin="round"/>
<path d="M321.596 277.09L301.273 306.291" stroke="#45459B" stroke-width="0.2346" stroke-miterlimit="10" stroke-linecap="round" stroke-linejoin="round"/>
<path d="M303.28 319.898L319.878 267.054" stroke="#45459B" stroke-width="0.2346" stroke-miterlimit="10" stroke-linecap="round" stroke-linejoin="round"/>
<path d="M320.148 265.529L325.649 237.158" stroke="#45459B" stroke-width="0.2346" stroke-miterlimit="10" stroke-linecap="round" stroke-linejoin="round"/>
<path d="M323.642 223.552L321.866 275.565" stroke="#45459B" stroke-width="0.2346" stroke-miterlimit="10" stroke-linecap="round" stroke-linejoin="round"/>
<path d="M322.368 265.973L317.408 321.519" stroke="#45459B" stroke-width="0.2346" stroke-miterlimit="10" stroke-linecap="round" stroke-linejoin="round"/>
<path d="M321.017 307.488L319.627 277.534" stroke="#45459B" stroke-width="0.2346" stroke-miterlimit="10" stroke-linecap="round" stroke-linejoin="round"/>
<path d="M319.376 276.665L309.495 221.95" stroke="#45459B" stroke-width="0.2346" stroke-miterlimit="10" stroke-linecap="round" stroke-linejoin="round"/>
<path d="M305.886 235.981L322.117 265.086" stroke="#45459B" stroke-width="0.2346" stroke-miterlimit="10" stroke-linecap="round" stroke-linejoin="round"/>
<path d="M322.387 272.095C322.657 267.861 322.186 264.385 321.335 264.331C320.484 264.277 319.575 267.665 319.305 271.899C319.036 276.133 319.507 279.609 320.358 279.663C321.209 279.717 322.117 276.329 322.387 272.095Z" stroke="#45459B" stroke-width="0.9797" stroke-miterlimit="10" stroke-linecap="round" stroke-linejoin="round"/>
<path d="M288.689 283.806L325.803 271.454" stroke="#FBE70F" stroke-width="2.3736" stroke-miterlimit="10" stroke-linecap="round" stroke-linejoin="round"/>
<path d="M307.333 199.099C308.704 198.616 310.228 198.462 311.695 198.443C317.678 198.365 327.965 200.952 323.68 209.463C322.194 212.416 319.878 211.933 317.157 212.512C313.548 213.304 313.625 213.883 311.734 217.202C311.039 218.437 309.997 219.615 308.607 219.827C307.005 220.059 305.48 218.843 304.824 217.376C303.493 214.327 302.277 210.679 302.219 207.321C302.18 204.677 303.087 201.878 305.172 200.238C305.847 199.736 306.561 199.35 307.333 199.099Z" fill="#FBE70F"/>
<path d="M304.014 82.3145C304.593 88.1045 304.863 93.9524 304.786 99.781C304.786 100.244 304.766 100.727 304.573 101.093C304.322 101.537 303.879 101.653 303.473 101.73C300.076 102.329 296.564 101.943 293.263 100.592C292.704 100.36 292.105 100.051 291.874 99.3178C291.719 98.8353 291.777 98.2949 291.816 97.7931C292.26 93.1032 292.221 88.3168 291.681 83.6462L304.014 82.3145Z" fill="#45459B"/>
<path d="M305.615 12.5836L296.216 0.2509C296.101 0.0965 295.908 0 295.734 0C295.541 0 295.367 0.0965 295.251 0.2509L286.007 12.5836C285.852 12.7959 285.852 13.1047 286.007 13.317L295.251 25.6497C295.367 25.8041 295.541 25.9006 295.734 25.9006C295.927 25.9006 296.101 25.8041 296.216 25.669L305.615 13.3363C305.789 13.1047 305.789 12.7959 305.615 12.5836Z" fill="#F89C33"/>
<path d="M300.733 12.7573L296.004 6.562C295.946 6.4848 295.85 6.4462 295.753 6.4462C295.657 6.4462 295.56 6.4848 295.502 6.562L290.87 12.7573C290.793 12.8731 290.793 13.0082 290.87 13.124L295.502 19.3193C295.56 19.3965 295.657 19.4351 295.753 19.4351C295.85 19.4351 295.946 19.3965 296.004 19.3193L300.733 13.124C300.829 13.0275 300.829 12.8731 300.733 12.7573Z" stroke="#C47D27" stroke-width="0.263" stroke-miterlimit="10" stroke-linecap="round" stroke-linejoin="round"/>
<path d="M295.772 6.4462V0" stroke="#C47D27" stroke-width="0.263" stroke-miterlimit="10" stroke-linecap="round" stroke-linejoin="round"/>
<path d="M295.772 25.7655V19.3193" stroke="#C47D27" stroke-width="0.263" stroke-miterlimit="10" stroke-linecap="round" stroke-linejoin="round"/>
<path d="M286.007 12.9503C286.007 12.9503 288.091 12.9503 290.909 12.9503" stroke="#C47D27" stroke-width="0.263" stroke-miterlimit="10" stroke-linecap="round" stroke-linejoin="round"/>
<path d="M300.926 12.9503C303.628 12.9503 305.615 12.9503 305.615 12.9503" stroke="#C47D27" stroke-width="0.263" stroke-miterlimit="10" stroke-linecap="round" stroke-linejoin="round"/>
<path d="M263.271 213.439C260.569 212.783 257.771 214.597 256.381 217.009C254.992 219.422 254.702 222.278 254.49 225.038C252.676 247.407 252.734 269.91 254.644 292.26" stroke="#FBE70F" stroke-width="2.3736" stroke-miterlimit="10" stroke-linecap="round" stroke-linejoin="round"/>
<path d="M264.294 289.886C263.619 295.83 262.847 301.756 261.959 307.661C261.09 313.586 260.222 319.492 259.16 325.398C258.099 331.285 257.018 337.19 255.571 343.058C254.857 345.991 254.104 348.925 253.139 351.839C252.656 353.306 252.116 354.753 251.479 356.239C250.765 357.706 250.205 359.173 248.449 360.814C247.947 361.2 247.291 361.682 246.229 361.817C245.747 361.914 245.129 361.798 244.608 361.663C244.164 361.489 243.701 361.219 243.373 360.968C242.119 359.868 241.868 358.98 241.424 358.112C240.729 356.413 240.382 354.85 240.073 353.287C239.494 350.179 239.166 347.13 238.953 344.08C238.548 338.001 238.452 331.96 238.567 325.919C238.722 319.898 238.973 313.876 239.417 307.874C239.899 301.871 240.478 295.888 241.154 289.925C241.926 283.961 242.775 278.017 243.72 272.072C244.705 266.147 245.882 260.241 247.156 254.355C248.449 248.468 249.954 242.62 251.711 236.811C252.598 233.897 253.583 231.021 254.741 228.145C255.32 226.698 255.957 225.27 256.709 223.822C257.52 222.375 258.176 220.946 260.01 219.383C260.511 219.016 261.187 218.573 262.248 218.457C262.712 218.38 263.329 218.515 263.831 218.65C264.256 218.843 264.7 219.094 265.008 219.364C266.186 220.464 266.379 221.352 266.765 222.22C267.344 223.919 267.595 225.482 267.788 227.045C268.174 230.153 268.251 233.183 268.309 236.213C268.386 242.254 268.058 248.256 267.71 254.239C267.363 260.222 266.803 266.186 266.244 272.13C265.703 278.017 265.047 283.942 264.294 289.886ZM262.577 289.674C263.252 283.749 263.831 277.824 264.294 271.898C264.738 265.954 264.989 260.01 265.143 254.065C265.259 248.121 265.163 242.176 264.757 236.29C264.545 233.356 264.217 230.423 263.696 227.624C263.426 226.235 263.078 224.864 262.615 223.764C262.403 223.282 262.036 222.722 262.055 222.838C262.075 222.876 262.19 222.973 262.287 222.973C262.422 223.089 262.654 223.05 262.75 223.069C263.059 223.05 263.059 222.992 263.001 223.069C262.577 223.475 261.805 224.768 261.303 225.984C260.762 227.238 260.28 228.57 259.836 229.94C258.948 232.662 258.215 235.499 257.52 238.355C256.13 244.049 255.05 249.858 254.007 255.686C252.946 261.496 252.097 267.363 251.228 273.211C250.36 279.059 249.588 284.945 248.912 290.832C248.179 296.718 247.523 302.605 246.963 308.491C246.403 314.378 245.863 320.284 245.515 326.17C245.168 332.057 244.84 337.962 244.917 343.791C244.956 346.705 245.052 349.62 245.38 352.399C245.554 353.769 245.786 355.159 246.152 356.239C246.307 356.722 246.615 357.282 246.519 357.166C246.48 357.127 246.345 357.031 246.229 357.031C246.075 356.915 245.824 356.973 245.708 356.973C245.38 357.031 245.4 357.108 245.477 357.05C245.979 356.722 246.847 355.448 247.445 354.271C248.082 353.055 248.681 351.743 249.221 350.392C250.302 347.709 251.267 344.91 252.116 342.093C253.834 336.438 255.32 330.686 256.594 324.877C257.848 319.068 259.025 313.22 259.99 307.353C260.975 301.485 261.824 295.58 262.577 289.674Z" fill="#45459B"/>
<path d="M258.697 288.844L264.256 221.525" stroke="#45459B" stroke-width="0.2157" stroke-miterlimit="10" stroke-linecap="round" stroke-linejoin="round"/>
<path d="M261.303 221.622L261.129 287.802" stroke="#45459B" stroke-width="0.2157" stroke-miterlimit="10" stroke-linecap="round" stroke-linejoin="round"/>
<path d="M260.955 289.732L244.415 357.05" stroke="#45459B" stroke-width="0.2157" stroke-miterlimit="10" stroke-linecap="round" stroke-linejoin="round"/>
<path d="M247.349 356.954L258.523 290.774" stroke="#45459B" stroke-width="0.2157" stroke-miterlimit="10" stroke-linecap="round" stroke-linejoin="round"/>
<path d="M258.678 298.243L246.963 276.26" stroke="#45459B" stroke-width="0.2157" stroke-miterlimit="10" stroke-linecap="round" stroke-linejoin="round"/>
<path d="M244.28 298.513L260.647 280.834" stroke="#45459B" stroke-width="0.2157" stroke-miterlimit="10" stroke-linecap="round" stroke-linejoin="round"/>
<path d="M260.975 280.333L261.708 302.315" stroke="#45459B" stroke-width="0.2157" stroke-miterlimit="10" stroke-linecap="round" stroke-linejoin="round"/>
<path d="M264.391 280.062L258.987 297.741" stroke="#45459B" stroke-width="0.2157" stroke-miterlimit="10" stroke-linecap="round" stroke-linejoin="round"/>
<path d="M259.817 295.927L242.099 327.984" stroke="#45459B" stroke-width="0.2157" stroke-miterlimit="10" stroke-linecap="round" stroke-linejoin="round"/>
<path d="M242.292 343.656L259.489 284.347" stroke="#45459B" stroke-width="0.2157" stroke-miterlimit="10" stroke-linecap="round" stroke-linejoin="round"/>
<path d="M259.836 282.649L266.572 250.572" stroke="#45459B" stroke-width="0.2157" stroke-miterlimit="10" stroke-linecap="round" stroke-linejoin="round"/>
<path d="M266.379 234.92L260.145 294.209" stroke="#45459B" stroke-width="0.2157" stroke-miterlimit="10" stroke-linecap="round" stroke-linejoin="round"/>
<path d="M261.438 283.266L252.521 346.396" stroke="#45459B" stroke-width="0.2157" stroke-miterlimit="10" stroke-linecap="round" stroke-linejoin="round"/>
<path d="M256.516 330.609L258.311 296.313" stroke="#45459B" stroke-width="0.2157" stroke-miterlimit="10" stroke-linecap="round" stroke-linejoin="round"/>
<path d="M258.215 295.29L256.13 232.16" stroke="#45459B" stroke-width="0.2157" stroke-miterlimit="10" stroke-linecap="round" stroke-linejoin="round"/>
<path d="M252.155 247.966L261.322 282.263" stroke="#45459B" stroke-width="0.2157" stroke-miterlimit="10" stroke-linecap="round" stroke-linejoin="round"/>
<path d="M260.858 290.201C261.452 285.377 261.428 281.404 260.804 281.327C260.18 281.25 259.192 285.099 258.597 289.923C258.003 294.747 258.027 298.72 258.651 298.797C259.275 298.874 260.263 295.025 260.858 290.201Z" stroke="#45459B" stroke-width="0.9009" stroke-miterlimit="10" stroke-linecap="round" stroke-linejoin="round"/>
<path d="M263.406 213.149L272.342 190.24L272.709 170.554" stroke="#FBE70F" stroke-width="2.3736" stroke-miterlimit="10" stroke-linecap="round" stroke-linejoin="round"/>
<path d="M263.831 213.555C267.054 213.458 269.891 215.928 271.223 218.862C272.535 221.796 272.632 225.115 272.593 228.319C272.381 250.128 267.807 271.628 263.233 292.955" stroke="#FBE70F" stroke-width="2.3736" stroke-miterlimit="10" stroke-linecap="round" stroke-linejoin="round"/>
<path d="M288.689 283.807L312.081 208.382L267.228 200.276" stroke="#FBE70F" stroke-width="2.3736" stroke-miterlimit="10" stroke-linecap="round" stroke-linejoin="round"/>
<path d="M267.228 200.276L288.689 283.807" stroke="#FBE70F" stroke-width="2.3736" stroke-miterlimit="10" stroke-linecap="round" stroke-linejoin="round"/>
<path d="M233.337 166.849L309.939 173.063" stroke="#FBE70F" stroke-width="2.3736" stroke-miterlimit="10" stroke-linecap="round" stroke-linejoin="round"/>
<path d="M328.351 250.244C328.061 250.244 327.772 250.263 327.482 250.302C315.266 251.73 317.639 265.722 319.724 274.292C322.715 286.586 326.074 298.494 328.467 310.942C328.969 313.567 329.49 316.153 329.972 318.739C330.493 321.499 330.937 324.259 331.246 327.019C331.265 327.27 331.285 327.502 331.323 327.753C331.439 328.814 331.516 329.876 331.574 330.937C331.593 331.285 331.613 331.651 331.632 331.999C331.671 333.311 331.69 334.643 331.632 335.974C332.655 336.689 334.392 337.075 335.994 336.901C337.19 336.766 338.329 336.341 339.062 335.492C339.313 335.202 339.506 334.894 339.641 334.508C339.873 333.89 339.834 333.137 339.796 332.423C339.545 327.675 339.294 322.928 339.024 318.18C338.503 308.568 337.982 298.957 337.287 289.346C337.19 288.091 337.094 286.856 337.017 285.601C337.364 285.524 337.711 285.466 338.078 285.389C337.808 282.108 337.538 278.75 337.268 275.353C336.727 268.714 338.812 249.993 328.351 250.244Z" fill="#45459B"/>
<path d="M331.227 198.153C330.86 195.972 330.319 193.868 329.876 191.707C329.181 188.291 327.386 184.72 325.321 181.922C321.75 177.097 316.192 174.646 310.19 174.974C285.582 176.325 302.875 224.401 307.179 236.637C309.398 242.948 308.916 250.398 309.784 256.979C310.498 262.345 311.714 267.305 312.506 272.593C314.107 283.363 313.123 294.479 314.05 305.21C322.87 306.6 332.249 303.377 341.031 302.836C343.656 302.682 347.033 303.164 349.33 301.852C347.902 296.371 345.412 290.928 344.273 285.157C342.478 276.067 339.776 267.768 338.811 258.543C337.769 248.565 335.743 238.741 335.009 228.705C334.469 220.001 333.137 211.219 331.863 202.592C331.69 201.106 331.477 199.62 331.227 198.153Z" fill="#F89B35"/>
<path d="M343.038 317.003C343.019 321.712 342.942 326.575 344.196 331.149C345.528 335.936 348.925 339.854 351.318 344.138C352.843 346.86 356.896 350.237 352.418 352.09C350.604 352.843 348.847 352.572 347.014 352.167C343.154 351.337 339.333 349.427 336.36 346.802C334.951 345.567 334.45 344.042 333.311 342.729C331.574 340.761 329.393 340.954 328.93 337.943C328.582 335.685 329.2 333.408 329.104 331.149C328.93 327.425 327.675 324.047 327.154 320.457C326.865 318.527 326.112 316.559 326.131 314.513C326.151 312.197 328.216 312.197 330.532 312.042C333.6 311.83 336.843 311.483 339.873 311.849C342.903 312.216 343.057 312.718 343.057 315.96C343.038 316.308 343.038 316.655 343.038 317.003Z" fill="#EAEAEA"/>
<path d="M293.553 176.035C293.379 176.576 293.437 177.406 293.997 177.386C294.171 177.386 294.344 177.27 294.479 177.155C296.332 175.726 298.011 174.086 299.459 172.252C298.706 174.086 297.953 175.939 297.201 177.772C297.645 178.332 298.494 177.753 298.938 177.193C300.192 175.611 301.466 174.028 302.721 172.445C302.103 174.395 301.505 176.363 300.887 178.313C301.215 178.699 301.852 178.699 302.296 178.448C302.74 178.197 303.029 177.753 303.319 177.328C304.265 175.9 305.191 174.491 306.137 173.063C305.963 174.549 305.77 176.016 305.596 177.502C305.944 177.849 306.542 177.83 306.967 177.579C307.391 177.328 307.661 176.904 307.932 176.479C309.302 174.26 310.46 171.905 311.386 169.454C311.869 168.18 301.138 165.69 299.671 166.405C296.757 167.794 294.479 173.14 293.553 176.035Z" fill="#45459B"/>
<path d="M288.033 87.8536C290.542 88.3554 293.051 88.1431 295.483 87.429C302.624 85.3253 308.8 79.9792 312.042 73.0698C313.625 69.7116 314.532 65.8516 313.644 62.2232C311.406 53.0171 297.76 48.2886 289.732 51.8591C285.794 53.6154 283.324 57.4561 281.896 61.374C281.394 62.7829 281.317 64.4234 281.355 65.9095C281.375 66.8359 281.413 67.8009 281.162 68.6887C280.912 69.5958 280.333 70.445 279.464 70.7924C279.039 70.9661 278.576 70.9854 278.152 71.1205C277.708 71.2556 277.283 71.5065 277.129 71.9311C276.936 72.4908 277.302 73.1084 277.824 73.3979C278.345 73.6874 278.943 73.7067 279.541 73.726C279.85 73.7453 279.947 73.6488 280.255 73.6874C280.429 73.7067 280.854 76.1771 280.912 76.4473C281.143 77.4123 281.355 78.3773 281.606 79.3423C282.012 80.9056 282.398 82.3917 283.189 83.7813C283.575 84.4568 284.019 85.113 284.501 85.7113C285.428 86.8886 286.566 87.5641 288.033 87.8536Z" fill="#45459B"/>
<path d="M291.411 69.3835C291.584 70.1941 292.356 71.0433 293.128 70.7152C293.65 70.5029 293.843 69.866 294.113 69.3835C294.865 68.0132 296.68 67.3763 298.146 67.9167C299.613 68.4571 300.578 70.059 300.443 71.6223C300.308 73.1856 299.131 74.5752 297.645 75.0384C297.143 75.1928 296.583 75.27 296.216 75.656C296.023 75.8683 295.908 76.1192 295.83 76.3894C295.194 78.3001 295.502 80.4231 296.12 82.3531C298.475 89.8415 301.871 96.9632 308.318 101.769C310.537 103.429 313.007 104.741 315.459 106.034C319.222 108.022 323.429 108.891 327.656 108.659C329.741 108.543 337.132 108.524 336.148 105.243C335.106 101.73 331.188 100.09 327.965 98.3528C325.07 96.7895 322.349 94.7437 320.419 92.061C318.489 89.3783 317.369 86.0201 317.794 82.7584C318.064 80.6354 318.952 78.6475 319.608 76.6017C321.461 70.8696 321.499 64.5585 319.705 58.8071C318.161 53.8663 315.227 49.2729 310.962 46.32C302.335 40.3563 289.461 43.9268 281.877 50.0642C280.352 51.2994 278.924 52.7276 278.19 54.5418C276.723 58.1509 278.596 60.3318 282.05 60.9494C285.1 61.4898 288.477 59.9844 291.025 58.3632C290.272 61.8758 290.755 65.8323 291.411 69.3835Z" fill="#ED6636"/>
<path d="M284.686 69.6185C284.69 68.4673 284.305 67.5325 283.826 67.5305C283.346 67.5285 282.953 68.4601 282.949 69.6113C282.944 70.7625 283.329 71.6973 283.809 71.6993C284.288 71.7013 284.681 70.7697 284.686 69.6185Z" fill="#221F1F"/>
<path d="M287.647 66.3534C287.879 66.8359 287.609 67.0675 287.145 67.0868C285.814 67.164 284.675 66.8552 283.71 65.9288C283.112 65.3498 282.436 64.269 283.71 64.0567C285.293 63.8251 286.991 65.0024 287.647 66.3534Z" fill="#ED6636"/>
<path d="M281.297 77.6825C282.417 77.5088 283.575 77.7404 284.54 78.3194" stroke="#221F1F" stroke-width="0.3352" stroke-miterlimit="10" stroke-linecap="round" stroke-linejoin="round"/>
<path d="M296.892 144.499C288.863 154.69 282.34 166.077 277.669 178.197" stroke="#F1653A" stroke-width="0.6362" stroke-miterlimit="10"/>
<path d="M283.498 144.171C277.997 155.712 273.906 167.929 271.339 180.455" stroke="#F1653A" stroke-width="0.6362" stroke-miterlimit="10"/>
<path d="M300.115 158.781C293.013 166.578 286.373 174.781 280.236 183.35" stroke="#F1653A" stroke-width="0.6362" stroke-miterlimit="10"/>
<path d="M294.248 178.525C294.151 178.004 293.843 177.541 293.36 177.27L267.421 163.239C266.9 162.95 266.282 162.95 265.78 163.239C265.259 163.51 264.931 164.031 264.873 164.61L260.782 210.891C260.724 211.625 261.129 212.319 261.804 212.628C261.997 212.705 262.191 212.763 262.384 212.783C262.905 212.821 263.426 212.628 263.792 212.242L293.823 179.992C294.171 179.606 294.325 179.065 294.248 178.525Z" fill="#994396"/>
<path d="M294.267 141.16C293.978 141.218 293.823 141.257 293.669 141.488C293.572 141.623 293.476 141.758 293.379 141.894C293.283 142.029 293.225 142.183 293.128 142.318C292.993 142.511 292.897 142.569 292.993 142.781C293.071 142.936 293.09 142.916 293.071 143.129C293.051 143.283 293.051 143.418 293.032 143.573C293.013 143.881 293.032 144.267 292.935 144.557C292.742 145.155 292.723 145.831 293.032 146.41C293.167 146.68 293.495 146.68 293.688 146.912C293.9 147.182 293.843 147.606 294.074 147.877C294.171 147.973 294.306 147.992 294.402 148.07C294.499 148.147 294.576 148.243 294.653 148.34C294.885 148.571 295.116 148.861 295.444 148.88C295.753 148.899 296.081 148.899 296.39 148.957C296.641 148.996 297.085 149.266 297.317 149.035C297.432 148.919 297.432 148.687 297.625 148.61C297.683 148.591 297.741 148.629 297.799 148.61C297.876 148.591 297.896 148.533 297.973 148.533C298.089 148.513 298.243 148.591 298.359 148.571C298.494 148.552 298.59 148.513 298.745 148.513C298.957 148.513 299.131 148.282 299.304 148.127C299.382 148.05 299.459 147.973 299.555 147.915C299.671 147.838 299.845 147.819 299.941 147.722C299.98 147.684 299.98 147.606 300.019 147.568C300.076 147.51 300.154 147.529 300.212 147.452C300.327 147.317 300.366 147.105 300.482 146.95C300.675 146.719 300.791 146.39 300.81 146.062C300.829 145.715 300.868 145.348 300.887 145.001C300.906 144.827 300.926 144.615 300.752 144.538C300.617 144.48 300.405 144.557 300.308 144.653C300.366 144.248 300.405 143.824 300.347 143.438C300.308 143.245 300.289 143.109 300.269 142.916C300.231 142.897 300.212 142.859 300.212 142.801C300.212 142.743 300.231 142.685 300.231 142.627C300.231 142.53 300.192 142.453 300.134 142.376C299.941 142.067 299.652 141.701 299.536 141.353C299.459 141.102 299.497 140.832 299.266 140.658C299.073 140.504 298.88 140.504 298.668 140.446C298.224 140.35 297.799 140.214 297.355 140.176C297.162 140.157 296.95 140.137 296.757 140.137C296.583 140.118 296.332 140.06 296.159 140.099C296.023 140.137 295.966 140.292 295.85 140.33C295.773 140.35 295.657 140.35 295.599 140.369C295.425 140.407 295.232 140.369 295.039 140.369C294.557 140.311 294.479 140.716 294.267 141.16Z" fill="#00BCCC"/>
<path d="M295.445 143.669C295.464 143.669 295.502 143.669 295.522 143.669C295.155 143.804 295.213 144.364 295.194 144.711C295.174 144.924 295.194 145.039 295.271 145.232C295.387 145.561 295.657 145.754 295.946 145.869C296.043 145.908 296.081 145.947 296.217 145.966C296.332 145.966 296.448 145.985 296.564 145.985C296.757 146.004 296.95 145.966 297.143 145.927C297.162 145.889 297.201 145.869 297.239 145.869C297.297 145.869 297.355 145.889 297.413 145.889C297.51 145.889 297.529 145.869 297.606 145.831C297.78 145.773 297.954 145.715 298.05 145.541C298.147 145.387 298.224 145.175 298.262 144.962C298.301 144.673 298.282 144.422 298.243 144.152C298.204 143.843 298.166 143.708 297.954 143.515C297.761 143.322 297.703 143.09 297.432 142.974C297.085 142.82 296.564 142.839 296.197 142.916C296.043 142.936 296.024 142.936 295.908 142.994C295.85 143.032 295.792 143.09 295.734 143.148C295.599 143.245 295.638 143.167 295.541 143.322C295.483 143.438 295.464 143.534 295.445 143.669C295.406 143.65 295.464 143.669 295.445 143.669Z" fill="#45459B"/>
<path d="M278.982 137.937C278.461 138.034 278.19 138.091 277.901 138.497C277.727 138.728 277.553 138.96 277.38 139.192C277.206 139.423 277.11 139.693 276.955 139.925C276.704 140.253 276.531 140.35 276.724 140.716C276.859 140.986 276.897 140.948 276.878 141.295C276.859 141.546 276.839 141.797 276.82 142.067C276.781 142.588 276.839 143.245 276.666 143.746C276.299 144.789 276.299 145.947 276.839 146.912C277.09 147.375 277.669 147.375 278.017 147.78C278.403 148.243 278.287 148.977 278.731 149.459C278.885 149.633 279.155 149.652 279.329 149.807C279.503 149.942 279.619 150.115 279.792 150.27C280.217 150.656 280.622 151.158 281.22 151.196C281.78 151.235 282.359 151.254 282.919 151.331C283.363 151.389 284.154 151.852 284.579 151.466C284.791 151.254 284.772 150.868 285.119 150.752C285.235 150.714 285.331 150.772 285.447 150.752C285.582 150.733 285.602 150.636 285.756 150.617C285.988 150.579 286.238 150.714 286.451 150.675C286.702 150.636 286.875 150.579 287.146 150.579C287.532 150.559 287.86 150.173 288.149 149.922C288.304 149.787 288.439 149.671 288.593 149.575C288.805 149.459 289.114 149.401 289.288 149.247C289.365 149.17 289.365 149.035 289.423 148.996C289.539 148.919 289.655 148.919 289.77 148.784C289.983 148.552 290.06 148.166 290.253 147.915C290.581 147.51 290.793 146.95 290.832 146.39C290.87 145.773 290.928 145.175 290.967 144.557C290.986 144.267 291.044 143.901 290.735 143.766C290.484 143.65 290.098 143.785 289.925 143.978C290.041 143.302 290.079 142.53 289.983 141.874C289.925 141.546 289.886 141.295 289.828 140.967C289.751 140.929 289.712 140.871 289.712 140.774C289.732 140.678 289.732 140.562 289.751 140.465C289.732 140.311 289.674 140.157 289.577 140.021C289.211 139.5 288.69 138.863 288.516 138.265C288.381 137.821 288.439 137.377 288.033 137.049C287.686 136.779 287.358 136.779 286.953 136.683C286.161 136.49 285.409 136.277 284.598 136.2C284.251 136.181 283.884 136.142 283.517 136.123C283.208 136.104 282.745 135.968 282.436 136.046C282.185 136.104 282.089 136.374 281.877 136.432C281.742 136.47 281.529 136.47 281.413 136.49C281.085 136.547 280.757 136.509 280.41 136.49C279.503 136.47 279.368 137.146 278.982 137.937Z" fill="#00BCCC"/>
<path d="M281.105 142.26C281.163 142.26 281.201 142.26 281.259 142.28C280.584 142.511 280.719 143.457 280.661 144.074C280.622 144.422 280.661 144.653 280.777 144.962C281.008 145.522 281.471 145.869 282.012 146.043C282.185 146.101 282.263 146.178 282.494 146.197C282.707 146.217 282.9 146.217 283.112 146.236C283.479 146.275 283.807 146.197 284.154 146.12C284.193 146.043 284.251 146.004 284.347 146.004C284.444 146.004 284.559 146.024 284.656 146.043C284.83 146.043 284.868 146.004 285.003 145.947C285.331 145.831 285.621 145.734 285.795 145.445C285.968 145.175 286.103 144.808 286.161 144.46C286.238 143.959 286.181 143.534 286.103 143.071C286.026 142.55 285.968 142.318 285.582 141.951C285.216 141.623 285.119 141.218 284.656 141.025C284.038 140.755 283.073 140.793 282.436 140.909C282.166 140.948 282.128 140.929 281.935 141.064C281.819 141.141 281.722 141.237 281.606 141.315C281.356 141.469 281.433 141.334 281.278 141.623C281.163 141.816 281.143 141.99 281.085 142.202C281.047 142.241 281.163 142.241 281.105 142.26Z" fill="#45459B"/>
<path d="M282.34 148.513C281.819 148.61 281.548 148.668 281.259 149.073C281.085 149.305 280.912 149.536 280.738 149.768C280.564 150 280.468 150.27 280.313 150.501C280.062 150.83 279.889 150.926 280.082 151.293C280.217 151.563 280.255 151.524 280.236 151.872C280.217 152.123 280.197 152.373 280.178 152.644C280.14 153.165 280.197 153.821 280.024 154.323C279.657 155.365 279.657 156.523 280.197 157.488C280.448 157.951 281.027 157.951 281.375 158.357C281.761 158.82 281.645 159.553 282.089 160.036C282.243 160.209 282.513 160.229 282.687 160.383C282.861 160.518 282.977 160.692 283.15 160.846C283.575 161.232 283.98 161.734 284.579 161.773C285.138 161.811 285.717 161.83 286.277 161.908C286.721 161.966 287.512 162.429 287.937 162.043C288.149 161.83 288.13 161.444 288.477 161.329C288.593 161.29 288.689 161.348 288.805 161.329C288.94 161.309 288.96 161.213 289.114 161.194C289.346 161.155 289.597 161.29 289.809 161.252C290.06 161.213 290.234 161.155 290.504 161.155C290.89 161.136 291.218 160.75 291.507 160.499C291.662 160.364 291.797 160.248 291.951 160.151C292.164 160.036 292.472 159.978 292.646 159.823C292.723 159.746 292.723 159.611 292.781 159.572C292.897 159.495 293.013 159.495 293.129 159.36C293.341 159.128 293.418 158.743 293.611 158.492C293.939 158.086 294.151 157.527 294.19 156.967C294.229 156.349 294.286 155.751 294.325 155.133C294.344 154.844 294.402 154.477 294.094 154.342C293.843 154.226 293.457 154.361 293.283 154.554C293.399 153.879 293.437 153.107 293.341 152.451C293.283 152.123 293.244 151.872 293.186 151.544C293.109 151.505 293.071 151.447 293.071 151.351C293.09 151.254 293.09 151.138 293.109 151.042C293.09 150.887 293.032 150.733 292.935 150.598C292.569 150.077 292.048 149.44 291.874 148.842C291.739 148.398 291.797 147.954 291.391 147.626C291.044 147.355 290.716 147.356 290.311 147.259C289.519 147.066 288.767 146.854 287.956 146.777C287.609 146.757 287.242 146.719 286.875 146.699C286.566 146.68 286.103 146.545 285.794 146.622C285.544 146.68 285.447 146.95 285.235 147.008C285.1 147.047 284.887 147.047 284.772 147.066C284.444 147.124 284.115 147.085 283.768 147.066C282.861 147.047 282.726 147.722 282.34 148.513Z" fill="#00BCCC"/>
<path d="M284.463 152.837C284.521 152.837 284.559 152.837 284.617 152.856C283.942 153.088 284.077 154.033 284.019 154.651C283.98 154.998 284.019 155.23 284.135 155.539C284.366 156.098 284.829 156.446 285.37 156.62C285.544 156.677 285.621 156.755 285.852 156.774C286.065 156.793 286.258 156.793 286.47 156.813C286.837 156.851 287.165 156.774 287.512 156.697C287.551 156.62 287.609 156.581 287.705 156.581C287.802 156.581 287.917 156.6 288.014 156.62C288.188 156.62 288.226 156.581 288.361 156.523C288.689 156.407 288.979 156.311 289.153 156.021C289.326 155.751 289.461 155.384 289.519 155.037C289.597 154.535 289.539 154.111 289.461 153.647C289.384 153.126 289.326 152.895 288.94 152.528C288.574 152.2 288.477 151.795 288.014 151.602C287.396 151.331 286.431 151.37 285.794 151.486C285.524 151.524 285.486 151.505 285.293 151.64C285.177 151.717 285.08 151.814 284.965 151.891C284.714 152.045 284.791 151.91 284.636 152.2C284.521 152.393 284.501 152.567 284.443 152.779C284.405 152.817 284.501 152.817 284.463 152.837Z" fill="#45459B"/>
<path d="M269.177 158.144C268.656 158.241 268.386 158.299 268.096 158.704C267.923 158.936 267.749 159.167 267.575 159.399C267.402 159.63 267.305 159.901 267.151 160.132C266.9 160.46 266.726 160.557 266.919 160.923C267.054 161.194 267.093 161.155 267.073 161.502C267.054 161.753 267.035 162.004 267.016 162.274C266.977 162.796 267.035 163.452 266.861 163.953C266.494 164.996 266.494 166.154 267.035 167.119C267.286 167.582 267.865 167.582 268.212 167.987C268.598 168.45 268.482 169.184 268.926 169.666C269.081 169.84 269.351 169.859 269.525 170.014C269.698 170.149 269.814 170.323 269.988 170.477C270.412 170.863 270.818 171.365 271.416 171.403C271.976 171.442 272.555 171.461 273.114 171.538C273.558 171.596 274.35 172.059 274.774 171.673C274.986 171.461 274.967 171.075 275.315 170.959C275.43 170.921 275.527 170.979 275.643 170.959C275.778 170.94 275.797 170.844 275.951 170.824C276.183 170.786 276.434 170.921 276.646 170.882C276.897 170.844 277.071 170.786 277.341 170.786C277.727 170.766 278.055 170.38 278.345 170.129C278.499 169.994 278.634 169.879 278.789 169.782C279.001 169.666 279.31 169.608 279.483 169.454C279.561 169.377 279.561 169.242 279.618 169.203C279.734 169.126 279.85 169.126 279.966 168.991C280.178 168.759 280.255 168.373 280.448 168.122C280.776 167.717 280.989 167.157 281.027 166.598C281.066 165.98 281.124 165.382 281.162 164.764C281.182 164.475 281.24 164.108 280.931 163.973C280.68 163.857 280.294 163.992 280.12 164.185C280.236 163.51 280.275 162.738 280.178 162.081C280.12 161.753 280.082 161.502 280.024 161.174C279.947 161.136 279.908 161.078 279.908 160.981C279.927 160.885 279.927 160.769 279.947 160.673C279.927 160.518 279.869 160.364 279.773 160.229C279.406 159.707 278.885 159.071 278.711 158.472C278.576 158.028 278.634 157.585 278.229 157.256C277.881 156.986 277.553 156.986 277.148 156.89C276.357 156.697 275.604 156.484 274.793 156.407C274.427 156.388 274.079 156.349 273.713 156.33C273.404 156.311 272.941 156.176 272.632 156.253C272.381 156.311 272.284 156.581 272.072 156.639C271.937 156.677 271.725 156.677 271.609 156.697C271.281 156.755 270.953 156.716 270.605 156.697C269.698 156.677 269.563 157.353 269.177 158.144Z" fill="#00BCCC"/>
<path d="M271.3 162.448C271.358 162.448 271.397 162.448 271.455 162.467C270.779 162.699 270.914 163.645 270.856 164.262C270.818 164.61 270.856 164.841 270.972 165.15C271.204 165.71 271.667 166.057 272.207 166.231C272.381 166.289 272.458 166.366 272.69 166.385C272.902 166.405 273.095 166.405 273.307 166.424C273.674 166.462 274.002 166.385 274.35 166.308C274.388 166.231 274.446 166.192 274.543 166.192C274.639 166.192 274.755 166.212 274.851 166.231C275.025 166.231 275.064 166.192 275.199 166.134C275.527 166.019 275.816 165.922 275.99 165.633C276.164 165.362 276.299 164.996 276.357 164.648C276.434 164.146 276.376 163.722 276.299 163.259C276.222 162.738 276.164 162.506 275.778 162.139C275.411 161.811 275.315 161.406 274.851 161.213C274.234 160.943 273.269 160.981 272.632 161.097C272.362 161.136 272.323 161.116 272.13 161.251C272.014 161.329 271.918 161.425 271.802 161.502C271.551 161.657 271.628 161.522 271.474 161.811C271.358 162.004 271.339 162.178 271.281 162.39C271.242 162.429 271.339 162.448 271.3 162.448Z" fill="#45459B"/>
<path d="M260.222 154.747C259.797 154.825 259.585 154.882 259.334 155.211C259.199 155.404 259.045 155.597 258.91 155.77C258.774 155.963 258.697 156.195 258.562 156.369C258.369 156.639 258.215 156.716 258.388 157.025C258.504 157.256 258.543 157.198 258.504 157.507C258.485 157.72 258.466 157.932 258.466 158.125C258.427 158.549 258.466 159.09 258.331 159.495C258.041 160.344 258.041 161.29 258.466 162.101C258.678 162.467 259.141 162.467 259.431 162.815C259.739 163.181 259.643 163.799 260.01 164.185C260.145 164.32 260.357 164.339 260.492 164.455C260.627 164.552 260.743 164.706 260.878 164.822C261.226 165.15 261.554 165.536 262.036 165.575C262.499 165.594 262.963 165.613 263.426 165.671C263.792 165.71 264.449 166.096 264.777 165.787C264.95 165.613 264.95 165.285 265.221 165.208C265.317 165.169 265.394 165.227 265.491 165.208C265.607 165.189 265.626 165.111 265.742 165.092C265.915 165.073 266.128 165.169 266.321 165.15C266.533 165.111 266.668 165.073 266.9 165.073C267.209 165.054 267.479 164.745 267.73 164.532C267.845 164.436 267.961 164.32 268.096 164.243C268.27 164.146 268.521 164.108 268.656 163.973C268.714 163.915 268.714 163.799 268.772 163.76C268.868 163.683 268.965 163.703 269.061 163.587C269.235 163.394 269.293 163.085 269.467 162.873C269.737 162.525 269.911 162.081 269.93 161.618C269.968 161.116 270.007 160.615 270.046 160.113C270.065 159.881 270.104 159.572 269.853 159.457C269.66 159.36 269.332 159.476 269.196 159.63C269.293 159.071 269.332 158.453 269.235 157.913C269.196 157.642 269.158 157.43 269.119 157.179C269.061 157.141 269.023 157.102 269.023 157.025C269.042 156.948 269.042 156.851 269.061 156.774C269.061 156.639 269.003 156.523 268.926 156.407C268.637 155.983 268.193 155.461 268.058 154.979C267.942 154.612 268 154.246 267.672 153.995C267.402 153.782 267.112 153.782 266.784 153.705C266.147 153.551 265.51 153.377 264.854 153.319C264.564 153.3 264.275 153.281 263.985 153.261C263.735 153.242 263.368 153.145 263.117 153.203C262.924 153.242 262.847 153.474 262.654 153.532C262.538 153.57 262.364 153.57 262.268 153.589C261.998 153.628 261.747 153.609 261.457 153.589C260.647 153.551 260.55 154.11 260.222 154.747Z" fill="#00BCCC"/>
<path d="M261.978 158.279C262.017 158.279 262.055 158.279 262.094 158.279C261.534 158.472 261.65 159.244 261.612 159.746C261.592 160.036 261.612 160.209 261.708 160.48C261.882 160.923 262.268 161.213 262.712 161.367C262.847 161.406 262.924 161.483 263.117 161.502C263.291 161.522 263.445 161.522 263.619 161.541C263.908 161.56 264.198 161.502 264.487 161.445C264.526 161.387 264.564 161.348 264.642 161.348C264.719 161.348 264.815 161.367 264.893 161.387C265.028 161.387 265.066 161.348 265.182 161.309C265.452 161.213 265.684 161.136 265.819 160.904C265.954 160.673 266.07 160.383 266.128 160.093C266.205 159.688 266.147 159.341 266.089 158.955C266.031 158.53 265.973 158.337 265.665 158.048C265.375 157.777 265.298 157.449 264.893 157.295C264.371 157.083 263.599 157.102 263.078 157.198C262.866 157.237 262.827 157.218 262.654 157.314C262.557 157.372 262.48 157.469 262.384 157.527C262.171 157.662 262.248 157.546 262.113 157.777C262.017 157.951 261.998 158.067 261.959 158.26C261.92 158.26 262.017 158.279 261.978 158.279Z" fill="#45459B"/>
<path d="M270.007 148.571C269.582 148.649 269.37 148.706 269.119 149.035C268.984 149.228 268.83 149.421 268.695 149.594C268.56 149.787 268.482 150.019 268.347 150.193C268.154 150.463 268 150.54 268.174 150.849C268.289 151.08 268.328 151.023 268.289 151.331C268.27 151.544 268.251 151.756 268.251 151.949C268.212 152.373 268.251 152.914 268.116 153.319C267.826 154.168 267.826 155.114 268.251 155.925C268.463 156.291 268.926 156.291 269.216 156.639C269.525 157.005 269.428 157.623 269.795 158.009C269.93 158.144 270.142 158.163 270.277 158.279C270.412 158.376 270.528 158.53 270.663 158.646C271.011 158.974 271.339 159.36 271.821 159.399C272.284 159.418 272.748 159.437 273.211 159.495C273.577 159.534 274.234 159.92 274.562 159.611C274.735 159.437 274.736 159.109 275.006 159.032C275.102 158.993 275.179 159.051 275.276 159.032C275.392 159.013 275.411 158.935 275.527 158.916C275.7 158.897 275.913 158.993 276.106 158.974C276.318 158.935 276.453 158.897 276.685 158.897C276.994 158.878 277.264 158.569 277.515 158.356C277.63 158.26 277.746 158.144 277.881 158.067C278.055 157.97 278.306 157.932 278.441 157.797C278.499 157.739 278.499 157.623 278.557 157.584C278.653 157.507 278.75 157.527 278.846 157.411C279.02 157.218 279.078 156.909 279.252 156.697C279.522 156.349 279.696 155.905 279.715 155.442C279.753 154.94 279.792 154.439 279.831 153.937C279.85 153.705 279.889 153.396 279.638 153.281C279.445 153.184 279.117 153.3 278.981 153.454C279.078 152.895 279.117 152.277 279.02 151.737C278.982 151.466 278.943 151.254 278.904 151.003C278.846 150.965 278.808 150.926 278.808 150.849C278.827 150.772 278.827 150.675 278.846 150.598C278.846 150.463 278.788 150.347 278.711 150.231C278.422 149.807 277.978 149.285 277.843 148.803C277.727 148.436 277.785 148.07 277.457 147.819C277.187 147.606 276.897 147.606 276.569 147.529C275.932 147.375 275.295 147.201 274.639 147.143C274.35 147.124 274.06 147.105 273.771 147.085C273.52 147.066 273.153 146.969 272.902 147.027C272.709 147.066 272.632 147.298 272.439 147.355C272.323 147.394 272.149 147.394 272.053 147.413C271.783 147.452 271.532 147.433 271.242 147.413C270.432 147.375 270.316 147.915 270.007 148.571Z" fill="#3D96C7"/>
<path d="M271.744 152.103C271.783 152.103 271.821 152.103 271.86 152.103C271.3 152.296 271.416 153.068 271.377 153.57C271.358 153.86 271.377 154.033 271.474 154.304C271.648 154.747 272.034 155.037 272.477 155.191C272.613 155.23 272.69 155.307 272.883 155.326C273.056 155.346 273.211 155.346 273.385 155.365C273.674 155.384 273.964 155.326 274.253 155.269C274.292 155.211 274.33 155.172 274.407 155.172C274.485 155.172 274.581 155.191 274.658 155.211C274.793 155.211 274.832 155.172 274.948 155.133C275.218 155.037 275.45 154.96 275.585 154.728C275.72 154.497 275.836 154.207 275.894 153.918C275.971 153.512 275.913 153.165 275.855 152.779C275.797 152.354 275.739 152.161 275.43 151.872C275.141 151.601 275.064 151.273 274.658 151.119C274.137 150.907 273.365 150.926 272.844 151.022C272.632 151.061 272.593 151.042 272.42 151.138C272.323 151.196 272.246 151.293 272.149 151.351C271.937 151.486 272.014 151.37 271.879 151.602C271.783 151.775 271.763 151.891 271.725 152.084C271.705 152.084 271.783 152.103 271.744 152.103Z" fill="#45459B"/>
<path d="M286.296 160.306C285.872 160.383 285.659 160.441 285.408 160.769C285.273 160.962 285.119 161.155 284.984 161.329C284.849 161.522 284.771 161.753 284.636 161.927C284.443 162.197 284.289 162.274 284.463 162.583C284.579 162.815 284.617 162.757 284.578 163.066C284.559 163.278 284.54 163.49 284.54 163.683C284.501 164.108 284.54 164.648 284.405 165.054C284.115 165.903 284.115 166.848 284.54 167.659C284.752 168.026 285.215 168.026 285.505 168.373C285.814 168.74 285.717 169.357 286.084 169.743C286.219 169.879 286.431 169.898 286.566 170.014C286.701 170.11 286.817 170.265 286.952 170.38C287.3 170.708 287.628 171.094 288.11 171.133C288.574 171.152 289.037 171.172 289.5 171.23C289.867 171.268 290.523 171.654 290.851 171.345C291.025 171.172 291.025 170.844 291.295 170.766C291.391 170.728 291.469 170.786 291.565 170.766C291.681 170.747 291.7 170.67 291.816 170.651C291.99 170.631 292.202 170.728 292.395 170.708C292.607 170.67 292.742 170.631 292.974 170.631C293.283 170.612 293.553 170.303 293.804 170.091C293.92 169.994 294.036 169.879 294.171 169.801C294.344 169.705 294.595 169.666 294.73 169.531C294.788 169.473 294.788 169.357 294.846 169.319C294.943 169.242 295.039 169.261 295.136 169.145C295.309 168.952 295.367 168.643 295.541 168.431C295.811 168.084 295.985 167.64 296.004 167.177C296.043 166.675 296.081 166.173 296.12 165.671C296.139 165.44 296.178 165.131 295.927 165.015C295.734 164.918 295.406 165.034 295.271 165.189C295.367 164.629 295.406 164.011 295.309 163.471C295.271 163.201 295.232 162.988 295.194 162.738C295.136 162.699 295.097 162.66 295.097 162.583C295.116 162.506 295.116 162.409 295.136 162.332C295.136 162.197 295.078 162.081 295.001 161.966C294.711 161.541 294.267 161.02 294.132 160.537C294.016 160.171 294.074 159.804 293.746 159.553C293.476 159.341 293.186 159.341 292.858 159.264C292.221 159.109 291.584 158.935 290.928 158.878C290.639 158.858 290.349 158.839 290.06 158.82C289.809 158.8 289.442 158.704 289.191 158.762C288.998 158.8 288.921 159.032 288.728 159.09C288.612 159.128 288.438 159.128 288.342 159.148C288.072 159.186 287.821 159.167 287.531 159.148C286.74 159.109 286.624 159.669 286.296 160.306Z" fill="#00BCCC"/>
<path d="M288.053 163.838C288.091 163.838 288.13 163.838 288.168 163.838C287.609 164.031 287.724 164.803 287.686 165.305C287.667 165.594 287.686 165.768 287.782 166.038C287.956 166.482 288.342 166.771 288.786 166.926C288.921 166.964 288.998 167.042 289.191 167.061C289.365 167.08 289.519 167.08 289.693 167.099C289.983 167.119 290.272 167.061 290.562 167.003C290.6 166.945 290.639 166.906 290.716 166.906C290.793 166.906 290.89 166.926 290.967 166.945C291.102 166.945 291.141 166.906 291.256 166.868C291.527 166.771 291.758 166.694 291.893 166.463C292.028 166.231 292.144 165.941 292.202 165.652C292.279 165.247 292.221 164.899 292.163 164.513C292.106 164.089 292.048 163.896 291.739 163.606C291.449 163.336 291.372 163.008 290.967 162.853C290.446 162.641 289.674 162.66 289.153 162.757C288.94 162.796 288.902 162.776 288.728 162.873C288.632 162.931 288.554 163.027 288.458 163.085C288.246 163.22 288.323 163.104 288.188 163.336C288.091 163.51 288.072 163.625 288.033 163.818C287.995 163.818 288.091 163.838 288.053 163.838Z" fill="#45459B"/>
<path d="M276.415 162.602C275.99 162.68 275.778 162.738 275.527 163.066C275.392 163.259 275.237 163.452 275.102 163.625C274.967 163.818 274.89 164.05 274.755 164.224C274.562 164.494 274.407 164.571 274.581 164.88C274.697 165.111 274.736 165.054 274.697 165.362C274.678 165.575 274.658 165.787 274.658 165.98C274.62 166.405 274.658 166.945 274.523 167.35C274.234 168.199 274.234 169.145 274.658 169.956C274.871 170.322 275.334 170.322 275.623 170.67C275.932 171.037 275.836 171.654 276.202 172.04C276.337 172.175 276.55 172.195 276.685 172.31C276.82 172.407 276.936 172.561 277.071 172.677C277.418 173.005 277.746 173.391 278.229 173.43C278.692 173.449 279.155 173.468 279.618 173.526C279.985 173.565 280.641 173.951 280.969 173.642C281.143 173.468 281.143 173.14 281.413 173.063C281.51 173.024 281.587 173.082 281.684 173.063C281.799 173.044 281.819 172.967 281.934 172.947C282.108 172.928 282.32 173.024 282.513 173.005C282.726 172.967 282.861 172.928 283.092 172.928C283.401 172.909 283.671 172.6 283.922 172.388C284.038 172.291 284.154 172.175 284.289 172.098C284.463 172.002 284.714 171.963 284.849 171.828C284.907 171.77 284.907 171.654 284.965 171.616C285.061 171.538 285.158 171.558 285.254 171.442C285.428 171.249 285.486 170.94 285.659 170.728C285.93 170.38 286.103 169.936 286.123 169.473C286.161 168.971 286.2 168.47 286.238 167.968C286.258 167.736 286.296 167.427 286.045 167.312C285.852 167.215 285.524 167.331 285.389 167.485C285.486 166.926 285.524 166.308 285.428 165.768C285.389 165.497 285.351 165.285 285.312 165.034C285.254 164.996 285.215 164.957 285.215 164.88C285.235 164.803 285.235 164.706 285.254 164.629C285.254 164.494 285.196 164.378 285.119 164.262C284.829 163.838 284.386 163.317 284.25 162.834C284.135 162.467 284.193 162.101 283.864 161.85C283.594 161.637 283.305 161.637 282.977 161.56C282.34 161.406 281.703 161.232 281.047 161.174C280.757 161.155 280.468 161.136 280.178 161.116C279.927 161.097 279.561 161.001 279.31 161.058C279.117 161.097 279.039 161.329 278.846 161.387C278.731 161.425 278.557 161.425 278.46 161.445C278.19 161.483 277.939 161.464 277.65 161.445C276.839 161.387 276.723 161.946 276.415 162.602Z" fill="#00BCCC"/>
<path d="M278.152 166.134C278.19 166.134 278.229 166.134 278.267 166.134C277.708 166.327 277.824 167.099 277.785 167.601C277.766 167.891 277.785 168.064 277.881 168.335C278.055 168.778 278.441 169.068 278.885 169.222C279.02 169.261 279.097 169.338 279.29 169.357C279.464 169.377 279.618 169.377 279.792 169.396C280.082 169.415 280.371 169.357 280.661 169.3C280.699 169.242 280.738 169.203 280.815 169.203C280.892 169.203 280.989 169.222 281.066 169.242C281.201 169.242 281.24 169.203 281.355 169.164C281.626 169.068 281.857 168.991 281.992 168.759C282.127 168.528 282.243 168.238 282.301 167.949C282.378 167.543 282.32 167.196 282.263 166.81C282.205 166.385 282.147 166.192 281.838 165.903C281.548 165.633 281.471 165.304 281.066 165.15C280.545 164.938 279.773 164.957 279.252 165.054C279.039 165.092 279.001 165.073 278.827 165.169C278.731 165.227 278.653 165.324 278.557 165.382C278.345 165.517 278.422 165.401 278.287 165.633C278.19 165.806 278.171 165.922 278.132 166.115C278.094 166.115 278.19 166.115 278.152 166.134Z" fill="#45459B"/>
<path d="M297.143 153.088C296.718 153.165 296.506 153.223 296.255 153.551C296.12 153.744 295.966 153.937 295.83 154.11C295.695 154.303 295.618 154.535 295.483 154.709C295.29 154.979 295.136 155.056 295.309 155.365C295.425 155.597 295.464 155.539 295.425 155.847C295.406 156.06 295.387 156.272 295.387 156.465C295.348 156.89 295.387 157.43 295.251 157.835C294.962 158.685 294.962 159.63 295.387 160.441C295.599 160.808 296.062 160.808 296.352 161.155C296.66 161.522 296.564 162.139 296.931 162.525C297.066 162.66 297.278 162.68 297.413 162.795C297.548 162.892 297.664 163.046 297.799 163.162C298.146 163.49 298.475 163.876 298.957 163.915C299.42 163.934 299.883 163.953 300.347 164.011C300.713 164.05 301.37 164.436 301.698 164.127C301.871 163.953 301.871 163.625 302.142 163.548C302.238 163.51 302.315 163.567 302.412 163.548C302.528 163.529 302.547 163.452 302.663 163.432C302.836 163.413 303.049 163.51 303.242 163.49C303.454 163.452 303.589 163.413 303.821 163.413C304.129 163.394 304.4 163.085 304.651 162.873C304.766 162.776 304.882 162.66 305.017 162.583C305.191 162.487 305.442 162.448 305.577 162.313C305.635 162.255 305.635 162.139 305.693 162.101C305.789 162.023 305.886 162.043 305.982 161.927C306.156 161.734 306.214 161.425 306.388 161.213C306.658 160.865 306.831 160.422 306.851 159.958C306.889 159.457 306.928 158.955 306.967 158.453C306.986 158.221 307.024 157.913 306.774 157.797C306.581 157.7 306.252 157.816 306.117 157.97C306.214 157.411 306.252 156.793 306.156 156.253C306.117 155.983 306.079 155.77 306.04 155.519C305.982 155.481 305.944 155.442 305.944 155.365C305.963 155.288 305.963 155.191 305.982 155.114C305.982 154.979 305.924 154.863 305.847 154.747C305.558 154.323 305.114 153.802 304.979 153.319C304.863 152.952 304.921 152.586 304.593 152.335C304.322 152.123 304.033 152.123 303.705 152.045C303.068 151.891 302.431 151.717 301.775 151.659C301.485 151.64 301.196 151.621 300.906 151.601C300.655 151.582 300.289 151.486 300.038 151.544C299.845 151.582 299.768 151.814 299.575 151.872C299.459 151.91 299.285 151.91 299.189 151.93C298.918 151.968 298.668 151.949 298.378 151.93C297.567 151.891 297.452 152.451 297.143 153.088Z" fill="#3D96C7"/>
<path d="M298.88 156.62C298.918 156.62 298.957 156.62 298.996 156.62C298.436 156.813 298.552 157.585 298.513 158.086C298.494 158.376 298.513 158.55 298.61 158.82C298.783 159.264 299.169 159.553 299.613 159.708C299.748 159.746 299.825 159.823 300.018 159.843C300.192 159.862 300.347 159.862 300.52 159.881C300.81 159.901 301.099 159.843 301.389 159.785C301.427 159.727 301.466 159.688 301.543 159.688C301.62 159.688 301.717 159.708 301.794 159.727C301.929 159.727 301.968 159.688 302.084 159.65C302.354 159.553 302.585 159.476 302.721 159.244C302.856 159.013 302.971 158.723 303.029 158.434C303.106 158.028 303.049 157.681 302.991 157.295C302.933 156.87 302.875 156.677 302.566 156.388C302.277 156.118 302.199 155.79 301.794 155.635C301.273 155.423 300.501 155.442 299.98 155.539C299.768 155.577 299.729 155.558 299.555 155.655C299.459 155.712 299.382 155.809 299.285 155.867C299.073 156.002 299.15 155.886 299.015 156.118C298.918 156.291 298.899 156.407 298.86 156.6C298.822 156.6 298.918 156.62 298.88 156.62Z" fill="#45459B"/>
<path d="M293.109 168.643C292.685 168.721 292.472 168.778 292.221 169.107C292.086 169.3 291.932 169.493 291.797 169.666C291.662 169.859 291.584 170.091 291.449 170.265C291.256 170.535 291.102 170.612 291.276 170.921C291.391 171.152 291.43 171.094 291.391 171.403C291.372 171.616 291.353 171.828 291.353 172.021C291.314 172.445 291.353 172.986 291.218 173.391C290.928 174.24 290.928 175.186 291.353 175.997C291.565 176.363 292.028 176.363 292.318 176.711C292.627 177.077 292.53 177.695 292.897 178.081C293.032 178.216 293.244 178.236 293.379 178.351C293.514 178.448 293.63 178.602 293.765 178.718C294.113 179.046 294.441 179.432 294.923 179.471C295.387 179.49 295.85 179.509 296.313 179.567C296.68 179.606 297.336 179.992 297.664 179.683C297.838 179.509 297.838 179.181 298.108 179.104C298.204 179.065 298.282 179.123 298.378 179.104C298.494 179.085 298.513 179.007 298.629 178.988C298.803 178.969 299.015 179.065 299.208 179.046C299.42 179.007 299.555 178.969 299.787 178.969C300.096 178.95 300.366 178.641 300.617 178.428C300.733 178.332 300.848 178.216 300.984 178.139C301.157 178.042 301.408 178.004 301.543 177.869C301.601 177.811 301.601 177.695 301.659 177.656C301.756 177.579 301.852 177.599 301.949 177.483C302.122 177.29 302.18 176.981 302.354 176.769C302.624 176.421 302.798 175.977 302.817 175.514C302.856 175.012 302.894 174.511 302.933 174.009C302.952 173.777 302.991 173.468 302.74 173.353C302.547 173.256 302.219 173.372 302.084 173.526C302.18 172.967 302.219 172.349 302.122 171.809C302.084 171.538 302.045 171.326 302.006 171.075C301.949 171.037 301.91 170.998 301.91 170.921C301.929 170.844 301.929 170.747 301.949 170.67C301.949 170.535 301.891 170.419 301.813 170.303C301.524 169.879 301.08 169.357 300.945 168.875C300.829 168.508 300.887 168.142 300.559 167.891C300.289 167.678 299.999 167.678 299.671 167.601C299.034 167.447 298.397 167.273 297.741 167.215C297.452 167.196 297.162 167.177 296.873 167.157C296.622 167.138 296.255 167.041 296.004 167.099C295.811 167.138 295.734 167.37 295.541 167.427C295.425 167.466 295.251 167.466 295.155 167.485C294.885 167.524 294.634 167.505 294.344 167.485C293.534 167.447 293.418 168.006 293.109 168.643Z" fill="#00BCCC"/>
<path d="M294.846 172.175C294.885 172.175 294.923 172.175 294.962 172.175C294.402 172.368 294.518 173.14 294.479 173.642C294.46 173.932 294.479 174.105 294.576 174.376C294.75 174.819 295.136 175.109 295.579 175.263C295.715 175.302 295.792 175.379 295.985 175.398C296.158 175.418 296.313 175.418 296.487 175.437C296.776 175.456 297.066 175.398 297.355 175.341C297.394 175.283 297.432 175.244 297.51 175.244C297.587 175.244 297.683 175.263 297.76 175.283C297.896 175.283 297.934 175.244 298.05 175.205C298.32 175.109 298.552 175.032 298.687 174.8C298.822 174.569 298.938 174.279 298.996 173.99C299.073 173.584 299.015 173.237 298.957 172.851C298.899 172.426 298.841 172.233 298.532 171.944C298.243 171.674 298.166 171.345 297.76 171.191C297.239 170.979 296.467 170.998 295.946 171.095C295.734 171.133 295.695 171.114 295.522 171.21C295.425 171.268 295.348 171.365 295.251 171.423C295.039 171.558 295.116 171.442 294.981 171.674C294.885 171.847 294.865 171.963 294.827 172.156C294.788 172.156 294.885 172.175 294.846 172.175Z" fill="#45459B"/>
<path d="M249.124 207.108L241.597 171.731L296.892 175.707L284.405 209.656L249.124 207.108Z" stroke="#F1653A" stroke-width="0.8996" stroke-miterlimit="10" stroke-linecap="round" stroke-linejoin="round"/>
<path d="M246.191 190.105L289.77 193.251" stroke="#F1653A" stroke-width="0.8996" stroke-miterlimit="10" stroke-linecap="round" stroke-linejoin="round"/>
<path d="M280.062 174.472L273.134 208.633" stroke="#F1653A" stroke-width="0.8996" stroke-miterlimit="10" stroke-linecap="round" stroke-linejoin="round"/>
<path d="M257.423 172.831L259.392 207.649" stroke="#F1653A" stroke-width="0.8996" stroke-miterlimit="10" stroke-linecap="round" stroke-linejoin="round"/>
<path d="M246.307 31.073C247.484 30.7256 248.738 30.4747 249.935 30.7256C252.579 31.2853 254.451 33.2925 255.532 35.6664C256.053 36.7858 256.42 38.1175 255.86 39.2176C255.494 39.951 254.76 40.4528 254.451 41.1862C254.085 42.0354 254.316 43.0583 254.914 43.7724C255.185 44.0812 255.493 44.3514 255.725 44.6988C256.169 45.4129 255.995 46.4358 255.339 46.9762C252.753 49.1378 250.495 43.2899 250.63 41.4757C250.668 40.8774 250.823 40.2984 250.842 39.7001C250.9 38.6579 250.591 37.5578 249.8 36.8823C249.009 36.2068 247.716 36.1103 246.963 36.8244C246.075 37.6736 246.326 39.2176 247.059 40.2212C247.31 40.5493 247.6 40.8774 247.638 41.2827C247.696 41.7845 247.33 42.2284 246.924 42.5372C244.203 44.4865 240.439 41.4178 240.575 38.4649C240.71 35.126 243.238 31.9608 246.307 31.073Z" fill="#ED6636"/>
<path d="M255.802 48.1535C256.439 47.4008 257.616 47.1499 258.485 47.6131C259.353 48.0763 259.797 49.2343 259.431 50.1607C259.064 51.0871 257.925 51.6275 256.999 51.2994C256.767 51.2222 256.555 51.1064 256.381 50.952C255.532 50.2765 255.03 49.0799 255.802 48.1535Z" fill="#ED6636"/>
<path d="M356.201 31.4011C357.127 32.5977 357.976 33.9101 358.227 35.3962C358.768 38.6579 357.301 41.7266 355.062 44.0233C354.001 45.1041 352.65 46.127 351.144 45.9919C350.141 45.8954 349.253 45.2971 348.249 45.2585C347.111 45.2199 346.049 45.9533 345.489 46.9376C345.238 47.3815 345.084 47.864 344.775 48.2693C344.158 49.0799 342.903 49.3501 341.996 48.8483C338.368 46.8411 344.061 41.6494 346.184 40.9932C346.879 40.7809 347.632 40.6844 348.326 40.4528C349.542 40.0668 350.662 39.2176 351.086 38.0017C351.511 36.8051 351.048 35.2611 349.89 34.74C348.519 34.1031 346.86 35.0874 346.049 36.3612C345.779 36.7858 345.547 37.2683 345.103 37.4999C344.563 37.7894 343.868 37.5771 343.347 37.2297C339.892 34.9716 341.726 29.3167 345.181 28.1394C349.06 26.8077 353.808 28.2938 356.201 31.4011Z" fill="#F89B35"/>
<path d="M340.877 49.9098C342.035 50.2958 342.845 51.531 342.691 52.7469C342.536 53.9628 341.417 54.9664 340.201 54.9664C338.985 54.9664 337.866 53.9049 337.808 52.689C337.789 52.3995 337.847 52.11 337.924 51.8205C338.31 50.5467 339.468 49.4466 340.877 49.9098Z" fill="#F89B35"/>
<path d="M366.661 66.6815C366.603 67.8395 366.43 69.0361 365.831 70.0397C364.5 72.2399 362.107 73.2821 359.636 73.4944C358.478 73.6102 357.166 73.5137 356.355 72.6645C355.815 72.1048 355.602 71.2942 355.023 70.7731C354.387 70.1748 353.383 70.059 352.572 70.3678C352.206 70.5029 351.878 70.7152 351.492 70.7924C350.72 70.9661 349.851 70.4836 349.562 69.7309C348.442 66.7201 354.406 66.5464 355.969 67.2412C356.49 67.4728 356.973 67.7816 357.494 67.9939C358.401 68.3799 359.482 68.4378 360.35 67.9553C361.199 67.4728 361.701 66.3341 361.296 65.427C360.813 64.3655 359.347 64.0953 358.227 64.4427C357.861 64.5585 357.475 64.7322 357.089 64.6357C356.625 64.5199 356.336 64.0567 356.201 63.5935C355.313 60.5248 359.25 58.1316 361.856 59.1738C364.789 60.409 366.816 63.6707 366.661 66.6815Z" fill="#994396"/>
<path d="M348.346 69.8081C348.828 70.6187 348.674 71.7574 347.979 72.3943C347.284 73.0312 346.107 73.0505 345.393 72.4522C344.679 71.8539 344.544 70.6573 345.142 69.9046C345.277 69.7309 345.451 69.5765 345.644 69.4607C346.532 68.901 347.767 68.8431 348.346 69.8081Z" fill="#994396"/>
<path d="M449.072 193.965C449.072 193.965 448.802 193.965 448.783 193.965C439.152 193.965 429.541 193.965 419.91 193.965C413.908 193.965 407.905 193.965 401.922 193.965C399.915 193.965 397.908 193.965 395.901 193.965C392.697 193.965 385.382 193.984 385.382 193.984C385.382 193.984 386.425 191.61 386.907 190.356C387.39 189.101 388.451 187.963 389.802 187.808C391.192 187.654 392.716 188.522 393.932 187.828C395.438 186.978 395.939 183.639 397.117 182.231C399.722 179.085 404.644 177.463 408.002 179.779C410.106 181.227 411.167 183.871 413.329 185.222C418.675 188.58 426.356 182.115 431.741 185.415C432.995 186.187 433.922 187.403 435.196 188.117C437.454 189.391 440.252 188.889 442.838 188.986C445.425 189.063 448.86 191.379 449.072 193.965Z" stroke="#00BCCC" stroke-width="0.5732" stroke-miterlimit="10" stroke-linecap="round" stroke-linejoin="round"/>
<path d="M180.397 106.092H126.975C127.747 102.251 128.113 97.8703 130.603 94.8595C133.112 91.8487 137.802 90.2854 141.025 92.5049C143.032 93.8945 144.055 96.4228 146.14 97.7159C151.273 100.939 158.607 94.7244 163.78 97.8896C164.976 98.623 165.864 99.8003 167.099 100.476C169.261 101.711 171.944 101.209 174.414 101.306C176.904 101.402 180.185 103.622 180.397 106.092Z" fill="#00BCCC"/>
<path d="M277.573 55.97C278.46 56.1244 279.368 56.2595 280.255 56.3367C281.819 56.4911 283.401 56.6841 284.945 56.8771C285.833 56.9929 287.107 56.9736 287.782 57.5526C286.547 58.0158 285.177 58.0351 283.826 58.0351C284.424 58.2667 286.586 58.1509 286.933 58.6334C287.474 59.3668 285.852 59.4826 285.331 59.5212C283.691 59.6563 282.031 59.5405 280.39 59.6756C281.278 60.0423 282.648 59.9651 283.671 60.2353C283.594 62.3197 273.674 61.6635 272.69 61.567C271.319 61.4319 269.891 61.2196 268.54 60.9687C266.861 60.6599 265.24 60.2546 263.541 59.9458C263.001 59.8493 262.364 59.6756 262.19 59.1738C262.017 58.7106 262.326 58.2088 262.615 57.8228C265.684 53.654 270.374 54.3874 274.793 55.4103C275.701 55.6226 276.627 55.7963 277.573 55.97Z" fill="#45459B"/>
<path d="M323.777 141.527C324.144 141.025 324.472 140.504 324.742 139.964C325.61 138.323 326.826 136.895 328.602 136.142C330.455 135.351 332.655 135.486 334.488 136.355C336.322 137.223 337.769 138.806 338.657 140.62C339.178 141.701 339.526 142.936 339.255 144.113C338.927 145.503 337.808 146.545 336.746 147.471C328.891 154.419 320.689 160.962 312.197 167.099C311.888 167.331 311.309 167.717 311.193 168.103C311.02 168.624 311.483 169.107 311.309 169.608C311.039 170.4 309.379 169.743 308.742 169.705C307.314 169.608 305.963 169.029 304.612 168.605C303.705 168.315 302.759 168.219 301.852 167.852C300.887 167.466 299.999 167.119 298.957 166.81C299.517 166.964 301.871 165.227 302.431 164.899C303.608 164.224 304.747 163.529 305.828 162.718C308.182 160.981 309.919 158.762 311.734 156.504C314.725 152.759 317.717 149.015 320.708 145.29C321.712 144.055 322.831 142.839 323.777 141.527Z" fill="#45459B"/>
</g>
<defs>
<linearGradient id="paint0_linear" x1="400.25" y1="317.999" x2="444.844" y2="306.955" gradientUnits="userSpaceOnUse">
<stop stop-color="#2E2D76"/>
<stop offset="0.0868" stop-color="#33337E"/>
<stop offset="0.3244" stop-color="#3D3E8E"/>
<stop offset="0.5946" stop-color="#434597"/>
<stop offset="0.9649" stop-color="#45479A"/>
</linearGradient>
<linearGradient id="paint1_linear" x1="120.136" y1="339.558" x2="167.261" y2="290.869" gradientUnits="userSpaceOnUse">
<stop stop-color="#09BCCA"/>
<stop offset="0.0149" stop-color="#0EBCC6"/>
<stop offset="0.118" stop-color="#2DBEB1"/>
<stop offset="0.231" stop-color="#47BF9F"/>
<stop offset="0.3558" stop-color="#5AC192"/>
<stop offset="0.4986" stop-color="#68C188"/>
<stop offset="0.6749" stop-color="#71C283"/>
<stop offset="0.9854" stop-color="#73C281"/>
</linearGradient>
<linearGradient id="paint2_linear" x1="142.803" y1="313.156" x2="242.246" y2="313.156" gradientUnits="userSpaceOnUse">
<stop stop-color="#F16738"/>
<stop offset="0.052" stop-color="#F27037"/>
<stop offset="0.1956" stop-color="#F58336"/>
<stop offset="0.3625" stop-color="#F79136"/>
<stop offset="0.5727" stop-color="#F89935"/>
<stop offset="0.9649" stop-color="#F89B35"/>
</linearGradient>
<linearGradient id="paint3_linear" x1="192.792" y1="256.93" x2="386.611" y2="450.748" gradientUnits="userSpaceOnUse">
<stop stop-color="#71BE7D"/>
<stop offset="0.1951" stop-color="#76BF79"/>
<stop offset="0.4352" stop-color="#85C36C"/>
<stop offset="0.699" stop-color="#9ECA56"/>
<stop offset="0.978" stop-color="#C1D339"/>
<stop offset="1" stop-color="#C4D436"/>
</linearGradient>
<clipPath id="clip0">
<rect width="579" height="386" fill="white"/>
</clipPath>
</defs>
</svg>
