<svg width="89" height="90" fill="none" xmlns="http://www.w3.org/2000/svg"><g clip-path="url(#a)"><path d="M71.182 49.515c-.842-2.106-1.684-3.978-3.65-4.165-1.825-.187-3.604 1.544-3.978 3.837-.328 2.06.094 4.306.374 6.318.421 2.621.75 5.055.843 7.675.047.936.094 1.92.094 2.855.046 3.136.046 6.271.14 9.407.047 2.387.14 4.774.234 7.16 0 .655.046 1.264.093 1.92a54.426 54.426 0 0 0 3.557-2.107c.234-1.919.468-3.838.656-5.756.327-3.183.654-6.365 1.029-9.547.468-4.025.936-8.003 1.45-12.028.094-.749.188-1.544.141-2.34-.187-1.123-.562-2.2-.983-3.229Z" fill="#45459B"/><path d="M60.418 45.349c-1.965.234-2.807 2.059-3.65 4.165-.421 1.03-.796 2.106-.89 3.276-.046.796.048 1.544.141 2.34.468 4.025.936 8.003 1.451 12.028.375 3.182.655 6.364 1.03 9.547a366.51 366.51 0 0 0 1.263 10.343c.983-.375 1.966-.75 2.949-1.217 0-1.077.046-2.153.093-3.23.094-2.386.187-4.773.234-7.16.094-3.136.094-6.27.14-9.407 0-.982.047-1.919.094-2.855.094-2.667.422-5.054.842-7.675.328-2.012.75-4.258.375-6.318-.468-2.293-2.246-4.071-4.072-3.837ZM70.808 32.946a8.796 8.796 0 0 0 2.06 2.995c.046-.748.093-1.45.14-2.2.047-.42.047-.888.093-1.31.094-1.918.702-3.93-.796-5.241-.327-.281-.701-.468-1.123-.655-.234-.094-.467-.234-.701-.328-.515 2.246-.515 4.633.327 6.74ZM54.522 28.97c-.936 1.497-1.872 2.994-2.715 4.539-.093.187-.234.42-.328.608-.187.328-.374.655-.514.983-.796 1.45-1.638 3.416-1.03 5.054.281.75 1.124 1.264 1.825.89.282-.14.515-.468.75-.75a42.396 42.396 0 0 0 4.726-7.628c.515-1.03.983-2.106.983-3.229 0-1.497-1.17-2.948-2.48-1.919-.515.375-.89.89-1.217 1.451Z" fill="#45459B"/><path d="M63.18 63.18c.093-2.668.42-5.055.842-7.675.328-2.013.749-4.26.375-6.319-.375-2.293-2.2-4.071-3.979-3.837-1.965.234-2.807 2.059-3.65 4.165-.421 1.03-.796 2.106-.889 3.276-.047.796-.187 1.966-.187 2.715.093 2.527.421 9.406.795 16.145 2.247 1.17 4.26.609 6.552-.14 0-1.825.047-3.604.047-5.429.047-.983.094-1.919.094-2.902Z" fill="#9A4197"/><path d="M56.534 71.65c.047.75.094 1.451.14 2.2 2.247 1.31 4.212.89 6.365.187 0-.842 0-1.685.047-2.527-2.293.702-4.305 1.31-6.552.14Z" fill="#AB59A2"/><path d="M71.463 63.18c.094-2.668.422-5.055.842-7.675.328-2.013.75-4.26.375-6.319-.375-2.293-2.2-4.071-3.978-3.837-1.966.234-2.808 2.059-3.65 4.165-.422 1.03-.796 2.106-.89 3.276-.047.796-.187 1.966-.187 2.715.094 2.527.421 9.406.796 16.145 2.246 1.17 4.258.609 6.552-.14 0-1.825.047-3.604.047-5.429.046-.983.093-1.919.093-2.902Z" fill="#9A4197"/><path d="m64.818 71.65.14 2.2c2.246 1.31 4.212.89 6.365.187 0-.842 0-1.685.047-2.527-2.294.702-4.306 1.31-6.552.14Z" fill="#AB59A2"/><path d="M70.808 32.947c-.843-2.106-.89-4.493-.374-6.693a14.415 14.415 0 0 0-1.264-.514l-.842-.281c0 .047-.047.093-.047.14 0-.047.047-.093.047-.14-.047 0-.094-.047-.188-.047 0 .28.047.562 0 .842-.374 2.2-3.51 1.966-5.054 1.358-.749-.328-1.45-.89-1.731-1.638-.094-.188-.094-.422-.141-.609-.14.047-.234.047-.374.094-.047 0-.094.047-.188.047-1.216.374-2.433.842-3.603 1.263.796 3.604.14 7.488-1.732 10.624.14 5.616.188 11.138.188 16.52 0 .047 2.994.28 3.229.328 1.59.14 3.229.187 4.82.187 2.106 0 4.118-.328 6.224-.328.14 0 .328 0 .468-.093.375-.188 1.31-1.545 1.498-1.966.468-1.03.234-2.855.328-3.978.187-2.901.374-5.803.514-8.751.047-1.077.14-2.2.188-3.323-.796-.89-1.498-1.919-1.966-3.042Z" fill="#F89C33"/><path d="M63.133 27.566c1.544.655 4.68.842 5.054-1.357a2.56 2.56 0 0 0 0-.843c-1.732-.515-3.51-.796-5.195-.515a12.24 12.24 0 0 0-1.778.422c.047.187.094.42.14.608.328.796.983 1.357 1.779 1.685ZM57.096 26.723c-.14.046-.281.093-.468.187-.468.234-.983.468-1.217.983-.515 1.03-.422 1.965-.328 3.042.14 1.357.094 2.76.14 4.071.047.796.047 1.591.047 2.34 2.013-3.135 2.621-7.02 1.826-10.623ZM40.81 32.995c-.469-.14-.937-.234-1.264-.14-.328.14-.328.467-.14.795.187.327.56.608.889.889 1.637 1.31 3.228 2.667 4.867 3.978 1.31 1.076 2.901 1.965 4.446 2.667.889.375 1.684.468 2.48-.28.515-.468 1.264-1.451.795-2.153-.514-.702-2.527-1.685-3.416-2.2a43.253 43.253 0 0 0-8.658-3.556Z" fill="#45459B"/><path d="M39.312 30.98c-.702-.748-1.638-1.357-2.761-1.544-.328-.047-.656-.047-.937.14-.233.188-.327.515-.28.796.046.281.234.515.42.749a6.887 6.887 0 0 0 1.639 1.45c-.374.047-.702.048-1.077.094.234.281.562.422.89.562l2.527.983c.796.28 1.498 0 1.264-.843-.234-.795-1.077-1.731-1.685-2.386ZM73.757 28.315c1.216 1.263 2.433 2.527 3.603 3.837.14.188.328.375.468.562l.702.842c1.076 1.264 2.34 2.996 2.106 4.727-.093.796-.842 1.498-1.591 1.264-.328-.094-.609-.328-.89-.562a45.119 45.119 0 0 1-6.27-6.411c-.703-.89-1.404-1.872-1.639-2.995-.28-1.451.515-3.136 2.013-2.434.562.28 1.03.655 1.498 1.17Z" fill="#45459B"/><path d="M38.61 25.973c.047-.094.093-.187.187-.234.328-.234.796.093.983.468.562.982.515 2.2.328 3.37-.281 1.684-.75 3.369-1.498 4.866-.28.515-.562 1.03-1.077 1.358-2.48 1.684-1.59-2.762-1.404-3.838a18.25 18.25 0 0 1 2.48-5.99Z" fill="#FFE400"/><path d="M38.61 30.326c-.14-.14-.328-.234-.468-.187-.094.375.093.749.28 1.03.375.514.796.936 1.311 1.31.047.047.094.094.187.094.094 0 .187-.094.234-.234.047-.655-1.123-1.591-1.544-2.013Z" fill="#45459B"/><path d="M61.448 12.075c.047-.047.047-.047 0 0 .094-.094.187-.14.281-.094.093.047.14.187.14.28 0 .188-.047.329 0 .469.422-.562.796-1.123 1.404-1.498.094-.046.188-.093.281-.093.14 0 .234.187.281.327 0 .14-.047.328-.14.468.187-.234.42-.42.702-.608.093-.047.187-.094.28-.094.188 0 .281.188.328.328.047.187 0 .327-.047.515.328-.14.655-.281 1.03-.328.28-.047.655-.047.842.187.188.234.28.655 0 .796.328-.14.702-.328 1.076-.375.375-.046.796.094 1.03.422.094.187.14.42.187.608.047.562.047 1.123-.14 1.685.328-.328.89-.094 1.123.28.187.375-.047.89.14 1.17.14.235.515.141.75.422.186.28.186.608.14.89-.094.654-.328 1.356-.702 1.918.14 0 .234 0 .374-.047h.094c.046 0 .046.047.046.094.188.842-.982 1.404-1.637 1.216.093-.093.187.094.187.188.047.28.047.608 0 .842-.094.28-.281.562-.515.608-.28.094-.608-.093-.608-.42.046.467-.234.935-.656 1.122-.187.094-.468.047-.514-.187-.141.421-.515.702-.937.749-.187.047-.42-.047-.374-.234-.328.234-.702.374-1.076.328-.375-.047-.702-.422-.656-.796-.234.28-.608.421-.936.328-.327-.094-.561-.515-.374-.843-.374.609-1.17.89-1.778.375-.14-.094-.234-.234-.234-.375-.047-.14.046-.327.187-.374a1.775 1.775 0 0 1-.702 0c-.655-.187-.328-1.077.14-.796-.561-.093-1.123-.234-1.544-.608-.421-.375-.562-1.123-.187-1.545-.515-.187-.89-.608-1.077-1.123-.046-.14-.046-.28 0-.374a.478.478 0 0 1 .281-.234c.281-.14.608-.187.936-.187a1.478 1.478 0 0 1-.889-1.077c-.047-.14-.047-.28.047-.374a.53.53 0 0 1 .374-.14c.422 0 .89.046 1.31.14-.561-.14-.982-.749-.889-1.357 0-.094.047-.234.094-.328.14-.187.328-.234.561-.187.188.047.375.14.516.28-.188-.28-.422-.748 0-.982.187-.094.42-.094.654 0 .094.047.234.093.328.047-.187-.14-.328-.328-.515-.468l-.093-.094c-.047-.14.14-.234.28-.187.188 0 .375.093.515.234.047 0 .047.047.094.047s.047-.094.047-.14c0-.282 0-.516.047-.75.046.047.093 0 .093-.046Z" fill="#00BCCC"/><path d="M66.362 21.2c.14 1.684.187 3.416.14 5.147 0 .14 0 .281-.093.375-.094.14-.187.14-.328.187-1.03.14-2.059.047-3.042-.375a.8.8 0 0 1-.421-.374.792.792 0 0 1 0-.468 20.66 20.66 0 0 0 0-4.165l3.744-.328Z" fill="#45459B"/><path d="M61.12 19.328c.047.983.14 2.013.656 2.855.608 1.03 1.825 1.591 3.042 1.638.749.047 1.544-.093 2.059-.655.328-.328.515-.749.655-1.217.562-1.731.702-3.557.328-5.335-.14-.796-.422-1.544-.983-2.106-1.404-1.45-3.931-.842-5.101.609-1.03 1.263-.75 2.714-.655 4.211Z" fill="#45459B"/><path d="M68.655 18.486c.094 0 .14 0 .234.047s.14.094.187.187c.14.234.14.468.094.75-.047.233-.188.42-.28.608-.048.093-.141.233-.188.327-.14.187-.281.421-.468.515-.187.093-.515.093-.609-.14-.046-.094-.046-.14-.046-.235-.187-.748.046-2.059 1.076-2.059ZM60.512 18.486c-.094 0-.14 0-.234.047a.366.366 0 0 0-.187.187c-.14.234-.14.468-.093.75.046.233.187.42.28.608.047.093.14.233.187.327.141.187.281.421.468.515.188.093.515.093.609-.14.046-.094.046-.14.046-.235.141-.748-.093-2.059-1.076-2.059Z" fill="#45459B"/><path d="M70.48 29.671c0-.093 0-.234.094-.327.187-.375.796-.281 1.17-.047 1.03.655 1.544 1.825 1.919 2.995.562 1.732.936 3.51.936 5.288 0 .609-.047 1.264-.328 1.826-1.497 2.808-2.855-1.825-3.135-2.902-.655-2.246-.89-4.586-.655-6.833ZM57.985 36.27c-.047-.094-.094-.188-.094-.328 0-.422.562-.609 1.03-.562 1.217.14 2.2.983 3.042 1.825 1.264 1.264 2.387 2.715 3.182 4.353.281.561.515 1.17.515 1.778-.093 3.182-3.37-.374-4.118-1.217-1.545-1.731-2.761-3.697-3.557-5.85Z" fill="#FFE400"/><path d="m56.394 38.938-.14-.28c-.048-.422.467-.703.888-.703 1.217-.046 2.34.609 3.277 1.31 1.45 1.077 2.76 2.34 3.837 3.792.374.514.702 1.076.749 1.684.374 3.136-3.417.14-4.259-.561a20.635 20.635 0 0 1-4.352-5.242ZM65.566 31.543a.675.675 0 0 1-.093-.327c-.047-.421.468-.609.889-.609 1.123.047 2.2.843 3.089 1.592 1.357 1.17 2.574 2.527 3.51 4.071.327.515.608 1.077.655 1.685.28 3.136-3.23-.187-4.025-.936-1.638-1.544-2.995-3.416-4.025-5.476Z" fill="#FFE400"/><path d="M61.26 33.555a.675.675 0 0 1-.093-.328c-.046-.42.468-.608.89-.608 1.123.047 2.2.843 3.088 1.591 1.358 1.17 2.574 2.527 3.51 4.072.328.515.609 1.076.656 1.685.28 3.135-3.23-.188-4.025-.936-1.638-1.545-2.995-3.417-4.025-5.476Z" fill="#FCB813"/><path d="M62.197 34.959v-.328c.094-.421.655-.421 1.03-.234 1.03.468 1.731 1.544 2.293 2.574.842 1.591 1.498 3.276 1.825 5.055.093.608.187 1.263.047 1.825-.843 2.995-2.949-1.31-3.417-2.294-.889-2.105-1.544-4.352-1.778-6.598Z" fill="#FFE400"/><path d="M80.449 49.795c-.983 1.638-2.855 2.902-4.26 3.838-1.59 1.076-3.462 1.825-5.428 1.825-2.667-.047-4.68-1.732-6.13-3.837a59.131 59.131 0 0 1-2.902-4.634c-.328-.608-.609-1.217-.936-1.825-.188-.327-1.077-1.685-1.03-2.012.047-.281.28-.422.515-.562.983-.468 1.825-1.17 2.761-1.685 1.217-.655 2.34-1.357 3.51-2.106 2.34-1.45 4.727-2.948 7.348-3.837.187-.047 1.825 2.574 2.012 2.901 1.263 1.919 2.48 3.885 3.463 5.944.936 1.965 2.247 3.978 1.077 5.99Z" fill="#00BCCC"/><path d="M65.894 17.831c.14.047.28.047.374.047.234 0 .468.093.702.234.188.094.422.187.468-.094.047-.187-.093-.234-.234-.327a1.678 1.678 0 0 0-1.123-.421c-.093 0-.234 0-.328.046-.234.094-.093.422.14.515ZM63.367 17.831c-.14.047-.28.047-.375.047-.234 0-.467.093-.701.234-.188.094-.422.187-.469-.094-.046-.187.094-.234.234-.327.328-.281.702-.421 1.123-.421.094 0 .235 0 .328.046.234.094.094.422-.14.515Z" fill="#45459B"/><path d="M60.185 45.301c.233.094.467-.047.654-.14.469-.28.983-.561 1.452-.796.795-.42 1.544-.889 2.34-1.31 1.076-.608 2.2-1.217 3.275-1.825 1.451-.842 2.949-1.638 4.4-2.48 1.03-.609 2.106-1.17 3.135-1.779.14-.093.281-.14.328-.28.046-.141 0-.281-.047-.422a4.116 4.116 0 0 0-1.123-1.685c-.515-.514-9.08 4.727-10.437 5.476a61.284 61.284 0 0 0-4.212 2.387c-.234.14-.935.421-1.03.702-.093.234.141.655.235.842.187.468.468 1.123 1.03 1.31Z" fill="#F1653A"/><path d="M62.384 16.006c.374.187.936.514 1.357.514.609 0 .328-.655 0-.936.515.422 1.03.89 1.638 1.217.281.14.655.328.983.234.421-.093.28-.374.093-.749a1.4 1.4 0 0 0 1.264.843c-.14.468-.094.936-.14 1.404 0 .187 0 .468.187.561.14.094.328 0 .421-.14.094-.14.14-.28.188-.468.14-.702.14-1.45.046-2.153a5.384 5.384 0 0 0-.187-.842c-.187-.421-.515-.75-.89-1.03-.467-.374-.935-.749-1.497-.983-.842-.374-1.778-.374-2.667-.046-.609.233-1.31.655-1.685 1.216-.374.562.14 1.03.889 1.358Z" fill="#00BCCC"/><path d="M61.916 17.317c0 .234-.187.515-.468.328-.14-.094-.234-.281-.28-.422.187.468.28.983.28 1.451 0 .047 0 .14-.047.187-.046.094-.187.094-.28.047-.094-.047-.14-.14-.188-.234-.28-.608-.515-1.217-.608-1.872-.047-.515.093-2.153 1.03-1.778.561.234.561.936.561 1.45 0 .281-.047.562 0 .843Z" fill="#00BCCC"/><path d="M62.478 19.422c.103 0 .187-.188.187-.42 0-.233-.084-.422-.187-.422-.104 0-.188.189-.188.421 0 .233.084.421.188.421ZM65.847 19.376c.103 0 .188-.189.188-.422 0-.232-.085-.42-.188-.42s-.187.188-.187.42c0 .233.084.422.187.422Z" fill="#000"/><path d="M63.04 19.749c-.095.14-.282.28-.422.234-.047 0-.093-.047-.14 0-.047 0-.14.047-.14.14 0 .047 0 .14.046.188a.73.73 0 0 0 .374.28c.141.047.328 0 .468-.047.14-.046.281-.093.375-.187.187-.187.234-.468.234-.702 0-.187 0-.842-.328-.655-.14.047-.14.28-.234.375-.047.14-.14.233-.234.374Z" fill="#F89C33"/><path d="M63.46 21.387c.094.093.14.187.281.234.094.046.234.046.374 0a.478.478 0 0 0 .235-.281" stroke="#000" stroke-width=".506" stroke-miterlimit="10" stroke-linecap="round" stroke-linejoin="round"/><path d="M69.358 45.114c-.422.14-.937.328-1.264.234-.328-.093-.375-.468-.187-.795.187-.328.514-.656.842-.983 1.498-1.45 3.042-2.855 4.54-4.306 1.216-1.17 2.76-2.2 4.258-2.995.843-.421 1.638-.515 2.434.047.749.562.889 1.264.608 2.2-.42 1.17-1.872 1.731-2.808 2.386-2.667 1.685-5.522 3.136-8.423 4.212Z" fill="#45459B"/><path d="M67.766 47.22c-.374.421-.749.796-1.124 1.217-.14.14-.514.515-.561.14-.047-.187.234-.468.328-.655l.702-1.123-.422.42c-.187.188-.935 1.03-1.17 1.078-.234.046-.234-.141-.14-.328.093-.14.187-.328.328-.468.28-.421.561-.796.842-1.17l.14-.14-.28.28c-.421.468-.983.89-1.498 1.264-.093.047-.374.234-.42.093-.048-.14.28-.514.374-.608.327-.421.748-.796 1.076-1.217.047-.047.047-.093.047-.093-.375.28-.75.514-1.123.748-.188.14-.562.515-.796.281-.234-.234.749-.842.889-.983.749-.561 1.357-1.216 2.012-1.825-.468.187-.982.421-1.498.468h-.14c-.093-.047-.093-.234 0-.327.234-.375.703-.468 1.123-.515.515-.047 1.03-.094 1.498-.094.421 0 .936-.046 1.31.14.562.328.281 1.17 0 1.592-.468.608-.982 1.263-1.497 1.825Z" fill="#45459B"/><path d="M67.953 2.106 64.396.046c-.047-.046-.093-.046-.14 0l-3.557 2.06c-.047.047-.093.094-.093.14v4.072c0 .047.046.094.093.14l3.557 2.06h.187L68 6.458c.047-.046.094-.093.094-.14V2.293a.646.646 0 0 0-.14-.187Z" fill="#F1653A"/><path d="m66.737 2.855-2.34-1.357h-.094l-2.34 1.357c-.047 0-.047.047-.047.094v2.714c0 .047 0 .094.047.094l2.34 1.357h.094l2.34-1.357c.046 0 .046-.047.046-.094V2.95c0-.047 0-.047-.046-.094ZM64.35 8.517V7.113M64.35 1.498V.094M68 6.411s-.468-.28-1.217-.702M61.916 2.901C61.167 2.48 60.7 2.2 60.7 2.2M68.047 2.246s-.468.28-1.217.702M61.87 5.662c-.75.421-1.218.702-1.218.702" stroke="#BC4F2C" stroke-width=".357" stroke-miterlimit="10" stroke-linecap="round" stroke-linejoin="round"/><path d="M59.295 86.766V90H63c0-1.077-.008-6.463.133-7.492-1.498 0-3.042.047-4.54.047.094 1.404.609 2.807.702 4.211ZM65 89.999h4.217c-.717-5.5-.047-7.913 0-7.96a25.952 25.952 0 0 0-4.68.28c0 .843.416 6.79.463 7.68Z" fill="#261F5F"/><path d="M24.008 39.874c-.374 2.152-.187 4.398.468 6.505a41.358 41.358 0 0 1-3.37.42c-.234 0-.514.048-.748-.093-.281-.187-.328-.608-.328-.983a17.538 17.538 0 0 1 1.217-6.739l2.761.89Z" fill="#F1653A"/><path d="M28.875 60.98c.047-1.404.047-2.808.047-4.212-.047-2.808-.14-5.663-.421-8.47-.047-.703-.14-1.404-.562-1.966-.28-.374-.748-.608-1.17-.796-1.17-.514-2.34-.983-3.603-1.263-2.012-.421-4.025.14-5.85.936-.187.093-.374.14-.562.234-.468.234-.936.515-1.31.889-1.638 1.544-1.919 5.101-2.34 7.207C11.887 59.81 9.624 83.682 8.5 90h23c.094-.046-.5-1 1.307-2.016 1.357-.468 2.62-1.17 3.837-1.825-2.059-4.025-3.79-8.237-5.241-12.543-1.357-3.978-2.668-8.33-2.527-12.636Z" fill="#00BCCC"/><path d="M21.06 40.014c.842.375 1.731.562 2.62.703.656.093 1.639.233 2.247.046.421-.14.374-.234.374-.655.047-.936-.046-1.825-.187-2.761-.234-1.404-.796-2.855-1.919-3.697-.702-.562-1.638-.796-2.527-.843-.842-.046-1.732.094-2.387.562-1.17.795-1.497 2.434-1.076 3.744.421 1.31 1.544 2.34 2.855 2.901ZM33.181 57.798c.187.702.14 1.357-.374 1.732-.375.28-.796.374-1.217.514-.281.094-.609.141-.89.094-.327-.094-.514-.327-.701-.608-2.153-2.996-3.464-6.833-4.353-10.39-.234-.982-.047-3.93 2.013-2.948.842.374 1.216 1.638 1.59 2.386.469.89.937 1.826 1.358 2.762.655 1.45 1.264 2.901 1.778 4.4.188.467.609 1.262.796 2.058Z" fill="#F1653A"/><path d="M34.632 58.033c.842-1.123 1.357-2.434 2.106-3.65.468-.796.983-1.498 1.45-2.247.188-.327 1.124-1.638.75-2.012a.357.357 0 0 0-.188-.094c-.421-.093-.842.187-1.217.422-.795.514-1.59 1.123-2.386 1.684-.843.609-1.638 1.217-2.387 1.919-1.404 1.217-2.808 2.761-2.855 4.633-.094 3.136 3.79.515 4.727-.655Z" fill="#F1653A"/><path d="M41.558 47.502c.094-.047.234-.094.328-.047.093.047.234.14.187.234l-.14.14c-.328.234-.656.468-1.03.703-.094.093-.234.14-.28.28-.048.094-.048.234-.048.375.047.561.047 1.216-.374 1.59-.14.141-.328.235-.515.282-.468.187-1.217.748-1.778.42-.468-.28-.421-.795-.187-1.216.795-1.264 2.527-2.246 3.837-2.761Z" fill="#F1653A"/><path d="M24.663 37.019c-.187.234-.561.421-.795.28-.094-.046-.14-.186-.234-.233-.328-.281-.843.234-.749.655.094.421.468.702.796.983 1.17 1.076 1.825 2.62 1.731 4.212 0 .28-2.901.842-3.229.889-1.076.187-2.2.327-3.323.28-2.714-.093-5.382-1.263-7.3-3.182.234-1.17 1.03-2.246 2.106-2.76.374-.188.842-.328 1.076-.703.234-.374.234-.842.28-1.263.188-1.872 1.966-3.23 3.651-3.791 1.779-.609 3.65-.234 5.289.515 1.404.655 1.731 2.901.701 4.118Z" fill="#F89C33"/><path d="M34.725 57.705c.047.702-.093 1.404-.234 2.106a11.328 11.328 0 0 1-3.088 5.382c-.094.094-.188.14-.281.14-.094 0-.14-.093-.234-.187-1.545-2.059-2.387-4.492-3.23-6.926-.608-1.825-1.216-3.697-1.731-5.57-.374-1.45-.983-3.134-.842-4.632.093-.796.514-2.106 1.45-2.247 1.124-.187 1.779.89 2.2 1.779.328.655.702 1.31 1.03 1.966a85.965 85.965 0 0 1 2.246 4.68c.374-.235.842.093 1.17.42.515.515.983 1.124 1.264 1.826.187.421.28.842.28 1.263ZM12.683 49.14c-1.077 1.638-1.638 3.51-2.574 5.195-.983 1.779-2.013 3.51-3.323 5.055-.047.047-.094.14-.14.234 0 .046 0 .14.046.187.75 1.872 1.966 3.182 3.557 4.306.515.374 1.03.701 1.544 1.029.375.234.75.468 1.17.515.89.093 1.639-.562 2.2-1.217 3.65-4.119 5.008-9.828 4.867-15.304-.047-1.544-.327-4.54-2.62-3.93-1.873.467-3.698 2.34-4.727 3.93Z" fill="#00BCCC"/><path d="M35.053 79.233c.187.843.234 1.872-.468 2.34-.608.421-1.497.047-2.2.234-.327.094-.608.28-.889.421-1.31.796-2.901 1.404-4.352.936-1.076-.328-1.872-1.17-2.434-2.152-.514-.983-.748-2.106-.936-3.183-.093-.702-.187-1.451.188-2.059.374-.608 1.123-.936 1.825-1.123 1.638-.515 5.288-1.732 6.833-.843 1.638.89 2.105 3.79 2.433 5.43Z" fill="#45459B"/><path d="M24.85 76.142c-1.871-1.685-3.088-4.071-4.258-6.27a41.5 41.5 0 0 1-1.872-3.838c-2.621-6.178-4.025-13.853-2.153-20.452M34.772 76.94c-1.404 1.264-3.416 1.544-5.288 1.778-.796.094-1.685.187-2.434-.093-1.03-.421-1.684-1.498-2.2-2.48.047.701-.327 1.45-.982 1.778" stroke="#FFCE34" stroke-width="1.175" stroke-miterlimit="10" stroke-linecap="round" stroke-linejoin="round"/><path d="M31.122 79.139c-.094-.328-.328-1.03-.187-1.357.093-.28.42-.14.561.047.281.327.281.936.281 1.357 0 .14-.047.327-.14.374-.234.094-.468-.187-.515-.421Z" fill="#FFCE34"/><path d="M20.077 28.828c2.016 0 3.65-2.263 3.65-5.055 0-2.791-1.634-5.054-3.65-5.054s-3.65 2.263-3.65 5.054c0 2.792 1.634 5.055 3.65 5.055Z" fill="#00BCCC"/><path d="M20.077 26.957c1.267 0 2.293-1.425 2.293-3.183 0-1.757-1.026-3.182-2.293-3.182-1.266 0-2.293 1.425-2.293 3.182 0 1.758 1.027 3.183 2.293 3.183Z" stroke="#008793" stroke-width=".423" stroke-miterlimit="10" stroke-linecap="round" stroke-linejoin="round"/><path d="M17.456 20.217c.188.28.515.749.936 1.31M21.668 26.066c.421.609.796 1.077.936 1.31M17.41 27.285c.187-.28.561-.749.982-1.357M21.668 21.436c.421-.562.749-1.03.936-1.264" stroke="#008793" stroke-width=".423" stroke-miterlimit="10" stroke-linecap="round" stroke-linejoin="round"/></g><defs><clipPath id="a"><path fill="#fff" d="M0 0h88.732v90H0z"/></clipPath></defs></svg>