<svg xmlns="http://www.w3.org/2000/svg" viewBox="0 0 84.29 79.06"><defs><style>.cls-1{fill:#00bdcd;}.cls-2{fill:#8acc9e;}.cls-3{fill:#f2663b;}.cls-4{fill:#292929;}.cls-5{fill:#45469b;}.cls-6{fill:none;stroke:#292929;stroke-linecap:round;stroke-linejoin:round;stroke-width:0.47px;}</style></defs><title>Asset 3</title><g id="Layer_2" data-name="Layer 2"><g id="Layer_1-2" data-name="Layer 1"><path class="cls-1" d="M82.5,76.07c-.7-.79-1.22-1.68-1.9-2.49a16.05,16.05,0,0,0-5.39-3.94,101.88,101.88,0,0,0-13.67-5.55c-2-.32-4-1.06-6-1.51A56.27,56.27,0,0,0,48,61.34c-9-.82-17.84,1.6-26.14,4.47-4.34,1.5-8.8,3-13,4.92C5.1,72.43,2.21,75.59,0,79c0,0,.12,0,.15,0,.2.13.89,0,1.12,0h83A11.58,11.58,0,0,0,82.5,76.07Z"/><path class="cls-2" d="M30.6,4.1A1.34,1.34,0,0,1,30.71,4a1,1,0,0,1,1.09-.31A1.26,1.26,0,0,1,32.41,5a6.08,6.08,0,0,0,.05,2.13c2-2.5,3.52-4.95,6.38-6.67A2.05,2.05,0,0,1,40.1,0a1.56,1.56,0,0,1,1.16,1.55,4.74,4.74,0,0,1-.55,2A17.43,17.43,0,0,1,43.79.91,2.43,2.43,0,0,1,45.1.4a1.75,1.75,0,0,1,1.51,1.51,5.59,5.59,0,0,1-.19,2.33,14.94,14.94,0,0,1,4.64-1.46,4.79,4.79,0,0,1,3.87.73c1,.9,1.15,2.93-.06,3.54a14.37,14.37,0,0,1,4.88-1.6,4.91,4.91,0,0,1,4.53,2,6.42,6.42,0,0,1,.82,2.76,20.07,20.07,0,0,1-.54,7.56c1.46-1.39,4-.48,5,1.3.91,1.61-.12,4,.57,5.25s2.38.55,3.29,1.92a6,6,0,0,1,.67,4A19.12,19.12,0,0,1,71,38.81l1.65-.15a.79.79,0,0,1,.48.07.71.71,0,0,1,.21.4c.82,3.78-4.45,6.27-7.45,5.51.35-.33.77.33.82.82a11.54,11.54,0,0,1,0,3.89,3.69,3.69,0,0,1-2.37,2.8,2.23,2.23,0,0,1-2.79-1.82,4.73,4.73,0,0,1-2.91,5c-.86.31-2.07.14-2.29-.77A5.64,5.64,0,0,1,52.16,58c-.77.13-1.84-.22-1.74-1a7,7,0,0,1-4.76,1.49,3.49,3.49,0,0,1-3-3.56,4.52,4.52,0,0,1-4.22,1.56C36.87,56,35.8,54,36.65,52.68c-1.77,2.81-5.2,3.92-7.91,1.63a3.07,3.07,0,0,1-1.13-1.73,1.59,1.59,0,0,1,.83-1.76,7.62,7.62,0,0,1-3.12,0c-3-.89-1.56-4.78.71-3.66-2.46-.45-5.05-1-6.91-2.67s-2.58-5-.79-6.83a7.52,7.52,0,0,1-4.74-5,2.45,2.45,0,0,1,0-1.73,2.31,2.31,0,0,1,1.16-.95,8.35,8.35,0,0,1,4.14-.78,6.56,6.56,0,0,1-4-4.83,2.05,2.05,0,0,1,.22-1.65A2.17,2.17,0,0,1,16.92,22a22.65,22.65,0,0,1,5.8.66,5.84,5.84,0,0,1-4-6.12,2.8,2.8,0,0,1,.46-1.38,2.41,2.41,0,0,1,2.42-.8A7.19,7.19,0,0,1,24,15.54c-.75-1.3-1.83-3.44,0-4.41a3.19,3.19,0,0,1,2.87.09c.47.23,1,.52,1.46.25L26,9.32a1,1,0,0,1-.32-.4c-.2-.58.62-1,1.24-.93a4,4,0,0,1,2.35.95c.12.1.26.22.41.19s.29-.39.27-.65a10.44,10.44,0,0,1,.3-3.43A3,3,0,0,1,30.6,4.1Z"/><path class="cls-3" d="M52.45,45.18a200.13,200.13,0,0,1,.71,23,3.72,3.72,0,0,1-.31,1.72,1.87,1.87,0,0,1-1.48.81A25.12,25.12,0,0,1,37.79,69,2.84,2.84,0,0,1,36,67.31a5.21,5.21,0,0,1,0-2A87.05,87.05,0,0,0,36,46.69Z"/><path class="cls-3" d="M29,36.69c.26,4.41.59,9,2.91,12.77,2.81,4.54,8.23,7,13.56,7.31,3.29.17,6.84-.52,9.16-2.86a13.68,13.68,0,0,0,3-5.41A46,46,0,0,0,59,24.58c-.72-3.46-1.92-7-4.39-9.51C48.36,8.68,37,11.3,31.83,17.8,27.33,23.49,28.58,30,29,36.69Z"/><path class="cls-3" d="M62.77,33a2,2,0,0,1,1,.24,2.1,2.1,0,0,1,.77.87A4.75,4.75,0,0,1,65,37.35a9.18,9.18,0,0,1-1.35,2.78l-.9,1.43a6.19,6.19,0,0,1-2.08,2.31,2.11,2.11,0,0,1-2.78-.55,2.78,2.78,0,0,1-.28-1.07C57.21,38.85,58.2,33,62.77,33Z"/><path class="cls-3" d="M26.27,33a2,2,0,0,0-1.06.24,2.08,2.08,0,0,0-.76.87A4.7,4.7,0,0,0,24,37.35a9.67,9.67,0,0,0,1.35,2.78l.9,1.43a6.19,6.19,0,0,0,2.08,2.31,2.1,2.1,0,0,0,2.78-.55,3,3,0,0,0,.29-1.07C31.82,38.85,30.83,33,26.27,33Z"/><path class="cls-2" d="M50.39,29.91a7.14,7.14,0,0,0,1.73.14,6.18,6.18,0,0,1,3.06,1c.75.48,2,.92,2.16-.38.13-.78-.45-1-1-1.47a8.64,8.64,0,0,0-5.06-1.92,2.46,2.46,0,0,0-1.44.27C48.79,28.21,49.39,29.61,50.39,29.91Z"/><path class="cls-2" d="M39.16,29.91a7.1,7.1,0,0,1-1.73.14,6.15,6.15,0,0,0-3,1c-.75.48-2,.92-2.16-.38-.13-.78.45-1,1-1.47a8.67,8.67,0,0,1,5.06-1.92,2.47,2.47,0,0,1,1.45.27C40.77,28.21,40.17,29.61,39.16,29.91Z"/><path class="cls-2" d="M34.68,21.84c1.74.82,4.13,2.3,6.1,2.27,2.79,0,1.51-2.89,0-4.2a38.23,38.23,0,0,0,7.33,5.45c1.19.6,2.92,1.4,4.31,1.09,1.9-.44,1.19-1.66.5-3.35a6.31,6.31,0,0,0,5.58,3.81,28.23,28.23,0,0,0-.55,6.31c-.05.92,0,2.05.8,2.48a1.64,1.64,0,0,0,2-.55,4.39,4.39,0,0,0,.75-2.06,33.85,33.85,0,0,0,.29-9.69,12.68,12.68,0,0,0-.9-3.76,14.29,14.29,0,0,0-3.92-4.71,25.85,25.85,0,0,0-6.63-4.49A16.78,16.78,0,0,0,30.8,15.57C29,18.2,31.45,20.35,34.68,21.84Z"/><path class="cls-2" d="M32.64,27.8c0,1.09-.8,2.34-2.14,1.4a3.92,3.92,0,0,1-1.22-1.91,17,17,0,0,1,1.17,6.61,1.39,1.39,0,0,1-.21.83,1,1,0,0,1-1.22.11,2.65,2.65,0,0,1-.81-1.05,24.84,24.84,0,0,1-2.62-8.44c-.3-2.38.48-9.71,4.63-7.93,2.42,1,2.52,4.21,2.5,6.45,0,1.23-.14,2.46-.08,3.68A1,1,0,0,1,32.64,27.8Z"/><path class="cls-4" d="M36.08,35.14c0,1-.4,1.86-.89,1.86s-.88-.83-.88-1.86.39-1.86.88-1.86S36.08,34.12,36.08,35.14Z"/><path class="cls-4" d="M51.11,35c0,1-.39,1.86-.88,1.86S49.34,36,49.34,35s.4-1.85.89-1.85S51.11,33.94,51.11,35Z"/><path class="cls-5" d="M37.66,38.59a2.26,2.26,0,0,1-1.95,1,3.37,3.37,0,0,0-.61-.1.78.78,0,0,0-.65.57,1.28,1.28,0,0,0,.1.9,2.38,2.38,0,0,0,1.77,1.22A5.2,5.2,0,0,0,38.53,42a4.18,4.18,0,0,0,1.68-.85A4.51,4.51,0,0,0,41.31,38c0-.81,0-3.75-1.52-3-.54.29-.69,1.23-.95,1.73A9.24,9.24,0,0,1,37.66,38.59Z"/><path class="cls-6" d="M39.56,45.94A3.52,3.52,0,0,0,40.74,47a1.87,1.87,0,0,0,1.6,0,1.77,1.77,0,0,0,1-1.22"/><path class="cls-2" d="M30.6,4.1A1.34,1.34,0,0,1,30.71,4a1,1,0,0,1,1.09-.31A1.26,1.26,0,0,1,32.41,5a6.08,6.08,0,0,0,.05,2.13c2-2.5,3.52-4.95,6.38-6.67A2.05,2.05,0,0,1,40.1,0a1.56,1.56,0,0,1,1.16,1.55,4.74,4.74,0,0,1-.55,2A17.43,17.43,0,0,1,43.79.91,2.43,2.43,0,0,1,45.1.4a1.75,1.75,0,0,1,1.51,1.51,5.59,5.59,0,0,1-.19,2.33,14.94,14.94,0,0,1,4.64-1.46,4.79,4.79,0,0,1,3.87.73c1,.9,1.15,2.93-.06,3.54a14.37,14.37,0,0,1,4.88-1.6,4.91,4.91,0,0,1,4.53,2,6.42,6.42,0,0,1,.82,2.76,20.07,20.07,0,0,1-.54,7.56c1.46-1.39,4-.48,5,1.3.91,1.61-.12,4,.57,5.25s2.38.55,3.29,1.92a6,6,0,0,1,.67,4A19.12,19.12,0,0,1,71,38.81l1.65-.15a.79.79,0,0,1,.48.07.71.71,0,0,1,.21.4c.82,3.78-4.45,6.27-7.45,5.51.35-.33.77.33.82.82a11.54,11.54,0,0,1,0,3.89,3.69,3.69,0,0,1-2.37,2.8,2.23,2.23,0,0,1-2.79-1.82,4.73,4.73,0,0,1-2.91,5c-.86.31-2.07.14-2.29-.77A5.64,5.64,0,0,1,52.16,58c-.77.13-1.84-.22-1.74-1a7,7,0,0,1-4.76,1.49,3.49,3.49,0,0,1-3-3.56,4.52,4.52,0,0,1-4.22,1.56C36.87,56,35.8,54,36.65,52.68c-1.77,2.81-5.2,3.92-7.91,1.63a3.07,3.07,0,0,1-1.13-1.73,1.59,1.59,0,0,1,.83-1.76,7.62,7.62,0,0,1-3.12,0c-3-.89-1.56-4.78.71-3.66-2.46-.45-5.05-1-6.91-2.67s-2.58-5-.79-6.83a7.52,7.52,0,0,1-4.74-5,2.45,2.45,0,0,1,0-1.73,2.31,2.31,0,0,1,1.16-.95,8.35,8.35,0,0,1,4.14-.78,6.56,6.56,0,0,1-4-4.83,2.05,2.05,0,0,1,.22-1.65A2.17,2.17,0,0,1,16.92,22a22.65,22.65,0,0,1,5.8.66,5.84,5.84,0,0,1-4-6.12,2.8,2.8,0,0,1,.46-1.38,2.41,2.41,0,0,1,2.42-.8A7.19,7.19,0,0,1,24,15.54c-.75-1.3-1.83-3.44,0-4.41a3.19,3.19,0,0,1,2.87.09c.47.23,1,.52,1.46.25L26,9.32a1,1,0,0,1-.32-.4c-.2-.58.62-1,1.24-.93a4,4,0,0,1,2.35.95c.12.1.26.22.41.19s.29-.39.27-.65a10.44,10.44,0,0,1,.3-3.43A3,3,0,0,1,30.6,4.1Z"/><path class="cls-3" d="M52.45,45.18a200.13,200.13,0,0,1,.71,23,3.72,3.72,0,0,1-.31,1.72,1.87,1.87,0,0,1-1.48.81A25.12,25.12,0,0,1,37.79,69,2.84,2.84,0,0,1,36,67.31a5.21,5.21,0,0,1,0-2A87.05,87.05,0,0,0,36,46.69Z"/><path class="cls-3" d="M29,36.69c.26,4.41.59,9,2.91,12.77,2.81,4.54,8.23,7,13.56,7.31,3.29.17,6.84-.52,9.16-2.86a13.68,13.68,0,0,0,3-5.41A46,46,0,0,0,59,24.58c-.72-3.46-1.92-7-4.39-9.51C48.36,8.68,37,11.3,31.83,17.8,27.33,23.49,28.58,30,29,36.69Z"/><path class="cls-3" d="M62.77,33a2,2,0,0,1,1,.24,2.1,2.1,0,0,1,.77.87A4.75,4.75,0,0,1,65,37.35a9.18,9.18,0,0,1-1.35,2.78l-.9,1.43a6.19,6.19,0,0,1-2.08,2.31,2.11,2.11,0,0,1-2.78-.55,2.78,2.78,0,0,1-.28-1.07C57.21,38.85,58.2,33,62.77,33Z"/><path class="cls-3" d="M26.27,33a2,2,0,0,0-1.06.24,2.08,2.08,0,0,0-.76.87A4.7,4.7,0,0,0,24,37.35a9.67,9.67,0,0,0,1.35,2.78l.9,1.43a6.19,6.19,0,0,0,2.08,2.31,2.1,2.1,0,0,0,2.78-.55,3,3,0,0,0,.29-1.07C31.82,38.85,30.83,33,26.27,33Z"/><path class="cls-2" d="M34.68,21.84c1.74.82,4.13,2.3,6.1,2.27,2.79,0,1.51-2.89,0-4.2a38.23,38.23,0,0,0,7.33,5.45c1.19.6,2.92,1.4,4.31,1.09,1.9-.44,1.19-1.66.5-3.35a6.31,6.31,0,0,0,5.58,3.81,28.23,28.23,0,0,0-.55,6.31c-.05.92,0,2.05.8,2.48a1.64,1.64,0,0,0,2-.55,4.39,4.39,0,0,0,.75-2.06,33.85,33.85,0,0,0,.29-9.69,12.68,12.68,0,0,0-.9-3.76,14.29,14.29,0,0,0-3.92-4.71,25.85,25.85,0,0,0-6.63-4.49A16.78,16.78,0,0,0,30.8,15.57C29,18.2,31.45,20.35,34.68,21.84Z"/><path class="cls-2" d="M32.64,27.8c0,1.09-.8,2.34-2.14,1.4a3.92,3.92,0,0,1-1.22-1.91,17,17,0,0,1,1.17,6.61,1.39,1.39,0,0,1-.21.83,1,1,0,0,1-1.22.11,2.65,2.65,0,0,1-.81-1.05,24.84,24.84,0,0,1-2.62-8.44c-.3-2.38.48-9.71,4.63-7.93,2.42,1,2.52,4.21,2.5,6.45,0,1.23-.14,2.46-.08,3.68A1,1,0,0,1,32.64,27.8Z"/><path class="cls-4" d="M36.08,39.14c0,1-.4,1.86-.89,1.86s-.88-.83-.88-1.86.39-1.86.88-1.86S36.08,38.12,36.08,39.14Z"/><path class="cls-4" d="M51.11,39c0,1-.39,1.86-.88,1.86S49.34,40,49.34,39s.4-1.85.89-1.85S51.11,37.94,51.11,39Z"/><path class="cls-5" d="M37.66,44.59a2.26,2.26,0,0,1-1.95,1,3.37,3.37,0,0,0-.61-.1.78.78,0,0,0-.65.57,1.28,1.28,0,0,0,.1.9,2.38,2.38,0,0,0,1.77,1.22A5.2,5.2,0,0,0,38.53,48a4.18,4.18,0,0,0,1.68-.85A4.51,4.51,0,0,0,41.31,44c0-.81,0-3.75-1.52-3-.54.29-.69,1.23-.95,1.73A9.24,9.24,0,0,1,37.66,44.59Z"/><path class="cls-6" d="M39.56,50.94A3.52,3.52,0,0,0,40.74,52a1.87,1.87,0,0,0,1.6,0,1.77,1.77,0,0,0,1-1.22"/><path class="cls-2" d="M38.16,33.91a7.1,7.1,0,0,1-1.73.14,6.15,6.15,0,0,0-3,1c-.75.48-2,.92-2.16-.38-.13-.78.45-1,1-1.47a8.67,8.67,0,0,1,5.06-1.92,2.47,2.47,0,0,1,1.45.27C39.77,32.21,39.17,33.61,38.16,33.91Z"/><path class="cls-2" d="M50.39,33.91a7.14,7.14,0,0,0,1.73.14,6.18,6.18,0,0,1,3.06,1c.75.48,2,.92,2.16-.38.13-.78-.45-1-1-1.47a8.64,8.64,0,0,0-5.06-1.92,2.46,2.46,0,0,0-1.44.27C48.79,32.21,49.39,33.61,50.39,33.91Z"/></g></g></svg>