<svg width="180" height="150" fill="none" xmlns="http://www.w3.org/2000/svg"><g clip-path="url(#a)"><path d="M163.643 124.65c-10.008-2.55-20.465-2.475-30.697-3.45-14.191-1.275-28.456-1.8-42.647-1.8C40.407 119.4 0 126.3 0 134.7c0 5.775 15.012 9.075 19.195 10.125 9.336 2.325 19.046 2.55 28.606 3.375 14.116 1.275 28.307 1.8 42.498 1.8 5.975 0 11.95-.075 18-.3 19.419-.675 39.66-.525 58.63-6.375 4.108-1.275 16.88-4.65 12.175-11.25-3.212-4.125-10.681-6.15-15.461-7.425Z" fill="url(#b)"/><path opacity=".44" d="M155.577 29.175H23.826v71.1h131.751v-71.1Z" fill="#E5E1F0"/><path d="M87.087 58.95c0 2.4.075 4.875.075 7.275 0 .225 0 .525.15.675.298.525 1.568.375 2.09.375.897-.075 1.942-.225 2.39-1.05.225-.45.225-.9.225-1.35 0-1.95 0-3.975.074-5.925h-5.004Z" fill="#994396"/><path d="M100.382 74.325c-.075-.525-.075-1.125-.15-1.65l-.224-3.825c-.074-1.35-.672-1.725-1.867-2.175-1.419-.525-2.763-1.2-4.257-1.65-.075 0-.224-.075-.299-.075.299.45.374 1.05.224 1.575-.15.6-.672 1.125-1.195 1.5-.597.3-1.195.525-1.867.6-.971.15-2.017.075-2.988-.15-.522-.15-1.12-.3-1.568-.6-.448-.375-.747-.9-.747-1.425 0-.45.224-.825.523-1.2h-.075c-1.792.525-3.436 1.275-4.93 2.4-.82.6-.597 1.575-.746 2.475-.075 1.05-.224 2.1-.374 3.15-.298 2.175-.597 4.35-.896 6.45-.523 4.275-.896 8.55-.373 12.825 5.228.45 15.31.075 21.734.3 0-4.2-.075-8.4-.075-12.675 0-1.875.299-3.9.15-5.85Z" fill="#F1653A"/><path d="M102.921 82.8c.896 1.125 1.793 2.25 2.764 3.375.672.75 1.792 2.1 2.987 1.725.523-.225.896-.75 1.046-1.275.149-.75.149-1.575.149-2.325.075-.9-.074-1.875-.299-2.775-.522-1.875-1.568-3.375-2.539-4.875-.896-1.275-1.718-2.625-2.689-3.9-1.045-1.425-2.166-2.775-3.361-4.125-.747-.9-1.792-1.5-2.987-1.35-.747.075-1.569.6-1.942 1.35-.598 1.125-.15 2.4.299 3.525 1.717 3.75 4.107 7.425 6.572 10.65Z" fill="#F1653A"/><path d="M93.585 65.025c-.373-.075-.672-.15-1.046-.225 0 .225 0 .45-.149.675-.075.225-.299.375-.448.525-1.12.9-2.614 1.125-3.959.75-.298-.075-.672-.225-.896-.525-.299-.3-.448-.75-.373-1.2-.224.075-.523.075-.747.15-.299.375-.523.75-.523 1.2 0 .6.299 1.125.747 1.425.448.375.97.525 1.568.6.971.225 2.017.225 2.988.15.672-.075 1.27-.225 1.867-.6.598-.3 1.046-.825 1.195-1.5.15-.375 0-.975-.224-1.425Z" fill="#fff"/><path d="M63.336 65.175c.075-.225.299-.45.523-.3.075.075.15.075.15.15 1.12 1.5 2.24 3 3.286 4.5.672.9-.374 1.35-1.27 1.425-.598.075-1.12-.075-1.718-.15-1.568-.3-3.212-.6-4.78-.9-.448-.075-1.643-.075-1.867-.525-.224-.45.15-.525.597-.6.747-.075 1.569.075 2.316 0-.673-.15-1.42-.225-2.092-.375-.523-.075-1.419-.075-1.718-.6-.522-.825.897-.6 1.27-.525.896.15 2.017.075 2.838.6-.97-.525-2.016-.825-2.987-1.2-.299-.075-1.046-.3-1.195-.6-.374-.825 1.419-.15 1.643-.075 1.12.45 2.39.525 3.51 1.05-1.045-.525-2.016-.975-3.062-1.5-.15-.075-.373-.15-.448-.3-.075-.15-.15-.375 0-.525.15-.15.448-.15.672-.075 1.718.525 3.212 1.5 4.855 2.025.075-.225-.075-.525-.224-.75-.15-.225-.299-.45-.299-.675v-.075ZM118.606 65.925c-.075-.225-.299-.45-.523-.3-.075.075-.149.075-.149.15-1.121 1.5-2.241 3-3.287 4.5-.672.9.374 1.35 1.27 1.425.598.075 1.12-.075 1.718-.15 1.568-.3 3.212-.6 4.78-.9.448-.075 1.643-.075 1.867-.525.224-.45-.149-.525-.597-.6-.747-.075-1.569.075-2.316 0 .673-.15 1.419-.225 2.092-.375.522-.075 1.419-.075 1.717-.6.523-.825-.896-.6-1.269-.525-.897.15-2.017.075-2.838.6.971-.525 2.016-.825 2.987-1.2.299-.075 1.046-.3 1.195-.6.374-.825-1.419-.15-1.643-.075-1.12.45-2.39.525-3.51 1.05 1.045-.525 2.016-.975 3.062-1.5.149-.075.373-.15.448-.3.075-.15.149-.375 0-.525-.149-.15-.448-.15-.672-.075-1.718.525-3.212 1.5-4.855 2.025-.075-.225.075-.525.224-.75.149-.225.299-.45.299-.675v-.075Z" fill="#994396"/><path d="M78.274 82.725c-.896 1.125-1.793 2.25-2.764 3.375-.672.75-1.792 2.1-2.987 1.725-.523-.225-.897-.75-1.046-1.275-.15-.75-.15-1.575-.15-2.325-.074-.9.076-1.875.3-2.775.522-1.875 1.568-3.375 2.539-4.875.896-1.275 1.718-2.625 2.689-3.9 1.045-1.425 2.166-2.775 3.36-4.125.748-.9 1.793-1.5 2.988-1.35.747.075 1.569.6 1.942 1.35.598 1.125.15 2.4-.299 3.525-1.643 3.75-4.107 7.35-6.572 10.65Z" fill="#F1653A"/><path d="M90.672 62.7c-1.27.525-2.987.3-3.884-.75-.672-.75-.821-1.875-.896-2.85-.224-2.475-.373-6.225 2.091-7.65 1.046-.6 2.39-.75 3.585-.6 3.063.45 2.988 3.525 2.39 5.85-.597 2.325-.672 4.875-3.286 6Z" fill="#994396"/><path d="M94.257 56.025c.374-.15.822-.075 1.12.15.449.375.523.975.3 1.5-.225.525-.673.825-1.196 1.05-.373.15-.821.225-1.12 0-.299-.225-.374-.525-.374-.9.15-.75.598-1.575 1.27-1.8Z" fill="#994396"/><path d="M88.73 59.4v.6c-.074.15-.15.375-.299.45-.298.15-.672 0-.821-.225-.15-.225-.299-.825-.075-.9.075 0 .448.15.523.15.224 0 .448-.075.672-.075Z" fill="#000"/><path d="M93.734 56.025c-.149-.225-.522-.075-.597.15-.075.075-.075.225-.075.375 0 .9-.523 1.8-1.27 2.325-.821.6-2.315.75-3.136.15-.15-.15-.3-.3-.523-.3-.15 0-.299.075-.448.15-.3.15-.673 0-.971-.225-.598-.45-.897-1.2-.897-1.875v.15c-.074.3 0 .375-.224.6-.15.075-.373.075-.448.3-.075.225.15.45.15.675 0 .3-.3.45-.449.675-.298.375-.149.975.224 1.2-.373.225-.373.75-.149.975.075.075.299.225.299.375s-.224.225-.299.375c-.075.15 0 .225 0 .375.075.375.299.75.672.9.374.15.822.225 1.12 0-.223.075.225.375.225.375.299.075.597 0 .896.075.224 0 .448.075.672.15.224.075.448.075.672-.075.15-.15.3-.375.523-.45.224-.075.448.15.672.15.374.075.673-.3.673-.6.149.225.448.3.672.225.224-.075.448-.3.523-.6.074-.225.149-.525.149-.75 0 .225.299.45.523.3.224-.075.299-.375.299-.6 0-.225-.15-.45-.3-.675.225.075.449-.075.524-.3.074-.15 0-.3 0-.45 0-.15-.075-.3 0-.375.074-.375.074-.75.149-1.125.075-.75.15-1.5.224-2.175 0-.15 0-.3-.075-.45Zm-4.705 4.95c-.672.3-1.494.225-2.091-.15-.15-.075-.822-.675-.374-.9h.448c.075 0 .15-.15.075-.225.299.075.747-.075.896-.375 0 .15.15.375.3.45.148.075.373.075.522 0 .075.225.224.375.448.375.896 0 .224.675-.224.825Z" fill="#fff"/><path d="M93.212 53.025c-.15 0-.3.075-.449.15-.298.225-.373.6-.373.975.075.675.299 1.35.373 2.1 0 .3.15.675.374.825.224.075.523 0 .672-.225.15-.225.224-.45.299-.675.373.3.896.15 1.195-.225.672-.675.523-1.725.075-2.4h-.374c.075-.375-.15-.825-.523-.825-.373-.075-.747.225-.821.6-.075-.225-.224-.3-.448-.3ZM86.266 55.35h-.3c-.074 0-.223-.075-.223-.15-.075-.15.075-.375.224-.45.373-.3.821-.45 1.27-.45.373 0 .746.375.298.6-.373.225-.896.375-1.27.45ZM91.718 55.575h.298c.075 0 .225-.075.225-.15.074-.15-.075-.375-.225-.45-.373-.3-.821-.45-1.27-.45-.373 0-.746.375-.298.6.374.225.896.375 1.27.45Z" fill="#fff"/><path d="M65.353 71.1c-.224-.675-.672-1.05-.075-1.65.373-.45 1.046-.525 1.568-.225.523.3.971.75 1.345 1.275 1.27 1.5 2.614 2.85 3.734 4.425 1.12 1.65 2.017 3.45 2.764 5.325.523 1.275.97 2.7.896 4.05-.075 1.65-1.643 4.875-3.66 3.075-.448-.375-.747-.9-1.045-1.425-1.718-3.075-2.988-6.375-4.108-9.75-.448-1.725-.822-3.45-1.42-5.1Z" fill="#994396"/><path d="M64.755 70.575c.598-.45 1.195-.975 1.793-1.425.224-.225.522-.375.821-.525.224-.075.598-.15.747.075.075.075.075.225.075.3v.675c.224-.075.523.075.597.3.15.225-.074.375-.074.6 0 .3.074.45.298.75.374.525.822.9 1.27 1.425A24.381 24.381 0 0 1 72 74.925c1.12 1.65 2.017 3.45 2.763 5.325.523 1.275.971 2.7.897 4.05-.075 1.65-1.643 4.875-3.66 3.075-.448-.375-.747-.9-1.046-1.425-1.717-3.075-2.987-6.45-4.108-9.75-.448-1.275-.896-2.625-1.344-3.9a2.06 2.06 0 0 1-.97.225c-.076-.225-.076-.45.074-.675h-.448a.41.41 0 0 1-.374-.225c-.075-.225.075-.375.299-.525.224-.15.448-.375.672-.525ZM117.187 71.325c-.598-.45-1.195-.975-1.793-1.425-.224-.225-.523-.375-.821-.525-.224-.075-.598-.15-.747.075-.075.075-.075.225-.075.3v.675c-.224-.075-.523.075-.597.3-.15.225.074.375.074.6 0 .3-.074.45-.298.75-.374.525-.822.9-1.27 1.425a24.328 24.328 0 0 0-1.718 2.175c-1.12 1.65-2.017 3.45-2.764 5.325-.522 1.275-.97 2.7-.896 4.05.075 1.65 1.643 4.875 3.66 3.075.448-.375.747-.9 1.046-1.425 1.717-3.075 2.987-6.45 4.108-9.75.448-1.275.896-2.625 1.344-3.9.299.15.597.225.971.225.075-.225.075-.45-.075-.675h.448c.15 0 .299-.075.374-.225.074-.225-.075-.375-.299-.525-.224-.15-.448-.375-.672-.525Z" fill="#F1653A"/><path d="M90.523 56.7c0 .3-.15.525-.299.525-.15 0-.299-.225-.299-.525 0-.3.15-.525.3-.525.148 0 .298.225.298.525ZM86.564 56.925c.15 0 .299-.225.299-.525 0-.3-.15-.525-.299-.525-.15 0-.298.225-.298.525.074.3.149.525.298.525Z" fill="#000"/><path d="M86.788 57.75c.747 0 1.345-.6 1.345-1.275 0-.675-.598-1.275-1.345-1.275-.746 0-1.344.6-1.344 1.275 0 .675.672 1.275 1.344 1.275Z" stroke="#FFCE34" stroke-width=".5" stroke-miterlimit="10" stroke-linecap="round" stroke-linejoin="round"/><path d="M87.61 58.575c.075.075.15.075.224.15.448.225.747-.075.896-.525.15-.3.672-2.1-.074-2.025-.075 0-.224.075-.3.15-.148.15-.298.375-.298.6 0 .225-.075.45-.224.6-.15.075-.373 0-.523.075-.15.075-.224.225-.15.375 0 .15.15.3.225.375l.224.225Z" fill="#ED6636"/><path d="M90.523 57.975c.747 0 1.344-.6 1.344-1.275 0-.675-.597-1.275-1.344-1.275-.747 0-1.344.6-1.344 1.275 0 .675.597 1.275 1.344 1.275Z" stroke="#FFCE34" stroke-width=".5" stroke-miterlimit="10" stroke-linecap="round" stroke-linejoin="round"/><path d="M88.133 56.175c.15-.225.373-.375.597-.375.224 0 .448.15.598.375" stroke="#FFCE34" stroke-width=".5" stroke-miterlimit="10" stroke-linecap="round" stroke-linejoin="round"/><path d="M87.087 66.225c.224.225.523.375.896.525 1.345.45 2.838.15 3.959-.75.15-.15.373-.3.448-.525.075-.225.15-.45.15-.675-.225-.075-.523-.075-.748-.075-1.717-.15-3.36 0-5.004.375-.149.375 0 .825.3 1.125Z" fill="#994396"/><path d="M90.597 48.75c2.092 0 3.81-2.325 3.81-5.25s-1.718-5.25-3.81-5.25c-2.09 0-3.809 2.325-3.809 5.25s1.718 5.25 3.81 5.25Z" fill="#00BCCC"/><path d="M90.598 46.8c1.344 0 2.39-1.5 2.39-3.3 0-1.8-1.046-3.3-2.39-3.3-1.345 0-2.39 1.5-2.39 3.3 0 1.8 1.045 3.3 2.39 3.3Z" stroke="#008793" stroke-width=".33" stroke-miterlimit="10" stroke-linecap="round" stroke-linejoin="round"/><path d="M87.834 39.9c.224.3.523.75.97 1.35M92.24 45.9c.449.6.822 1.125.972 1.35M87.834 47.175c.224-.3.523-.75.97-1.35M92.24 41.1c.449-.6.748-1.05.972-1.275" stroke="#008793" stroke-width=".33" stroke-miterlimit="10" stroke-linecap="round" stroke-linejoin="round"/><path d="M160.133 9.15 19.195 6.375l1.42 128.25 140.414.3-.896-125.775ZM28.755 92.475l-1.27-57 124.88 1.2.374 55.95-123.984-.15Z" fill="#45459B"/><path d="m126.579 97.98.39 35.499h32.345l-.105-35.475h-8.122.007l-24.515-.024ZM53.018 97.914v35.565h37.025l-.73-35.535-36.295-.03Z" fill="#6778B7"/><path d="m28.275 97.89-.018-.89H21l.86 36.479h31.158V97.914l-24.743-.024Z" fill="#45459B"/><path d="m22.885 101.01.464 30.665H50.7l.31-31.116-28.125.451ZM54.409 100.71l.309 31.266h33.996l-.927-31.717-33.378.451ZM91.032 100.71l1.236 30.364 32.915.751-.309-31.566-33.842.451ZM128.582 100.71l.464 30.514 28.587-.15-.309-30.064-28.742-.3Z" stroke="#F58B3E" stroke-miterlimit="10" stroke-linecap="round" stroke-linejoin="round"/><path d="m18.299 92.1 144.597.9" stroke="#FFCE34" stroke-width="5.93" stroke-miterlimit="10"/><path d="M171.112 21.075 159.535 37.35l-1.195-2.325L169.245 21l1.867.075ZM9.187 19.275 22.556 35.55l1.27-1.8-12.324-14.625-2.315.15Z" fill="#45459B"/><path d="m20.166 20.025.299 3.225c0 .15.224.3.672.45l-.971-3.675ZM101.577 20.025V24.6c.373 3 2.838 5.4 5.826 5.4 3.286 0 5.975-2.7 5.975-6.075V20.025h-11.801Z" fill="#6778B7"/><path d="M89.701 23.7c0 3.375 2.614 6.15 5.9 6.15 3.287 0 5.976-2.7 5.976-6.075V19.95l-11.876-.075V23.7ZM113.154 24.075c.149 3.3 2.763 6 5.975 6 3.361 0 6.049-2.775 6.124-6.225v-3.9l-12.174-.075.075 4.2ZM159.311 20.85v3.375c0 .225 0 .45-.074.6v.075c.373 2.775 2.838 5.025 5.825 5.025 3.287 0 5.975-2.325 6.05-5.475v-3.375l-11.801-.225Z" fill="#2D286C"/><path d="m159.236 20.925-11.352-.075V24.9a5.606 5.606 0 0 0 5.601 5.025c2.913 0 5.378-2.175 5.677-4.95 0-.225-.075-.45-.075-.675l.149-3.375Z" fill="#6778B7"/><path d="m147.884 21-11.652-.075V24.6c.075 3 2.615 5.4 5.751 5.4 3.063 0 5.602-2.25 5.826-5.175v-.3l.075-3.525ZM78.722 20.025 78.647 7.5 67.07 7.275l-.224 12.675 11.876.075Z" fill="#2D286C"/><path d="m78.722 19.875 10.905.225-.224-12.6-10.681-.225.075 12.45v.15h-.075ZM66.697 20.025 66.921 7.5l-11.95-.225-.075 12.675 11.801.075ZM20.39 19.05l5.228-12.525-6.124-.075L9.112 19.2l11.278-.15ZM43.842 20.025v-13.5l-10.083-.15-1.718 13.575 11.801.075Z" fill="#6778B7"/><path d="M55.718 20.025 55.792 6.6l-11.875-.225V19.95l11.8.075ZM32.116 19.125l1.718-12.6-8.141-.15-5.527 12.675 11.95.075Z" fill="#2D286C"/><path d="m9.187 19.125.074 3.9c0 3.3 2.465 6 5.453 6 2.987 0 5.452-2.7 5.452-6v-4.05l-10.98.15ZM43.917 19.5v-.225l-11.876-.15v4.05c.075 3.3 2.69 6 5.976 6 3.136 0 5.75-2.55 5.9-5.775v-3.9Z" fill="#6778B7"/><path d="M20.166 18.975v.3l.075 4.35c.298 3.075 2.838 5.475 5.975 5.475 3.286 0 5.975-2.7 5.975-6v-3.9l-12.025-.225ZM43.992 19.725V23.625c0 3.375 2.689 6.075 5.9 6.075 2.913 0 5.303-2.175 5.826-5.025l.074-4.575v-.3l-11.8-.075ZM78.722 19.8l-11.95-.075v3.525c0 3.15 2.688 5.775 5.975 5.775 2.913 0 5.377-2.025 5.9-4.725l.075-1.575V20.025h.075V19.8h-.075Z" fill="#2D286C"/><path d="M55.718 19.875V23.4c0 3.075 2.465 5.625 5.452 5.625 2.689 0 4.93-1.95 5.378-4.575l.075-4.2v-.3l-10.905-.075ZM78.722 19.875v3.15c0 .225 0 .45-.075.675.075 2.925 2.465 5.325 5.453 5.325a5.517 5.517 0 0 0 5.527-5.25l.074-3.6-10.979-.3ZM113.452 20.1l-.672-11.625-11.427-.225.224 11.55v.3l11.875.075V20.1Z" fill="#6778B7"/><path d="m101.353 7.5-12.025-.225.298 12.9 11.876.075v-.375L101.353 7.5ZM123.61 8.625 112.556 8.4l.672 12.3v.15l12.174.075-1.792-12.3ZM143.552 8.4l-9.112-.15 1.568 12.3v.375l11.876.075-4.332-12.6ZM159.311 21.075l11.801.075-10.755-12-7.544-.15 6.498 12.075Z" fill="#2D286C"/><path d="m134.813 8.775-11.278-.225 1.569 12.3 11.203.075v-.375l-1.494-11.775ZM152.589 8.4l-8.888-.15 4.257 12.675 11.353.075-6.722-12.6Z" fill="#6778B7"/><path d="M19.195 6.525 160.133 9.15 159.535 6l-6.871-.225-.075-3L26.514 0l-.746 3.3-4.855.075-1.718 3.15Z" fill="#45459B"/><path d="M125.178 24.525c.075 3 2.54 5.4 5.527 5.475 3.063 0 5.602-2.475 5.602-5.55v-3.525l-11.203-.075.074 3.675Z" fill="#6778B7"/></g><defs><linearGradient id="b" x1="44.571" y1="88.853" x2="136.114" y2="180.401" gradientUnits="userSpaceOnUse"><stop stop-color="#71BE7D"/><stop offset=".195" stop-color="#76BF79"/><stop offset=".435" stop-color="#85C36C"/><stop offset=".699" stop-color="#9ECA56"/><stop offset=".978" stop-color="#C1D339"/><stop offset="1" stop-color="#C4D436"/></linearGradient><clipPath id="a"><path fill="#fff" d="M0 0h180v150H0z"/></clipPath></defs></svg>