<svg width="85" height="67" fill="none" xmlns="http://www.w3.org/2000/svg">
  <path d="M13.884 26.992c2.13 0 2.133-3.324 0-3.324-2.129 0-2.132 3.324 0 3.324Z" fill="#fff" />
  <path
    d="M4.633 11.056c.097 2.808 1.502 5.31 3.134 5.581-1.586.259-2.954 2.67-3.06 5.394.12-3.086-2.083-4.67-3.362-5.608 1.556-.212 3.388-2.449 3.288-5.367Z"
    fill="#FFE400" />
  <path
    d="M73.628 5.89c.087 2.546 1.362 4.82 2.844 5.069-1.438.235-2.68 2.425-2.777 4.893.11-2.8-1.889-4.236-3.05-5.088 1.411-.19 3.074-2.224 2.983-4.873Z"
    fill="#F1653A" />
  <path
    d="M70.584 48.143c.087 2.546 1.362 4.82 2.844 5.068-1.438.235-2.68 2.425-2.777 4.894.11-2.8-1.889-4.236-3.05-5.088 1.411-.192 3.074-2.224 2.983-4.874Z"
    fill="#FFE400" />
  <path
    d="M82.927 20.605c.064 1.855.995 3.512 2.073 3.693-1.048.171-1.953 1.768-2.023 3.566.08-2.04-1.378-3.086-2.223-3.71 1.032-.137 2.24-1.62 2.173-3.549Z"
    fill="#09BCCA" />
  <path
    d="M1.802 47.341c.054 1.54.825 2.912 1.72 3.063-.869.14-1.62 1.465-1.68 2.958.067-1.69-1.141-2.56-1.842-3.076.851-.117 1.856-1.345 1.802-2.945Z"
    fill="#F1653A" />
  <path
    d="M10.357 53.895c.053 1.54.824 2.912 1.718 3.063-.867.14-1.618 1.465-1.678 2.958.066-1.69-1.142-2.56-1.843-3.076.851-.114 1.856-1.345 1.803-2.945Z"
    fill="#09BCCA" />
  <path
    d="M34.745 62.428c-1.105-.607-2.233-1.291-2.794-2.163-.086.322-.136.65-.193.98-1.592-1.352-2.627-2.808-3.588-4.626-.277-.523-2.76-5.793-2.253-6.058-.344.178-.69.36-1.035.537-1.542-1.895-2.183-4.498-1.695-6.896l-2.16-.644c.38-.215.758-.433 1.138-.648l-2.973-1.744c.944-.308 1.892-.617 2.837-.929l-3.438-2.57c.567-.992 1.131-1.985 1.699-2.978-.818.054-1.632.108-2.45.158a7.2 7.2 0 0 1 2.423-3.542c-.654-.01-1.308-.017-1.963-.027 3.278-1.861 4.142-4.501 5.798-7.627 1.398-2.64 3.137-5.175 5.537-6.82 3.09-2.115 6.739-3.38 10.45-3.756 3.805-.385 6.672.138 9.853 2.087 6.215 3.806 11.114 9.012 13.4 16.096a2.332 2.332 0 0 1-1.915.829 3.526 3.526 0 0 1 2.083 2.626c-.741-.08-1.482-.161-2.223-.245a4.7 4.7 0 0 0 2.964 1.637c.277.037-1.299 2.425-1.319 2.539-.264 1.318.054 1.104 1.516 1.261a5.51 5.51 0 0 1-2.58 3.83c.694-.05 1.385-.103 2.079-.154-.621.852-1.983.976-2.45 1.926-.297.603-.114 1.318-.047 1.989.204 2.113-.9 3.83-2.56 4.97.014-.543-.06-1.123-.283-1.626.213.506-.751 2.911-.945 3.538-.44 1.426-1.131 2.798-1.9 4.069-.02.033-.55-1.925-.623-2.137-1.122 3.931-3.251 7.326-7.296 8.778-1.866.671-3.929.849-5.604 1.912-1.883-1.18-3.765-2.365-5.648-3.545-.52-.329-1.178-.664-1.842-1.027Z"
    fill="#FFE400" />
  <path
    d="M30.33 31.875c1.748-.808 3.377-2.364 4.351-3.723 2.26-3.15 2.327-6.678 1.67-10.458-.895-5.149-1.332-10.287-2.567-15.386-.224-.925-.581-1.985-1.426-2.25-.94-.295-1.825.594-2.423 1.442-1.792 2.54-3.12 5.46-3.895 8.55-.293-.57-.59-1.14-.884-1.71-1.042 4.574-1.983 9.203-2.273 13.905-.12 1.946-.124 3.945.447 5.793.568 1.848 1.792 3.546 3.491 4.17 1.115.412 2.34.207 3.508-.333ZM52.371 32.167c-1.729-.849-3.32-2.445-4.262-3.827-2.186-3.203-2.17-6.732-1.425-10.495C47.7 12.72 48.26 7.59 49.611 2.526c.247-.919.628-1.972 1.479-2.217.948-.271 1.809.638 2.386 1.5a25.715 25.715 0 0 1 3.692 8.64c.307-.564.617-1.127.924-1.69.931 4.598 1.766 9.247 1.946 13.953.073 1.948.03 3.944-.584 5.779-.61 1.835-1.876 3.502-3.588 4.085-1.125.393-2.34.158-3.495-.409Z"
    fill="#FFE400" />
  <path
    d="M28.59 17.637c-.046.137-.093.272-.143.41-.187-.672-.374-1.343-.557-2.01.497.252.92.64 1.218 1.114-.11-.47.073-.993.45-1.292l.748.845c-.274-.395-.13-1.016.29-1.25.421-.232 1.022-.024 1.209.422a10.726 10.726 0 0 0-1.369-7.211M53.61 6.92l-.721-.815c-.478 3.64-.23 7.373.72 10.915a4.24 4.24 0 0 1 .358-1.442c.247.593.49 1.19.737 1.784-.163-.335.314-.704.658-.564.343.141.49.564.477.94-.013.375-.14.734-.164 1.11-.023.375.1.798.43.966"
    stroke="#45459B" stroke-width=".3" stroke-miterlimit="10" stroke-linecap="round" stroke-linejoin="round" />
  <path
    d="M32.269 26.515c.4.55 1.135.88 1.825.695.671-.178 1.195-.839 1.185-1.537-.023-1.79-2.59-2.243-3.22-.56-.187.51-.074 1.01.21 1.402Z"
    fill="#45459B" />
  <path
    d="M33.257 25.398c.063.286.323.51.614.547.29.037.59-.104.764-.342.15-.201.207-.486.087-.708-.367-.66-1.646-.315-1.465.503ZM32.599 25.804c-.447.138-.104.846.187.973.22.097.524.023.617-.201.094-.232-.07-.49-.267-.637-.157-.111-.357-.192-.537-.135Z"
    fill="#fff" />
  <path
    d="M47.642 26.515c.4.55 1.134.88 1.825.695.671-.178 1.195-.839 1.185-1.537-.023-1.79-2.59-2.243-3.22-.56-.188.51-.074 1.01.21 1.402Z"
    fill="#45459B" />
  <path
    d="M48.63 25.398c.063.286.323.51.614.547.29.037.59-.104.764-.342.15-.201.207-.486.087-.708-.367-.66-1.646-.315-1.465.503ZM47.972 25.804c-.447.138-.104.846.187.973.22.097.524.023.617-.201.094-.232-.07-.49-.267-.637-.157-.111-.353-.192-.537-.135Z"
    fill="#fff" />
  <path
    d="M35.076 36.172c1.021 1.271 1.568 2.848 2.18 4.36.61 1.513 1.334 3.053 2.586 4.092 1.255 1.04 3.174 1.436 4.516.51.774-.533 1.238-1.402 1.655-2.247a61.216 61.216 0 0 0 3.1-7.523c-1.29 1.033-3.243 1.11-4.625.204-.394-.258-.751-.593-1.202-.731-1.024-.319-2.019.463-2.964.973-1.522.818-3.61.909-5.246.362Z"
    fill="#45459B" />
  <path
    d="M39.695 35.94c-.881.3-1.672.54-1.67.443-.096 3.022-.35 6.947.745 9.808.891 2.324 4.002 3.505 6.198 2.14 3.014-1.869 1.646-9.335 1.425-12.193-1.418-.278-2.867-1.194-4.342-.989-.16.023-1.322.443-2.356.792Z"
    fill="#F1653A" />
  <path
    d="M32.78 33.955c.694.838 1.474 1.59 2.426 2.106 2.6 1.406 4.455.017 6.705-1.278.951-.546 2.38 1.067 3.341 1.345 1.302.38 2.497-.154 3.575-.862.864-.566 1.589-1.298 2.246-2.1"
    stroke="#45459B" stroke-width=".33" stroke-miterlimit="10" stroke-linecap="round" stroke-linejoin="round" />
  <path
    d="M39.645 32.097c-.167-.443-.01-.88.59-1.17a4.24 4.24 0 0 1 2.834-.31c.497.121.995.353 1.282.779.72 1.076-.397 1.55-1.168 1.995-.337.198-.698.4-1.089.393-.357-.007-.68-.188-.99-.366-.351-.201-.702-.409-.999-.684a1.65 1.65 0 0 1-.46-.637Z"
    fill="#45459B" />
  <path
    d="M42.542 34.72a62.927 62.927 0 0 0-.204 5.987M42.408 42.944c.02.386.044.771.067 1.154M42.482 45.48c.023.17.05.339.073.51"
    stroke="#45459B" stroke-width=".3" stroke-miterlimit="10" stroke-linecap="round" stroke-linejoin="round" />
  <path
    d="M42.722 54.804c.03-.117.07-.231.127-.328.11-.188.29-.319.47-.282.26.053.408.416.481.741.14.64.154 1.325.037 1.976-.037.201-.087.402-.184.563-.2.329-.514.326-.72.004-.09-.141-.14-.32-.18-.494a5.312 5.312 0 0 1-.091-1.851c.013-.114.033-.225.06-.329Z"
    stroke="#45459B" stroke-width=".883" stroke-miterlimit="10" stroke-linecap="round" stroke-linejoin="round" />
  <path
    d="M30.023 50.897c1.985 1.26 4.101 2.22 6.3 2.827 1.102.292 2.217.527 3.345.634 1.125.124 2.257.161 3.381.08a18.492 18.492 0 0 0 3.345-.492c1.104-.245 2.183-.614 3.24-1.04 2.11-.872 4.09-2.08 5.905-3.572a.375.375 0 0 1 .53.52c-1.505 1.935-3.497 3.508-5.717 4.628-1.105.574-2.283 1.003-3.484 1.345a19.44 19.44 0 0 1-3.699.61c-1.251.065-2.51.014-3.744-.167-1.232-.195-2.453-.483-3.618-.922-2.333-.849-4.493-2.174-6.215-3.918a.346.346 0 0 1 .003-.49.347.347 0 0 1 .428-.043Z"
    fill="#09BCCA" />
  <path
    d="m45.178 59.62-1.819-2.394a.117.117 0 0 0-.187 0l-1.785 2.395c-.03.043-.03.1 0 .14l1.785 2.396a.117.117 0 0 0 .187 0l1.82-2.395a.112.112 0 0 0 0-.141Z"
    fill="#F89C33" />
  <path
    d="m44.237 59.654-.914-1.204a.064.064 0 0 0-.047-.023c-.02 0-.037.01-.047.023l-.898 1.204a.056.056 0 0 0 0 .07l.898 1.205c.01.013.03.023.047.023.02 0 .037-.01.047-.023l.914-1.204c.017-.02.017-.047 0-.07ZM43.276 58.43v-1.25M43.276 62.183v-1.25M41.39 59.691h.948M44.274 59.691h.908"
    stroke="#C47D27" stroke-width=".294" stroke-miterlimit="10" stroke-linecap="round" stroke-linejoin="round" />
  <path
    d="M43.186 54.19c.043-.01.09-.01.134-.003.26.054.407.416.48.741.14.641.154 1.325.037 1.976-.037.201-.087.402-.184.563-.093.151-.21.232-.327.245"
    stroke="#45459B" stroke-width=".883" stroke-miterlimit="10" stroke-linecap="round" stroke-linejoin="round" />
  <ellipse cx="72.517" cy="45.388" rx="7.412" ry="5.55" transform="rotate(8.743 72.517 45.388)" fill="#FFE400" />
  <ellipse rx="8.477" ry="6.245" transform="scale(-1 1) rotate(8.743 -308.024 -52.326)" fill="#FFE400" /></svg>
