<svg width="66" height="58" fill="none" xmlns="http://www.w3.org/2000/svg"><g clip-path="url(#a)"><path d="m26.539 34.764-8.606-4.925a.5.5 0 0 0-.41 0l-8.547 4.925c-.117.06-.176.176-.176.352v9.91c0 .118.059.294.176.352l8.606 4.926c.058.059.117.059.175.059.059 0 .117 0 .176-.06l8.606-4.925c.117-.058.175-.176.175-.352v-9.91c0-.176-.058-.293-.175-.352Z" fill="#8ACC9E"/><path d="m23.553 36.582-5.679-3.284a.178.178 0 0 0-.234 0l-5.679 3.284c-.058.058-.117.117-.117.234v6.568c0 .117.059.176.117.234l5.679 3.284c.059 0 .059.059.117.059.059 0 .059 0 .117-.059l5.679-3.284c.058-.058.117-.117.117-.234v-6.626c.058-.059 0-.176-.117-.176ZM17.757 50.305v-3.342M17.757 33.24v-3.4M26.656 45.144s-1.171-.704-2.927-1.7M11.844 36.7C10.088 35.704 8.86 35 8.86 35M26.714 35.059s-1.17.703-2.985 1.642M11.786 43.385c-1.756.997-2.986 1.7-2.986 1.7" stroke="#BC4F2C" stroke-width=".693" stroke-miterlimit="10" stroke-linecap="round" stroke-linejoin="round"/><path d="m59.928 35.871-12.15-6.953a.705.705 0 0 0-.578 0L35.134 35.87c-.166.083-.248.249-.248.497v13.99c0 .166.082.414.248.497l12.149 6.954c.082.082.165.082.248.082.082 0 .165 0 .248-.082l12.149-6.954c.165-.083.248-.248.248-.497v-13.99c0-.248-.083-.414-.248-.497Z" fill="#FFD200"/><path d="M55.713 38.436 47.696 33.8a.251.251 0 0 0-.33 0l-8.018 4.636c-.082.083-.165.166-.165.331v9.272c0 .165.083.248.165.33l8.017 4.637c.083 0 .083.082.166.082.082 0 .082 0 .165-.082l8.017-4.636c.082-.083.165-.166.165-.331v-9.355c.083-.082 0-.248-.165-.248ZM47.53 57.809v-4.72M47.53 33.718v-4.802M60.093 50.522s-1.653-.994-4.132-2.4M39.183 38.602c-2.48-1.407-4.215-2.4-4.215-2.4M60.176 36.285s-1.653.994-4.215 2.318M39.1 48.04c-2.479 1.406-4.214 2.4-4.214 2.4" stroke="#BC4F2C" stroke-width=".693" stroke-miterlimit="10" stroke-linecap="round" stroke-linejoin="round"/><path d="M45.014 7.2 33.087.373a.693.693 0 0 0-.569 0L20.672 7.2c-.162.082-.243.244-.243.488v13.735c0 .162.08.406.243.487L32.6 28.737c.082.081.163.082.244.082.081 0 .162 0 .244-.082l11.927-6.827c.162-.08.243-.243.243-.487V7.688c0-.244-.08-.406-.243-.488Z" fill="#F1653A"/><path d="m40.876 9.722-7.87-4.552a.246.246 0 0 0-.325 0l-7.87 4.552c-.082.08-.163.162-.163.325v9.102c0 .163.081.244.162.325l7.87 4.551c.082 0 .082.082.163.082s.081 0 .162-.082l7.87-4.55c.082-.082.163-.163.163-.326V9.965c.081-.08 0-.243-.162-.243ZM32.843 28.738v-4.633M32.843 5.089V.375M45.176 21.587s-1.623-.975-4.057-2.357M24.648 9.884a1459.764 1459.764 0 0 1-4.138-2.357M45.257 7.607s-1.623.976-4.138 2.276M24.567 19.148c-2.435 1.382-4.139 2.357-4.139 2.357" stroke="#BC4F2C" stroke-width=".693" stroke-miterlimit="10" stroke-linecap="round" stroke-linejoin="round"/></g><defs><clipPath id="a"><path fill="#fff" d="M0 0h66v58H0z"/></clipPath></defs></svg>