<svg width="223" height="137" fill="none" xmlns="http://www.w3.org/2000/svg">
  <path
    d="M128.146 194.298c50.746 0 91.9-41.154 91.9-91.788 0-50.746-41.154-91.788-91.9-91.788-50.745 0-91.9 41.154-91.9 91.788-.11 50.634 41.043 91.788 91.9 91.788Z"
    fill="#09BCCA" />
  <path
    d="M150.898 17.97c4.127 13.719 3.681 20.299.669 27.214-7.249 17.175-18.067 20.52-34.574 16.617-9.703-2.342-10.818-21.636-8.922-33.57 1.004-5.688.669-9.591 5.911-13.83 4.238-3.234 7.249-4.572 13.049-5.91 9.145-2.342 20.967 1.561 23.867 9.48Z"
    fill="#C3C5C7" />
  <path
    d="M120.116 9.606s7.361 51.415.558 51.638c-6.915 0-10.484-7.918-11.153-18.402-1.004-14.945 1.004-25.205 10.595-33.236Z"
    fill="#fff" />
  <path
    d="M160.713.684c6.914-2.007 15.502.446 18.848 6.803 2.9 5.465 1.561 12.157 3.792 17.956 2.007 5.242 6.803 9.034 12.157 11.042 5.018 1.896 10.372 2.23 15.391 3.903 5.018 1.673 10.037 5.019 11.264 10.15 1.004 3.791-.335 7.918-2.565 11.264-3.458 5.241-9.034 9.033-15.057 10.706-6.022 1.673-12.602 1.45-18.625-.334-8.141-2.342-15.391-7.361-20.633-14.053-5.242-6.692-8.03-15.056-8.253-23.532-.111-3.011.223-6.134-.111-9.146-.558-4.795-3.235-9.145-8.253-9.48-1.339-.111-4.573.223-5.465-.78-1.227-1.339.557-3.011 1.673-4.015 4.795-4.35 9.368-8.7 15.837-10.484Z"
    fill="#C3C5C7" />
  <path
    d="M90.115 132.734c-4.907 9.145-7.026 12.825-13.272 21.302-1.561 1.896-3.123 4.015-5.242 5.241-2.23 1.339-5.018 1.785-7.249.67-2.119-1.004-3.457-3.235-3.792-5.465-.446-2.231-.111-4.573.446-6.915 2.565-13.607 5.242-21.86 11.376-34.239 2.565-4.908 4.684-10.149 7.584-15.057 3.011-5.353 6.357-10.706 9.592-15.948 2.23-3.458 5.576-6.023 9.814-6.246 2.788 0 5.688 1.227 7.584 3.68 2.454 3.57 1.784 8.365.781 12.157-3.681 12.603-9.146 24.537-15.28 36.024-.78 1.45-1.45 3.011-2.342 4.796Z"
    fill="#994396" />
  <path d="M150.117 23.213s9.703 19.852-12.937 36.024c-23.867 17.175 12.937-36.024 12.937-36.024Z" fill="#fff" />
  <path
    d="M119.893 43.177c.112 9.926.112 19.74.223 29.666 0 1.004 0 2.12.446 2.9 1.004 2.119 5.577 1.561 7.25 1.338 3.234-.111 6.803-.78 8.364-4.126.893-1.673.893-3.792.893-5.577 0-8.03.111-16.171.111-24.09-5.688-.334-11.376-.446-17.287-.111Z"
    fill="#ED6636" />
  <path
    d="M131.827 60.575c-5.688 2.342-12.826 1.227-16.506-3.457-2.789-3.458-3.681-7.919-4.016-12.268-.892-10.707-1.672-26.544 8.923-32.901 4.572-2.566 10.149-3.123 15.279-2.454 12.938 2.008 12.714 15.28 10.372 25.206-2.565 10.26-2.788 21.413-14.052 25.874Z"
    fill="#ED6636" />
  <path
    d="M111.417 29.459c-.446.111-.892.111-1.227 0-.446-.111-.892-.446-1.004-.67-.223-.668.224-1.338.893-1.895 1.45-1.227 3.234-1.785 5.13-1.785 1.561 0 2.9 1.339 1.45 2.454-1.562.892-3.569 1.561-5.242 1.896ZM134.95 31.132c.446.111.892.111 1.226 0 .447-.112.893-.446 1.004-.67.223-.668-.334-1.338-.892-1.895-1.45-1.227-3.234-1.785-5.13-1.785-1.562 0-2.9 1.339-1.45 2.454 1.673.892 3.792 1.561 5.242 1.896Z"
    fill="#C3C5C7" />
  <path
    d="M129.039 34.588c0 1.116-.558 1.896-1.116 1.896-.557 0-1.115-.78-1.115-1.896 0-1.115.558-1.896 1.115-1.896.558 0 1.116.781 1.116 1.896ZM114.094 33.696c0 1.116-.558 1.896-1.115 1.896-.558 0-1.116-.78-1.116-1.896 0-1.115.558-1.896 1.116-1.896.557-.111 1.115.781 1.115 1.896Z"
    fill="#010101" />
  <path
    d="M115.878 42.619c.335.78 1.227 1.227 2.231 1.115 1.227-.223 1.784-1.338 2.342-2.453.557-1.339 2.9-9.146-.335-8.923-2.453.223-3.123 5.911-3.792 7.696-.334.78-.446 1.45-.334 2.342-.112.111-.112.223-.112.223Z"
    fill="#45469C" />
  <path d="M116.77 48.084c.67.669 1.785 1.115 2.9.892 1.004-.112 2.008-.892 2.454-1.785" stroke="#010101"
    stroke-width=".663" stroke-miterlimit="10" stroke-linecap="round" stroke-linejoin="round" />
  <path
    d="m13.607 75.966 1.226-35.912c.112-2.12 1.896-3.792 3.904-3.68 2.119.111 3.792 1.895 3.68 3.903L21.08 76.189c-.111 2.12-1.896 3.792-3.904 3.68-2.007 0-3.68-1.784-3.568-3.903Z"
    fill="#9B4198" />
  <path
    d="m25.651 40.723.781.557c5.577 4.015 12.38 6.469 19.072 7.25l-.67 19.517c-6.803.335-13.718 2.12-19.517 5.688l-.78.558 1.114-33.57Z"
    fill="#45469B" />
  <path
    d="m49.407 48.865 13.384.446c3.122.112 5.576 2.789 5.464 5.911l-.223 7.584c-.111 3.123-2.788 5.577-5.91 5.465l-13.384-.446.67-18.96Zm9.034 11.822c1.004 0 1.896-.78 2.007-1.784 0-1.004-.78-1.896-1.784-2.008l-3.904-.111c-1.003 0-1.895.78-2.007 1.784 0 1.004.78 1.896 1.784 2.008l3.904.111Z"
    fill="#9B4198" />
  <path
    d="m49.965 81.097-3.68-.112c-3.123-.111-5.577-2.788-5.465-5.911l.111-2.677c1.227-.223 2.565-.334 3.792-.446l-.112 3.235c0 1.003.781 1.895 1.785 2.007l3.68.112.223-5.354 7.584.223-.669 12.045c-.111 2.12-1.896 3.792-3.903 3.68-2.12-.11-3.792-1.895-3.68-3.903l.334-2.9Z"
    fill="#45469B" />
  <path
    d="M6.357 45.853c.78-.67 2.008-.67 2.677.111l2.565 2.789c.67.78.67 2.007-.111 2.676-.781.67-2.008.67-2.677-.111L6.246 48.53c-.67-.781-.67-2.008.111-2.677ZM5.576 67.378l2.789-2.565c.78-.67 2.007-.67 2.676.111.67.781.67 2.008-.111 2.677l-2.788 2.565c-.781.67-2.008.67-2.677-.111-.67-.78-.67-2.008.111-2.677ZM0 57.676c0-1.004.892-1.896 2.008-1.785l5.353.223c1.004 0 1.896.893 1.784 2.008a1.822 1.822 0 0 1-2.007 1.784l-5.354-.223C.781 59.683 0 58.791 0 57.676Z"
    fill="#999" />
  <path
    d="M52.642 77.416c.334.335.557.67.78 1.004.558.335.893 1.896 1.116 2.565.446 1.004.669 2.008.892 3.011.334-1.003.557-2.007 1.004-2.9.111-.334.223-.557.446-.78.111-.112.223-.223.334-.223h.446c.446.112.67.558.781 1.004 2.23 6.915-4.127 11.71-5.8 18.067-.334 1.785-1.45 3.346-3.122 4.35-4.907 2.565-8.253-3.68-9.369-7.026-1.338-4.35-2.676-8.7-3.569-13.16-.669-3.012.558-3.681 3.235-5.02a25.36 25.36 0 0 1 8.141-2.342 8.234 8.234 0 0 1 2.342 0c1.004.335 1.785.781 2.343 1.45Z"
    fill="#F2663B" />
  <path
    d="M117.328 62.806c1.562-.112 21.191-1.227 22.194-1.227 1.004 0 .447 8.142.447 8.142s21.525 5.688 27.101 8.81c5.576 3.123 39.927 46.731 45.392 59.668-5.019 12.826-16.06 25.317-16.06 25.317l-29.444-40.596 8.142 58.218s-17.733 13.16-47.4 13.16c-29.666 0-50.634-15.168-50.634-15.168l11.71-52.641 7.92-49.63 19.963-6.246s-.892-7.696.669-7.807ZM54.426 96.599c1.338.111 2.565.67 3.457 2.119.781 1.227.67 2.9-.223 4.015 1.116.558 2.23 1.115 3.123 2.008.892.892 1.338 2.23 1.004 3.345-.112.335-.335.67-.558 1.004-.78.781-2.119.781-3.123.223-1.003-.557-1.673-1.45-2.453-2.342-2.008 2.788-5.02 4.907-8.365 5.911-1.561.446-3.569.892-5.242.781-1.896-.223-2.23-1.785-2.007-3.569.223-2.119 1.003-4.127 2.119-5.8-.558.335-1.227.67-1.896.67-.67 0-1.45-.335-1.673-.893-.223-.78.223-1.561.78-2.119 2.231-2.565 5.02-3.234 8.254-3.792 1.896-.446 4.572-1.673 6.803-1.561Z"
    fill="#994396" />
  <path
    d="M77.066 149.909c0 .112 0 .112 0 0 .892 7.361-9.145 14.388-16.84 10.596-3.458-1.673-5.242-5.131-6.692-8.365-4.35-9.926-7.361-20.521-8.811-31.228-.67-5.019-4.35-24.313 7.919-18.402 1.56.78 2.9 2.007 4.126 3.346 5.353 5.911 7.36 12.379 10.484 19.405 3.569 7.696 8.699 15.838 9.814 24.648Z"
    fill="#994396" />
  <path d="m123.574 71.059-4.573 122.793 3.123.223 3.68-123.016h-2.23Z" fill="#F89C33" />
  <path
    d="M141.195 32.358c2.008.111 11.153 3.346 11.042 1.227-.112-2.343-.335-8.923-1.673-10.93-1.116-1.785-2.454-3.346-4.461-4.238-1.785-.781-4.35-1.227-6.246-1.004-.892.111-.558 4.35.223 5.019a1.935 1.935 0 0 0 1.561.334 4.222 4.222 0 0 1 1.673 0c.223.112.446.223.558.446.112.223.112.558-.112.67-.111.111-.334.111-.557.111-.669.112-3.346-.111-3.569.67-.112.334.223.668.558.78a8.85 8.85 0 0 0 2.453.67c.335 0 .781.222.781.557 0 .334-.446.669-.781.669-.781 0-1.561-.112-2.342-.112-1.338 0-1.784 3.346-1.115 4.35.446.892 1.227.78 2.007.78Z"
    fill="#fff" />
  <path
    d="M145.433 31.02c1.562-.558 3.346-.446 4.573.669 1.673 1.338 2.119 4.015 1.115 6.023-.892 1.896-2.788 3.345-4.796 4.126-1.449.558-3.234.78-4.461-.111-1.115-.781-1.561-2.231-1.45-3.57.447-2.787 2.454-6.133 5.019-7.137Z"
    fill="#ED6636" />
  <path
    d="M152.348 28.677c2.788 0-4.907-18.513-11.264-21.748-6.357-3.234-9.369-4.126-17.845-1.003-5.799 2.565-19.071.669-19.071 9.703-.335 7.583 6.58 10.483 26.767 1.673 10.595-4.796 18.179 11.375 21.413 11.375Z"
    fill="#C3C5C7" /></svg>
