<svg width="103" height="86" fill="none" xmlns="http://www.w3.org/2000/svg"><g clip-path="url(#a)"><path d="M18.46 38.517c.515-.568.926-1.395 1.286-2.067.72-1.446 1.389-3.1 1.132-4.701-.309-2.119-1.698-4.082-3.55-5.064-2.056-1.085-4.731-.981-6.685.362-.823.569-1.44 1.292-2.058 2.119-.977 1.343-1.697 2.841-1.903 4.443-.206 1.602.257 3.358 1.337 4.547 2.418 2.583 7.767 3.048 10.287.516l.154-.155Z" fill="#31B37E"/><path d="M9.974 40.016c-.052 0-.052 0-.103-.052a.158.158 0 0 1 0-.206 36.695 36.695 0 0 0 7.098-13.434c0-.052.103-.103.154-.103.052 0 .103.103.103.155-1.44 4.908-3.909 9.61-7.15 13.537-.05.103-.05.103-.102.103ZM13.214 40.585c-.051 0-.103 0-.103-.052-.051-.052 0-.155.052-.207 2.366-1.343 3.652-3.926 4.269-5.89.874-2.532 1.08-5.063.668-7.285 0-.052.052-.155.103-.155.052 0 .155.052.155.103.411 2.274.205 4.857-.669 7.44-.669 1.964-1.954 4.65-4.423 6.046h-.052ZM8.02 38.465c-.103 0-.155-.103-.155-.155.72-4.96 3.6-9.61 7.818-12.4.052-.052.155 0 .206.052.052.051 0 .155-.051.206-4.115 2.739-6.995 7.285-7.715 12.194 0 .052-.052.103-.103.103Z" fill="#C4D777"/><path d="M5.396 34.953c.206-.775.155-1.653.103-2.428-.051-1.602-.308-3.358-1.286-4.702-1.286-1.705-3.446-2.738-5.554-2.686-2.366.051-4.63 1.446-5.658 3.565a8.957 8.957 0 0 0-.772 2.841c-.205 1.602-.103 3.307.515 4.805.617 1.499 1.851 2.842 3.394 3.359 3.343 1.085 8.281-1.137 9.258-4.599v-.155Z" fill="#31B37E"/><path d="M1.744 39.293h-.05c-.052-.052-.104-.103-.052-.207 1.44-2.325 1.285-5.218.925-7.233-.462-2.635-1.491-4.96-2.931-6.717a.158.158 0 0 1 0-.207.156.156 0 0 1 .205 0c1.492 1.809 2.52 4.134 3.035 6.82.36 2.067.514 5.012-.926 7.389-.103.155-.154.155-.206.155Z" fill="#C4D777"/><path d="M51.635 28.03c.309 1.446.411 2.944.463 4.391.051 1.137.154 2.377-.154 3.462-.206.826-.566 1.343-.823.258-.566-2.532-.566-5.528-.36-8.06 0-.258.103-.62.36-.62.205 0 .308.155.411.31.052.103.103.207.103.258Z" fill="#45459B"/><path d="M50.812 34.384c.154-.052.36-.207.514-.31.618-.362 1.75-.723 1.543-1.602a4.208 4.208 0 0 0-.617-1.498c-.103-.104-.206-.259-.36-.259-.463-.051-.411.672-.771.776-.103.051-.257 0-.412.051-.154.052-.205.207-.257.362 0 .052-.051.103-.051.207-.155.775-.617 2.686.411 2.273ZM43.252 21.673c-1.904-.62-3.6.879-3.652 2.79-.052 2.429 2.314 4.392 4.577 4.65.309.052.617.155.823-.155.155-.206.206-.465.309-.775.103-.413.206-.775.309-1.188.05-.155.102-.31.257-.362.103-.051.257.052.36 0 .154-.051.257-.206.206-.361-.155-.362-.772-.207-.926-.62-.052-.155 0-.362 0-.517a3.077 3.077 0 0 0-.31-1.653 2.866 2.866 0 0 0-1.953-1.809Z" fill="#F1653A"/><path d="M44.178 28.65c-.36 1.033-.72 2.118-1.132 3.152a.752.752 0 0 1-.309.465c-.205.103-.411 0-.617-.104l-2.16-1.085c-.154-.052-.309-.155-.36-.31 0-.103.051-.258.103-.361.617-1.085 1.183-2.17 1.8-3.204l2.675 1.447Z" fill="#F1653A"/><path d="M41.297 29.167c-.154-.052-.257-.155-.412-.155-.205 0-.411.051-.617.155-1.8.981-2.829 2.686-3.497 4.547-.566 1.55-1.08 3.255-1.8 4.753-.463.878-.823 1.808-1.44 2.635a15.09 15.09 0 0 0-1.492 2.48c.823 1.085 2.314 1.808 3.549 2.377.977.413 2.006.774 3.034 1.136.926.31 1.852.62 2.83.672 1.645.051 3.805.413 5.348-.31v-2.222c.103-.878 0-1.86 0-2.738-.051-1.86-.206-3.72-.668-5.58-.412-1.705-1.132-3.514-2.11-4.96a7.454 7.454 0 0 0-2.725-2.79Z" fill="#45459B"/><path d="M43.457 21.519c.617.258 1.44.672 1.748 1.292.36.723-.205 1.55-.925 1.756-.412.155-.926.104-1.235.413-.36.362-.308.93-.257 1.395.103 1.55-.308 3.1-1.183 4.34-.823 1.292-2.108 2.222-3.548 2.739-1.184.413-2.624.362-3.395-.568-.772-.982-.72-2.997.154-3.927.463-.465 1.029-.724 1.595-1.033.565-.31 1.131-.62 1.491-1.189.72-1.136.257-2.686.823-3.875.411-.878 1.286-1.447 2.212-1.705.823-.103 1.748 0 2.52.362Z" fill="#994396"/><path d="M43.097 26.376c-.154.362-.617.207-.874.052-.566-.31-.823-.93-.412-1.447.155-.155.309-.31.514-.258.206 0 .36.155.463.31.36.362.464 1.033.31 1.343Z" fill="#F1653A"/><path d="M45.15 25.297c.02-.17-.033-.316-.118-.326-.084-.01-.17.12-.19.29-.02.17.033.316.117.326.085.01.17-.12.19-.29Z" fill="#000"/><path d="M44.486 24.773c-.051.207.257.155.36.104.103-.052.309-.155.412-.259.205-.258-.206-.258-.36-.206-.155.051-.412.258-.412.361Z" fill="#994396"/><path d="M45.515 27.46a.829.829 0 0 1-.67-.31c-.05-.052-.05-.103 0-.103.053-.052.104-.052.104 0 .154.155.36.258.566.258.05 0 .103.052.103.103 0 0-.052.052-.103.052Z" fill="#000"/><path d="M42.222 39.964c-.462-1.136-.822-2.325-1.131-3.513-.36-1.395-.772-2.532-.669-4.03 0-.31.052-.672.206-.93.977-2.119 2.932.672 3.446 1.705a16.523 16.523 0 0 1 1.543 4.392c.206 1.136.669 3.151 0 4.133-.309.465-.977.672-1.543.568-.669-.155-1.08-.62-1.389-1.188a6.639 6.639 0 0 1-.463-1.137Z" fill="#F1653A"/><path d="M50.246 32.989c.103-.155.258-.362.463-.413.309-.104.72.155.772.516.103.414-.155.827-.412 1.189-.771 1.188-1.234 2.583-2.057 3.72s-1.75 2.221-2.83 3.203c-.462.413-.925.827-1.542.93-1.338.207-2.16-1.395-1.492-2.428 1.8-2.842 5.092-4.03 7.098-6.717Z" fill="#F1653A"/><path d="M97.05 45.183c-.874-2.325-1.954-4.65-3.857-6.252-2.211-1.963-5.246-2.635-8.178-3.151-5.76-.982-11.675-1.085-17.487-1.55-.875-.052-8.59-.052-8.692-.414-1.286-3.513-2.52-7.026-3.755-10.54-1.286-3.565-2.88-7.543-6.378-9.093-1.543-.672-3.24-.775-4.886-.827-3.6-.155-7.2-.052-10.8.207-3.087.206-6.533.826-8.333 3.358-1.234 1.757-1.337 4.082-1.337 6.252l-.309 15.448-36.415.052c.052 1.498.155 3.048.309 4.495 2.263.052 4.577.155 6.84.362.052.051.155.103.412.103 3.035.31 6.583.672 9.258 2.222 2.366 1.343 3.035 4.547 3.446 7.078.514 3.41.977 6.872 1.08 10.334 14.453.981 28.957.775 43.461.413 1.235-.051 2.52-.051 3.755-.103.617-4.34 1.8-8.629 3.6-12.607.823-1.86 1.8-3.72 3.395-4.96 2.109-1.654 4.937-2.015 7.56-2.222 5.298-.413 10.596-.568 15.893-.413 3.24.103 6.532.413 9.31 2.118 1.131.723 2.263 2.17 3.034 3.255-.257-.93-.566-2.532-.926-3.565Zm-44.9-10.488c-1.595.31-3.19.31-4.835.258-2.778-.103-5.607-.103-8.384-.207-1.594-.051-3.857.104-5.71-.31-.153-.051-.256-.051-.41-.103-.412-.103-.823-.258-1.132-.465-1.389-.775-1.595-2.738-1.595-4.34V24c0-.879 0-1.809.515-2.532.771-1.085 2.314-1.189 3.652-1.24l11.88-.155c1.235 0 2.47 0 3.498.62 1.132.723 1.697 2.066 2.16 3.306 1.029 2.687 2.057 5.477 2.057 8.37 0 .569-.05 1.24-.462 1.654-.309.413-.772.568-1.235.672Z" fill="#F89C33"/><path d="M5.14 26.119c.257-.724.308-1.654.36-2.429.102-1.601 0-3.41-.875-4.805-1.132-1.808-3.189-3.048-5.298-3.203-2.314-.155-4.731.982-5.966 2.997-.514.826-.823 1.808-1.029 2.738-.36 1.602-.411 3.307.052 4.857.463 1.55 1.543 2.996 3.034 3.668 3.24 1.395 8.333-.31 9.618-3.668.103-.052.103-.104.103-.155Z" fill="#24B496"/><path d="M1.127 30.148c-.051 0-.051 0-.102-.052-.052-.051-.052-.154-.052-.206 1.646-2.17 1.749-5.064 1.595-7.079-.206-2.686-1.03-5.063-2.315-6.975-.051-.051-.051-.155.051-.206.052-.052.155-.052.206.051 1.286 1.912 2.109 4.392 2.366 7.079.206 2.066.052 5.063-1.646 7.285-.051.051-.051.103-.103.103Z" fill="#C4D777"/><path d="M16.352 23.586c.051-.775-.103-1.654-.258-2.428-.257-1.55-.771-3.307-1.954-4.444-1.543-1.447-3.806-2.17-5.863-1.86-2.315.413-4.372 2.118-5.092 4.34-.309.93-.36 1.912-.36 2.893.051 1.654.36 3.307 1.234 4.702.823 1.395 2.212 2.532 3.806 2.79 3.498.569 8.024-2.325 8.487-5.89v-.103Z" fill="#00A578"/><path d="M10.488 29.993c-.051 0-.051 0 0 0-.102 0-.154-.052-.154-.155.206-5.064-.669-10.282-2.52-14.984-.052-.052 0-.155.051-.155.052-.051.155 0 .155.052a37.728 37.728 0 0 1 2.52 15.087c.051.051 0 .155-.052.155ZM13.369 28.442h-.052c-.051-.051-.103-.103-.051-.155 1.08-2.531.514-5.322-.155-7.285-.874-2.531-2.211-4.702-3.908-6.2a.158.158 0 0 1 0-.207.156.156 0 0 1 .205 0c1.75 1.55 3.086 3.72 3.96 6.304.67 1.963 1.235 4.908.155 7.492-.051 0-.103.051-.154.051ZM7.968 29.89c-.051 0-.103 0-.103-.052-2.468-4.391-2.931-9.868-1.285-14.621 0-.052.102-.104.154-.104.051 0 .103.104.103.155C5.19 20.022 5.654 25.395 8.07 29.683c.052.052 0 .155-.051.207h-.052Z" fill="#C4D777"/><path d="M77.866 78.406c7.726 0 13.99-6.292 13.99-14.054 0-7.761-6.264-14.053-13.99-14.053-7.727 0-13.99 6.292-13.99 14.053 0 7.762 6.264 14.054 13.99 14.054Z" fill="#45459B"/><path d="M77.866 71.016c3.664 0 6.635-2.984 6.635-6.665s-2.97-6.666-6.635-6.666c-3.664 0-6.635 2.985-6.635 6.666 0 3.68 2.97 6.665 6.635 6.665Z" fill="#CCE8DF"/><path d="M77.866 68.536c2.3 0 4.166-1.873 4.166-4.185 0-2.311-1.865-4.185-4.166-4.185S73.7 62.04 73.7 64.351c0 2.312 1.865 4.185 4.166 4.185Z" fill="#00BCCC"/><path d="M55.133 63.474a46.507 46.507 0 0 0-.463 5.321c3.343-.052 6.686-.154 10.081-.207-.052-1.756 0-3.565.36-5.27-3.343 0-6.635.052-9.978.156Z" fill="#F1653A"/><path d="M90.21 62.697c.257.879.463 1.809.669 2.688.102.464.05 1.756.41 2.118.72.826 3.447.258 4.424.206 1.234-.103 2.417-.206 3.652-.31 1.851-.155 4.115-1.188 4.166-3.41.052-1.86-2.006-2.325-3.498-2.222-.103 0-.257.052-.41.052-2.058.31-7.253.878-9.413.878Z" fill="#E6F2E1"/><path d="m55.133 63.421 9.978-.154c.257-1.292.617-2.532 1.131-3.72 4.32-9.507 20.11-8.112 23.454 1.498.463 1.291.668 2.635.874 3.978.103.672-.103 2.635.463 3.1.514.414 3.19-.051 3.858-.103 1.182-.052 2.417-.103 3.6-.207 1.595-.155 1.029-.93 1.029-2.325-.051-2.532-.051-5.063-.257-7.595-.155-1.705-.31-3.358-.566-5.011-.206-1.24-.257-3.773-1.03-4.754-.822-1.085-1.748-1.963-2.93-2.687-2.727-1.705-6.121-1.963-9.361-2.015-5.247-.155-10.544 0-15.79.413-2.624.207-5.453.517-7.51 2.17-1.594 1.24-2.571 3.1-3.343 4.909-1.8 3.978-2.983 8.215-3.6 12.503Z" fill="#F1653A"/><path d="M8.07 68.95c7.51.259 15.07.259 22.58.156l24.02-.31c.05-1.808.205-3.565.462-5.322-1.234 0-2.52.052-3.754.103-14.35.362-28.752.517-43.153-.413a36.424 36.424 0 0 1-.154 5.787Z" fill="#E6F2E1"/><path d="M34.662 39.758h-5.503v.723h5.503v-.723Z" fill="#45459B"/><path d="M25.456 60.89a.39.39 0 0 1-.258-.104.395.395 0 0 1-.102-.258L26.227 19.4c0-.207.154-.362.36-.362s.36.155.36.362l-1.08 40.714 26.9-.207c.205-1.86 1.285-10.54 4.68-15.655a.397.397 0 0 1 .514-.104.402.402 0 0 1 .103.517c-3.6 5.425-4.578 15.552-4.578 15.655a.352.352 0 0 1-.36.362l-27.67.207Z" fill="#45459B"/><path d="M42.325 17.23c1.364 0 2.47-1.527 2.47-3.41 0-1.883-1.106-3.41-2.47-3.41-1.363 0-2.468 1.527-2.468 3.41 0 1.883 1.105 3.41 2.468 3.41Z" fill="#00BCCC"/><path d="M42.325 16.043c-.874 0-1.594-.982-1.594-2.222s.72-2.221 1.594-2.221c.875 0 1.595.981 1.595 2.221 0 1.24-.72 2.222-1.595 2.222Zm0-4.288c-.822 0-1.49.93-1.49 2.066 0 1.137.668 2.067 1.49 2.067.823 0 1.492-.93 1.492-2.067 0-1.136-.72-2.066-1.492-2.066Z" fill="#008793"/><path d="M43.405 12.427c-.05-.052-.05-.052-.05-.104l.616-.878c0-.052.052-.052.103 0 .052 0 .052.052 0 .103l-.617.879h-.052ZM40.577 16.352c-.052-.051-.052-.051-.052-.103.103-.155.36-.465.618-.878 0-.052.051-.052.102 0 .052 0 .052.051 0 .103-.308.413-.514.723-.617.878h-.051ZM44.074 16.302s-.051 0-.051-.052l-.155-.258c-.102-.155-.308-.414-.462-.672v-.103h.102c.206.258.36.465.463.671l.155.259c0 .051 0 .103-.052.155ZM41.194 12.322s-.051 0-.051-.051c-.258-.414-.515-.724-.618-.879v-.103h.103c.103.155.36.465.617.878.052.104.052.155-.051.155.051 0 .051 0 0 0Z" fill="#008793"/><path d="M44.331 47.612c0-.62-.514-1.137-1.13-1.137-.618 0-1.133.517-1.133 1.137s.515 1.136 1.132 1.136c.617 0 1.131-.517 1.131-1.136ZM41.04 47.612c0-.62-.514-1.137-1.132-1.137-.617 0-1.131.517-1.131 1.137s.514 1.136 1.131 1.136c.618 0 1.132-.517 1.132-1.136ZM34.148 50.763l1.645 2.48c.155.206.36.362.669.413h.411c.258-.051.515-.206.618-.413l.771-1.188.772 1.188c.102.155.257.31.462.362h.052c.051 0 .103.051.103.051h.36c.051 0 .051 0 .103-.051h.051c.206-.052.36-.207.463-.362l.772-1.188.771 1.188c.154.206.36.362.669.413h.36c.257-.051.514-.206.617-.413l1.646-2.48c.308-.465.154-1.085-.309-1.395a1.032 1.032 0 0 0-.566-.155h-.206c-.257.051-.514.207-.617.413l-.77 1.188-.773-1.188c-.154-.206-.36-.362-.565-.413h-.515c-.205.051-.411.207-.565.413l-.772 1.188-.771-1.188c-.155-.206-.36-.362-.566-.413h-.515c-.205.051-.41.207-.565.413l-.772 1.188-.771-1.188a1.005 1.005 0 0 0-.669-.413h-.206c-.205 0-.411.051-.565.155-.206.155-.36.361-.412.672a.9.9 0 0 0 .154.723ZM37.748 47.612c0-.62-.514-1.137-1.132-1.137-.617 0-1.131.517-1.131 1.137s.514 1.136 1.131 1.136c.618 0 1.132-.517 1.132-1.136Z" fill="#FFC731"/><path d="M.356 71.74a14.048 14.048 0 0 0 2.109-7.388c0-7.75-6.275-14.053-13.99-14.053h-.206A48.496 48.496 0 0 0 .356 71.74Z" fill="#45459B"/><path d="M7.196 52.83c-.411-2.48-1.08-5.684-3.394-7.027-2.675-1.55-6.224-1.912-9.207-2.222-2.571-.258-5.092-.413-7.663-.413.36 3.152.977 6.252 1.903 9.197 3.189.052 6.275 1.24 8.435 3.874 1.543 1.809 2.726 3.98 3.497 6.304.669 2.015 1.08 4.082 1.08 6.149 2.058.103 4.115.207 6.224.258.205-1.963.205-3.875.154-5.838-.051-3.462-.514-6.873-1.029-10.282Z" fill="#F1653A"/><path d="m-13.377 37.691 35.438-.155.308-5.063-35.489.103a54.908 54.908 0 0 0-.257 5.115ZM-12.297 27.512l34.82-.052v-5.27l-33.38-.155c-.565 1.757-1.08 3.617-1.44 5.477Z" fill="#45459B"/><path d="m-3.862 37.845 5.607-.155V20.691h-5.76l.153 17.154Z" fill="#6778B7"/></g><defs><clipPath id="a"><path fill="#fff" d="M0 0h103v86H0z"/></clipPath></defs></svg>