<svg id="eR47bTvI6ep1" xmlns="http://www.w3.org/2000/svg" viewBox="0 0 311 243" shape-rendering="geometricPrecision" text-rendering="geometricPrecision"><style>@keyframes eR47bTvI6ep2_ts__ts{0%{transform:translate(16.58132px,59.64135px) scale(1,1)}53.333333%{transform:translate(16.58132px,59.64135px) scale(.433916,.433916)}93.333333%,to{transform:translate(16.58132px,59.64135px) scale(.931869,.931869)}}@keyframes eR47bTvI6ep3_ts__ts{0%{transform:translate(267.653503px,39.192749px) scale(2.036843,2.036843)}53.333333%{transform:translate(267.653503px,39.192749px) scale(1.073734,1.073734)}93.333333%,to{transform:translate(267.653503px,39.192749px) scale(2.30243,2.30243)}}@keyframes eR47bTvI6ep4_ts__ts{0%{transform:translate(256.578011px,191.520004px) scale(1,1)}40%{transform:translate(256.578011px,191.520004px) scale(.406822,.406822)}93.333333%,to{transform:translate(256.578011px,191.520004px) scale(.956996,.956996)}}@keyframes eR47bTvI6ep5_ts__ts{0%{transform:translate(272.350494px,108.050999px) scale(1,1)}26.666667%{transform:translate(272.350494px,108.050999px) scale(3.253315,3.253315)}93.333333%,to{transform:translate(272.350494px,108.050999px) scale(1.763061,1.763061)}}@keyframes eR47bTvI6ep6_ts__ts{0%{transform:translate(37.33655px,147.056999px) scale(1,1)}53.333333%{transform:translate(37.33655px,147.056999px) scale(3.097762,3.097762)}93.333333%,to{transform:translate(37.33655px,147.056999px) scale(1.629661,1.629661)}}@keyframes eR47bTvI6ep7_ts__ts{0%{transform:translate(37.528851px,205.156006px) scale(.577699,.577699)}40%{transform:translate(37.528851px,205.156006px) scale(1.081086,1.081086)}93.333333%,to{transform:translate(37.528851px,205.156006px) scale(.6836,.6836)}}@keyframes eR47bTvI6ep8_tr__tr{0%{transform:translate(150.824104px,119.007275px) rotate(0deg)}53.333333%{transform:translate(150.824104px,119.007275px) rotate(14.250775deg)}93.333333%,to{transform:translate(150.824104px,119.007275px) rotate(-1.354672deg)}}@keyframes eR47bTvI6ep10_tr__tr{0%{transform:translate(111.322403px,68.790546px) rotate(-10.927457deg)}40%{transform:translate(111.322403px,68.790546px) rotate(-3.738638deg)}93.333333%,to{transform:translate(111.322403px,68.790546px) rotate(.16073deg)}}@keyframes eR47bTvI6ep11_tr__tr{0%{transform:translate(182.12558px,62.987217px) rotate(10.324642deg)}40%{transform:translate(182.12558px,62.987217px) rotate(-.797801deg)}93.333333%,to{transform:translate(182.12558px,62.987217px) rotate(13.748301deg)}}@keyframes eR47bTvI6ep22_tr__tr{0%{transform:translate(164.15448px,203.798027px) rotate(-37.858879deg)}53.333333%{transform:translate(164.15448px,203.798027px) rotate(-1.194231deg)}93.333333%,to{transform:translate(164.15448px,203.798027px) rotate(-40.289034deg)}}</style><g transform="matrix(.93187 0 0 .93187 16.581 59.641)" style="animation:eR47bTvI6ep2_ts__ts 750ms linear infinite reverse forwards"><path id="eR47bTvI6ep2" d="M16.86 39.858C17.214 49.98 22.327 59 28.265 59.98c-5.768.931-10.747 9.625-11.136 19.444.437-11.125-7.578-16.832-12.23-20.218 5.66-.762 12.327-8.827 11.963-19.348Z" transform="translate(-16.581 -59.641)" fill="#FFE400" stroke="none" stroke-width="1" stroke-miterlimit="1"/></g><g transform="translate(267.654 39.193) scale(2.30243)" style="animation:eR47bTvI6ep3_ts__ts 750ms linear infinite reverse forwards"><path id="eR47bTvI6ep3" d="M267.799 28.929c.181 5.246 2.832 9.932 5.914 10.444-2.991.483-5.573 4.997-5.775 10.084.229-5.772-3.929-8.73-6.344-10.486 2.935-.393 6.392-4.582 6.205-10.042Z" transform="translate(-267.654 -39.193)" fill="#F1653A" stroke="none" stroke-width="1" stroke-miterlimit="1"/></g><g transform="matrix(.957 0 0 .957 256.578 191.52)" style="animation:eR47bTvI6ep4_ts__ts 750ms linear infinite reverse forwards"><path id="eR47bTvI6ep4" d="M256.983 162.973c.503 14.592 7.878 27.625 16.45 29.047-8.32 1.345-15.504 13.899-16.064 28.047.639-16.052-10.927-24.28-17.646-29.162 8.167-1.096 17.782-12.746 17.26-27.932Z" transform="translate(-256.578 -191.52)" fill="#FFE400" stroke="none" stroke-width="1" stroke-miterlimit="1"/></g><g transform="translate(272.35 108.051) scale(1.76306)" style="animation:eR47bTvI6ep5_ts__ts 750ms linear infinite reverse forwards"><path id="eR47bTvI6ep5" d="M272.451 100.847c.126 3.682 1.992 6.971 4.152 7.33-2.099.34-3.912 3.509-4.052 7.078.161-4.048-2.762-6.125-4.453-7.364 2.066-.273 4.486-3.216 4.353-7.044Z" transform="translate(-272.35 -108.051)" fill="#09BCCA" stroke="none" stroke-width="1" stroke-miterlimit="1"/></g><g transform="translate(37.337 147.057) scale(1.62966)" style="animation:eR47bTvI6ep6_ts__ts 750ms linear infinite reverse forwards"><path id="eR47bTvI6ep6" d="M37.41 141.795c.094 2.691 1.455 5.089 3.033 5.353-1.531.246-2.856 2.562-2.962 5.171.118-2.955-2.014-4.474-3.25-5.376 1.501-.206 3.273-2.351 3.18-5.148Z" transform="translate(-37.337 -147.057)" fill="#F1653A" stroke="none" stroke-width="1" stroke-miterlimit="1"/></g><g transform="translate(37.529 205.156) scale(.6836)" style="animation:eR47bTvI6ep7_ts__ts 750ms linear infinite reverse forwards"><path id="eR47bTvI6ep7" d="M37.764 188.311c.302 8.615 4.656 16.29 9.708 17.135-4.901.789-9.142 8.201-9.481 16.555.377-9.461-6.447-14.322-10.405-17.211 4.806-.639 10.48-7.527 10.178-16.479Z" transform="translate(-37.529 -205.156)" fill="#09BCCA" stroke="none" stroke-width="1" stroke-miterlimit="1"/></g><g transform="rotate(-1.355 5108.584 -6319.297)" style="animation:eR47bTvI6ep8_tr__tr 750ms linear infinite reverse forwards"><g id="eR47bTvI6ep8" transform="translate(-150.824 -119.007)"><path id="eR47bTvI6ep9" d="M137.378 215.046c-3.738-1.614-7.574-3.468-9.633-6.088-.188 1.055-.255 2.118-.344 3.185-5.524-3.849-9.279-8.193-12.902-13.716-1.044-1.59-10.567-17.687-9.006-18.682-1.058.669-2.126 1.35-3.184 2.019-5.518-5.598-8.333-13.722-7.449-21.525-2.387-.473-4.764-.947-7.151-1.421 1.166-.797 2.32-1.604 3.486-2.402-3.365-1.561-6.73-3.133-10.094-4.695 2.958-1.263 5.927-2.528 8.885-3.802-3.939-2.394-7.889-4.799-11.828-7.193 1.546-3.338 3.08-6.674 4.626-10.012-2.622.412-5.234.823-7.858 1.224a23.123 23.123 0 0 1 6.801-12.024c-2.113.16-4.226.331-6.339.492 10.04-6.91 12.07-15.594 16.514-26.064 3.754-8.842 8.636-17.451 15.906-23.406 9.364-7.668 20.77-12.78 32.635-15.072 12.164-2.351 21.563-1.524 32.384 3.764 21.141 10.328 38.441 25.51 47.851 47.461-1.328 1.914-3.605 3.147-5.943 3.209 3.595 1.109 6.516 4.147 7.472 7.775-2.414-.039-4.827-.078-7.241-.128a15.243 15.243 0 0 0 10.03 4.355c.905.036-3.492 8.126-3.524 8.497-.472 4.287.49 3.508 5.25 3.581-.335 5.096-3.064 9.999-7.223 12.992 2.225-.365 4.438-.74 6.663-1.105-1.759 2.904-6.115 3.701-7.351 6.87-.785 2.015.013 4.243.42 6.365 1.263 6.69-1.807 12.498-6.832 16.629-.113-1.74-.516-3.572-1.382-5.112.835 1.554-1.587 9.518-2.031 11.578-1.013 4.682-2.848 9.267-4.96 13.552-.054.113-2.329-5.986-2.626-6.64-2.489 12.885-8.384 24.352-21.019 30.18-5.826 2.691-12.429 3.866-17.529 7.754-6.412-3.217-12.824-6.445-19.236-9.66-1.774-.897-3.992-1.775-6.238-2.735Z" fill="#FFE400" stroke="none" stroke-width="1" stroke-miterlimit="1"/><g transform="rotate(.161 -24466.241 39717.713)" style="animation:eR47bTvI6ep10_tr__tr 750ms linear infinite reverse forwards"><path id="eR47bTvI6ep10" d="M121.676 117.224c4.895-3.872 8.846-9.98 10.886-14.966 4.729-11.56 2.266-22.602-2.669-33.868-6.719-15.344-11.99-31.012-19.742-45.936-1.406-2.71-3.334-5.736-6.194-5.907-3.188-.19-5.3 3.262-6.539 6.368-3.72 9.297-5.69 19.425-5.788 29.646-1.357-1.548-2.725-3.094-4.082-4.643.187 15.057.73 30.203 3.38 45.075 1.095 6.153 2.6 12.382 5.797 17.697 3.188 5.318 8.331 9.656 14.155 10.284 3.823.422 7.526-1.163 10.796-3.75Z" transform="translate(-111.322 -68.79)" fill="#FFE400" stroke="none" stroke-width="1" stroke-miterlimit="1"/></g><g transform="rotate(13.748 -170.175 786.853)" style="animation:eR47bTvI6ep11_tr__tr 750ms linear infinite reverse forwards"><path id="eR47bTvI6ep11" d="M177.411 112.898c-5.387-3.117-10.158-8.596-12.878-13.236-6.32-10.758-5.455-22.045-2.187-33.914 4.455-16.164 7.444-32.444 12.971-48.337 1.009-2.883 2.48-6.165 5.285-6.75 3.121-.65 5.691 2.459 7.357 5.351 4.987 8.666 8.391 18.405 9.928 28.506 1.122-1.732 2.253-3.463 3.374-5.195 1.948 14.931 3.572 30 3.072 45.1-.212 6.253-.811 12.63-3.215 18.357-2.394 5.729-6.86 10.77-12.521 12.239-3.721.995-7.589-.039-11.186-2.121Z" transform="translate(-182.126 -62.987)" fill="#FFE400" stroke="none" stroke-width="1" stroke-miterlimit="1"/></g><path id="eR47bTvI6ep12" d="M119.072 101.057c1.45 1.639 3.913 2.472 6.089 1.68 2.113-.765 3.613-3.03 3.381-5.254-.589-5.713-8.999-6.404-10.551-.841-.456 1.683.053 3.245 1.081 4.415Z" fill="#45459B" stroke="none" stroke-width="1" stroke-miterlimit="1"/><path id="eR47bTvI6ep13" d="M121.94 97.198c.287.892 1.191 1.533 2.139 1.565.947.032 1.876-.506 2.367-1.317.427-.687.528-1.614.077-2.285-1.374-2.002-5.399-.523-4.583 2.037Z" fill="#FFF" stroke="none" stroke-width="1" stroke-miterlimit="1"/><path id="eR47bTvI6ep14" d="M119.938 98.69c-1.404.57-.092 2.728.882 3.05.739.246 1.697-.079 1.934-.824.235-.767-.366-1.543-1.044-1.956-.538-.308-1.207-.506-1.772-.27Z" fill="#FFF" stroke="none" stroke-width="1" stroke-miterlimit="1"/><path id="eR47bTvI6ep15" d="M168.642 96.556c1.45 1.639 3.913 2.472 6.088 1.68 2.114-.765 3.615-3.03 3.383-5.254-.59-5.713-8.999-6.404-10.551-.841-.457 1.683.052 3.245 1.08 4.415Z" fill="#45459B" stroke="none" stroke-width="1" stroke-miterlimit="1"/><path id="eR47bTvI6ep16" d="M171.507 92.697c.286.892 1.191 1.533 2.137 1.565.948.032 1.878-.506 2.369-1.317.426-.687.527-1.614.077-2.285-1.375-2.002-5.4-.522-4.583 2.037Z" fill="#FFF" stroke="none" stroke-width="1" stroke-miterlimit="1"/><path id="eR47bTvI6ep17" d="M169.504 94.188c-1.403.57-.091 2.73.882 3.05.74.246 1.698-.079 1.936-.823.235-.767-.368-1.543-1.046-1.957-.537-.307-1.196-.506-1.772-.27Z" fill="#FFF" stroke="none" stroke-width="1" stroke-miterlimit="1"/><path id="eR47bTvI6ep18" d="M130.908 131.102c3.659 3.758 5.877 8.631 8.281 13.281 2.405 4.65 5.182 9.353 9.518 12.305 4.346 2.95 10.65 3.65 14.712.299 2.345-1.931 3.592-4.841 4.695-7.663a195.207 195.207 0 0 0 7.842-24.933c-3.869 3.678-10.145 4.499-14.862 2.014-1.344-.709-2.592-1.675-4.085-1.981-3.397-.717-6.381 2.072-9.281 3.977-4.674 3.061-11.388 3.965-16.82 2.701Z" fill="#45459B" stroke="none" stroke-width="1" stroke-miterlimit="1"/><path id="eR47bTvI6ep19" d="M145.741 129.003c-2.757 1.212-5.24 2.216-5.257 1.905.555 9.68.863 22.288 5.216 31.104 3.543 7.161 13.918 10.017 20.612 5.01 9.189-6.853 2.63-30.296 1.099-39.359-4.656-.471-9.593-2.97-14.294-1.882-.51.122-4.137 1.803-7.376 3.222Z" fill="#F1653A" stroke="none" stroke-width="1" stroke-miterlimit="1"/><path id="eR47bTvI6ep20" d="M144.464 116.732c-.665-1.364-.284-2.803 1.57-3.911a13.872 13.872 0 0 1 9.051-1.819c1.638.239 3.309.832 4.357 2.107 2.634 3.226-.837 5.065-3.195 6.716-1.031.731-2.136 1.479-3.397 1.573-1.154.083-2.25-.4-3.302-.876-1.188-.539-2.378-1.1-3.415-1.891-.779-.577-1.348-1.227-1.669-1.899Z" fill="#45459B" stroke="none" stroke-width="1" stroke-miterlimit="1"/><path id="eR47bTvI6ep21" d="M118.866 179.63c6.766 3.439 13.865 5.878 21.132 7.168 3.636.607 7.298 1.028 10.967 1.04 3.663.066 7.322-.15 10.926-.738 3.611-.512 7.178-1.399 10.644-2.556 3.493-1.105 6.863-2.6 10.152-4.269 6.552-3.404 12.59-7.837 18.017-13.134a1.209 1.209 0 0 1 1.704.017 1.19 1.19 0 0 1 .155 1.487c-4.298 6.616-10.273 12.221-17.109 16.449-3.399 2.153-7.075 3.869-10.851 5.314-3.803 1.394-7.75 2.39-11.751 3.035-4.018.571-8.09.78-12.124.565-4.028-.258-8.05-.819-11.932-1.878-7.767-2.021-15.111-5.614-21.165-10.672a1.102 1.102 0 0 1-.13-1.564c.333-.396.91-.494 1.365-.264Z" fill="#09BCCA" stroke="none" stroke-width="1" stroke-miterlimit="1"/><g transform="rotate(-40.289 359.86 -121.849)" style="animation:eR47bTvI6ep22_tr__tr 750ms linear infinite reverse forwards"><path id="eR47bTvI6ep22" d="m170.013 205.666-2.983-9.214a.376.376 0 0 0-.235-.244.375.375 0 0 0-.335.041l-8.018 5.291a.386.386 0 0 0-.151.426l2.881 9.179a.381.381 0 0 0 .57.203l8.12-5.256a.354.354 0 0 0 .151-.426Z" transform="translate(-164.154 -203.798)" fill="#F89C33" stroke="none" stroke-width="1" stroke-miterlimit="1"/></g></g></g></svg>