<svg width="109" height="61" viewBox="0 0 109 61" fill="none" xmlns="http://www.w3.org/2000/svg">
<g clip-path="url(#clip0_767_20002)">
<path d="M64.4794 55.1899C63.9924 54.6932 63.7365 54.2568 63.2495 53.7601C61.4223 51.3119 59.0479 48.5978 55.9242 48.2759C51.4394 47.9686 47.271 47.867 42.8362 48.3121C37.1257 48.9173 36.543 49.2582 31.049 48.5644C30.2103 48.4689 29.2259 48.4586 28.8139 49.0904C28.5475 49.637 28.793 51.0565 29.1343 51.6384C33.6918 58.7419 41.4481 53.6182 48.1325 54.0064C52.8482 54.3739 54.9772 55.6686 57.6575 59.5715C60.0216 63.2687 61.6572 67.392 63.4386 71.4301C65.9524 77.3843 68.8679 83.6898 74.185 87.418C76.3993 88.8581 79.7186 89.8471 81.5624 87.9869C83.6977 85.9562 82.7196 82.6205 81.4148 80.0622C78.158 73.1748 74.1729 66.7136 69.3136 60.7636C67.8278 58.8974 66.0506 57.2016 64.4794 55.1899Z" fill="#FFE400"/>
<path d="M83.4777 30.1373C84.0024 32.5118 84.3698 34.8251 85.1131 37.1036C86.5385 41.8176 88.3748 46.872 91.8281 50.5646C97.1173 56.0553 103.018 59.9748 109.54 63.2307C110.895 63.9377 112.092 64.5837 113.447 65.2907C121.988 69.8735 130.328 73.1119 139.297 76.5946C146.536 79.4053 153.94 83.185 158.609 89.3392C160.768 92.1676 161.739 95.2579 163.461 98.2783C165.534 101.796 166.714 107.139 167.108 108.92C167.248 110.421 166.732 112.211 166.558 113.59C165.929 116.602 164.827 119.43 164.198 122.442C162.966 127.933 162.679 133.791 165.363 138.994C166.736 141.517 168.729 143.376 170.381 145.646C172.445 148.256 172.191 151.233 172.568 154.454C173.294 161.429 172.971 163.655 173.697 170.63C173.767 171.381 173.776 172.289 173.531 172.917C172.981 174.332 170.349 174.576 169.37 173.834C168.452 172.935 167.875 171.626 167.456 170.377C164.937 162.887 165.47 159.657 163.328 152.132C161.998 147.636 157.802 144.922 154.235 142.451C150.196 139.798 148.474 136.777 146.393 132.351C146.682 133.006 145.799 135.738 145.799 135.738C145.799 135.738 142.896 130.632 139.137 124.469C137.353 121.605 133.524 121.204 130.683 115.94C128.96 112.92 130.044 108.275 128.96 106.407C127.491 103.666 126.066 105.465 123.846 106.049C119.624 107.123 115.332 107.447 111.066 107.237C111.31 106.609 111.398 105.919 111.581 105.448C111.433 106.294 104.099 106.522 103.032 106.469C99.8678 106.688 96.6684 106.531 93.5914 106.06C90.829 105.71 88.4075 104.951 85.7763 105.196C82.9266 105.536 72.8479 107.23 69.0806 109.928C61.8257 115.07 52.167 121.269 44.9733 126.254C42.7619 127.746 40.4893 129.396 37.7358 129.955C36.3896 130.156 26.6513 128.184 28.7227 125.189C29.0636 124.779 29.7453 123.958 30.4971 123.888C33.9412 123.417 37.263 123.26 40.2262 121.697C43.032 120.073 45.864 117.917 48.4775 115.856C54.325 111.072 69.9086 88.7233 70.415 82.7696C70.3015 83.9917 66.0621 86.5061 66.0621 86.5061C66.0621 86.5061 65.8337 75.9256 66.5851 72.5996C66.1919 74.0749 65.7986 75.5502 65.0296 77.0605C64.2605 78.5708 63.5787 79.3914 63.1417 79.5835C62.5473 79.7145 63.0706 69.0642 64.4426 65.0746C63.9882 66.7071 62.2838 68.7586 61.2173 68.7063C60.6841 68.6802 61.7661 51.0111 64.9124 45.7207C67.1323 41.8795 82.6644 27.1081 83.4777 30.1373Z" fill="#FFE400"/>
<path d="M86.1409 4.21868C86.2371 4.43692 86.2371 4.43692 86.3332 4.65516C86.4294 4.8734 86.6218 5.30988 86.8753 5.58922C87.1639 6.24394 87.4524 6.89866 87.5836 7.49228L87.9422 8.89776C88.2657 9.92785 88.3707 11.054 88.5369 12.023C88.5981 11.8658 88.6593 11.7087 88.8166 11.7698C88.8778 11.6127 89.0352 11.6738 89.2537 11.5777C89.411 11.6388 89.4722 11.4817 89.6296 11.5428C89.7869 11.6039 89.7869 11.6039 89.9443 11.665C90.1978 11.9443 90.1716 12.4769 90.1455 13.0094L90.0843 13.1665C89.9446 14.9212 89.4903 16.5537 88.9747 18.3433C88.6077 19.2861 88.3018 20.0718 87.9348 21.0147C87.4454 22.2718 87.0172 23.3717 86.5278 24.6288C85.3743 28.5224 87.2279 32.1364 89.0465 35.375C89.4313 36.248 89.9733 37.1821 90.3581 38.055C92.5702 43.0745 91.1633 46.6887 93.8475 51.8915L63.3919 50.5572C63.7586 46.3582 58.1027 45.0664 55.9259 43.6785C53.0235 41.8279 49.6406 42.1423 46.7382 40.2917C46.4235 40.1695 45.5055 39.2704 45.6891 38.799C45.8114 38.4847 48.4776 38.6156 49.0108 38.6417C51.4846 38.3361 53.8272 37.4368 55.9163 36.2582C57.6295 35.1145 59.1854 33.9098 60.6451 32.4867C60.2692 32.5217 60.0507 32.6177 59.6748 32.6526C59.2989 32.6876 58.8618 32.8797 58.486 32.9146C56.6416 33.4646 54.6048 33.5782 52.6292 33.5347C50.0242 33.2467 46.3789 32.3739 44.2633 30.8288C43.188 29.8686 42.1738 28.7512 41.5356 27.5989C40.3902 25.8879 38.659 21.9596 40.3022 20.0652C40.9227 19.4017 42.0242 19.8294 42.9684 20.196C46.7799 22.0378 51.2993 22.5265 55.4601 21.6097C56.7101 21.1906 58.0213 20.6144 59.2363 19.8199C60.731 18.7723 62.4792 18.004 64.2012 17.7682C65.2677 17.8205 66.3342 17.8729 67.2783 18.2395L72.873 19.6884C73.17 17.9948 74.6909 16.4146 76.0282 15.3059C76.3691 14.8956 76.8061 14.7035 77.147 14.2932C78.2046 13.4376 79.1049 12.521 79.8478 11.5432C80.4334 10.5044 81.0189 9.46549 81.2898 8.30442C81.5957 7.51873 81.9627 6.5759 82.2686 5.79021L82.3297 5.63307L82.5483 5.53703L82.7056 5.59813L82.863 5.65924L83.0203 5.72034C83.4485 4.62037 83.8767 3.5204 84.6197 2.54264C84.6197 2.54264 84.6808 2.3855 84.8382 2.4466C84.8382 2.4466 84.9956 2.5077 85.0567 2.35057C85.625 2.75211 85.8523 3.56397 86.1409 4.21868Z" fill="#FFE400"/>
<path d="M91.5395 46.6538C85.3857 48.9674 79.162 50.5303 72.6758 50.906C69.5114 51.1244 65.4379 51.3515 62.2996 51.0374C61.9326 51.9802 61.7929 53.7349 61.8368 55.0182C65.4121 55.1402 70.3335 55.0615 73.8388 54.4328C80.7882 53.3325 86.8285 52.241 92.4663 48.4608C92.9645 48.1116 92.9907 47.5791 92.7983 47.1426C92.4486 46.645 91.9154 46.6189 91.5395 46.6538Z" fill="#09BCCA"/>
<path d="M59.5376 57.2008L61.6529 55.4897L62.0553 58.1785L61.9941 58.3356L59.8789 60.0467L59.5376 57.2008C59.3803 57.1397 59.3803 57.1397 59.5376 57.2008Z" fill="#F89C33"/>
<path d="M61.8716 55.3935C62.0289 55.4546 62.0901 55.2975 62.0901 55.2975C62.1513 55.1404 61.9939 55.0793 61.9939 55.0793C61.8366 55.0182 61.8366 55.0182 61.7404 54.7999C61.6442 54.5817 61.548 54.3634 61.6092 54.2063C61.5392 53.4555 61.6877 52.6087 61.9935 51.8231C62.1771 51.3516 62.2994 51.0374 62.4568 51.0985C62.6141 51.1596 62.6753 51.0024 62.6753 51.0024C62.7365 50.8453 62.5791 50.7842 62.5791 50.7842L62.4217 50.7231C62.0459 50.758 61.6438 51.3255 61.5215 51.6398C61.2156 52.4254 61.0671 53.2722 61.2333 54.2412C61.3295 54.4595 61.2071 54.7737 61.4607 55.0531C61.3995 55.2102 61.4957 55.4285 61.8716 55.3935Z" fill="#45459B"/>
<path d="M44.1142 21.9081C44.1754 21.7509 44.1405 21.3755 44.2017 21.2183C44.1056 21 44.0095 20.7818 43.6949 20.6596C43.5376 20.5986 41.6148 19.4903 40.4872 19.5955C39.5169 19.7618 39.2194 21.4558 39.2194 21.4558C39.1582 21.613 39.3155 21.6741 39.2543 21.8313C39.193 21.9885 39.3504 22.0495 39.5077 22.1106C39.665 22.1717 39.665 22.1717 39.7611 22.3899C40.3904 22.6342 41.177 22.9395 41.9288 22.8694C42.6805 22.7993 43.2749 22.6681 43.9918 22.2225C43.9918 22.2225 44.053 22.0653 44.1142 21.9081Z" fill="#45459B"/>
<path d="M60.104 32.9467C60.1618 32.7985 60.2195 32.6502 60.0711 32.5926C59.9805 32.3868 59.8321 32.3292 59.6838 32.2716C59.5354 32.214 59.387 32.1564 59.1809 32.2471C56.6749 32.9809 51.0284 33.0076 48.5062 32.0285C45.0938 30.7039 44.55 29.4688 42.5803 27.5095C42.4897 27.3037 42.3413 27.2461 42.1353 27.3367C41.9869 27.2791 41.7808 27.3698 41.7231 27.5181C41.517 27.6087 41.4592 27.757 41.5499 27.9628C41.6405 28.1687 41.5828 28.3169 41.7311 28.3745L41.8218 28.5804C43.5276 30.7786 44.4259 31.9806 48.135 33.4204C50.9539 34.5147 56.8065 34.3973 59.667 33.6304L59.8731 33.5397C59.9886 33.2432 60.0463 33.095 60.104 32.9467Z" fill="#45459B"/>
<path d="M60.067 21.4104C61.4313 19.7685 64.0181 21.4957 63.2832 23.3817C62.9769 24.1675 62.1026 24.5521 61.3508 24.6223C60.503 24.4743 59.8388 23.8549 59.6118 23.0431C59.6383 22.5106 59.7259 21.8209 60.067 21.4104Z" fill="#45459B"/>
<path d="M63.0216 22.1939C63.0565 22.5694 62.838 22.6655 62.5582 22.9188C62.2785 23.1721 61.9026 23.2072 61.6492 22.9279C61.3346 22.8057 61.1424 22.3692 61.2648 22.0549C61.4136 21.2079 62.9518 21.4431 63.0216 22.1939Z" fill="white"/>
<path d="M60.8626 22.6219C60.9587 22.8402 60.9936 23.2156 60.9324 23.3727C60.6527 23.626 60.3381 23.5039 60.242 23.2857C59.9886 23.0064 59.98 22.0984 60.5131 22.1244C60.6092 22.3426 60.7053 22.5609 60.8626 22.6219Z" fill="white"/>
<path d="M8.73078 38.0899L17.0173 18.7861C17.5276 17.6553 18.8551 17.1216 19.9257 17.6072C21.0571 18.1163 21.5905 19.4424 21.1038 20.5124L12.7565 39.7926C12.2462 40.9233 10.9187 41.4571 9.84808 40.9715C8.75384 40.5467 8.22049 39.2206 8.73078 38.0899Z" fill="#9B4198"/>
<path d="M22.7773 21.4421L23.0847 21.9111C25.2731 25.2787 28.4617 28.0552 31.9445 29.8967L27.4385 40.3886C23.6582 39.1311 19.5096 38.64 15.5904 39.357L15.0464 39.4956L22.7773 21.4421Z" fill="#45469B"/>
<path d="M34.0062 30.9082L41.2091 33.9838C42.8882 34.7055 43.6581 36.6832 42.9346 38.3611L41.2037 42.4461C40.4802 44.124 38.5 44.8944 36.8209 44.1727L29.618 41.0971L34.0062 30.9082ZM36.4234 39.2615C36.9707 39.474 37.6229 39.2374 37.8967 38.7141C38.1097 38.1672 37.8733 37.5159 37.3497 37.2427L35.2449 36.3557C34.6976 36.1433 34.0454 36.3798 33.7716 36.9031C33.5586 37.45 33.795 38.1014 34.3186 38.3746L36.4234 39.2615Z" fill="#9B4198"/>
<path d="M27.4724 48.5834L25.4892 47.7437C23.8101 47.022 23.0402 45.0443 23.7636 43.3664L24.3925 41.9315C25.1087 42.0696 25.8622 42.2921 26.5548 42.491L25.8076 44.2297C25.5946 44.7766 25.831 45.428 26.3547 45.7012L28.3379 46.5409L29.5955 43.6712L33.6835 45.3979L30.7626 51.8192C30.2521 52.9502 28.9241 53.4841 27.8531 52.9984C26.7213 52.4892 26.1878 51.1628 26.6746 50.0926L27.4724 48.5834Z" fill="#45469B"/>
<path d="M11.163 20.1502C11.7307 19.9508 12.3996 20.2104 12.5988 20.7774L13.4059 22.8395C13.6051 23.4065 13.3447 24.0749 12.7771 24.2743C12.2094 24.4737 11.5404 24.214 11.3412 23.6471L10.5342 21.585C10.335 21.018 10.5953 20.3495 11.163 20.1502Z" fill="#999999"/>
<path d="M6.17225 31.71L8.23691 30.9024C8.80461 30.703 9.47355 30.9627 9.67277 31.5297C9.87198 32.0967 9.61165 32.7651 9.04396 32.9645L6.9793 33.7721C6.41161 33.9714 5.74266 33.7118 5.54345 33.1448C5.34423 32.5778 5.60456 31.9093 6.17225 31.71Z" fill="#999999"/>
<path d="M5.18826 25.2442C5.40128 24.6972 6.0772 24.3998 6.66173 24.6967L9.53378 25.9515C10.0812 26.1639 10.3784 26.839 10.0809 27.4232C9.86784 27.9702 9.19193 28.2676 8.60739 27.9707L5.73534 26.7159C5.18796 26.5035 4.95157 25.852 5.18826 25.2442Z" fill="#999999"/>
<path d="M81.9666 19.2953C81.954 19.431 81.9427 19.5639 81.933 19.7009C82.3504 19.1975 82.7677 18.6942 83.181 18.1925C82.6579 18.2178 82.1451 18.389 81.7091 18.6806C81.9835 18.3203 82.0265 17.8017 81.8172 17.4016C81.4945 17.5472 81.1747 17.6942 80.8519 17.8398C81.2384 17.6054 81.353 17.0187 81.0821 16.6566C80.81 16.2974 80.2148 16.2457 79.8836 16.5565C80.4759 14.2868 81.8982 12.2426 83.8206 10.9005" stroke="#45459B" stroke-width="0.7" stroke-miterlimit="10" stroke-linecap="round" stroke-linejoin="round"/>
</g>
<defs>
<clipPath id="clip0_767_20002">
<rect width="109" height="61" fill="white"/>
</clipPath>
</defs>
</svg>
