<svg width="150" height="100" fill="none" xmlns="http://www.w3.org/2000/svg"><path opacity=".8" d="M23.355 77.172c-1.564-7.512-.477-15.595 2.636-21.656C31.936 43.968 47.345 38.38 61 38c22.205-.618 54.295 4.913 66.5 25 3.838 6.343 4.711 16.085-2.5 19.5-6.4 3.045-20.183-1.778-27.054-2.426C81.054 78.42 71.27 91.728 56.64 95.927c-8.224 2.404-18.108 1.677-24.8-3.889-4.519-3.77-7.273-9.132-8.485-14.866Z" fill="url(#a)"/><path d="M43.5 69.661s3.805-1.342 6.96-3.855c1.484-1.162 3.534-.58 6.046-2.802 1.484-1.257 2.473.91 2.897 2.763 1.225-1.374.576-2.112 1.597-1.335 1.955 1.453 4.107.29 6.337 1.068 0-.385.094-.777.094-1.068-.094.487 3.627 2.128 4.184 2.324.59.29 1.743.91 2.372 1.1-.519-1.037-.197-1.312-.071-2.089 1.484.385 5.511 3.211 6.814 3.894 1.398.777 3.33 2.041 8.118 2.041 0 0 1.712-3.847 7.875-8.589 1.381.51 3.203.016 3.203.016l-.416-2.34s2.677 1.382 3.289.982c-.542-3.25 3.886-5.504 3.886-5.504l.707-4.058-.612-13.865c-12.727 3.439-11.533-11.698-12.554-10.245-.746 1.162-1.397 2.323-2.23 3.383a25.817 25.817 0 0 1-6.139 5.802c-3.666 2.371-6.39 2.991-8.031 3.227-.84.094-1.578.196-2.418.29-5.3.675-10.23.675-15.53.675-4.278 0-18.465-.738-22.084 1.586-1.672 1.068-2.787 2.513-4.279 3.777-1.766 1.452-3.117 3.94-3.682 4.812a16.507 16.507 0 0 0-.973 2.732c-.785 2.27-1.17 5.433-.558 7.631C32.746 73.948 43.5 69.661 43.5 69.661Z" fill="#FFE401"/><path d="m98.045 53.012-4.279 1.578c-.973-.95-2.323-1.358-3.485-2.065-2.505-1.538-3.455-4.114-3.65-6.9-.08.133-.707 1.365-.715 1.342-.338-.958-.605-1.97-.7-2.991-.038-.448-.344-2.19-.132-2.505-.22.307-.354.683-.417 1.052-.95-.997-1.444-2.3-1.012-3.69.14-.44.36-.895.25-1.334-.18-.699-1.075-.974-1.365-1.633.455.133.91.267 1.374.392a3.74 3.74 0 0 1-1.186-2.928c.997.102 1.186.29 1.194-.628 0-.079-.715-1.9-.526-1.884a3.188 3.188 0 0 0 2.213-.683c-.51-.047-1.012-.102-1.523-.15a2.415 2.415 0 0 1 1.767-1.468 1.613 1.613 0 0 1-1.17-.824c2.528-4.42 6.54-7.215 11.235-8.895 2.402-.856 4.396-.809 6.885-.016 2.434.77 4.695 2.136 6.469 3.98 1.374 1.437 2.183 3.377 2.748 5.34.667 2.323.879 4.215 2.81 5.919l-1.319-.26a4.926 4.926 0 0 1 1.123 2.71c-.542-.15-1.075-.299-1.617-.448.243.746.479 1.491.722 2.23-.887.408-1.774.824-2.661 1.24.589.345 1.177.683 1.766 1.02-.746.252-1.492.503-2.237.746.227.197.447.393.667.597-.51.04-1.021.086-1.539.126a5.775 5.775 0 0 1-2.104 4.38c-.204-.164-.408-.337-.62-.502.306.251-2.096 3.43-2.355 3.737-.895 1.083-1.798 1.908-3.054 2.59.008-.227.023-.455.008-.682-.495.502-1.351.8-2.175 1.052-.51.172-.997.306-1.39.455Z" fill="#FFE401"/><path d="M109.154 33.792c1.24.016 2.434-.769 3.25-1.813.817-1.044 1.303-2.316 1.704-3.588.966-3.077 1.492-6.265 1.947-9.437-.33.29-.66.581-.981.88a17.578 17.578 0 0 0-.401-6.415c-.173-.69-.526-1.468-1.193-1.515-.605-.039-1.091.55-1.46 1.091-2.034 2.952-3.573 6.132-5.394 9.202-1.342 2.253-2.159 4.522-1.492 7.089.291 1.107.95 2.497 1.869 3.439.604.628 1.334 1.06 2.151 1.067ZM90.807 28.768c-1.115-.707-2.073-1.908-2.615-2.92-1.248-2.34-.973-4.742-.188-7.239 1.076-3.407 1.837-6.854 3.133-10.198.235-.605.573-1.296 1.17-1.398.667-.117 1.185.566 1.507 1.202a17.65 17.65 0 0 1 1.868 6.147l.754-1.084c.29 3.196.51 6.422.283 9.633-.095 1.327-.275 2.685-.825 3.886-.55 1.202-1.538 2.238-2.748 2.513-.785.18-1.593-.07-2.34-.542Z" fill="#FFE401"/><path d="M112.593 17.871a7.369 7.369 0 0 0-2.638 4.271c.228-.236.659-.228.871.024.212.25.149.683-.117.871.227-.118.455-.236.683-.361a.891.891 0 0 1-.032.934 2.126 2.126 0 0 1 1.052-.416c-.282.385-.565.762-.848 1.146 0-.102.008-.196.008-.298M92.141 11.63c-.126-.22-.243-.432-.369-.652a19.147 19.147 0 0 0-1.075 7.404c.094-.33.243-.636.447-.91l.236 1.295c-.063-.252.314-.424.518-.283.212.141.251.447.188.699-.063.25-.196.47-.267.722-.07.251-.047.55.15.706" stroke="#464797" stroke-width=".5" stroke-miterlimit="10" stroke-linecap="round" stroke-linejoin="round"/><path d="M106.461 27.983c-.188-1.217-1.97-1.272-2.237-.079-.102.463.157.982.581 1.194.439.22.973.102 1.319-.212a.996.996 0 0 0 .337-.903Z" fill="#464797"/><path d="M104.71 27.465c-.109.133-.109.33-.039.487.087.18.267.322.463.337a.492.492 0 0 0 .487-.282c.236-.526-.573-.935-.911-.542ZM105.621 28.383c-.149.07-.298.22-.267.393.032.165.228.259.385.22.212-.047.542-.471.259-.628-.11-.063-.251-.04-.377.015Z" fill="#fff"/><path d="M96.169 25.824c-.188-1.217-1.97-1.272-2.238-.079-.102.463.157.982.581 1.194.44.22.974.102 1.32-.212a.995.995 0 0 0 .337-.903Z" fill="#464797"/><path d="M94.418 25.306c-.11.133-.11.33-.039.487a.59.59 0 0 0 .463.337.492.492 0 0 0 .487-.282c.236-.526-.573-.935-.91-.542ZM95.337 26.224c-.15.07-.299.22-.267.393.031.165.227.259.384.22.212-.048.542-.472.26-.629-.118-.062-.26-.039-.377.016Z" fill="#fff"/><path d="M99.427 33.981c-.558-.47-1.115-1.138-1.845-1.068-.322.032-.605.205-.91.322-1.053.409-2.348.087-3.07-.785.22 1.845.557 3.674 1.02 5.472.157.628.346 1.272.793 1.735.77.809 2.112.817 3.093.29.982-.517 1.688-1.452 2.309-2.378.62-.926 1.209-1.908 2.072-2.614-1.17.14-2.559-.212-3.462-.974Z" fill="#464797"/><path d="M98.36 33.298c-.959-.345-2.058.063-3.047.055-.55 1.884-2.512 6.69-.762 8.361 1.28 1.225 3.525.872 4.452-.565 1.138-1.759 1.515-4.42 1.876-6.461-.008.063-.51-.204-1.052-.534-.644-.377-1.358-.817-1.468-.856Z" fill="#EC663B"/><path d="M92.605 30.7c.33.627.706 1.216 1.209 1.719.62.628 1.35 1.146 2.268 1.075.684-.055 1.869-.934 2.426-.432 1.327 1.186 2.371 2.371 4.31 1.798.707-.212 1.335-.604 1.924-1.068" stroke="#464797" stroke-width=".75" stroke-miterlimit="10" stroke-linecap="round" stroke-linejoin="round"/><path d="M100 31.955a3.386 3.386 0 0 1-.762.314c-.235.079-.47.15-.714.102-.26-.047-.479-.235-.675-.416-.456-.408-1.139-.88-.503-1.5.252-.243.62-.33.966-.337a2.888 2.888 0 0 1 1.853.604c.361.283.408.597.227.864-.078.141-.212.26-.392.369Z" fill="#464797"/><path d="M97.386 36.972c.298-1.335.534-2.677.706-4.035M96.82 39.225c.071-.25.142-.51.204-.761M96.499 40.481l.117-.33" stroke="#464797" stroke-width=".3" stroke-miterlimit="10" stroke-linecap="round" stroke-linejoin="round"/><path d="M95.148 46.59a3.45 3.45 0 0 1-.322 1.224c-.055.11-.11.22-.188.306-.18.189-.393.142-.48-.102a1.336 1.336 0 0 1-.046-.4c.016-.455.118-.91.298-1.319.094-.204.243-.432.424-.432.126 0 .228.11.275.251.023.071.031.157.04.236.007.078.007.157 0 .236Z" stroke="#464797" stroke-width=".883" stroke-miterlimit="10" stroke-linecap="round" stroke-linejoin="round"/><path d="M104.483 45.616c.071.11.039.259-.063.33-1.397.926-3.03 1.507-4.71 1.75-.84.134-1.696.15-2.552.11a13.076 13.076 0 0 1-2.528-.416 13.533 13.533 0 0 1-2.387-.926c-.753-.4-1.483-.848-2.143-1.39-1.327-1.06-2.441-2.394-3.18-3.902a.268.268 0 0 1 .071-.314.26.26 0 0 1 .361.04 15.916 15.916 0 0 0 3.447 3.218c.651.432 1.319.833 2.025 1.154.7.33 1.421.605 2.167.801.738.212 1.508.346 2.277.424.77.086 1.547.086 2.324.047 1.554-.094 3.109-.44 4.616-1.005a.216.216 0 0 1 .275.079Z" fill="#25B7C6"/><path d="m92.809 49.33.879 1.86c.008.024.031.04.055.047.023.008.047 0 .07-.015l1.531-1.35a.103.103 0 0 0 .024-.095l-.856-1.853c-.008-.023-.031-.039-.055-.047-.023-.008-.047 0-.07.016l-1.555 1.35c-.031.016-.04.055-.023.087Z" fill="#F59B35"/><path d="m93.444 49.44.44.933a.108.108 0 0 0 .031.024c.008 0 .024 0 .032-.008l.77-.683c.015-.008.015-.031.007-.047l-.432-.934c-.008-.008-.015-.016-.031-.024-.008 0-.024 0-.031.008l-.786.675c0 .024-.007.04 0 .055ZM94.45 47.87l-.173.84M93.924 50.382l-.173.84" stroke="#C47D28" stroke-width=".294" stroke-miterlimit="10" stroke-linecap="round" stroke-linejoin="round"/><path d="M94.724 49.683c.361.078.636.133.636.133M92.817 49.283l.604.126" stroke="#C47D28" stroke-width=".294" stroke-miterlimit="10" stroke-linecap="round" stroke-linejoin="round"/><path d="M94.34 48.222c-.079-.023-.142-.094-.189-.212a1.336 1.336 0 0 1-.047-.4c.016-.455.118-.91.298-1.319.095-.204.244-.432.424-.432.032 0 .063.008.087.024" stroke="#464797" stroke-width=".883" stroke-miterlimit="10" stroke-linecap="round" stroke-linejoin="round"/><path d="M60.636 64.583c-.173 1.735-.526 3.102-1.186 4.208.071.252-1.224-1.09-1.319-.926.079 1.75-.164 1.562-.918 3.447-.644 1.358-1.398 3.266-.644 5.063 1.594 2.819 4.35 4.766 7.129 6.446 1.649 1.036 3.172 2.112 4.89 2.45 1.728.337 6.87 1.224 3.754 3.72-1.092.982-4.075.998-5.512.715-5.173-1.013-8.33-3.43-12.483-6.634-1.397-1.107-3.595-2.269-4.953-3.941-1.288-1.515-1.657-2.92-.856-4.954.644-1.696 3.776-2.795 3.407-4.6-.926-3.824-3.415-5.174-6.092-7.97-2.206-2.37 9.303-6.97 12.993-2.645.856 1.005 1.86 3.635 1.79 5.621Z" fill="#FFE401"/><path d="M59.325 59.661s3.18 2.724.66 9.107c-.056.134-.252.141-.338.031-.228-.314-.668-.714-1.092-1.012a.262.262 0 0 0-.416.22c-.031 2.59-1.31 4.569-1.31 4.569" stroke="#464797" stroke-width=".75" stroke-miterlimit="10" stroke-linecap="round"/><path d="M70.874 86.896s2.245-.228 2.378 1.02M70.646 88.081s1.444-.557 1.9.746" stroke="#464797" stroke-miterlimit="10" stroke-linecap="round"/><path d="M48.334 66.665c-.911 1.491-1.814 2.567-2.882 3.29-.047.258-.636-1.508-.785-1.406-.683 1.61-.816 1.335-2.308 2.716-1.17.95-2.67 2.348-2.764 4.295.228 3.234 1.877 6.178 3.659 8.887 1.036 1.649 1.947 3.274 3.36 4.318 1.413 1.044 5.669 4.059 1.782 4.97-1.405.416-4.106-.856-5.283-1.735-4.232-3.14-6.045-6.681-8.416-11.36-.786-1.602-2.27-3.596-2.78-5.692-.51-1.924-.243-3.353 1.366-4.844 1.311-1.257 4.609-.895 5.056-2.686.817-3.846-.855-6.139-2.072-9.813-.966-3.093 11.4-2.285 12.867 3.203.346 1.288.118 4.09-.8 5.857Z" fill="#FFE401"/><path d="M49.268 61.655s1.695 3.824-3.321 8.503c-.102.094-.29.023-.314-.118-.079-.377-.299-.934-.542-1.382a.265.265 0 0 0-.471.016c-1.146 2.332-3.156 3.564-3.156 3.564" stroke="#464797" stroke-width=".75" stroke-miterlimit="10" stroke-linecap="round"/><path d="M47.972 91.206s2.12.754 1.704 1.947M47.25 92.18s1.547.125 1.39 1.491" stroke="#464797" stroke-miterlimit="10" stroke-linecap="round"/><path d="M15.171 63.579c.103 1.672 1.264 2.779 1.736 3.046.133-2.41.777-3.847 2.449-4.813-.88 8.691.69 10.403 3.258 14.917.604-.832.942-2.073.809-3.14.8 3.815 4.506 7.866 7.78 9.743 1.868 1.075 4.012 1.68 6.179 1.68 2.873-.032 5.087-1.932 5.087-1.932s-4.342-1.742-6.516-3.485a21.24 21.24 0 0 1-4.64-5.025c-2.936-4.42-4.302-10.167-2.991-15.38 1.813-6.854 8.91-14.218 14.728-17.217C23.595 40.38 15.156 52.014 15.17 63.58Z" fill="#FFE401"/><path d="M29.138 72.395c-.102.063-.031.165 0 0ZM26.799 74.53c.062.103.165.032.235.134.07.102.07.102.134.204.165 2.206.392 4.514.824 6.69-.102.062-.031.164-.134.235-.102.07-.102.063-.204.133-.062-.102-.165-.031-.235-.133-.063-.102-.063-.102-.134-.204-.33-2.238-.66-4.483-.895-6.791l.032-.165.102-.063c.102-.079.102-.079.275-.04ZM23.4 63.328c.101-.063.101-.063.298-.196l.07.102.063.102.063.102.063.102a40.143 40.143 0 0 0 .353 10.764l.07.102-.102.063-.102.062-.102.063-.102.063-.07-.102-.063-.102-.063-.102a38.296 38.296 0 0 1-.424-10.866c-.055-.094-.055-.094.047-.157.102-.07 0 0 0 0ZM19.591 60.21s.102-.062.165.032c.063.095.063.102.134.205l-.032.164c-.369 2.709-.243 5.52.456 8.095.063.102.133.204.031.266-.102.063-.102.063-.204.134-.063-.102-.165-.031-.165-.031-.102.062-.165-.032-.165-.032l-.063-.102-.07-.102c-.77-2.677-.966-5.582-.495-8.361-.063-.102.032-.165.032-.165l.102-.063c.007-.008.11-.07.274-.04ZM16.624 55.523c.102-.063.102-.063.165.032.063.102.063.102.133.204l-.031.165c-.872 2.606-1.24 5.315-1.178 8.023-.102.063-.031.165-.133.236-.032.165-.102.063-.204.133-.102.063-.165-.031-.165-.031l-.063-.102-.063-.102-.063-.102c-.133-2.811.338-5.582 1.311-8.26l.102-.062.103-.063.086-.07ZM25.338 63.194c.165.032.165.032.236.134.063.102.063.102.031.267a17.043 17.043 0 0 0-.306 4.114c-.102.062-.031.164-.133.235-.102.07-.102.063-.205.133-.102.063-.164-.03-.164-.03l-.063-.103-.07-.102-.064-.102c-.063-1.405.134-2.842.338-4.279-.07-.102.031-.165.031-.165l.102-.063c0-.007.102-.07.267-.039ZM17.181 61.813c.165.031.165.031.236.133.07.102.063.102.031.267a17.043 17.043 0 0 0-.306 4.114c-.102.063-.031.165-.133.236-.102.07-.102.063-.204.133-.103.063-.165-.031-.165-.031l-.063-.102-.07-.102-.064-.102c-.063-1.406.134-2.842.338-4.28-.07-.101.031-.164.031-.164l.102-.063c.102-.078.102-.078.267-.04ZM29.703 74.766c.102-.063.165.031.165.031l.07.103c0 1.735.064 3.58.33 5.283l.063.102-.102.063-.102.063-.165-.032-.07-.102-.063-.102c-.165-1.774-.33-3.54-.228-5.346-.063-.102-.063-.102.032-.165-.102.063-.102.063 0 0l.07.102ZM21.224 62.888l.165.031.063.102.07.102.064.102c.062 3.58.023 7.655 1.758 11.133l.063.102-.032.165c.071.102-.03.165-.03.165l-.103.063c-.102.062-.102.062-.267.031-.102.063-.165-.031-.235-.133-1.798-3.58-1.83-7.757-1.861-11.502l.031-.165c.102-.063.102-.063.204-.133.11-.063.212-.134.11-.063Z" fill="#464797"/><path d="m24.828 70.048.165.031c.102-.063.165.032.165.032l.063.102.062.102c.299 3.713.723 7.623 2.395 10.999l.063.102-.032.165c.063.102-.031.165-.031.165l-.102.063-.102.062-.165-.031c-.102.063-.165-.032-.165-.032l-.063-.102c-1.633-3.548-2.127-7.56-2.426-11.273l.032-.165c.102-.063.102-.063.204-.134.102-.055.102-.055-.063-.086ZM28.094 77.577c.165.031.267-.032.338.07 0 0 .07.102.133.204l.063.102c-.032.165.031.267-.07.338.062.974.297 1.97.627 2.913l.063.102-.031.165-.102.062-.102.063-.103.063-.164-.031-.063-.102-.063-.102c-.463-1.139-.73-2.41-.667-3.612l.031-.165c.102-.063.102-.063.204-.133s.11-.07-.094.063Z" fill="#464797"/><path d="M38.5 45s-12 2-10.5 15.5" stroke="#464797" stroke-width=".5" stroke-miterlimit="10" stroke-linecap="round"/><path d="M125.202 78.142c-.597-2.771-7.223-8.118-16.927-10.74-11.046-2.983-14.092-5.747-14.092-5.747s-11.455 9.154-8.102 9.83c3.658.73 7.52-.126 12.2.007 1.17.032 3.439 1.618 4.467 2.395.934.707-.981-2.638.283-2.261.196.055 3.595 2.858 3.784 2.92 1.374.432-.934-2.088.227-1.617 5.496 2.245 11.643 6.077 13.575 7.239 2.386 1.436 5.589.942 4.585-2.026ZM133.829 69.075c-.51-2.387-6.469-6.171-14.547-9.233-8.377-3.172-12.805-12.004-12.805-12.004s-9.539 9.72-6.642 10.19c1.609.26 4.522 1.523 8.008 2.952.793.33 1.782 1.9 2.63 2.238.502.196 0-2.27.518-2.073.652.251 2.646 2.78 3.313 3.015.777.275.134-1.476.919-1.233.267.087 1.86.895 2.104 1.02 6.995 3.502 10.496 5.622 12.561 6.862 2.057 1.249 4.813.817 3.941-1.734Z" fill="#FFE401"/><path d="M41.244 56.426a4.301 4.301 0 0 1-1.217-1.114 6.631 6.631 0 0 1-.816-1.421 4.22 4.22 0 0 1-.306-1.625c0-.51.102-1.115.306-1.524a7.53 7.53 0 0 1 1.727-2.645c.306-.409.816-.715 1.319-.919.306-.102.612-.102.816 0 .306.102.51.204.715.306.408.306.816.715 1.115 1.115.306.408.612.817.816 1.32.204.51.408.918.612 1.42.102.51.102 1.115 0 1.625s-.408 1.02-.816 1.421l-.612.613-.613.51a9.705 9.705 0 0 1-1.319.816c-.306.102-.612.205-.816.205h-.408c-.197 0-.4 0-.503-.103Zm.306-.714c.715.306 1.523-.102 2.34-.714.204-.102.408-.307.612-.409.204-.102.408-.306.51-.51.307-.306.51-.714.715-1.115a2.878 2.878 0 0 0 0-1.319c-.102-.51-.306-.918-.51-1.319-.204-.408-.409-.918-.715-1.217a4.996 4.996 0 0 0-1.013-1.02l-.612-.306h-.612c-.409.204-.817.408-1.115.816a6.16 6.16 0 0 0-1.523 2.442c-.102.408-.204.918-.204 1.42 0 .503.102.92.306 1.32.204.408.408.816.714 1.217.393.212.699.51 1.107.714ZM47.446 48.701c-.306-.306-.408-.714-.408-1.114 0-.4.102-.817.306-1.115.204-.306.51-.51.919-.715.204-.102.408-.102.612-.102.204 0 .408.102.613.204.204.102.306.307.408.51.102.205.102.409.102.613v.306c0 .102 0 .204-.102.306l-.306.613a1.88 1.88 0 0 1-1.013.714.872.872 0 0 1-.715 0c-.11.079-.314-.023-.416-.22Zm.409-.408c.102.102.204.102.306.102.102 0 .204 0 .306-.102.204-.102.408-.306.612-.51.102-.102.102-.204.204-.306 0-.102 0-.102.102-.204v-.613c0-.102-.102-.204-.204-.306-.102-.102-.204-.102-.306-.204h-.408c-.306.102-.51.204-.715.51-.102.204-.204.51-.204.817 0 .306.102.612.307.816ZM78.253 40.968c-1.177 1.186-2.803 1.9-4.067 2.968-.596.644-1.271 1.17-1.955 1.704-.337.267-.769.416-1.2.565-.432.15-.849.204-1.367.236a42.027 42.027 0 0 1-5.08-.338 10.646 10.646 0 0 1-2.48-.62c-.393-.15-.77-.409-1.146-.66-.189-.125-.377-.251-.558-.479-.188-.125-.274-.243-.455-.47l-.086-.11-.087-.11.016-.103s.016-.102.11-.086l.11-.086s.102.015.11-.087l.102.016s.102.016.086.11c.189.126.267.337.455.47.087.11.275.244.464.37.274.243.667.392 1.044.644a9.98 9.98 0 0 0 2.386.612c1.602.306 3.33.424 4.97.424.817 0 1.562-.212 2.245-.738s1.367-1.06 1.947-1.602c1.272-1.17 2.89-1.79 4.052-2.873l.11-.086.101.015.087.11c.188.212.188.212.086.204ZM64.82 46.746l.102.016 3.125.392s.102.016.086.11l.087.11s-.016.102-.118.087l-.11.086-3.125-.393-.102-.015-.086-.11c.016-.095.023-.189.141-.283 0 0-.117.094 0 0Z" fill="#464797"/><path d="M66.775 45.051s.008-.102 0 0h.817l.102.016.086.11-.016.102-.11.086-.706-.086-.102-.016-.087-.11c-.102-.015-.102-.015.016-.102 0 0-.102-.016 0 0Z" fill="#464797"/><path d="M124.377 78.024s1.287 1.586.4 2.309M122.705 78.903s1.138.825.376 1.806M133.288 68.47s1.287 1.586.4 2.308M131.875 69.507s1.138.824.377 1.805" stroke="#464797" stroke-miterlimit="10" stroke-linecap="round"/><path d="M98.108 71.484s2.45.15 4.208 2.246c1.358 1.617.322-2.104.322-2.104s2.913 1.727 3.886 2.708c.974.982.393-1.46.393-1.46l6.916 3.101M106.312 60.29s2.418.454 3.894 2.755c1.139 1.774.581-2.05.581-2.05s2.677 2.081 3.517 3.172c.84 1.092.566-1.397.566-1.397l7.026 3.4" stroke="#464797" stroke-width=".75" stroke-miterlimit="10" stroke-linecap="round" stroke-linejoin="round"/><defs><linearGradient id="a" x1="132.595" y1="77.472" x2="8.039" y2="53.128" gradientUnits="userSpaceOnUse"><stop stop-color="#9B4198"/><stop offset="1" stop-color="#45469C"/></linearGradient></defs></svg>