<svg width="93" height="75" fill="none" xmlns="http://www.w3.org/2000/svg"><path d="M35.99 65.49c-1.041-.711-2.098-1.501-2.572-2.423-.117.312-.199.634-.287.956-1.454-1.5-2.344-3.048-3.125-4.95-.225-.548-2.188-6.032-1.658-6.247l-1.081.434c-1.352-2.035-1.74-4.687-1.023-7.027l-2.087-.85c.4-.177.796-.357 1.195-.534-.93-.673-1.86-1.35-2.791-2.023.97-.216 1.943-.432 2.913-.651l-3.174-2.89c.66-.932 1.318-1.866 1.979-2.8-.82-.025-1.635-.05-2.454-.08a7.2 7.2 0 0 1 2.753-3.29c-.65-.074-1.3-.144-1.95-.217 3.442-1.537 4.557-4.08 6.506-7.032 1.647-2.493 3.622-4.849 6.17-6.253 3.28-1.809 7.033-2.715 10.763-2.731 3.825-.017 6.628.78 9.606 3.027 5.818 4.389 10.193 10.043 11.785 17.315a2.332 2.332 0 0 1-1.987.64 3.526 3.526 0 0 1 1.82 2.814c-.73-.151-1.46-.303-2.19-.458a4.7 4.7 0 0 0 2.793 1.915c.272.064-1.526 2.289-1.558 2.4-.39 1.287-.053 1.104 1.387 1.402a5.51 5.51 0 0 1-2.938 3.564c.696.016 1.39.03 2.085.047-.7.788-2.067.78-2.624 1.68-.354.572-.24 1.3-.239 1.975 0 2.123-1.266 3.725-3.027 4.7.066-.54.048-1.124-.126-1.646.164.525-1.028 2.825-1.281 3.43-.576 1.377-1.396 2.676-2.283 3.867-.023.032-.362-1.97-.415-2.187-1.496 3.805-3.943 6.978-8.11 8.033-1.92.488-3.991.466-5.761 1.362-1.76-1.356-3.52-2.716-5.28-4.073-.486-.378-1.108-.775-1.734-1.2Z" fill="#FFE400"/><path d="M40.76 33.77c1.424-1.299 2.506-3.274 3.025-4.864 1.203-3.685.201-7.069-1.567-10.474-2.408-4.638-4.377-9.404-7.094-13.891-.493-.815-1.153-1.718-2.038-1.716-.987.003-1.561 1.118-1.875 2.107-.941 2.962-1.325 6.148-1.13 9.327-.453-.455-.908-.909-1.36-1.364.389 4.676.89 9.373 2.033 13.944.473 1.89 1.073 3.797 2.175 5.387 1.1 1.59 2.78 2.838 4.588 2.92 1.187.057 2.293-.508 3.243-1.376ZM51.329 35.376c-1.199-1.508-1.953-3.632-2.212-5.284-.602-3.831.925-7.012 3.21-10.094 3.112-4.196 5.816-8.59 9.208-12.587.617-.724 1.412-1.513 2.286-1.37.973.161 1.361 1.351 1.514 2.378a25.715 25.715 0 0 1-.367 9.388l1.56-1.131c-1.13 4.554-2.367 9.112-4.22 13.441-.77 1.793-1.663 3.577-3.005 4.972-1.337 1.396-3.195 2.36-4.992 2.154-1.184-.127-2.181-.86-2.982-1.867Z" fill="#FFE400"/><path d="M34.803 20.722c-.003.145-.007.287-.014.433-.38-.583-.761-1.166-1.138-1.747.55.09 1.072.333 1.498.694a1.304 1.304 0 0 1 .04-1.367l.968.58c-.38-.295-.431-.93-.101-1.28.33-.348.966-.332 1.279.037a10.726 10.726 0 0 0-3.483-6.461M63.265 13.095l-.302-1.046a28.123 28.123 0 0 0-4.025 10.17c.243-.433.561-.824.94-1.15-.03.643-.066 1.287-.097 1.93-.004-.374.585-.503.835-.228.25.274.202.72.029 1.053-.173.333-.441.603-.623.933-.182.33-.252.764-.025 1.057" stroke="#45459B" stroke-width=".3" stroke-miterlimit="10" stroke-linecap="round" stroke-linejoin="round"/><path d="M36.99 29.505c.346.586 1.045.984 1.75.867.685-.112 1.27-.719 1.328-1.414.15-1.785-2.362-2.484-3.152-.869-.235.49-.17.998.074 1.416Z" fill="#45459B"/><path d="M38.081 28.489c.036.29.273.538.559.603a.838.838 0 0 0 .793-.267c.17-.185.253-.464.155-.696-.302-.693-1.607-.472-1.507.36ZM37.388 28.83c-.459.093-.185.83.092.986.21.117.52.073.634-.141.115-.222-.023-.495-.204-.66-.146-.126-.337-.225-.522-.186Z" fill="#fff"/><path d="M52.292 30.988c.345.587 1.044.985 1.75.868.685-.113 1.27-.72 1.327-1.415.15-1.785-2.361-2.483-3.151-.868-.236.49-.17.997.074 1.415Z" fill="#45459B"/><path d="M53.383 29.972c.035.29.273.539.558.604a.838.838 0 0 0 .794-.267c.169-.186.253-.464.155-.696-.302-.694-1.608-.473-1.507.36ZM52.69 30.313c-.46.093-.185.83.091.986.21.118.52.074.634-.141.116-.221-.022-.494-.204-.66-.145-.125-.334-.225-.522-.185Z" fill="#fff"/><path d="M38.852 39.388c.894 1.363 1.287 2.985 1.749 4.55.462 1.564 1.034 3.167 2.18 4.322 1.148 1.156 3.02 1.736 4.445.944.822-.456 1.368-1.276 1.865-2.078a61.199 61.199 0 0 0 3.812-7.188c-1.385.903-3.336.791-4.624-.243-.367-.295-.69-.664-1.126-.844-.989-.416-2.054.266-3.043.682-1.594.668-3.683.556-5.258-.145Z" fill="#45459B"/><path d="M43.472 39.603c-.906.212-1.716.376-1.703.28-.389 2.998-1.02 6.88-.206 9.833.663 2.4 3.645 3.875 5.963 2.728 3.18-1.569 2.538-9.132 2.595-11.998-1.385-.414-2.739-1.465-4.227-1.404-.162.008-1.358.313-2.422.56Z" fill="#F1653A"/><path d="M36.78 36.96c.61.9 1.316 1.724 2.213 2.33 2.452 1.65 4.433.447 6.797-.625 1-.453 2.266 1.291 3.196 1.661 1.259.503 2.5.087 3.64-.513.916-.48 1.707-1.139 2.439-1.873" stroke="#45459B" stroke-width=".5" stroke-miterlimit="10" stroke-linecap="round" stroke-linejoin="round"/><path d="M43.793 35.772c-.123-.457.075-.876.701-1.108a4.24 4.24 0 0 1 2.85-.034c.484.168.957.447 1.201.898.614 1.142-.545 1.505-1.355 1.874-.355.164-.733.33-1.12.286-.356-.041-.66-.253-.952-.46-.33-.234-.659-.475-.928-.777a1.65 1.65 0 0 1-.397-.679Z" fill="#45459B"/><path d="M46.424 38.662a62.925 62.925 0 0 0-.78 5.94M45.498 46.836c-.018.385-.032.772-.045 1.154M45.326 49.367c.007.172.017.342.024.514" stroke="#45459B" stroke-width=".3" stroke-miterlimit="10" stroke-linecap="round" stroke-linejoin="round"/><path d="M44.665 58.67c.041-.113.092-.223.158-.314.128-.177.32-.29.496-.235.254.078.365.453.407.784a5.111 5.111 0 0 1-.154 1.97c-.056.197-.126.392-.238.543-.23.308-.543.274-.717-.066a1.579 1.579 0 0 1-.132-.508 5.309 5.309 0 0 1 .089-1.852 2.48 2.48 0 0 1 .091-.321Z" stroke="#45459B" stroke-width=".883" stroke-miterlimit="10" stroke-linecap="round" stroke-linejoin="round"/><path d="M32.342 53.8c1.883 1.41 3.919 2.53 6.065 3.305 1.076.376 2.169.696 3.285.89 1.112.21 2.237.335 3.365.342 1.126.03 2.258-.058 3.372-.234 1.12-.159 2.224-.443 3.312-.786 2.17-.707 4.237-1.758 6.162-3.106a.375.375 0 0 1 .489.56c-1.65 1.813-3.758 3.227-6.057 4.173-1.146.486-2.354.823-3.578 1.072a19.44 19.44 0 0 1-3.734.323 19.14 19.14 0 0 1-3.721-.456c-1.213-.29-2.409-.671-3.536-1.2-2.26-1.025-4.311-2.513-5.894-4.385a.346.346 0 0 1 .041-.488.346.346 0 0 1 .43-.01Z" fill="#09BCCA"/><path d="m47.174 63.355-2.2-2.05a.117.117 0 0 0-.184.031L43.438 64a.121.121 0 0 0 .024.139l2.167 2.056a.117.117 0 0 0 .184-.032l1.385-2.67a.112.112 0 0 0-.024-.138Z" fill="#F89C33"/><path d="m46.252 63.548-1.106-1.03a.064.064 0 0 0-.05-.016.059.059 0 0 0-.042.031l-.68 1.34a.056.056 0 0 0 .012.069l1.09 1.034a.064.064 0 0 0 .05.015.058.058 0 0 0 .042-.031l.696-1.342c.013-.023.009-.05-.012-.07ZM45.097 62.505l-.213-1.233M45.735 66.204l-.212-1.233M43.453 64.069l.934-.161M46.295 63.578c.516-.09.894-.154.894-.154" stroke="#C47D27" stroke-width=".294" stroke-miterlimit="10" stroke-linecap="round" stroke-linejoin="round"/><path d="M45.186 58.105a.358.358 0 0 1 .133.01c.255.078.366.452.407.783a5.109 5.109 0 0 1-.154 1.97c-.056.197-.125.392-.237.543-.107.142-.231.21-.349.212" stroke="#45459B" stroke-width=".883" stroke-miterlimit="10" stroke-linecap="round" stroke-linejoin="round"/><ellipse rx="5.955" ry="5.956" transform="matrix(.98142 .1954 -.19662 .97978 76.546 39.94)" fill="#9B4198"/><path d="M74.946 39.08a.62.62 0 0 0 .244-1.215.62.62 0 0 0-.244 1.216ZM76.683 39.427a.62.62 0 0 0 .244-1.216.62.62 0 0 0-.244 1.216ZM79.508 40.313a.532.532 0 0 0-.277-.149c-.035-.007-.07-.009-.112-.012a.552.552 0 0 0-.387.163l-1.123 1.136a.555.555 0 0 0-.16.386.552.552 0 0 0 .546.547.551.551 0 0 0 .386-.163l1.123-1.135a.555.555 0 0 0 .161-.386.526.526 0 0 0-.157-.387ZM73.433 39.877l.599 1.478a.55.55 0 0 0 .294.299.548.548 0 0 0 .716-.715l-.599-1.477a.55.55 0 0 0-.294-.3c-.034-.011-.068-.023-.108-.031a.535.535 0 0 0-.313.031.552.552 0 0 0-.295.715ZM78.425 39.773a.62.62 0 0 0 .244-1.216.62.62 0 0 0-.244 1.216Z" fill="#fff"/><path d="M76.045 39.624a.534.534 0 0 0-.277-.15c-.035-.006-.071-.008-.112-.011a.551.551 0 0 0-.387.163l-1.123 1.135a.555.555 0 0 0-.161.386.552.552 0 0 0 .546.548.552.552 0 0 0 .387-.164l1.123-1.135a.555.555 0 0 0 .16-.386.526.526 0 0 0-.156-.386Z" fill="#fff"/><path d="M75.165 39.804a.532.532 0 0 0 0 .418l.598 1.478a.55.55 0 0 0 .294.299.548.548 0 0 0 .716-.715l-.598-1.478a.55.55 0 0 0-.294-.299c-.034-.012-.068-.024-.108-.032a.535.535 0 0 0-.314.032.568.568 0 0 0-.294.297Z" fill="#fff"/><path d="m77.006 39.972-1.123 1.135a.555.555 0 0 0-.161.386.552.552 0 0 0 .546.547.551.551 0 0 0 .386-.163l1.124-1.135a.551.551 0 0 0-.279-.923c-.035-.007-.07-.009-.112-.012a.529.529 0 0 0-.381.165Z" fill="#fff"/><path d="m76.892 40.566.598 1.478a.55.55 0 0 0 .294.299.548.548 0 0 0 .716-.715l-.599-1.478a.55.55 0 0 0-.293-.299c-.035-.012-.069-.024-.109-.032a.535.535 0 0 0-.313.032.557.557 0 0 0-.294.715Z" fill="#fff"/><ellipse rx="5.518" ry="5.506" transform="rotate(11.278 -151.805 366.04) skewX(-.052)" fill="#F99D33"/><path d="M67.172 35.96a.573.573 0 0 0 .226-1.125.573.573 0 0 0-.226 1.125ZM68.78 36.281a.573.573 0 0 0 .226-1.125.573.573 0 0 0-.226 1.125ZM71.396 37.102a.494.494 0 0 0-.256-.138.51.51 0 0 0-.462.14l-1.04 1.05a.513.513 0 0 0-.148.357.511.511 0 0 0 .506.507.51.51 0 0 0 .358-.151l1.039-1.05a.513.513 0 0 0 .148-.357.487.487 0 0 0-.145-.358ZM65.772 36.696l.555 1.368a.51.51 0 0 0 .272.276.507.507 0 0 0 .662-.66l-.554-1.368a.51.51 0 0 0-.373-.306.495.495 0 0 0-.29.03.51.51 0 0 0-.272.66ZM70.393 36.603a.573.573 0 0 0 .225-1.125.573.573 0 0 0-.225 1.125Z" fill="#fff"/><path d="M68.19 36.463a.494.494 0 0 0-.257-.138.51.51 0 0 0-.462.14l-1.04 1.05a.513.513 0 0 0-.148.356.512.512 0 0 0 .506.507.511.511 0 0 0 .358-.15l1.04-1.05a.513.513 0 0 0 .148-.357.487.487 0 0 0-.145-.358Z" fill="#fff"/><path d="M67.376 36.63a.492.492 0 0 0 0 .386l.554 1.367a.51.51 0 0 0 .272.277.507.507 0 0 0 .663-.66l-.555-1.368a.51.51 0 0 0-.372-.306.496.496 0 0 0-.29.029.524.524 0 0 0-.272.274Z" fill="#fff"/><path d="m69.08 36.785-1.04 1.05a.513.513 0 0 0-.149.357.511.511 0 0 0 .506.507.51.51 0 0 0 .358-.151l1.04-1.05a.51.51 0 0 0-.259-.853c-.032-.007-.065-.009-.103-.012a.49.49 0 0 0-.354.152Z" fill="#fff"/><path d="m68.974 37.335.555 1.367a.51.51 0 0 0 .272.277.507.507 0 0 0 .662-.66l-.554-1.368a.51.51 0 0 0-.373-.306.495.495 0 0 0-.29.029.514.514 0 0 0-.272.66Z" fill="#fff"/><ellipse rx="6.47" ry="6.456" transform="rotate(11.278 -192.29 374.086) skewX(-.052)" fill="#00BDCD"/><path d="M67.709 43.896a.672.672 0 0 0 .264-1.32.672.672 0 0 0-.264 1.32ZM69.594 44.272a.672.672 0 0 0 .264-1.32.672.672 0 0 0-.264 1.32ZM72.661 45.235a.58.58 0 0 0-.3-.162c-.039-.008-.078-.01-.122-.013a.599.599 0 0 0-.42.177l-1.218 1.23a.6.6 0 0 0-.175.42.599.599 0 0 0 .593.593.6.6 0 0 0 .42-.176l1.218-1.231a.601.601 0 0 0 .175-.419.571.571 0 0 0-.17-.42ZM66.067 44.758l.65 1.604c.061.148.174.261.32.324a.594.594 0 0 0 .777-.775l-.651-1.603a.597.597 0 0 0-.32-.324c-.037-.013-.074-.026-.117-.035a.58.58 0 0 0-.34.034.598.598 0 0 0-.32.776ZM71.485 44.649a.672.672 0 0 0 .264-1.32.672.672 0 0 0-.264 1.32Z" fill="#fff"/><path d="M68.901 44.485a.58.58 0 0 0-.3-.162c-.039-.008-.078-.01-.122-.013a.598.598 0 0 0-.42.177l-1.218 1.23a.602.602 0 0 0-.175.42.6.6 0 0 0 .593.594.598.598 0 0 0 .42-.177l1.218-1.231a.601.601 0 0 0 .175-.419.571.571 0 0 0-.17-.42Z" fill="#fff"/><path d="M67.947 44.68a.576.576 0 0 0 0 .453l.65 1.604c.061.148.174.261.32.324a.594.594 0 0 0 .777-.775l-.651-1.603a.597.597 0 0 0-.32-.324c-.037-.013-.073-.026-.117-.035a.58.58 0 0 0-.34.034.615.615 0 0 0-.319.322Z" fill="#fff"/><path d="m69.945 44.863-1.219 1.23a.601.601 0 0 0-.174.42.6.6 0 0 0 .593.594.599.599 0 0 0 .42-.177l1.218-1.231a.598.598 0 0 0-.302-1.001c-.038-.008-.078-.01-.122-.013a.573.573 0 0 0-.414.178Z" fill="#fff"/><path d="m69.821 45.507.65 1.604c.061.148.174.261.32.324a.594.594 0 0 0 .777-.775l-.65-1.603a.598.598 0 0 0-.438-.36.58.58 0 0 0-.34.035.603.603 0 0 0-.319.775Z" fill="#fff"/><ellipse cx="76.517" cy="49.332" rx="7.412" ry="5.55" transform="rotate(8.743 76.517 49.332)" fill="#FFE400"/><ellipse rx="8.477" ry="6.245" transform="scale(-1 1) rotate(8.743 -335.822 -76.517)" fill="#FFE400"/></svg>