<svg width="111" height="114" viewBox="0 0 111 114" fill="none" xmlns="http://www.w3.org/2000/svg">
<path d="M61.1225 22.7096C62.1124 25.2897 62.859 28.0358 63.3243 30.7546C63.5201 31.9059 63.6049 33.0947 63.404 34.252C63.0709 36.1768 62.3082 38.0209 61.186 39.6156C59.9105 41.4281 57.9468 43.2781 55.8187 44.0295C53.4686 44.8557 50.6421 45.1119 48.1809 44.7281C44.518 44.158 40.5431 41.7957 39.2405 38.1332C38.3353 35.5905 39.0286 32.3595 41.294 30.9256C42.3153 30.2806 43.5332 30.0517 44.6866 29.6943C45.8401 29.3369 47.0207 28.7931 47.6614 27.7592C47.9945 27.2205 48.1487 26.5968 48.2699 25.9781C48.5928 24.3094 48.6827 22.5981 49.0318 20.9345C49.3861 19.2709 50.0378 17.6081 51.2811 16.4619C53.1863 14.703 56.0289 15.9769 57.7655 17.3894C59.3444 18.6684 60.408 20.8384 61.1225 22.7096Z" fill="#ED6636"/>
<path d="M52.2257 22.8099C52.2732 23.0337 52.4851 23.2686 52.697 23.1775C52.8402 23.1188 52.8927 22.9427 52.9665 22.8099C53.1724 22.4312 53.6708 22.2551 54.0725 22.4049C54.475 22.5538 54.7395 22.9963 54.7022 23.4286C54.6649 23.86 54.342 24.2438 53.9343 24.3723C53.797 24.4148 53.6436 24.4361 53.5428 24.5425C53.4902 24.6012 53.458 24.6701 53.4368 24.745C53.2622 25.2726 53.347 25.8589 53.5165 26.3924C54.1623 28.4611 55.0937 30.4285 56.8616 31.756C57.471 32.2147 58.1482 32.5772 58.8203 32.9346C59.8525 33.4835 61.0068 33.7234 62.1654 33.6596C62.7375 33.6273 63.763 33.3439 63.4926 32.4376C63.207 31.4675 63.1341 31.2922 62.2501 30.8123C61.4569 30.3809 60.7102 29.815 60.1805 29.0747C59.6517 28.3335 59.3449 27.4059 59.461 26.5048C59.5347 25.9185 59.7788 25.3687 59.9585 24.8037C60.467 23.2201 60.4771 21.4773 59.9847 19.8886C59.5618 18.5237 58.7567 17.2549 57.5871 16.4388C55.2209 14.7914 51.691 15.7776 49.6103 17.4727C49.1925 17.814 48.8009 18.2088 48.5992 18.71C48.1967 19.7073 48.7103 20.309 49.6578 20.48C50.4943 20.6289 51.4206 20.2137 52.119 19.7652C51.913 20.7353 52.0452 21.8288 52.2257 22.8099Z" fill="#ED6636"/>
<path d="M63.8578 36.3453C63.2594 34.6391 62.5611 32.5228 61.3381 31.2864C60.8881 30.8328 60.3219 30.4278 59.6812 30.4124C58.5752 30.3861 58.3845 31.9322 58.443 32.7951C58.4956 33.6325 58.771 34.4426 59.0464 35.2365C59.6016 36.8576 60.1101 38.4888 60.6923 40.0989C61.0627 41.1226 62.3043 46.0709 63.0136 46.9235C63.5645 47.5847 64.8934 47.994 65.7036 47.4077C66.1427 47.0877 66.7681 46.6393 66.7529 46.0896C66.7257 45.1944 65.0587 40.7652 64.8578 39.8853C64.6197 38.8514 64.3925 37.8166 64.0324 36.8201C63.9739 36.6653 63.9154 36.5053 63.8578 36.3453Z" fill="#45459B"/>
<path d="M46.679 32.3413C46.4629 32.7311 46.2713 33.1574 46.0917 33.6126C45.512 35.0788 44.9323 36.5467 44.4229 38.064C44.3339 38.3295 44.2449 38.595 44.1551 38.8605C44.0153 39.2775 43.8746 39.6953 43.7373 40.1148C43.1262 41.9843 42.4584 44.4342 43.2567 46.445C43.6262 47.3785 44.5314 47.9546 45.1967 47.4262C45.473 47.2066 45.6696 46.839 45.8544 46.4791C47.407 43.4531 48.7156 40.1846 49.7478 36.7552C50.1385 35.4567 50.4962 34.0653 50.3555 32.6706C50.2835 31.9541 50.0419 31.2598 49.6809 30.7381C49.3215 30.219 48.7918 30.2863 48.3418 30.5432C48.2605 30.59 48.1791 30.6403 48.1003 30.6947C47.5036 31.1023 47.0536 31.6665 46.679 32.3413Z" fill="#45459B"/>
<path d="M87.8462 97.1395C86.83 95.1771 85.8461 93.1621 85.3698 91.0032C84.8926 88.8384 84.9562 86.488 85.9622 84.5206C86.9682 82.5532 89.0378 81.0606 91.2346 81.1355C92.933 81.1942 94.5161 82.1592 95.5908 83.4867C96.6646 84.8091 97.279 86.4616 97.6333 88.1355C98.3054 91.2976 98.1096 94.6402 97.0832 97.7053L87.8462 97.1395Z" fill="url(#paint0_linear)"/>
<path d="M90.4208 81.2207L92.6752 97.3957L87.7266 82.2657" stroke="#994396" stroke-width="0.5645" stroke-miterlimit="10" stroke-linecap="round" stroke-linejoin="round"/>
<path d="M85.2969 86.4023L92.6754 97.3958L85.3655 91.0035" stroke="#994396" stroke-width="0.5645" stroke-miterlimit="10" stroke-linecap="round" stroke-linejoin="round"/>
<path d="M95.0581 82.793L92.6758 97.3954L97.2227 86.8393" stroke="#994396" stroke-width="0.5645" stroke-miterlimit="10" stroke-linecap="round" stroke-linejoin="round"/>
<path d="M9.45645 98.2153C8.69453 96.0454 7.97414 93.8278 7.83684 91.4392C7.70463 89.0506 8.20212 86.4543 9.67341 84.2793C11.1447 82.1042 13.7016 80.4619 16.1094 80.5419C17.9723 80.6057 19.5444 81.677 20.4919 83.1381C21.4395 84.5992 21.8098 86.4219 21.8997 88.2719C22.0641 91.7642 21.2437 95.4531 19.5444 98.8323L9.45645 98.2153Z" fill="url(#paint1_linear)"/>
<path d="M15.2018 80.6387L14.7416 98.5036L12.0312 81.796" stroke="#FFE400" stroke-width="0.4976" stroke-miterlimit="10"/>
<path d="M8.59786 86.3652L14.7432 98.5041L7.83594 91.4403" stroke="#FFE400" stroke-width="0.4976" stroke-miterlimit="10"/>
<path d="M20.0298 82.377L14.7422 98.5035L21.6867 86.8445" stroke="#FFE400" stroke-width="0.4976" stroke-miterlimit="10"/>
<path d="M14.9338 96.8567C14.4414 92.1653 17.0882 87.3617 21.185 85.0641C25.2819 82.7665 30.5696 82.9639 34.6241 85.3253C38.6837 87.6867 41.4525 92.059 42.1509 96.7239L14.9338 96.8567Z" fill="url(#paint2_linear)"/>
<path d="M15.1875 92.9437L28.235 96.7662L17.3995 88.2422" stroke="#F1653A" stroke-width="0.747" stroke-miterlimit="10" stroke-linecap="round" stroke-linejoin="round"/>
<path d="M20.5664 85.3724L28.2364 96.7659L26.7329 83.2246" stroke="#F1653A" stroke-width="0.747" stroke-miterlimit="10" stroke-linecap="round" stroke-linejoin="round"/>
<path d="M29.9799 83.5449L28.2383 96.7662L35.4371 85.7736" stroke="#F1653A" stroke-width="0.747" stroke-miterlimit="10" stroke-linecap="round" stroke-linejoin="round"/>
<path d="M38.756 88.957L28.2383 96.7671L41.2858 93.6586" stroke="#F1653A" stroke-width="0.747" stroke-miterlimit="10" stroke-linecap="round" stroke-linejoin="round"/>
<path d="M98.2476 95.5327C92.4251 94.0512 86.3594 94.0776 80.415 93.5338C72.1847 92.7765 63.9113 92.4727 55.6429 92.4727C26.7053 92.4727 3.24609 96.4764 3.24609 101.414C3.24609 104.799 11.9747 106.713 14.3935 107.32C19.8193 108.68 25.4459 108.797 30.9878 109.304C39.1816 110.05 47.4178 110.354 55.6438 110.354C59.1211 110.354 62.5993 110.295 66.0758 110.178C77.3453 109.789 89.1173 109.869 100.095 106.467C102.456 105.737 109.909 103.733 107.146 99.91C105.362 97.4414 101.038 96.2424 98.2476 95.5327Z" fill="url(#paint3_linear)"/>
<path d="M51.0045 46.215C52.8148 47.6225 55.281 48.1186 57.4888 47.5263C58.4363 47.2702 59.3567 46.8064 59.9551 46.0227C60.7704 44.9616 60.8501 43.5226 60.9026 42.184C60.9874 39.8439 61.0721 37.4978 60.9187 35.1628C60.8441 34.0804 61.4586 32.0679 61.0772 31.0442C61.0721 31.028 60.6797 30.6859 59.9703 30.3932C58.7957 30.0069 55.0005 30.0996 55.0005 30.0996C55.0005 30.0996 50.1731 30.1779 49.2628 30.2953C49.1679 30.3055 48.7882 30.3472 48.7094 30.3949C48.6086 30.4587 48.5823 30.5421 48.5348 30.6493C48.1645 31.4118 48.1882 32.2355 48.0034 33.0677C47.7068 34.4165 47.5322 35.7917 47.4797 37.1728C47.4585 37.7378 47.3737 38.3828 47.4373 38.9376C47.511 39.609 47.8077 40.3238 48.0356 40.9476C48.3848 41.8964 48.5857 42.8776 49.0467 43.7949C49.5222 44.7378 50.1739 45.57 51.0045 46.215Z" fill="#45459B"/>
<path d="M60.2124 33.0653C60.0396 32.1335 59.9989 30.6988 59.9734 30.3933C59.6726 30.2614 59.1522 30.2163 58.8013 30.1934C58.5742 31.1107 58.3149 34.3767 58.1513 34.6592C57.6852 35.448 55.8266 35.2727 54.1849 35.2106C53.5654 35.157 52.4212 35.1042 51.8017 35.0506C51.3991 35.0132 50.7008 35.083 50.3669 34.7996C50.1397 34.6073 50.1448 34.2609 50.166 33.9622C50.2185 33.2798 50.2931 32.5973 50.388 31.9208C50.4355 31.5685 50.494 31.2222 50.5575 30.8707C50.6211 30.5346 50.6092 30.5457 50.6779 30.2095C50.2075 30.2027 50.1126 30.2061 49.6778 30.2419C49.621 30.384 49.6032 30.4657 49.4829 30.7158C49.0329 31.5157 48.6464 32.3582 48.3345 33.2219C48.0913 33.8831 47.8896 34.5596 47.6887 35.237C47.509 35.8395 47.3285 36.4419 47.281 37.0708C47.2387 37.6469 47.3073 38.2221 47.387 38.7931C47.7734 41.4907 48.5193 44.0767 48.3557 46.8381C48.2447 48.7042 48.1396 49.379 47.7904 51.2341C47.6955 51.7302 47.0429 53.4806 46.8632 53.9444C46.7149 54.3231 46.2394 56.0012 46.2979 56.396C46.4301 57.2699 48.1023 56.3279 48.6786 56.5194C50.0499 56.9832 51.4415 57.7882 52.945 57.3457C53.2891 57.2444 53.5908 57.047 53.9451 56.967C54.5697 56.8232 55.3002 56.9134 55.9299 56.9134C57.5072 56.9134 58.9793 57.1108 60.5294 57.3133C60.9905 57.372 62.3346 57.5695 62.705 57.1482C62.9592 56.8606 62.8991 56.3756 62.8253 56.0394C62.1795 53.2296 61.1388 50.3883 60.9006 47.5095C60.9006 46.6781 60.8099 45.9582 60.9057 45.1259C61.154 42.9083 60.9371 40.5146 60.9532 38.2757C60.9583 37.5899 60.6743 34.9953 60.2124 33.0653Z" fill="#F89B35"/>
<path d="M47.973 92.8869C48.2434 90.8871 47.8993 88.0032 47.9146 85.7209C47.9307 83.3383 48.0841 80.9284 48.2112 78.5397C48.301 76.8387 48.1637 73.2995 50.7359 73.5497C52.8268 73.7573 52.3293 76.5885 52.2496 78.0972C52.1488 80.0323 52.1276 81.9674 52.0487 83.8922C51.9479 86.3022 51.3928 88.6746 50.9478 91.0411C50.7893 91.8938 50.9478 94.6075 50.2224 95.0772L47.973 92.8869Z" fill="#45459B"/>
<path d="M47.1928 90.8192C47.1606 90.5043 47.1292 90.1903 47.108 89.8755C47.1029 89.8066 47.1029 89.7266 47.1555 89.6781C47.1978 89.6406 47.2614 89.6406 47.3199 89.6406C48.7276 89.673 50.1362 89.7044 51.5388 89.7368C51.5863 89.7368 51.4168 92.573 51.3956 92.8292C51.3058 93.8903 51.1947 94.7327 51.4329 95.7717C51.5863 96.4542 52.1194 97.4294 51.76 98.1604C51.2041 99.2905 48.7708 99.1271 47.7242 99.8963C46.7368 100.495 45.874 100.893 44.9316 101.271C43.8468 101.692 41.2898 101.314 41.3008 100.429C41.3059 99.9916 41.5873 99.7525 42.0068 99.4019C43.1637 98.5425 44.796 97.9162 45.5638 96.9886C46.5427 95.8049 47.2521 94.6587 47.3157 93.0751C47.3411 92.3228 47.2665 91.5706 47.1928 90.8192Z" fill="#EAEAEA"/>
<path d="M59.8761 78.5067L59.8711 62.2305" stroke="#45459B" stroke-width="0.2346" stroke-miterlimit="10" stroke-linecap="round" stroke-linejoin="round"/>
<path d="M58.7812 62.3105L60.7449 78.2081" stroke="#45459B" stroke-width="0.2346" stroke-miterlimit="10" stroke-linecap="round" stroke-linejoin="round"/>
<path d="M60.457 76.416L61.4045 81.6775" stroke="#45459B" stroke-width="0.2346" stroke-miterlimit="10" stroke-linecap="round" stroke-linejoin="round"/>
<path d="M61.7169 76.2793L60.2617 80.6404" stroke="#45459B" stroke-width="0.2346" stroke-miterlimit="10" stroke-linecap="round" stroke-linejoin="round"/>
<path d="M60.1094 76.9916L61.618 69.1543" stroke="#45459B" stroke-width="0.2346" stroke-miterlimit="10" stroke-linecap="round" stroke-linejoin="round"/>
<path d="M61.0685 65.3965L60.582 79.764" stroke="#45459B" stroke-width="0.2346" stroke-miterlimit="10" stroke-linecap="round" stroke-linejoin="round"/>
<path d="M59.8978 80.0688L57.1875 64.9551" stroke="#45459B" stroke-width="0.2346" stroke-miterlimit="10" stroke-linecap="round" stroke-linejoin="round"/>
<path d="M60.7215 78.8067C60.7953 77.6375 60.6665 76.6768 60.4334 76.6623C60.1995 76.647 59.9503 77.583 59.8766 78.7531C59.802 79.9222 59.9316 80.883 60.1647 80.8974C60.3986 80.9119 60.6478 79.9759 60.7215 78.8067Z" stroke="#45459B" stroke-width="0.9797" stroke-miterlimit="10" stroke-linecap="round" stroke-linejoin="round"/>
<path d="M56.5943 58.6427C56.9698 58.5091 57.3885 58.4665 57.7902 58.4614C59.431 58.4401 62.2524 59.1541 61.0777 61.5053C60.6701 62.3213 60.0344 62.1877 59.2886 62.3477C58.2987 62.5664 58.3199 62.7264 57.8012 63.6429C57.6105 63.9841 57.3249 64.3092 56.9435 64.3679C56.5045 64.4317 56.0858 64.0956 55.9062 63.6905C55.5409 62.8481 55.2078 61.8406 55.1917 60.913C55.1815 60.1829 55.4299 59.4094 56.0019 58.9567C56.1867 58.8179 56.3825 58.7116 56.5943 58.6427Z" fill="#FBE70F"/>
<path d="M56.6646 26.3828C56.8231 27.9818 56.8976 29.5977 56.8765 31.2077C56.8765 31.3354 56.8714 31.469 56.818 31.5702C56.7493 31.6928 56.6273 31.7251 56.5163 31.7464C55.5848 31.9115 54.6212 31.8051 53.716 31.4315C53.5626 31.3677 53.3982 31.2826 53.3346 31.0801C53.2923 30.9465 53.3084 30.7976 53.3185 30.6589C53.4406 29.3637 53.4296 28.0413 53.2812 26.7513L56.6646 26.3828Z" fill="#45459B"/>
<path d="M57.5695 7.68233L54.9922 4.27596C54.96 4.23341 54.9074 4.20703 54.8599 4.20703C54.8074 4.20703 54.7591 4.23341 54.7277 4.27596L52.1919 7.68233C52.1496 7.74105 52.1496 7.82615 52.1919 7.88486L54.7277 11.2912C54.7599 11.3338 54.8074 11.3602 54.8599 11.3602C54.9125 11.3602 54.9608 11.3338 54.9922 11.2963L57.5695 7.88997C57.6178 7.82615 57.6178 7.74105 57.5695 7.68233Z" fill="#F89C33"/>
<path d="M56.2281 7.73189L54.9314 6.02062C54.9153 5.99934 54.8891 5.98828 54.8628 5.98828C54.8365 5.98828 54.8102 5.99934 54.7941 6.02062L53.5237 7.73189C53.5025 7.76422 53.5025 7.80081 53.5237 7.83315L54.7941 9.54442C54.8102 9.56569 54.8365 9.57675 54.8628 9.57675C54.8891 9.57675 54.9153 9.56569 54.9314 9.54442L56.2281 7.83315C56.2544 7.80677 56.2544 7.76422 56.2281 7.73189Z" stroke="#C47D27" stroke-width="0.263" stroke-miterlimit="10" stroke-linecap="round" stroke-linejoin="round"/>
<path d="M54.8672 5.98809V4.20703" stroke="#C47D27" stroke-width="0.263" stroke-miterlimit="10" stroke-linecap="round" stroke-linejoin="round"/>
<path d="M54.8672 11.324V9.54297" stroke="#C47D27" stroke-width="0.263" stroke-miterlimit="10" stroke-linecap="round" stroke-linejoin="round"/>
<path d="M52.1914 7.78516C52.1914 7.78516 52.7626 7.78516 53.5356 7.78516" stroke="#C47D27" stroke-width="0.263" stroke-miterlimit="10" stroke-linecap="round" stroke-linejoin="round"/>
<path d="M56.2812 7.78516C57.022 7.78516 57.5677 7.78516 57.5677 7.78516" stroke="#C47D27" stroke-width="0.263" stroke-miterlimit="10" stroke-linecap="round" stroke-linejoin="round"/>
<path d="M103.225 64.2504C103.225 64.2504 103.151 64.2504 103.146 64.2504C100.505 64.2504 97.8688 64.2504 95.2279 64.2504C93.5812 64.2504 91.9353 64.2504 90.2945 64.2504C89.7437 64.2504 89.1936 64.2504 88.6427 64.2504C87.7639 64.2504 85.7578 64.2555 85.7578 64.2555C85.7578 64.2555 86.0443 63.5994 86.1765 63.2531C86.3087 62.9068 86.5994 62.5919 86.9706 62.5494C87.3511 62.5068 87.7698 62.7468 88.1029 62.5545C88.5156 62.3196 88.6538 61.3972 88.9767 61.0083C89.6911 60.1394 91.0404 59.6918 91.9616 60.3309C92.5388 60.7309 92.8295 61.461 93.4227 61.8345C94.8889 62.7621 96.9958 60.9759 98.4722 61.8882C98.8163 62.1017 99.0706 62.437 99.4197 62.6345C100.039 62.9859 100.806 62.848 101.516 62.8744C102.225 62.8957 103.167 63.5356 103.225 64.2504Z" stroke="#00BCCC" stroke-width="0.5732" stroke-miterlimit="10" stroke-linecap="round" stroke-linejoin="round"/>
<path d="M19.9243 28.7187C20.6337 28.6923 21.4007 28.831 22.0202 28.4787C22.3694 28.2813 22.6236 27.9452 22.9677 27.7325C24.4441 26.8211 26.551 28.6064 28.0172 27.6788C28.6105 27.3053 28.9012 26.5752 29.4783 26.1752C30.3996 25.5353 31.7488 25.9829 32.4633 26.8526C32.7862 27.2415 32.9243 28.1639 33.3371 28.3988C33.6701 28.5911 34.0888 28.3511 34.4693 28.3936C34.8405 28.4362 35.1312 28.751 35.2635 29.0974C35.3957 29.4437 35.6821 30.0998 35.6821 30.0998C35.6821 30.0998 33.6761 30.0947 32.7972 30.0947C32.2463 30.0947 31.6963 30.0947 31.1454 30.0947C29.5046 30.0947 27.8587 30.0947 26.212 30.0947C23.5711 30.0947 20.9354 30.0947 18.2937 30.0947C18.2886 30.0947 18.2148 30.0947 18.2148 30.0947C18.2725 29.3799 19.2149 28.7408 19.9243 28.7187Z" stroke="#00BCCC" stroke-width="0.5732" stroke-miterlimit="10" stroke-linecap="round" stroke-linejoin="round"/>
<path d="M25.187 40.0749H10.5352C10.747 39.0138 10.847 37.8037 11.5301 36.9723C12.2183 36.141 13.5049 35.7087 14.3888 36.3222C14.9388 36.706 15.2194 37.4046 15.7914 37.762C17.1992 38.6521 19.2112 36.9358 20.6291 37.8097C20.9571 38.0122 21.2003 38.3373 21.5393 38.5245C22.1317 38.8657 22.8682 38.727 23.5454 38.7534C24.2285 38.7798 25.1285 39.3925 25.187 40.0749Z" fill="#00BCCC"/>
<path d="M84.5158 53.5811C85.1938 53.5548 85.9294 53.6935 86.5219 53.3522C86.8609 53.1659 87.1041 52.8408 87.4321 52.6374C88.8508 51.7635 90.862 53.4799 92.2697 52.5898C92.8409 52.2324 93.1223 51.5346 93.6723 51.15C94.5563 50.5373 95.8428 50.9687 96.531 51.8001C97.2141 52.6315 97.3141 53.8415 97.526 54.9027H82.875C82.9335 54.2211 83.8335 53.6084 84.5158 53.5811Z" fill="#00BCCC"/>
<path d="M67.466 48.7192C67.7889 49.9965 68.1101 51.2789 68.4314 52.5613C68.6271 53.3357 68.8085 54.0922 69.1992 54.7968C69.3772 55.1235 69.5823 55.4282 69.7992 55.732C69.9018 55.8783 70.2917 56.5829 70.4493 56.6084C70.1544 56.5676 69.8925 56.554 69.6077 56.5412C69.3399 56.5302 69.0924 56.4468 68.8331 56.4161C68.4475 56.3693 68.044 56.3608 67.6762 56.2221C67.5127 56.1591 67.0236 56.1353 67.0457 55.9056C67.0592 55.76 67.2304 55.6911 67.2465 55.5405C67.2609 55.4299 67.1609 55.2673 67.1101 55.1737C65.6879 52.6634 64.3845 50.0833 63.2132 47.4411C63.053 47.0871 62.892 46.6973 62.9691 46.311C63.0361 45.9842 63.2632 45.7128 63.5166 45.5009C63.9446 45.146 64.4853 44.912 65.043 44.9027C65.5998 44.8933 65.9905 45.0831 66.3626 45.4932C66.7202 45.8847 66.7812 46.1136 66.9618 46.7739C67.0321 46.996 67.094 47.2556 67.1287 47.4232C67.2152 47.8615 67.3559 48.2946 67.466 48.7192Z" fill="#45459B"/>
<path d="M47.2756 42.7998C48.6189 42.4849 49.9673 42.1735 51.3157 41.8612C52.1302 41.6706 52.9243 41.4953 53.6939 41.0877C54.0507 40.9022 54.388 40.686 54.7261 40.4571C54.8889 40.349 55.6584 39.9414 55.705 39.7695C55.6237 40.0937 55.5753 40.3805 55.5236 40.6945C55.477 40.9898 55.3584 41.2596 55.2931 41.5438C55.194 41.9675 56.0076 42.2373 55.8177 42.6373C55.7321 42.8151 55.5143 43.0032 55.2838 42.9708C55.1372 42.9513 54.7855 43.0993 54.4905 43.1623C54.3549 43.1827 53.9006 43.3478 53.7989 43.4014C51.0538 44.8872 48.2536 46.2393 45.4085 47.4434C45.0271 47.6085 44.6084 47.7728 44.2254 47.6758C43.9016 47.5915 43.6558 47.3328 43.4736 47.0469C43.1694 46.5644 43.0041 45.9602 43.0685 45.3458C43.1329 44.7323 43.3787 44.3077 43.8457 43.9111C44.2923 43.5291 44.533 43.4695 45.2297 43.2925C45.4653 43.2219 45.7373 43.1623 45.9136 43.1291C46.3687 43.0491 46.8281 42.9079 47.2756 42.7998Z" fill="#45459B"/>
<path d="M67.7529 58.1522C67.686 58.2296 67.6987 58.7291 67.6953 58.8431C67.6944 58.9231 67.7995 59.6677 67.569 59.7069C67.3385 59.746 67.1147 57.9973 67.0969 57.6339C67.0698 57.0868 66.9952 56.5328 67.0096 55.9814C67.0274 55.3542 67.3537 54.373 68.1267 54.373C68.3572 54.373 68.5725 54.4777 68.775 54.5883C70.1463 55.338 71.3108 56.4638 72.1091 57.8118C72.1591 57.8969 72.282 58.0807 72.2261 58.1913C72.1074 58.4262 71.8362 58.079 71.7244 57.9845C71.3074 57.6288 70.8896 57.2723 70.4726 56.9166C70.6514 57.068 70.798 57.3114 70.9429 57.4961C71.0921 57.6867 71.2336 57.8799 71.3616 58.0849C71.5243 58.347 71.7235 58.5879 71.8854 58.8534C71.9964 59.0355 72.099 59.2235 72.1922 59.4158C72.2507 59.5367 72.4642 59.8285 72.2727 59.9162C72.1735 59.9613 72.0659 59.8771 71.9888 59.7988C71.6294 59.4277 71.3014 59.0261 71.0082 58.5998C70.8624 58.3887 70.7243 58.216 70.5472 58.0296C70.3582 57.8296 70.1683 57.6297 69.9785 57.4297C70.4455 58.1326 70.9124 58.8346 71.3803 59.5375C71.4777 59.6839 71.5727 59.8388 71.6218 60.0081C71.6447 60.0872 71.7066 60.3332 71.6447 60.4021C71.6066 60.4455 71.5421 60.4548 71.4862 60.4404C71.4311 60.4251 71.3837 60.3902 71.3387 60.3544C70.9218 60.0226 70.6234 59.5733 70.3226 59.1384C70.0234 58.7061 69.7132 58.2398 69.2462 57.9803C69.7513 58.7861 70.2615 59.5996 70.5734 60.4974C70.6014 60.5774 70.6184 60.6872 70.5463 60.7314C70.476 60.7748 70.3887 60.7144 70.3302 60.6565C69.9115 60.243 69.5785 59.7511 69.2225 59.2822C69.0352 59.0337 68.8403 58.7912 68.6225 58.5691C68.5114 58.4568 68.3962 58.3487 68.2733 58.2492C68.1775 58.1709 68.0538 58.0424 67.9216 58.0585C67.8504 58.0662 67.7961 58.1028 67.7529 58.1522Z" fill="#45459B"/>
<path d="M62.7166 38.7144C62.3081 38.6685 61.8971 38.8182 61.4877 38.7799C61.136 38.7467 60.8046 38.5757 60.4512 38.5587C60.2402 38.5485 60.0266 38.5944 59.8156 38.5629C59.474 38.5119 59.1977 38.2677 58.8909 38.1068C58.079 37.6822 57.0578 37.706 56.2569 37.2891C56.0789 38.2379 56.1526 39.3705 56.5154 40.2649C56.7552 40.8563 57.1145 41.3983 57.5671 41.8468C57.7578 42.0357 58.0333 42.3378 58.2901 42.4314C58.6138 42.5488 58.9638 42.4765 59.2961 42.6075C59.708 42.7701 60.0605 42.7777 60.497 42.6824C60.7479 42.6271 60.9953 42.5599 61.2394 42.4807C61.3471 42.4459 61.4547 42.4084 61.5547 42.3548C61.7115 42.2706 61.8445 42.1472 61.9759 42.0255C62.2505 41.771 62.4963 41.4119 62.7972 41.1958C62.9692 40.9899 63.0794 40.7388 63.187 40.4921C63.3819 40.0445 63.5786 39.5926 63.6879 39.1161C63.704 39.0446 63.7116 38.9723 63.7243 38.8999C63.6404 38.9059 63.5565 38.905 63.4752 38.8914C63.2184 38.8497 62.9743 38.7433 62.7166 38.7144Z" fill="#C5D535"/>
<path d="M62.8845 36.9196C62.6387 36.8039 62.3735 36.7333 62.098 36.7163C61.7344 36.6941 61.1564 36.7392 60.7937 36.7103C60.3301 36.6746 59.8945 36.4831 59.4453 36.3614C58.9953 36.2406 58.7003 36.2235 58.3028 36.4652C58.1774 36.5418 58.0672 36.6448 57.9291 36.6958C57.7714 36.7554 57.5969 36.7401 57.429 36.7452C57.1833 36.752 56.3535 36.8822 56.2671 37.1826C56.1688 37.5221 56.6451 37.5876 56.8654 37.6413C57.5375 37.8055 58.2622 37.78 58.8885 38.1076C59.1953 38.2684 59.4716 38.5126 59.8131 38.5637C60.0224 38.5952 60.2369 38.5492 60.4487 38.5594C60.8022 38.5765 61.1327 38.7467 61.4853 38.7807C61.8946 38.819 62.3057 38.6692 62.7142 38.7152C62.9727 38.7441 63.2167 38.8496 63.4727 38.8913C63.554 38.9049 63.638 38.9058 63.7219 38.8998C63.8168 38.3544 63.9693 37.808 63.549 37.3877C63.3549 37.1945 63.1303 37.0345 62.8845 36.9196Z" fill="#FFECD0"/>
<path d="M60.1836 37.4889L62.1498 32.0742L62.5659 32.1755L60.5811 37.5663L60.1836 37.4889Z" fill="#00BCCC"/>
<path d="M56.2645 39.4041C56.2738 39.4696 56.295 39.542 56.3518 39.5896C56.456 39.6764 56.6314 39.6347 56.756 39.6211C56.9154 39.6041 57.0722 39.5751 57.2281 39.5403C57.5349 39.4705 57.8341 39.3709 58.129 39.262C58.6884 39.0578 59.2409 38.8221 59.824 38.6995C59.9062 38.6825 60.013 38.6791 60.0495 38.7548C60.0868 38.8323 60.0122 38.9165 59.9452 38.9693C59.1884 39.5632 58.3087 39.9768 57.4383 40.3853C57.9781 40.421 58.4968 40.1946 58.9884 39.9904C59.4816 39.7853 59.9817 39.5666 60.5181 39.513C60.5758 39.5079 60.6351 39.5037 60.691 39.5215C60.7461 39.5403 60.7961 39.5837 60.8046 39.6415C60.819 39.7343 60.6326 39.9096 60.5698 39.9649C60.4351 40.0823 60.269 40.1623 60.1063 40.2329C59.324 40.575 58.5426 40.9163 57.7603 41.2592C58.0307 41.1928 58.3019 41.1273 58.5723 41.0609C58.8248 40.9988 59.0375 40.9282 59.2765 40.8286C59.7588 40.6261 60.258 40.4644 60.7673 40.3461C60.8758 40.3206 61.0139 40.3087 61.0733 40.4023C61.1885 40.5827 60.847 40.7137 60.7317 40.7844C60.547 40.8967 60.3571 41.0013 60.163 41.095C59.88 41.232 59.5791 41.3281 59.2969 41.4617C59.0765 41.5664 58.8502 41.6532 58.6189 41.7332C58.3943 41.8106 58.1366 41.9374 57.901 41.968C58.4511 41.8948 59.0019 41.8208 59.552 41.7468C59.6994 41.7272 60.1198 41.5808 60.0927 41.8463C60.08 41.9714 59.8757 42.0608 59.7859 42.1059C58.3697 42.8156 56.7611 43.1338 55.1822 43.019C54.9491 43.0019 54.7084 42.9722 54.5118 42.8462C53.8525 42.4199 54.1101 41.4047 54.4381 40.8601C54.7271 40.3819 55.0932 39.9513 55.4153 39.4994C55.6288 39.199 55.7678 38.765 56.1746 38.7302C56.1712 38.7591 56.1975 38.9846 56.2119 39.0986C56.2221 39.1854 56.2348 39.2271 56.245 39.3165" fill="#45459B"/>
<path d="M51.2929 23.0616C51.3531 24.0692 51.4269 25.1252 51.9566 25.9838C52.5973 27.0237 53.5541 27.9521 54.7703 28.0159C55.5212 28.0551 57.6595 26.2144 57.8103 25.7651C58.3985 24.0122 58.5121 22.1001 58.1349 20.2892C57.9697 19.4953 57.6951 18.692 57.1323 18.1108C55.7127 16.6471 53.1168 17.2462 51.9438 18.7362C50.9183 20.0399 51.2023 21.5359 51.2929 23.0616Z" fill="#45459B"/>
<path d="M58.7154 22.1563C58.7883 22.1563 58.8629 22.1665 58.9256 22.2031C58.9934 22.2422 59.0417 22.3086 59.079 22.3783C59.1866 22.5766 59.2188 22.8149 59.168 23.0344C59.1214 23.2361 59.0095 23.4165 58.8993 23.5918C58.8383 23.6888 58.7781 23.7841 58.718 23.8803C58.6061 24.0581 58.4866 24.2436 58.3027 24.3432C58.1179 24.4419 57.8493 24.4172 57.7467 24.2334C57.7103 24.1688 57.6992 24.093 57.6899 24.019C57.6043 23.3357 57.8035 22.1554 58.7154 22.1563Z" fill="#45459B"/>
<path d="M50.9058 22.1563C50.8329 22.1563 50.7584 22.1665 50.6956 22.2031C50.6278 22.2422 50.5795 22.3086 50.5423 22.3783C50.4346 22.5766 50.4024 22.8149 50.4533 23.0344C50.4999 23.2361 50.6117 23.4165 50.7219 23.5918C50.7821 23.6888 50.8431 23.7841 50.9033 23.8803C51.0152 24.0581 51.1338 24.2436 51.3186 24.3432C51.5033 24.4419 51.772 24.4172 51.8745 24.2334C51.911 24.1688 51.922 24.093 51.9313 24.019C52.0169 23.3357 51.8178 22.1554 50.9058 22.1563Z" fill="#45459B"/>
<path d="M56.4088 21.4573C56.5453 21.4981 56.691 21.4853 56.8343 21.4913C57.0995 21.5041 57.3614 21.5875 57.5852 21.7321C57.7682 21.8513 58.0623 21.961 58.1149 21.6402C58.1471 21.4479 58.0055 21.3798 57.8708 21.2769C57.4953 20.9901 57.1038 20.825 56.6275 20.8046C56.5054 20.7986 56.3758 20.8037 56.2732 20.871C56.013 21.036 56.1622 21.3832 56.4088 21.4573Z" fill="#ED6636"/>
<path d="M53.6488 21.4573C53.5124 21.4981 53.3666 21.4853 53.2234 21.4913C52.9581 21.5041 52.6954 21.5875 52.4725 21.7321C52.2885 21.8513 51.9953 21.961 51.9419 21.6402C51.9106 21.4479 52.0521 21.3798 52.1868 21.2769C52.5623 20.9901 52.9539 20.825 53.4302 20.8046C53.5522 20.7986 53.6819 20.8037 53.7844 20.871C54.0438 21.036 53.8946 21.3832 53.6488 21.4573Z" fill="#ED6636"/>
<path d="M54.504 23.2823C54.4082 23.4201 54.2777 23.5393 54.2141 23.6916C54.1183 23.9205 54.2073 24.2039 54.4226 24.3485C54.6379 24.494 54.9625 24.4872 55.1684 24.3307C55.3913 24.1622 55.4498 23.8754 55.4778 23.6116C55.5134 23.2721 55.5201 22.9181 55.3718 22.6049C55.2735 22.399 54.9082 22.0995 54.715 22.3905C54.6506 22.4875 54.6921 22.6509 54.6828 22.7572C54.6675 22.9445 54.6141 23.1232 54.504 23.2823Z" fill="#F2663B"/>
<path d="M51.7875 97.8015C51.2315 98.9315 48.7983 98.7681 47.7516 99.5374C46.7643 100.136 45.9015 100.534 44.9591 100.913C43.9895 101.289 41.7427 101.026 41.3063 100.334C41.2563 100.44 41.2283 100.556 41.2266 100.691C41.2164 101.576 43.8751 101.954 44.9599 101.534C45.9023 101.155 46.7651 100.758 47.7525 100.159C48.7992 99.3902 51.2332 99.5527 51.7884 98.4226C51.924 98.1469 51.9324 97.8372 51.8824 97.5215C51.8629 97.6176 51.8324 97.7113 51.7875 97.8015Z" fill="#D6D6D6"/>
<path d="M59.1942 95.0773C58.4687 94.6076 58.628 91.8939 58.4687 91.0412C58.0238 88.6739 57.4686 86.3014 57.3678 83.8923C57.2881 81.9675 57.2669 80.0324 57.1669 78.0973C57.0873 76.5886 56.5898 73.7574 58.6806 73.5498C61.2528 73.2988 61.1155 76.8387 61.2053 78.5398C61.3325 80.9284 61.4859 83.3384 61.502 85.721C61.5181 88.0025 61.174 90.8872 61.4435 92.887L59.1942 95.0773Z" fill="#45459B"/>
<path d="M62.102 93.0731C62.1656 94.6568 62.875 95.803 63.8539 96.9867C64.6217 97.9142 66.2541 98.5405 67.4109 99.4C67.8304 99.7514 68.1118 99.9897 68.1169 100.427C68.1271 101.312 65.5701 101.69 64.4861 101.27C63.5437 100.891 62.6809 100.493 61.6935 99.8944C60.6468 99.126 58.2128 99.2885 57.6576 98.1585C57.2974 97.4275 57.8314 96.4523 57.9848 95.7698C58.2229 94.7308 58.1119 93.8883 58.0221 92.8272C58.0009 92.5711 57.8314 89.7348 57.8788 89.7348C59.2815 89.7025 60.6892 89.671 62.0978 89.6387C62.1563 89.6387 62.2198 89.6387 62.2622 89.6761C62.3148 89.7238 62.3148 89.8038 62.3097 89.8735C62.2885 90.1884 62.2571 90.5024 62.2249 90.8172C62.1495 91.5695 62.0749 92.3217 62.102 93.0731Z" fill="#EAEAEA"/>
<path d="M57.6269 97.8015C58.1829 98.9315 60.6161 98.7681 61.6628 99.5374C62.6501 100.136 63.5129 100.534 64.4553 100.913C65.4249 101.289 67.6717 101.026 68.1081 100.334C68.1581 100.44 68.1861 100.556 68.1878 100.691C68.198 101.576 65.5393 101.954 64.4545 101.534C63.5121 101.155 62.6493 100.758 61.6619 100.159C60.6152 99.3902 58.1812 99.5527 57.6261 98.4226C57.4905 98.1469 57.482 97.8372 57.532 97.5215C57.5523 97.6176 57.5828 97.7113 57.6269 97.8015Z" fill="#D6D6D6"/>
<path d="M63.2002 59.0249C63.1815 58.4352 63.1154 57.8599 63.0756 57.2728C63.0146 56.3444 62.6713 55.3368 62.2289 54.5233C61.4645 53.1201 60.0923 52.2734 58.5049 52.1458C51.9968 51.6241 54.8208 64.9526 55.514 68.3411C55.8708 70.089 55.4793 72.0411 55.4717 73.8119C55.4674 75.256 55.6098 76.6107 55.6293 78.0369C55.6649 80.9412 55.0106 83.8456 54.8708 86.7158C57.1362 87.3983 59.7135 86.8809 62.0382 87.052C62.7324 87.1047 63.6019 87.3532 64.2511 87.0877C64.0723 85.5875 63.6129 84.06 63.5197 82.4934C63.3731 80.0256 62.9603 77.7348 63.0358 75.262C63.118 72.5866 62.9366 69.9171 63.1019 67.2375C63.2705 64.9169 63.2341 62.5478 63.2078 60.2213C63.2163 59.8222 63.2137 59.4214 63.2002 59.0249Z" fill="#F89B35"/>
<path d="M45.9119 60.2113C45.8797 62.5378 45.8373 64.9069 46 67.2274C46.1585 69.9071 45.9712 72.5765 46.0458 75.252C46.1153 77.7257 45.6975 80.0156 45.5441 82.4825C45.4466 84.0483 44.9838 85.5757 44.8008 87.0751C45.45 87.3415 46.3195 87.0955 47.0136 87.0445C49.3384 86.8794 51.914 87.4036 54.1819 86.7271C54.0497 83.8568 53.4022 80.9508 53.4454 78.0465C53.4683 76.6203 53.6141 75.2656 53.6132 73.8215C53.6107 72.0507 53.2234 70.0969 53.5844 68.3499C54.2862 64.9631 57.1432 51.6414 50.6342 52.1468C49.0468 52.2702 47.673 53.1135 46.9043 54.515C46.4602 55.3277 46.1136 56.3352 46.0509 57.2628C46.011 57.8508 45.9051 59.8122 45.9119 60.2113Z" fill="#F89B35"/>
<path d="M53.3164 22.6446C53.3164 22.9952 53.1588 23.2785 52.9664 23.2785C52.7731 23.2785 52.6172 22.9943 52.6172 22.6446C52.6172 22.2931 52.7723 22.0098 52.9664 22.0098C53.1596 22.0098 53.3164 22.294 53.3164 22.6446Z" fill="black"/>
<path d="M56.5742 22.6446C56.5742 22.2931 56.7319 22.0098 56.9243 22.0098C57.1175 22.0098 57.2735 22.294 57.2735 22.6446C57.2735 22.9952 57.1184 23.2785 56.9243 23.2785C56.7319 23.2794 56.5742 22.9952 56.5742 22.6446Z" fill="black"/>
<path d="M54.0156 26.127C54.1902 26.4035 54.5114 26.5805 54.8369 26.5805C55.164 26.5805 55.4853 26.4044 55.659 26.127" stroke="black" stroke-width="0.663" stroke-miterlimit="10" stroke-linecap="round" stroke-linejoin="round"/>
<path d="M59.9183 19.8905C59.4954 18.5256 58.6903 17.2568 57.5207 16.4408C55.1544 14.7933 51.6245 15.7796 49.5439 17.4747C49.1261 17.8159 48.7345 18.2108 48.5328 18.712C48.1302 19.7093 48.6438 20.3109 49.5914 20.482C50.4279 20.6309 51.3542 20.2156 52.0525 19.7672C55.9528 17.7223 60.4107 21.4793 59.9183 19.8905Z" fill="#ED6636"/>
<defs>
<linearGradient id="paint0_linear" x1="85.4824" y1="91.4771" x2="97.7242" y2="88.467" gradientUnits="userSpaceOnUse">
<stop stop-color="#2E2D76"/>
<stop offset="0.0868" stop-color="#33337E"/>
<stop offset="0.3244" stop-color="#3D3E8E"/>
<stop offset="0.5946" stop-color="#434597"/>
<stop offset="0.9649" stop-color="#45479A"/>
</linearGradient>
<linearGradient id="paint1_linear" x1="8.74555" y1="97.5224" x2="21.7648" y2="84.1673" gradientUnits="userSpaceOnUse">
<stop stop-color="#09BCCA"/>
<stop offset="0.0149" stop-color="#0EBCC6"/>
<stop offset="0.118" stop-color="#2DBEB1"/>
<stop offset="0.231" stop-color="#47BF9F"/>
<stop offset="0.3558" stop-color="#5AC192"/>
<stop offset="0.4986" stop-color="#68C188"/>
<stop offset="0.6749" stop-color="#71C283"/>
<stop offset="0.9854" stop-color="#73C281"/>
</linearGradient>
<linearGradient id="paint2_linear" x1="14.8753" y1="90.1497" x2="42.1514" y2="90.1497" gradientUnits="userSpaceOnUse">
<stop stop-color="#F16738"/>
<stop offset="0.052" stop-color="#F27037"/>
<stop offset="0.1956" stop-color="#F58336"/>
<stop offset="0.3625" stop-color="#F79136"/>
<stop offset="0.5727" stop-color="#F89935"/>
<stop offset="0.9649" stop-color="#F89B35"/>
</linearGradient>
<linearGradient id="paint3_linear" x1="28.9282" y1="74.7862" x2="82.4644" y2="127.94" gradientUnits="userSpaceOnUse">
<stop stop-color="#71BE7D"/>
<stop offset="0.1951" stop-color="#76BF79"/>
<stop offset="0.4352" stop-color="#85C36C"/>
<stop offset="0.699" stop-color="#9ECA56"/>
<stop offset="0.978" stop-color="#C1D339"/>
<stop offset="1" stop-color="#C4D436"/>
</linearGradient>
</defs>
</svg>
