<svg width="213" height="169" viewBox="0 0 213 169" fill="none" xmlns="http://www.w3.org/2000/svg">
<g clip-path="url(#clip0)">
<path d="M130.366 168.875C175.901 168.875 212.815 132.022 212.815 86.561C212.815 41.1001 175.901 4.24686 130.366 4.24686C84.8312 4.24686 47.9177 41.1001 47.9177 86.561C47.9177 132.022 84.8312 168.875 130.366 168.875Z" fill="#9ECA66"/>
<path d="M32.2787 83.1885C32.2787 83.0635 32.2787 83.0636 32.2787 83.0636C31.7783 80.9401 30.4021 79.1914 33.0294 77.6925C34.9061 76.5684 37.7836 76.9431 39.7854 78.1922C41.7872 79.5661 43.1634 81.5647 44.5397 83.5632C48.7935 89.6837 53.5477 95.1796 56.9257 101.55C60.3037 108.045 62.9311 114.665 64.6826 121.535C65.9338 126.282 66.6844 131.278 65.4333 135.775C63.932 141.27 55.4244 150.639 48.293 142.769C46.7917 141.146 45.9159 139.147 45.0401 137.273C40.0357 125.532 37.033 113.416 34.9061 101.3C33.9052 95.1796 33.5299 89.184 32.2787 83.1885Z" fill="#45469C"/>
<path d="M29.4013 60.9549C29.7766 59.9557 31.0278 59.3311 31.7784 59.9557C32.0286 60.2055 32.2789 60.5802 32.404 60.83C35.782 67.9498 39.2851 74.9446 42.6631 82.0643C44.79 86.4361 40.0358 87.3104 36.2824 86.9357C33.9053 86.6859 31.5282 85.8116 29.2762 84.9372C22.8955 82.4391 16.3897 80.0658 10.009 77.5677C8.13233 76.8182 3.37809 76.0688 2.62742 73.9453C2.00187 71.9468 3.75343 71.8219 5.50499 71.9468C8.75789 72.1966 11.8857 73.3208 15.1386 73.8204C12.3861 72.8212 9.50856 71.8219 6.75611 70.6977C4.75432 69.9483 1.00097 69.1988 0.125192 66.9505C-1.25104 63.2033 4.25387 65.2018 5.88033 65.8263C9.50856 67.2003 14.2628 67.8249 17.2655 70.4479C13.7624 67.4501 9.63367 65.4516 5.75521 63.0784C4.62921 62.4538 1.75164 60.9549 1.37631 59.7059C0.500527 56.0835 7.50678 60.0806 8.25745 60.5802C12.6364 63.3282 17.7659 64.5773 21.8946 67.7C18.0161 64.8271 14.1377 61.9542 10.3843 59.0813C9.75879 58.7066 9.13323 58.207 8.75789 57.4575C8.38256 56.7081 8.50767 55.8337 9.13323 55.3341C9.8839 54.7096 11.0099 55.2092 11.8857 55.5839C18.5166 59.0813 23.8964 64.4524 30.6524 67.8249C31.0278 66.8256 30.6524 65.5765 30.152 64.5773C29.6515 63.578 29.1511 62.4538 29.2762 61.3297C29.2762 61.2048 29.2762 61.0798 29.4013 60.9549Z" fill="#45469C"/>
<path d="M28.6506 44.3422L31.4031 77.8174C31.6533 80.6903 30.0269 83.3134 27.9 83.813L11.6355 87.3104C9.50856 87.8101 7.50677 85.9364 7.25655 83.0636L4.62921 49.5883C4.37898 46.7155 6.00543 44.0924 8.13233 43.5928L24.2717 39.9704C26.3986 39.5957 28.4004 41.4693 28.6506 44.3422Z" fill="#FDB913"/>
<path d="M26.2736 48.0894L28.4005 73.9453C28.5256 76.1936 27.3996 78.1921 25.648 78.5669L13.1369 81.3148C11.5104 81.6895 10.0091 80.1907 9.75885 78.0672L7.75706 52.0865C7.50684 49.963 8.75795 47.8396 10.3844 47.4649L22.8956 44.7169C24.522 44.3422 26.0233 45.8411 26.2736 48.0894Z" fill="white"/>
<path d="M29.4013 60.9549C29.7766 59.9556 31.0277 59.3311 31.7784 59.9557C32.0286 60.2055 32.2788 60.5802 32.4039 60.83C35.7819 67.9497 39.2851 74.9446 42.6631 82.0643C44.79 86.4361 32.7793 74.4449 30.6524 69.0739C31.0277 68.0746 30.5273 65.4516 30.0268 64.4523C29.5264 63.4531 29.0259 62.3289 29.151 61.2047C29.2761 61.2047 29.2761 61.0798 29.4013 60.9549Z" fill="#45469C"/>
<path d="M12.261 62.3289C13.2974 62.3289 14.1376 61.4901 14.1376 60.4553C14.1376 59.4205 13.2974 58.5817 12.261 58.5817C11.2245 58.5817 10.3843 59.4205 10.3843 60.4553C10.3843 61.4901 11.2245 62.3289 12.261 62.3289Z" fill="#EAEAEA"/>
<path d="M17.3906 61.3296C18.427 61.3296 19.2673 60.4908 19.2673 59.456C19.2673 58.4213 18.427 57.5824 17.3906 57.5824C16.3541 57.5824 15.5139 58.4213 15.5139 59.456C15.5139 60.4908 16.3541 61.3296 17.3906 61.3296Z" fill="#EAEAEA"/>
<path d="M22.6452 60.2055C23.6817 60.2055 24.5219 59.3666 24.5219 58.3319C24.5219 57.2971 23.6817 56.4583 22.6452 56.4583C21.6088 56.4583 20.7686 57.2971 20.7686 58.3319C20.7686 59.3666 21.6088 60.2055 22.6452 60.2055Z" fill="#EAEAEA"/>
<path d="M12.7614 67.2003C13.7979 67.2003 14.6381 66.3615 14.6381 65.3267C14.6381 64.2919 13.7979 63.4531 12.7614 63.4531C11.725 63.4531 10.8848 64.2919 10.8848 65.3267C10.8848 66.3615 11.725 67.2003 12.7614 67.2003Z" fill="#EAEAEA"/>
<path d="M17.7661 66.0761C18.8025 66.0761 19.6427 65.2373 19.6427 64.2025C19.6427 63.1678 18.8025 62.3289 17.7661 62.3289C16.7296 62.3289 15.8894 63.1678 15.8894 64.2025C15.8894 65.2373 16.7296 66.0761 17.7661 66.0761Z" fill="#EAEAEA"/>
<path d="M23.0207 65.0769C24.0572 65.0769 24.8974 64.238 24.8974 63.2033C24.8974 62.1685 24.0572 61.3297 23.0207 61.3297C21.9843 61.3297 21.144 62.1685 21.144 63.2033C21.144 64.238 21.9843 65.0769 23.0207 65.0769Z" fill="#EAEAEA"/>
<path d="M12.8867 72.0717C13.9231 72.0717 14.7634 71.2328 14.7634 70.1981C14.7634 69.1633 13.9231 68.3245 12.8867 68.3245C11.8502 68.3245 11.01 69.1633 11.01 70.1981C11.01 71.2328 11.8502 72.0717 12.8867 72.0717Z" fill="#EAEAEA"/>
<path d="M18.0163 70.9475C19.0528 70.9475 19.893 70.1087 19.893 69.0739C19.893 68.0391 19.0528 67.2003 18.0163 67.2003C16.9799 67.2003 16.1396 68.0391 16.1396 69.0739C16.1396 70.1087 16.9799 70.9475 18.0163 70.9475Z" fill="#EAEAEA"/>
<path d="M23.271 69.9483C24.3074 69.9483 25.1476 69.1094 25.1476 68.0747C25.1476 67.0399 24.3074 66.201 23.271 66.201C22.2345 66.201 21.3943 67.0399 21.3943 68.0747C21.3943 69.1094 22.2345 69.9483 23.271 69.9483Z" fill="#EAEAEA"/>
<path d="M13.3869 76.8182C14.4234 76.8182 15.2636 75.9793 15.2636 74.9446C15.2636 73.9098 14.4234 73.071 13.3869 73.071C12.3505 73.071 11.5103 73.9098 11.5103 74.9446C11.5103 75.9793 12.3505 76.8182 13.3869 76.8182Z" fill="#EAEAEA"/>
<path d="M18.5166 75.8189C19.553 75.8189 20.3932 74.9801 20.3932 73.9453C20.3932 72.9106 19.553 72.0717 18.5166 72.0717C17.4801 72.0717 16.6399 72.9106 16.6399 73.9453C16.6399 74.9801 17.4801 75.8189 18.5166 75.8189Z" fill="#EAEAEA"/>
<path d="M23.6462 74.6948C24.6827 74.6948 25.5229 73.8559 25.5229 72.8212C25.5229 71.7864 24.6827 70.9475 23.6462 70.9475C22.6097 70.9475 21.7695 71.7864 21.7695 72.8212C21.7695 73.8559 22.6097 74.6948 23.6462 74.6948Z" fill="#EAEAEA"/>
<path d="M198.427 97.5528C195.174 92.8064 192.171 87.8101 188.543 83.1885C184.665 78.0673 180.536 73.071 176.407 68.1996C173.655 64.952 169.901 62.8285 165.523 63.3282C162.77 63.7029 159.893 65.4516 158.391 68.1996C156.389 72.3215 157.766 77.068 159.392 80.9401C165.523 95.0547 174.28 108.42 183.288 120.286C186.416 124.533 189.794 128.53 193.422 132.527C194.423 133.651 195.424 134.65 196.55 135.525C201.054 129.279 204.682 122.409 207.31 115.165C205.433 109.044 202.18 103.174 198.427 97.5528Z" fill="#45469C"/>
<path d="M81.6978 120.161C75.4422 128.905 72.6898 132.402 65.058 140.021C63.1813 141.77 61.3046 143.644 58.9275 144.643C56.5504 145.642 53.6728 145.767 51.5459 144.268C49.5441 142.894 48.5432 140.396 48.5432 138.023C48.4181 135.65 49.1688 133.276 50.0446 130.903C54.6737 117.288 58.6773 109.169 66.6844 97.303C69.9373 92.5565 72.94 87.5602 76.5682 82.9387C80.4467 77.8174 84.5754 72.8211 88.7041 67.9497C91.4565 64.7021 95.2099 62.5787 99.5888 63.0783C102.341 63.4531 105.219 65.2018 106.72 67.9497C108.722 72.0717 107.346 76.8182 105.719 80.6903C100.089 93.0562 92.8327 104.548 84.9507 115.54C83.8247 117.038 82.8238 118.537 81.6978 120.161Z" fill="#45469C"/>
<path d="M152.386 7.11968C154.763 9.36802 156.765 11.9911 158.016 14.9889C160.893 21.3591 160.893 28.7287 160.893 35.7235C160.518 65.0768 159.267 94.3052 157.891 123.658C144.254 124.283 130.742 124.408 117.104 124.033C115.478 124.033 113.601 123.908 112.225 123.034C109.473 121.41 108.722 117.913 108.347 114.79C105.594 93.5558 104.969 72.0716 106.345 50.8374C107.095 40.2202 108.221 29.6031 109.973 18.9859C110.849 13.8647 110.473 8.99329 115.228 6.37023C119.732 3.87208 124.486 2.12338 129.365 0.749392C137.372 -1.49895 146.255 1.37393 152.386 7.11968Z" fill="#F2663B"/>
<path d="M123.235 33.3503C123.36 42.2188 123.36 51.0872 123.485 59.9556C123.485 60.83 123.485 61.8293 123.86 62.5787C124.736 64.4523 128.865 63.9527 130.366 63.8278C133.244 63.7029 136.497 63.0783 137.873 60.0805C138.624 58.5817 138.624 56.708 138.624 55.0842C138.624 47.8396 138.749 40.595 138.749 33.4752C133.619 33.2254 128.49 33.1005 123.235 33.3503Z" fill="#45469C"/>
<path d="M132.994 46.8403C128.239 48.8389 122.109 47.8396 118.856 43.9675C116.479 41.0946 115.728 37.2224 115.478 33.4752C114.727 24.357 114.102 10.8669 123.11 5.49591C126.988 3.24757 131.743 2.74794 136.121 3.37248C147.131 5.12119 146.881 16.3629 144.879 24.8566C142.752 33.4752 142.627 42.9682 132.994 46.8403Z" fill="#45469C"/>
<path d="M146.13 22.4834C147.507 21.9837 149.133 22.1086 150.259 23.1079C151.76 24.357 152.136 26.7302 151.26 28.4789C150.509 30.2276 148.758 31.4767 147.006 32.2262C145.755 32.7258 144.129 32.9756 143.003 32.1012C142.002 31.3518 141.626 30.1027 141.751 28.8536C142.002 26.3555 143.753 23.3577 146.13 22.4834Z" fill="#45469C"/>
<path d="M115.603 20.3599C115.228 20.4848 114.852 20.4848 114.477 20.3599C114.102 20.235 113.726 19.9852 113.601 19.7354C113.351 19.1109 113.851 18.4863 114.352 17.9867C115.603 16.8625 117.229 16.3629 118.981 16.3629C120.357 16.3629 121.608 17.612 120.232 18.6112C118.856 19.4856 117.104 20.1101 115.603 20.3599Z" fill="#F2663B"/>
<path d="M136.747 21.8588C137.122 21.9837 137.498 21.9837 137.873 21.8588C138.248 21.7339 138.624 21.4841 138.749 21.2343C138.999 20.6098 138.498 19.9852 137.998 19.4856C136.747 18.3614 135.12 17.8618 133.369 17.8618C131.993 17.8618 130.742 19.1109 132.118 20.1101C133.494 20.9845 135.371 21.609 136.747 21.8588Z" fill="#F2663B"/>
<path d="M131.368 25.731C131.368 26.7302 130.867 27.4797 130.367 27.4797C129.866 27.4797 129.365 26.7302 129.365 25.731C129.365 24.7317 129.866 23.9823 130.367 23.9823C130.867 23.9823 131.368 24.7317 131.368 25.731Z" fill="#010101"/>
<path d="M117.981 24.8566C117.981 25.8559 117.481 26.6053 116.98 26.6053C116.479 26.6053 115.979 25.8559 115.979 24.8566C115.979 23.8574 116.479 23.1079 116.98 23.1079C117.481 23.1079 117.981 23.8574 117.981 24.8566Z" fill="#010101"/>
<path d="M116.604 28.4789C119.23 28.4789 121.358 26.9131 121.358 24.9815C121.358 23.0499 119.23 21.4841 116.604 21.4841C113.978 21.4841 111.85 23.0499 111.85 24.9815C111.85 26.9131 113.978 28.4789 116.604 28.4789Z" stroke="#FFCF34" stroke-width="0.442" stroke-miterlimit="10" stroke-linecap="round" stroke-linejoin="round"/>
<path d="M120.357 32.2262C120.608 32.8507 121.358 33.2254 122.109 33.1005C123.11 32.8507 123.61 31.9764 123.986 31.102C124.486 29.9778 126.363 23.4826 123.735 23.7325C121.734 23.9823 121.108 28.6038 120.608 30.1027C120.357 30.7273 120.232 31.3518 120.357 31.9764C120.357 32.1013 120.357 32.2262 120.357 32.2262Z" fill="#EE6737"/>
<path d="M130.617 29.1035C133.242 29.1035 135.371 27.5376 135.371 25.6061C135.371 23.6745 133.242 22.1086 130.617 22.1086C127.991 22.1086 125.862 23.6745 125.862 25.6061C125.862 27.5376 127.991 29.1035 130.617 29.1035Z" stroke="#FFCF34" stroke-width="0.442" stroke-miterlimit="10" stroke-linecap="round" stroke-linejoin="round"/>
<path d="M121.483 24.7317C121.859 23.9822 122.86 23.3577 123.735 23.4826C124.611 23.4826 125.487 24.1071 125.862 24.8566" stroke="#FFCF34" stroke-width="0.442" stroke-miterlimit="10" stroke-linecap="round" stroke-linejoin="round"/>
<path d="M176.157 89.5588C176.032 82.9386 175.782 76.3185 175.532 69.6984C175.281 64.7021 172.654 63.4531 167.149 61.7044C161.019 59.7058 154.763 57.2077 148.257 55.7088C147.757 55.5839 147.256 55.459 146.756 55.3341C145.255 54.9593 143.628 54.7095 142.127 54.4597C141.001 54.3348 139.875 54.2099 138.624 54.085C131.117 53.5854 123.61 54.085 116.354 55.459C115.228 55.7088 114.102 55.8337 112.976 56.0835C112.851 56.0835 112.726 56.0835 112.6 56.2084C104.844 58.082 97.3369 60.9549 90.8311 65.0769C85.7015 68.3245 85.7015 80.0658 84.9508 85.4368C83.1993 97.0532 81.9481 108.67 80.5719 120.286C79.8212 126.282 79.3208 132.277 79.3208 138.273C79.3208 139.897 80.5719 146.642 80.5719 146.642C80.5719 146.642 148.508 147.016 176.783 147.891C176.783 132.527 176.658 126.656 176.407 111.293C176.282 104.048 176.282 96.8034 176.157 89.5588Z" fill="#45469C"/>
<path d="M194.424 90.0584C192.797 87.5602 191.046 85.187 189.169 82.8137C185.29 77.6925 181.162 72.5713 177.033 67.6999C175.782 66.201 174.281 64.9519 172.779 64.0776C171.403 63.0783 169.526 62.3289 167.149 61.5794C165.273 60.9549 163.271 60.2055 161.269 59.5809C156.139 68.5743 146.506 75.1944 135.996 75.8189C123.735 76.5684 111.475 69.0739 106.345 57.9571C101.716 59.456 97.2118 61.4545 93.0831 63.8278C92.3325 64.2025 91.7069 64.5772 91.0814 64.9519C90.9562 64.9519 90.9562 65.0769 90.8311 65.0769C90.4558 65.3267 90.0805 65.7014 89.7051 66.0761C89.0796 66.5757 88.5791 67.2003 88.0787 67.8248C83.95 72.6962 79.8213 77.6925 75.9429 82.8137C73.816 85.5617 71.8142 88.5595 69.9375 91.4323C74.4415 94.8049 78.8204 98.5521 82.6989 102.674C81.9482 108.67 81.3227 114.54 80.572 120.411C79.8213 126.406 79.3209 132.402 79.3209 138.398C79.3209 140.021 78.4451 151.388 79.6962 151.513C89.8302 160.756 132.994 184.239 177.033 154.636C177.033 148.515 176.658 126.656 176.533 111.293C176.533 109.294 176.533 107.296 176.407 105.297C181.537 99.3015 187.667 94.1803 194.424 90.0584Z" fill="#F99D33"/>
<path d="M127.864 15.4885C127.364 13.8647 126.988 12.3658 126.613 10.742C132.243 15.8632 139.624 19.2358 147.131 19.9852C150.009 15.3636 148.132 8.86842 143.878 5.49592C139.624 2.12341 133.744 1.37396 128.49 2.24832C126.112 2.62304 117.98 4.12193 118.481 7.49444C118.856 10.8669 125.237 14.2394 127.864 15.4885Z" fill="#F2663B"/>
<path d="M141.376 26.4804C141.376 26.9801 141.501 27.6046 141.877 27.8544C142.252 28.2291 142.877 28.1042 143.253 27.9793C143.628 27.7295 144.003 27.3548 144.254 26.9801C145.38 25.2314 145.755 23.1079 146.005 21.1094C146.13 19.9852 146.255 18.986 146.13 17.8618C146.005 16.7376 145.63 15.7384 144.879 14.9889C144.129 14.2395 142.877 13.9897 141.877 14.3644C139.124 15.6135 141.126 24.1072 141.376 26.4804Z" fill="#F2663B"/>
<path d="M119.857 36.5979C120.357 37.3473 121.233 37.847 122.234 37.847C123.11 37.847 124.111 37.3473 124.611 36.5979" stroke="#010101" stroke-width="0.663" stroke-miterlimit="10" stroke-linecap="round" stroke-linejoin="round"/>
<path d="M135.996 75.8189C146.38 75.1944 156.139 68.6992 161.269 59.7058C157.015 58.2069 152.636 56.708 148.257 55.7088C147.757 55.5839 147.256 55.459 146.756 55.3341C145.254 54.9593 143.628 54.7095 142.127 54.4597C141.001 54.3348 139.875 54.2099 138.624 54.085C131.117 53.5854 123.61 54.085 116.354 55.459C115.228 55.7088 114.102 55.8337 112.976 56.0835C112.851 56.0835 112.725 56.0835 112.6 56.2084C110.473 56.7081 108.347 57.3326 106.345 57.9571C111.599 69.0739 123.735 76.5684 135.996 75.8189Z" fill="#45469C"/>
<path d="M116.729 96.5536C116.729 99.3016 114.477 101.55 111.724 101.55C108.972 101.55 106.72 99.3016 106.72 96.5536C106.72 93.8056 108.972 91.5573 111.724 91.5573C114.477 91.5573 116.729 93.6807 116.729 96.5536Z" fill="#F2663B"/>
<path d="M131.117 96.5536C131.117 99.3016 128.865 101.55 126.112 101.55C123.36 101.55 121.108 99.3016 121.108 96.5536C121.108 93.8056 123.36 91.5573 126.112 91.5573C128.865 91.4324 131.117 93.6807 131.117 96.5536Z" fill="#F2663B"/>
<path d="M145.505 96.5536C145.505 99.3016 143.253 101.55 140.5 101.55C137.748 101.55 135.496 99.3016 135.496 96.5536C135.496 93.8056 137.748 91.5573 140.5 91.5573C143.253 91.4324 145.505 93.6807 145.505 96.5536Z" fill="#F2663B"/>
<path d="M151.885 106.921C151.635 105.797 151.01 104.798 150.009 104.173C149.258 103.673 148.382 103.424 147.632 103.424C147.381 103.424 147.006 103.424 146.756 103.548C145.63 103.798 144.629 104.423 144.003 105.422L140.5 110.668L136.997 105.422C136.372 104.548 135.496 103.923 134.495 103.673C134.37 103.673 134.245 103.548 134.245 103.548C134.12 103.548 134.12 103.548 133.994 103.548C133.869 103.548 133.619 103.548 133.494 103.548C133.369 103.548 133.369 103.548 133.244 103.548C132.994 103.548 132.868 103.548 132.618 103.673C132.493 103.673 132.493 103.673 132.368 103.673C132.243 103.673 132.118 103.673 132.118 103.798C132.118 103.798 132.118 103.798 131.993 103.798C130.992 104.048 130.116 104.673 129.49 105.547L126.112 110.793L122.609 105.297C121.984 104.298 120.983 103.673 119.857 103.424C119.732 103.424 119.732 103.424 119.607 103.424C119.481 103.424 119.231 103.424 119.106 103.424H118.981H118.856C118.606 103.424 118.481 103.424 118.23 103.424C118.105 103.424 118.105 103.424 117.98 103.424C117.855 103.424 117.73 103.548 117.73 103.548C116.729 103.798 115.853 104.423 115.228 105.297L111.725 110.543L108.221 105.297C107.596 104.298 106.595 103.673 105.344 103.424C105.094 103.424 104.718 103.299 104.468 103.299C103.592 103.299 102.717 103.548 102.091 104.048C100.089 105.422 99.4636 108.17 100.84 110.169L107.971 120.911C108.597 121.91 109.598 122.534 110.849 122.784C110.849 122.784 110.849 122.784 110.974 122.784H111.099C111.349 122.784 111.599 122.909 111.725 122.909C111.975 122.909 112.1 122.909 112.35 122.909C112.475 122.909 112.475 122.909 112.6 122.909C112.6 122.909 112.6 122.909 112.725 122.909C113.851 122.659 114.852 122.035 115.603 121.035L119.106 115.789L122.609 121.035C123.11 121.785 123.86 122.409 124.611 122.659C124.736 122.659 124.736 122.659 124.861 122.784C124.986 122.784 125.237 122.909 125.362 122.909C125.487 122.909 125.612 122.909 125.737 122.909C125.862 122.909 125.987 122.909 126.238 122.909C126.363 122.909 126.363 122.909 126.488 122.909C126.738 122.909 126.863 122.909 127.113 122.784C127.238 122.784 127.364 122.659 127.489 122.659C127.614 122.659 127.739 122.534 127.864 122.534C128.74 122.16 129.365 121.66 129.866 120.911L133.369 115.664L136.872 120.911C137.498 121.91 138.498 122.534 139.75 122.784C139.75 122.784 139.75 122.784 139.875 122.784H140C140.25 122.784 140.5 122.909 140.625 122.784C140.876 122.784 141.126 122.784 141.376 122.659C141.376 122.659 141.376 122.659 141.501 122.659C141.501 122.659 141.501 122.659 141.626 122.659C142.752 122.409 143.753 121.785 144.379 120.786L151.51 110.044C151.885 109.294 152.136 108.045 151.885 106.921Z" fill="#F2663B"/>
</g>
<defs>
<clipPath id="clip0">
<rect width="212.815" height="169" fill="white"/>
</clipPath>
</defs>
</svg>
