<svg width="159" height="109" viewBox="0 0 159 109" fill="none" xmlns="http://www.w3.org/2000/svg">
<path d="M16.7296 66.3568L13.4629 81.0424" stroke="black" stroke-width="0.628" stroke-miterlimit="10" stroke-linecap="round" stroke-linejoin="round"/>
<path d="M15.0958 81.3742L12.1602 80.7773" stroke="black" stroke-width="0.628" stroke-miterlimit="10" stroke-linecap="round" stroke-linejoin="round"/>
<path d="M11.4113 65.1414L8.83984 79.9707" stroke="black" stroke-width="0.628" stroke-miterlimit="10" stroke-linecap="round" stroke-linejoin="round"/>
<path d="M12.9453 65.3405L10.1973 64.8652" stroke="black" stroke-width="0.628" stroke-miterlimit="10" stroke-linecap="round" stroke-linejoin="round"/>
<path d="M10.4494 80.1144L7.32617 79.7717" stroke="black" stroke-width="0.628" stroke-miterlimit="10" stroke-linecap="round" stroke-linejoin="round"/>
<path d="M35.7886 72.6444C35.7335 72.6223 35.6782 72.6002 35.6231 72.5671C34.5305 72.114 33.2503 72.3903 32.1467 71.9261C32.0694 71.893 31.9812 71.8599 31.8929 71.8709C31.8377 71.882 31.7825 71.9262 31.7384 71.9704C31.4514 72.2798 31.5397 72.7991 31.8046 73.1085C32.0805 73.429 32.4888 73.5837 32.8751 73.7163C33.3496 73.882 33.8242 74.0257 34.3208 74.0699C34.6078 74.092 34.9057 74.0809 35.1927 74.1141C35.8659 74.1693 36.517 74.4124 37.1461 74.6555C37.135 74.3793 36.6715 73.4842 36.5391 73.3185C36.2853 72.987 36.1418 72.8212 35.7886 72.6444Z" fill="#F89C33"/>
<path d="M117.942 15.6147C119.101 19.416 119.267 23.5156 120.834 27.1732C124.73 36.2453 135.987 40.1349 140.533 48.8977C141.438 50.6436 142.056 52.5774 142.045 54.5553C142.023 57.13 140.953 59.6715 141.394 62.202C142.012 65.7491 145.389 68.1359 146.868 71.4288C148.336 74.6886 147.696 78.7882 145.301 81.4402C143.149 83.816 139.96 84.91 136.881 85.7829C128.129 88.2582 119.123 89.7057 110.074 90.5566C105.041 91.0317 99.6887 91.2748 95.2191 88.888C91.9524 87.1421 89.6017 84.1807 87.8469 80.9761C86.644 78.7882 86.4012 76.0146 84.812 74.0256C82.7593 71.451 79.1946 74.6665 76.7556 75.7052C72.7826 77.3959 68.2136 77.5948 64.1082 76.2688C61.7795 75.5174 59.484 74.1582 58.4135 71.9482C57.63 70.3128 57.6079 68.4343 57.652 66.6221C57.7183 64.3678 57.9059 62.0252 59.0205 60.0693C60.2014 57.9919 62.3203 56.5775 63.4791 54.489C67.4632 47.2954 58.557 39.715 63.5674 32.433C64.3951 31.2285 65.5429 30.2782 66.6575 29.3169C69.9684 26.477 73.1468 23.3719 75.4975 19.6701C77.7819 16.0567 77.8482 12.2445 79.4705 8.46532C80.4306 6.21109 82.6268 4.74143 84.812 3.63642C91.1026 0.453983 98.6072 -1.51293 105.284 1.48165C111.155 4.11157 116.066 9.42668 117.942 15.6147Z" fill="#45459B"/>
<path d="M60.9954 91.1754C55.8857 90.2693 50.776 89.3632 45.6662 88.4461C44.6288 88.2582 43.5583 88.0704 42.6754 87.4958C41.7925 86.9322 41.1193 85.8824 41.307 84.8548C41.4946 83.8161 42.4768 83.0757 43.5031 82.8216C44.5295 82.5674 45.6 82.6889 46.6484 82.7331C50.0476 82.8879 53.4357 82.3022 56.8017 81.7165C58.115 81.4845 59.4283 81.2524 60.6423 80.722C61.6466 80.28 62.5846 79.6281 63.6662 79.4623C64.3835 79.3518 65.123 79.4623 65.8293 79.6833C68.0365 80.3684 69.8795 82.1365 70.6521 84.3133C71.3473 86.2692 71.3804 89.8384 69.405 91.1312C67.2529 92.5457 63.302 91.5843 60.9954 91.1754Z" fill="#F89C33"/>
<path d="M68.4015 43.6489C67.4965 45.229 67.033 47.0192 66.6468 48.8093C64.5058 58.5444 64.1526 68.5779 63.7994 78.5341C63.7332 80.4568 63.667 82.4016 64.0091 84.2912C64.3181 86.0261 64.9803 87.6946 65.9294 89.1864C66.6688 90.3356 67.9049 91.4848 69.2182 91.1202C70.1011 90.8771 70.6639 90.0151 71.0833 89.1974C72.6835 86.1145 73.5333 82.711 74.2617 79.3297C75.8288 72.0808 76.9214 64.7325 77.5174 57.351C77.8264 53.5277 79.2059 37.7481 76.3034 37.9691C73.2795 38.1901 69.8362 41.1626 68.4015 43.6489Z" fill="#F89C33"/>
<path d="M77.3084 37.516C75.366 37.9249 73.236 38.1569 71.7793 39.6377C70.8853 40.5327 70.3887 41.8145 70.4329 43.0853C70.488 44.4666 71.1392 45.7373 71.6468 47.0302C73.6885 52.3011 72.4746 56.6769 71.1392 61.8815C70.466 64.4783 69.8038 67.1082 69.8038 69.7934C69.8148 73.4731 71.095 77.0202 71.5696 80.6557C72.629 88.8991 69.5279 97.0209 67.4421 105.065C67.3427 105.43 67.2545 105.85 67.4421 106.181C67.6186 106.491 67.9718 106.623 68.3029 106.745C82.7382 111.85 98.2991 113.718 113.529 112.193C111.609 95.949 114.909 79.5286 119.4 63.7932C117.723 61.2296 116.52 58.445 116.089 55.4172C115.946 54.3675 115.88 53.2956 116.134 52.268C116.531 50.732 117.634 49.3839 117.701 47.8037C114.566 44.4003 111.509 41.6488 107.216 39.9471C105.053 39.0852 102.923 38.1349 100.705 37.4497C98.277 36.7094 95.9595 36.7315 93.4984 36.3668C90.9711 35.9911 88.5873 35.748 86.0049 35.9359C83.1686 36.1348 80.4978 36.7867 77.7388 37.4276C77.5953 37.4497 77.4519 37.4829 77.3084 37.516Z" fill="#F89C33"/>
<path d="M64.1086 104.325C61.3937 103.994 58.6788 103.662 55.986 103.165C45.9542 101.297 36.0878 97.0541 25.9456 98.2254C23.308 98.5238 20.3282 99.5293 19.4233 102.027C18.9046 103.463 19.2356 105.099 19.9861 106.436C20.7366 107.762 21.8733 108.834 23.0321 109.817C31.563 117.077 42.2902 121.11 52.7855 125C61.6807 128.304 71.1938 131.663 80.4642 129.663C81.314 129.475 82.1968 129.232 82.87 128.68C83.466 128.193 83.8523 127.508 84.1502 126.801C85.8608 122.757 84.7904 117.961 82.4176 114.27C80.3318 111.044 77.341 108.436 74.2729 106.181C71.5249 104.159 67.4194 104.734 64.1086 104.325Z" fill="#36337D"/>
<path d="M142.144 62.412C141.405 60.7765 140.213 59.8704 138.966 58.6881C137.575 57.3621 128.868 52.0359 127.698 51.4171C125.921 50.4778 124.122 49.5275 122.158 49.1297C118.924 48.4888 115.271 49.6159 113.362 52.3011C112.854 53.0194 112.468 53.8371 112.247 54.6879C112.082 55.3178 112.004 55.9697 112.071 56.6107C112.214 57.8925 112.987 59.0417 113.958 59.8925C114.929 60.7323 116.11 61.307 117.291 61.8153C121.683 63.6827 126.373 64.7546 131.031 65.8044C133.459 66.3569 135.887 66.9094 138.314 67.4619C139.076 67.6387 139.871 67.8044 140.632 67.6497C142.883 67.2077 142.883 64.0584 142.144 62.412Z" fill="#F89C33"/>
<path d="M71.7681 70.0808C71.0618 69.5835 70.0575 69.3073 68.6118 69.0973C68.071 69.02 60.6878 68.0033 61.0961 67.2298C63.502 62.6993 63.6345 57.3621 64.4401 52.2901C65.2457 47.2181 67.144 41.7814 71.6246 39.2841C80.7515 45.5053 91.291 47.5275 101.864 44.4003C103.751 43.8478 105.208 42.4997 107.007 41.7925C111.896 39.8698 118.153 44.6545 122.667 46.2125C124.433 46.8203 126.022 47.8369 127.6 48.8425C128.979 49.7265 131.716 52.3895 133.427 52.0028C132.224 53.0305 130.878 53.8813 129.421 54.5222C126.717 55.7156 123.506 56.2571 121.64 58.5555C119.853 60.7545 119.301 65.0419 118.914 67.7934C118.55 70.346 118.319 72.9317 117.789 75.4511C116.873 79.8049 117.336 85.0316 117.987 89.3853C119.069 96.5568 121.795 103.386 123.185 110.513C124.576 117.64 124.444 125.541 120.283 131.486C116.431 137 109.39 138.779 103.254 136.028C106.83 132.68 106.863 126.635 104.203 122.525C101.555 118.403 96.8312 116.016 92.0636 114.922C87.2849 113.839 82.3407 113.883 77.4627 113.552C74.2843 113.342 70.7528 112.778 68.7773 110.27C67.453 108.579 66.9343 106.126 65.0361 105.121C63.182 104.137 60.9306 105.032 58.8337 105.054C55.5229 105.076 52.6976 103.552 49.7841 102.203C47.0582 100.944 44.0122 100.413 41.1097 99.6619C40.7234 99.5625 40.293 99.4409 40.0723 99.1094C40.1826 99.2752 45.3917 97.3856 46.1201 97.3635C47.7314 97.3083 49.4199 97.7061 51.0201 97.4188C52.19 97.2088 53.2163 96.6452 54.3972 96.3911C56.1409 96.0154 57.9287 95.8165 59.6614 95.3855C68.689 93.0871 75.112 83.2746 73.6001 74.0699C73.2249 71.9924 72.7944 70.799 71.7681 70.0808Z" fill="#9A4197"/>
<path d="M39.4311 87.6505C37.7425 87.5621 36.0651 87.4184 34.3324 87.2969C33.7585 87.2527 33.1625 87.2416 32.6438 86.9875C32.2686 86.7996 31.9596 86.4902 31.6837 86.1808C30.2269 84.5012 29.3992 82.2691 29.4103 80.0369C29.4103 79.7607 29.4323 79.4734 29.5979 79.2524C29.7965 78.9872 30.1497 78.8988 30.4807 78.8325C33.4495 78.2137 36.8596 79.1308 39.4642 80.5563C40.8327 81.2967 42.1128 82.2801 43.0068 83.573C43.9228 84.899 45.214 86.5123 45.6223 88.0814C43.5586 87.9488 41.4948 87.761 39.4311 87.6505Z" fill="#F89C33"/>
<path d="M137.807 63.9812C144.815 65.705 150.951 70.346 154.88 76.3573C159.46 83.3741 159.691 90.6782 158.345 98.778C157.583 103.386 156.579 107.961 155.321 112.447C152.463 122.657 145.764 128.149 135.953 130.879C133.988 131.42 131.947 131.608 129.916 131.586C127.168 131.553 124.431 131.155 121.793 130.403C121.33 130.271 120.767 129.995 120.811 129.508C120.833 129.21 121.098 128.989 121.341 128.801C129.618 122.414 135.302 112.999 138.138 102.933C140.974 92.8662 141.107 82.1586 139.595 71.8157C139.197 69.0642 138.656 66.2575 137.299 63.8375" fill="#FFCA05"/>
<path d="M124.587 131.055C120.845 131.276 117.347 130.68 113.793 128.657C110.527 126.801 107.701 124.259 104.909 121.729C103.011 120.005 101.102 118.292 99.2035 116.569C98.5523 115.972 97.8901 115.375 97.1176 114.955C96.5106 114.624 95.8595 114.414 95.2084 114.204C93.6854 113.707 92.1624 113.22 90.6394 112.723C89.2599 112.27 87.8583 111.828 86.4126 111.773C83.6204 111.673 80.9938 111.861 78.2458 111.309C70.3219 109.706 68.1588 99.5735 69.3396 92.8992C71.1827 82.5232 74.6701 62.202 89.0943 63.97C93.3764 64.5005 97.1507 67.1635 101.411 67.8818C110.218 69.3736 119.113 63.9037 127.787 62.9866C132.411 62.5004 137.289 63.0971 141.262 65.5281C149.694 70.7106 152.133 80.932 151.195 90.1809C150.345 98.4243 148.634 106.59 146.074 114.469C144.308 119.917 139.662 126.403 134.409 128.934C132.488 129.862 130.37 130.238 128.273 130.602C127.003 130.823 125.778 130.978 124.587 131.055Z" fill="#FFE400"/>
<path d="M116.918 81.153L111.488 107.154L115.505 107.806L119.203 100.303L121.057 90.2693L120.174 81.6944L116.918 81.153Z" fill="#45459B"/>
<path d="M91.1131 81.2303C96.2339 80.1916 100.726 84.0481 101.046 89.1422C101.101 90.0704 100.968 90.9987 100.726 91.8937C99.7655 95.4518 96.7526 98.6564 93.0665 98.8C91.7091 98.8553 90.3627 98.5017 89.0825 98.0597C87.8906 97.6508 86.6876 97.1315 85.8709 96.1812C85.1867 95.3856 84.8446 94.3579 84.6018 93.3413C83.454 88.3908 85.2971 82.6779 90.7048 81.3188C90.8483 81.2856 90.9807 81.2635 91.1131 81.2303Z" fill="#302C71"/>
<path d="M19.7769 71.252L87.583 83.8713L85.7289 93.1202L18.2539 77.6722L19.7769 71.252Z" fill="#45459B"/>
<path d="M6.00195 69.1857L116.551 92.4352" stroke="black" stroke-width="0.628" stroke-miterlimit="10" stroke-linecap="round" stroke-linejoin="round"/>
<path d="M5.13281 72.8323L115.34 97.9823" stroke="black" stroke-width="0.628" stroke-miterlimit="10" stroke-linecap="round" stroke-linejoin="round"/>
<path d="M5.48242 70.7438L116.197 95.0319" stroke="black" stroke-width="0.628" stroke-miterlimit="10" stroke-linecap="round" stroke-linejoin="round"/>
<path d="M134.728 73.2411C129.265 77.3407 123.615 81.2193 117.545 84.3465C114.841 85.7388 112.06 86.9874 109.279 88.2251C108.098 88.7555 106.906 89.2859 105.725 89.8163C104.577 90.3356 103.374 90.855 102.116 90.8439C100.858 90.8218 99.5118 90.1036 99.1918 88.877C98.9711 88.0262 99.2911 87.098 99.8208 86.4018C100.351 85.6946 101.079 85.1752 101.785 84.6448C104.611 82.5343 107.336 80.2911 110.051 78.0369C110.769 77.4401 111.486 76.8434 112.214 76.2467C113.23 75.4069 114.245 74.5561 115.194 73.6389C116.596 72.2908 117.843 70.7769 119.211 69.3957C120.381 68.2133 121.628 67.1193 122.875 66.0254C123.824 65.1966 124.763 64.3679 125.712 63.5391C126.738 62.633 127.786 61.7269 128.978 61.0528C131.241 59.7821 134.011 59.4506 136.505 60.1578C138.536 60.7324 142.785 63.3402 142.31 66.0033C142.089 67.274 139.915 68.9647 139.01 69.7935C137.642 71.0311 136.185 72.1471 134.728 73.2411Z" fill="#F89C33"/>
<path d="M99.5908 93.6175C97.7147 94.4794 95.3309 94.7999 94.3266 96.6121C93.9293 97.3414 93.841 98.1922 93.5761 98.9879C93.2781 99.905 92.1193 100.955 92.0642 99.3415C92.009 97.5845 93.1236 95.2971 93.5872 93.5954C92.627 94.9104 91.5676 96.1701 90.4198 97.3303C90.1991 97.5624 89.9563 97.7944 89.6583 97.916C89.3603 98.0375 88.9961 98.0486 88.7423 97.8387C88.9851 97.0099 89.3162 96.2032 89.7355 95.4408C90.5632 93.9379 91.3689 92.413 92.4394 91.0649C91.8103 91.8495 90.5633 92.4462 89.7576 93.054C88.5767 93.949 87.5062 94.9325 86.2702 95.7502C86.1267 95.8386 85.9722 95.938 85.8067 95.9159C85.5859 95.8828 85.4425 95.6286 85.4535 95.3966C85.4646 95.1645 85.597 94.9656 85.7184 94.7778C86.502 93.6175 87.4731 92.6009 88.4333 91.5843C89.283 90.6892 90.1439 89.7942 90.9937 88.8881C90.3425 88.8549 89.7576 89.2638 89.2058 89.6174C88.4112 90.1257 87.4952 90.5235 86.6234 90.8771C85.9502 91.1533 83.8643 91.9489 84.8355 90.413C85.1666 89.8936 85.5528 89.4737 86.0274 89.0869C86.9544 88.3245 88.047 87.8052 89.0734 87.2195C90.8943 86.1918 92.8257 85.3631 94.8232 84.7664C93.7417 84.5564 92.7043 84.1475 91.7662 83.5619C91.6227 83.4735 91.4682 83.352 91.4682 83.1752C91.4682 83.0536 91.5455 82.9541 91.6337 82.8768C92.2628 82.2911 93.2671 82.4127 94.1059 82.6116C96.0593 83.0757 97.9575 83.7497 99.7674 84.6006C101.621 85.4736 103.751 87.0537 103.707 89.3632C103.685 91.3522 101.18 92.8992 99.5908 93.6175Z" fill="#F89C33"/>
<path d="M58.4125 115.165C50.323 108.646 41.2844 103.308 31.6719 99.3635C28.2507 97.9602 24.1563 96.7778 21.0221 98.7447C18.1085 100.579 17.2367 104.668 18.263 107.961C19.2894 111.253 21.8056 113.872 24.4764 116.038C27.3568 118.381 30.5242 120.37 33.8902 121.95C37.6756 123.729 41.6817 124.989 45.6768 126.237C51.4377 128.039 57.1875 129.84 62.9484 131.652C65.4646 132.437 74.7681 136.216 76.5891 132.779C76.7436 132.492 76.7877 132.16 76.7877 131.829C76.8098 128.149 72.0091 126.326 69.5811 124.458C65.7516 121.497 62.1869 118.204 58.4125 115.165Z" fill="#36337D"/>
<path d="M85.4943 34.2895C85.8916 33.6265 86.4655 33.074 87.0946 32.6873C89.357 31.2729 92.414 30.9082 94.9192 30.19C96.398 29.759 97.8879 29.3391 99.3668 28.9081C98.6715 33.7591 98.539 38.8201 98.1197 43.7153C98.0755 44.1904 94.8861 44.4998 94.4888 44.533C93.0872 44.6324 91.6525 44.5109 90.284 44.1352C88.0988 43.5385 86.5538 41.3948 85.6488 39.1847C85.1633 37.9913 84.7659 36.6653 85.0418 35.4056C85.1301 34.9968 85.2846 34.6321 85.4943 34.2895Z" fill="#F89C33"/>
<path d="M85.4969 34.2895C85.8942 33.6265 86.4681 33.074 87.0972 32.6873C89.3596 31.2729 92.4166 30.9082 94.9218 30.19C96.4007 29.759 97.8905 29.3391 99.3694 28.9081C98.9611 31.7812 99.3252 34.4774 98.1223 37.1073C97.0297 39.4831 95.3191 41.4942 93.2002 42.7871C92.218 43.3838 91.1144 43.8479 89.9997 43.6932C87.947 43.428 86.5123 41.2732 85.6625 39.1737C85.1769 37.9803 84.7796 36.6543 85.0555 35.3946C85.1328 34.9967 85.2873 34.6321 85.4969 34.2895Z" fill="#F58832"/>
<path d="M99.6225 32.2894C103.066 27.0406 104.445 19.5375 102.282 14.2777C100.77 10.587 97.4153 7.37138 93.4422 7.18353C89.8445 7.01777 86.4895 9.3383 84.514 12.355C82.5385 15.3717 81.7219 18.985 81.1259 22.5321C80.5631 25.9135 80.1658 29.4274 81.0597 32.7424C83.0462 40.0797 89.999 40.5549 95.6384 36.5547C97.1504 35.4829 98.4968 34.0021 99.6225 32.2894Z" fill="#F89C33"/>
<path d="M99.8875 28.3666C100.428 27.9467 100.991 27.5047 101.653 27.3058C102.315 27.0959 103.099 27.1622 103.596 27.6373C104.412 28.4219 104.059 29.7921 103.518 30.7755C102.922 31.8806 102.161 32.8972 101.256 33.7812C100.715 34.3116 100.075 34.8088 99.3246 34.842C95.76 34.9635 98.6404 29.5158 99.8433 28.455" fill="#F89C33"/>
<path d="M89.3377 12.4213C92.9244 13.1948 96.3015 13.3716 98.3873 16.9187C100.904 21.1841 98.3542 25.4052 97.9679 29.6706C97.9238 30.1457 98.1886 30.6982 98.6522 30.7756C99.1929 30.864 99.6344 30.3225 99.833 29.8032C100.043 29.2949 100.208 28.6871 100.694 28.4329C101.246 28.1456 101.974 28.4882 102.305 29.0186C102.636 29.549 102.669 30.212 102.68 30.8419C102.724 35.3945 100.021 40.4555 102.029 44.8092C103.32 47.6159 106.411 49.2624 109.468 49.5939C113.716 50.0691 118.716 48.6436 121.927 45.7816C123.274 44.5882 124.422 43.1075 126.033 42.3119C127.799 41.4389 130.006 41.5273 131.694 42.5439C126.386 39.3505 122.722 34.7315 118.65 30.1678C113.518 24.4107 108.607 18.3 105.495 11.1837C104.7 9.36046 104.005 7.44879 102.68 5.96807C100.385 3.38235 96.8312 2.71934 93.7632 4.2995C92.2071 5.09511 91.0041 6.33273 89.5142 7.23884C87.9361 8.2002 86.2255 8.94055 84.6804 9.95716C82.7491 11.239 81.1157 12.9517 79.8686 14.9076C79.383 15.6701 76.613 20.7752 79.8576 19.1509C81.2592 18.4436 82.407 15.7474 83.6099 14.5651C84.8128 13.3827 86.6448 12.0346 86.9428 10.2334C86.8545 10.808 87.1635 11.3826 87.616 11.7362C88.0685 12.0898 88.6424 12.2666 89.2052 12.3882C89.2714 12.3992 89.3045 12.4103 89.3377 12.4213Z" fill="#45459B"/>
<path d="M94.4369 25.8696C94.161 26.4112 93.4657 27.2182 92.8366 27.3287C91.6226 27.5498 91.9096 25.7369 92.1524 25.0406" stroke="black" stroke-width="0.628" stroke-miterlimit="10" stroke-linecap="round" stroke-linejoin="round"/>
<path d="M85.8171 27.2616C85.5964 27.2726 85.3536 27.2395 85.1439 27.3168C84.9563 27.3831 84.8128 27.5378 84.7135 27.7146C84.2941 28.466 84.879 29.5048 85.7067 29.7258C86.5455 29.9468 87.4504 29.4937 87.9802 28.8196C88.5099 28.1345 88.7306 27.2616 88.8631 26.4107C88.9955 25.5709 89.2162 23.7145 88.0574 24.7311C87.1745 25.4936 87.4504 27.1621 85.8171 27.2616Z" fill="#F1653A"/>
<path d="M96.8208 23.5488C96.9753 23.8361 97.0967 24.2339 96.876 24.477C96.6994 24.6649 96.4125 24.6538 96.1697 24.6206C95.2095 24.488 94.2604 24.0571 93.7086 23.2615C93.0906 22.3664 93.0354 21.173 94.2935 21.2835C95.3199 21.383 96.3683 22.7421 96.8208 23.5488Z" fill="#45459B"/>
<path d="M85.1322 23.2728C84.8563 23.8145 84.161 24.6214 83.5319 24.7319C82.318 24.953 82.6049 23.1402 82.8477 22.4438" stroke="black" stroke-width="0.628" stroke-miterlimit="10" stroke-linecap="round" stroke-linejoin="round"/>
<path d="M82.417 19.1067C82.108 19.2172 81.7548 19.4273 81.7659 19.7589C81.7769 20.0131 81.9866 20.201 82.1963 20.3337C83.0019 20.8642 83.9952 21.1848 84.9333 20.9527C85.9928 20.6984 86.8315 19.8362 85.8051 19.0846C84.9774 18.4766 83.2889 18.7972 82.417 19.1067Z" fill="#45459B"/>
<path d="M19.7768 71.2521L18.2538 77.6722L14.4463 78.7551L0 76.4788L2.27344 65.274L17.0509 68.8542L19.7768 71.2521Z" fill="#45459B"/>
<path d="M18.252 66.6333L15.5371 66.0253" stroke="black" stroke-width="0.628" stroke-miterlimit="10" stroke-linecap="round" stroke-linejoin="round"/>
<path d="M84.9434 30.4992C84.5792 30.6097 84.2702 30.897 84.0716 31.2175C82.9128 33.0739 85.0207 35.527 86.643 33.5049C87.5921 32.3335 86.5988 29.9799 84.9434 30.4992Z" fill="black"/>
<path d="M36.9376 82.689C37.4784 82.2359 39.5973 80.9541 38.9462 80.1585C38.2178 79.2745 36.4962 80.6336 35.9885 81.0646C35.0173 81.8933 34.1234 82.8105 33.3178 83.805C33.2295 82.5232 34.3 81.4955 35.3374 80.7331C36.0106 80.2358 37.2356 79.5286 37.5005 78.6667C37.8647 77.4954 36.6397 77.7827 35.9113 78.1363C34.1344 78.9982 32.5232 80.2027 31.1767 81.6502C31.5189 80.3795 32.6556 79.606 33.6709 78.8877C34.3221 78.4347 35.227 78.0479 35.6685 77.3628C36.3637 76.302 35.5581 76.092 34.598 76.2578C32.479 76.6224 30.5146 77.9043 29.3668 79.7386C29.0909 80.1695 28.7047 80.711 28.2191 80.5784C27.8549 80.4789 27.6893 80.0369 27.6783 79.6612C27.6231 77.9706 29.3337 76.6224 29.3668 74.9318C29.0026 74.7218 28.5501 74.987 28.2411 75.2743C26.7623 76.6224 25.8904 78.6115 25.9125 80.6115C25.9125 80.8988 25.9346 81.1861 26.0781 81.4292C26.3871 81.9707 27.1155 82.0701 27.7114 82.2359C29.3337 82.7 30.5256 84.0592 31.563 85.3962C32.0486 86.0261 32.5673 86.6891 33.3068 86.9543C34.4214 87.3521 35.0946 86.6559 35.2822 85.7056C35.536 84.4017 35.9002 83.5619 36.9376 82.689Z" fill="#F89C33"/>
</svg>
