<svg width="170" height="173" fill="none" xmlns="http://www.w3.org/2000/svg"><path opacity=".7" d="M1.678 45.373c-3.327 9.46-1.386 99.766 3.195 107.375 4.582 7.61 99.704 11.662 108.721 8.703 9.003-2.959 51.392-47.318 55.229-53.994 3.838-6.676-3.75-83.804-8.332-91.413-4.581-7.61-95.56-10.452-100.33-11.414-4.787-.962-55.798 33.075-58.483 40.743Z" fill="#BDE6F3"/><path d="M54.718 6.947c0 .22-.204.409-.452.409-.248 0-.453-.175-.453-.409 0-.218.205-.408.453-.408.248.015.452.19.452.408ZM49.772 14.82c0 .218-.205.407-.453.407-.248 0-.452-.175-.452-.408 0-.219.204-.408.452-.408.263.015.453.19.453.408ZM47.977 9.032c0 .277-.248.481-.54.481-.292 0-.54-.219-.54-.481 0-.277.233-.496.54-.496.292 0 .54.22.54.496ZM45.642 17.341c0 .277-.248.481-.54.481-.292 0-.54-.219-.54-.481 0-.277.234-.496.54-.496.292.015.54.234.54.496ZM41.702 14.586c0 .13-.117.247-.277.247-.146 0-.277-.116-.277-.247s.117-.248.277-.248c.16 0 .277.102.277.248ZM50.734 10.985c0 .131-.117.248-.277.248-.146 0-.277-.117-.277-.248s.117-.247.277-.247c.146 0 .277.116.277.247ZM53.842 23.39c0 .131-.117.248-.277.248-.146 0-.277-.117-.277-.248 0-.13.117-.247.277-.247.16 0 .277.102.277.247ZM41.877 20.912c.249 0 .453.175.453.409 0 .218-.204.408-.453.408-.248 0-.452-.175-.452-.408 0-.234.205-.409.453-.409ZM46.211 27.705c.248 0 .453.175.453.409 0 .218-.205.408-.453.408-.248 0-.452-.175-.452-.408 0-.234.204-.409.452-.409ZM51.143 35.577c.248 0 .453.175.453.408 0 .219-.205.408-.453.408-.248 0-.452-.175-.452-.408 0-.218.204-.408.452-.408ZM43.804 38.595c.248 0 .452.175.452.408 0 .218-.204.408-.452.408-.248 0-.453-.175-.453-.408 0-.233.22-.408.453-.408ZM53.04 29.703c.306 0 .54.218.54.495 0 .262-.248.481-.54.481-.292 0-.54-.218-.54-.48 0-.263.234-.497.54-.497ZM41.877 30.198c.307 0 .54.219.54.496 0 .262-.248.48-.54.48-.291 0-.54-.218-.54-.48 0-.263.249-.496.54-.496ZM48.37 23.39c.307 0 .54.22.54.496 0 .263-.247.481-.54.481-.291 0-.54-.218-.54-.48 0-.263.234-.496.54-.496ZM49.203 18.493c.306 0 .54.218.54.495 0 .263-.249.481-.54.481-.292 0-.54-.218-.54-.48 0-.278.233-.496.54-.496ZM55.375 38.011c.306 0 .54.22.54.496 0 .263-.248.481-.54.481-.292 0-.54-.218-.54-.48 0-.263.233-.497.54-.497ZM59.037 35.504c.145 0 .277.102.277.248 0 .13-.117.247-.277.247-.146 0-.277-.102-.277-.247 0-.146.117-.248.277-.248ZM46.21 33.42c.147 0 .278.102.278.247 0 .131-.117.248-.277.248-.146 0-.277-.102-.277-.248 0-.13.117-.247.277-.247ZM49.465 26.86c.145 0 .277.102.277.247 0 .131-.117.248-.277.248-.146 0-.277-.102-.277-.248 0-.145.131-.247.277-.247ZM42.607 25.242c.145 0 .277.102.277.247 0 .131-.117.248-.277.248-.146 0-.277-.102-.277-.248 0-.13.117-.247.277-.247ZM50.005 31.904c.145 0 .276.101.276.247 0 .131-.116.248-.276.248-.146 0-.277-.102-.277-.248 0-.146.13-.247.277-.247ZM45.934 20.242c.145 0 .276.102.276.247 0 .131-.116.248-.276.248-.146 0-.277-.102-.277-.248 0-.145.13-.247.277-.247ZM54.805 16.612c.146 0 .277.102.277.248 0 .13-.116.247-.277.247-.145 0-.277-.102-.277-.247 0-.146.132-.248.277-.248ZM51.085 46.714c0-.219.204-.408.452-.408.248 0 .453.175.453.408 0 .219-.205.408-.453.408-.248 0-.452-.175-.452-.408ZM43.76 43.711c0-.218.204-.408.452-.408.248 0 .452.175.452.408 0 .219-.204.408-.452.408-.248 0-.452-.19-.452-.408ZM40.025 46.962c0-.219.204-.408.452-.408.248 0 .452.175.452.408 0 .218-.204.408-.452.408-.248 0-.452-.19-.452-.408ZM55.229 44.207c0-.277.248-.481.54-.481.291 0 .54.218.54.48 0 .278-.234.496-.54.496-.292-.014-.54-.233-.54-.495ZM59.154 46.962c0-.132.116-.248.277-.248.146 0 .277.117.277.248 0 .13-.117.247-.277.247-.146 0-.277-.117-.277-.248ZM46.328 49.046c0-.13.116-.247.277-.247.146 0 .277.116.277.247s-.117.248-.277.248c-.16-.015-.277-.117-.277-.248ZM70.958 50.752c-.248 0-.452-.175-.452-.408 0-.219.204-.408.452-.408.248 0 .453.175.453.408a.458.458 0 0 1-.453.408ZM66.712 48.318c-.306 0-.54-.22-.54-.496 0-.263.248-.481.54-.481.292 0 .54.218.54.48 0 .278-.233.497-.54.497ZM75.204 42.02c-.146 0-.277-.102-.277-.248 0-.131.117-.247.277-.247.146 0 .277.102.277.247 0 .146-.131.248-.277.248ZM63.05 43.857c0-.219.204-.408.452-.408.248 0 .452.175.452.408 0 .219-.204.408-.452.408-.248-.014-.452-.19-.452-.408ZM67.383 37.05c0-.22.205-.409.453-.409.248 0 .452.175.452.408 0 .219-.204.409-.452.409-.263 0-.453-.19-.453-.409ZM72.315 29.178c0-.219.205-.409.453-.409.248 0 .452.176.452.409 0 .218-.204.408-.452.408-.263 0-.453-.19-.453-.408ZM64.99 26.175c0-.219.205-.408.453-.408.248 0 .452.175.452.408 0 .218-.204.408-.452.408-.263-.015-.453-.19-.453-.408ZM61.24 29.425c0-.218.205-.408.453-.408.248 0 .452.175.452.409 0 .218-.204.408-.452.408-.248 0-.453-.19-.453-.409ZM74.125 34.98c0-.277.248-.482.54-.482.291 0 .54.219.54.481 0 .277-.234.496-.54.496-.307-.014-.54-.233-.54-.496ZM62.962 34.484c0-.277.248-.481.54-.481.292 0 .54.218.54.48 0 .278-.233.496-.54.496-.292 0-.54-.218-.54-.495ZM69.455 41.291c0-.277.248-.48.54-.48.292 0 .54.218.54.48 0 .277-.233.496-.54.496-.306 0-.54-.219-.54-.496ZM70.273 46.175c0-.277.248-.481.54-.481.291 0 .54.218.54.48 0 .278-.234.496-.54.496-.292 0-.54-.218-.54-.495ZM76.46 26.656c0-.277.247-.481.54-.481.291 0 .54.218.54.48 0 .278-.234.496-.54.496-.307 0-.54-.218-.54-.495ZM80.385 29.425c0-.13.116-.247.276-.247.146 0 .277.116.277.247s-.116.248-.277.248c-.16 0-.276-.117-.276-.248ZM67.559 31.495c0-.13.116-.247.276-.247.146 0 .277.116.277.247s-.116.248-.276.248c-.16 0-.277-.102-.277-.248ZM70.813 38.055c0-.131.116-.248.276-.248.146 0 .277.117.277.248 0 .13-.116.247-.277.247-.145 0-.276-.116-.276-.247ZM63.954 39.673c0-.131.117-.248.277-.248.146 0 .277.117.277.248s-.116.247-.277.247c-.16 0-.277-.102-.277-.247ZM71.352 33.011c0-.13.117-.247.277-.247.146 0 .277.116.277.247s-.117.248-.277.248c-.146 0-.277-.102-.277-.248ZM67.281 44.673c0-.131.117-.248.277-.248.146 0 .277.117.277.248s-.117.247-.277.247c-.16 0-.277-.102-.277-.247ZM76.153 48.317c0-.13.116-.247.277-.247.145 0 .277.116.277.247s-.117.248-.277.248c-.16-.015-.277-.117-.277-.248ZM75.86 5.84c0 .13-.116.247-.277.247-.145 0-.276-.117-.276-.248 0-.13.116-.247.276-.247.16.014.277.116.277.247ZM68.215 10.17c.248 0 .453.174.453.407 0 .219-.205.408-.453.408-.248 0-.452-.175-.452-.408a.448.448 0 0 1 .452-.408ZM73.147 18.04c.248 0 .452.176.452.409 0 .218-.204.408-.452.408-.248 0-.452-.175-.452-.408a.458.458 0 0 1 .452-.408ZM65.822 21.058c.248 0 .453.175.453.408 0 .219-.205.409-.453.409-.248 0-.452-.175-.452-.409a.437.437 0 0 1 .452-.408ZM62.087 17.793c.248 0 .452.175.452.408 0 .219-.204.408-.452.408-.248 0-.453-.175-.453-.408a.448.448 0 0 1 .453-.408ZM75.059 12.166c.306 0 .54.219.54.496 0 .262-.249.48-.54.48-.292 0-.54-.218-.54-.48 0-.277.233-.496.54-.496ZM63.896 12.647c.306 0 .54.219.54.496 0 .262-.248.48-.54.48-.292 0-.54-.218-.54-.48 0-.277.248-.496.54-.496ZM70.39 5.84c.306 0 .54.218.54.495 0 .263-.249.481-.54.481-.293 0-.54-.218-.54-.48 0-.278.233-.496.54-.496ZM77.393 20.475c.306 0 .54.219.54.496 0 .262-.248.48-.54.48-.292 0-.54-.218-.54-.48 0-.263.234-.496.54-.496ZM81.055 17.953c.146 0 .277.102.277.248 0 .13-.116.247-.277.247-.145 0-.277-.102-.277-.247 0-.131.117-.248.277-.248ZM68.215 15.883c.145 0 .277.102.277.248 0 .13-.117.247-.277.247-.146 0-.277-.102-.277-.247a.271.271 0 0 1 .277-.248ZM71.483 9.324c.146 0 .277.101.277.247 0 .131-.116.248-.277.248-.145 0-.277-.102-.277-.248a.283.283 0 0 1 .277-.247ZM64.61 7.706c.147 0 .278.101.278.247 0 .131-.117.248-.277.248-.146 0-.277-.102-.277-.248a.271.271 0 0 1 .277-.247ZM72.023 14.367c.146 0 .277.102.277.248 0 .13-.117.247-.277.247-.146 0-.277-.102-.277-.247a.271.271 0 0 1 .277-.248Z" fill="#fff"/><path d="M79.305 32.91c.087.379.452.787.817.626.248-.102.335-.408.467-.627.35-.655 1.21-.947 1.911-.7.7.263 1.153 1.021 1.08 1.75-.058.743-.613 1.4-1.328 1.618-.233.073-.496.117-.671.292a.795.795 0 0 0-.175.35c-.307.903-.16 1.91.131 2.828 1.11 3.542 2.714 6.909 5.764 9.183 1.05.787 2.218 1.4 3.37 2.012a10.868 10.868 0 0 0 5.764 1.239c.992-.059 2.743-.54 2.29-2.1-.495-1.661-.612-1.967-2.144-2.784-1.372-.743-2.656-1.705-3.56-2.973-.905-1.269-1.445-2.857-1.24-4.403.13-1.005.554-1.938.86-2.915.876-2.711.89-5.7.044-8.426-.73-2.332-2.116-4.519-4.13-5.903-4.07-2.828-10.155-1.137-13.73 1.778-.715.583-1.386 1.254-1.736 2.114-.7 1.705.19 2.74 1.824 3.032 1.444.262 3.035-.452 4.231-1.225-.38 1.677-.146 3.543.16 5.234Z" fill="#ED6636"/><path d="M94.626 32.734A73.03 73.03 0 0 1 98.42 46.51c.335 1.968.481 4.009.13 5.991a22.494 22.494 0 0 1-3.822 9.184c-2.189 3.105-5.574 6.268-9.236 7.565-4.042 1.414-8.916 1.852-13.147 1.196-6.304-.977-13.147-5.03-15.394-11.298-1.562-4.358-.365-9.898 3.53-12.347 1.752-1.107 3.853-1.501 5.837-2.113 1.985-.612 4.013-1.545 5.122-3.31.569-.918.846-1.996 1.05-3.046.555-2.857.716-5.787 1.314-8.644.613-2.843 1.736-5.7 3.867-7.668 3.283-3.017 8.17-.83 11.162 1.59 2.729 2.2 4.552 5.918 5.793 9.124Z" fill="#ED6636"/><path d="M86.805 39.95c.277 2.74.394 5.51.364 8.265 0 .22-.014.452-.102.627-.116.204-.32.263-.525.306a8.685 8.685 0 0 1-4.815-.539c-.263-.117-.54-.262-.657-.598-.073-.233-.043-.48-.029-.714.204-2.216.19-4.49-.058-6.69l5.822-.657Z" fill="#45459B"/><path d="M78.75 73.93c3.123 2.405 7.369 3.265 11.163 2.244 1.634-.437 3.21-1.239 4.246-2.58 1.4-1.822 1.546-4.285 1.634-6.574.146-4.009.292-8.032.03-12.026-.132-1.851-.118-4.198-.76-5.948-.014-.029-.014-.058-.029-.087-.496-1.225-1.853-1.822-3.079-2.318a20.297 20.297 0 0 0-6.945-1.487c-1.576-.058-3.137.277-4.655.7-1.503.423-3.02.598-4.596.802-.16.014-.321.044-.467.13-.175.117-.277.292-.35.482-.642 1.312-1.036 2.726-1.343 4.14a39.412 39.412 0 0 0-.904 7.026c-.03.962-.175 2.07-.073 3.018.131 1.151.642 2.376 1.036 3.44.598 1.632.948 3.309 1.736 4.883.803 1.618 1.926 3.047 3.356 4.155Z" fill="#45459B"/><path d="M81.683 45.68c-.16-.088-.35-.016-.525.043-2.466.904-5.151.918-7.704.525-2.364-.365-4.524-1.502-6.713-2.406-.13-.058-.277-.116-.394-.175-1.371-.626-2.714-1.428-3.793-2.507-.16-.146 1.517-2.828 1.692-3.12.555-.947 1.153-1.85 1.708-2.798a36.087 36.087 0 0 1 3.895-5.583c.088-.117.175-.219.22-.35.058-.32-.234-.598-.526-.758-.394-.219-.905-.918-1.415-.875-.175.015-.336.16-.467.292a271.767 271.767 0 0 1-5.808 5.787c-2.232 2.143-4.217 4.46-6.23 6.807-.423.496-.876 1.108-.7 1.735.087.335.335.583.568.817a59.02 59.02 0 0 0 15.424 11.195c.904.568 1.853 1.151 2.918 1.297.394.058 1.08.117 1.415-.16.248-.19.263-.54.394-.817.35-.801 1.007-1.472 1.634-2.055 1.343-1.254 2.963-2.274 3.925-3.877.278-.452 1.285-2.61.482-3.018ZM100.229 57.56c-1.036-2.916-2.233-6.546-4.334-8.674-.773-.773-1.75-1.472-2.86-1.501-1.897-.044-2.232 2.609-2.13 4.081.087 1.429.569 2.828 1.036 4.184.948 2.77 1.824 5.568 2.83 8.323.643 1.75 1.051 3.732 2.277 5.19.948 1.137 3.56 2.653 4.961 1.647.759-.554 1.094-1.53 1.08-2.478-.044-1.53-.788-3.236-1.138-4.738-.409-1.778-.803-3.542-1.416-5.247-.102-.234-.204-.51-.306-.788ZM59.125 149.585c.467-3.425-.132-8.367-.102-12.274.029-4.081.291-8.207.51-12.303.16-2.915-.087-8.979 4.349-8.542 3.604.35 2.743 5.204 2.611 7.784-.175 3.309-.204 6.633-.35 9.927-.175 4.125-1.123 8.193-1.897 12.245-.277 1.458 0 6.108-1.255 6.91l-3.866-3.747Z" fill="#45459B"/><path d="M57.782 146.043a30.256 30.256 0 0 1-.146-1.618c-.014-.117-.014-.262.088-.335.073-.059.175-.059.277-.059 2.422.059 4.845.117 7.267.161.087 0-.205 4.854-.248 5.291-.16 1.822-.35 3.265.058 5.044.263 1.166.802 1.895.175 3.149-.963 1.938-3.677 2.521-5.15 3.979-1.226 1.195-2.583 2.551-4.203 3.193-1.299.524-6.274.072-6.245-1.444.014-.743 1.08-1.268 1.517-1.778 1.343-1.574 2.48-3.426 3.794-5.015 1.693-2.026 2.904-3.994 3.02-6.705.059-1.283-.072-2.58-.204-3.863Z" fill="#EAEAEA"/><path d="M71.571 122.326c.336-1.545.7-3.061 1.08-4.534.438-1.676.934-3.338 1.62-4.912.963-2.201 2.32-4.213 3.647-6.195 1.839-2.741 3.882-5.438 5.428-8.339 1.416-2.682 3.094-5.48 2.087-8.615-1.138-3.571-5.647-6.312-9.236-4.635-5.501 2.58-7.106 8.936-9.28 13.95-1.036 2.362-2.379 4.636-3.444 7.012-2.35 5.189-4.26 10.087-5.34 15.656-1.11 5.67-2.977 19.737-4.45 25.306-.103.408-.205.86-.045 1.239.234.51.832.699 1.372.845 3.195.86 6.245.787 9.557.816.321 0 5.37.073 5.355-.174-.525-6.05.307-21.254 1.65-27.42Z" fill="#ED8120"/><path d="M97.544 129.483c-.306 5.073-.744 10.131-1.517 15.161-.395 2.521-.832 5.043-1.489 7.536-.32 1.254-.686 2.507-1.196 3.746-.263.627-.526 1.239-.905 1.866-.38.612-.803 1.268-1.649 1.808-.452.262-1.065.466-1.736.364-.642-.116-1.138-.437-1.503-.758-.7-.656-1.05-1.326-1.386-1.968-.613-1.297-1.007-2.58-1.328-3.877-.613-2.58-1.007-5.146-1.255-7.712-.482-5.145-.525-10.291-.219-15.408.306-5.116.934-10.233 1.97-15.277a68.88 68.88 0 0 1 1.999-7.521c.423-1.239.905-2.479 1.503-3.688.306-.613.627-1.21 1.05-1.823.438-.597.905-1.209 1.78-1.72.468-.233 1.08-.408 1.708-.291.613.131 1.08.466 1.4.802.643.67.934 1.326 1.197 1.982.496 1.312.773 2.595 1.007 3.878.452 2.565.613 5.116.73 7.667.277 5.088.102 10.16-.161 15.233Zm-.905-.058c.292-5.029.248-10.087-.219-15.102-.233-2.493-.612-4.985-1.196-7.376-.292-1.181-.671-2.362-1.167-3.382-.248-.496-.555-.962-.832-1.181-.131-.116-.234-.116-.234-.116 0 .014-.014.029-.116.087-.205.161-.54.554-.788 1.021-.278.451-.496.991-.715 1.53-.423 1.093-.774 2.26-1.08 3.44-.613 2.362-1.036 4.811-1.415 7.26-.745 4.912-1.182 9.883-1.474 14.869-.277 4.97-.423 9.97-.219 14.927.117 2.478.277 4.956.686 7.317.204 1.181.467 2.362.846 3.382.19.496.438.962.642 1.21.102.117.16.131.132.16-.03 0-.015.03.087-.014.234-.117.613-.481.934-.918.32-.438.613-.963.875-1.487a27.813 27.813 0 0 0 1.386-3.382c.788-2.347 1.416-4.782 1.927-7.245 1.021-4.942 1.648-9.956 1.94-15Z" fill="#45459B"/><path d="m94.013 129.235-.015-27.886M92.13 101.495l3.386 27.23M95.02 125.664l1.634 9.009M97.194 125.416l-2.51 7.464M94.421 126.641l2.598-13.426M96.07 106.787l-.831 24.606" stroke="#45459B" stroke-width=".028" stroke-miterlimit="10" stroke-linecap="round" stroke-linejoin="round"/><path d="m95.501 129.527-6.99 28.28M90.394 157.661l3.619-27.624M94.508 133.098l-8.623-8.615M85.33 133.74l9.5-7.857M95.107 132.122l-9.6 13.819M86.454 152.369l7.836-24.999M95.472 126.859l-2.35 26.283" stroke="#45459B" stroke-width=".24" stroke-miterlimit="10" stroke-linecap="round" stroke-linejoin="round"/><path d="m94.83 146.495-.657-14.169M94.057 131.918l-4.67-25.889M87.68 112.661l7.66 13.776" stroke="#45459B" stroke-width=".028" stroke-miterlimit="10" stroke-linecap="round" stroke-linejoin="round"/><path d="M95.472 129.76c.131-1.997-.102-3.644-.496-3.673-.409-.029-.832 1.574-.963 3.586-.132 1.997.102 3.644.496 3.673.409.015.846-1.589.963-3.586Z" stroke="#45459B" stroke-width=".118" stroke-miterlimit="10" stroke-linecap="round" stroke-linejoin="round"/><path d="m79.567 135.3 17.525-5.846" stroke="#FBE70F" stroke-width="1.081" stroke-miterlimit="10" stroke-linecap="round" stroke-linejoin="round"/><path d="M88.366 95.212c.642-.233 1.371-.306 2.057-.306 2.831-.044 7.69 1.181 5.662 5.219-.7 1.399-1.795 1.166-3.079 1.443-1.707.379-1.663.641-2.553 2.216-.322.583-.818 1.137-1.474 1.239-.759.116-1.474-.467-1.78-1.166-.628-1.444-1.197-3.164-1.226-4.752-.015-1.254.408-2.58 1.4-3.353.292-.233.628-.423.993-.54Z" fill="#FBE70F"/><path d="m87.563 6.947-4.435-5.83A.305.305 0 0 0 82.894 1a.305.305 0 0 0-.233.117l-4.363 5.83a.307.307 0 0 0 0 .35l4.363 5.831a.283.283 0 0 0 .233.117.305.305 0 0 0 .234-.117l4.435-5.83a.307.307 0 0 0 0-.35Z" fill="#F89C33"/><path d="m85.258 7.035-2.233-2.93a.133.133 0 0 0-.116-.058.133.133 0 0 0-.117.058l-2.189 2.93a.186.186 0 0 0 0 .175l2.189 2.93c.03.044.073.058.117.058a.133.133 0 0 0 .116-.058l2.233-2.93c.044-.044.044-.117 0-.175ZM82.909 4.047V1M82.909 13.187V10.14M78.298 7.122h2.32M85.346 7.122h2.217" stroke="#C47D27" stroke-width=".24" stroke-miterlimit="10" stroke-linecap="round" stroke-linejoin="round"/><path d="M67.558 101.991c-1.269-.306-2.597.554-3.254 1.691-.656 1.137-.787 2.492-.89 3.804a191.34 191.34 0 0 0 .073 31.808" stroke="#FBE70F" stroke-width="1.081" stroke-miterlimit="10" stroke-linecap="round" stroke-linejoin="round"/><path d="M68.055 138.171a232.236 232.236 0 0 1-1.11 8.411c-.408 2.799-.816 5.598-1.327 8.397-.496 2.784-1.007 5.583-1.693 8.353-.335 1.384-.686 2.784-1.152 4.154-.234.7-.482 1.385-.788 2.085-.336.699-.599 1.384-1.43 2.157-.234.175-.54.408-1.051.481-.233.044-.525-.015-.759-.073a2.528 2.528 0 0 1-.583-.335c-.599-.525-.715-.933-.92-1.356-.32-.802-.496-1.545-.642-2.288-.277-1.473-.423-2.916-.525-4.359a99.54 99.54 0 0 1-.175-8.601c.073-2.842.19-5.699.394-8.542.233-2.842.496-5.67.817-8.498.365-2.828.759-5.642 1.211-8.455a184.265 184.265 0 0 1 1.62-8.382 117.197 117.197 0 0 1 2.145-8.294c.423-1.385.89-2.741 1.43-4.097.277-.685.569-1.355.934-2.04.379-.685.685-1.356 1.56-2.099a2.08 2.08 0 0 1 1.051-.438c.22-.029.511.029.745.088.204.087.408.204.554.335.554.525.642.948.832 1.356.277.801.394 1.545.481 2.288.175 1.473.22 2.901.248 4.344.03 2.857-.116 5.7-.277 8.528-.16 2.828-.423 5.656-.686 8.469a238.521 238.521 0 0 1-.904 8.411Zm-.818-.102c.322-2.799.599-5.612.818-8.411.204-2.813.32-5.627.394-8.44a94.926 94.926 0 0 0-.175-8.411c-.103-1.385-.249-2.77-.497-4.096-.13-.656-.291-1.312-.51-1.822-.102-.234-.278-.496-.263-.438.015.015.058.059.102.059.059.058.175.043.219.043.146-.014.146-.043.117 0-.204.19-.57.802-.803 1.385a23.557 23.557 0 0 0-.685 1.866c-.424 1.283-.76 2.624-1.095 3.98-.656 2.696-1.167 5.437-1.663 8.207-.496 2.755-.905 5.524-1.314 8.294-.408 2.77-.773 5.554-1.094 8.338a270.66 270.66 0 0 0-.92 8.353c-.262 2.784-.525 5.583-.685 8.367-.16 2.784-.321 5.583-.277 8.338.014 1.385.058 2.755.219 4.067.087.642.19 1.312.364 1.823.073.233.22.495.175.437a.27.27 0 0 0-.13-.058c-.074-.059-.19-.03-.249-.03-.16.03-.146.059-.102.03.233-.161.642-.758.934-1.312a16.38 16.38 0 0 0 .832-1.837 49.81 49.81 0 0 0 1.371-3.921 102.785 102.785 0 0 0 2.116-8.149c.598-2.755 1.153-5.51 1.605-8.294.438-2.77.846-5.569 1.197-8.368Z" fill="#45459B"/><path d="m65.399 137.676 2.626-31.851M66.64 105.868l-.088 31.312M66.479 138.098l-7.821 31.852M60.044 169.906l5.282-31.312M65.399 142.122l-5.53-10.408M58.6 142.253l7.733-8.367M66.479 133.652l.35 10.408M68.098 133.521l-2.553 8.367M65.939 141.028l-8.361 15.175M57.665 163.608l8.113-28.061M65.939 134.746l3.18-15.175M69.032 112.166l-2.947 28.046M66.698 135.037l-4.217 29.869M64.378 157.442l.846-16.224M65.18 140.722l-.978-29.868M62.32 118.332l4.334 16.224" stroke="#45459B" stroke-width=".24" stroke-miterlimit="10" stroke-linecap="round" stroke-linejoin="round"/><path d="M66.42 138.317c.278-2.289.263-4.169-.029-4.198-.292-.029-.759 1.778-1.036 4.067-.277 2.288-.263 4.169.03 4.198.291.029.758-1.778 1.035-4.067Z" stroke="#45459B" stroke-width=".108" stroke-miterlimit="10" stroke-linecap="round" stroke-linejoin="round"/><path d="m67.632 101.86 4.216-10.846.175-9.315" stroke="#FBE70F" stroke-width=".285" stroke-miterlimit="10" stroke-linecap="round" stroke-linejoin="round"/><path d="M67.836 102.049c1.517-.044 2.86 1.122 3.487 2.507.613 1.385.671 2.959.642 4.476-.102 10.32-2.262 20.495-4.421 30.582M79.567 135.3l11.046-35.685-21.172-3.834M69.44 95.766l10.142 39.519M53.434 79.95l36.172 2.945" stroke="#FBE70F" stroke-width="1.081" stroke-miterlimit="10" stroke-linecap="round" stroke-linejoin="round"/><path d="M98.288 119.41c-.131 0-.277.015-.409.03-5.763.67-4.64 7.303-3.662 11.355 1.415 5.817 2.991 11.458 4.13 17.347.233 1.239.481 2.464.714 3.688.248 1.312.453 2.609.599 3.921.014.117.014.234.029.35.058.496.087 1.006.117 1.502.014.16.014.335.029.495.014.627.029 1.254 0 1.881.481.335 1.298.525 2.057.437.569-.058 1.095-.262 1.445-.67.116-.132.204-.277.277-.467.117-.291.088-.641.073-.991-.117-2.245-.234-4.49-.365-6.735-.248-4.548-.496-9.096-.817-13.644-.044-.598-.088-1.181-.131-1.779.16-.043.321-.058.496-.102a408.592 408.592 0 0 1-.38-4.752c-.233-3.119.745-11.982-4.202-11.866Z" fill="#45459B"/><path d="M105.234 150.999c-.015 2.231-.044 4.534.554 6.691.628 2.26 2.233 4.111 3.371 6.152.715 1.282 2.626 2.886.525 3.761-.861.349-1.693.233-2.553.043a11.378 11.378 0 0 1-5.035-2.536c-.671-.583-.904-1.312-1.444-1.924-.817-.933-1.853-.846-2.072-2.26-.16-1.064.131-2.143.088-3.221-.088-1.764-.672-3.368-.92-5.059-.131-.918-.496-1.851-.481-2.813.014-1.093.992-1.093 2.072-1.166 1.444-.102 2.976-.263 4.406-.088 1.43.175 1.503.409 1.503 1.939-.014.16-.014.321-.014.481Z" fill="#EAEAEA"/><path d="M99.645 94.76c-.175-1.035-.423-2.026-.642-3.046-.321-1.618-1.182-3.31-2.145-4.636-1.693-2.288-4.304-3.44-7.15-3.294-11.615.641-3.458 23.382-1.415 29.183 1.05 2.989.817 6.516 1.226 9.621.335 2.537.904 4.884 1.284 7.391.758 5.102.291 17.828.73 22.901 4.158.656 8.594-.875 12.738-1.123 1.24-.073 2.83.161 3.925-.466-.672-2.595-1.853-12.639-2.393-15.365-.847-4.3-2.116-8.221-2.583-12.594-.496-4.723-1.445-9.373-1.795-14.126-.262-4.125-.89-8.279-1.488-12.361a26.47 26.47 0 0 0-.292-2.085Z" fill="#ED8120"/><path d="M94.32 59.892c-1.401-.423-2.394-.962-2.948-2.784-.759-2.478-.759-4.855-.54-7.391.03-.32 2.247-2.96 2.378-2.93-.54-.175-3.254-1.006-3.91-1.123-.438-.145-1.036-.335-1.197-.087-1.984 2.974-5.574 3.557-7.85.248-.03-.044-1.547.335-1.897.48-.627.074-4.596-.8-4.83-.786-.145.291-1.357 9.65-1.181 12.755-.044 2.274.35 4.402.496 5.379.67 4.62 1.634 6.618 1.357 11.34-.19 3.193-1.197 6.56-1.795 9.738-.16.846-.467 1.633-.774 2.435 7.953 5.845 14.694 5.16 27.214 3.586-1.11-4.81-2.641-9.665-3.05-14.607 0-1.428-.16-2.653.015-4.081.423-3.805.058-7.901.087-11.735-.598-.175-1.109-.306-1.576-.437Z" fill="#F89B35"/><path d="M81.858 84.294c-.087.262-.058.641.204.641.088 0 .16-.058.234-.116a13.586 13.586 0 0 0 2.35-2.318c-.351.875-.716 1.75-1.066 2.61.204.262.613-.015.817-.278.598-.743 1.197-1.501 1.78-2.245-.292.919-.569 1.852-.86 2.77.16.19.452.19.67.058.205-.116.35-.335.482-.524.452-.67.89-1.341 1.328-2.012-.088.7-.175 1.4-.248 2.1.16.16.452.16.642.043.204-.117.32-.32.452-.525a19.522 19.522 0 0 0 1.634-3.324c.234-.597-4.844-1.778-5.53-1.443-1.371.67-2.451 3.193-2.889 4.563Z" fill="#45459B"/><path d="M83.434 69.382a61.453 61.453 0 0 0-9.076 15.947M77.116 69.221a74.974 74.974 0 0 0-5.734 17.172M84.966 76.13a123.913 123.913 0 0 0-9.382 11.633" stroke="#F1653A" stroke-width=".48" stroke-miterlimit="10"/><path d="M82.194 85.475a.846.846 0 0 0-.423-.598l-12.243-6.632a.809.809 0 0 0-.773 0 .82.82 0 0 0-.423.64l-1.926 21.896c-.03.35.16.67.481.816a.868.868 0 0 0 .278.073.84.84 0 0 0 .67-.262L82.02 86.145a.915.915 0 0 0 .175-.67Z" fill="#994396"/><path d="M82.208 67.793c-.13.029-.204.043-.277.16-.044.058-.087.131-.131.19-.044.058-.073.13-.117.204-.058.087-.102.116-.058.218.029.073.044.059.029.16-.015.074-.015.132-.015.205-.014.145 0 .335-.043.466-.088.277-.103.598.043.875.059.131.22.131.307.233.102.131.073.335.175.452.044.044.102.058.16.087a.5.5 0 0 1 .117.132c.117.116.219.247.38.262.145.014.306.014.452.03.117.014.32.145.438.043.058-.059.058-.16.145-.204.03-.015.059.014.088 0 .03-.015.044-.044.088-.044.058-.015.13.03.175.015.058-.015.102-.03.175-.03.102 0 .175-.116.262-.19.03-.028.073-.072.117-.101.058-.03.132-.044.175-.088.015-.014.015-.058.03-.072.029-.03.058-.015.087-.059.058-.058.073-.16.131-.233a.829.829 0 0 0 .16-.423c.015-.16.03-.335.03-.495.015-.088.015-.19-.058-.219-.059-.03-.16.015-.205.058.03-.19.044-.393.015-.568-.015-.088-.03-.16-.03-.248-.014-.015-.028-.03-.028-.058 0-.03.014-.059.014-.088a.165.165 0 0 0-.044-.116c-.087-.146-.233-.321-.277-.481-.029-.117-.014-.248-.131-.336-.088-.073-.175-.073-.277-.102-.205-.043-.409-.116-.613-.131-.088-.014-.19-.014-.278-.014a.908.908 0 0 0-.277-.015c-.058.014-.087.087-.146.117-.029.014-.087.014-.116.014-.088.015-.175 0-.263 0-.277 0-.321.19-.409.394Z" fill="#00BCCC"/><path d="M82.763 68.988h.03c-.176.058-.147.335-.161.496a.513.513 0 0 0 .35.554c.043.014.058.043.131.043.058 0 .117.015.16.015.088.014.176-.015.278-.03.014-.014.029-.028.044-.028.029 0 .058.014.087.014.044 0 .058-.014.088-.029.087-.03.16-.058.204-.131a.78.78 0 0 0 .102-.277 1.09 1.09 0 0 0-.014-.38c-.015-.145-.03-.203-.132-.305-.087-.088-.117-.204-.248-.263-.16-.073-.408-.058-.584-.029-.073.015-.087.015-.13.03a.386.386 0 0 0-.088.072c-.059.044-.044.015-.088.088-.014.043-.03.087-.03.16 0 0-.028-.015 0 0Z" fill="#45459B"/><path d="M74.986 66.277c-.248.043-.38.073-.511.262-.088.117-.16.219-.248.335-.088.117-.132.234-.204.35-.117.16-.205.204-.117.38.058.13.087.116.073.276-.015.117-.015.233-.03.365-.014.247.015.553-.072.801-.175.496-.175 1.035.087 1.502.117.218.394.218.555.408.175.219.131.568.335.802.073.087.205.087.278.16.087.058.13.146.218.219.205.19.394.422.672.437.262.015.54.03.802.058.204.03.584.248.788.059.102-.102.088-.277.248-.336.058-.014.102.015.16 0 .059-.014.074-.058.147-.058.102-.015.233.044.32.03.117-.015.205-.045.322-.045.175-.014.335-.19.466-.306.073-.058.132-.116.205-.16.102-.058.248-.088.32-.16.03-.03.03-.102.06-.117.058-.044.116-.044.16-.102.102-.117.131-.292.233-.408.16-.19.248-.452.277-.715.015-.291.044-.568.059-.874.014-.131.029-.306-.117-.38-.117-.057-.306.015-.38.103a3.24 3.24 0 0 0 .03-.991c-.03-.16-.044-.277-.073-.423-.03-.015-.059-.044-.059-.087.015-.044.015-.103.015-.146-.014-.073-.03-.146-.087-.204-.176-.248-.424-.554-.497-.831-.058-.204-.029-.423-.233-.569-.16-.131-.321-.131-.51-.175-.38-.087-.73-.19-1.11-.233-.16-.014-.335-.03-.51-.044-.146-.014-.365-.073-.511-.029-.117.03-.16.16-.263.19-.058.014-.16.014-.219.029-.16.029-.306.014-.466 0-.365-.073-.438.248-.613.627Z" fill="#00BCCC"/><path d="M75.992 68.317c.03 0 .044 0 .073.015-.32.117-.248.554-.277.846a.83.83 0 0 0 .059.422c.102.263.32.423.583.51.088.03.117.059.234.073.102.015.19.015.291.015.175.015.321-.015.496-.058.015-.044.044-.059.088-.059s.102.015.146.015c.087 0 .102-.015.16-.044.161-.058.292-.102.38-.233.087-.131.146-.306.175-.467a1.97 1.97 0 0 0-.03-.656c-.028-.247-.058-.35-.247-.524-.175-.16-.22-.35-.438-.438-.292-.13-.744-.116-1.05-.058-.132.015-.147.015-.234.073-.058.03-.102.087-.16.117-.117.072-.088.014-.161.145-.058.088-.058.175-.088.277-.029.015.015.015 0 .03Z" fill="#45459B"/><path d="M76.576 71.277c-.248.043-.38.073-.51.262-.088.117-.161.219-.249.335-.087.117-.131.234-.204.35-.117.16-.204.204-.102.38.058.13.087.116.073.276-.015.117-.015.233-.03.365-.014.247.015.553-.072.801-.175.496-.175 1.035.087 1.502.117.218.394.218.555.408.175.218.131.568.335.802.073.087.205.087.278.16.087.058.13.146.218.219.205.19.394.422.672.437.262.014.54.03.802.058.204.03.584.248.788.059.102-.103.088-.277.248-.336.058-.014.102.015.16 0 .059-.014.074-.058.147-.058.102-.015.233.044.32.03.117-.015.205-.045.322-.045.175-.014.335-.19.466-.306.073-.058.132-.116.205-.16.102-.058.248-.088.32-.16.03-.044.03-.102.06-.117.057-.03.101-.03.16-.102.102-.117.131-.292.233-.408.16-.19.248-.452.277-.715.015-.291.044-.568.059-.874.014-.131.029-.306-.102-.38-.117-.058-.307.015-.38.103.059-.32.073-.685.03-.991-.03-.16-.044-.277-.074-.423a.098.098 0 0 1-.058-.088c.015-.043.015-.102.015-.145-.015-.073-.03-.146-.088-.204-.175-.248-.423-.554-.496-.831-.058-.204-.03-.423-.233-.569-.161-.131-.322-.131-.511-.175-.38-.087-.73-.19-1.11-.233a5.662 5.662 0 0 0-.51-.03c-.146-.014-.365-.072-.51-.043-.117.03-.161.16-.263.19-.058.014-.16.014-.219.029-.16.029-.306.014-.467 0-.409-.073-.467.248-.642.627Z" fill="#00BCCC"/><path d="M77.568 73.317c.03 0 .044 0 .073.015-.32.117-.248.554-.277.846-.015.16 0 .276.058.422.103.263.321.423.584.51.088.03.117.059.234.073.102.015.19.015.291.015a1.45 1.45 0 0 0 .496-.058c.015-.044.044-.059.088-.059s.102.015.146.015c.087 0 .102-.015.16-.044.16-.058.292-.102.38-.233.087-.131.146-.306.175-.467a1.97 1.97 0 0 0-.03-.656c-.028-.247-.058-.35-.247-.524-.175-.16-.22-.35-.438-.438-.292-.13-.744-.116-1.05-.058-.132.015-.147.015-.234.073-.059.044-.102.087-.16.117-.117.072-.088.014-.161.145-.059.088-.059.175-.088.277-.029.03.015.03 0 .03Z" fill="#45459B"/><path d="M70.36 75.84c-.248.043-.38.072-.51.262-.088.116-.161.218-.249.335-.087.117-.131.233-.204.35-.117.16-.204.204-.102.379.058.131.087.116.073.277-.015.116-.015.233-.03.364-.014.248.015.554-.072.802-.175.496-.175 1.035.087 1.501.117.219.394.219.555.409.175.218.131.568.335.801.073.088.205.088.278.16.087.059.13.146.219.22.204.189.393.422.67.437.263.014.54.029.803.058.205.03.584.248.788.058.102-.102.088-.277.248-.335.059-.015.102.014.16 0 .06-.015.074-.058.147-.058.102-.015.233.043.32.029.117-.015.205-.044.322-.044.175-.014.335-.19.467-.306.072-.058.13-.117.204-.16.102-.059.248-.088.32-.16.03-.044.03-.103.06-.117.058-.03.116-.03.16-.102.102-.117.131-.292.233-.409.16-.19.248-.451.278-.714.014-.291.043-.568.058-.874.014-.132.029-.307-.117-.38-.117-.058-.306.015-.38.102a3.24 3.24 0 0 0 .03-.99c-.03-.161-.044-.278-.073-.424a.098.098 0 0 1-.058-.087c.014-.044.014-.102.014-.146-.014-.073-.029-.145-.087-.204-.175-.248-.424-.554-.496-.83-.059-.205-.03-.423-.234-.57-.16-.13-.321-.13-.51-.174-.38-.088-.73-.19-1.11-.233-.175-.015-.335-.03-.51-.044-.146-.015-.365-.073-.511-.044-.117.03-.16.16-.263.19-.058.014-.16.014-.219.029-.16.029-.306.014-.466 0-.394-.058-.453.262-.628.641Z" fill="#00BCCC"/><path d="M71.352 77.865c.03 0 .044 0 .073.015-.32.117-.248.554-.277.846-.015.16 0 .276.058.422.102.263.321.423.584.51.088.03.117.059.233.073.103.015.19.015.292.015.175.014.321-.015.496-.058.015-.044.044-.059.088-.059s.102.015.146.015c.087 0 .102-.015.16-.044.16-.058.292-.102.38-.233.087-.131.146-.306.175-.467.03-.233.014-.437-.03-.656-.029-.247-.058-.35-.247-.524-.175-.16-.22-.35-.438-.438-.292-.13-.744-.116-1.05-.058-.132.015-.147.015-.234.073-.058.044-.102.087-.16.117-.117.073-.088.014-.161.145-.058.088-.058.175-.088.277-.029.03.015.03 0 .03Z" fill="#45459B"/><path d="M66.129 74.221c-.205.03-.307.058-.424.219-.058.087-.131.19-.204.262-.058.088-.102.204-.16.277-.088.131-.16.16-.088.306.058.117.073.088.058.234-.014.102-.014.204-.014.291-.015.204 0 .452-.059.641-.13.409-.13.846.059 1.24.102.174.32.174.452.335.146.175.102.466.277.641.059.058.16.073.234.131.058.044.117.117.175.175.16.16.321.336.54.35.219.015.438.015.656.044.175.014.482.204.642.058.088-.087.088-.233.205-.277.044-.014.087.015.131 0 .058-.014.058-.043.117-.058.087-.015.175.044.277.03.102-.015.16-.045.277-.045.146-.014.278-.16.394-.262.059-.044.102-.102.175-.131.088-.044.205-.058.263-.131.03-.03.03-.088.058-.102.044-.03.088-.03.132-.088.087-.087.102-.233.19-.335.13-.16.204-.38.218-.598.015-.233.03-.48.059-.714.014-.117.029-.263-.088-.306-.087-.044-.248.014-.306.087.043-.262.058-.554.014-.816a2.497 2.497 0 0 0-.058-.35.08.08 0 0 1-.044-.073c.015-.029.015-.087.015-.116a.414.414 0 0 0-.059-.175c-.131-.204-.35-.452-.408-.67-.059-.176-.03-.35-.175-.467-.132-.102-.263-.102-.423-.132-.307-.072-.599-.16-.905-.19-.131-.014-.277-.014-.409-.028-.117-.015-.292-.059-.408-.03-.088.015-.132.132-.22.161-.058.015-.13.015-.174.03a1.648 1.648 0 0 1-.38 0c-.408.014-.467.29-.612.582Z" fill="#00BCCC"/><path d="M66.96 75.898h.059c-.263.087-.205.452-.234.7a.726.726 0 0 0 .044.35c.087.203.263.349.467.422.058.014.102.058.19.058.087.015.16.015.233.015.131.014.277-.015.409-.044.014-.03.029-.044.073-.044.043 0 .087.015.116.015a.203.203 0 0 0 .132-.044c.13-.044.233-.087.306-.19.058-.116.117-.247.146-.378.03-.19.014-.35-.015-.54-.029-.204-.058-.291-.204-.422-.131-.132-.175-.277-.365-.35-.248-.102-.613-.088-.86-.044-.103.014-.117.014-.205.058-.044.03-.087.073-.131.102-.102.059-.059.015-.132.117-.014.058-.029.117-.029.219.015 0-.029-.015 0 0Z" fill="#45459B"/><path d="M70.74 71.306c-.205.044-.307.058-.424.218-.058.088-.131.19-.204.263-.058.087-.102.204-.16.277-.088.131-.161.16-.088.306.058.117.073.087.058.233-.014.102-.014.204-.014.292-.015.204 0 .452-.059.641-.13.408-.13.846.059 1.24.102.174.32.174.452.334.146.175.102.467.277.642.059.058.16.073.234.131.058.044.117.117.175.175.16.16.32.335.54.35.219.014.438.014.656.043.175.015.482.205.642.059.088-.088.088-.233.205-.277.043-.015.087.014.131 0 .058-.015.058-.044.117-.059.087-.014.175.03.277.03.102-.015.16-.044.277-.044.146-.015.277-.16.394-.262.059-.044.102-.102.175-.132.088-.043.205-.058.263-.13.03-.03.03-.088.058-.103.044-.044.088-.029.132-.087.087-.088.116-.234.19-.336.13-.16.204-.379.218-.597.015-.234.03-.481.059-.715.014-.116.029-.262-.088-.306-.088-.043-.248.015-.306.088.043-.263.058-.554.014-.817a2.498 2.498 0 0 0-.058-.35c-.03-.014-.044-.028-.044-.072.015-.044.015-.088.015-.117 0-.058-.03-.117-.059-.175-.131-.204-.35-.452-.408-.67-.059-.175-.03-.35-.175-.467-.132-.102-.263-.102-.424-.131-.306-.073-.598-.16-.904-.19-.132-.014-.277-.014-.409-.029-.117-.014-.292-.058-.408-.029-.088.015-.132.131-.22.16-.058.015-.13.015-.174.03a1.66 1.66 0 0 1-.38 0c-.408.014-.467.262-.612.583Z" fill="#3D96C7"/><path d="M71.571 72.968h.058c-.262.087-.204.451-.233.7a.726.726 0 0 0 .044.35c.087.203.263.349.467.422.058.014.102.058.19.058.087.015.16.015.233.015.131.014.277-.015.408-.044.015-.03.03-.044.073-.044.044 0 .088.015.117.015a.203.203 0 0 0 .131-.044c.132-.044.234-.087.307-.19.058-.116.117-.247.146-.378.029-.19.014-.35-.015-.54-.029-.204-.058-.291-.204-.422-.131-.132-.175-.278-.365-.35-.248-.102-.613-.088-.86-.044-.103.015-.117.015-.205.058-.044.03-.088.073-.131.102-.103.059-.059.015-.132.117-.014.073-.029.131-.029.219.015 0-.029 0 0 0Z" fill="#45459B"/><path d="M78.444 76.86c-.204.029-.307.058-.423.218-.059.088-.132.19-.205.263-.058.087-.102.204-.16.277-.088.13-.16.16-.088.306.059.116.073.087.059.233a2.066 2.066 0 0 0-.015.292c-.014.204 0 .451-.058.641-.132.408-.132.846.058 1.239.102.175.321.175.452.335.146.175.103.467.278.642.058.058.16.073.233.13.058.045.117.117.175.176.16.16.321.335.54.35.219.014.438.014.657.043.175.015.481.205.642.059.087-.088.087-.233.204-.277.044-.015.087.014.131 0 .059-.015.059-.044.117-.059.088-.014.175.044.277.03.102-.015.16-.044.278-.044.145-.015.277-.16.394-.263.058-.043.116-.102.175-.13.087-.044.204-.059.262-.132.03-.03.03-.087.059-.102.043-.03.087-.03.13-.087.088-.088.103-.234.19-.336.132-.16.205-.379.22-.597.014-.234.029-.481.058-.715.014-.116.029-.262-.088-.306-.087-.044-.248.015-.306.088.044-.263.058-.554.014-.817a2.5 2.5 0 0 0-.058-.35.08.08 0 0 1-.044-.072c.015-.03.015-.088.015-.117 0-.058-.03-.117-.059-.175-.13-.204-.35-.452-.408-.67-.058-.175-.03-.35-.175-.467-.131-.102-.263-.102-.423-.131-.307-.073-.599-.16-.905-.19-.131-.014-.277-.014-.409-.029-.116-.014-.291-.058-.408-.029-.088.015-.131.131-.219.16-.058.015-.131.015-.175.03a1.649 1.649 0 0 1-.38 0c-.408.014-.466.277-.612.583Z" fill="#00BCCC"/><path d="M79.26 78.522h.06c-.263.087-.205.451-.234.7a.726.726 0 0 0 .044.349c.087.204.262.35.467.423.058.014.102.058.19.058.087.015.16.015.233.015.131.014.277-.015.408-.044.015-.03.03-.044.073-.044.044 0 .088.015.117.015a.204.204 0 0 0 .131-.044c.132-.044.234-.087.307-.19.058-.116.116-.247.145-.379.03-.189.015-.35-.014-.539-.03-.204-.058-.291-.204-.423-.132-.13-.175-.276-.365-.35-.248-.102-.613-.087-.861-.043-.102.014-.117.014-.204.058-.044.03-.088.073-.132.102-.102.058-.058.015-.13.117 0 .073-.016.116-.03.219.03 0-.015 0 0 0Z" fill="#45459B"/><path d="M73.774 77.938c-.204.03-.306.059-.423.22-.058.087-.131.189-.204.261-.058.088-.102.205-.16.277-.088.132-.161.16-.088.306.058.117.073.088.058.234-.014.102-.014.204-.014.291-.015.204 0 .452-.059.642-.131.408-.131.845.059 1.239.102.175.32.175.452.335.146.175.102.467.277.641.059.059.16.073.234.132.058.043.116.116.175.174.16.16.32.336.54.35.219.015.438.015.656.044.175.015.482.204.642.058.088-.087.088-.233.205-.276.043-.015.087.014.131 0 .058-.015.058-.044.117-.059.087-.014.175.044.277.03.102-.015.16-.044.277-.044.146-.015.277-.16.394-.263.059-.043.102-.102.175-.131.088-.044.204-.058.263-.131.03-.03.03-.088.058-.102.044-.03.088-.03.132-.088.087-.087.102-.233.19-.335.13-.16.203-.379.218-.598.015-.233.03-.48.059-.714.014-.117.029-.262-.088-.306-.088-.044-.248.014-.306.087.043-.262.058-.553.014-.816a2.496 2.496 0 0 0-.058-.35.08.08 0 0 1-.044-.073c.015-.029.015-.087.015-.116a.414.414 0 0 0-.059-.175c-.131-.204-.35-.452-.408-.67-.059-.176-.03-.35-.175-.467-.132-.102-.263-.102-.424-.131-.306-.073-.598-.16-.904-.19-.132-.014-.277-.014-.409-.029-.117-.015-.292-.058-.408-.03-.088.015-.132.132-.22.161-.058.015-.13.015-.174.03a1.648 1.648 0 0 1-.38 0c-.408.014-.467.276-.613.582Z" fill="#00BCCC"/><path d="M74.592 79.615h.058c-.263.087-.204.452-.234.7a.726.726 0 0 0 .044.35c.088.203.263.35.467.422.059.015.102.058.19.058.087.015.16.015.233.015a1.3 1.3 0 0 0 .409-.044c.014-.029.03-.043.073-.043.044 0 .087.014.117.014a.203.203 0 0 0 .13-.044c.132-.043.234-.087.307-.19.059-.116.117-.247.146-.378.03-.19.015-.35-.014-.54-.03-.204-.059-.291-.205-.422-.13-.132-.175-.277-.364-.35-.248-.102-.613-.088-.861-.044-.102.015-.117.015-.205.058-.043.03-.087.073-.13.102-.103.059-.06.015-.132.117-.015.058-.015.117-.03.219.015-.015-.029-.015 0 0Z" fill="#45459B"/><path d="M83.565 73.434c-.204.044-.306.058-.423.219-.058.087-.131.19-.204.262-.058.087-.102.204-.16.277-.088.131-.161.16-.088.306.058.117.073.088.058.233-.014.102-.014.205-.014.292-.015.204 0 .452-.059.641-.131.409-.131.846.059 1.24.102.174.32.174.452.335.146.175.102.466.277.641.059.058.16.073.234.131.058.044.117.117.175.175.16.16.32.335.54.35.219.015.438.015.656.044.175.014.482.204.642.058.088-.087.088-.233.205-.277.043-.014.087.015.131 0 .058-.014.058-.044.117-.058.087-.015.175.044.277.029.102-.015.16-.03.277-.03.146-.014.277-.16.394-.262.058-.043.102-.102.175-.13.088-.044.204-.06.263-.132.03-.03.03-.087.058-.102.044-.044.088-.03.132-.088.087-.087.102-.233.19-.335.13-.16.203-.379.218-.597.015-.234.03-.482.058-.715.015-.116.03-.262-.087-.306-.088-.044-.248.015-.306.088.043-.263.058-.554.014-.817a2.511 2.511 0 0 0-.058-.35.08.08 0 0 1-.044-.072c.015-.044.015-.088.015-.117a.414.414 0 0 0-.059-.175c-.131-.204-.35-.452-.408-.67-.059-.175-.03-.35-.175-.467-.132-.102-.263-.102-.424-.131-.306-.073-.598-.16-.904-.19-.132-.014-.278-.014-.409-.029-.117-.014-.292-.058-.408-.029-.088.015-.132.131-.22.16-.058.015-.13.015-.174.03a1.649 1.649 0 0 1-.38 0c-.423.014-.467.276-.613.568Z" fill="#3D96C7"/><path d="M84.382 75.11h.059c-.263.088-.204.452-.234.7a.726.726 0 0 0 .044.35c.088.204.263.35.467.423.058.014.102.058.19.058.087.015.16.015.233.015.131.014.277-.015.409-.044.014-.03.029-.044.073-.044.029 0 .087.015.116.015.059 0 .088-.015.132-.03.131-.043.233-.087.306-.189.058-.117.117-.248.146-.379.03-.19.015-.35-.014-.54-.03-.203-.059-.29-.205-.422-.131-.131-.175-.277-.365-.35-.248-.102-.612-.087-.86-.044-.103.015-.117.015-.205.059-.044.029-.087.073-.131.102-.102.058-.058.014-.131.116a.603.603 0 0 0-.03.204c.015 0-.029-.014 0 0Z" fill="#45459B"/><path d="M81.654 80.796c-.204.029-.306.058-.423.218-.059.088-.131.19-.204.263-.059.087-.103.204-.161.276-.088.132-.16.16-.088.307.059.116.073.087.059.233-.015.102-.015.204-.015.291-.014.204 0 .452-.058.642-.132.408-.132.845.058 1.239.102.175.321.175.453.335.145.175.102.467.277.642.058.058.16.072.233.13.059.044.117.117.175.176.16.16.321.335.54.35.22.014.438.014.657.043.175.015.481.204.642.059.087-.088.087-.234.204-.277.044-.015.088.014.132 0 .058-.015.058-.044.116-.059.088-.014.175.044.277.03.103-.015.161-.044.278-.044.146-.015.277-.16.394-.263.058-.043.102-.102.175-.13.087-.045.204-.06.262-.132.03-.03.03-.088.059-.102.044-.03.087-.03.131-.088.088-.087.117-.233.19-.335.131-.16.204-.379.219-.597.014-.234.029-.482.058-.715.015-.116.03-.262-.087-.306-.088-.044-.249.015-.307.088.044-.263.058-.554.015-.817a2.482 2.482 0 0 0-.059-.35.08.08 0 0 1-.043-.073c.014-.029.014-.087.014-.116 0-.058-.03-.117-.058-.175-.132-.204-.35-.452-.409-.67-.058-.175-.029-.35-.175-.467-.131-.102-.263-.102-.423-.131-.306-.073-.598-.16-.905-.19-.131-.014-.277-.014-.408-.029-.117-.015-.292-.058-.409-.03-.087.015-.131.132-.219.161-.058.015-.131.015-.175.03a1.649 1.649 0 0 1-.38 0c-.408.014-.466.291-.612.583Z" fill="#00BCCC"/><path d="M82.471 82.472h.058c-.262.087-.204.452-.233.7a.726.726 0 0 0 .044.35c.087.203.262.35.467.422.058.015.102.058.19.058.087.015.16.015.233.015.131.015.277-.014.408-.044.015-.029.03-.043.073-.043.03 0 .088.014.117.014a.204.204 0 0 0 .131-.044c.132-.043.234-.087.307-.189a1.7 1.7 0 0 0 .146-.38c.029-.189.014-.349-.015-.538-.03-.205-.058-.292-.204-.423-.132-.131-.175-.277-.365-.35-.248-.102-.613-.087-.86-.044-.103.015-.118.015-.205.059-.044.029-.088.073-.132.102-.102.058-.058.014-.13.116-.015.058-.015.117-.03.219.015 0-.03-.015 0 0Z" fill="#45459B"/><path d="m60.89 99.002-3.56-16.734 26.104 1.88-5.895 16.064-16.649-1.21ZM59.504 90.956l20.574 1.487M75.496 83.565l-3.268 16.166M64.8 82.778l.935 16.472" stroke="#F1653A" stroke-width=".36" stroke-miterlimit="10" stroke-linecap="round" stroke-linejoin="round"/><path d="M96.129 67.968c.175-.234.32-.481.452-.744.409-.772.992-1.458 1.824-1.807.875-.38 1.911-.306 2.772.102.861.408 1.547 1.166 1.97 2.011.248.51.409 1.094.277 1.647-.16.656-.685 1.152-1.182 1.59a150.073 150.073 0 0 1-11.585 9.285c-.146.117-.423.292-.467.481-.088.248.131.481.058.714-.131.38-.904.059-1.21.044-.672-.044-1.314-.32-1.956-.525-.423-.13-.876-.19-1.299-.35a12.68 12.68 0 0 0-1.371-.495c.262.073 1.371-.744 1.634-.904.554-.32 1.094-.641 1.605-1.035 1.109-.816 1.926-1.866 2.787-2.945 1.415-1.778 2.83-3.542 4.231-5.306.497-.568 1.022-1.137 1.46-1.763ZM77.7 33.332c.102 1.72.233 3.528 1.138 5 1.109 1.779 2.758 3.367 4.844 3.484 1.299.073 4.976-3.09 5.238-3.848 1.007-3.003 1.211-6.283.555-9.373-.292-1.356-.759-2.74-1.722-3.732-2.451-2.507-6.916-1.487-8.93 1.064-1.765 2.23-1.284 4.796-1.123 7.405Z" fill="#45459B"/><path d="M90.482 31.787c.131 0 .248.015.365.088a.674.674 0 0 1 .262.306c.19.335.234.743.146 1.122-.073.35-.277.656-.467.948-.102.16-.204.335-.306.495-.19.306-.394.627-.715.787-.321.175-.774.131-.963-.19a1.045 1.045 0 0 1-.102-.364c-.132-1.18.204-3.192 1.78-3.192ZM77.028 31.787a.645.645 0 0 0-.364.088.674.674 0 0 0-.263.306c-.19.335-.248.743-.146 1.122.073.35.277.656.467.948.102.16.204.335.306.495.19.306.394.627.715.787.321.175.788.131.963-.19.059-.116.088-.232.102-.364.132-1.18-.204-3.192-1.78-3.192Z" fill="#45459B"/><path d="M86.498 30.592c.234.073.482.043.73.058.452.03.904.16 1.298.408.321.204.818.394.905-.16.058-.335-.19-.452-.423-.627-.642-.496-1.328-.773-2.145-.816-.204-.015-.438 0-.613.116-.423.292-.175.89.248 1.02ZM81.756 30.592c-.234.073-.481.043-.73.058-.452.03-.904.16-1.298.408-.321.204-.817.394-.92-.16-.058-.335.19-.452.424-.627.642-.496 1.313-.773 2.145-.816.204-.015.437 0 .613.116.452.292.19.89-.234 1.02Z" fill="#ED6636"/><path d="M83.23 33.711c-.16.233-.394.438-.496.7a.936.936 0 0 0 .364 1.122c.365.248.934.234 1.284-.029.38-.291.482-.772.54-1.224.059-.583.073-1.181-.175-1.72-.175-.35-.802-.86-1.138-.365-.117.16-.044.452-.058.627a2.05 2.05 0 0 1-.321.89Z" fill="#F2663B"/><path d="M81.187 32.618c0 .598-.277 1.093-.598 1.093-.336 0-.599-.48-.599-1.093 0-.598.263-1.093.599-1.093.32.014.598.495.598 1.093Z" fill="#000"/><path d="M19.421 36.802c0 .218-.204.408-.452.408-.248 0-.452-.175-.452-.408 0-.22.204-.409.452-.409.248.015.452.19.452.409ZM15.088 43.61c0 .218-.205.407-.453.407-.248 0-.452-.175-.452-.408 0-.218.204-.408.452-.408.263 0 .453.175.453.408ZM10.156 51.48c0 .22-.205.409-.453.409-.248 0-.452-.175-.452-.408 0-.219.204-.408.452-.408.263 0 .453.175.453.408ZM8.346 45.68c0 .276-.248.48-.54.48-.291 0-.54-.218-.54-.48 0-.278.234-.497.54-.497.307.015.54.234.54.496ZM13.016 39.367c0 .277-.248.481-.54.481-.292 0-.54-.218-.54-.48 0-.278.233-.497.54-.497.306 0 .54.22.54.496ZM6.012 54.003c0 .277-.248.48-.54.48-.292 0-.54-.218-.54-.48 0-.277.233-.496.54-.496.306 0 .54.219.54.496ZM2.086 51.233c0 .13-.117.247-.277.247-.146 0-.277-.116-.277-.247s.117-.248.277-.248c.16 0 .277.117.277.248ZM11.658 42.603c0 .131-.117.247-.277.247-.146 0-.277-.116-.277-.247s.117-.248.277-.248c.146 0 .277.102.277.248ZM11.118 47.632c0 .131-.117.248-.277.248-.146 0-.277-.117-.277-.248 0-.13.117-.247.277-.247.146.014.277.116.277.247ZM14.226 60.037c0 .131-.117.248-.277.248-.146 0-.277-.117-.277-.248 0-.13.117-.247.277-.247.16 0 .277.116.277.247ZM15.19 35.97c0 .131-.117.248-.278.248-.146 0-.277-.117-.277-.248 0-.13.117-.247.277-.247.16.014.277.116.277.247ZM2.262 57.56c.248 0 .452.174.452.408 0 .218-.204.408-.452.408-.248 0-.453-.175-.453-.408a.448.448 0 0 1 .453-.409ZM6.58 64.367c.249 0 .453.175.453.408 0 .219-.204.408-.452.408-.248 0-.453-.175-.453-.408a.437.437 0 0 1 .453-.408ZM11.513 72.239c.248 0 .452.175.452.408 0 .218-.204.408-.452.408-.248 0-.453-.175-.453-.408a.447.447 0 0 1 .453-.408ZM4.188 75.242c.248 0 .452.174.452.408 0 .218-.204.408-.452.408-.248 0-.453-.175-.453-.408a.448.448 0 0 1 .453-.408ZM.452 71.99c.248 0 .453.176.453.41 0 .218-.205.407-.453.407-.248 0-.452-.175-.452-.408a.437.437 0 0 1 .452-.408ZM13.424 66.364c.306 0 .54.219.54.496 0 .262-.248.48-.54.48-.292 0-.54-.218-.54-.48 0-.277.234-.496.54-.496ZM2.262 66.845c.306 0 .54.219.54.496 0 .262-.248.48-.54.48-.292 0-.54-.218-.54-.48 0-.277.248-.496.54-.496ZM8.755 60.038c.306 0 .54.218.54.495 0 .263-.248.481-.54.481-.292 0-.54-.218-.54-.48 0-.263.234-.496.54-.496ZM9.587 55.154c.306 0 .54.219.54.496 0 .262-.248.48-.54.48-.292 0-.54-.218-.54-.48s.233-.496.54-.496ZM15.759 74.673c.306 0 .54.219.54.496 0 .262-.248.48-.54.48-.292 0-.54-.218-.54-.48 0-.277.233-.496.54-.496ZM19.42 72.151c.147 0 .278.102.278.248 0 .13-.117.247-.277.247-.146 0-.277-.102-.277-.247 0-.146.117-.248.277-.248ZM6.58 70.081c.146 0 .277.102.277.248 0 .13-.116.247-.277.247-.145 0-.276-.102-.276-.247a.271.271 0 0 1 .276-.248ZM9.849 63.522c.146 0 .277.102.277.247 0 .131-.117.248-.277.248-.146 0-.277-.102-.277-.248 0-.145.131-.247.277-.247ZM2.976 61.889c.146 0 .277.102.277.247 0 .131-.116.248-.277.248-.145 0-.277-.102-.277-.248 0-.145.132-.247.277-.247ZM10.389 68.55c.146 0 .277.103.277.248 0 .131-.117.248-.277.248-.146 0-.277-.102-.277-.248 0-.145.131-.247.277-.247ZM6.318 56.904c.146 0 .277.101.277.247 0 .131-.117.247-.277.247-.146 0-.277-.101-.277-.247s.131-.248.277-.248ZM15.19 53.26c.145 0 .276.101.276.247 0 .13-.116.247-.277.247-.145 0-.277-.102-.277-.247 0-.146.132-.248.277-.248ZM19.363 119.615c-.248 0-.452-.175-.452-.409 0-.218.204-.408.452-.408.248 0 .452.175.452.408 0 .234-.204.409-.452.409ZM15.044 112.807c-.248 0-.453-.175-.453-.408 0-.219.205-.408.453-.408.248 0 .452.175.452.408 0 .233-.204.408-.452.408ZM10.112 104.935c-.248 0-.452-.175-.452-.408 0-.218.204-.408.452-.408.248 0 .452.175.452.408 0 .233-.204.408-.452.408ZM8.2 110.81c-.306 0-.54-.219-.54-.496 0-.262.249-.481.54-.481.292 0 .54.219.54.481 0 .263-.233.496-.54.496ZM12.87 117.136c-.307 0-.54-.218-.54-.495 0-.263.248-.481.54-.481.292 0 .54.218.54.481 0 .262-.234.495-.54.495ZM5.866 102.501c-.307 0-.54-.219-.54-.496 0-.262.248-.481.54-.481.292 0 .54.219.54.481 0 .263-.234.496-.54.496ZM2.218 105.022c-.146 0-.277-.102-.277-.247 0-.131.116-.248.277-.248.145 0 .276.102.276.248a.271.271 0 0 1-.276.247ZM11.775 113.652c-.146 0-.277-.102-.277-.248 0-.131.117-.247.277-.247.146 0 .277.102.277.247 0 .146-.131.248-.277.248ZM11.235 108.623c-.146 0-.277-.102-.277-.248 0-.131.117-.247.277-.247.146 0 .277.102.277.247 0 .146-.131.248-.277.248ZM14.358 96.218c-.146 0-.277-.102-.277-.248 0-.131.116-.248.277-.248.145 0 .277.102.277.248 0 .146-.132.248-.277.248ZM15.306 120.27c-.146 0-.277-.102-.277-.248 0-.131.117-.247.277-.247.146 0 .277.102.277.247 0 .146-.117.248-.277.248ZM2.218 98.04c0-.218.204-.408.452-.408.248 0 .453.175.453.408 0 .219-.205.408-.453.408-.262 0-.452-.174-.452-.408ZM6.537 91.247c0-.218.204-.408.452-.408.248 0 .453.175.453.408 0 .219-.205.409-.453.409-.248-.015-.452-.19-.452-.409ZM11.469 83.376c0-.219.204-.409.452-.409.248 0 .453.175.453.409 0 .218-.205.408-.453.408-.248-.015-.452-.19-.452-.408ZM4.144 80.358c0-.219.204-.408.452-.408.248 0 .453.175.453.408 0 .219-.205.408-.453.408-.248 0-.452-.175-.452-.408ZM.409 83.624c0-.22.204-.409.452-.409.248 0 .452.175.452.409 0 .218-.204.408-.452.408-.263-.015-.452-.19-.452-.408ZM13.278 89.163c0-.277.248-.481.54-.481.292 0 .54.218.54.48 0 .278-.234.496-.54.496-.306 0-.54-.218-.54-.495ZM2.116 88.682c0-.277.248-.481.54-.481.291 0 .54.218.54.48 0 .278-.234.496-.54.496-.292-.014-.54-.233-.54-.495ZM8.609 95.49c0-.278.248-.482.54-.482.292 0 .54.219.54.481 0 .277-.234.496-.54.496-.307-.015-.54-.233-.54-.496ZM9.44 100.373c0-.277.249-.481.54-.481.293 0 .54.218.54.481 0 .277-.233.495-.54.495-.306-.014-.54-.233-.54-.495ZM15.613 80.854c0-.277.248-.481.54-.481.292 0 .54.218.54.48 0 .278-.234.496-.54.496-.307-.014-.54-.233-.54-.495ZM19.538 83.623c0-.13.117-.247.277-.247.146 0 .277.116.277.247s-.117.248-.277.248c-.16-.015-.277-.117-.277-.248ZM6.712 85.693c0-.13.117-.247.277-.247.146 0 .277.116.277.247s-.117.248-.277.248c-.16 0-.277-.117-.277-.248ZM9.98 92.253c0-.131.117-.248.277-.248.146 0 .277.117.277.248 0 .13-.116.247-.277.247-.16 0-.276-.116-.276-.247ZM3.108 93.87c0-.13.117-.247.277-.247.146 0 .277.117.277.248 0 .13-.117.247-.277.247-.16 0-.277-.116-.277-.247ZM10.52 87.21c0-.132.117-.248.277-.248.146 0 .277.116.277.247s-.116.248-.277.248c-.16 0-.277-.117-.277-.248ZM6.435 98.87c0-.13.116-.247.277-.247.145 0 .277.117.277.248 0 .13-.117.247-.277.247-.146 0-.277-.116-.277-.247ZM51.756 48.915c.248 0 .452.175.452.408 0 .219-.204.408-.452.408-.248 0-.452-.174-.452-.408 0-.233.204-.408.452-.408ZM57.666 78.609c-.249 0-.453-.175-.453-.408 0-.219.204-.408.453-.408.248 0 .452.174.452.408 0 .233-.205.408-.453.408ZM53.434 76.174c-.306 0-.54-.218-.54-.495 0-.263.248-.481.54-.481.292 0 .54.219.54.48 0 .278-.248.496-.54.496ZM49.771 78.696c-.145 0-.277-.102-.277-.248 0-.13.117-.247.277-.247.146 0 .277.102.277.247 0 .146-.131.248-.277.248ZM61.911 69.891c-.145 0-.277-.102-.277-.247 0-.131.117-.248.277-.248.146 0 .277.102.277.248 0 .145-.116.247-.277.247ZM49.772 71.714c0-.219.204-.408.452-.408.248 0 .452.175.452.408 0 .219-.204.408-.452.408-.248-.014-.452-.19-.452-.408ZM54.09 64.906c0-.218.205-.408.453-.408.248 0 .452.175.452.408 0 .219-.204.408-.452.408-.248 0-.452-.174-.452-.408ZM59.023 57.035c0-.219.204-.408.452-.408.248 0 .452.174.452.408 0 .218-.204.408-.452.408-.248 0-.453-.175-.453-.408ZM51.698 54.032c0-.219.204-.408.452-.408.248 0 .452.175.452.408 0 .219-.204.408-.452.408-.248 0-.452-.19-.452-.408ZM47.962 57.282c0-.218.204-.408.452-.408.248 0 .453.175.453.408 0 .22-.204.409-.453.409-.248 0-.452-.19-.452-.409ZM60.832 62.836c0-.276.248-.48.54-.48.291 0 .54.218.54.48 0 .277-.234.496-.54.496-.292-.014-.54-.233-.54-.496ZM49.684 62.34c0-.276.248-.48.54-.48.292 0 .54.218.54.48 0 .278-.234.496-.54.496-.307 0-.54-.218-.54-.495ZM56.163 69.148c0-.277.248-.48.54-.48.291 0 .54.218.54.48 0 .277-.234.496-.54.496-.292 0-.54-.219-.54-.496ZM56.994 74.032c0-.277.248-.481.54-.481.292 0 .54.218.54.48 0 .278-.233.496-.54.496-.292 0-.54-.218-.54-.495ZM54.266 59.352c0-.13.116-.247.277-.247.145 0 .276.116.276.247s-.116.248-.276.248c-.146 0-.277-.102-.277-.248ZM57.534 65.912c0-.131.117-.248.277-.248.146 0 .277.117.277.248 0 .13-.117.247-.277.247-.16 0-.277-.102-.277-.247ZM50.662 67.544c0-.13.116-.247.276-.247.146 0 .277.117.277.248 0 .13-.116.247-.277.247-.145-.014-.276-.116-.276-.248ZM58.074 60.883c0-.131.117-.248.277-.248.146 0 .277.117.277.248 0 .13-.117.247-.277.247-.16-.014-.277-.116-.277-.247ZM54.003 72.53c0-.131.117-.248.277-.248.146 0 .277.117.277.248 0 .13-.117.247-.277.247-.16 0-.277-.102-.277-.247ZM15.306 102.501c0-.131.117-.248.277-.248.146 0 .277.117.277.248s-.116.247-.277.247c-.145 0-.277-.116-.277-.247ZM20.851 144.775c-.248 0-.452-.175-.452-.408 0-.219.204-.409.452-.409.248 0 .453.175.453.409a.448.448 0 0 1-.453.408ZM16.532 137.967c-.248 0-.452-.175-.452-.408 0-.219.204-.408.452-.408.248 0 .453.175.453.408 0 .233-.205.408-.453.408ZM11.6 130.096c-.248 0-.452-.175-.452-.409 0-.218.204-.408.452-.408.248 0 .453.175.453.408 0 .234-.22.409-.453.409ZM9.689 135.985c-.307 0-.54-.219-.54-.496 0-.262.248-.481.54-.481.292 0 .54.219.54.481s-.234.496-.54.496ZM14.358 142.297c-.306 0-.54-.219-.54-.496 0-.262.248-.481.54-.481.292 0 .54.219.54.481s-.234.496-.54.496ZM7.354 127.661c-.306 0-.54-.219-.54-.495 0-.263.248-.482.54-.482.292 0 .54.219.54.482 0 .262-.233.495-.54.495ZM3.691 130.182c-.145 0-.277-.102-.277-.247 0-.131.117-.248.277-.248.146 0 .277.102.277.248 0 .145-.116.247-.277.247ZM13.263 138.812c-.145 0-.277-.102-.277-.247 0-.131.117-.248.277-.248.146 0 .277.102.277.248 0 .145-.131.247-.277.247ZM12.723 133.783c-.145 0-.277-.102-.277-.248 0-.131.117-.247.277-.247.146 0 .277.102.277.247 0 .146-.13.248-.277.248ZM16.794 145.445c-.145 0-.276-.102-.276-.248 0-.131.116-.247.276-.247.146 0 .277.102.277.247 0 .146-.13.248-.277.248ZM3.692 123.201c0-.219.204-.409.452-.409.248 0 .452.175.452.409 0 .218-.204.408-.452.408-.248 0-.452-.175-.452-.408ZM10.915 125.533c0-.277.248-.481.54-.481.291 0 .54.219.54.481 0 .277-.234.496-.54.496-.293 0-.54-.219-.54-.496ZM7.923 124.031c0-.131.117-.247.277-.247.146 0 .277.116.277.247s-.117.248-.277.248c-.16 0-.277-.117-.277-.248ZM16.795 127.661c0-.131.116-.248.277-.248.145 0 .277.117.277.248s-.117.247-.277.247c-.16 0-.277-.102-.277-.247ZM40.593 102.064c-.248 0-.452-.175-.452-.409 0-.218.205-.408.453-.408.248 0 .452.175.452.408a.437.437 0 0 1-.453.409ZM36.26 95.27c-.248 0-.453-.174-.453-.407 0-.22.205-.409.453-.409.248 0 .452.175.452.409 0 .233-.204.408-.452.408ZM31.328 87.399c-.248 0-.452-.175-.452-.408 0-.219.204-.408.452-.408.248 0 .452.175.452.408 0 .233-.204.408-.452.408ZM29.431 93.274c-.306 0-.54-.22-.54-.496 0-.263.248-.481.54-.481.292 0 .54.219.54.48 0 .263-.234.497-.54.497ZM34.1 99.6c-.306 0-.54-.219-.54-.496 0-.262.248-.48.54-.48.292 0 .54.218.54.48 0 .277-.233.496-.54.496ZM27.096 84.965c-.306 0-.54-.22-.54-.496 0-.262.248-.481.54-.481.292 0 .54.219.54.48 0 .263-.233.497-.54.497ZM23.433 87.486c-.145 0-.276-.102-.276-.248 0-.13.116-.247.276-.247.146 0 .277.102.277.247 0 .146-.116.248-.277.248ZM33.005 96.115c-.145 0-.276-.101-.276-.247 0-.131.116-.247.276-.247.146 0 .277.101.277.247a.271.271 0 0 1-.276.248ZM32.466 91.072c-.146 0-.277-.102-.277-.248 0-.13.117-.247.277-.247.145 0 .277.102.277.247 0 .146-.132.248-.277.248ZM35.574 78.681c-.146 0-.277-.102-.277-.247 0-.131.116-.248.277-.248.145 0 .276.102.276.248 0 .145-.116.247-.276.247ZM36.537 102.734c-.146 0-.277-.102-.277-.248 0-.131.116-.247.277-.247.145 0 .277.101.277.247s-.132.248-.277.248ZM23.434 80.504c0-.219.204-.408.452-.408.248 0 .453.175.453.408 0 .219-.205.408-.453.408-.248 0-.452-.19-.452-.408ZM27.753 73.711c0-.219.204-.408.452-.408.248 0 .453.175.453.408 0 .219-.205.408-.453.408-.248-.014-.452-.19-.452-.408ZM32.7 65.84c0-.22.204-.409.452-.409.248 0 .452.175.452.408 0 .219-.204.409-.452.409-.263-.015-.453-.19-.453-.409ZM25.36 62.822c0-.219.204-.408.452-.408.248 0 .453.175.453.408 0 .218-.205.408-.453.408-.248 0-.452-.19-.452-.408ZM21.625 66.073c0-.22.204-.409.452-.409.248 0 .452.175.452.409 0 .218-.204.408-.452.408-.248 0-.452-.175-.452-.408ZM34.494 71.626c0-.276.248-.48.54-.48.292 0 .54.218.54.48 0 .277-.233.496-.54.496-.292-.014-.54-.233-.54-.496ZM23.346 71.13c0-.276.248-.48.54-.48.292 0 .54.218.54.48 0 .278-.233.496-.54.496-.291 0-.54-.218-.54-.495ZM29.825 77.953c0-.277.248-.481.54-.481.292 0 .54.219.54.48 0 .278-.234.497-.54.497-.292-.015-.54-.234-.54-.496ZM30.657 82.836c0-.277.248-.48.54-.48.291 0 .54.218.54.48 0 .277-.234.496-.54.496-.292-.015-.54-.233-.54-.496ZM36.829 63.317c0-.276.248-.48.54-.48.292 0 .54.218.54.48 0 .277-.234.496-.54.496-.292-.015-.54-.233-.54-.496ZM40.769 66.072c0-.13.116-.247.276-.247.146 0 .277.116.277.247s-.116.248-.277.248c-.16 0-.276-.102-.276-.248ZM27.943 68.157c0-.131.116-.248.277-.248.145 0 .277.117.277.248 0 .13-.117.247-.277.247-.16-.014-.277-.116-.277-.247ZM31.197 74.716c0-.13.116-.247.277-.247.145 0 .276.117.276.248 0 .13-.116.247-.276.247-.146-.014-.277-.117-.277-.248ZM24.338 76.335c0-.131.117-.248.277-.248.146 0 .277.117.277.248 0 .13-.116.247-.277.247-.16 0-.276-.116-.276-.247ZM31.736 69.673c0-.131.117-.248.277-.248.146 0 .277.117.277.248 0 .13-.116.247-.277.247-.145 0-.277-.116-.277-.247ZM27.666 81.335c0-.131.116-.248.276-.248.146 0 .277.117.277.248 0 .13-.116.247-.277.247-.16-.014-.276-.116-.276-.247ZM36.537 84.964c0-.13.117-.247.277-.247.146 0 .277.116.277.247s-.117.248-.277.248c-.16 0-.277-.117-.277-.248ZM37.106 26.058c0 .219-.204.408-.452.408-.248 0-.453-.175-.453-.408 0-.218.205-.408.453-.408.262.015.452.19.452.408ZM32.174 33.93c0 .218-.204.408-.452.408-.248 0-.452-.175-.452-.408 0-.219.204-.408.452-.408.248.014.452.19.452.408ZM30.365 28.143c0 .277-.248.48-.54.48-.292 0-.54-.218-.54-.48 0-.277.233-.496.54-.496.306 0 .54.219.54.496ZM35.034 21.816c0 .277-.248.481-.54.481-.292 0-.54-.218-.54-.48 0-.278.234-.496.54-.496.307.014.54.233.54.495ZM28.03 36.452c0 .277-.248.48-.54.48-.291 0-.54-.218-.54-.48 0-.277.234-.496.54-.496.307.015.54.233.54.496ZM24.105 33.696c0 .131-.117.248-.277.248-.146 0-.277-.117-.277-.248 0-.13.116-.247.277-.247.16 0 .277.102.277.247ZM33.662 25.052c0 .131-.117.247-.277.247-.146 0-.277-.116-.277-.247s.117-.247.277-.247c.16.014.277.116.277.247ZM33.122 30.096c0 .13-.117.247-.277.247-.146 0-.277-.116-.277-.247s.117-.248.277-.248c.16 0 .277.117.277.248ZM36.245 42.5c0 .132-.117.248-.277.248-.146 0-.277-.116-.277-.247s.116-.248.277-.248c.16 0 .277.102.277.248ZM24.28 40.023c.248 0 .453.175.453.408 0 .219-.205.408-.453.408-.248 0-.452-.175-.452-.408 0-.233.204-.408.452-.408ZM28.6 46.83c.247 0 .452.176.452.409 0 .219-.205.408-.453.408-.248 0-.452-.175-.452-.408 0-.233.204-.408.452-.408ZM33.531 54.702c.248 0 .453.175.453.409 0 .218-.205.408-.453.408-.248 0-.452-.175-.452-.408a.437.437 0 0 1 .452-.409ZM26.206 57.705c.248 0 .453.175.453.408 0 .22-.205.409-.453.409-.248 0-.452-.175-.452-.409a.437.437 0 0 1 .452-.408ZM22.47 54.455c.249 0 .453.175.453.408 0 .218-.204.408-.452.408-.248 0-.453-.175-.453-.408 0-.233.205-.408.453-.408ZM35.443 48.813c.306 0 .54.219.54.496 0 .262-.248.48-.54.48-.292 0-.54-.218-.54-.48 0-.263.233-.496.54-.496ZM24.28 49.309c.307 0 .54.219.54.495 0 .263-.248.481-.54.481-.292 0-.54-.218-.54-.48 0-.263.248-.496.54-.496ZM30.773 42.501c.307 0 .54.219.54.496 0 .262-.248.48-.54.48-.291 0-.54-.218-.54-.48 0-.277.234-.496.54-.496ZM31.59 37.618c.307 0 .54.218.54.495 0 .263-.248.481-.54.481-.291 0-.54-.218-.54-.48 0-.263.249-.496.54-.496ZM37.777 57.137c.307 0 .54.218.54.495 0 .263-.248.481-.54.481-.291 0-.54-.218-.54-.48 0-.278.234-.496.54-.496ZM41.425 54.615c.146 0 .277.102.277.247 0 .131-.117.248-.277.248-.146 0-.277-.102-.277-.248 0-.145.131-.247.277-.247ZM28.599 52.53c.146 0 .277.102.277.248 0 .13-.117.247-.277.247-.146 0-.277-.102-.277-.247 0-.146.131-.248.277-.248ZM31.867 45.97c.146 0 .277.102.277.248 0 .131-.116.248-.277.248-.145 0-.277-.102-.277-.248 0-.146.132-.247.277-.247ZM24.995 44.352c.146 0 .277.103.277.248 0 .131-.117.247-.277.247-.146 0-.277-.101-.277-.247a.283.283 0 0 1 .277-.248ZM32.407 51.014c.146 0 .277.102.277.248 0 .13-.116.247-.277.247-.145 0-.277-.102-.277-.247 0-.146.132-.248.277-.248ZM28.336 39.353c.146 0 .277.102.277.247 0 .131-.116.248-.277.248-.145 0-.277-.102-.277-.248 0-.145.117-.247.277-.247ZM37.208 35.723c.146 0 .277.102.277.247 0 .131-.117.248-.277.248-.146 0-.277-.102-.277-.248 0-.145.117-.247.277-.247ZM130.01 23.449c0 .218-.204.408-.452.408-.248 0-.453-.175-.453-.408 0-.219.205-.408.453-.408.248 0 .452.175.452.408ZM125.691 30.242c0 .218-.204.408-.452.408-.248 0-.453-.175-.453-.408 0-.219.205-.408.453-.408.248 0 .452.19.452.408ZM120.759 38.114c0 .218-.204.408-.452.408-.248 0-.453-.175-.453-.408 0-.22.205-.409.453-.409.248 0 .452.19.452.409ZM123.619 26c0 .277-.248.48-.54.48-.292 0-.54-.218-.54-.48 0-.277.234-.496.54-.496.292.015.54.233.54.496ZM122.247 29.236c0 .13-.117.247-.277.247-.146 0-.277-.116-.277-.247s.116-.248.277-.248c.16 0 .277.117.277.248ZM121.707 34.28c0 .13-.117.247-.277.247-.146 0-.277-.117-.277-.248 0-.13.117-.247.277-.247.16 0 .277.116.277.247ZM124.829 46.67c0 .131-.116.247-.277.247-.145 0-.276-.116-.276-.247s.116-.248.276-.248c.146.015.277.117.277.248ZM125.778 22.618c0 .13-.117.247-.277.247-.146 0-.277-.116-.277-.247s.117-.248.277-.248c.16 0 .277.117.277.248ZM119.344 46.67c.306 0 .539.219.539.496 0 .262-.248.481-.539.481-.292 0-.54-.219-.54-.481 0-.277.248-.496.54-.496ZM120.175 41.787c.307 0 .54.219.54.496 0 .262-.248.48-.54.48-.291 0-.54-.218-.54-.48 0-.263.234-.496.54-.496ZM126.348 61.306c.306 0 .539.219.539.495 0 .263-.248.481-.539.481-.292 0-.54-.218-.54-.48 0-.263.248-.496.54-.496ZM130.01 58.784c.145 0 .276.102.276.248 0 .13-.116.247-.276.247-.146 0-.277-.102-.277-.248 0-.145.131-.247.277-.247ZM120.438 50.154c.145 0 .277.102.277.248 0 .13-.117.247-.277.247-.146 0-.277-.102-.277-.247a.282.282 0 0 1 .277-.248ZM120.978 55.198c.145 0 .277.102.277.247 0 .132-.117.248-.277.248-.146 0-.277-.102-.277-.248 0-.145.131-.247.277-.247ZM125.778 39.907c.146 0 .277.101.277.247 0 .131-.117.247-.277.247-.146 0-.277-.101-.277-.247s.131-.248.277-.248ZM126.202 67.487c0-.277.248-.481.54-.481.291 0 .539.218.539.48 0 .277-.233.496-.539.496-.292 0-.54-.219-.54-.495ZM130.127 70.256c0-.131.116-.248.277-.248.145 0 .276.117.276.248 0 .13-.116.247-.276.247-.146 0-.277-.116-.277-.247ZM141.931 74.032c-.248 0-.452-.175-.452-.408 0-.22.204-.409.452-.409.248 0 .453.175.453.409a.438.438 0 0 1-.453.408ZM137.685 71.597c-.306 0-.54-.218-.54-.495 0-.263.248-.481.54-.481.292 0 .54.218.54.48 0 .263-.234.496-.54.496ZM134.037 74.118c-.146 0-.277-.101-.277-.247 0-.131.117-.247.277-.247.146 0 .277.101.277.247s-.131.248-.277.248ZM143.054 77.72c-.145 0-.277-.103-.277-.248 0-.131.117-.248.277-.248.146 0 .277.102.277.248 0 .145-.131.247-.277.247ZM146.177 65.314c-.146 0-.277-.102-.277-.248 0-.13.117-.247.277-.247.146 0 .277.102.277.247 0 .146-.131.248-.277.248ZM134.037 67.137c0-.219.205-.409.453-.409.248 0 .452.175.452.409 0 .218-.204.408-.452.408-.263 0-.453-.175-.453-.408ZM138.356 60.344c0-.219.205-.409.453-.409.248 0 .452.175.452.409 0 .218-.204.408-.452.408-.248 0-.453-.19-.453-.408ZM143.288 52.472c0-.219.204-.408.453-.408.248 0 .452.175.452.408 0 .219-.204.408-.452.408-.249 0-.453-.19-.453-.408ZM135.963 49.47c0-.22.205-.409.453-.409.248 0 .452.175.452.408 0 .219-.204.408-.452.408-.263-.014-.453-.19-.453-.408ZM132.228 52.72c0-.219.204-.408.452-.408.248 0 .453.175.453.408 0 .218-.205.408-.453.408-.262-.015-.452-.19-.452-.408ZM145.098 58.26c0-.278.248-.482.539-.482.292 0 .54.219.54.481 0 .277-.233.496-.54.496-.306 0-.539-.219-.539-.496ZM133.935 57.778c0-.277.248-.48.54-.48.292 0 .54.218.54.48 0 .277-.234.496-.54.496-.292-.015-.54-.233-.54-.496ZM140.428 64.586c0-.277.248-.481.54-.481.292 0 .54.218.54.48 0 .278-.233.496-.54.496-.306-.014-.54-.233-.54-.495ZM141.26 69.47c0-.278.248-.482.54-.482.292 0 .54.219.54.481 0 .277-.234.496-.54.496-.306 0-.54-.219-.54-.496ZM147.432 49.95c0-.277.248-.48.54-.48.292 0 .54.218.54.48 0 .277-.233.496-.54.496-.306 0-.54-.219-.54-.496ZM151.357 52.72c0-.131.117-.248.277-.248.146 0 .277.117.277.247 0 .132-.116.248-.277.248-.16 0-.277-.116-.277-.248ZM138.531 54.79c0-.132.117-.248.277-.248.146 0 .277.116.277.247s-.116.248-.277.248c-.16 0-.277-.117-.277-.248ZM141.8 61.35c0-.132.117-.248.277-.248.146 0 .277.116.277.247s-.117.248-.277.248c-.16 0-.277-.117-.277-.248ZM134.927 62.967c0-.13.117-.247.277-.247.146 0 .277.116.277.247s-.117.248-.277.248c-.16 0-.277-.102-.277-.248ZM142.34 56.306c0-.131.116-.248.277-.248.145 0 .277.117.277.248 0 .13-.117.247-.277.247-.161 0-.277-.102-.277-.247ZM138.254 67.967c0-.13.117-.247.277-.247.146 0 .277.116.277.247s-.117.248-.277.248c-.146 0-.277-.117-.277-.248ZM147.126 71.597c0-.131.116-.247.277-.247.145 0 .277.116.277.247s-.117.248-.277.248c-.146 0-.277-.102-.277-.248ZM147.709 12.706c0 .218-.204.408-.452.408-.248 0-.452-.175-.452-.409 0-.218.204-.408.452-.408.248 0 .452.19.452.409ZM142.778 20.577c0 .219-.205.408-.453.408-.248 0-.452-.175-.452-.408 0-.219.204-.408.452-.408.248 0 .453.19.453.408ZM140.968 14.775c0 .277-.248.482-.54.482-.292 0-.54-.22-.54-.482 0-.277.234-.495.54-.495.292.014.54.233.54.495ZM138.634 23.099c0 .277-.248.481-.54.481-.292 0-.54-.219-.54-.481 0-.277.233-.496.54-.496.292 0 .54.219.54.496ZM134.693 20.329c0 .131-.116.247-.277.247-.145 0-.277-.116-.277-.247s.117-.248.277-.248c.161 0 .277.117.277.248ZM144.265 11.7c0 .13-.116.247-.277.247-.145 0-.277-.117-.277-.248 0-.13.117-.247.277-.247.161 0 .277.116.277.247ZM143.725 16.743c0 .131-.116.248-.277.248-.145 0-.276-.117-.276-.248s.116-.247.276-.247c.146 0 .277.102.277.247ZM146.848 29.134c0 .13-.117.247-.277.247-.146 0-.277-.116-.277-.247s.117-.248.277-.248c.146 0 .277.117.277.248ZM134.869 26.67c.248 0 .452.175.452.409 0 .218-.204.408-.452.408-.248 0-.452-.175-.452-.408a.446.446 0 0 1 .452-.409ZM139.203 33.463c.248 0 .452.175.452.408 0 .22-.204.409-.452.409-.248 0-.453-.175-.453-.409 0-.233.205-.408.453-.408ZM144.135 41.335c.248 0 .452.175.452.408 0 .219-.204.408-.452.408-.249 0-.453-.175-.453-.408 0-.233.204-.408.453-.408ZM136.81 44.338c.248 0 .452.175.452.408 0 .219-.204.408-.452.408-.248 0-.453-.175-.453-.408 0-.233.205-.408.453-.408ZM133.06 41.087c.248 0 .452.175.452.408 0 .22-.204.409-.452.409-.248 0-.453-.175-.453-.409a.449.449 0 0 1 .453-.408ZM146.031 35.46c.307 0 .54.22.54.496 0 .262-.248.481-.54.481-.291 0-.539-.218-.539-.48 0-.278.248-.496.539-.496ZM134.869 35.941c.306 0 .54.22.54.496 0 .263-.248.481-.54.481-.292 0-.54-.218-.54-.48 0-.278.248-.497.54-.497ZM141.362 29.134c.307 0 .54.219.54.496 0 .262-.248.48-.54.48-.292 0-.54-.218-.54-.48 0-.277.248-.496.54-.496ZM142.194 24.25c.306 0 .54.22.54.496 0 .263-.248.481-.54.481-.292 0-.54-.218-.54-.48 0-.263.233-.496.54-.496ZM148.366 43.77c.307 0 .54.218.54.495 0 .263-.248.481-.54.481-.292 0-.54-.218-.54-.48 0-.263.248-.496.54-.496ZM152.028 41.248c.146 0 .277.102.277.247 0 .131-.116.248-.277.248-.146 0-.277-.102-.277-.248 0-.13.131-.247.277-.247ZM139.202 39.178c.146 0 .277.102.277.247 0 .131-.116.248-.277.248-.146 0-.277-.102-.277-.248 0-.145.117-.247.277-.247ZM142.456 32.618c.146 0 .277.102.277.247 0 .131-.117.248-.277.248-.146 0-.277-.102-.277-.248a.272.272 0 0 1 .277-.247ZM135.598 31c.146 0 .277.102.277.247 0 .131-.117.248-.277.248-.146 0-.277-.102-.277-.248 0-.145.117-.247.277-.247ZM142.996 37.662c.146 0 .277.102.277.247 0 .131-.117.248-.277.248-.146 0-.277-.102-.277-.248 0-.145.131-.247.277-.247ZM138.925 26c.146 0 .277.102.277.247 0 .131-.117.248-.277.248-.146 0-.277-.102-.277-.248a.272.272 0 0 1 .277-.247ZM147.797 22.37c.145 0 .276.102.276.248 0 .13-.116.247-.276.247-.146 0-.277-.102-.277-.247 0-.146.131-.248.277-.248ZM33.663 8.77c0 .218-.205.408-.453.408-.248 0-.452-.175-.452-.408 0-.219.204-.409.452-.409.248.015.453.19.453.409ZM25.593 8.536c0 .131-.117.248-.277.248-.146 0-.277-.117-.277-.248 0-.13.117-.247.277-.247.146 0 .277.102.277.247ZM38.682 10.563c.145 0 .277.101.277.247 0 .131-.117.248-.277.248-.146 0-.277-.102-.277-.248a.271.271 0 0 1 .277-.247ZM126.143 12.851c.248 0 .453.175.453.408 0 .22-.205.409-.453.409-.248 0-.452-.175-.452-.409a.447.447 0 0 1 .452-.408ZM131.075 20.723c.248 0 .453.175.453.408 0 .219-.205.408-.453.408-.248 0-.452-.175-.452-.408 0-.233.219-.408.452-.408ZM123.75 23.726c.248 0 .453.175.453.408 0 .219-.205.408-.453.408-.248 0-.452-.175-.452-.408a.436.436 0 0 1 .452-.408ZM121.824 15.33c.307 0 .54.218.54.495 0 .262-.248.481-.54.481-.292 0-.54-.219-.54-.481 0-.277.248-.496.54-.496ZM126.143 18.55c.146 0 .277.103.277.248 0 .132-.117.248-.277.248-.146 0-.277-.102-.277-.248a.283.283 0 0 1 .277-.247ZM129.411 12.006c.146 0 .277.102.277.247 0 .131-.116.248-.277.248-.145 0-.277-.102-.277-.248a.272.272 0 0 1 .277-.247ZM122.539 10.373c.146 0 .277.102.277.248 0 .13-.117.247-.277.247-.146 0-.277-.102-.277-.247a.283.283 0 0 1 .277-.248ZM129.951 17.035c.146 0 .277.102.277.247 0 .131-.116.248-.277.248-.145 0-.277-.102-.277-.248a.284.284 0 0 1 .277-.247ZM131.031 31.86c0-.219.205-.408.453-.408.248 0 .452.175.452.408 0 .219-.204.408-.452.408-.248-.014-.453-.19-.453-.408ZM123.707 28.842c0-.218.204-.408.452-.408.248 0 .452.175.452.408 0 .22-.204.409-.452.409-.248 0-.452-.19-.452-.409ZM119.971 32.093c0-.219.204-.408.452-.408.249 0 .453.175.453.408 0 .219-.204.408-.453.408-.262 0-.452-.175-.452-.408ZM126.275 34.177c0-.13.116-.247.277-.247.145 0 .276.116.276.247s-.116.248-.276.248c-.161-.015-.277-.117-.277-.248ZM99.353 21.933c0 .218-.204.408-.452.408-.248 0-.453-.175-.453-.408 0-.219.205-.408.453-.408.263.014.452.19.452.408ZM99.353 57.282c.146 0 .277.102.277.248 0 .131-.117.248-.277.248-.146 0-.277-.102-.277-.248 0-.146.131-.248.277-.248ZM95.56 65.985c0-.277.248-.48.54-.48.291 0 .54.218.54.48 0 .277-.234.496-.54.496-.307 0-.54-.219-.54-.496ZM99.485 68.754c0-.13.116-.247.276-.247.146 0 .277.116.277.247s-.116.248-.276.248c-.16-.015-.277-.117-.277-.248ZM129.718 63.827c-.146 0-.277-.102-.277-.247 0-.131.117-.248.277-.248.146 0 .277.102.277.248 0 .13-.131.247-.277.247ZM129.718 56.845c0-.218.204-.408.453-.408.248 0 .452.175.452.408 0 .219-.204.408-.452.408-.249 0-.453-.19-.453-.408ZM127.909 42.414c0-.219.204-.408.452-.408.248 0 .452.175.452.408 0 .218-.204.408-.452.408-.248 0-.452-.19-.452-.408ZM129.631 47.472c0-.277.248-.481.54-.481.291 0 .539.219.539.481 0 .277-.233.496-.539.496-.307 0-.54-.219-.54-.496ZM130.608 52.676c0-.131.117-.248.277-.248.146 0 .277.117.277.248 0 .13-.117.247-.277.247-.146-.014-.277-.116-.277-.247ZM111.274 72.53c-.248 0-.452-.175-.452-.408 0-.219.204-.408.452-.408.249 0 .453.175.453.408 0 .233-.204.408-.453.408ZM107.043 70.096c-.306 0-.54-.219-.54-.496 0-.262.248-.48.54-.48.292 0 .54.218.54.48 0 .263-.248.496-.54.496ZM103.38 72.617c-.146 0-.277-.102-.277-.247 0-.132.117-.248.277-.248.146 0 .277.102.277.248 0 .145-.131.247-.277.247ZM103.381 65.635c0-.218.204-.408.452-.408.248 0 .452.175.452.408 0 .219-.204.408-.452.408-.248 0-.452-.19-.452-.408ZM107.7 58.842c0-.218.204-.408.452-.408.248 0 .452.175.452.408 0 .219-.204.408-.452.408-.248-.014-.452-.19-.452-.408ZM112.632 50.97c0-.218.204-.408.452-.408.248 0 .452.175.452.409 0 .218-.204.408-.452.408-.248-.015-.452-.19-.452-.408ZM105.307 47.953c0-.219.204-.408.452-.408.248 0 .452.175.452.408 0 .219-.204.408-.452.408-.248 0-.452-.175-.452-.408ZM101.571 51.204c0-.219.204-.408.453-.408.248 0 .452.175.452.408 0 .218-.204.408-.452.408-.249 0-.453-.175-.453-.408ZM114.441 56.758c0-.277.248-.481.54-.481.292 0 .54.218.54.48 0 .278-.234.496-.54.496-.292 0-.54-.218-.54-.495ZM103.293 56.277c0-.277.248-.481.54-.481.292 0 .54.218.54.48 0 .278-.234.496-.54.496-.306-.014-.54-.233-.54-.495ZM109.772 63.084c0-.277.248-.48.54-.48.291 0 .539.218.539.48 0 .277-.233.496-.539.496-.292-.015-.54-.233-.54-.496ZM110.603 67.968c0-.277.248-.481.54-.481.292 0 .54.218.54.48 0 .278-.233.496-.54.496-.292-.014-.54-.233-.54-.495ZM116.775 48.449c0-.277.249-.481.54-.481.292 0 .54.218.54.48 0 .278-.233.496-.54.496-.291-.014-.54-.233-.54-.495ZM120.715 51.203c0-.13.117-.247.277-.247.146 0 .277.116.277.247s-.117.248-.277.248c-.16 0-.277-.102-.277-.248ZM107.875 53.288c0-.131.116-.247.277-.247.145 0 .277.116.277.247s-.117.248-.277.248c-.146 0-.277-.117-.277-.248ZM111.143 59.848c0-.131.117-.248.277-.248.146 0 .277.117.277.248 0 .13-.117.247-.277.247-.16-.014-.277-.116-.277-.247ZM104.271 61.466c0-.131.116-.248.276-.248.146 0 .277.117.277.248 0 .13-.116.247-.277.247-.145 0-.276-.116-.276-.247ZM111.683 54.804c0-.13.117-.247.277-.247.146 0 .277.116.277.247s-.117.248-.277.248c-.16 0-.277-.117-.277-.248ZM107.612 66.466c0-.131.117-.248.277-.248.146 0 .277.117.277.248 0 .13-.117.247-.277.247-.16 0-.277-.116-.277-.247ZM117.053 11.204c0 .219-.204.408-.453.408-.248 0-.452-.175-.452-.408 0-.219.204-.408.452-.408.249 0 .453.175.453.408ZM112.121 19.076c0 .218-.205.408-.453.408-.248 0-.452-.175-.452-.408 0-.219.204-.408.452-.408.248 0 .453.175.453.408ZM110.311 13.274c0 .277-.248.481-.539.481-.292 0-.54-.219-.54-.481 0-.277.233-.496.54-.496.306.015.539.234.539.496ZM114.981 6.962c0 .277-.248.481-.54.481-.292 0-.54-.219-.54-.48 0-.278.233-.497.54-.497.306 0 .54.22.54.496ZM107.977 21.583c0 .277-.248.481-.54.481-.292 0-.54-.219-.54-.481 0-.277.234-.496.54-.496.306.015.54.234.54.496ZM104.051 18.828c0 .13-.117.247-.277.247-.146 0-.277-.116-.277-.247s.117-.248.277-.248c.16 0 .277.117.277.248ZM113.608 10.198c0 .13-.116.247-.276.247-.146 0-.277-.116-.277-.247s.116-.248.277-.248c.16 0 .276.102.276.248ZM113.069 15.227c0 .131-.117.248-.277.248-.146 0-.277-.117-.277-.248s.116-.248.277-.248c.16.015.277.117.277.248ZM116.191 27.632c0 .131-.116.248-.277.248-.145 0-.277-.117-.277-.248 0-.13.117-.247.277-.247.161 0 .277.116.277.247ZM108.546 31.962c.248 0 .452.175.452.408 0 .219-.204.408-.452.408-.248 0-.452-.175-.452-.408a.437.437 0 0 1 .452-.408ZM113.478 39.834c.248 0 .452.174.452.408 0 .218-.204.408-.452.408-.248 0-.452-.175-.452-.408 0-.233.204-.408.452-.408ZM106.153 42.837c.248 0 .452.174.452.408 0 .218-.204.408-.452.408-.248 0-.452-.175-.452-.408 0-.233.204-.408.452-.408ZM102.418 39.586c.248 0 .452.175.452.408 0 .219-.204.408-.452.408-.248 0-.453-.175-.453-.408 0-.233.205-.408.453-.408ZM115.389 33.944c.307 0 .54.22.54.496 0 .263-.248.481-.54.481-.291 0-.539-.218-.539-.48-.015-.278.233-.497.539-.497ZM104.227 34.44c.306 0 .54.219.54.496 0 .262-.248.48-.54.48-.292 0-.54-.218-.54-.48 0-.277.248-.496.54-.496ZM110.72 27.633c.306 0 .54.218.54.495 0 .262-.248.481-.54.481-.292 0-.54-.219-.54-.48-.014-.278.234-.497.54-.497ZM111.537 22.75c.307 0 .54.218.54.495 0 .262-.248.48-.54.48-.292 0-.54-.218-.54-.48 0-.277.248-.496.54-.496ZM117.724 42.268c.306 0 .54.219.54.496 0 .262-.248.48-.54.48-.292 0-.54-.218-.54-.48 0-.263.233-.496.54-.496ZM121.371 39.746c.146 0 .277.102.277.248 0 .13-.116.247-.277.247-.145 0-.276-.102-.276-.247a.27.27 0 0 1 .276-.248ZM108.546 37.662c.145 0 .277.102.277.247 0 .131-.117.248-.277.248-.146 0-.277-.102-.277-.248 0-.145.131-.247.277-.247ZM111.814 31.116c.146 0 .277.102.277.248 0 .131-.117.247-.277.247-.146 0-.277-.101-.277-.247s.131-.248.277-.248ZM104.941 29.484c.146 0 .277.102.277.247 0 .131-.116.248-.277.248-.145 0-.276-.102-.276-.248 0-.145.131-.247.276-.247ZM112.354 36.146c.146 0 .277.102.277.247 0 .131-.117.248-.277.248-.146 0-.277-.102-.277-.248 0-.13.131-.247.277-.247ZM108.283 24.484c.146 0 .277.102.277.247 0 .131-.117.248-.277.248-.146 0-.277-.102-.277-.248 0-.145.117-.247.277-.247ZM117.155 20.854c.145 0 .277.102.277.248 0 .13-.117.247-.277.247-.146 0-.277-.102-.277-.247 0-.146.116-.248.277-.248ZM107.787 19.98c0 .218-.204.408-.452.408-.248 0-.452-.175-.452-.409 0-.218.204-.408.452-.408.248 0 .452.19.452.409ZM103.468 26.773c0 .218-.204.408-.452.408-.248 0-.453-.175-.453-.409 0-.218.205-.408.453-.408.248.015.452.19.452.409ZM101.396 22.53c0 .277-.248.482-.54.482-.292 0-.54-.22-.54-.482 0-.277.234-.495.54-.495.292.014.54.233.54.495ZM100.024 25.766c0 .131-.117.248-.277.248-.146 0-.277-.117-.277-.248 0-.13.117-.247.277-.247.146.014.277.116.277.247ZM99.484 30.81c0 .131-.117.248-.277.248-.146 0-.277-.117-.277-.248s.117-.247.277-.247c.146 0 .277.116.277.247ZM103.555 19.148c0 .131-.117.248-.277.248-.146 0-.277-.117-.277-.248 0-.13.117-.247.277-.247.16.014.277.116.277.247ZM103.555 36.437c.146 0 .277.102.277.248 0 .13-.116.247-.277.247-.145 0-.276-.102-.276-.247 0-.146.131-.248.276-.248ZM116.396 19.63c0 .277-.248.48-.54.48-.292 0-.54-.218-.54-.48 0-.277.234-.496.54-.496.307.015.54.233.54.496ZM112.47 16.86c0 .13-.116.247-.277.247-.145 0-.276-.116-.276-.247s.116-.248.276-.248c.161.015.277.117.277.248ZM112.646 23.201c.248 0 .453.175.453.408 0 .219-.205.408-.453.408-.248 0-.452-.175-.452-.408a.437.437 0 0 1 .452-.408ZM116.965 29.994c.248 0 .453.175.453.408 0 .219-.205.408-.453.408-.248 0-.452-.175-.452-.408 0-.233.204-.408.452-.408ZM112.646 32.487c.307 0 .54.218.54.495 0 .263-.248.481-.54.481-.292 0-.54-.218-.54-.48 0-.263.248-.496.54-.496ZM113.361 27.53c.146 0 .277.102.277.248 0 .131-.117.247-.277.247-.146 0-.277-.101-.277-.247a.27.27 0 0 1 .277-.247ZM116.702 22.53c.146 0 .277.102.277.248 0 .131-.117.248-.277.248-.146 0-.277-.102-.277-.248 0-.146.131-.247.277-.247ZM103.92 9.382c.248 0 .453.175.453.408 0 .219-.205.408-.453.408-.248 0-.452-.175-.452-.408a.437.437 0 0 1 .452-.408ZM108.852 17.254c.248 0 .453.174.453.408 0 .218-.205.408-.453.408-.248 0-.452-.175-.452-.408a.437.437 0 0 1 .452-.408ZM101.527 20.256c.248 0 .453.175.453.409 0 .218-.205.408-.453.408-.248 0-.452-.175-.452-.408 0-.219.204-.409.452-.409ZM99.602 11.86c.306 0 .539.219.539.496 0 .262-.248.48-.54.48-.291 0-.54-.218-.54-.48 0-.277.249-.496.54-.496ZM103.92 15.096c.146 0 .277.102.277.248 0 .13-.117.247-.277.247-.146 0-.277-.102-.277-.247a.272.272 0 0 1 .277-.248ZM107.189 8.536c.145 0 .276.102.276.248 0 .13-.116.247-.276.247-.146 0-.277-.102-.277-.247 0-.146.131-.248.277-.248ZM100.316 6.918c.146 0 .277.102.277.248 0 .13-.117.247-.277.247-.146 0-.277-.102-.277-.247a.272.272 0 0 1 .277-.248ZM107.728 13.58c.146 0 .277.102.277.248 0 .13-.116.247-.277.247-.145 0-.276-.102-.276-.247 0-.146.131-.248.276-.248ZM108.809 28.39c0-.218.204-.408.452-.408.248 0 .452.175.452.409 0 .218-.204.408-.452.408-.263 0-.452-.19-.452-.409ZM97.748 28.638c0-.218.205-.408.453-.408.248 0 .452.175.452.408 0 .219-.204.409-.452.409-.263-.015-.453-.19-.453-.409ZM104.052 30.708c0-.131.116-.247.277-.247.145 0 .277.116.277.247s-.117.248-.277.248c-.161 0-.277-.117-.277-.248ZM77.13 18.478c0 .219-.204.408-.452.408-.248 0-.452-.175-.452-.408 0-.219.204-.408.452-.408.248 0 .453.175.453.408ZM94.83 7.735c0 .218-.204.408-.452.408-.249 0-.453-.175-.453-.408 0-.219.204-.409.453-.409.248 0 .452.19.452.409ZM89.898 15.606c0 .219-.204.409-.452.409-.248 0-.453-.175-.453-.409 0-.218.205-.408.453-.408.248 0 .452.19.452.408ZM88.089 9.805c0 .277-.248.48-.54.48-.292 0-.54-.218-.54-.48 0-.277.233-.496.54-.496.292.015.54.233.54.496ZM85.754 18.128c0 .277-.248.481-.54.481-.292 0-.54-.218-.54-.48 0-.278.234-.496.54-.496.292 0 .54.218.54.495ZM81.828 15.358c0 .131-.116.248-.277.248-.145 0-.277-.117-.277-.248 0-.13.117-.247.277-.247.146 0 .277.116.277.247ZM91.386 6.728c0 .132-.117.248-.277.248-.146 0-.277-.116-.277-.248 0-.13.117-.247.277-.247.16 0 .277.116.277.247ZM90.846 11.772c0 .131-.117.248-.277.248-.146 0-.277-.117-.277-.248 0-.13.117-.247.277-.247.16 0 .277.102.277.247ZM93.968 24.163c0 .13-.116.247-.276.247-.146 0-.277-.116-.277-.247s.116-.248.276-.248c.16 0 .277.117.277.248ZM82.004 21.7c.248 0 .452.175.452.408 0 .218-.204.408-.452.408-.248 0-.452-.175-.452-.408 0-.233.204-.408.452-.408ZM88.483 24.163c.306 0 .54.219.54.496 0 .262-.248.48-.54.48-.292 0-.54-.218-.54-.48 0-.277.248-.496.54-.496ZM89.314 19.28c.307 0 .54.218.54.495 0 .263-.248.482-.54.482-.291 0-.54-.22-.54-.482 0-.277.249-.495.54-.495ZM99.149 36.277c.145 0 .277.102.277.247 0 .131-.117.248-.277.248-.146 0-.277-.102-.277-.248 0-.145.131-.247.277-.247ZM86.046 21.029c.145 0 .276.102.276.247 0 .132-.116.248-.276.248-.146 0-.277-.102-.277-.248a.271.271 0 0 1 .277-.247ZM94.917 17.4c.146 0 .277.101.277.247 0 .13-.117.247-.277.247-.145 0-.277-.102-.277-.247a.271.271 0 0 1 .277-.248ZM167.991 15.65c0 .219-.204.408-.452.408-.248 0-.452-.175-.452-.408 0-.219.204-.408.452-.408.248 0 .452.175.452.408ZM163.658 22.443c0 .219-.204.408-.452.408-.249 0-.453-.175-.453-.408 0-.219.204-.408.453-.408.262 0 .452.19.452.408ZM158.726 30.315c0 .218-.204.408-.452.408-.248 0-.453-.175-.453-.408 0-.219.205-.408.453-.408.262 0 .452.19.452.408ZM156.917 24.528c0 .277-.248.48-.54.48-.292 0-.54-.218-.54-.48 0-.277.233-.496.54-.496.306 0 .54.219.54.496ZM161.586 18.201c0 .277-.248.481-.54.481-.292 0-.54-.218-.54-.48 0-.278.234-.497.54-.497.306.015.54.234.54.496ZM154.582 32.837c0 .276-.248.48-.54.48-.292 0-.54-.218-.54-.48 0-.277.234-.496.54-.496.307 0 .54.219.54.496ZM150.656 30.067c0 .13-.116.247-.277.247-.145 0-.277-.116-.277-.247s.117-.248.277-.248c.161.015.277.117.277.248ZM160.228 21.437c0 .13-.116.247-.277.247-.145 0-.277-.116-.277-.247s.117-.248.277-.248c.146 0 .277.117.277.248ZM159.688 26.48c0 .132-.116.248-.276.248-.146 0-.277-.116-.277-.247s.116-.248.277-.248c.145 0 .276.117.276.248ZM162.796 38.871c0 .131-.116.248-.277.248-.145 0-.276-.117-.276-.248 0-.13.116-.247.276-.247.161.014.277.116.277.247ZM163.759 14.819c0 .13-.116.247-.277.247-.145 0-.276-.116-.276-.247s.116-.248.276-.248c.161 0 .277.117.277.248ZM150.832 36.408c.248 0 .452.175.452.408 0 .219-.204.408-.452.408-.248 0-.452-.175-.452-.408a.436.436 0 0 1 .452-.408ZM155.151 43.201c.248 0 .453.175.453.408 0 .219-.205.408-.453.408-.248 0-.452-.175-.452-.408a.459.459 0 0 1 .452-.408ZM160.083 51.073c.248 0 .452.175.452.408 0 .218-.204.408-.452.408-.248 0-.452-.175-.452-.408a.457.457 0 0 1 .452-.408ZM152.758 54.09c.248 0 .452.175.452.408 0 .219-.204.408-.452.408-.248 0-.452-.175-.452-.408a.436.436 0 0 1 .452-.408ZM149.023 50.825c.248 0 .452.175.452.408 0 .219-.204.408-.452.408-.248 0-.453-.175-.453-.408 0-.233.205-.408.453-.408ZM161.994 45.198c.307 0 .54.219.54.496 0 .262-.248.48-.54.48-.291 0-.539-.218-.539-.48 0-.263.233-.496.539-.496ZM150.832 45.68c.306 0 .54.218.54.495 0 .262-.248.48-.54.48-.292 0-.54-.218-.54-.48 0-.263.248-.496.54-.496ZM157.325 38.871c.307 0 .54.22.54.496 0 .263-.248.481-.54.481-.292 0-.54-.218-.54-.48 0-.278.234-.497.54-.497ZM158.157 33.988c.306 0 .54.219.54.496 0 .262-.248.48-.54.48-.292 0-.54-.218-.54-.48 0-.263.234-.496.54-.496ZM164.329 53.507c.307 0 .54.219.54.496 0 .262-.248.48-.54.48-.292 0-.54-.218-.54-.48 0-.277.234-.496.54-.496ZM167.991 50.985c.146 0 .277.102.277.248 0 .13-.116.247-.277.247-.145 0-.277-.102-.277-.247 0-.146.117-.248.277-.248ZM155.151 48.915c.146 0 .277.102.277.248 0 .13-.117.247-.277.247-.146 0-.277-.102-.277-.247 0-.146.131-.248.277-.248ZM158.419 42.355c.146 0 .277.102.277.248 0 .131-.116.247-.277.247-.146 0-.277-.101-.277-.247s.131-.248.277-.248ZM151.547 40.737c.145 0 .277.102.277.248 0 .13-.117.247-.277.247-.146 0-.277-.102-.277-.247a.27.27 0 0 1 .277-.248ZM158.959 47.4c.146 0 .277.101.277.247 0 .13-.117.247-.277.247-.146 0-.277-.102-.277-.247 0-.146.131-.248.277-.248ZM154.888 35.737c.146 0 .277.102.277.248 0 .131-.116.247-.277.247-.145 0-.277-.102-.277-.247 0-.146.132-.248.277-.248ZM163.76 32.108c.145 0 .277.102.277.247 0 .131-.117.248-.277.248-.146 0-.277-.102-.277-.248 0-.145.131-.247.277-.247ZM167.933 98.448c-.248 0-.452-.174-.452-.408 0-.218.204-.408.452-.408.248 0 .453.175.453.408 0 .234-.205.408-.453.408ZM163.614 91.656c-.248 0-.452-.175-.452-.409 0-.218.204-.408.452-.408.248 0 .453.175.453.408 0 .234-.205.409-.453.409ZM158.682 83.784c-.248 0-.452-.175-.452-.408 0-.219.204-.409.452-.409.248 0 .453.175.453.409 0 .233-.205.408-.453.408ZM156.785 89.658c-.306 0-.54-.218-.54-.495 0-.263.248-.481.54-.481.292 0 .54.218.54.48 0 .263-.248.496-.54.496ZM161.455 95.97c-.307 0-.54-.218-.54-.495 0-.263.248-.481.54-.481.291 0 .539.218.539.48 0 .278-.248.496-.539.496ZM154.451 81.35c-.307 0-.54-.22-.54-.496 0-.263.248-.481.54-.481.292 0 .54.218.54.48 0 .263-.248.496-.54.496ZM150.788 83.856c-.146 0-.277-.102-.277-.247 0-.131.117-.248.277-.248.146 0 .277.102.277.248 0 .145-.131.247-.277.247ZM160.345 92.5c-.145 0-.277-.102-.277-.247 0-.131.117-.248.277-.248.146 0 .277.102.277.248 0 .13-.131.247-.277.247ZM159.805 87.457c-.145 0-.276-.102-.276-.248 0-.13.116-.247.276-.247.146 0 .277.102.277.247 0 .146-.131.248-.277.248ZM162.928 75.051c-.146 0-.277-.102-.277-.247 0-.131.117-.248.277-.248.146 0 .277.102.277.248 0 .145-.131.247-.277.247ZM163.877 99.118c-.146 0-.277-.102-.277-.247 0-.131.116-.248.277-.248.145 0 .276.102.276.248 0 .145-.116.247-.276.247ZM150.788 76.889c0-.219.205-.408.453-.408.248 0 .452.175.452.408 0 .219-.204.408-.452.408-.248-.015-.453-.19-.453-.408ZM155.107 70.081c0-.218.205-.408.453-.408.248 0 .452.175.452.408 0 .219-.204.409-.452.409-.248 0-.453-.175-.453-.409ZM160.039 62.21c0-.22.205-.409.453-.409.248 0 .452.175.452.409 0 .218-.204.408-.452.408-.248 0-.453-.19-.453-.408ZM152.714 59.207c0-.219.205-.408.453-.408.248 0 .452.175.452.408 0 .218-.204.408-.452.408-.248-.015-.453-.19-.453-.408ZM148.979 62.457c0-.218.204-.408.452-.408.248 0 .453.175.453.408 0 .22-.205.409-.453.409-.262 0-.452-.19-.452-.409ZM161.849 68.011c0-.277.248-.48.539-.48.292 0 .54.218.54.48 0 .277-.233.496-.54.496-.306-.015-.539-.233-.539-.496ZM150.686 67.516c0-.277.248-.481.54-.481.292 0 .54.218.54.48 0 .278-.234.496-.54.496-.292 0-.54-.218-.54-.495ZM157.179 74.323c0-.277.248-.48.54-.48.292 0 .54.218.54.48 0 .277-.233.496-.54.496-.306 0-.54-.219-.54-.496ZM158.011 79.207c0-.277.248-.481.54-.481.292 0 .54.218.54.48 0 .278-.234.496-.54.496-.307 0-.54-.218-.54-.495ZM164.183 59.688c0-.277.248-.481.54-.481.292 0 .54.218.54.48 0 .278-.233.496-.54.496-.306 0-.54-.218-.54-.495ZM168.108 62.457c0-.131.117-.247.277-.247.146 0 .277.116.277.247s-.116.248-.277.248c-.16 0-.277-.117-.277-.248ZM155.282 64.527c0-.131.117-.247.277-.247.146 0 .277.116.277.247s-.116.248-.277.248c-.16 0-.277-.102-.277-.248ZM158.551 71.087c0-.131.117-.248.277-.248.146 0 .277.117.277.248 0 .13-.117.247-.277.247-.16 0-.277-.116-.277-.247ZM151.678 72.705c0-.131.117-.248.277-.248.146 0 .277.117.277.248 0 .13-.116.247-.277.247-.16 0-.277-.102-.277-.247ZM159.091 66.043c0-.13.116-.247.277-.247.145 0 .277.116.277.247s-.117.248-.277.248c-.161 0-.277-.102-.277-.248ZM155.005 77.705c0-.131.117-.248.277-.248.146 0 .277.117.277.248 0 .13-.117.247-.277.247-.146 0-.277-.102-.277-.247ZM163.877 81.35c0-.132.116-.248.277-.248.145 0 .276.116.276.247s-.116.248-.276.248c-.146-.015-.277-.117-.277-.248ZM169.422 123.609c-.248 0-.453-.175-.453-.408 0-.219.205-.409.453-.409.248 0 .452.175.452.409 0 .233-.204.408-.452.408ZM165.102 116.816c-.248 0-.452-.175-.452-.408 0-.219.204-.409.452-.409.249 0 .453.175.453.409 0 .233-.204.408-.453.408ZM160.171 108.944c-.249 0-.453-.175-.453-.408 0-.219.204-.408.453-.408.248 0 .452.175.452.408a.458.458 0 0 1-.452.408ZM158.259 114.819c-.306 0-.54-.219-.54-.496 0-.262.248-.481.54-.481.292 0 .54.219.54.481s-.234.496-.54.496ZM162.928 121.145c-.306 0-.54-.219-.54-.495 0-.263.249-.482.54-.482.292 0 .54.219.54.482 0 .262-.233.495-.54.495ZM155.924 106.51c-.306 0-.54-.219-.54-.496 0-.262.249-.481.54-.481.292 0 .54.219.54.481s-.233.496-.54.496ZM152.262 109.031c-.146 0-.277-.102-.277-.248 0-.131.116-.247.277-.247.145 0 .277.102.277.247 0 .146-.117.248-.277.248ZM161.834 117.661c-.146 0-.277-.102-.277-.248 0-.131.116-.247.277-.247.145 0 .276.101.276.247s-.131.248-.276.248ZM161.294 112.617c-.146 0-.277-.102-.277-.248 0-.131.116-.247.277-.247.146 0 .277.102.277.247 0 .146-.131.248-.277.248ZM165.365 124.279c-.146 0-.277-.102-.277-.248 0-.131.117-.247.277-.247.146 0 .277.102.277.247 0 .146-.131.248-.277.248ZM152.262 102.049c0-.219.204-.408.452-.408.248 0 .453.175.453.408 0 .219-.205.408-.453.408-.248-.014-.452-.189-.452-.408ZM159.485 104.367c0-.277.248-.481.54-.481.292 0 .54.218.54.481 0 .277-.234.495-.54.495-.292 0-.54-.218-.54-.495ZM156.494 102.865c0-.131.116-.247.276-.247.146 0 .277.116.277.247s-.116.248-.277.248c-.16 0-.276-.102-.276-.248ZM165.365 106.509c0-.131.117-.247.277-.247.146 0 .277.116.277.247s-.117.248-.277.248c-.16-.015-.277-.117-.277-.248ZM144.105 103.696c-.248 0-.452-.175-.452-.408 0-.219.204-.408.452-.408.248 0 .453.175.453.408 0 .233-.205.408-.453.408ZM139.772 96.903c-.248 0-.453-.175-.453-.408 0-.219.205-.408.453-.408.248 0 .452.175.452.408 0 .233-.204.408-.452.408ZM134.84 89.032c-.248 0-.453-.175-.453-.408 0-.22.205-.409.453-.409.248 0 .452.175.452.409 0 .218-.204.408-.452.408ZM132.943 94.906c-.306 0-.54-.219-.54-.495 0-.263.248-.481.54-.481.292 0 .54.218.54.48 0 .263-.234.496-.54.496ZM137.612 101.218c-.306 0-.54-.219-.54-.495 0-.263.248-.482.54-.482.292 0 .54.219.54.482 0 .262-.234.495-.54.495ZM136.517 97.748c-.145 0-.276-.102-.276-.247 0-.131.116-.248.276-.248.146 0 .277.102.277.248 0 .145-.131.247-.277.247ZM135.978 92.704c-.146 0-.277-.101-.277-.247 0-.131.116-.248.277-.248.145 0 .276.102.276.248 0 .146-.131.247-.276.247ZM140.049 104.366c-.146 0-.277-.102-.277-.247 0-.131.116-.248.277-.248.145 0 .276.102.276.248 0 .145-.131.247-.276.247ZM134.169 84.454c0-.277.248-.48.54-.48.291 0 .539.218.539.48 0 .277-.233.496-.539.496-.292 0-.54-.219-.54-.496ZM140.049 86.597c0-.131.117-.248.277-.248.146 0 .277.117.277.248s-.117.247-.277.247c-.16-.014-.277-.116-.277-.247ZM145.579 128.856c-.248 0-.452-.174-.452-.408 0-.218.204-.408.452-.408.248 0 .452.175.452.408 0 .234-.204.408-.452.408ZM141.26 122.063c-.248 0-.452-.174-.452-.408 0-.218.204-.408.452-.408.248 0 .452.175.452.408 0 .234-.204.408-.452.408ZM136.328 114.192c-.248 0-.452-.175-.452-.408 0-.219.204-.408.452-.408.248 0 .452.174.452.408 0 .233-.204.408-.452.408ZM134.431 120.066c-.306 0-.54-.218-.54-.495 0-.263.248-.481.54-.481.292 0 .54.218.54.481 0 .262-.248.495-.54.495ZM139.101 126.393c-.307 0-.54-.219-.54-.496 0-.262.248-.481.54-.481.291 0 .539.219.539.481 0 .277-.248.496-.539.496ZM132.097 111.757c-.307 0-.54-.218-.54-.495 0-.263.248-.481.54-.481.291 0 .539.218.539.481 0 .262-.248.495-.539.495ZM128.434 114.279c-.146 0-.277-.102-.277-.248 0-.131.116-.247.277-.247.145 0 .277.102.277.247 0 .146-.132.248-.277.248ZM138.006 122.908c-.146 0-.277-.102-.277-.247 0-.131.116-.248.277-.248.145 0 .277.102.277.248a.284.284 0 0 1-.277.247ZM137.451 117.865c-.145 0-.277-.102-.277-.248 0-.131.117-.247.277-.247.146 0 .277.102.277.247 0 .146-.116.248-.277.248ZM141.537 129.526c-.146 0-.277-.102-.277-.247 0-.131.117-.248.277-.248.146 0 .277.102.277.248 0 .145-.131.247-.277.247ZM128.434 107.297c0-.219.204-.408.452-.408.248 0 .453.175.453.408 0 .219-.205.408-.453.408-.248-.015-.452-.189-.452-.408ZM135.657 109.615c0-.277.248-.481.54-.481.292 0 .54.218.54.481 0 .277-.234.495-.54.495-.307 0-.54-.218-.54-.495ZM132.666 108.113c0-.131.116-.248.277-.248.145 0 .276.117.276.248s-.116.247-.276.247c-.161 0-.277-.102-.277-.247ZM141.537 111.757c0-.131.117-.247.277-.247.146 0 .277.116.277.247s-.117.248-.277.248c-.16-.015-.277-.117-.277-.248Z" fill="#fff"/><path d="M86.79 32.618c0-.598.277-1.093.598-1.093.336 0 .599.48.599 1.093 0 .598-.263 1.093-.599 1.093-.335 0-.598-.495-.598-1.093Z" fill="#000"/><path d="M82.383 38.288c.496-.32.861-.48 1.416-.48.569 0 .89 0 1.415.48" stroke="#000" stroke-width=".24" stroke-miterlimit="10" stroke-linecap="round" stroke-linejoin="round"/><path d="M92.087 27.472c-.73-2.332-2.116-4.504-4.13-5.904-4.07-2.828-10.155-1.137-13.73 1.764-.715.583-1.4 1.268-1.737 2.114-.7 1.705.19 2.74 1.824 3.032 1.445.262 3.035-.452 4.232-1.225 6.727-3.498 14.402 2.945 13.54.22Z" fill="#ED6636"/><path d="M74.314 27.487c.424.073.847.13 1.27.175.744.073 1.488.16 2.218.262.423.058 1.021.044 1.342.32-.584.22-1.226.234-1.868.234.278.117 1.299.058 1.474.277.248.35-.51.408-.759.423-.773.058-1.56.014-2.334.073.423.174 1.065.13 1.546.262-.029.991-4.727.67-5.18.627a21.765 21.765 0 0 1-1.955-.277c-.788-.146-1.561-.335-2.364-.481-.248-.044-.554-.131-.642-.365-.087-.218.059-.451.205-.641 1.444-1.968 3.662-1.633 5.749-1.137.423.087.86.16 1.298.248Z" fill="#45459B"/><path d="m67.996 27.253 1.78 2.974-6.974 10.714 15.554 5.365s-5.953 2.114-5.793 9.446c.03.32-17.903-10.088-18.166-13.455-.219-3.09 13.6-15.043 13.6-15.043ZM90.89 80.635s13.527-7.828 13.103-11.283c-.51-4.169-3.049-22.288-12.767-22.973-2.32.335-1.926 4.767-.642 8.834 1.736 5.466 4.99 10.64 4.99 12.084 0 2.507-9.149 11.079-9.149 11.079l4.465 2.26Z" fill="#ED8120"/><path d="M88.454 45.49c-.365-.102-.803-.117-1.168-.175 0 .262-.029.51-.146.743-.117.219-.306.408-.51.569-1.153.932-2.787 1.224-4.203.787-.35-.117-.686-.263-.948-.525a1.519 1.519 0 0 1-.409-1.254c-.277.059-.554.117-.817.19-.306.364-.54.787-.54 1.253-.014.598.35 1.167.817 1.531.482.364 1.066.554 1.664.67a9.625 9.625 0 0 0 3.166.132c.686-.088 1.386-.263 1.984-.612.599-.35 1.11-.904 1.285-1.575.16-.554.102-1.224-.175-1.734Z" fill="#fff"/></svg>
