<svg width="143" height="172" viewBox="0 0 143 172" fill="none" xmlns="http://www.w3.org/2000/svg">
<mask id="mask0" mask-type="alpha" maskUnits="userSpaceOnUse" x="0" y="22" width="143" height="143">
<circle cx="71.4434" cy="93.5567" r="71.4433" fill="white"/>
</mask>
<g mask="url(#mask0)">
<circle cx="75.0001" cy="96.1134" r="70" fill="white"/>
<path d="M114.995 97.6888C117.027 102.767 120.205 107.423 124.185 111.168C124.385 107.909 124.584 104.679 124.784 101.404C124.906 99.4283 125.027 97.4529 125.149 95.4706C125.68 86.8158 128.361 77.8502 121.579 72.0916C120.075 70.8125 118.343 69.9393 116.605 69.1296C115.548 68.6374 114.46 68.1657 113.369 67.6916C111.074 77.603 111.219 88.2446 114.995 97.6888Z" fill="#00BDCD"/>
<path d="M53.5728 69.8146C52.9105 70.0754 52.2414 70.334 51.586 70.5948C49.488 71.5678 47.2472 72.6882 46.0996 74.9721C43.7907 79.5762 44.1604 83.6927 44.7251 88.5917C45.4169 94.5861 45.2241 100.873 45.4328 106.854C45.5575 110.388 45.6233 113.88 45.7185 117.394C54.2214 103.309 57.1086 85.895 53.5728 69.8146Z" fill="#00BDCD"/>
<path d="M41.897 79.8722C37.7827 86.6264 33.5687 93.2082 29.797 100.212C29.2912 101.146 28.79 102.081 28.2864 103.015C27.4926 104.489 26.7011 105.959 25.9231 107.438C22.4508 114.031 18.493 122.697 21.2442 130.13C22.5188 133.575 26.3223 135.861 29.4953 134.112C30.8153 133.387 31.8359 132.107 32.8044 130.853C40.9353 120.311 48.0774 108.842 54.0514 96.7328C56.3126 92.1468 58.4673 87.2183 58.3947 82.1629C58.304 75.5153 53.0557 69.0536 47.2291 73.5171C45.1811 75.0843 43.446 77.3342 41.897 79.8722Z" fill="#00BDCD"/>
<path d="M114.996 97.6888C111.22 88.2447 111.074 77.603 113.37 67.6917C111.517 66.8888 109.634 66.1063 107.702 65.3896C106.477 64.936 105.243 64.496 103.998 64.0923C103.919 64.3236 103.821 64.5482 103.74 64.7772C103.81 64.5799 103.892 64.3871 103.962 64.1875C103.71 64.1082 103.456 64.0424 103.204 63.9653C103.302 65.2014 103.32 66.4397 103.114 67.6577C101.438 77.5123 87.3032 76.4894 80.4174 73.6385C77.0131 72.2277 73.9376 69.6649 72.6675 66.2061C72.3454 65.3261 72.1617 64.4121 72.037 63.4867C71.4881 63.6341 70.9392 63.7634 70.3926 63.9199C70.3858 63.895 70.3745 63.8655 70.3677 63.8383C70.1205 63.9108 69.8733 63.9993 69.6283 64.0741C64.2032 65.7139 58.8143 67.7529 53.5729 69.8146C57.1087 85.895 54.2215 103.309 45.7186 117.394C46.4013 142.53 46.4603 167.211 46.6304 191.413C46.6326 191.588 60.0413 192.704 61.0823 192.788C68.2856 193.368 75.4867 193.543 82.6945 193.67C92.1114 193.74 101.252 192.287 110.582 192.268C111.301 192.266 112.047 192.259 112.703 191.921C114.293 191.1 118.559 185.063 119.428 183.099C121.46 178.499 120.557 170.293 120.872 165.188C121.664 152.265 122.465 139.217 123.272 126.032C123.576 121.109 123.882 116.13 124.186 111.168C120.206 107.423 117.028 102.767 114.996 97.6888Z" fill="#00BDCD"/>
<path d="M80.4152 73.6397C87.301 76.4906 101.438 77.5135 103.111 67.6566C103.318 66.4386 103.3 65.2003 103.202 63.9642C95.5249 61.6168 87.5255 60.3671 79.9298 61.6735C77.308 62.1225 74.6703 62.7667 72.0348 63.4856C72.1595 64.4133 72.3432 65.3273 72.6653 66.2073C73.9377 69.6638 77.0109 72.2289 80.4152 73.6397Z" fill="#00BDCD"/>
<path d="M128.574 84.876C130.14 92.6279 131.859 100.253 133.016 108.122C133.173 109.174 133.326 110.223 133.48 111.275C133.724 112.926 133.967 114.581 134.196 116.236C135.212 123.619 135.978 133.113 130.859 139.162C128.483 141.969 124.132 142.819 121.743 140.094C120.749 138.962 120.223 137.412 119.743 135.905C115.693 123.221 112.888 110.005 111.401 96.5817C110.835 91.5007 110.495 86.1355 112.281 81.4048C114.634 75.1865 121.772 70.9014 125.728 77.0859C127.119 79.2545 127.987 81.9621 128.574 84.876Z" fill="#00BDCD"/>
<path d="M73.0607 4.10098C73.0947 4.05335 73.131 4.00799 73.1718 3.96263C73.444 3.66778 73.8885 3.49088 74.2627 3.6451C74.739 3.83789 74.8978 4.43892 74.8706 4.95376C74.832 5.69541 74.7095 6.35768 74.9273 7.07665C76.8778 4.57954 78.4473 2.12779 81.3005 0.408608C81.6883 0.17727 82.1192 -0.0495367 82.5638 0.0094334C83.2442 0.100152 83.6978 0.846342 83.7227 1.55851C83.75 2.26614 83.4574 2.94201 83.1693 3.58614C84.0924 2.57459 85.1312 1.67644 86.2561 0.914381C86.6531 0.646752 87.0908 0.385929 87.5648 0.397271C88.3223 0.413145 88.9211 1.14346 89.0776 1.91232C89.2364 2.68119 89.0572 3.47727 88.8803 4.23933C90.3409 3.50448 91.9149 3.01005 93.5252 2.77645C94.8634 2.58139 96.3603 2.61541 97.3945 3.51356C98.4333 4.41397 98.5444 6.43933 97.3287 7.0517C98.8959 6.32139 100.504 5.57748 102.216 5.455C103.931 5.33026 105.802 5.94717 106.746 7.435C107.258 8.24469 107.451 9.22902 107.567 10.1907C107.864 12.715 107.68 15.2983 107.027 17.7501C108.483 16.3552 111.062 17.2692 112.057 19.0451C112.962 20.6599 111.937 23.0459 112.627 24.3024C113.244 25.4251 114.999 24.8536 115.918 26.2189C116.693 27.3711 116.727 28.8612 116.58 30.2424C116.26 33.2929 115.19 36.2618 113.489 38.8134C114.04 38.7612 114.593 38.7136 115.146 38.6614C115.307 38.6455 115.487 38.6387 115.62 38.7317C115.745 38.8202 115.797 38.9789 115.829 39.1286C116.648 42.9072 111.382 45.3997 108.381 44.6399C108.735 44.3111 109.152 44.9711 109.204 45.4564C109.336 46.7538 109.467 48.0828 109.157 49.3461C108.848 50.6094 108.002 51.816 106.784 52.154C105.569 52.4874 104.069 51.6323 103.992 50.3305C104.283 52.4057 102.992 54.6035 101.08 55.2884C100.225 55.5969 99.0093 55.429 98.7939 54.5195C98.0908 56.3022 96.4555 57.6517 94.6252 57.9692C93.8564 58.1008 92.779 57.7515 92.8788 56.9509C91.4681 57.9239 89.7966 58.6837 88.1182 58.4387C86.4376 58.1938 84.8658 56.6243 85.0768 54.8824C83.9745 56.0323 82.3687 56.842 80.8514 56.436C79.3364 56.0301 78.2613 54.0387 79.1118 52.6779C77.3473 55.4948 73.9157 56.6039 71.2032 54.3109C70.6656 53.855 70.1939 53.2744 70.0691 52.5826C69.9444 51.8909 70.2551 51.0903 70.906 50.8249C69.865 50.9451 68.7877 51.0676 67.783 50.7659C64.8186 49.8814 66.2248 45.9872 68.4906 47.1076C66.0366 46.663 63.4465 46.1527 61.5799 44.4449C59.7087 42.7371 59.0011 39.3985 60.7951 37.6068C58.5475 36.8651 56.7104 34.9123 56.0526 32.5672C55.8961 32.0002 55.81 31.3628 56.0753 30.8412C56.3089 30.3808 56.7739 30.1018 57.232 29.8863C58.5248 29.283 59.9605 29.0109 61.3757 29.1061C59.3799 28.3373 57.8263 26.4457 57.4135 24.282C57.3046 23.7195 57.2865 23.08 57.6289 22.6309C58.0236 22.1092 58.7448 22.0276 59.3821 22.014C61.3326 21.9754 63.29 22.1977 65.186 22.674C62.664 21.9936 60.8359 19.2334 61.1308 16.5503C61.1852 16.0604 61.3054 15.5682 61.5912 15.1713C62.1242 14.4319 63.1357 14.2028 64.0135 14.3729C64.8889 14.5453 65.6691 15.0488 66.4244 15.541C65.6759 14.2437 64.5941 12.1026 66.3904 11.1274C67.2613 10.6533 68.3636 10.794 69.2594 11.2249C69.7289 11.4472 70.2846 11.7443 70.7246 11.4676C69.9535 10.7531 69.1801 10.0387 68.4089 9.32428C68.2842 9.20634 68.1526 9.08387 68.0959 8.92283C67.8941 8.34222 68.7151 7.94531 69.3275 7.98613C70.1871 8.04057 71.0285 8.38304 71.684 8.94098C71.8019 9.04304 71.9403 9.15645 72.0945 9.13376C72.3531 9.09294 72.3871 8.74139 72.3644 8.48284C72.2714 7.33294 72.3735 6.16944 72.6638 5.05356C72.75 4.71789 72.8611 4.37995 73.0607 4.10098Z" fill="#8ACC9E"/>
<path d="M94.9144 45.1762C95.5903 52.7991 95.8262 60.4923 95.6266 68.1628C95.613 68.7616 95.5812 69.4034 95.3113 69.8752C94.9711 70.4603 94.3724 70.6078 93.828 70.6917C89.2829 71.4061 84.6288 70.8323 80.2515 69.0156C79.519 68.7117 78.7093 68.2739 78.419 67.3123C78.2284 66.6818 78.3078 65.9719 78.3827 65.2983C79.0721 59.1428 79.0994 52.8535 78.4666 46.6867L94.9144 45.1762Z" fill="#F2663B"/>
<path d="M71.4416 36.691C71.7024 41.0955 72.029 45.7042 74.3492 49.4555C77.1593 53.9984 82.5777 56.4933 87.9144 56.7722C91.2053 56.9446 94.7525 56.2506 97.0727 53.9077C98.5288 52.4357 99.3612 50.4626 100.021 48.5007C102.598 40.8438 103.097 32.4951 101.445 24.5842C100.72 21.1209 99.5176 17.6122 97.0478 15.0743C90.822 8.6807 79.4387 11.2958 74.2948 17.805C69.795 23.4933 71.0447 30.0298 71.4416 36.691Z" fill="#F2663B"/>
<path d="M105.23 32.9743C105.593 32.9743 105.965 33.0242 106.28 33.2079C106.618 33.4007 106.861 33.7318 107.049 34.0766C107.584 35.0654 107.746 36.2494 107.491 37.3471C107.26 38.3541 106.698 39.25 106.147 40.1254C105.845 40.604 105.546 41.0826 105.242 41.5634C104.686 42.4502 104.087 43.3733 103.164 43.8677C102.243 44.3621 100.898 44.2351 100.383 43.3211C100.202 42.9968 100.148 42.6203 100.1 42.2529C99.669 38.8508 100.667 32.9698 105.23 32.9743Z" fill="#F2663B"/>
<path d="M68.7282 32.9743C68.3653 32.9743 67.991 33.0242 67.6758 33.2079C67.3378 33.4007 67.0952 33.7318 66.9092 34.0766C66.3717 35.0654 66.2106 36.2494 66.4647 37.3471C66.6983 38.3541 67.2607 39.25 67.8096 40.1254C68.1113 40.604 68.4129 41.0826 68.7145 41.5634C69.2725 42.4502 69.869 43.3733 70.7921 43.8677C71.7152 44.3621 73.0601 44.2351 73.5727 43.3211C73.7541 42.9968 73.8086 42.6203 73.8585 42.2529C74.2871 38.8508 73.2915 32.9698 68.7282 32.9743Z" fill="#F2663B"/>
<path d="M92.8562 29.9111C93.4118 30.0766 94.0061 30.0245 94.5867 30.0517C95.6663 30.0993 96.7345 30.4395 97.6417 31.0269C98.3879 31.5078 99.5877 31.9523 99.8032 30.6505C99.9279 29.8725 99.3541 29.5958 98.8075 29.1808C97.2788 28.015 95.6844 27.3459 93.7452 27.2643C93.2485 27.2416 92.7178 27.262 92.3005 27.5296C91.2481 28.2055 91.8537 29.6117 92.8562 29.9111Z" fill="#8ACC9E"/>
<path d="M81.6275 29.9111C81.0696 30.0766 80.4754 30.0245 79.8947 30.0517C78.8151 30.0993 77.7492 30.4395 76.8397 31.0269C76.0935 31.5078 74.8937 31.9523 74.6805 30.6505C74.5535 29.8725 75.1296 29.5958 75.6762 29.1808C77.2048 28.015 78.797 27.3459 80.7362 27.2643C81.2351 27.2416 81.7636 27.262 82.1809 27.5296C83.2356 28.2055 82.63 29.6117 81.6275 29.9111Z" fill="#8ACC9E"/>
<path d="M77.1377 21.8447C78.8841 22.6566 81.2769 24.1422 83.2456 24.1082C86.0352 24.0651 84.7538 21.221 83.2138 19.9055C85.5181 21.8719 87.8066 23.9925 90.5396 25.3647C91.7348 25.9589 93.4653 26.764 94.8511 26.4488C96.7517 26.0133 96.0464 24.7886 95.3501 23.1012C96.2596 25.3034 98.548 26.8661 100.932 26.9069C100.356 28.9777 100.494 31.0711 100.385 33.2234C100.328 34.142 100.374 35.2669 101.186 35.7047C101.837 36.0585 102.689 35.7273 103.154 35.149C103.617 34.5729 103.78 33.8177 103.907 33.0896C104.463 29.8939 104.558 26.6166 104.193 23.3983C104.046 22.11 103.823 20.8195 103.297 19.6356C102.463 17.7554 100.927 16.2857 99.3759 14.9317C97.355 13.1717 95.2095 11.4979 92.7441 10.4432C89.0245 8.85105 84.6994 8.77621 80.8891 10.1416C78.0744 11.1508 75.0058 13.0764 73.2662 15.5735C71.4427 18.1977 73.9126 20.3455 77.1377 21.8447Z" fill="#8ACC9E"/>
<path d="M75.1061 27.7959C75.0562 28.8868 74.3055 30.1365 72.965 29.1975C72.3368 28.7575 72.0238 28.0068 71.7471 27.2924C72.5727 29.4312 72.9582 31.6107 72.9083 33.9015C72.9015 34.1918 72.8857 34.5048 72.7019 34.7338C72.423 35.0831 71.8605 35.0763 71.484 34.8359C71.1075 34.5955 70.8784 34.1872 70.672 33.7926C69.3067 31.1594 68.4153 28.2881 68.0479 25.3464C67.7508 22.9695 68.531 15.6415 72.6838 17.4173C75.1038 18.4516 75.2059 21.6314 75.1809 23.8722C75.1673 25.0992 75.0403 26.3307 75.1038 27.5532C75.1083 27.6326 75.1083 27.7142 75.1061 27.7959Z" fill="#8ACC9E"/>
<path d="M78.5391 35.1405C78.5391 36.1656 78.1422 36.9957 77.6546 36.9957C77.167 36.9957 76.7723 36.1656 76.7723 35.1405C76.7723 34.1153 77.167 33.2829 77.6546 33.2829C78.1422 33.2829 78.5391 34.1153 78.5391 35.1405Z" fill="#292929"/>
<path d="M93.5727 34.9632C93.5727 35.9883 93.1781 36.8184 92.6882 36.8184C92.2028 36.8184 91.8059 35.9883 91.8059 34.9632C91.8059 33.938 92.2028 33.1056 92.6882 33.1056C93.1781 33.1056 93.5727 33.938 93.5727 34.9632Z" fill="#292929"/>
<path d="M80.1257 38.5913C79.6268 39.1855 78.9327 39.7593 78.1684 39.6346C77.9643 39.6006 77.7647 39.5166 77.5606 39.5348C77.2521 39.5597 76.9958 39.8092 76.9074 40.1041C76.8189 40.3989 76.8779 40.7187 77.0117 40.9999C77.3315 41.6713 78.0505 42.0954 78.7853 42.2156C79.5224 42.3336 80.2754 42.1907 80.9921 41.9797C81.5977 41.8006 82.2055 41.5624 82.6682 41.1315C83.496 40.3626 83.7092 39.1447 83.7773 38.0175C83.8272 37.2078 83.7546 34.2684 82.2509 35.0713C81.7156 35.3571 81.5614 36.2983 81.3074 36.7995C80.983 37.4391 80.5861 38.0424 80.1257 38.5913Z" fill="#45469B"/>
<path d="M82.025 45.9357C82.3562 46.3599 82.7054 46.7931 83.1976 47.0312C83.692 47.2739 84.3067 47.2784 84.8056 47.0448C85.3046 46.8135 85.6788 46.3485 85.79 45.8246" stroke="#292929" stroke-width="0.468" stroke-miterlimit="10" stroke-linecap="round" stroke-linejoin="round"/>
<ellipse cx="-5.62395" cy="69.6773" rx="4.94506" ry="11.0567" transform="rotate(-25.9635 -5.62395 69.6773)" fill="#F2663B"/>
<circle cx="-4.23919" cy="65.5029" r="5.10309" fill="#FFD200"/>
<ellipse cx="-1.03402" cy="72.8764" rx="2.61745" ry="7.13284" transform="rotate(-0.344704 -1.03402 72.8764)" fill="#F2663B"/>
</g>
<path d="M73.0607 4.10104C73.0947 4.05341 73.131 4.00805 73.1718 3.96269C73.444 3.66784 73.8885 3.49094 74.2627 3.64517C74.739 3.83795 74.8978 4.43898 74.8706 4.95382C74.832 5.69547 74.7095 6.35775 74.9273 7.07671C76.8778 4.5796 78.4473 2.12785 81.3005 0.408669C81.6883 0.177331 82.1192 -0.0494757 82.5638 0.00949443C83.2442 0.100213 83.6978 0.846403 83.7227 1.55857C83.75 2.2662 83.4574 2.94208 83.1693 3.5862C84.0924 2.57465 85.1312 1.6765 86.2561 0.914442C86.6531 0.646813 87.0908 0.38599 87.5648 0.397332C88.3223 0.413206 88.9211 1.14352 89.0776 1.91238C89.2364 2.68125 89.0572 3.47733 88.8803 4.23939C90.3409 3.50455 91.9149 3.01011 93.5252 2.77651C94.8634 2.58145 96.3603 2.61547 97.3945 3.51362C98.4333 4.41403 98.5444 6.4394 97.3287 7.05177C98.8959 6.32145 100.504 5.57754 102.216 5.45506C103.931 5.33032 105.802 5.94723 106.746 7.43506C107.258 8.24475 107.451 9.22908 107.567 10.1907C107.864 12.7151 107.68 15.2984 107.027 17.7501C108.483 16.3553 111.062 17.2693 112.057 19.0452C112.962 20.66 111.937 23.046 112.627 24.3025C113.244 25.4252 114.999 24.8536 115.918 26.219C116.693 27.3711 116.727 28.8612 116.58 30.2425C116.26 33.293 115.19 36.2619 113.489 38.8134C114.04 38.7612 114.593 38.7136 115.146 38.6615C115.307 38.6456 115.487 38.6388 115.62 38.7318C115.745 38.8202 115.797 38.979 115.829 39.1287C116.648 42.9072 111.382 45.3998 108.381 44.64C108.735 44.3111 109.152 44.9711 109.204 45.4565C109.336 46.7538 109.467 48.0829 109.157 49.3462C108.848 50.6095 108.002 51.8161 106.784 52.154C105.569 52.4874 104.069 51.6324 103.992 50.3305C104.283 52.4058 102.992 54.6035 101.08 55.2885C100.225 55.5969 99.0093 55.4291 98.7939 54.5196C98.0908 56.3023 96.4555 57.6518 94.6252 57.9693C93.8564 58.1008 92.779 57.7516 92.8788 56.9509C91.4681 57.9239 89.7966 58.6837 88.1182 58.4388C86.4376 58.1938 84.8658 56.6243 85.0768 54.8825C83.9745 56.0324 82.3687 56.8421 80.8514 56.4361C79.3364 56.0301 78.2613 54.0388 79.1118 52.6779C77.3473 55.4949 73.9157 56.6039 71.2032 54.3109C70.6656 53.8551 70.1939 53.2744 70.0691 52.5827C69.9444 51.8909 70.2551 51.0903 70.906 50.825C69.865 50.9452 68.7877 51.0676 67.783 50.766C64.8186 49.8815 66.2248 45.9872 68.4906 47.1076C66.0366 46.6631 63.4465 46.1528 61.5799 44.445C59.7087 42.7371 59.0011 39.3986 60.7951 37.6068C58.5475 36.8652 56.7104 34.9124 56.0526 32.5672C55.8961 32.0002 55.81 31.3629 56.0753 30.8412C56.3089 30.3808 56.7739 30.1019 57.232 29.8864C58.5248 29.2831 59.9605 29.0109 61.3757 29.1062C59.3799 28.3373 57.8263 26.4458 57.4135 24.2821C57.3046 23.7196 57.2865 23.08 57.6289 22.6309C58.0236 22.1093 58.7448 22.0276 59.3821 22.014C61.3326 21.9755 63.29 22.1977 65.186 22.674C62.664 21.9936 60.8359 19.2334 61.1308 16.5503C61.1852 16.0604 61.3054 15.5683 61.5912 15.1714C62.1242 14.432 63.1357 14.2029 64.0135 14.373C64.8889 14.5454 65.6691 15.0489 66.4244 15.541C65.6759 14.2437 64.5941 12.1027 66.3904 11.1274C67.2613 10.6534 68.3636 10.794 69.2594 11.225C69.7289 11.4472 70.2846 11.7443 70.7246 11.4676C69.9535 10.7532 69.1801 10.0388 68.4089 9.32434C68.2842 9.2064 68.1526 9.08393 68.0959 8.9229C67.8941 8.34228 68.7151 7.94537 69.3275 7.98619C70.1871 8.04063 71.0285 8.38311 71.684 8.94104C71.8019 9.0431 71.9403 9.15651 72.0945 9.13382C72.3531 9.093 72.3871 8.74145 72.3644 8.4829C72.2714 7.333 72.3735 6.1695 72.6638 5.05362C72.75 4.71795 72.8611 4.38001 73.0607 4.10104Z" fill="#8ACC9E"/>
<path d="M94.9144 45.1762C95.5903 52.7991 95.8262 60.4923 95.6266 68.1628C95.613 68.7616 95.5812 69.4034 95.3113 69.8752C94.9711 70.4603 94.3724 70.6078 93.828 70.6917C89.2829 71.4061 84.6288 70.8323 80.2515 69.0156C79.519 68.7117 78.7093 68.2739 78.419 67.3123C78.2284 66.6818 78.3078 65.9719 78.3827 65.2983C79.0721 59.1428 79.0994 52.8535 78.4666 46.6867L94.9144 45.1762Z" fill="#F2663B"/>
<path d="M71.4416 36.691C71.7024 41.0955 72.029 45.7042 74.3492 49.4555C77.1593 53.9984 82.5777 56.4933 87.9144 56.7722C91.2053 56.9446 94.7525 56.2506 97.0727 53.9077C98.5288 52.4357 99.3612 50.4626 100.021 48.5007C102.598 40.8438 103.097 32.4951 101.445 24.5842C100.72 21.1209 99.5176 17.6122 97.0478 15.0743C90.822 8.6807 79.4387 11.2958 74.2948 17.805C69.795 23.4933 71.0447 30.0298 71.4416 36.691Z" fill="#F2663B"/>
<path d="M105.23 32.9743C105.593 32.9743 105.965 33.0242 106.28 33.2079C106.618 33.4007 106.861 33.7318 107.049 34.0766C107.584 35.0654 107.746 36.2494 107.491 37.3471C107.26 38.3541 106.698 39.25 106.147 40.1254C105.845 40.604 105.546 41.0826 105.242 41.5634C104.686 42.4502 104.087 43.3733 103.164 43.8677C102.243 44.3621 100.898 44.2351 100.383 43.3211C100.202 42.9968 100.148 42.6203 100.1 42.2529C99.669 38.8508 100.667 32.9698 105.23 32.9743Z" fill="#F2663B"/>
<path d="M68.7282 32.9743C68.3653 32.9743 67.991 33.0242 67.6758 33.2079C67.3378 33.4007 67.0952 33.7318 66.9092 34.0766C66.3717 35.0654 66.2106 36.2494 66.4647 37.3471C66.6983 38.3541 67.2607 39.25 67.8096 40.1254C68.1113 40.604 68.4129 41.0826 68.7145 41.5634C69.2725 42.4502 69.869 43.3733 70.7921 43.8677C71.7152 44.3621 73.0601 44.2351 73.5727 43.3211C73.7541 42.9968 73.8086 42.6203 73.8585 42.2529C74.2871 38.8508 73.2915 32.9698 68.7282 32.9743Z" fill="#F2663B"/>
<path d="M92.8563 29.9111C93.4119 30.0767 94.0062 30.0245 94.5868 30.0517C95.6664 30.0994 96.7346 30.4396 97.6418 31.027C98.388 31.5078 99.5878 31.9524 99.8033 30.6505C99.928 29.8726 99.3542 29.5959 98.8076 29.1808C97.279 28.015 95.6845 27.346 93.7453 27.2643C93.2486 27.2416 92.7179 27.2621 92.3006 27.5297C91.2482 28.2056 91.8538 29.6117 92.8563 29.9111Z" fill="#8ACC9E"/>
<path d="M81.6275 29.9111C81.0696 30.0767 80.4754 30.0245 79.8947 30.0517C78.8151 30.0994 77.7492 30.4396 76.8397 31.027C76.0935 31.5078 74.8937 31.9524 74.6805 30.6505C74.5535 29.8726 75.1296 29.5959 75.6762 29.1808C77.2048 28.015 78.797 27.346 80.7362 27.2643C81.2351 27.2416 81.7636 27.2621 82.1809 27.5297C83.2356 28.2056 82.63 29.6117 81.6275 29.9111Z" fill="#8ACC9E"/>
<path d="M77.1378 21.8447C78.8842 22.6566 81.277 24.1422 83.2457 24.1082C86.0354 24.0651 84.7539 21.221 83.2139 19.9055C85.5183 21.8719 87.8067 23.9925 90.5397 25.3647C91.735 25.9589 93.4655 26.764 94.8512 26.4488C96.7519 26.0133 96.0465 24.7886 95.3502 23.1012C96.2597 25.3034 98.5482 26.8661 100.932 26.9069C100.356 28.9777 100.494 31.0711 100.385 33.2234C100.329 34.142 100.374 35.2669 101.186 35.7047C101.837 36.0585 102.69 35.7273 103.155 35.149C103.617 34.5729 103.781 33.8177 103.908 33.0896C104.463 29.8939 104.558 26.6166 104.193 23.3983C104.046 22.11 103.824 20.8195 103.297 19.6356C102.463 17.7554 100.927 16.2857 99.376 14.9317C97.3552 13.1717 95.2096 11.4979 92.7442 10.4432C89.0246 8.85105 84.6995 8.77621 80.8892 10.1416C78.0745 11.1508 75.0059 13.0764 73.2663 15.5735C71.4428 18.1977 73.9127 20.3455 77.1378 21.8447Z" fill="#8ACC9E"/>
<path d="M75.1061 27.7959C75.0562 28.8868 74.3055 30.1365 72.965 29.1975C72.3368 28.7575 72.0238 28.0068 71.7471 27.2924C72.5727 29.4312 72.9582 31.6107 72.9083 33.9015C72.9015 34.1918 72.8857 34.5048 72.7019 34.7338C72.423 35.0831 71.8605 35.0763 71.484 34.8359C71.1075 34.5955 70.8784 34.1872 70.672 33.7926C69.3067 31.1594 68.4153 28.2881 68.0479 25.3464C67.7508 22.9695 68.531 15.6415 72.6838 17.4173C75.1038 18.4516 75.2059 21.6314 75.1809 23.8722C75.1673 25.0992 75.0403 26.3307 75.1038 27.5532C75.1083 27.6326 75.1083 27.7142 75.1061 27.7959Z" fill="#8ACC9E"/>
<path d="M78.5393 35.1405C78.5393 36.1657 78.1424 36.9958 77.6547 36.9958C77.1671 36.9958 76.7725 36.1657 76.7725 35.1405C76.7725 34.1154 77.1671 33.283 77.6547 33.283C78.1424 33.283 78.5393 34.1154 78.5393 35.1405Z" fill="#292929"/>
<path d="M93.5727 34.9632C93.5727 35.9883 93.1781 36.8184 92.6882 36.8184C92.2028 36.8184 91.8059 35.9883 91.8059 34.9632C91.8059 33.938 92.2028 33.1056 92.6882 33.1056C93.1781 33.1056 93.5727 33.938 93.5727 34.9632Z" fill="#292929"/>
<path d="M80.1258 38.5913C79.6269 39.1856 78.9329 39.7594 78.1685 39.6346C77.9644 39.6006 77.7648 39.5167 77.5607 39.5349C77.2522 39.5598 76.996 39.8093 76.9075 40.1041C76.819 40.399 76.878 40.7188 77.0118 41C77.3316 41.6713 78.0506 42.0955 78.7854 42.2157C79.5225 42.3336 80.2755 42.1907 80.9922 41.9798C81.5978 41.8006 82.2056 41.5625 82.6683 41.1316C83.4962 40.3627 83.7094 39.1448 83.7774 38.0175C83.8273 37.2078 83.7547 34.2685 82.251 35.0713C81.7157 35.3571 81.5615 36.2984 81.3075 36.7996C80.9832 37.4392 80.5863 38.0425 80.1258 38.5913Z" fill="#45469B"/>
<path d="M82.025 45.9357C82.3562 46.3599 82.7054 46.7931 83.1976 47.0312C83.692 47.2739 84.3067 47.2784 84.8056 47.0448C85.3046 46.8135 85.6788 46.3485 85.79 45.8246" stroke="#292929" stroke-width="0.468" stroke-miterlimit="10" stroke-linecap="round" stroke-linejoin="round"/>
<g opacity="0.8">
<path d="M72.1518 90.9465L85.5725 84.8476C85.7607 84.7672 85.994 84.7799 86.1724 84.8804L98.8475 92.4073C99.0258 92.5078 99.1326 92.695 99.1219 92.891L98.3754 106.532C98.3647 106.728 98.2382 106.902 98.0499 106.983L84.6292 113.082C84.5268 113.121 84.4252 113.146 84.3252 113.141C84.2252 113.135 84.1269 113.1 84.0293 113.049L71.3543 105.522C71.1759 105.421 71.0692 105.234 71.0799 105.038L71.8263 91.3974C71.837 91.2014 71.9636 91.0269 72.1518 90.9465Z" fill="#FFD200"/>
<path d="M76.5171 93.6346L85.4298 89.587C85.5497 89.533 85.6997 89.5413 85.8297 89.6088L94.2475 94.6048C94.3609 94.6715 94.4376 94.7967 94.431 94.9172L93.9361 103.961C93.9295 104.082 93.8396 104.198 93.7197 104.251L84.807 108.299C84.7387 108.326 84.6712 108.337 84.6045 108.333C84.5379 108.33 84.4721 108.311 84.4071 108.277L75.9892 103.281C75.8759 103.215 75.7992 103.089 75.8058 102.969L76.3006 93.9252C76.3072 93.8046 76.3797 93.7027 76.5171 93.6346Z" stroke="#BC4F2C" stroke-width="0.3705" stroke-miterlimit="10" stroke-linecap="round" stroke-linejoin="round"/>
<path d="M84.3357 113.052C84.3357 113.052 84.4372 111.197 84.5881 108.438" stroke="#BC4F2C" stroke-width="0.3705" stroke-miterlimit="10" stroke-linecap="round" stroke-linejoin="round"/>
<path d="M85.6206 89.5693C85.7749 86.7497 85.8781 84.865 85.8781 84.865" stroke="#BC4F2C" stroke-width="0.3705" stroke-miterlimit="10" stroke-linecap="round" stroke-linejoin="round"/>
<path d="M71.1586 105.164C71.1586 105.164 73.0253 104.344 75.7841 103.104" stroke="#BC4F2C" stroke-width="0.3705" stroke-miterlimit="10" stroke-linecap="round" stroke-linejoin="round"/>
<path d="M94.3873 94.8249C97.1628 93.5855 99.047 92.751 99.047 92.751" stroke="#BC4F2C" stroke-width="0.3705" stroke-miterlimit="10" stroke-linecap="round" stroke-linejoin="round"/>
<path d="M71.8822 91.3248C71.8822 91.3248 73.6482 92.344 76.2727 93.8638" stroke="#BC4F2C" stroke-width="0.3705" stroke-miterlimit="10" stroke-linecap="round" stroke-linejoin="round"/>
<path d="M93.9199 104.036C96.561 105.556 98.3437 106.576 98.3437 106.576" stroke="#BC4F2C" stroke-width="0.3705" stroke-miterlimit="10" stroke-linecap="round" stroke-linejoin="round"/>
</g>
<rect x="0.00012207" y="162" width="14" height="10" rx="4" fill="#E7E7E7"/>
<rect x="82.0001" y="162" width="14" height="10" rx="4" fill="#E7E7E7"/>
<path d="M0.000122074 103C0.000122072 100.791 1.79098 99 4.00012 99L92.0001 99C94.2093 99 96.0001 100.791 96.0001 103L96.0001 167L0.000122125 167L0.000122074 103Z" fill="#E7E7E7"/>
<rect x="6.00012" y="105" width="70" height="56" rx="4" fill="#9B4198"/>
<rect x="64.0001" y="113" width="16" height="8" rx="2" fill="#45469B"/>
<rect x="14.0001" y="113" width="24" height="12" rx="4" fill="#8ACC9E"/>
<rect x="23.0001" y="131" width="6" height="5" rx="2.5" fill="#FFD200"/>
<rect x="32.0001" y="131" width="6" height="5" rx="2.5" fill="#F99D33"/>
<rect x="14.0001" y="131" width="6" height="5" rx="2.5" fill="#FFD200"/>
<rect x="23.0001" y="139" width="6" height="5" rx="2.5" fill="#FFD200"/>
<rect x="32.0001" y="139" width="6" height="5" rx="2.5" fill="#FFD200"/>
<rect x="14.0001" y="139" width="6" height="5" rx="2.5" fill="#FFD200"/>
<rect x="23.0001" y="147" width="6" height="5" rx="2.5" fill="#FFD200"/>
<rect x="32.0001" y="147" width="6" height="5" rx="2.5" fill="#FFD200"/>
<rect x="14.0001" y="147" width="6" height="5" rx="2.5" fill="#F2663B"/>
<rect x="64.0001" y="145" width="16" height="8" rx="2" fill="#45469B"/>
<path d="M20.6056 119.996L20.6056 122L19.4337 122L19.4337 116.312L21.6525 116.312C22.0795 116.312 22.4545 116.391 22.7775 116.547C23.103 116.703 23.353 116.926 23.5275 117.215C23.7019 117.501 23.7892 117.828 23.7892 118.195C23.7892 118.753 23.5978 119.193 23.215 119.516C22.8348 119.836 22.3074 119.996 21.6329 119.996L20.6056 119.996ZM20.6056 119.047L21.6525 119.047C21.9624 119.047 22.198 118.974 22.3595 118.828C22.5236 118.682 22.6056 118.474 22.6056 118.203C22.6056 117.924 22.5236 117.699 22.3595 117.527C22.1954 117.355 21.9689 117.267 21.6798 117.262L20.6056 117.262L20.6056 119.047ZM25.8439 122L24.672 122L24.672 116.312L25.8439 116.312L25.8439 122ZM31.5587 122L30.3868 122L28.1056 118.258L28.1056 122L26.9337 122L26.9337 116.312L28.1056 116.312L30.3907 120.062L30.3907 116.312L31.5587 116.312L31.5587 122Z" fill="black"/>
</svg>
