<svg fill="none" height="165" viewBox="0 0 167 165" width="167" xmlns="http://www.w3.org/2000/svg" xmlns:xlink="http://www.w3.org/1999/xlink"><mask id="a" height="143" maskUnits="userSpaceOnUse" width="144" x="23" y="22"><circle cx="95.2578" cy="93.5567" fill="#fff" r="71.4433"/></mask><g mask="url(#a)"><circle cx="98.8145" cy="96.1134" fill="#fff" r="70"/><g fill="#00bdcd"><path d="m138.809 97.6888c2.033 5.0782 5.21 9.7342 9.19 13.4792.2-3.259.4-6.489.599-9.764.123-1.9757.243-3.9511.365-5.9334.531-8.6548 3.212-17.6204-3.57-23.379-1.503-1.2791-3.236-2.1523-4.973-2.962-1.057-.4922-2.146-.9639-3.237-1.438-2.295 9.9114-2.15 20.553 1.626 29.9972z"/><path d="m77.3872 69.8146c-.6623.2608-1.3313.5194-1.9868.7802-2.0979.973-4.3388 2.0934-5.4864 4.3773-2.3089 4.6041-1.9392 8.7206-1.3744 13.6196.6917 5.9944.499 12.2813.7076 18.2623.1248 3.534.1905 7.026.2858 10.54 8.5029-14.085 11.3901-31.499 7.8542-47.5794z"/><path d="m65.7113 79.8722c-4.1142 6.7542-8.3283 13.3361-12.1 20.3398-.5058.934-1.007 1.869-1.5105 2.803-.7938 1.475-1.5854 2.944-2.3633 4.423-3.4724 6.593-7.4301 15.259-4.679 22.692 1.2747 3.445 5.0782 5.731 8.2511 3.982 1.32-.725 2.3407-2.005 3.3091-3.259 8.1309-10.542 15.273-22.011 21.247-34.1202 2.2613-4.586 4.4159-9.5144 4.3433-14.5699-.0907-6.6476-5.3389-13.1093-11.1655-8.6457-2.0481 1.5672-3.7831 3.8171-5.3322 6.355z"/><path d="m138.81 97.6888c-3.776-9.4441-3.921-20.0858-1.626-29.9971-1.853-.8029-3.735-1.5854-5.668-2.3021-1.224-.4536-2.458-.8936-3.703-1.2973-.08.2313-.177.4559-.259.685.07-.1974.152-.3902.222-.5897-.251-.0794-.506-.1452-.757-.2223.097 1.2361.115 2.4744-.091 3.6924-1.676 9.8546-15.811 8.8317-22.696 5.9808-3.405-1.4107-6.4801-3.9736-7.7502-7.4324-.322-.88-.5057-1.794-.6305-2.7194-.5489.1475-1.0977.2767-1.6443.4332-.0068-.0249-.0182-.0544-.025-.0816-.2472.0726-.4944.161-.7394.2359-5.4251 1.6398-10.814 3.6787-16.0554 5.7404 3.5359 16.0804.6486 33.4944-7.8542 47.5794.6826 25.136.7416 49.817.9117 74.019.0023.175 13.4109 1.291 14.452 1.375 7.2033.58 14.4043.755 21.6123.882 9.417.07 18.557-1.383 27.888-1.402.719-.002 1.465-.009 2.12-.347 1.59-.821 5.856-6.858 6.725-8.822 2.032-4.6 1.13-12.806 1.445-17.911.791-12.923 1.592-25.971 2.399-39.155.304-4.924.61-9.903.914-14.865-3.98-3.745-7.158-8.401-9.19-13.4792z"/><path d="m104.23 73.6397c6.885 2.8509 21.022 3.8738 22.696-5.9831.206-1.218.188-2.4563.091-3.6924-7.678-2.3474-15.677-3.5971-23.273-2.2907-2.622.4491-5.2594 1.0932-7.8949 1.8122.1248.9276.3085 1.8416.6305 2.7216 1.2724 3.4565 4.3454 6.0217 7.7504 7.4324z"/><path d="m152.388 84.8761c1.567 7.7518 3.285 15.3769 4.442 23.2459.157 1.052.31 2.101.464 3.153.245 1.651.487 3.306.716 4.961 1.016 7.383 1.782 16.877-3.336 22.926-2.377 2.807-6.728 3.657-9.117.933-.994-1.132-1.52-2.683-2-4.19-4.05-12.684-6.855-25.899-8.342-39.3233-.565-5.0809-.905-10.4462.881-15.1768 2.352-6.2183 9.49-10.5035 13.447-4.3189 1.39 2.1686 2.258 4.8761 2.845 7.7901z"/></g><path d="m96.875 4.10102c.034-.04763.0703-.09299.1111-.13835.2722-.29485.7168-.47175 1.091-.31753.4763.19279.635.79382.6078 1.30866-.0385.74165-.161 1.40392.0567 2.12289 1.9504-2.49711 3.5204-4.94887 6.3734-6.668043.388-.231339.819-.4581456 1.263-.39917544.681.09071844 1.134.83690844 1.159 1.54906844.027.70764-.265 1.38351-.553 2.02764.923-1.01155 1.962-1.9097 3.086-2.671761.397-.267629.835-.528452 1.309-.51711.758.015874 1.356.746181 1.513 1.515051.159.76886-.02 1.56495-.197 2.32701 1.46-.73485 3.034-1.22928 4.645-1.46289 1.338-.19505 2.835-.16103 3.869.73712 1.039.90041 1.15 2.92577-.066 3.53814 1.567-.73031 3.175-1.47422 4.888-1.5967 1.714-.12474 3.585.49217 4.529 1.98.513.80969.705 1.79402.821 2.75566.297 2.5243.113 5.1076-.54 7.5594 1.456-1.3949 4.035-.4808 5.031 1.295.905 1.6149-.12 4.0009.569 5.2574.617 1.1226 2.372.5511 3.291 1.9165.776 1.1521.81 2.6422.662 4.0235-.32 3.0505-1.39 6.0193-3.091 8.5709.551-.0522 1.104-.0998 1.658-.152.161-.0158.34-.0227.474.0703.125.0885.177.2473.208.3969.819 3.7786-4.447 6.2712-7.448 5.5114.354-.3289.771.3311.824.8165.131 1.2973.263 2.6264-.048 3.8897-.309 1.2633-1.155 2.4699-2.372 2.8078-1.216.3334-2.715-.5216-2.792-1.8235.29 2.0753-1.001 4.273-2.913 4.9579-.855.3085-2.07.1407-2.286-.7688-.703 1.7827-2.338 3.1321-4.168 3.4497-.769.1315-1.847-.2178-1.747-1.0184-1.411.973-3.082 1.7328-4.76 1.4878-1.681-.2449-3.253-1.8144-3.042-3.5562-1.102 1.1499-2.708 1.9595-4.225 1.5536-1.515-.406-2.59-2.3974-1.74-3.7582-1.764 2.8169-5.1959 3.926-7.9085 1.633-.5375-.4559-1.0093-1.0365-1.134-1.7282-.1248-.6918.1859-1.4924.8369-1.7578-1.0411.1202-2.1184.2427-3.1231-.0589-2.9643-.8846-1.5582-4.7788.7076-3.6584-2.454-.4445-5.0441-.9548-6.9107-2.6627-1.8711-1.7078-2.5788-5.0464-.7848-6.8381-2.2476-.7417-4.0847-2.6944-4.7424-5.0396-.1565-.567-.2427-1.2043.0227-1.726.2336-.4604.6985-.7394 1.1567-.9548 1.2927-.6033 2.7284-.8755 4.1437-.7802-1.9959-.7689-3.5495-2.6604-3.9623-4.8242-.1089-.5624-.127-1.202.2155-1.6511.3946-.5216 1.1158-.6033 1.7532-.6169 1.9505-.0386 3.9078.1837 5.8039.66-2.5221-.6804-4.3501-3.4406-4.0553-6.1237.0545-.4899.1747-.9821.4604-1.379.533-.7394 1.5446-.9684 2.4223-.7983.8755.1723 1.6557.6759 2.4109 1.168-.7484-1.2973-1.8303-3.4383-.034-4.4136.8709-.474 1.9732-.3334 2.8691.0975.4695.2223 1.0251.5194 1.4651.2427-.7711-.7144-1.5445-1.4289-2.3156-2.14328-.1248-.11794-.2563-.24042-.313-.40145-.2019-.58061.6191-.97752 1.2315-.9367.8596.05443 1.7011.39691 2.3565.95485.118.10206.2563.21546.4105.19278.2586-.04082.2926-.39237.2699-.65093-.093-1.14989.0091-2.3134.2994-3.42928.0862-.33566.1973-.6736.3969-.95257z" fill="#8acc9e"/><path d="m118.729 45.1762c.676 7.6229.911 15.3161.712 22.9866-.014.5988-.045 1.2406-.315 1.7124-.341.5851-.939.7326-1.484.8165-4.545.7144-9.199.1406-13.576-1.6761-.733-.3039-1.542-.7417-1.833-1.7033-.19-.6305-.111-1.3404-.036-2.014.689-6.1555.717-12.4448.084-18.6116z" fill="#f2663b"/><path d="m95.2559 36.691c.2608 4.4045.5874 9.0132 2.9076 12.7645 2.8105 4.5429 8.2285 7.0378 13.5655 7.3167 3.291.1724 6.838-.5216 9.158-2.8645 1.456-1.472 2.288-3.4451 2.948-5.407 2.577-7.6569 3.076-16.0056 1.425-23.9165-.726-3.4633-1.928-6.972-4.398-9.5099-6.226-6.3936-17.609-3.7785-22.7529 2.7307-4.4998 5.6883-3.2501 12.2248-2.8532 18.886z" fill="#f2663b"/><path d="m129.045 32.9743c.362 0 .734.0499 1.05.2336.338.1928.58.524.769.8687.535.9889.696 2.1728.442 3.2705-.232 1.007-.794 1.9029-1.345 2.7784-.302.4785-.601.9571-.905 1.4379-.556.8868-1.155 1.8099-2.078 2.3043-.92.4945-2.265.3674-2.78-.5466-.182-.3243-.236-.7008-.284-1.0682-.431-3.4021.567-9.2831 5.131-9.2786z" fill="#f2663b"/><path d="m92.5425 32.9743c-.3629 0-.7371.0499-1.0524.2336-.3379.1928-.5806.524-.7666.8687-.5375.9889-.6985 2.1728-.4445 3.2705.2336 1.007.7961 1.9029 1.3449 2.7784.3017.4785.6033.9571.905 1.4379.5579.8868 1.1544 1.8099 2.0775 2.3043.9231.4945 2.268.3674 2.7806-.5466.1815-.3243.2359-.7008.2858-1.0682.4287-3.4021-.567-9.2831-5.1303-9.2786z" fill="#f2663b"/><path d="m116.671 29.9111c.555.1656 1.15.1134 1.73.1406 1.08.0477 2.148.3879 3.055.9753.746.4808 1.946.9253 2.162-.3765.124-.7779-.449-1.0546-.996-1.4697-1.529-1.1658-3.123-1.8348-5.062-1.9165-.497-.0227-1.028-.0023-1.445.2654-1.052.6758-.447 2.082.556 2.3814z" fill="#8acc9e"/><path d="m105.442 29.9111c-.558.1656-1.152.1134-1.733.1406-1.08.0477-2.146.3879-3.055.9753-.7462.4808-1.946.9253-2.1592-.3765-.127-.7779.4491-1.0546.9957-1.4697 1.5285-1.1658 3.1205-1.8348 5.0605-1.9165.498-.0227 1.027-.0023 1.444.2654 1.055.6758.449 2.082-.553 2.3814z" fill="#8acc9e"/><path d="m100.952 21.8446c1.747.812 4.139 2.2976 6.108 2.2636 2.79-.0431 1.508-2.8873-.032-4.2027 2.305 1.9664 4.593 4.087 7.326 5.4591 1.195.5943 2.926 1.3994 4.312 1.0842 1.9-.4355 1.195-1.6602.499-3.3477.909 2.2023 3.197 3.765 5.581 3.8058-.576 2.0707-.438 4.1641-.546 6.3165-.057.9186-.012 2.0435.8 2.4812.651.3539 1.504.0227 1.969-.5556.463-.5761.626-1.3314.753-2.0594.556-3.1957.651-6.473.286-9.6913-.148-1.2883-.37-2.5788-.896-3.7627-.835-1.8802-2.37-3.3499-3.922-4.7039-2.021-1.76-4.166-3.4339-6.631-4.4885-3.72-1.59216-8.045-1.667-11.855-.3016-2.815 1.0092-5.8838 2.9348-7.6234 5.4319-1.8235 2.6241.6464 4.772 3.8714 6.2711z" fill="#8acc9e"/><path d="m98.9204 27.7959c-.0499 1.0909-.8006 2.3406-2.141 1.4016-.6283-.44-.9413-1.1907-1.218-1.9051.8256 2.1388 1.2112 4.3183 1.1613 6.6091-.0068.2903-.0227.6033-.2064.8323-.279.3493-.8415.3425-1.218.1021s-.6055-.6487-.8119-1.0433c-1.3654-2.6332-2.2567-5.5045-2.6241-8.4462-.2972-2.3769.4831-9.7049 4.6358-7.9291 2.42 1.0343 2.5221 4.2141 2.4971 6.4549-.0136 1.227-.1406 2.4585-.0771 3.681.0046.0794.0046.161.0023.2427z" fill="#8acc9e"/><path d="m102.354 35.1405c0 1.0252-.397 1.8553-.885 1.8553s-.882-.8301-.882-1.8553.394-1.8575.882-1.8575.885.8323.885 1.8575z" fill="#292929"/><path d="m117.387 34.9632c0 1.0251-.395 1.8552-.884 1.8552-.486 0-.883-.8301-.883-1.8552 0-1.0252.397-1.8576.883-1.8576.489 0 .884.8324.884 1.8576z" fill="#292929"/><path d="m103.94 38.5913c-.499.5943-1.193 1.1681-1.957 1.0433-.204-.034-.404-.1179-.608-.0998-.308.025-.565.2745-.653.5693-.089.2949-.03.6146.104.8959.32.6713 1.039 1.0955 1.774 1.2157.737.1179 1.49-.025 2.207-.2359.605-.1792 1.213-.4173 1.676-.8483.827-.7688 1.041-1.9868 1.109-3.114.05-.8097-.023-3.7491-1.527-2.9462-.535.2858-.689 1.227-.943 1.7283-.325.6396-.721 1.2429-1.182 1.7917z" fill="#45469b"/><path d="m105.839 45.9357c.331.4242.681.8574 1.173 1.0955.494.2427 1.109.2472 1.608.0136.499-.2313.873-.6963.984-1.2202" stroke="#292929" stroke-linecap="round" stroke-linejoin="round" stroke-miterlimit="10" stroke-width=".468"/><ellipse cx="18.1904" cy="69.6773" fill="#f2663b" rx="4.94506" ry="11.0567" transform="matrix(.89907313 -.43779849 .43779849 .89907313 -28.668716 14.996042)"/><path d="m26.9513 78.1168c-1.3579-1.6118-2.9402-3.3329-4.4465-3.7008-1.5578-.3806-2.4756.9074-2.5451 2.5836-.0663 1.6756.5283 3.6686 1.1143 5.6012 2.724 8.968 5.4492 17.9342 8.172 26.9042 2.201 7.247 5.8598 14.632 9.9363 20.979 2.4027 3.74 5.2011 5.883 10.0359 5.102 3.1006-.5 8.4014-2.258 8.3314-6.064-.0748-3.938-5.1819-12.508-7.3357-16.651-6.3777-12.263-14.2993-24.1331-23.2626-34.7542z" fill="#f2663b"/><circle cx="19.5751" cy="65.5029" fill="#ffd200" r="5.10309"/><ellipse cx="22.7803" cy="72.8764" fill="#f2663b" rx="2.61745" ry="7.13284" transform="matrix(.9999819 -.00601618 .00601618 .9999819 -.438026 .138369)"/></g><path d="m96.875 4.10102c.034-.04763.0703-.09299.1111-.13835.2722-.29485.7168-.47175 1.091-.31753.4763.19279.635.79382.6078 1.30866-.0385.74165-.161 1.40392.0567 2.12289 1.9504-2.49711 3.5204-4.94887 6.3734-6.668043.388-.231339.819-.4581456 1.263-.39917544.681.09071844 1.134.83690844 1.159 1.54906844.027.70764-.265 1.38351-.553 2.02764.923-1.01155 1.962-1.9097 3.086-2.671761.397-.267629.835-.528452 1.309-.51711.758.015874 1.356.746181 1.513 1.515051.159.76886-.02 1.56495-.197 2.32701 1.46-.73485 3.034-1.22928 4.645-1.46289 1.338-.19505 2.835-.16103 3.869.73712 1.039.90041 1.15 2.92577-.066 3.53814 1.567-.73031 3.175-1.47422 4.888-1.5967 1.714-.12474 3.585.49217 4.529 1.98.513.80969.705 1.79402.821 2.75566.297 2.5243.113 5.1076-.54 7.5594 1.456-1.3949 4.035-.4808 5.031 1.295.905 1.6149-.12 4.0009.569 5.2574.617 1.1226 2.372.5511 3.291 1.9165.776 1.1521.81 2.6422.662 4.0235-.32 3.0505-1.39 6.0193-3.091 8.5709.551-.0522 1.104-.0998 1.658-.152.161-.0158.34-.0227.474.0703.125.0885.177.2473.208.3969.819 3.7786-4.447 6.2712-7.448 5.5114.354-.3289.771.3311.824.8165.131 1.2973.263 2.6264-.048 3.8897-.309 1.2633-1.155 2.4699-2.372 2.8078-1.216.3334-2.715-.5216-2.792-1.8235.29 2.0753-1.001 4.273-2.913 4.9579-.855.3085-2.07.1407-2.286-.7688-.703 1.7827-2.338 3.1321-4.168 3.4497-.769.1315-1.847-.2178-1.747-1.0184-1.411.973-3.082 1.7328-4.76 1.4878-1.681-.2449-3.253-1.8144-3.042-3.5562-1.102 1.1499-2.708 1.9595-4.225 1.5536-1.515-.406-2.59-2.3974-1.74-3.7582-1.764 2.8169-5.1959 3.926-7.9085 1.633-.5375-.4559-1.0093-1.0365-1.134-1.7282-.1248-.6918.1859-1.4924.8369-1.7578-1.0411.1202-2.1184.2427-3.1231-.0589-2.9643-.8846-1.5582-4.7788.7076-3.6584-2.454-.4445-5.0441-.9548-6.9107-2.6627-1.8711-1.7078-2.5788-5.0464-.7848-6.8381-2.2476-.7417-4.0847-2.6944-4.7424-5.0396-.1565-.567-.2427-1.2043.0227-1.726.2336-.4604.6985-.7394 1.1567-.9548 1.2927-.6033 2.7284-.8755 4.1437-.7802-1.9959-.7689-3.5495-2.6604-3.9623-4.8242-.1089-.5624-.127-1.202.2155-1.6511.3946-.5216 1.1158-.6033 1.7532-.6169 1.9505-.0386 3.9078.1837 5.8039.66-2.5221-.6804-4.3501-3.4406-4.0553-6.1237.0545-.4899.1747-.9821.4604-1.379.533-.7394 1.5446-.9684 2.4223-.7983.8755.1723 1.6557.6759 2.4109 1.168-.7484-1.2973-1.8303-3.4383-.034-4.4136.8709-.474 1.9732-.3334 2.8691.0975.4695.2223 1.0251.5194 1.4651.2427-.7711-.7144-1.5445-1.4289-2.3156-2.14328-.1248-.11794-.2563-.24042-.313-.40145-.2019-.58061.6191-.97752 1.2315-.9367.8596.05443 1.7011.39691 2.3565.95485.118.10206.2563.21546.4105.19278.2586-.04082.2926-.39237.2699-.65093-.093-1.14989.0091-2.3134.2994-3.42928.0862-.33566.1973-.6736.3969-.95257z" fill="#8acc9e"/><path d="m118.729 45.1762c.676 7.6229.911 15.3161.712 22.9866-.014.5988-.045 1.2406-.315 1.7124-.341.5851-.939.7326-1.484.8165-4.545.7144-9.199.1406-13.576-1.6761-.733-.3039-1.542-.7417-1.833-1.7033-.19-.6305-.111-1.3404-.036-2.014.689-6.1555.717-12.4448.084-18.6116z" fill="#f2663b"/><path d="m95.2559 36.691c.2608 4.4045.5874 9.0132 2.9076 12.7645 2.8105 4.5429 8.2285 7.0378 13.5655 7.3167 3.291.1724 6.838-.5216 9.158-2.8645 1.456-1.472 2.288-3.4451 2.948-5.407 2.577-7.6569 3.076-16.0056 1.425-23.9165-.726-3.4633-1.928-6.972-4.398-9.5099-6.226-6.3936-17.609-3.7785-22.7529 2.7307-4.4998 5.6883-3.2501 12.2248-2.8532 18.886z" fill="#f2663b"/><path d="m129.045 32.9743c.362 0 .734.0499 1.05.2336.338.1928.58.524.769.8687.535.9889.696 2.1728.442 3.2705-.232 1.007-.794 1.9029-1.345 2.7784-.302.4785-.601.9571-.905 1.4379-.556.8868-1.155 1.8099-2.078 2.3043-.92.4945-2.265.3675-2.78-.5466-.182-.3243-.236-.7008-.284-1.0682-.431-3.4021.567-9.2831 5.131-9.2786z" fill="#f2663b"/><path d="m92.5425 32.9743c-.3629 0-.7371.0499-1.0524.2336-.3379.1928-.5806.524-.7666.8687-.5375.9889-.6985 2.1728-.4445 3.2705.2336 1.007.7961 1.9029 1.3449 2.7784.3017.4785.6033.9571.905 1.4379.5579.8868 1.1544 1.8099 2.0775 2.3043.9231.4945 2.268.3675 2.7806-.5466.1815-.3243.2359-.7008.2858-1.0682.4287-3.4021-.567-9.2831-5.1303-9.2786z" fill="#f2663b"/><g fill="#8acc9e"><path d="m116.671 29.9111c.555.1656 1.15.1134 1.73.1406 1.08.0477 2.148.3879 3.055.9753.746.4808 1.946.9253 2.162-.3765.124-.7779-.449-1.0546-.996-1.4697-1.529-1.1658-3.123-1.8348-5.062-1.9165-.497-.0227-1.028-.0023-1.445.2654-1.052.6758-.447 2.082.556 2.3814z"/><path d="m105.442 29.9111c-.558.1656-1.152.1134-1.733.1406-1.08.0477-2.146.3879-3.055.9753-.7462.4808-1.946.9253-2.1592-.3765-.127-.7779.4491-1.0546.9957-1.4697 1.5285-1.1658 3.1205-1.8348 5.0605-1.9165.498-.0227 1.027-.0023 1.444.2654 1.055.6758.449 2.082-.553 2.3814z"/><path d="m100.952 21.8447c1.747.8119 4.139 2.2975 6.108 2.2635 2.79-.0431 1.508-2.8873-.032-4.2027 2.305 1.9664 4.593 4.087 7.326 5.4592 1.195.5942 2.926 1.3993 4.312 1.0841 1.9-.4355 1.195-1.6602.499-3.3477.909 2.2023 3.197 3.765 5.581 3.8058-.576 2.0707-.438 4.1641-.546 6.3165-.057.9186-.012 2.0435.8 2.4813.651.3538 1.504.0226 1.969-.5557.463-.5761.626-1.3314.753-2.0594.556-3.1957.651-6.473.286-9.6913-.148-1.2883-.37-2.5788-.896-3.7627-.835-1.8802-2.37-3.3499-3.922-4.7039-2.021-1.76-4.166-3.4339-6.631-4.4885-3.72-1.59216-8.045-1.667-11.855-.3016-2.815 1.0092-5.8838 2.9348-7.6234 5.4319-1.8235 2.6241.6464 4.772 3.8714 6.2712z"/><path d="m98.9204 27.7959c-.0499 1.0909-.8006 2.3406-2.141 1.4016-.6283-.44-.9413-1.1907-1.218-1.9051.8256 2.1388 1.2112 4.3183 1.1613 6.6091-.0068.2903-.0227.6033-.2064.8323-.279.3493-.8415.3425-1.218.1021s-.6055-.6487-.8119-1.0433c-1.3654-2.6332-2.2567-5.5045-2.6241-8.4462-.2972-2.3769.4831-9.7049 4.6358-7.9291 2.42 1.0343 2.5221 4.2141 2.4971 6.4549-.0136 1.227-.1406 2.4585-.0771 3.681.0046.0794.0046.1611.0023.2427z"/></g><path d="m102.354 35.1405c0 1.0252-.397 1.8553-.885 1.8553s-.882-.8301-.882-1.8553.394-1.8575.882-1.8575.885.8323.885 1.8575z" fill="#292929"/><path d="m117.387 34.9632c0 1.0251-.395 1.8552-.884 1.8552-.486 0-.883-.8301-.883-1.8552 0-1.0252.397-1.8576.883-1.8576.489 0 .884.8324.884 1.8576z" fill="#292929"/><path d="m103.94 38.5913c-.499.5943-1.193 1.1681-1.957 1.0433-.204-.034-.404-.1179-.608-.0998-.308.025-.565.2745-.653.5693-.089.2949-.03.6147.104.8959.32.6713 1.039 1.0955 1.774 1.2157.737.1179 1.49-.025 2.207-.2359.605-.1792 1.213-.4173 1.676-.8483.827-.7688 1.041-1.9868 1.109-3.114.05-.8097-.023-3.7491-1.527-2.9462-.535.2858-.689 1.227-.943 1.7283-.325.6396-.721 1.2429-1.182 1.7917z" fill="#45469b"/><path d="m105.839 45.9357c.331.4242.681.8574 1.173 1.0955.494.2427 1.109.2472 1.608.0136.499-.2313.873-.6963.984-1.2202" stroke="#292929" stroke-linecap="round" stroke-linejoin="round" stroke-miterlimit="10" stroke-width=".468"/><ellipse cx="18.1904" cy="69.6773" fill="#f2663b" rx="4.94506" ry="11.0567" transform="matrix(.89907313 -.43779849 .43779849 .89907313 -28.668716 14.996042)"/><path d="m26.9513 78.1168c-1.3579-1.6117-2.9402-3.3329-4.4465-3.7008-1.5578-.3805-2.4756.9074-2.5451 2.5836-.0663 1.6756.5283 3.6686 1.1143 5.6012 2.724 8.968 5.4492 17.9342 8.172 26.9042 2.201 7.247 5.8598 14.632 9.9363 20.979 2.4027 3.74 5.2011 5.883 10.0359 5.102 3.1006-.5 8.4014-2.258 8.3314-6.064-.0748-3.938-5.1819-12.508-7.3357-16.651-6.3777-12.263-14.2993-24.133-23.2626-34.7542z" fill="#f2663b"/><path d="m11.4567 40.639 1.6912 5.084m5.3556 16.0996-3.3825-10.1681m-1.9731-5.9315-4.24392 1.6423 1.70242 5.1031 4.5146-.8139m-1.9731-5.9315 1.9731 5.9315" stroke="#ffd200"/><circle cx="19.5751" cy="65.5029" fill="#ffd200" r="5.10309"/><ellipse cx="22.7803" cy="72.8764" fill="#f2663b" rx="2.61745" ry="7.13284" transform="matrix(.9999819 -.00601618 .00601618 .9999819 -.438026 .138369)"/><g opacity=".8"><path d="m95.9662 90.9466 13.4208-6.099c.188-.0804.421-.0676.6.0328l12.675 7.5269c.178.1005.285.2877.274.4837l-.746 13.641c-.011.196-.138.37-.326.451l-13.42 6.099c-.103.039-.205.064-.304.059-.1-.006-.199-.041-.296-.092l-12.6754-7.527c-.1784-.1-.2851-.288-.2744-.484l.7464-13.6406c.0108-.1959.1373-.3704.3256-.4508z" fill="#ffd200"/><g stroke="#bc4f2c" stroke-linecap="round" stroke-linejoin="round" stroke-miterlimit="10" stroke-width=".3705"><path d="m100.331 93.6347 8.913-4.0477c.12-.0539.27-.0457.4.0219l8.418 4.996c.113.0666.19.1918.183.3124l-.495 9.0437c-.006.121-.096.237-.216.29l-8.913 4.048c-.068.027-.135.038-.202.034-.067-.003-.133-.022-.198-.056l-8.4174-4.996c-.1134-.066-.1901-.192-.1835-.312l.4949-9.0438c.007-.1206.079-.2225.216-.2905z"/><path d="m108.15 113.052s.101-1.854.252-4.614"/><path d="m109.435 89.5693c.154-2.8196.257-4.7043.257-4.7043"/><path d="m94.9729 105.164s1.8667-.82 4.6255-2.06"/><path d="m118.202 94.8249c2.775-1.2394 4.659-2.0739 4.659-2.0739"/><path d="m95.6965 91.3249s1.7661 1.0191 4.3905 2.5389"/><path d="m117.734 104.036c2.641 1.52 4.424 2.54 4.424 2.54"/></g></g></svg>