<svg width="44" height="28" viewBox="0 0 44 28" fill="none" xmlns="http://www.w3.org/2000/svg">
  <path d="M9.79415 8.91003C12.1486 8.91003 14.0573 6.91545 14.0573 4.45502C14.0573 1.99458 12.1486 0 9.79415 0C7.43968 0 5.53101 1.99458 5.53101 4.45502C5.53101 6.91545 7.43968 8.91003 9.79415 8.91003Z" fill="#F99D33"/>
<path d="M22.0199 8.91003C24.3743 8.91003 26.283 6.91545 26.283 4.45502C26.283 1.99458 24.3743 0 22.0199 0C19.6654 0 17.7567 1.99458 17.7567 4.45502C17.7567 6.91545 19.6654 8.91003 22.0199 8.91003Z" fill="#00BDCD"/>
<path d="M42.3491 11.1928C41.7149 10.7509 41.0102 10.53 40.2703 10.53C40.0237 10.53 39.7771 10.5668 39.4952 10.6037C38.5087 10.8246 37.6631 11.4137 37.0994 12.2973L31.0394 21.8701C30.4757 22.7537 30.2995 23.7846 30.4757 24.8155C30.6871 25.8464 31.2508 26.7301 32.0964 27.3192C32.942 27.9083 33.9285 28.0924 34.915 27.9083C35.9015 27.6874 36.7471 27.0983 37.3108 26.2146L43.3708 16.6419C43.9345 15.7582 44.1107 14.7273 43.9345 13.6964C43.7584 12.6655 43.1946 11.7819 42.3491 11.1928Z" fill="#9B4198"/>
<path d="M0.633679 16.6419L6.69368 26.2146C7.25741 27.0983 8.10299 27.6874 9.0895 27.9083C10.076 28.1292 11.0625 27.9083 11.9081 27.3192C13.6345 26.1042 14.1278 23.6742 12.9651 21.8701L6.90508 12.2973C6.34136 11.4137 5.49578 10.8246 4.50926 10.6037C4.26264 10.5668 4.01601 10.53 3.73415 10.53C2.99426 10.53 2.28961 10.7509 1.65542 11.1928C-0.0357402 12.4078 -0.528997 14.8378 0.633679 16.6419Z" fill="#F2663B"/>
<path d="M34.2808 8.91003C36.6353 8.91003 38.544 6.91545 38.544 4.45502C38.544 1.99458 36.6353 0 34.2808 0C31.9264 0 30.0177 1.99458 30.0177 4.45502C30.0177 6.91545 31.9264 8.91003 34.2808 8.91003Z" fill="#9B4198"/>
<path d="M17.9681 11.1928C17.3339 10.7509 16.6292 10.53 15.8894 10.53C15.6427 10.53 15.3961 10.5668 15.1142 10.6037C14.1277 10.8246 13.2821 11.4137 12.7184 12.2973L6.65842 21.8701C6.0947 22.7537 5.91853 23.7846 6.0947 24.8155C6.30609 25.8464 6.86981 26.7301 7.71539 27.3192C8.56098 27.9083 9.54749 28.0924 10.534 27.9083C11.5205 27.6874 12.3661 27.0983 12.9298 26.2146L18.9898 16.6419C19.5535 15.7582 19.7297 14.7273 19.5535 13.6964C19.3774 12.6655 18.8137 11.7819 17.9681 11.1928Z" fill="#F99D33"/>
<path d="M12.2605 13.6964C12.0491 14.7273 12.2605 15.7582 12.8242 16.6419L18.8842 26.2146C19.4479 27.0983 20.2935 27.6874 21.28 27.9083C22.2665 28.1292 23.2883 27.9083 24.0986 27.3192C25.825 26.1042 26.3183 23.6742 25.1556 21.8701L19.0956 12.2973C18.5319 11.4137 17.6863 10.8246 16.6998 10.6037C16.4531 10.5668 16.2065 10.53 15.9247 10.53C15.1848 10.53 14.4801 10.7509 13.8459 11.1928C13.0356 11.7819 12.4719 12.6655 12.2605 13.6964Z" fill="#8ACC9E"/>
<path d="M24.9441 12.2973L18.8841 21.8701C18.3204 22.7537 18.1442 23.7846 18.3204 24.8155C18.5318 25.8464 19.0955 26.7301 19.9411 27.3192C20.7867 27.9083 21.7732 28.0924 22.7597 27.9083C23.7462 27.6874 24.5918 27.0983 25.1555 26.2146L31.2155 16.6419C32.343 14.8378 31.8849 12.3709 30.1586 11.1928C29.5244 10.7509 28.8197 10.53 28.0798 10.53C27.8332 10.53 27.5866 10.5668 27.3047 10.6037C26.3182 10.8246 25.4726 11.4137 24.9441 12.2973Z" fill="#00BDCD"/>
<path d="M24.9794 16.6419L31.0394 26.2146C31.6031 27.0983 32.4487 27.6874 33.4352 27.9083C34.4217 28.1292 35.4434 27.9083 36.2538 27.3192C37.9802 26.1042 38.4734 23.6742 37.3108 21.8701L31.2508 12.2973C30.687 11.4137 29.8415 10.8246 28.8549 10.6037C28.6083 10.5668 28.3617 10.53 28.0798 10.53C27.3399 10.53 26.6353 10.7509 26.0011 11.1928C24.3099 12.4078 23.8519 14.8378 24.9794 16.6419Z" fill="#45469B"/>
</svg>
