<svg width="218" height="80" viewBox="0 0 218 80" fill="none" xmlns="http://www.w3.org/2000/svg">
<path d="M83.1005 48.3125C84.3242 48.3125 85.3162 47.3295 85.3162 46.117C85.3162 44.9044 84.3242 43.9214 83.1005 43.9214C81.8768 43.9214 80.8848 44.9044 80.8848 46.117C80.8848 47.3295 81.8768 48.3125 83.1005 48.3125Z" fill="#F99D33"/>
<path d="M89.4589 48.3125C90.6826 48.3125 91.6746 47.3295 91.6746 46.117C91.6746 44.9044 90.6826 43.9214 89.4589 43.9214C88.2352 43.9214 87.2432 44.9044 87.2432 46.117C87.2432 47.3295 88.2352 48.3125 89.4589 48.3125Z" fill="#00BDCD"/>
<path d="M100.038 49.4406C99.7155 49.2287 99.3434 49.1187 98.9603 49.1187C98.827 49.1187 98.6937 49.1324 98.5632 49.1572C98.0496 49.2617 97.6081 49.5561 97.3193 49.9908L94.1735 54.7149C93.8847 55.1468 93.7848 55.6668 93.8875 56.1731C93.993 56.6821 94.2901 57.1195 94.7288 57.4057C95.1647 57.6918 95.6895 57.7909 96.2004 57.6891C96.714 57.5845 97.1555 57.2901 97.4443 56.8554L100.593 52.1314C100.882 51.6994 100.982 51.1794 100.879 50.6732C100.773 50.1642 100.476 49.7267 100.038 49.4406Z" fill="#9B4198"/>
<path d="M78.3248 52.1314L81.4762 56.8554C81.765 57.2874 82.2065 57.5845 82.7201 57.6891C83.2338 57.7936 83.7558 57.6918 84.1917 57.4057C85.0941 56.8142 85.3412 55.6091 84.747 54.7149L81.5956 49.9908C81.3068 49.5589 80.8654 49.2617 80.3517 49.1572C80.2212 49.1297 80.0879 49.1187 79.9547 49.1187C79.5743 49.1187 79.1994 49.2315 78.8774 49.4406C77.9777 50.0321 77.7279 51.2399 78.3248 52.1314Z" fill="#F2663B"/>
<path d="M95.8477 48.3125C97.0714 48.3125 98.0634 47.3295 98.0634 46.117C98.0634 44.9044 97.0714 43.9214 95.8477 43.9214C94.624 43.9214 93.632 44.9044 93.632 46.117C93.632 47.3295 94.624 48.3125 95.8477 48.3125Z" fill="#9B4198"/>
<path d="M87.357 49.4406C87.0349 49.2287 86.6628 49.1187 86.2797 49.1187C86.1464 49.1187 86.0131 49.1324 85.8826 49.1572C85.369 49.2617 84.9275 49.5561 84.6387 49.9908L81.4901 54.7149C81.2013 55.1468 81.1014 55.6668 81.2041 56.1731C81.3096 56.6821 81.6067 57.1195 82.0454 57.4057C82.4813 57.6918 83.0033 57.7909 83.517 57.6891C84.0307 57.5845 84.4721 57.2901 84.7609 56.8554L87.9123 52.1314C88.2011 51.6994 88.301 51.1794 88.1983 50.6732C88.0928 50.1642 87.7929 49.7267 87.357 49.4406Z" fill="#F99D33"/>
<path d="M84.386 50.6732C84.2805 51.1822 84.3833 51.6994 84.672 52.1314L87.8207 56.8554C88.1094 57.2874 88.5509 57.5845 89.0646 57.6891C89.5782 57.7909 90.1002 57.6918 90.5361 57.4057C91.4385 56.8142 91.6856 55.6091 91.0915 54.7149L87.9428 49.9908C87.6541 49.5589 87.2126 49.2617 86.6989 49.1572C86.5684 49.1297 86.4351 49.1187 86.3019 49.1187C85.9187 49.1187 85.5466 49.2315 85.2246 49.4406C84.7886 49.7267 84.4916 50.1642 84.386 50.6732Z" fill="#8ACC9E"/>
<path d="M90.9749 49.9908L87.8262 54.7149C87.5375 55.1468 87.4375 55.6668 87.5403 56.1731C87.6458 56.6821 87.9429 57.1195 88.3816 57.4057C88.8175 57.6918 89.3395 57.7909 89.8531 57.6891C90.3668 57.5845 90.8083 57.2901 91.097 56.8554L94.2484 52.1314C94.8454 51.2372 94.5955 50.0321 93.6931 49.4406C93.3683 49.2287 92.9962 49.1187 92.6158 49.1187C92.4853 49.1187 92.352 49.1324 92.2188 49.1572C91.7051 49.2617 91.2636 49.5589 90.9749 49.9908Z" fill="#00BDCD"/>
<path d="M91.0054 52.1314L94.1568 56.8554C94.4456 57.2874 94.887 57.5845 95.4007 57.6891C95.9144 57.7909 96.4364 57.6918 96.8723 57.4057C97.7747 56.8142 98.0218 55.6091 97.4276 54.7149L94.2762 49.9908C93.9874 49.5589 93.5459 49.2617 93.0323 49.1572C92.9018 49.1297 92.7685 49.1187 92.6352 49.1187C92.2548 49.1187 91.88 49.2315 91.5579 49.4406C90.6583 50.0321 90.4084 51.2399 91.0054 52.1314Z" fill="#45469B"/>
<path d="M107.309 52.7202V52.6817C107.309 49.768 109.558 47.3688 112.71 47.3688C114.267 47.3688 115.361 47.787 116.228 48.5106C116.419 48.662 116.689 49.0059 116.689 49.5011C116.689 50.2247 116.092 50.797 115.361 50.797C114.978 50.797 114.689 50.6457 114.515 50.5109C113.995 50.1119 113.457 49.8643 112.688 49.8643C111.227 49.8643 110.189 51.1409 110.189 52.6459V52.6844C110.189 54.2472 111.208 55.5046 112.804 55.5046C113.573 55.5046 114.17 55.2377 114.726 54.8002C114.878 54.6847 115.167 54.5333 115.514 54.5333C116.206 54.5333 116.744 55.0863 116.744 55.7714C116.744 56.1511 116.572 56.4565 116.322 56.6849C115.456 57.4663 114.362 58 112.671 58C109.575 57.9945 107.309 55.6339 107.309 52.7202Z" fill="#45469B"/>
<path d="M119.668 54.8332V54.7947C119.668 52.5661 121.378 51.5371 123.819 51.5371C124.857 51.5371 125.607 51.7077 126.337 51.9553V51.7847C126.337 50.5851 125.588 49.9166 124.127 49.9166C123.319 49.9166 122.667 50.0321 122.108 50.2027C121.936 50.2605 121.82 50.2797 121.686 50.2797C121.015 50.2797 120.476 49.7652 120.476 49.0994C120.476 48.5849 120.803 48.1475 121.264 47.9769C122.186 47.633 123.186 47.4431 124.552 47.4431C126.148 47.4431 127.301 47.8613 128.031 48.5849C128.8 49.347 129.147 50.4696 129.147 51.8425V56.4895C129.147 57.2709 128.514 57.879 127.725 57.879C126.879 57.879 126.323 57.2874 126.323 56.6794V56.6601C125.613 57.4415 124.632 57.956 123.211 57.956C121.264 57.956 119.668 56.8527 119.668 54.8332ZM126.379 54.1674V53.6529C125.879 53.4245 125.227 53.2732 124.513 53.2732C123.264 53.2732 122.494 53.7684 122.494 54.6819V54.7204C122.494 55.5018 123.147 55.9585 124.091 55.9585C125.454 55.9585 126.379 55.2157 126.379 54.1674Z" fill="#45469B"/>
<path d="M133.165 48.8903C133.165 48.0897 133.817 47.4431 134.625 47.4431C135.433 47.4431 136.086 48.0897 136.086 48.8903V49.0059C136.758 48.1475 137.643 47.3688 139.123 47.3688C140.47 47.3688 141.489 47.9604 142.025 48.9866C142.927 47.9384 144.004 47.3688 145.407 47.3688C147.578 47.3688 148.886 48.6647 148.886 51.1217V56.4373C148.886 57.2379 148.233 57.8845 147.425 57.8845C146.617 57.8845 145.965 57.2379 145.965 56.4373V52.0709C145.965 50.7007 145.348 49.9936 144.254 49.9936C143.158 49.9936 142.486 50.698 142.486 52.0709V56.4318C142.486 57.2324 141.833 57.879 141.025 57.879C140.217 57.879 139.565 57.2324 139.565 56.4318V52.0709C139.565 50.7007 138.948 49.9936 137.854 49.9936C136.758 49.9936 136.086 50.698 136.086 52.0709V56.4318C136.086 57.2324 135.433 57.879 134.625 57.879C133.817 57.879 133.165 57.2324 133.165 56.4318V48.8903V48.8903Z" fill="#45469B"/>
<path d="M152.926 45.1953C152.926 44.3946 153.578 43.748 154.386 43.748C155.194 43.748 155.847 44.3946 155.847 45.1953V49.0251C156.557 48.0732 157.537 47.3688 159.056 47.3688C161.458 47.3688 163.746 49.2342 163.746 52.6459V52.6844C163.746 56.0933 161.497 57.9615 159.056 57.9615C157.499 57.9615 156.538 57.2571 155.847 56.4372V56.4565C155.847 57.2379 155.194 57.8844 154.386 57.8844C153.578 57.8844 152.926 57.2379 152.926 56.4372V45.1953ZM160.828 52.6817V52.6431C160.828 50.9483 159.675 49.823 158.309 49.823C156.943 49.823 155.81 50.9456 155.81 52.6431V52.6817C155.81 54.3765 156.943 55.5018 158.309 55.5018C159.673 55.499 160.828 54.3957 160.828 52.6817Z" fill="#45469B"/>
<path d="M167.364 45.1184C167.364 44.2793 168.075 43.7648 168.996 43.7648C169.918 43.7648 170.629 44.2793 170.629 45.1184V45.1569C170.629 45.9961 169.918 46.5271 168.996 46.5271C168.075 46.5271 167.364 45.9934 167.364 45.1569V45.1184ZM167.536 48.8905C167.536 48.0899 168.188 47.4433 168.996 47.4433C169.804 47.4433 170.457 48.0899 170.457 48.8905V56.4347C170.457 57.2353 169.804 57.8819 168.996 57.8819C168.188 57.8819 167.536 57.2353 167.536 56.4347V48.8905Z" fill="#45469B"/>
<path d="M174.091 54.8332V54.7947C174.091 52.5661 175.802 51.5371 178.242 51.5371C179.281 51.5371 180.03 51.7077 180.761 51.9553V51.7847C180.761 50.5851 180.011 49.9166 178.55 49.9166C177.742 49.9166 177.09 50.0321 176.532 50.2027C176.36 50.2605 176.243 50.2797 176.11 50.2797C175.438 50.2797 174.899 49.7652 174.899 49.0994C174.899 48.5849 175.227 48.1475 175.688 47.9769C176.61 47.633 177.609 47.4431 178.975 47.4431C180.572 47.4431 181.724 47.8613 182.454 48.5849C183.223 49.347 183.57 50.4696 183.57 51.8425V56.4895C183.57 57.2709 182.937 57.879 182.149 57.879C181.302 57.879 180.747 57.2874 180.747 56.6794V56.6601C180.036 57.4415 179.056 57.956 177.634 57.956C175.688 57.956 174.091 56.8527 174.091 54.8332ZM180.799 54.1674V53.6529C180.3 53.4245 179.647 53.2732 178.934 53.2732C177.684 53.2732 176.915 53.7684 176.915 54.6819V54.7204C176.915 55.5018 177.568 55.9585 178.512 55.9585C179.878 55.9585 180.799 55.2157 180.799 54.1674Z" fill="#45469B"/>
<path d="M187.971 54.8717V50.0349H187.874C187.183 50.0349 186.625 49.4819 186.625 48.7968C186.625 48.1117 187.183 47.5587 187.874 47.5587H187.971V46.282C187.971 45.4814 188.624 44.8348 189.432 44.8348C190.24 44.8348 190.892 45.4814 190.892 46.282V47.5587H192.181C192.872 47.5587 193.43 48.1117 193.43 48.7968C193.43 49.4819 192.872 50.0349 192.181 50.0349H190.892V54.3957C190.892 55.0616 191.181 55.3862 191.834 55.3862C191.931 55.3862 192.122 55.367 192.181 55.367C192.833 55.367 193.391 55.9007 193.391 56.5666C193.391 57.0811 193.044 57.4993 192.642 57.6533C192.103 57.8624 191.603 57.9395 190.97 57.9395C189.182 57.9395 187.971 57.2324 187.971 54.8717Z" fill="#45469B"/>
<path d="M206.33 56.4345C206.33 57.2351 205.678 57.8817 204.87 57.8817C204.062 57.8817 203.409 57.2351 203.409 56.4345V56.3189C202.737 57.1774 201.871 57.956 200.391 57.956C198.181 57.956 196.892 56.5088 196.892 54.1646V48.8903C196.892 48.0897 197.545 47.4431 198.353 47.4431C199.161 47.4431 199.813 48.0897 199.813 48.8903V53.2512C199.813 54.6214 200.466 55.3285 201.582 55.3285C202.698 55.3285 203.409 54.6241 203.409 53.2512V48.8903C203.409 48.0897 204.062 47.4431 204.87 47.4431C205.678 47.4431 206.33 48.0897 206.33 48.8903V56.4345V56.4345Z" fill="#45469B"/>
<path d="M210.176 56.7949C209.867 56.6051 209.618 56.2612 209.618 55.8045C209.618 55.1579 210.117 54.6626 210.77 54.6626C210.981 54.6626 211.192 54.7204 211.347 54.814C212.327 55.4248 213.308 55.7274 214.135 55.7274C214.982 55.7274 215.365 55.422 215.365 54.9653V54.9268C215.365 54.2967 214.365 54.0876 213.233 53.7464C211.792 53.3282 210.156 52.6597 210.156 50.6787V50.6402C210.156 48.5629 211.847 47.4019 213.924 47.4019C215.001 47.4019 216.115 47.688 217.114 48.1832C217.536 48.3923 217.806 48.7748 217.806 49.27C217.806 49.9166 217.286 50.4118 216.634 50.4118C216.423 50.4118 216.287 50.3733 216.095 50.2798C215.268 49.8808 214.482 49.6332 213.866 49.6332C213.155 49.6332 212.788 49.9386 212.788 50.3375V50.3761C212.788 50.9483 213.769 51.2152 214.885 51.5949C216.326 52.0709 218 52.756 218 54.6241V54.6626C218 56.9297 216.29 57.9588 214.06 57.9588C212.788 57.956 211.425 57.5956 210.176 56.7949Z" fill="#45469B"/>
<path d="M80.9238 33.1172C80.1348 33.1016 79.5176 32.8105 79.0723 32.2441C78.627 31.6777 78.4395 30.9531 78.5098 30.0703L78.5391 29.8184C78.6055 29.1895 78.791 28.6152 79.0957 28.0957C79.4043 27.5762 79.7793 27.1855 80.2207 26.9238C80.6621 26.6582 81.1387 26.5312 81.6504 26.543C82.3027 26.5586 82.8145 26.7754 83.1855 27.1934C83.5566 27.6113 83.7598 28.1777 83.7949 28.8926C83.8066 29.1465 83.7988 29.4004 83.7715 29.6543L83.707 30.1406H79.5645C79.4941 30.7148 79.5879 31.2031 79.8457 31.6055C80.1074 32.0078 80.4961 32.2168 81.0117 32.2324C81.6367 32.248 82.2148 31.9668 82.7461 31.3887L83.3555 31.9043C83.0898 32.2871 82.7461 32.5879 82.3242 32.8066C81.9062 33.0215 81.4395 33.125 80.9238 33.1172ZM81.5977 27.4277C81.1602 27.416 80.7773 27.5645 80.4492 27.873C80.125 28.1816 79.8672 28.6406 79.6758 29.25L82.7578 29.2559L82.7812 29.1621C82.8438 28.6699 82.7637 28.2617 82.541 27.9375C82.3223 27.6094 82.0078 27.4395 81.5977 27.4277ZM86.4961 26.6543L86.3613 27.3633C86.8926 26.8008 87.5352 26.5273 88.2891 26.543C88.6914 26.5508 89.0312 26.6426 89.3086 26.8184C89.5898 26.9941 89.7832 27.2422 89.8887 27.5625C90.4824 26.8672 91.1836 26.5273 91.9922 26.543C92.625 26.5586 93.0918 26.7715 93.3926 27.1816C93.6934 27.5918 93.8047 28.1426 93.7266 28.834L93.0293 33H91.9746L92.666 28.8223C92.6895 28.6191 92.6895 28.4336 92.666 28.2656C92.5918 27.7344 92.2441 27.4629 91.623 27.4512C91.2363 27.4434 90.8848 27.5645 90.5684 27.8145C90.2559 28.0605 90.0547 28.3848 89.9648 28.7871L89.2441 33H88.1777L88.8809 28.8281C88.9316 28.3945 88.8652 28.0605 88.6816 27.8262C88.502 27.5918 88.2207 27.4707 87.8379 27.4629C87.1777 27.4473 86.6523 27.748 86.2617 28.3652L85.459 33H84.3984L85.5 26.6602L86.4961 26.6543ZM101.49 33C101.463 32.8867 101.449 32.7754 101.449 32.666L101.467 32.332C100.885 32.8711 100.268 33.1328 99.6152 33.1172C99.0566 33.1094 98.6016 32.9336 98.25 32.5898C97.9023 32.2422 97.7441 31.8086 97.7754 31.2891C97.8145 30.6172 98.1074 30.0938 98.6543 29.7188C99.2051 29.3398 99.9277 29.1504 100.822 29.1504L101.93 29.1562L102 28.6523C102.039 28.2734 101.965 27.9746 101.777 27.7559C101.594 27.5332 101.316 27.418 100.945 27.4102C100.582 27.4023 100.26 27.4922 99.9785 27.6797C99.7012 27.8633 99.5312 28.1074 99.4688 28.4121L98.4023 28.418C98.4375 28.0469 98.582 27.7188 98.8359 27.4336C99.0898 27.1445 99.416 26.9219 99.8145 26.7656C100.213 26.6055 100.625 26.5293 101.051 26.5371C101.711 26.5527 102.225 26.7539 102.592 27.1406C102.959 27.5234 103.113 28.0332 103.055 28.6699L102.539 31.8105L102.51 32.2617C102.502 32.4766 102.525 32.6895 102.58 32.9004L102.568 33H101.49ZM99.8262 32.1797C100.166 32.1875 100.486 32.1074 100.787 31.9395C101.092 31.7676 101.354 31.5312 101.572 31.2305L101.801 29.9238L100.998 29.918C100.33 29.918 99.8184 30.0234 99.4629 30.2344C99.1074 30.4453 98.9062 30.7441 98.8594 31.1309C98.8242 31.4277 98.8926 31.6758 99.0645 31.875C99.2402 32.0703 99.4941 32.1719 99.8262 32.1797ZM107.936 31.2832C107.994 30.8457 107.754 30.5371 107.215 30.3574L106.113 30.0352C105.184 29.7148 104.734 29.1836 104.766 28.4414C104.793 27.8828 105.047 27.4258 105.527 27.0703C106.012 26.7109 106.58 26.5352 107.232 26.543C107.873 26.5508 108.393 26.7383 108.791 27.1055C109.193 27.4688 109.387 27.9434 109.371 28.5293L108.316 28.5234C108.324 28.207 108.225 27.9492 108.018 27.75C107.811 27.5508 107.535 27.4473 107.191 27.4395C106.824 27.4316 106.508 27.5215 106.242 27.709C105.996 27.8848 105.854 28.1152 105.814 28.4004C105.764 28.7676 105.988 29.0352 106.488 29.2031L107.021 29.3496C107.748 29.5371 108.264 29.7812 108.568 30.082C108.873 30.3828 109.014 30.7559 108.99 31.2012C108.967 31.5957 108.838 31.9395 108.604 32.2324C108.369 32.5254 108.057 32.75 107.666 32.9062C107.275 33.0586 106.859 33.1289 106.418 33.1172C105.746 33.1094 105.191 32.9141 104.754 32.5312C104.316 32.1445 104.105 31.6484 104.121 31.043L105.182 31.0488C105.182 31.4043 105.295 31.6895 105.521 31.9043C105.748 32.1191 106.059 32.2266 106.453 32.2266C106.84 32.2344 107.174 32.1543 107.455 31.9863C107.736 31.8145 107.896 31.5801 107.936 31.2832ZM113.994 31.2832C114.053 30.8457 113.812 30.5371 113.273 30.3574L112.172 30.0352C111.242 29.7148 110.793 29.1836 110.824 28.4414C110.852 27.8828 111.105 27.4258 111.586 27.0703C112.07 26.7109 112.639 26.5352 113.291 26.543C113.932 26.5508 114.451 26.7383 114.85 27.1055C115.252 27.4688 115.445 27.9434 115.43 28.5293L114.375 28.5234C114.383 28.207 114.283 27.9492 114.076 27.75C113.869 27.5508 113.594 27.4473 113.25 27.4395C112.883 27.4316 112.566 27.5215 112.301 27.709C112.055 27.8848 111.912 28.1152 111.873 28.4004C111.822 28.7676 112.047 29.0352 112.547 29.2031L113.08 29.3496C113.807 29.5371 114.322 29.7812 114.627 30.082C114.932 30.3828 115.072 30.7559 115.049 31.2012C115.025 31.5957 114.896 31.9395 114.662 32.2324C114.428 32.5254 114.115 32.75 113.725 32.9062C113.334 33.0586 112.918 33.1289 112.477 33.1172C111.805 33.1094 111.25 32.9141 110.812 32.5312C110.375 32.1445 110.164 31.6484 110.18 31.043L111.24 31.0488C111.24 31.4043 111.354 31.6895 111.58 31.9043C111.807 32.1191 112.117 32.2266 112.512 32.2266C112.898 32.2344 113.232 32.1543 113.514 31.9863C113.795 31.8145 113.955 31.5801 113.994 31.2832ZM119.648 26.543C120.18 26.5508 120.635 26.6953 121.014 26.9766C121.393 27.2578 121.672 27.6465 121.852 28.1426C122.035 28.6348 122.098 29.1738 122.039 29.7598L122.027 29.8887C121.953 30.5059 121.77 31.0645 121.477 31.5645C121.184 32.0605 120.805 32.4473 120.34 32.7246C119.875 33.002 119.365 33.1328 118.811 33.1172C118.283 33.1094 117.828 32.9648 117.445 32.6836C117.066 32.4023 116.789 32.0195 116.613 31.5352C116.438 31.0508 116.375 30.5176 116.426 29.9355C116.484 29.2793 116.662 28.6895 116.959 28.166C117.256 27.6426 117.637 27.2383 118.102 26.9531C118.57 26.6641 119.086 26.5273 119.648 26.543ZM117.492 29.9414C117.465 30.1875 117.465 30.4434 117.492 30.709C117.531 31.1699 117.668 31.5371 117.902 31.8105C118.141 32.084 118.457 32.2266 118.852 32.2383C119.203 32.25 119.527 32.1641 119.824 31.9805C120.121 31.793 120.371 31.5117 120.574 31.1367C120.777 30.7617 120.908 30.3457 120.967 29.8887C120.998 29.5293 121.004 29.2266 120.984 28.9805C120.938 28.5078 120.795 28.1348 120.557 27.8613C120.318 27.5879 120.002 27.4434 119.607 27.4277C119.061 27.416 118.596 27.6309 118.213 28.0723C117.83 28.5137 117.594 29.0918 117.504 29.8066L117.492 29.9414ZM125.508 32.2383C125.887 32.2461 126.229 32.1367 126.533 31.9102C126.838 31.6797 127.037 31.3789 127.131 31.0078L128.133 31.002C128.074 31.4004 127.914 31.7637 127.652 32.0918C127.395 32.4199 127.068 32.6758 126.674 32.8594C126.279 33.043 125.875 33.1289 125.461 33.1172C124.934 33.1094 124.486 32.9727 124.119 32.707C123.756 32.4375 123.488 32.0645 123.316 31.5879C123.145 31.1074 123.086 30.5684 123.141 29.9707L123.17 29.6777C123.244 29.0684 123.422 28.5234 123.703 28.043C123.984 27.5625 124.352 27.1895 124.805 26.9238C125.258 26.6543 125.758 26.5273 126.305 26.543C126.969 26.5586 127.5 26.7812 127.898 27.2109C128.297 27.6406 128.496 28.1855 128.496 28.8457L127.506 28.8398C127.498 28.4258 127.383 28.0918 127.16 27.8379C126.938 27.5801 126.637 27.4434 126.258 27.4277C125.707 27.416 125.248 27.6211 124.881 28.043C124.518 28.4648 124.291 29.0547 124.201 29.8125L124.184 29.9648C124.16 30.2148 124.156 30.4727 124.172 30.7383C124.199 31.1953 124.328 31.5566 124.559 31.8223C124.789 32.0879 125.105 32.2266 125.508 32.2383ZM130.131 33H129.076L130.178 26.6602H131.232L130.131 33ZM131.004 24.3457C131.184 24.3379 131.332 24.3926 131.449 24.5098C131.57 24.623 131.631 24.7734 131.631 24.9609C131.627 25.1445 131.566 25.2949 131.449 25.4121C131.336 25.5293 131.188 25.5918 131.004 25.5996C130.82 25.6074 130.67 25.5547 130.553 25.4414C130.436 25.3281 130.379 25.1797 130.383 24.9961C130.387 24.8125 130.445 24.6602 130.559 24.5391C130.672 24.418 130.82 24.3535 131.004 24.3457ZM135.744 33C135.717 32.8867 135.703 32.7754 135.703 32.666L135.721 32.332C135.139 32.8711 134.521 33.1328 133.869 33.1172C133.311 33.1094 132.855 32.9336 132.504 32.5898C132.156 32.2422 131.998 31.8086 132.029 31.2891C132.068 30.6172 132.361 30.0938 132.908 29.7188C133.459 29.3398 134.182 29.1504 135.076 29.1504L136.184 29.1562L136.254 28.6523C136.293 28.2734 136.219 27.9746 136.031 27.7559C135.848 27.5332 135.57 27.418 135.199 27.4102C134.836 27.4023 134.514 27.4922 134.232 27.6797C133.955 27.8633 133.785 28.1074 133.723 28.4121L132.656 28.418C132.691 28.0469 132.836 27.7188 133.09 27.4336C133.344 27.1445 133.67 26.9219 134.068 26.7656C134.467 26.6055 134.879 26.5293 135.305 26.5371C135.965 26.5527 136.479 26.7539 136.846 27.1406C137.213 27.5234 137.367 28.0332 137.309 28.6699L136.793 31.8105L136.764 32.2617C136.756 32.4766 136.779 32.6895 136.834 32.9004L136.822 33H135.744ZM134.08 32.1797C134.42 32.1875 134.74 32.1074 135.041 31.9395C135.346 31.7676 135.607 31.5312 135.826 31.2305L136.055 29.9238L135.252 29.918C134.584 29.918 134.072 30.0234 133.717 30.2344C133.361 30.4453 133.16 30.7441 133.113 31.1309C133.078 31.4277 133.146 31.6758 133.318 31.875C133.494 32.0703 133.748 32.1719 134.08 32.1797ZM140.941 32.2383C141.32 32.2461 141.662 32.1367 141.967 31.9102C142.271 31.6797 142.471 31.3789 142.564 31.0078L143.566 31.002C143.508 31.4004 143.348 31.7637 143.086 32.0918C142.828 32.4199 142.502 32.6758 142.107 32.8594C141.713 33.043 141.309 33.1289 140.895 33.1172C140.367 33.1094 139.92 32.9727 139.553 32.707C139.189 32.4375 138.922 32.0645 138.75 31.5879C138.578 31.1074 138.52 30.5684 138.574 29.9707L138.604 29.6777C138.678 29.0684 138.855 28.5234 139.137 28.043C139.418 27.5625 139.785 27.1895 140.238 26.9238C140.691 26.6543 141.191 26.5273 141.738 26.543C142.402 26.5586 142.934 26.7812 143.332 27.2109C143.73 27.6406 143.93 28.1855 143.93 28.8457L142.939 28.8398C142.932 28.4258 142.816 28.0918 142.594 27.8379C142.371 27.5801 142.07 27.4434 141.691 27.4277C141.141 27.416 140.682 27.6211 140.314 28.043C139.951 28.4648 139.725 29.0547 139.635 29.8125L139.617 29.9648C139.594 30.2148 139.59 30.4727 139.605 30.7383C139.633 31.1953 139.762 31.5566 139.992 31.8223C140.223 32.0879 140.539 32.2266 140.941 32.2383ZM140.924 33.0527L140.801 33.375C141.305 33.4883 141.549 33.8066 141.533 34.3301C141.521 34.7285 141.346 35.0391 141.006 35.2617C140.666 35.4844 140.203 35.6016 139.617 35.6133L139.641 34.9805C140.289 34.957 140.645 34.748 140.707 34.3535C140.754 34.0762 140.574 33.9141 140.168 33.8672L139.898 33.832L140.168 33.0527H140.924ZM148.295 33C148.268 32.8867 148.254 32.7754 148.254 32.666L148.271 32.332C147.689 32.8711 147.072 33.1328 146.42 33.1172C145.861 33.1094 145.406 32.9336 145.055 32.5898C144.707 32.2422 144.549 31.8086 144.58 31.2891C144.619 30.6172 144.912 30.0938 145.459 29.7188C146.01 29.3398 146.732 29.1504 147.627 29.1504L148.734 29.1562L148.805 28.6523C148.844 28.2734 148.77 27.9746 148.582 27.7559C148.398 27.5332 148.121 27.418 147.75 27.4102C147.387 27.4023 147.064 27.4922 146.783 27.6797C146.506 27.8633 146.336 28.1074 146.273 28.4121L145.207 28.418C145.242 28.0469 145.387 27.7188 145.641 27.4336C145.895 27.1445 146.221 26.9219 146.619 26.7656C147.018 26.6055 147.43 26.5293 147.855 26.5371C148.516 26.5527 149.029 26.7539 149.396 27.1406C149.764 27.5234 149.918 28.0332 149.859 28.6699L149.344 31.8105L149.314 32.2617C149.307 32.4766 149.33 32.6895 149.385 32.9004L149.373 33H148.295ZM146.631 32.1797C146.971 32.1875 147.291 32.1074 147.592 31.9395C147.896 31.7676 148.158 31.5312 148.377 31.2305L148.605 29.9238L147.803 29.918C147.135 29.918 146.623 30.0234 146.268 30.2344C145.912 30.4453 145.711 30.7441 145.664 31.1309C145.629 31.4277 145.697 31.6758 145.869 31.875C146.045 32.0703 146.299 32.1719 146.631 32.1797ZM150.428 24.1816C150.381 24.6152 150.238 24.9629 150 25.2246C149.762 25.4863 149.461 25.6172 149.098 25.6172C148.953 25.6172 148.82 25.5879 148.699 25.5293C148.582 25.4668 148.465 25.3984 148.348 25.3242C148.23 25.25 148.111 25.1836 147.99 25.125C147.869 25.0664 147.738 25.0391 147.598 25.043C147.266 25.0547 147.039 25.2734 146.918 25.6992L146.203 25.6582C146.25 25.2285 146.395 24.877 146.637 24.6035C146.883 24.3301 147.188 24.1973 147.551 24.2051C147.656 24.2051 147.754 24.2227 147.844 24.2578C147.938 24.2891 148.088 24.3691 148.295 24.498C148.502 24.623 148.652 24.7031 148.746 24.7383C148.844 24.7734 148.945 24.7891 149.051 24.7852C149.387 24.7852 149.617 24.5645 149.742 24.123L150.428 24.1816ZM154.336 26.543C154.867 26.5508 155.322 26.6953 155.701 26.9766C156.08 27.2578 156.359 27.6465 156.539 28.1426C156.723 28.6348 156.785 29.1738 156.727 29.7598L156.715 29.8887C156.641 30.5059 156.457 31.0645 156.164 31.5645C155.871 32.0605 155.492 32.4473 155.027 32.7246C154.562 33.002 154.053 33.1328 153.498 33.1172C152.971 33.1094 152.516 32.9648 152.133 32.6836C151.754 32.4023 151.477 32.0195 151.301 31.5352C151.125 31.0508 151.062 30.5176 151.113 29.9355C151.172 29.2793 151.35 28.6895 151.646 28.166C151.943 27.6426 152.324 27.2383 152.789 26.9531C153.258 26.6641 153.773 26.5273 154.336 26.543ZM152.18 29.9414C152.152 30.1875 152.152 30.4434 152.18 30.709C152.219 31.1699 152.355 31.5371 152.59 31.8105C152.828 32.084 153.145 32.2266 153.539 32.2383C153.891 32.25 154.215 32.1641 154.512 31.9805C154.809 31.793 155.059 31.5117 155.262 31.1367C155.465 30.7617 155.596 30.3457 155.654 29.8887C155.686 29.5293 155.691 29.2266 155.672 28.9805C155.625 28.5078 155.482 28.1348 155.244 27.8613C155.006 27.5879 154.689 27.4434 154.295 27.4277C153.748 27.416 153.283 27.6309 152.9 28.0723C152.518 28.5137 152.281 29.0918 152.191 29.8066L152.18 29.9414ZM163.137 32.2383C163.516 32.2461 163.857 32.1367 164.162 31.9102C164.467 31.6797 164.666 31.3789 164.76 31.0078L165.762 31.002C165.703 31.4004 165.543 31.7637 165.281 32.0918C165.023 32.4199 164.697 32.6758 164.303 32.8594C163.908 33.043 163.504 33.1289 163.09 33.1172C162.562 33.1094 162.115 32.9727 161.748 32.707C161.385 32.4375 161.117 32.0645 160.945 31.5879C160.773 31.1074 160.715 30.5684 160.77 29.9707L160.799 29.6777C160.873 29.0684 161.051 28.5234 161.332 28.043C161.613 27.5625 161.98 27.1895 162.434 26.9238C162.887 26.6543 163.387 26.5273 163.934 26.543C164.598 26.5586 165.129 26.7812 165.527 27.2109C165.926 27.6406 166.125 28.1855 166.125 28.8457L165.135 28.8398C165.127 28.4258 165.012 28.0918 164.789 27.8379C164.566 27.5801 164.266 27.4434 163.887 27.4277C163.336 27.416 162.877 27.6211 162.51 28.043C162.146 28.4648 161.92 29.0547 161.83 29.8125L161.812 29.9648C161.789 30.2148 161.785 30.4727 161.801 30.7383C161.828 31.1953 161.957 31.5566 162.188 31.8223C162.418 32.0879 162.734 32.2266 163.137 32.2383ZM170.133 26.543C170.664 26.5508 171.119 26.6953 171.498 26.9766C171.877 27.2578 172.156 27.6465 172.336 28.1426C172.52 28.6348 172.582 29.1738 172.523 29.7598L172.512 29.8887C172.438 30.5059 172.254 31.0645 171.961 31.5645C171.668 32.0605 171.289 32.4473 170.824 32.7246C170.359 33.002 169.85 33.1328 169.295 33.1172C168.768 33.1094 168.312 32.9648 167.93 32.6836C167.551 32.4023 167.273 32.0195 167.098 31.5352C166.922 31.0508 166.859 30.5176 166.91 29.9355C166.969 29.2793 167.146 28.6895 167.443 28.166C167.74 27.6426 168.121 27.2383 168.586 26.9531C169.055 26.6641 169.57 26.5273 170.133 26.543ZM167.977 29.9414C167.949 30.1875 167.949 30.4434 167.977 30.709C168.016 31.1699 168.152 31.5371 168.387 31.8105C168.625 32.084 168.941 32.2266 169.336 32.2383C169.688 32.25 170.012 32.1641 170.309 31.9805C170.605 31.793 170.855 31.5117 171.059 31.1367C171.262 30.7617 171.393 30.3457 171.451 29.8887C171.482 29.5293 171.488 29.2266 171.469 28.9805C171.422 28.5078 171.279 28.1348 171.041 27.8613C170.803 27.5879 170.486 27.4434 170.092 27.4277C169.545 27.416 169.08 27.6309 168.697 28.0723C168.314 28.5137 168.078 29.0918 167.988 29.8066L167.977 29.9414ZM175.406 26.6543L175.271 27.3633C175.803 26.8008 176.445 26.5273 177.199 26.543C177.602 26.5508 177.941 26.6426 178.219 26.8184C178.5 26.9941 178.693 27.2422 178.799 27.5625C179.393 26.8672 180.094 26.5273 180.902 26.543C181.535 26.5586 182.002 26.7715 182.303 27.1816C182.604 27.5918 182.715 28.1426 182.637 28.834L181.939 33H180.885L181.576 28.8223C181.6 28.6191 181.6 28.4336 181.576 28.2656C181.502 27.7344 181.154 27.4629 180.533 27.4512C180.146 27.4434 179.795 27.5645 179.479 27.8145C179.166 28.0605 178.965 28.3848 178.875 28.7871L178.154 33H177.088L177.791 28.8281C177.842 28.3945 177.775 28.0605 177.592 27.8262C177.412 27.5918 177.131 27.4707 176.748 27.4629C176.088 27.4473 175.562 27.748 175.172 28.3652L174.369 33H173.309L174.41 26.6602L175.406 26.6543Z" fill="#999999"/>
<path d="M6.58528 79.6246V66.009C6.58528 65.2143 6.265 64.2958 5.03377 64.2958C3.80254 64.2958 3.48434 65.2143 3.48434 66.009V79.6393H0.48114V65.6756C0.48114 63.566 1.68741 61.3328 5.03377 61.3328C6.41266 61.3328 7.42135 61.7291 8.08688 62.3812C8.75241 61.7354 9.73615 61.3328 11.14 61.3328C14.4864 61.3328 15.6926 63.566 15.6926 65.6756V79.6246H12.6894V66.009C12.6894 65.2143 12.3712 64.2958 11.14 64.2958C9.90877 64.2958 9.58848 65.2143 9.58848 66.009V79.6393L6.58528 79.6246Z" fill="#231F20"/>
<path d="M27.3102 61.706V75.655C27.3102 77.7646 26.0312 80 22.6827 80C19.3343 80 18.0552 77.7625 18.0552 75.655V61.706H21.0584V75.3363C21.0584 76.129 21.4515 77.0474 22.6827 77.0474C23.914 77.0474 24.307 76.129 24.307 75.3363V61.706H27.3102Z" fill="#231F20"/>
<path d="M29.7228 79.6246V61.706H35.1302C37.4928 61.706 38.4578 63.3186 38.4578 65.1807V76.1499C38.4578 78.012 37.497 79.6246 35.1302 79.6246H29.7228ZM35.4567 65.6022C35.4567 64.9731 35.3111 64.5851 34.4002 64.5851H32.7364V76.7476H34.4002C35.3111 76.7476 35.4567 76.3512 35.4567 75.7305V65.6022Z" fill="#231F20"/>
<path d="M48.7257 65.1053L50.0297 79.6247H47.118L46.7249 75.3553H43.5803L43.1852 79.6247H40.2735L41.5775 65.1053C41.7002 63.6374 42.0454 61.3307 45.1464 61.3307C48.2473 61.3307 48.6009 63.6416 48.7257 65.1053ZM45.893 65.8749C45.7953 64.7341 45.6726 64.2854 45.1547 64.2854C44.6368 64.2854 44.5162 64.7341 44.4164 65.8749L43.8257 72.5852H46.4858L45.893 65.8749Z" fill="#231F20"/>
<path d="M54 14.0335C53.9993 13.0994 53.7408 12.1839 53.2534 11.3895C52.7659 10.5951 52.0689 9.95312 51.2401 9.53549C52.0348 9.1341 52.7087 8.52607 53.1923 7.77421C53.6759 7.02235 53.9516 6.15393 53.991 5.25869C54.0303 4.36344 53.8319 3.47384 53.4161 2.68179C53.0004 1.88974 52.3825 1.22398 51.6262 0.753282C50.8699 0.282586 50.0027 0.0240325 49.1141 0.00433409C48.2255 -0.0153643 47.3479 0.204508 46.5718 0.641233C45.7957 1.07796 45.1494 1.7157 44.6995 2.48856C44.2497 3.26141 44.0126 4.14136 44.0129 5.03749C44.0115 5.96885 43.6847 6.86995 43.0898 7.58248C42.495 8.29502 41.6701 8.77342 40.7601 8.93366C39.3065 7.77154 37.7294 6.77567 36.0578 5.96435C36.2927 4.70686 36.0437 3.40635 35.3615 2.32735C34.6793 1.24836 33.615 0.471891 32.3852 0.155887C31.1554 -0.160116 29.8524 0.00807255 28.7412 0.626245C27.63 1.24442 26.7941 2.26615 26.4034 3.48363C25.9875 3.45987 25.5646 3.44868 25.1348 3.45008C20.2725 3.44995 15.5145 4.87184 11.4376 7.54341C7.36063 10.215 4.13978 14.0215 2.16539 18.5017C0.191008 22.9818 -0.452141 27.9432 0.313901 32.7845C1.07994 37.6258 3.22228 42.1391 6.48126 45.7774C7.39481 45.3691 8.17115 44.7021 8.71606 43.8575C9.26097 43.0129 9.55102 42.027 9.55102 41.0194V41.0194C9.55157 40.0148 9.94776 39.0516 10.6525 38.3414C11.3572 37.6312 12.3128 37.2323 13.3092 37.2323H22.2314C23.6012 37.2317 24.9147 36.6827 25.8831 35.7059C26.8515 34.7291 27.3955 33.4045 27.3955 32.0234C27.3955 30.6425 26.8514 29.3181 25.883 28.3417C24.9145 27.3652 23.601 26.8166 22.2314 26.8166C22.1029 26.8171 21.9744 26.8101 21.8467 26.7957C21.2315 26.7341 20.6415 26.5178 20.1308 26.1666C19.6951 25.8727 19.3255 25.4898 19.0459 25.0428C18.7662 24.5957 18.5828 24.0944 18.5076 23.5714C18.4323 23.0483 18.4668 22.5151 18.6088 22.0064C18.7509 21.4976 18.9973 21.0246 19.3322 20.618C19.4839 20.4294 19.6547 20.2572 19.8418 20.1042C20.5173 19.5448 21.3656 19.2414 22.2397 19.2466C23.6093 19.2466 24.9228 18.698 25.8913 17.7215C26.8597 16.7451 27.4038 15.4207 27.4038 14.0398C27.4034 13.2902 27.6235 12.5573 28.0363 11.9338C28.4491 11.3104 29.036 10.8244 29.7228 10.5373C30.4096 10.2502 31.1654 10.175 31.8946 10.3212C32.6238 10.4673 33.2937 10.8282 33.8194 11.3583C34.3451 11.8884 34.7031 12.5637 34.848 13.299C34.993 14.0342 34.9184 14.7963 34.6337 15.4887C34.349 16.1812 33.8669 16.773 33.2486 17.1892C32.6303 17.6054 31.9034 17.8273 31.1599 17.8269C29.808 17.8543 28.5206 18.415 27.5741 19.3886C26.6275 20.3623 26.0974 21.6714 26.0974 23.0347C26.0974 24.3981 26.6275 25.7072 27.5741 26.6808C28.5206 27.6545 29.808 28.2152 31.1599 28.2426V28.2426C31.8394 28.2426 32.5122 28.1074 33.1398 27.8449C33.7674 27.5823 34.3375 27.1975 34.8173 26.7125C35.2972 26.2275 35.6775 25.6518 35.9364 25.0183C36.1953 24.3849 36.3277 23.7062 36.3261 23.0211C36.3257 22.2715 36.5458 21.5386 36.9586 20.9151C37.3714 20.2917 37.9583 19.8057 38.6451 19.5186C39.3319 19.2316 40.0877 19.1564 40.8169 19.3025C41.5461 19.4486 42.2159 19.8096 42.7416 20.3396C43.2674 20.8697 43.6253 21.5451 43.7703 22.2803C43.9152 23.0155 43.8406 23.7776 43.5559 24.4701C43.2712 25.1625 42.7892 25.7543 42.1708 26.1705C41.5525 26.5867 40.8256 26.8087 40.0821 26.8082C38.7125 26.8082 37.399 27.3568 36.4306 28.3333C35.4621 29.3097 34.9181 30.6341 34.9181 32.015V32.015C34.9194 32.5134 34.8232 33.0072 34.6349 33.468C34.4467 33.9288 34.17 34.3476 33.8209 34.7005C33.4717 35.0533 33.057 35.3331 32.6003 35.524C32.1437 35.7148 31.6542 35.8129 31.1599 35.8126C29.7903 35.8126 28.4768 36.3612 27.5083 37.3377C26.5399 38.3141 25.9958 39.6385 25.9958 41.0194V41.0194C25.9958 41.2758 25.97 41.5316 25.9189 41.7827C25.8701 42.0265 25.7969 42.2647 25.7005 42.4936C25.6055 42.7189 25.4891 42.9345 25.3532 43.1374C25.0105 43.6545 24.5464 44.0782 24.0021 44.3709C23.4579 44.6636 22.8503 44.8161 22.2335 44.8149H13.3113C12.3173 44.8148 11.3444 45.1041 10.5095 45.6479C9.67461 46.1917 9.0132 46.9671 8.60472 47.8807C12.2398 51.082 16.7121 53.1603 21.4873 53.8673C26.2625 54.5743 31.1387 53.8801 35.5331 51.8676C39.9274 49.8552 43.6542 46.6096 46.2681 42.5187C48.8819 38.4278 50.2723 33.6646 50.273 28.7983C50.273 28.4984 50.273 28.2006 50.2564 27.9029C51.2375 27.6438 52.1171 27.0896 52.778 26.3139C53.439 25.5383 53.8498 24.578 53.956 23.561C54.0621 22.544 53.8585 21.5186 53.3722 20.6212C52.8859 19.7238 52.1401 18.9971 51.2339 18.5378C52.0647 18.1206 52.7637 17.478 53.2524 16.6823C53.741 15.8866 53.9999 14.9694 54 14.0335ZM13.3175 35.8126C12.5741 35.8131 11.8473 35.5912 11.229 35.1751C10.6107 34.7589 10.1287 34.1673 9.84393 33.4749C9.55916 32.7826 9.48444 32.0206 9.62921 31.2855C9.77399 30.5503 10.1318 29.8749 10.6573 29.3448C11.1828 28.8146 11.8524 28.4535 12.5815 28.3071C13.3105 28.1608 14.0663 28.2357 14.7531 28.5224C15.4399 28.8092 16.027 29.2948 16.4401 29.918C16.8531 30.5412 17.0736 31.2739 17.0736 32.0234C17.0736 33.028 16.6779 33.9915 15.9736 34.7021C15.2692 35.4126 14.3139 35.8121 13.3175 35.8126V35.8126ZM22.2397 28.2363C22.9831 28.2363 23.7098 28.4586 24.3279 28.875C24.9459 29.2915 25.4276 29.8834 25.712 30.5759C25.9964 31.2684 26.0707 32.0304 25.9255 32.7655C25.7803 33.5006 25.4222 34.1758 24.8964 34.7056C24.3706 35.2355 23.7008 35.5962 22.9716 35.7422C22.2425 35.8882 21.4868 35.8128 20.8001 35.5257C20.1134 35.2386 19.5266 34.7526 19.1139 34.1292C18.7012 33.5058 18.4812 32.7729 18.4816 32.0234C18.4816 30.6425 17.9375 29.3181 16.9691 28.3417C16.0006 27.3652 14.6871 26.8166 13.3175 26.8166C12.5744 26.817 11.8478 26.5953 11.2297 26.1795C10.6115 25.7636 10.1295 25.1724 9.84453 24.4804C9.55958 23.7884 9.48449 23.0268 9.62876 22.2918C9.77303 21.5568 10.1302 20.8814 10.6551 20.351C11.1799 19.8206 11.849 19.459 12.5776 19.3119C13.3063 19.1648 14.0619 19.2388 14.7488 19.5246C15.4357 19.8104 16.0232 20.2951 16.437 20.9174C16.8508 21.5398 17.0723 22.2719 17.0736 23.0211C17.0727 23.7057 17.2058 24.3837 17.465 25.0164C17.7243 25.6491 18.1047 26.2241 18.5845 26.7084C19.0643 27.1928 19.6341 27.577 20.2613 27.8392C20.8885 28.1013 21.5608 28.2363 22.2397 28.2363V28.2363ZM40.0821 35.8126C38.7125 35.8126 37.399 36.3612 36.4306 37.3377C35.4621 38.3141 34.9181 39.6385 34.9181 41.0194C34.9185 41.7689 34.6984 42.5018 34.2857 43.1252C33.873 43.7486 33.2862 44.2346 32.5995 44.5217C31.9128 44.8088 31.1571 44.8842 30.428 44.7382C29.6988 44.5922 29.029 44.2315 28.5032 43.7016C27.9774 43.1718 27.6193 42.4966 27.4741 41.7615C27.3289 41.0264 27.4032 40.2644 27.6876 39.5719C27.972 38.8794 28.4537 38.2875 29.0718 37.871C29.6898 37.4546 30.4165 37.2323 31.1599 37.2323C32.5301 37.2323 33.8441 36.6835 34.8129 35.7066C35.7818 34.7298 36.3261 33.4049 36.3261 32.0234C36.3261 31.2739 36.5465 30.5412 36.9596 29.918C37.3726 29.2948 37.9597 28.8092 38.6465 28.5224C39.3334 28.2357 40.0891 28.1608 40.8182 28.3071C41.5472 28.4535 42.2169 28.8146 42.7424 29.3448C43.2679 29.8749 43.6256 30.5503 43.7704 31.2855C43.9152 32.0206 43.8405 32.7826 43.5557 33.4749C43.2709 34.1673 42.7889 34.7589 42.1706 35.1751C41.5523 35.5912 40.8255 35.8131 40.0821 35.8126V35.8126ZM31.1599 8.82462C29.7901 8.82517 28.4766 9.37421 27.5082 10.351C26.5398 11.3278 25.9958 12.6524 25.9958 14.0335C25.9958 14.783 25.7753 15.5157 25.3623 16.1389C24.9493 16.7621 24.3622 17.2477 23.6754 17.5345C22.9885 17.8212 22.2328 17.8961 21.5037 17.7498C20.7746 17.6034 20.105 17.2423 19.5795 16.7121C19.054 16.182 18.6962 15.5066 18.5515 14.7714C18.4067 14.0363 18.4814 13.2743 18.7662 12.582C19.0509 11.8896 19.5329 11.298 20.1512 10.8818C20.7695 10.4657 21.4964 10.2439 22.2397 10.2443C23.6093 10.2443 24.9228 9.6957 25.8913 8.71923C26.8597 7.74277 27.4038 6.41841 27.4038 5.03749C27.4034 4.53717 27.5017 4.04177 27.6929 3.58009V3.58009L27.7366 3.48363C27.7678 3.41653 27.799 3.34943 27.8323 3.27393C27.8655 3.19844 27.8759 3.19215 27.8988 3.15231C27.9217 3.11247 27.9654 3.03907 28.0007 2.98246C28.0361 2.92584 28.0465 2.90906 28.0714 2.87341C28.1276 2.79373 28.1858 2.71404 28.2461 2.63855C28.2669 2.61129 28.2898 2.58822 28.3127 2.56096C28.3626 2.50225 28.4146 2.44353 28.4707 2.38691L28.5581 2.29884C28.6101 2.24851 28.6621 2.20238 28.7141 2.15625C28.7661 2.11011 28.7723 2.10382 28.8035 2.08076C28.8846 2.01365 28.9678 1.95075 29.0531 1.88993L29.0988 1.86267C29.1758 1.81234 29.2527 1.76412 29.3318 1.71798L29.4295 1.66765L29.6375 1.5649L29.7332 1.52296C29.8351 1.48102 29.9411 1.44328 30.041 1.40973H30.0618C30.1616 1.37827 30.2698 1.35311 30.3654 1.33004L30.4673 1.31117C30.5484 1.29434 30.6303 1.28174 30.7127 1.27342L30.8147 1.26084C30.929 1.25036 31.0434 1.24407 31.1599 1.24407C32.1561 1.24407 33.1114 1.64307 33.8158 2.35329C34.5202 3.06351 34.916 4.02679 34.916 5.0312C34.916 6.0356 34.5202 6.99888 33.8158 7.7091C33.1114 8.41933 32.1561 8.81833 31.1599 8.81833V8.82462ZM52.3071 21.224C52.3653 21.331 52.4194 21.4337 52.4672 21.5532C52.6606 22.0181 52.7602 22.5171 52.7605 23.0211V23.0211C52.7605 23.1385 52.7605 23.256 52.7438 23.3713C52.7438 23.4091 52.7438 23.4468 52.7293 23.4845C52.7293 23.5621 52.7085 23.6418 52.6939 23.7194C52.6939 23.7613 52.6773 23.8033 52.6689 23.8431C52.6523 23.9186 52.6336 23.992 52.6128 24.0633C52.6024 24.1032 52.592 24.1409 52.5795 24.1786C52.5504 24.2688 52.5192 24.3569 52.4839 24.445C52.4714 24.4743 52.4589 24.5058 52.4443 24.5372C52.4069 24.6211 52.3695 24.705 52.3258 24.7868L52.2551 24.9126C52.2239 24.965 52.1927 25.0174 52.1594 25.0678C52.1261 25.1181 52.1012 25.1579 52.07 25.202C52.0388 25.246 52.0055 25.29 51.9722 25.3341C51.9389 25.3781 51.9036 25.4242 51.8662 25.4683C51.8287 25.5123 51.8038 25.5375 51.7726 25.5731C51.6873 25.6654 51.5999 25.7535 51.5064 25.8373C51.4835 25.8583 51.4606 25.8814 51.4377 25.9003C51.4148 25.9191 51.3296 25.9883 51.2734 26.0324L51.1881 26.0974C51.1299 26.1393 51.0696 26.1792 51.0093 26.2169L50.9282 26.2672C50.8616 26.3071 50.7971 26.3448 50.7306 26.3805L50.6932 26.3993C50.1213 26.6935 49.4839 26.8345 48.8424 26.8086C48.2009 26.7828 47.5767 26.591 47.0299 26.2517C46.4831 25.9125 46.0321 25.4371 45.72 24.8714C45.408 24.3056 45.2456 23.6685 45.2483 23.0211C45.2478 21.64 44.7032 20.3156 43.7344 19.3392C42.7657 18.3628 41.4519 17.8143 40.0821 17.8143H40.0093C38.6403 17.8154 37.3276 18.3644 36.3597 19.3407C35.3919 20.317 34.8479 21.6407 34.8473 23.0211C34.8502 23.7713 34.6322 24.5054 34.2209 25.1305C33.8096 25.7556 33.2236 26.2436 32.537 26.5326C31.8504 26.8215 31.0942 26.8986 30.3642 26.7538C29.6342 26.6091 28.9632 26.2492 28.4362 25.7196C27.9093 25.1901 27.55 24.5147 27.4041 23.7792C27.2581 23.0436 27.332 22.2809 27.6163 21.5877C27.9007 20.8945 28.3827 20.3019 29.0013 19.8852C29.6199 19.4684 30.3473 19.2462 31.0913 19.2466C31.7708 19.2479 32.444 19.1141 33.0721 18.8526C33.7003 18.5912 34.271 18.2073 34.7518 17.723C35.2325 17.2387 35.6137 16.6635 35.8735 16.0304C36.1333 15.3973 36.2666 14.7187 36.2657 14.0335C36.2657 13.0311 36.6597 12.0695 37.3613 11.3593C38.063 10.6491 39.0151 10.2482 40.0093 10.2443H40.078C40.6992 10.2438 41.3151 10.1294 41.8957 9.90666C42.3802 9.72325 42.8345 9.46734 43.2434 9.14755V9.14755C43.337 9.07625 43.4243 9.00076 43.5117 8.92318L43.5699 8.86865C43.651 8.79316 43.7321 8.71767 43.8091 8.63589L43.8465 8.59395C43.9838 8.44584 44.1123 8.28969 44.2313 8.12633C44.2583 8.09068 44.2874 8.05503 44.3124 8.01728C44.3374 7.97954 44.4039 7.87888 44.4476 7.80759C44.4913 7.73629 44.5225 7.68596 44.5557 7.62515C44.589 7.56434 44.6285 7.49514 44.6639 7.43013C44.6992 7.36512 44.7408 7.27286 44.7762 7.19108C44.8116 7.10929 44.8282 7.08203 44.8511 7.02542C44.9072 6.89121 44.9571 6.75281 45.0008 6.60602C45.0148 6.56474 45.0266 6.52274 45.0362 6.4802C45.0694 6.37116 45.0965 6.2705 45.1214 6.14888L45.1526 5.99161C45.1734 5.88256 45.1901 5.77143 45.2026 5.65819C45.2026 5.61206 45.215 5.56383 45.2192 5.5156C45.2337 5.35413 45.2441 5.19476 45.2441 5.0312C45.2441 4.02659 45.6398 3.06311 46.3441 2.35255C47.0485 1.64199 48.0039 1.24252 49.0002 1.24197C49.6772 1.24065 50.3418 1.42443 50.9234 1.77375C51.505 2.12307 51.9817 2.62486 52.3029 3.2257C52.3611 3.33265 52.4152 3.4354 52.4631 3.55702C52.6566 4.024 52.7563 4.52508 52.7563 5.0312C52.7563 5.53731 52.6566 6.0384 52.4631 6.50537C52.4152 6.6186 52.3611 6.72974 52.3029 6.83669C51.9815 7.43714 51.5046 7.9385 50.923 8.28744C50.3415 8.63639 49.677 8.81985 49.0002 8.81833V8.81833C48.838 8.81833 48.6799 8.81833 48.5219 8.84349L48.3721 8.86027C48.264 8.87494 48.1642 8.88962 48.0498 8.91059L47.8875 8.94414C47.7794 8.96721 47.6796 8.99447 47.5714 9.02383L47.4321 9.06367C47.2948 9.10771 47.1575 9.15804 47.0161 9.21465C46.96 9.23772 46.9059 9.26498 46.8497 9.29224C46.7936 9.3195 46.6937 9.36564 46.6168 9.40548C46.5398 9.44532 46.4837 9.47678 46.4088 9.51662C46.3339 9.55646 46.2924 9.58582 46.2341 9.62356C46.1759 9.66131 46.0927 9.71373 46.0261 9.76196L45.9159 9.84584C45.6471 10.0474 45.3978 10.2742 45.1714 10.5232L45.1277 10.5735C45.0486 10.6616 44.9717 10.7538 44.8989 10.8482V10.8587C44.5841 11.273 44.3325 11.7324 44.1523 12.2217V12.2217C43.8787 12.9611 43.7759 13.7537 43.8516 14.5392C43.9273 15.3247 44.1795 16.0824 44.5891 16.7549C44.9986 17.4275 45.5548 17.997 46.2154 18.4204C46.8759 18.8438 47.6235 19.1098 48.4012 19.1983V19.1983L48.5635 19.213C48.7049 19.213 48.8463 19.234 48.9919 19.234C49.6716 19.231 50.3393 19.4146 50.9233 19.7652C51.5074 20.1158 51.9857 20.6201 52.3071 21.224V21.224ZM49.0044 17.8206C48.8849 17.8207 48.7655 17.8144 48.6467 17.8018C48.5676 17.8018 48.4907 17.7808 48.4116 17.7682L48.3118 17.7535C48.212 17.7346 48.1038 17.7095 48.0144 17.6822H47.9957C47.8896 17.6529 47.7877 17.6172 47.6858 17.5795C47.2202 17.4048 46.7938 17.1385 46.4313 16.7961C46.0689 16.4536 45.7776 16.0418 45.5746 15.5847C45.3715 15.1277 45.2607 14.6344 45.2486 14.1337C45.2365 13.633 45.3234 13.1349 45.5041 12.6684C45.5145 12.6453 45.5208 12.6201 45.5312 12.5971C45.5603 12.5237 45.5956 12.4524 45.6289 12.3874C45.6476 12.3538 45.6622 12.3161 45.6809 12.2825C45.7142 12.2175 45.7516 12.1567 45.789 12.0938C45.8265 12.0309 45.8348 12.0141 45.8598 11.9764C45.8847 11.9386 45.9367 11.8652 45.9762 11.8086L46.0636 11.6912C46.1052 11.6388 46.1468 11.5905 46.1904 11.5423C46.2341 11.4941 46.2591 11.4626 46.2944 11.4249C46.3298 11.3871 46.3818 11.3368 46.4275 11.2928C46.4733 11.2487 46.5066 11.2173 46.5482 11.1816L46.6875 11.0663L46.8248 10.9614C46.8726 10.9279 46.9204 10.8943 46.9704 10.8629C47.0203 10.8314 47.0702 10.8 47.1222 10.7685L47.2698 10.6846C47.326 10.6553 47.3822 10.6301 47.4404 10.6028L47.5881 10.5357L47.7752 10.4665C47.8251 10.4498 47.873 10.4309 47.9229 10.4162C47.9728 10.4015 48.0602 10.3806 48.1309 10.3638L48.2744 10.3281C48.3534 10.3135 48.4345 10.303 48.5136 10.2925L48.6342 10.2736C48.7569 10.2736 48.8817 10.2548 49.0065 10.2548C49.9876 10.278 50.9208 10.6874 51.6066 11.3952C52.2923 12.1031 52.6762 13.0534 52.6762 14.0429C52.6762 15.0325 52.2923 15.9827 51.6066 16.6906C50.9208 17.3985 49.9876 17.8078 49.0065 17.8311L49.0044 17.8206Z" fill="#00867E"/>
<path d="M40.0821 19.2466C39.0883 19.2472 38.1351 19.6446 37.4312 20.352C36.7273 21.0594 36.3299 22.0191 36.3261 23.0212C36.3255 24.4023 35.781 25.7266 34.8122 26.703C33.8434 27.6794 32.5297 28.2279 31.1599 28.2279C29.808 28.2006 28.5206 27.6399 27.5741 26.6662C26.6275 25.6925 26.0974 24.3835 26.0974 23.0201C26.0974 21.6567 26.6275 20.3477 27.5741 19.374C28.5206 18.4003 29.808 17.8396 31.1599 17.8123C31.9034 17.8127 32.6303 17.5908 33.2486 17.1746C33.8669 16.7583 34.349 16.1666 34.6337 15.4741C34.9184 14.7816 34.993 14.0196 34.848 13.2843C34.7031 12.5491 34.3451 11.8737 33.8194 11.3437C33.2937 10.8136 32.6238 10.4527 31.8946 10.3065C31.1654 10.1604 30.4096 10.2356 29.7228 10.5227C29.036 10.8097 28.4491 11.2957 28.0363 11.9192C27.6235 12.5426 27.4034 13.2755 27.4038 14.0251C27.4057 14.7101 27.2736 15.3888 27.0149 16.0222C26.7562 16.6556 26.3762 17.2313 25.8964 17.7164C25.4167 18.2014 24.8468 18.5863 24.2193 18.8489C23.5918 19.1114 22.9191 19.2466 22.2397 19.2466C21.3674 19.2458 20.5222 19.5521 19.8501 20.1127C19.663 20.2656 19.4922 20.4378 19.3405 20.6264C19.0071 21.0329 18.7618 21.5053 18.6205 22.0132C18.4793 22.5211 18.4452 23.0532 18.5204 23.5752C18.5957 24.0972 18.7786 24.5975 19.0574 25.0439C19.3362 25.4902 19.7047 25.8727 20.1392 26.1666C20.6498 26.5178 21.2398 26.7342 21.855 26.7957C21.9827 26.8101 22.1112 26.8171 22.2397 26.8167C23.6093 26.8167 24.9228 27.3652 25.8913 28.3417C26.8597 29.3182 27.4038 30.6425 27.4038 32.0234V32.0234C27.4038 33.4046 26.8598 34.7291 25.8914 35.7059C24.923 36.6827 23.6095 37.2318 22.2397 37.2323H13.3175C12.3211 37.2323 11.3655 37.6313 10.6608 38.3414C9.95607 39.0516 9.55988 40.0148 9.55933 41.0194C9.55935 42.0041 9.28198 42.9686 8.75952 43.8005C8.23705 44.6325 7.49097 45.2977 6.60812 45.7188C7.2509 46.4465 7.9349 47.1362 8.65671 47.7843C9.07471 46.8944 9.73456 46.1425 10.5596 45.6158C11.3846 45.089 12.341 44.8092 13.3175 44.8087H22.2397C22.9771 44.8075 23.6979 44.5883 24.313 44.1784C24.9281 43.7684 25.4105 43.1856 25.7005 42.502C25.7969 42.2731 25.8701 42.0349 25.9189 41.7911C25.97 41.54 25.9958 41.2842 25.9958 41.0278V41.0278C25.9947 40.3434 26.1275 39.6654 26.3865 39.0327C26.6455 38.4 27.0258 37.825 27.5054 37.3407C27.985 36.8563 28.5547 36.472 29.1818 36.2098C29.8088 35.9476 30.481 35.8127 31.1599 35.8127C31.6535 35.8129 32.1423 35.7151 32.5984 35.5248C33.0545 35.3345 33.4689 35.0554 33.8179 34.7035C34.167 34.3515 34.4438 33.9337 34.6325 33.4738C34.8213 33.014 34.9183 32.5211 34.918 32.0234V32.0234C34.918 30.6425 35.4621 29.3182 36.4306 28.3417C37.399 27.3652 38.7125 26.8167 40.0821 26.8167C40.583 26.8286 41.0811 26.7394 41.5472 26.5543C42.0134 26.3693 42.4381 26.0921 42.7965 25.7392C43.1549 25.3863 43.4397 24.9646 43.6341 24.4991C43.8285 24.0336 43.9287 23.5336 43.9287 23.0285C43.9287 22.5234 43.8285 22.0234 43.6341 21.5579C43.4397 21.0923 43.1549 20.6707 42.7965 20.3178C42.4381 19.9648 42.0134 19.6877 41.5472 19.5027C41.0811 19.3176 40.583 19.2284 40.0821 19.2403V19.2466Z" fill="white"/>
<path d="M49.0044 10.2442C48.8796 10.2442 48.7549 10.2442 48.6321 10.2631L48.5115 10.282C48.4325 10.2925 48.3514 10.303 48.2723 10.3176L48.1288 10.3533C48.0602 10.3701 47.9916 10.3847 47.9209 10.4057C47.8502 10.4267 47.8231 10.4393 47.7732 10.456L47.586 10.5252L47.4384 10.5923C47.3801 10.6196 47.324 10.6448 47.2678 10.6741L47.1202 10.758C47.0682 10.7895 47.0182 10.8188 46.9683 10.8524C46.9184 10.8859 46.8706 10.9174 46.8227 10.9509L46.6855 11.0558L46.5461 11.1711C46.5045 11.2068 46.465 11.2445 46.4255 11.2822C46.386 11.32 46.3361 11.3682 46.2924 11.4143C46.2487 11.4605 46.2217 11.4919 46.1884 11.5318C46.1551 11.5716 46.1031 11.6282 46.0616 11.6807L45.9742 11.7981C45.9347 11.8547 45.8931 11.9092 45.8577 11.9659C45.8224 12.0225 45.8099 12.0434 45.787 12.0833C45.7641 12.1231 45.7121 12.207 45.6789 12.272C45.6602 12.3056 45.6456 12.3433 45.6269 12.3769C45.5936 12.4482 45.5582 12.5195 45.5291 12.5866C45.5187 12.6096 45.5125 12.6348 45.5021 12.6579C45.3339 13.0945 45.2472 13.5587 45.2463 14.0272C45.2461 14.6607 45.4049 15.284 45.708 15.839V15.839C45.7475 15.9103 45.787 15.9774 45.8307 16.0487C46.0901 16.4582 46.4247 16.8141 46.8165 17.0971L46.8331 17.1076C46.8955 17.1517 46.9579 17.1936 47.0224 17.2334H47.039C47.242 17.36 47.4565 17.4668 47.6796 17.5522V17.5522C47.7815 17.5899 47.8876 17.6256 47.9895 17.6549H48.0082C48.106 17.6822 48.2058 17.7074 48.3056 17.7262L48.4055 17.7409C48.4845 17.7535 48.5614 17.7682 48.6405 17.7745C48.7593 17.7871 48.8787 17.7934 48.9982 17.7933C49.9793 17.7701 50.9125 17.3607 51.5983 16.6528C52.284 15.945 52.6679 14.9947 52.6679 14.0052C52.6679 13.0156 52.284 12.0654 51.5983 11.3575C50.9125 10.6496 49.9793 10.2403 48.9982 10.217L49.0044 10.2442Z" fill="white"/>
<path d="M52.3071 21.224C51.9851 20.6243 51.508 20.1238 50.9264 19.7756C50.3449 19.4275 49.6807 19.2446 49.0044 19.2466V19.2466C48.8588 19.2466 48.7174 19.2361 48.576 19.2256L48.4137 19.2109C48.3035 19.1983 48.1954 19.1774 48.0872 19.1564C47.9394 19.131 47.7929 19.0981 47.6484 19.0578V19.0578C47.507 19.018 47.3697 18.974 47.2324 18.9236H47.2116C47.0806 18.8754 46.9517 18.8209 46.8269 18.7601L46.7936 18.7454C46.6709 18.6867 46.5544 18.6238 46.4379 18.5567L46.3922 18.5294C46.282 18.4644 46.1842 18.3931 46.0698 18.3197L46.0095 18.2799C45.9118 18.2065 45.814 18.1331 45.7204 18.0555L45.6518 17.9947C45.5644 17.9192 45.4792 17.8416 45.396 17.7598L45.3169 17.678C45.2421 17.6004 45.1672 17.5207 45.0965 17.4369C45.0674 17.4033 45.0383 17.3677 45.0112 17.332C44.9467 17.2523 44.8823 17.1727 44.824 17.0888C44.7928 17.0468 44.7637 17.0007 44.7346 16.9567C44.6805 16.877 44.6285 16.7973 44.5786 16.7155C44.5287 16.6337 44.5204 16.6086 44.4913 16.5561C44.4622 16.5037 44.4039 16.3989 44.3665 16.3192C44.3291 16.2395 44.3103 16.1934 44.2833 16.1305C44.2563 16.0675 44.2147 15.9774 44.1855 15.8998C44.1564 15.8222 44.1356 15.7551 44.1128 15.6901C44.0899 15.6251 44.0628 15.5454 44.042 15.4804C44.0212 15.4154 44.0004 15.3126 43.9817 15.2288C43.963 15.1449 43.9485 15.0946 43.936 15.0191C43.9235 14.9436 43.9048 14.8094 43.8923 14.715C43.8923 14.6584 43.8757 14.6039 43.8694 14.5472C43.8549 14.3879 43.8486 14.2264 43.8486 14.0628C43.8486 13.8993 43.8486 13.7798 43.8673 13.6435C43.8673 13.5952 43.8777 13.547 43.8819 13.4988C43.8923 13.4086 43.9048 13.3205 43.9193 13.2324C43.9297 13.1758 43.9381 13.1192 43.9505 13.0626C43.963 13.006 43.9859 12.9011 44.0046 12.8193C44.0233 12.7376 44.0296 12.7124 44.0441 12.66C44.0836 12.5258 44.1252 12.3916 44.1731 12.2615C44.3533 11.7723 44.6049 11.3129 44.9197 10.8985V10.888C44.9925 10.7937 45.0695 10.7014 45.1485 10.6133L45.1922 10.563C45.4186 10.314 45.6679 10.0872 45.9367 9.88568L46.0469 9.8018C46.1156 9.75357 46.1863 9.70744 46.2549 9.6634C46.3236 9.61936 46.3714 9.59 46.4296 9.55645C46.4879 9.5229 46.5627 9.48096 46.6376 9.44531C46.7125 9.40967 46.7915 9.36773 46.8705 9.33208C46.9496 9.29643 46.9808 9.27756 47.0369 9.25449C47.17 9.19787 47.3073 9.14755 47.4529 9.10351L47.5922 9.06367C47.6962 9.03431 47.8002 9.00705 47.9084 8.98398L48.0706 8.95043C48.1766 8.92946 48.2785 8.91478 48.3929 8.9001L48.5427 8.88333C48.7007 8.86865 48.8588 8.85816 49.021 8.85816C49.6978 8.85969 50.3623 8.67622 50.9438 8.32728C51.5254 7.97834 52.0023 7.47697 52.3237 6.87652C52.3819 6.76958 52.436 6.66683 52.4839 6.5452C52.6774 6.07823 52.7771 5.57715 52.7771 5.07103C52.7771 4.56492 52.6774 4.06383 52.4839 3.59686C52.436 3.48363 52.3819 3.37249 52.3237 3.26554C52.0025 2.6647 51.5258 2.16291 50.9442 1.81359C50.3626 1.46427 49.698 1.28049 49.021 1.28181V1.28181C48.0247 1.28236 47.0693 1.68183 46.365 2.39239C45.6606 3.10294 45.2649 4.06643 45.265 5.07103C45.265 5.2346 45.2546 5.39397 45.24 5.55543C45.24 5.60366 45.2296 5.65189 45.2234 5.69803C45.2109 5.81126 45.1942 5.9224 45.1734 6.03145L45.1422 6.18872C45.1173 6.30195 45.0902 6.411 45.057 6.52004C45.0474 6.56258 45.0356 6.60458 45.0216 6.64586C44.9779 6.78636 44.928 6.92476 44.8719 7.06525C44.849 7.12187 44.824 7.17639 44.797 7.23091C44.77 7.28543 44.7242 7.39028 44.6847 7.46997C44.6452 7.54965 44.614 7.59998 44.5765 7.66499C44.5391 7.72999 44.5058 7.78661 44.4684 7.84742C44.431 7.90824 44.381 7.98582 44.3332 8.05712C44.2854 8.12842 44.2791 8.13052 44.2521 8.16616C44.1331 8.32953 44.0046 8.48568 43.8673 8.63379L43.8299 8.67573C43.753 8.75751 43.6718 8.833 43.5907 8.90849L43.5325 8.96301C43.4451 9.0406 43.3578 9.11609 43.2642 9.18739C42.8553 9.50718 42.401 9.76308 41.9165 9.94649C41.7792 9.99891 41.6378 10.0451 41.5006 10.087L41.434 10.1038C41.3238 10.1331 41.2115 10.1604 41.0971 10.1834L40.9577 10.2086C40.8621 10.2254 40.7643 10.2401 40.6645 10.2506L40.5335 10.2652C40.392 10.2757 40.2506 10.2841 40.105 10.2841H40.0094C39.022 10.2879 38.0757 10.6834 37.3752 11.385C36.6747 12.0866 36.2761 13.038 36.2658 14.0335C36.2666 14.7187 36.1333 15.3973 35.8735 16.0304C35.6137 16.6635 35.2325 17.2387 34.7518 17.723C34.2711 18.2073 33.7003 18.5912 33.0721 18.8526C32.444 19.1141 31.7708 19.2479 31.0913 19.2466C30.3473 19.2461 29.6199 19.4684 29.0013 19.8852C28.3827 20.3019 27.9007 20.8945 27.6163 21.5877C27.332 22.2809 27.2581 23.0436 27.4041 23.7792C27.55 24.5147 27.9093 25.1901 28.4362 25.7196C28.9632 26.2492 29.6342 26.6091 30.3642 26.7538C31.0942 26.8985 31.8504 26.8215 32.537 26.5325C33.2236 26.2436 33.8096 25.7556 34.2209 25.1305C34.6322 24.5054 34.8502 23.7713 34.8473 23.0211C34.8495 21.6418 35.3942 20.3197 36.3619 19.3448C37.3297 18.3699 38.6414 17.8217 40.0094 17.8206H40.078C41.4474 17.8195 42.7613 18.3667 43.7308 19.3418C44.7003 20.317 45.2461 21.6404 45.2483 23.0211C45.2483 24.0257 45.644 24.9892 46.3483 25.6998C47.0527 26.4103 48.008 26.8098 49.0044 26.8103C49.1333 26.8103 49.2602 26.8103 49.385 26.7873L49.4973 26.7747C49.593 26.76 49.6866 26.7432 49.7802 26.7223C49.8737 26.7013 49.9174 26.6908 49.9881 26.6719C50.2329 26.6067 50.4705 26.5168 50.6973 26.4035L50.7348 26.3846C50.8013 26.349 50.8658 26.3113 50.9323 26.2714L51.0135 26.2211C51.0738 26.1833 51.1341 26.1435 51.1923 26.1016L51.2776 26.0366C51.3337 25.9946 51.3878 25.9506 51.4419 25.9044C51.496 25.8583 51.4876 25.8625 51.5105 25.8415C51.6041 25.7577 51.6915 25.6696 51.7767 25.5773C51.8079 25.5417 51.8412 25.5081 51.8703 25.4725C51.8994 25.4368 51.9431 25.3823 51.9764 25.3383C52.0097 25.2942 52.0429 25.2523 52.0741 25.2062C52.1053 25.16 52.1345 25.1181 52.1636 25.0719C52.1927 25.0258 52.228 24.9692 52.2592 24.9168L52.33 24.791C52.3736 24.7092 52.4111 24.6253 52.4485 24.5414C52.4631 24.51 52.4755 24.4785 52.488 24.4491C52.5234 24.3611 52.5546 24.273 52.5837 24.1828C52.5962 24.1451 52.6066 24.1073 52.617 24.0675C52.6378 23.9962 52.6565 23.9228 52.6731 23.8473C52.6731 23.8075 52.6918 23.7655 52.6981 23.7236C52.7126 23.646 52.7251 23.5663 52.7334 23.4887C52.7334 23.451 52.7334 23.4132 52.748 23.3755C52.748 23.2602 52.7646 23.1427 52.7646 23.0253C52.7644 22.5212 52.6647 22.0223 52.4714 21.5574C52.4194 21.44 52.3653 21.3309 52.3071 21.224Z" fill="white"/>
<path d="M13.3175 35.8106C15.3919 35.8106 17.0736 34.115 17.0736 32.0235C17.0736 29.9319 15.3919 28.2363 13.3175 28.2363C11.2431 28.2363 9.56143 29.9319 9.56143 32.0235C9.56143 34.115 11.2431 35.8106 13.3175 35.8106Z" fill="white"/>
<path d="M22.2397 17.8206C23.2357 17.8201 24.1908 17.4209 24.8951 16.7108C25.5993 16.0007 25.9952 15.0377 25.9958 14.0335C25.9958 12.6524 26.5398 11.3278 27.5082 10.351C28.4766 9.3742 29.7901 8.82516 31.1599 8.82461C31.2808 8.8247 31.4015 8.8184 31.5218 8.80573L31.6382 8.79105C31.7152 8.79105 31.7942 8.77008 31.8712 8.75541C31.9169 8.75541 31.9606 8.73444 32.0063 8.72395C32.0521 8.71347 32.1415 8.6925 32.2143 8.67153C32.2871 8.65056 32.3079 8.64427 32.3537 8.62749L32.5388 8.56039L32.6802 8.50167L32.8487 8.41989L32.988 8.34859C33.04 8.31923 33.0899 8.28568 33.1419 8.25423C33.2438 8.18922 33.3499 8.12002 33.4372 8.04453C33.4663 8.02147 33.4975 8.00049 33.5246 7.97743C33.5516 7.95436 33.6327 7.88307 33.6868 7.83484L33.77 7.75725C33.8241 7.70692 33.874 7.6524 33.9239 7.59788L33.9946 7.52029C34.0445 7.46157 34.0924 7.40286 34.1381 7.33995L34.1922 7.26865C34.2421 7.20155 34.2879 7.13445 34.3315 7.05896L34.3648 7.00443C34.7175 6.43136 34.9114 5.77349 34.9265 5.09923C34.9415 4.42498 34.7771 3.75898 34.4503 3.1705C34.1236 2.58202 33.6464 2.09256 33.0685 1.75303C32.4905 1.4135 31.8329 1.2363 31.164 1.23986C31.0476 1.23986 30.9332 1.23986 30.8188 1.25664L30.7169 1.26922C30.6345 1.27754 30.5526 1.29014 30.4715 1.30696L30.3696 1.32584C30.2677 1.3489 30.1616 1.37407 30.0659 1.40552H30.0451C29.9411 1.43907 29.8371 1.47682 29.7373 1.51876L29.6416 1.5607L29.4337 1.66345L29.3359 1.71378C29.2569 1.75991 29.1799 1.80814 29.103 1.85847L29.0572 1.88573C28.972 1.94654 28.8888 2.00945 28.8077 2.07655C28.7765 2.09962 28.7473 2.12688 28.7182 2.15204C28.6891 2.17721 28.6142 2.24431 28.5622 2.29464L28.4749 2.38271C28.4187 2.43933 28.3667 2.49804 28.3168 2.55676C28.2939 2.58402 28.2711 2.60709 28.2503 2.63435C28.19 2.70984 28.1317 2.78952 28.0756 2.86921C28.0506 2.90486 28.0277 2.9426 28.0049 2.97825C27.982 3.0139 27.9362 3.09149 27.9029 3.1481C27.8697 3.20472 27.8572 3.22779 27.8364 3.26973C27.8156 3.31167 27.7719 3.40184 27.7407 3.47942L27.697 3.57589C27.5849 3.85139 27.5053 4.13926 27.46 4.43355C27.46 4.47968 27.4454 4.52791 27.4392 4.57614C27.4329 4.62437 27.4288 4.66631 27.4246 4.71245C27.4142 4.81729 27.408 4.92214 27.408 5.03328C27.408 6.41421 26.8639 7.73857 25.8954 8.71503C24.927 9.69149 23.6135 10.2401 22.2439 10.2401C21.743 10.2282 21.2449 10.3174 20.7788 10.5024C20.3126 10.6874 19.8879 10.9646 19.5295 11.3175C19.1711 11.6705 18.8863 12.0921 18.6919 12.5576C18.4975 13.0231 18.3973 13.5231 18.3973 14.0282C18.3973 14.5334 18.4975 15.0334 18.6919 15.4989C18.8863 15.9644 19.1711 16.386 19.5295 16.739C19.8879 17.0919 20.3126 17.369 20.7788 17.5541C21.2449 17.7391 21.743 17.8283 22.2439 17.8164L22.2397 17.8206Z" fill="white"/>
<path d="M13.3175 26.8166C14.6871 26.8166 16.0006 27.3652 16.969 28.3416C17.9375 29.3181 18.4816 30.6424 18.4816 32.0234C18.4812 32.7729 18.7012 33.5057 19.1139 34.1291C19.5266 34.7525 20.1134 35.2385 20.8001 35.5256C21.4868 35.8128 22.2425 35.8881 22.9716 35.7421C23.7008 35.5962 24.3706 35.2354 24.8964 34.7056C25.4222 34.1757 25.7803 33.5006 25.9255 32.7655C26.0707 32.0304 25.9964 31.2684 25.712 30.5759C25.4276 29.8834 24.9459 29.2914 24.3279 28.875C23.7098 28.4585 22.9831 28.2362 22.2397 28.2362C21.5608 28.2362 20.8885 28.1013 20.2613 27.8391C19.6341 27.577 19.0643 27.1927 18.5845 26.7084C18.1047 26.224 17.7243 25.649 17.465 25.0163C17.2058 24.3837 17.0727 23.7056 17.0736 23.0211C17.074 22.2714 16.8539 21.5385 16.4411 20.9151C16.0283 20.2916 15.4414 19.8056 14.7546 19.5186C14.0678 19.2315 13.3119 19.1563 12.5827 19.3024C11.8535 19.4486 11.1837 19.8095 10.658 20.3396C10.1323 20.8696 9.77431 21.545 9.62936 22.2802C9.48442 23.0155 9.55902 23.7775 9.84372 24.47C10.1284 25.1625 10.6104 25.7543 11.2288 26.1705C11.8471 26.5867 12.574 26.8086 13.3175 26.8082V26.8166Z" fill="white"/>
<path d="M40.0821 28.2362C39.0861 28.2368 38.1311 28.636 37.4268 29.3461C36.7225 30.0562 36.3266 31.0191 36.3261 32.0233C36.3261 33.4048 35.7818 34.7297 34.8129 35.7066C33.8441 36.6834 32.53 37.2322 31.1599 37.2322C30.4165 37.2322 29.6898 37.4545 29.0718 37.871C28.4537 38.2874 27.972 38.8793 27.6876 39.5719C27.4032 40.2644 27.3289 41.0264 27.4741 41.7615C27.6193 42.4966 27.9774 43.1717 28.5032 43.7016C29.029 44.2314 29.6988 44.5921 30.428 44.7381C31.1571 44.8841 31.9128 44.8087 32.5995 44.5216C33.2862 44.2345 33.873 43.7485 34.2857 43.1251C34.6984 42.5017 34.9185 41.7689 34.918 41.0193C34.918 39.6384 35.4621 38.3141 36.4306 37.3376C37.399 36.3611 38.7125 35.8126 40.0821 35.8126C40.583 35.8245 41.0811 35.7353 41.5472 35.5502C42.0134 35.3652 42.4381 35.0881 42.7965 34.7351C43.1549 34.3822 43.4397 33.9605 43.6341 33.495C43.8285 33.0295 43.9287 32.5295 43.9287 32.0244C43.9287 31.5193 43.8285 31.0193 43.6341 30.5538C43.4397 30.0882 43.1549 29.6666 42.7965 29.3137C42.4381 28.9607 42.0134 28.6836 41.5472 28.4986C41.0811 28.3135 40.583 28.2243 40.0821 28.2362V28.2362Z" fill="white"/>
</svg>
