<svg width="1388" height="1135" fill="none" xmlns="http://www.w3.org/2000/svg"><path d="M236.31 396.477c1.237-6.185 7.807-11.597 13.295-8.737 2.01 1.083 3.402 2.938 4.793 4.794 28.833 39.122 57.666 78.321 86.499 117.443 17.779 24.123-9.972 34.869-33.007 36.648-15.074 1.159-30.07-1.624-44.912-4.33-41.742-7.732-83.484-15.386-125.226-23.117-11.904-2.165-42.206-1.701-48.854-13.84-6.106-11.211 4.639-14.072 15.151-15.231 20.253-2.242 40.506 1.082 60.758.696l-54.496-9.278c-12.832-2.165-36.254-2.397-44.139-15.232-12.831-20.875 23.268-14.999 33.471-13.143 23.268 4.252 53.415 2.86 74.44 14.922-24.813-14.304-51.714-21.572-78.305-31.545-7.575-2.861-27.055-8.041-30.688-15.85-9.662-21.03 37.336-4.562 42.979-2.397 29.76 11.366 61.917 13.53 91.059 27.525a5096.849 5096.849 0 0 1-79.928-39.2c-4.329-2.165-8.889-4.484-11.827-8.427-2.937-3.943-3.71-9.897-.464-13.53 3.943-4.407 11.054-3.093 16.697-1.315 44.293 13.994 83.021 40.127 127.777 53.271 1.469-6.804-2.473-13.608-6.57-19.252-4.097-5.644-8.735-11.674-8.812-18.71.077-.619.231-1.392.309-2.165Z" fill="#994396"/><path d="M275.113 436.293 84.259 484.461c-16.156 4.098-32.62-5.721-36.718-21.88L17.24 342.2c-4.097-16.159 5.72-32.628 21.875-36.726l190.854-48.245c16.156-4.097 32.621 5.722 36.718 21.881l30.379 120.381c4.019 16.236-5.798 32.705-21.953 36.802Z" fill="#FDB913"/><path d="M161.095 381.708c-22.417 5.18-143.855-39.586-143.855-39.586-4.097-16.159 5.72-32.627 21.875-36.725l190.854-48.245c16.156-4.098 32.621 5.721 36.718 21.88-.077.078-83.175 97.496-105.592 102.676Z" fill="#FDE500"/><path d="M236.384 396.475c1.237-6.185 7.807-11.597 13.296-8.736 2.009 1.082 3.401 2.938 4.792 4.793 28.833 39.122 57.666 78.321 86.499 117.443 17.779 24.123-68.72-35.256-87.349-65.254 1.469-6.804-4.638-21.649-8.735-27.293-4.097-5.644-8.735-11.675-8.812-18.711.077-.695.154-1.469.309-2.242Z" fill="#994396"/><path d="M862.438 1125.8c281.462 0 509.642-228.221 509.642-509.745 0-281.525-228.18-509.745-509.642-509.745-281.466 0-509.64 228.22-509.64 509.745 0 281.524 228.174 509.745 509.64 509.745Z" fill="#45469C"/><path d="m856.178 233.726 1.855 190.662c.077 6.417.155 13.066 3.015 18.71 6.957 13.84 41.432 9.742 54.187 9.046 23.577-1.237 51.173-4.948 62.768-26.597 5.797-10.824 6.029-23.813 6.184-36.261l1.391-155.328c-43.056-1.237-86.344-1.623-129.4-.232Z" fill="#994396"/><path d="M1025.85 391.837c-9.04-2.474-18.24-4.407-27.441-5.953 0 6.34-.85 12.603-3.711 18.169-2.86 5.49-7.498 9.974-12.367 13.84-28.37 22.731-68.256 30.153-102.81 19.174-8.503-2.706-16.851-6.572-23.112-12.912-7.808-7.963-11.286-19.56-9.972-30.617-6.725 1.547-13.528 2.861-20.175 4.717-7.576 8.891-13.141 19.251-13.373 30.771-.309 14.768 8.425 28.607 20.175 37.576 11.75 8.891 26.205 13.53 40.66 16.623 25.509 5.412 51.868 6.495 77.764 3.247 16.928-2.165 33.935-6.262 48.702-14.922 14.76-8.659 27.13-22.267 31.61-38.735 3.79-13.762 1.08-28.684-5.95-40.978Z" fill="#fff"/><path d="M950.869 330.989c-34.012 14.227-77.532 7.577-101.263-20.643-17.315-20.566-22.262-48.632-24.349-75.383-5.102-65.023-9.895-162.673 54.883-200.48 27.751-16.237 61.608-20.103 93.378-15.232 79.152 12.293 77.532 93.321 62.382 154.168-15.31 61.389-16.77 128.964-85.031 157.57Z" fill="#994396"/><path d="M1045.1 155.636c9.89-3.634 21.8-2.397 29.99 4.252 10.9 8.815 13.14 25.592 7.5 38.504-5.64 12.834-17.78 21.958-30.92 26.983-9.35 3.634-20.72 5.18-28.91-.696-7.11-5.103-9.82-14.612-8.97-23.349 1.7-17.937 13.69-39.277 31.31-45.694Z" fill="#994396"/><path d="M898.848 244.242c.618 5.025.773 10.283-.464 15.153-1.237 4.949-3.942 9.51-7.884 12.062-7.112 4.484-16.697.928-21.567-6.34-3.401-5.18-8.503-21.03-1.082-23.659 2.705-.928 11.131 3.247 14.378 3.634a52.087 52.087 0 0 0 16.619-.85Z" fill="#000"/><path d="M1030.18 155.559c-4.02-6.882-13.99-2.475-16.62 3.324-1.24 2.784-1.16 5.954-1.24 9.046-.61 23.891-13.756 46.854-33.235 60.539-21.103 14.844-60.836 18.865-82.712 3.247-4.406-3.17-8.734-7.345-14.145-7.268-4.175.078-7.808 2.861-11.75 4.33-8.271 3.093-17.779.232-24.813-5.18-14.765-11.288-23.5-30.849-23.036-49.328-.85-.232.232 2.01-.232 2.706-.463.696-.695 1.546-.85 2.397-1.469 7.036-.232 10.747-6.339 14.845-4.174 2.783-10.435 2.86-12.599 8.195-2.397 6.031 4.483 11.907 4.792 18.324.387 7.732-7.962 12.371-12.677 18.556-7.498 9.742-4.252 25.823 6.416 31.931-8.89 5.103-10.668 19.175-3.401 26.288 2.782 2.783 6.957 5.18 6.957 9.123.077 4.098-6.03 5.954-7.421 10.129-1.005 3.092-.85 6.494-.232 9.741 1.932 10.129 8.735 19.329 17.856 24.046 9.199 4.793 20.562 5.103 29.993.85-6.107 2.706 5.101 9.819 6.802 10.515 7.498 2.861 15.383.928 23.113 1.701 5.875.619 11.518 2.938 17.315 4.175 5.798 1.237 12.291 1.315 17.161-2.165 4.56-3.324 7.266-9.51 12.754-10.824 5.798-1.469 11.209 3.325 17.006 4.407 8.89 1.701 18.011-7.036 16.852-15.927 3.633 6.031 12.058 7.886 18.552 5.412 6.57-2.474 11.285-8.505 13.836-14.999 2.551-6.495 3.247-13.608 3.943-20.566-.232 6.649 8.504 10.901 14.534 8.118 6.03-2.783 8.81-10.128 8.19-16.778-.54-6.572-3.79-12.679-6.88-18.478 5.72 2.551 12.45-2.706 13.84-8.737.93-3.866.31-7.654-.31-11.443-.54-3.479-1.16-6.958-.77-10.437 1.08-9.82 2.7-19.639 3.86-29.535 2.24-19.252 4.1-38.504 6.65-57.755.54-4.175 1-8.814-1.16-12.525ZM908.51 286.996c-17.702 7.577-39.192 5.721-55.27-4.794-4.251-2.783-21.18-18.71-10.358-23.581 2.01-.928 4.329-.541 6.493-.155 2.164.387 4.483.773 6.493 0 2.087-.85 3.556-3.402 2.474-5.257 8.657 2.474 18.861-2.242 22.571-10.438.542 4.871 3.711 9.355 8.117 11.52 4.406 2.165 9.894 1.933 14.069-.541 1.546 5.103 6.493 8.969 11.826 9.201 21.567.85 4.407 19.329-6.415 24.045Z" fill="#8ACC9E"/><path d="M1016.65 76.697c-4.02.078-8.11 1.315-11.28 3.789-7.502 5.798-10.362 16.004-9.511 25.437 1.546 18.401 7.961 35.952 9.741 54.894.77 8.273 2.86 18.015 10.59 21.185 6.11 2.474 13.29-.619 17.55-5.644 4.25-5.026 6.26-11.52 8.11-17.783 9.51 7.19 24.04 3.557 32.08-5.18 18.55-18.556 13.07-44.302 1.24-63.09-3.25-.232-6.57-.541-9.82-.773 2.71-9.587-4.33-20.721-14.14-22.422-9.82-1.7-20.18 6.417-20.8 16.314-2.94-4.64-8.35-6.804-13.76-6.727ZM834.688 138.318c-2.783.541-5.643.928-8.425.386-2.783-.541-5.489-2.242-6.494-4.948-1.778-4.484 1.701-9.278 5.334-12.37 9.044-7.732 21.026-11.984 32.93-11.752 10.281.154 18.706 8.968 8.58 16.468-8.735 6.494-21.335 10.206-31.925 12.216ZM978.389 143.729c2.783.542 5.643.928 8.426.387 2.782-.541 5.488-2.242 6.493-4.948 1.778-4.485-1.701-9.278-5.334-12.371-9.044-7.731-21.026-11.984-32.93-11.752-10.281.155-18.707 8.969-8.58 16.468 8.812 6.418 21.412 10.129 31.925 12.216Z" fill="#8ACC9E"/><path d="M288.949 552.5c-.154-.464-.309-.851-.463-1.314-5.566-15.618-16.311-26.829-2.397-42.06 10.281-11.211 28.06-13.608 41.356-6.65 13.837 7.191 25.045 20.334 35.867 33.169 33.085 39.277 69.106 73.991 97.553 116.825 28.91 43.606 53.26 90.227 72.43 138.937 13.45 34.173 24.504 70.203 22.726 106.85-2.087 43.993-42.128 128.263-94.692 80.255-11.286-10.284-19.171-23.659-26.669-36.958-45.375-81.027-78.382-168.239-106.442-256.534-13.914-43.761-24.04-89.223-39.269-132.52Z" fill="#994396"/><path d="M1217.63 485.777c-16.46-17.628-36.33-35.257-58.44-42.602-4.09-1.855-8.5-3.788-13.37-5.721-36.18-14.613-73.13-32.009-111.24-43.22a355.25 355.25 0 0 0-8.73-2.396c7.11 12.293 9.74 27.215 6.03 40.9-4.48 16.468-16.93 30.076-31.62 38.735-14.761 8.659-31.767 12.757-48.696 14.922-25.818 3.247-52.254 2.165-77.763-3.247-14.456-3.093-28.911-7.654-40.66-16.623-11.75-8.891-20.485-22.808-20.176-37.576.232-11.52 5.798-21.88 13.373-30.772-.773.232-1.546.31-2.319.542-46.071 13.221-89.745 34.251-128.627 63.863-3.092 2.319-5.566 4.948-7.653 7.654-3.71 3.479-7.343 7.113-10.667 11.056-29.838 35.102-58.903 70.822-86.963 107.315-25.663 33.246-47.771 68.579-70.807 102.985-6.261 9.355-12.522 18.788-18.629 28.298a748.522 748.522 0 0 0-39.809-67.42c-13.528-20.334-28.988-39.199-45.066-57.523-10.822-12.293-23.345-23.272-32.776-36.725-4.792-6.881-7.498-11.83-7.575-19.252-.077-5.412 5.179-8.427 2.087-15.077-2.705-5.876-9.817-9.355-16.156-7.886 1.083-6.108 1.392-12.448 1.005-18.633-.154-2.783-.541-5.644-2.01-7.964-3.865-6.185-13.218-5.566-19.866-2.628-7.575 3.324-14.146 8.659-20.561 13.917l-46.149 37.575c-5.797 4.716-11.672 9.51-17.469 14.226-4.175 3.402-8.735 8.273-6.957 13.299 1.314 3.556 5.488 5.335 9.276 5.566 3.787.31 7.652-.463 11.44.232-3.865 4.717-4.715 11.675-2.01 17.165 8.812.85 17.084-1.779 24.736-5.567 11.595 33.71 22.804 68.27 35.404 101.902 28.06 88.295 61.067 175.585 106.442 256.535 7.421 13.299 15.383 26.597 26.668 36.957 26.901 24.661 50.555 14.458 67.483-7.19 10.049-8.969 18.939-19.484 26.205-27.525 25.355-28.143 49.472-57.523 72.276-87.753 3.014-4.021 6.029-8.041 9.044-12.139-6.571 62.858-10.513 159.968-8.349 223.058 73.126 50.8 202.295 61.54 253.854 58.45 24.504-.85 52.177-4.02 73.512-8.12 34.94-6.42 139.138-26.9 247.128-121.462-.31-79.094-.85-116.515-1.62-195.61 12.44 18.17 24.89 36.494 36.95 55.127 20.48 31.545 14.07 29.225 38.96 57.446 49.16-56.982 83.33-164.374 91.21-232.567-55.89-92.238-77.53-116.747-150.35-194.527Z" fill="#F2663B"/><path d="M946.697 173.728c0 7.113-3.169 12.835-7.112 12.835-3.942 0-7.111-5.722-7.111-12.835s3.169-12.834 7.111-12.834c3.943 0 7.112 5.721 7.112 12.834ZM843.655 179.76c3.927 0 7.111-5.747 7.111-12.835 0-7.088-3.184-12.834-7.111-12.834-3.928 0-7.112 5.746-7.112 12.834 0 7.088 3.184 12.835 7.112 12.835Z" fill="#000"/><path d="M849.761 202.104c19.04 0 34.476-15.438 34.476-34.483 0-19.044-15.436-34.483-34.476-34.483-19.041 0-34.476 15.439-34.476 34.483 0 19.045 15.435 34.483 34.476 34.483Z" stroke="#FFCE34" stroke-width=".5" stroke-miterlimit="10" stroke-linecap="round" stroke-linejoin="round"/><path d="M869.935 222.438a28.334 28.334 0 0 0 5.875 3.557c12.523 5.257 18.63-2.629 22.958-13.067 3.324-7.963 17.393-54.662-1.546-52.729-2.782.309-5.101 2.01-7.111 4.02-4.174 4.253-7.035 9.665-8.117 15.541-1.082 5.566-1.237 12.602-6.416 14.999-3.942 1.856-8.889-.309-12.909 1.392-3.788 1.623-5.411 6.417-4.56 10.437.773 4.021 3.478 7.423 6.261 10.515 1.7 1.856 3.556 3.712 5.565 5.335Z" fill="#ED6636"/><path d="M946.386 208.211c19.04 0 34.476-15.439 34.476-34.483 0-19.045-15.436-34.483-34.476-34.483s-34.476 15.438-34.476 34.483c0 19.044 15.436 34.483 34.476 34.483Z" stroke="#FFCE34" stroke-width=".5" stroke-miterlimit="10" stroke-linecap="round" stroke-linejoin="round"/><path d="M883.542 159.889c3.015-5.722 9.508-9.433 15.924-9.278 6.416.154 12.677 4.252 15.46 10.128" stroke="#FFCE34" stroke-width=".5" stroke-miterlimit="10" stroke-linecap="round" stroke-linejoin="round"/><path d="M856.409 424.077c6.261 6.34 14.61 10.206 23.113 12.912 34.63 10.979 74.517 3.557 102.809-19.174 4.87-3.866 9.508-8.273 12.368-13.84 2.86-5.567 3.71-11.829 3.71-18.169-6.725-1.16-13.527-2.165-20.407-2.706-44.448-3.325-88.818.464-131.565 10.283-1.391 11.133 2.087 22.808 9.972 30.694Z" fill="#994396"/><path d="M902.402 916.814c54.774 0 99.178-61.2 99.178-136.695 0-75.494-44.404-136.695-99.178-136.695-54.773 0-99.175 61.201-99.175 136.695 0 75.495 44.402 136.695 99.175 136.695Z" fill="#00BCCC"/><path d="M902.403 866.25c34.494 0 62.458-38.562 62.458-86.131 0-47.568-27.964-86.13-62.458-86.13-34.495 0-62.459 38.562-62.459 86.13 0 47.569 27.964 86.131 62.459 86.131Z" stroke="#008793" stroke-width=".33" stroke-miterlimit="10" stroke-linecap="round" stroke-linejoin="round"/><path d="M831.75 684.942c5.102 7.036 14.223 19.639 25.432 35.024M946.001 842.436a47918.956 47918.956 0 0 0 25.818 35.565M831.21 875.99c5.024-6.958 14.532-20.024 26.282-36.261M946.308 717.338c11.44-15.773 20.407-28.143 24.89-34.329" stroke="#008793" stroke-width=".33" stroke-miterlimit="10" stroke-linecap="round" stroke-linejoin="round"/></svg>