<svg width="80" height="90" fill="none" xmlns="http://www.w3.org/2000/svg"><g clip-path="url(#a)"><path d="M39.515 52.33c.675.043 1.307-.423 1.856-.889 2.488-2.288 4.386-5.296 5.524-8.644-3.247-1.017-6.62-1.568-9.784-1.017-1.307.212-2.614.551-3.922.932.928 3.263 2.573 6.23 4.808 8.645.38.466.885.932 1.518.974Z" fill="#F89C33"/><path d="M54.064 46.016c-.59-.508-1.307-.89-2.024-1.229-1.645-.763-3.374-1.483-5.145-2.076-1.138 3.39-3.079 6.44-5.567 8.729-.506.508-1.138.974-1.813.932-.59-.042-1.096-.55-1.56-1.017-2.193-2.415-3.838-5.466-4.766-8.771-2.572.763-5.187 1.78-7.675 2.754-.843.381-1.771.847-2.235 1.78-.928 1.864-.801 3.56-.548 5.593.295 2.458.21 5.042.295 7.458.422 11.652.068 18.856.152 29.83 4.917-.084 10.94-.084 16.843-.084 4.766 0 9.146.084 13.36.084.177-.472.177-2.67.177-2.796.338-5.297.127-14.323.464-19.746.211-3.348 1.139-6.144 1.35-9.492.042-.805.084-1.61.168-2.415.169-3.517 1.265-7.161-1.476-9.534Z" fill="#F1653A"/><path d="M31.713 61.568c1.141 0 2.067-.93 2.067-2.076a2.071 2.071 0 0 0-2.067-2.076c-1.141 0-2.066.93-2.066 2.076 0 1.147.925 2.076 2.066 2.076ZM37.702 61.568c1.141 0 2.066-.93 2.066-2.076a2.071 2.071 0 0 0-2.066-2.076c-1.142 0-2.067.93-2.067 2.076 0 1.147.925 2.076 2.067 2.076ZM47.654 62.67c-.295-.212-.674-.297-1.012-.297-.126 0-.253 0-.38.042-.505.085-.885.382-1.18.805l-2.952 4.492c-.253.424-.38.89-.253 1.398.084.509.38.89.801 1.186.422.255.886.382 1.392.255a1.939 1.939 0 0 0 1.18-.805l2.953-4.492c.253-.424.38-.89.253-1.398-.127-.509-.422-.932-.802-1.187ZM27.2 65.254l2.953 4.492c.253.424.675.678 1.18.805.507.084.97 0 1.392-.255.844-.55 1.097-1.694.506-2.584L30.28 63.22c-.253-.423-.674-.678-1.18-.805-.127-.042-.253-.042-.38-.042-.38 0-.717.127-1.012.296-.801.551-1.054 1.738-.506 2.585ZM43.69 61.568c1.141 0 2.067-.93 2.067-2.076a2.071 2.071 0 0 0-2.067-2.076c-1.141 0-2.066.93-2.066 2.076 0 1.147.925 2.076 2.066 2.076Z" fill="#D75A34"/><path d="M35.72 62.67c-.296-.212-.675-.297-1.013-.297-.126 0-.253 0-.38.042-.505.085-.885.382-1.18.805l-2.952 4.492c-.253.424-.38.89-.253 1.398.084.509.38.89.801 1.186.422.255.886.382 1.392.255a1.938 1.938 0 0 0 1.18-.805l2.953-4.492c.253-.424.38-.89.253-1.398-.127-.509-.422-.932-.802-1.187Z" fill="#D75A34"/><path d="M32.894 63.856c-.084.509 0 .974.253 1.398l2.952 4.492c.253.424.675.678 1.18.805.507.084.97 0 1.392-.255.844-.55 1.097-1.694.506-2.584l-2.952-4.492c-.253-.423-.674-.678-1.18-.805-.127-.042-.253-.042-.38-.042-.38 0-.717.127-1.012.296-.38.255-.633.678-.76 1.187Z" fill="#D75A34"/><path d="m39.093 63.178-2.952 4.491c-.253.424-.38.89-.253 1.398.085.509.38.89.802 1.187.421.254.885.381 1.391.254a1.94 1.94 0 0 0 1.181-.805l2.952-4.491a1.9 1.9 0 0 0-.506-2.585c-.295-.212-.675-.297-1.012-.297-.127 0-.253 0-.38.042a2.24 2.24 0 0 0-1.223.806Z" fill="#D75A34"/><path d="m39.136 65.254 2.952 4.492c.253.424.674.678 1.18.805.507.084.97 0 1.392-.255.843-.55 1.097-1.694.506-2.584l-2.952-4.492c-.253-.423-.675-.678-1.18-.805-.127-.042-.254-.042-.38-.042-.38 0-.717.127-1.012.296-.844.551-1.055 1.738-.506 2.585Z" fill="#D75A34"/><path d="M20.875 50.127a14.25 14.25 0 0 0-1.35 2.161c-1.349 2.5-2.699 5-3.921 7.543-.211.466-.422.89-.633 1.355-.338.72-.675 1.399-.97 2.12-1.434 3.177-2.994 7.33-1.139 10.72.886 1.567 2.995 2.542 4.555 1.652.632-.381 1.096-.974 1.518-1.61a84.81 84.81 0 0 0 9.11-16.483c.927-2.204 1.77-4.576 1.433-6.907-.169-1.229-.717-2.415-1.603-3.263-.843-.89-2.066-.762-3.12-.339-.211.085-.38.17-.549.255-1.391.678-2.445 1.652-3.331 2.796ZM44.07 34.492c.337 3.178.463 6.398.38 9.619 0 .254-.043.508-.17.72-.168.254-.505.297-.758.339a16.11 16.11 0 0 1-7.085-.72c-.38-.127-.802-.297-.97-.72-.085-.255-.042-.551 0-.848.38-2.585.38-5.212.042-7.797l8.56-.593Z" fill="#F89C33"/><path d="M33.484 30.932c.127 1.822.253 3.771 1.223 5.339 1.181 1.907 3.416 2.966 5.651 3.05 1.35.085 2.826-.21 3.838-1.186.59-.593.97-1.44 1.223-2.245a19.646 19.646 0 0 0 .59-10c-.295-1.441-.8-2.924-1.813-3.983-2.572-2.67-7.338-1.568-9.489 1.144-1.94 2.373-1.391 5.084-1.223 7.88Z" fill="#F89C33"/><path d="M47.528 29.363c.168 0 .295 0 .421.085.127.085.253.212.338.381.21.424.295.89.169 1.356-.085.424-.338.805-.549 1.144-.126.212-.253.382-.38.594-.21.38-.463.762-.885.974-.38.212-.928.17-1.138-.212-.085-.127-.085-.296-.127-.423-.127-1.399.253-3.899 2.15-3.899ZM32.346 29.363c-.17 0-.296 0-.422.085a1 1 0 0 0-.337.381c-.211.424-.296.89-.17 1.356.085.424.338.805.55 1.144.126.212.252.382.379.594.21.38.464.762.885.974.38.212.928.17 1.139-.212.084-.127.084-.296.126-.423.17-1.399-.253-3.899-2.15-3.899Z" fill="#F89C33"/><path d="M44.407 45.974c-.675.085-1.308.509-1.982.593-.59.085-1.223-.042-1.814.043-.337.084-.674.212-1.054.254-.59.042-1.138-.212-1.687-.381-1.518-.382-3.163.296-4.639-.043.085 1.653.633 3.263 1.603 4.577a7.682 7.682 0 0 0 2.362 2.16c.38.212.97.636 1.433.678.59.043 1.139-.211 1.73-.127.759.085 1.307-.042 2.024-.38l1.139-.637c.168-.084.337-.211.463-.339.211-.211.38-.466.548-.72.338-.55.59-1.229 1.012-1.695.212-.423.296-.89.338-1.313.127-.805.295-1.653.253-2.458 0-.127 0-.254-.042-.381a1.243 1.243 0 0 1-.422.084c-.38.085-.801 0-1.265.085Z" fill="#C4D436"/><path d="M43.985 42.923a3.825 3.825 0 0 0-1.391 0c-.59.127-1.181.381-1.771.466-.76.127-1.56 0-2.362-.042-.801 0-1.645.127-2.193.678-.169.17-.337.38-.506.55-.253.17-.548.212-.801.297-.38.127-1.73.678-1.73 1.187-.042.593.802.508 1.181.508 1.181 0 2.362-.339 3.5-.042.549.127 1.14.423 1.687.381.338-.042.675-.212 1.055-.254.59-.127 1.223.042 1.813-.043.675-.127 1.308-.508 1.982-.593.422-.042.886 0 1.308 0 .126 0 .253-.042.421-.085-.042-.932-.042-1.906-.885-2.415a3 3 0 0 0-1.308-.593Z" fill="#FFEBCF"/><path d="m39.768 44.957 1.054-9.703h.717l-1.096 9.661-.675.042Z" fill="#F1653A"/><path d="M34.328 50.253c.084.085.169.17.337.212.253.042.506-.17.717-.339.253-.17.506-.381.717-.593a12.28 12.28 0 0 0 1.265-1.314c.76-.89 1.476-1.78 2.32-2.542.126-.127.295-.212.422-.127.126.085.084.296.041.466-.716 1.695-1.813 3.22-2.91 4.746.929-.424 1.603-1.314 2.236-2.119.633-.805 1.265-1.653 2.15-2.246.085-.042.17-.127.296-.17.126 0 .253 0 .295.085.127.128-.042.594-.084.763-.127.34-.338.593-.549.89-1.012 1.314-1.982 2.627-2.994 3.94.38-.38.802-.72 1.181-1.101a7.6 7.6 0 0 0 .97-1.06 16.992 16.992 0 0 1 2.066-2.203c.169-.127.38-.296.549-.211.38.212-.085.72-.211.974-.211.382-.422.72-.675 1.06-.337.508-.76.932-1.139 1.44-.253.381-.59.72-.885 1.102-.296.339-.633.805-.97 1.06.843-.637 1.729-1.272 2.572-1.908.211-.17.801-.805 1.012-.339.085.212-.168.551-.253.72a16.865 16.865 0 0 1-6.916 5.848c-.421.17-.843.381-1.307.34-1.518-.086-2.024-2.035-1.982-3.263.042-1.06.253-2.162.38-3.221.084-.72.168-1.78.8-2.203-.042 0 .254.678.296.72.084.212.126.424.253.593ZM60.516 68.263c-1.012-.127-2.024.297-2.91.805-1.517.932-1.94 2.119-2.066 3.814-.21 2.372-.506 4.746-.843 7.076-.211 1.61-.38 3.22-.633 4.83-.126.933-.557 4.28-.683 5.212H59c.506-1.44 1.39-8.008 1.854-9.407.675-2.118 1.265-4.28 1.56-6.525.295-1.864.801-5.424-1.898-5.805Z" fill="#F89C33"/><path d="M29.478 50.677c-.422-3.093-2.615-6.567-5.398-4.322-.97.763-2.235 2.077-3.374 3.644-1.855 2.585-3.036 5.551-4.47 8.39 3.416.805 5.988 3.305 8.898 5.381a69.102 69.102 0 0 0 2.868-6.228c.97-2.162 1.813-4.492 1.476-6.865Z" fill="#F1653A"/><path d="M35.593 57.077c.38-.17.844-.297 1.097-.636.295-.381.253-.89.126-1.356-.21-.678-.633-1.229-1.223-1.652-.38-.255-.843-.466-1.35-.509a1.674 1.674 0 0 0-1.307.466c-.506.466-.717 1.187-1.223 1.695-.632.636-1.476 1.144-2.235 1.653a86.66 86.66 0 0 1-4.597 3.05c-1.686 1.06-3.416 1.992-5.187 2.924-1.644.848-3.5 1.483-5.018 2.543-.464.339-.97.636-1.308 1.102-1.096 1.44-.97 4.11-.421 5.677.464 1.399 1.645 4.322 3.542 4.026 1.94-.339 5.145-3.475 6.748-4.873 4.048-3.474 7.422-7.627 10.374-11.992.127-.169.21-.339.337-.466.38-.55.97-1.27 1.56-1.61.043 0 .085-.042.085-.042ZM57.1 50.636c.591.974.886 2.034 1.224 3.135.8 2.416 1.56 4.873 2.235 7.33.126.467.253.976.38 1.442.21.762.421 1.525.59 2.288.885 3.39 1.813 7.796.084 11.059-.801 1.483-2.53 2.246-3.669 1.144-.464-.466-.801-1.144-1.096-1.822-2.447-5.636-4.429-11.652-5.904-17.84-.549-2.33-1.055-4.83-.59-7.202.252-1.314.8-2.543 1.728-3.39.97-.975 2.109.17 2.868 1.017.759.847 1.434 1.78 2.024 2.754.127 0 .127.042.127.085Z" fill="#F89C33"/><path d="M57.312 50.508c-.59-1.907-1.477-3.39-3.079-4.492-.928-.423-.928-.72-1.476-.085-.422.467-.801.975-1.181 1.483-.59.763-.97 1.738-1.138 2.712-.422 2.373.042 4.873.59 7.204.548 2.415 1.223 4.788 1.94 7.118 2.404-1.737 4.639-3.898 6.916-5.932-.843-2.67-1.729-5.339-2.572-8.008Z" fill="#F1653A"/><path d="M36.816 24.364c.506-.127.97-.466 1.518-.508.76-.043 1.434.381 2.109.762.97.509 2.657.594 3.584-.084.211-.17.422-.34.675-.34.295.043.464.382.548.679.633 1.906.76 4.025.38 6.017-.042.17-.085.381 0 .55.337.933 1.012-.762 1.096-1.016.211-.72.506-1.399.76-2.119.337-1.102.59-2.924-.338-3.771-.126-.127-.295-.254-.38-.424-.126-.212-.084-.508-.126-.763-.084-1.822-2.32-3.474-4.049-3.305-.548.043-1.138.255-1.686.043-.338-.128-.59-.424-.928-.594-.59-.339-1.265-.296-1.898-.17-1.139.17-3.205.679-3.542 1.95-.085.297-.169.636-.422.848-.253.211-.675.169-1.012.296-.38.127-.675.509-.844.89-.253.72-.421 2.076-.168 2.797.21.593.674 1.101.674 1.695 0 .38-.168.72-.253 1.101-.168.636.211.975.38 1.526.042.212.127.423.253.593.506.635.97-.043.97-.593.042-.72-.422-1.356-.38-2.077.043-.508.38-.974.549-1.44.253-.594.253-1.314.084-1.95-.084-.338-.21-.762.042-.974.337-.254.675.212.97.297.464.169 1.054.169 1.434.084Z" fill="#45459B"/><path d="M42.678 29.62c0 .253 0 .508.127.72.126.211.337.423.548.38.506-.041.59-.55.759-.974" stroke="#000" stroke-width=".818" stroke-miterlimit="10" stroke-linecap="round" stroke-linejoin="round"/><path d="M42.383 28.094c.21.085.464.042.717.042.464 0 .885.17 1.265.424.295.212.801.381.886-.17.042-.338-.17-.423-.422-.593a3.518 3.518 0 0 0-2.109-.805c-.21 0-.422 0-.59.127-.422.255-.169.848.253.975Z" fill="#45459B"/><path d="M37.449 29.62c0 .253 0 .508-.127.72-.084.211-.337.423-.548.38-.506-.041-.59-.55-.76-.974" stroke="#000" stroke-width=".818" stroke-miterlimit="10" stroke-linecap="round" stroke-linejoin="round"/><path d="M37.702 28.094c-.211.085-.464.042-.717.042-.464 0-.886.17-1.265.424-.296.212-.802.381-.886-.17-.042-.338.169-.423.422-.593a3.52 3.52 0 0 1 2.108-.805c.211 0 .422 0 .59.127.422.255.17.848-.252.975Z" fill="#45459B"/><path d="M39.178 31.187c-.169.212-.38.424-.506.678-.17.381 0 .89.337 1.102.38.254.928.212 1.265-.043.38-.296.464-.762.506-1.229.042-.593.084-1.186-.169-1.695-.168-.338-.8-.847-1.096-.38-.126.169-.042.423-.042.635-.042.381-.127.678-.295.932Z" fill="#F1653A"/><path d="M39.43 34.363c-.168.34-.294.678-.463 1.017-.042.085-.085.17-.085.212 0 .17.17.297.338.381.506.17 1.054-.127 1.223-.635" stroke="#000" stroke-width=".818" stroke-miterlimit="10" stroke-linecap="round" stroke-linejoin="round"/><path d="m46.01 3.728-6.2-3.56a.359.359 0 0 0-.295 0l-6.157 3.56c-.084.042-.127.127-.127.254v7.161c0 .085.043.212.127.254l6.2 3.56c.041.042.084.042.126.042.042 0 .084 0 .126-.042l6.2-3.56c.084-.042.126-.127.126-.254V3.982c0-.127-.042-.212-.127-.254Z" fill="#F1653A"/><path d="M43.859 5.043 39.768 2.67a.128.128 0 0 0-.169 0l-4.09 2.373c-.042.043-.085.085-.085.17v4.746c0 .084.043.127.085.17l4.09 2.372c.043 0 .043.042.085.042.042 0 .042 0 .084-.042l4.09-2.373c.043-.042.085-.085.085-.17V5.17c.042-.042 0-.127-.084-.127ZM39.684 14.958v-2.415M39.684 2.628V.17M46.094 11.229S45.25 10.72 43.985 10M35.424 5.127c-1.265-.72-2.15-1.229-2.15-1.229M46.136 3.941s-.844.509-2.15 1.187M35.382 9.957c-1.265.72-2.15 1.229-2.15 1.229" stroke="#BC4F2C" stroke-width=".693" stroke-miterlimit="10" stroke-linecap="round" stroke-linejoin="round"/></g><defs><clipPath id="a"><path fill="#fff" d="M0 0h80v90H0z"/></clipPath></defs></svg>