<svg xmlns="http://www.w3.org/2000/svg" width="57" height="58" viewBox="0 0 57 58">
    <g fill="none" fill-rule="evenodd">
        <path fill="#2C7B5B" d="M43.272 35.364H37.25v-5.8h6.02c1.847 0 3.614.403 5.22 1.047 1.685.725 3.21 1.692 4.415 2.98 1.284 1.29 2.328 2.82 2.97 4.512.642 1.61 1.044 3.383 1.044 5.236v13.855H43.192c-1.847 0-3.613-.402-5.219-1.047-1.686-.725-3.211-1.691-4.496-2.98-1.284-1.29-2.247-2.82-2.97-4.511-.642-1.612-1.044-3.384-1.044-5.237v-7.975H13.808c-1.123 0-2.087.242-3.05.564-.964.403-1.847.967-2.57 1.773-.722.725-1.364 1.61-1.765 2.577-.402.967-.562 1.934-.562 3.061v7.975h7.947c1.044 0 2.088-.241 3.051-.563.964-.403 1.847-.967 2.57-1.692.722-.725 1.364-1.611 1.765-2.578.402-.967.562-1.933.562-3.061v-6.042h5.78V43.5c0 1.853-.4 3.625-1.043 5.236-.723 1.692-1.686 3.222-2.97 4.511-1.285 1.29-2.81 2.256-4.496 2.98-1.606.645-3.372 1.048-5.219 1.048H.08V43.339c0-1.853.402-3.625 1.044-5.236.722-1.692 1.686-3.222 2.97-4.43 1.285-1.29 2.81-2.337 4.496-2.981 1.606-.645 3.372-1.048 5.218-1.048h8.029V13.856c0-1.128-.241-2.095-.562-3.062-.402-.966-.964-1.852-1.767-2.577-.722-.725-1.605-1.37-2.569-1.773-.963-.402-1.926-.563-3.05-.563H5.94v7.975c0 1.127.24 2.094.562 3.06.401.967.963 1.853 1.766 2.578.723.725 1.606 1.37 2.569 1.773.963.402 2.007.564 3.05.564h6.022v5.8h-6.021c-1.847 0-3.613-.403-5.219-1.048-1.685-.725-3.21-1.691-4.495-2.98-1.285-1.29-2.329-2.82-2.97-4.511C.561 17.48.16 15.708.16 13.856V.08h13.728c1.846 0 3.612.402 5.218 1.047 1.686.725 3.211 1.691 4.496 2.98 1.284 1.29 2.328 2.82 2.97 4.511.642 1.612 1.044 3.384 1.044 5.237V21.83H43.272c1.043 0 2.087-.242 3.05-.564.964-.403 1.847-.967 2.57-1.773.722-.725 1.364-1.61 1.766-2.577.401-.967.562-1.934.562-3.061V5.88h-7.948c-1.124 0-2.087.241-3.05.563-.964.403-1.847.967-2.57 1.773-.722.725-1.365 1.61-1.766 2.577-.401.967-.562 1.934-.562 3.062v6.041h-5.78v-6.041c0-3.787 1.525-7.25 4.014-9.748 1.284-1.289 2.81-2.255 4.496-2.98C39.659.483 41.425.08 43.272.08H57v13.775c0 1.852-.401 3.625-1.044 5.236-.722 1.691-1.686 3.222-2.97 4.43-1.285 1.29-2.81 2.256-4.496 2.98-1.605.645-3.372 1.048-5.218 1.048h-8.028v15.708c0 1.128.24 2.095.562 3.061.401.967.963 1.853 1.766 2.578.722.725 1.605 1.37 2.569 1.772.963.403 1.927.564 3.05.564h7.948v-7.975c0-1.127-.24-2.094-.562-3.06-.4-.967-.963-1.854-1.766-2.579-.722-.725-1.605-1.369-2.569-1.772-.883-.241-1.927-.483-2.97-.483zm-13.809-5.8V27.63h-1.926v1.933h1.926z"/>
        <path fill="#8CC63E" d="M13.407 37.378c-3.13.16-5.62 2.82-5.62 6.041v6.042h6.021c3.212 0 5.78-2.497 6.022-5.639.08-1.772-.482-3.383-1.767-4.672-1.284-1.289-2.81-1.933-4.656-1.772zM49.213 49.38h-6.021c-3.212 0-5.78-2.497-6.022-5.638-.16-1.773.482-3.384 1.767-4.673 1.284-1.288 2.81-1.852 4.656-1.772 3.13.161 5.62 2.82 5.62 6.042v6.042zM7.787 7.814h6.021c3.131 0 5.78 2.417 6.022 5.558.16 1.772-.402 3.384-1.686 4.672-1.285 1.29-2.81 1.934-4.576 1.853-3.212-.16-5.7-2.82-5.7-6.041V7.814h-.08zM49.213 7.814h-6.021c-3.212 0-5.78 2.417-6.022 5.558-.16 1.853.482 3.464 1.767 4.753 1.284 1.289 2.89 1.853 4.736 1.692 3.05-.242 5.54-2.82 5.54-6.042V7.814z"/>
    </g>
</svg>
