<svg viewBox="0 0 125.22 84.11" xmlns="http://www.w3.org/2000/svg"><path d="m123.43 76.07c-.7-.79-1.22-1.68-1.9-2.49a16.05 16.05 0 0 0 -5.39-3.94 101.88 101.88 0 0 0 -13.67-5.55c-2-.32-4-1.06-6-1.51a56.27 56.27 0 0 0 -7.62-1.24c-9-.82-17.84 1.6-26.14 4.47-4.35 1.5-8.8 3-13 4.92-3.71 1.7-6.57 4.86-8.78 8.27h.15c.2.13.89 0 1.12 0h83a11.58 11.58 0 0 0 -1.77-2.93z" fill="#00bdcd"/><path d="m71.53 4.1a1.34 1.34 0 0 1 .11-.1 1 1 0 0 1 1.09-.31 1.26 1.26 0 0 1 .61 1.31 6.08 6.08 0 0 0 0 2.13c2-2.5 3.52-4.95 6.38-6.67a2.05 2.05 0 0 1 1.28-.46 1.56 1.56 0 0 1 1.16 1.55 4.74 4.74 0 0 1 -.55 2 17.43 17.43 0 0 1 3.11-2.64 2.43 2.43 0 0 1 1.28-.51 1.75 1.75 0 0 1 1.51 1.51 5.59 5.59 0 0 1 -.19 2.33 14.94 14.94 0 0 1 4.68-1.46 4.79 4.79 0 0 1 3.87.73c1 .9 1.15 2.93-.06 3.54a14.37 14.37 0 0 1 4.88-1.6 4.91 4.91 0 0 1 4.53 2 6.42 6.42 0 0 1 .82 2.76 20.07 20.07 0 0 1 -.54 7.56c1.46-1.39 4-.48 5 1.3.91 1.61-.12 4 .57 5.25s2.38.55 3.29 1.92a6 6 0 0 1 .67 4 19.12 19.12 0 0 1 -3.03 8.57l1.65-.15a.79.79 0 0 1 .48.07.71.71 0 0 1 .21.4c.82 3.78-4.45 6.27-7.45 5.51.35-.33.77.33.82.82a11.54 11.54 0 0 1 0 3.89 3.69 3.69 0 0 1 -2.37 2.8 2.23 2.23 0 0 1 -2.79-1.82 4.73 4.73 0 0 1 -2.91 5c-.86.31-2.07.14-2.29-.77a5.64 5.64 0 0 1 -4.26 3.44c-.77.13-1.84-.22-1.74-1a7 7 0 0 1 -4.76 1.49 3.49 3.49 0 0 1 -3-3.56 4.52 4.52 0 0 1 -4.22 1.56c-1.57-.49-2.64-2.49-1.79-3.81-1.77 2.81-5.2 3.92-7.91 1.63a3.07 3.07 0 0 1 -1.13-1.73 1.59 1.59 0 0 1 .83-1.76 7.62 7.62 0 0 1 -3.12 0c-3-.89-1.56-4.78.71-3.66-2.46-.45-5-1-6.91-2.67s-2.58-5-.79-6.83a7.5 7.5 0 0 1 -4.74-5 2.45 2.45 0 0 1 0-1.73 2.31 2.31 0 0 1 1.16-.95 8.35 8.35 0 0 1 4.14-.78 6.56 6.56 0 0 1 -4-4.83 2.05 2.05 0 0 1 .22-1.65 2.17 2.17 0 0 1 1.81-.72 22.65 22.65 0 0 1 5.8.66 5.84 5.84 0 0 1 -4-6.12 2.8 2.8 0 0 1 .46-1.38 2.41 2.41 0 0 1 2.42-.8 7.19 7.19 0 0 1 2.41 1.17c-.75-1.3-1.83-3.44 0-4.41a3.19 3.19 0 0 1 2.87.09c.47.23 1 .52 1.46.25l-2.39-2.14a1 1 0 0 1 -.32-.4c-.2-.58.62-1 1.23-.93a4 4 0 0 1 2.36.95c.12.1.26.22.41.19s.29-.39.27-.65a10.44 10.44 0 0 1 .3-3.43 3 3 0 0 1 .4-.95z" fill="#8acc9e"/><path d="m93.38 45.18a200.13 200.13 0 0 1 .71 23 3.72 3.72 0 0 1 -.31 1.72 1.87 1.87 0 0 1 -1.48.81 25.12 25.12 0 0 1 -13.58-1.71 2.84 2.84 0 0 1 -1.83-1.71 5.21 5.21 0 0 1 0-2 87.05 87.05 0 0 0 .08-18.61z" fill="#f2663b"/><path d="m69.91 36.69c.26 4.41.59 9 2.91 12.77 2.81 4.54 8.23 7 13.56 7.31 3.29.17 6.84-.52 9.16-2.86a13.68 13.68 0 0 0 2.95-5.41 46 46 0 0 0 1.42-23.92c-.72-3.46-1.92-7-4.39-9.51-6.23-6.39-17.61-3.77-22.76 2.73-4.5 5.69-3.25 12.2-2.85 18.89z" fill="#f2663b"/><path d="m103.7 33a2 2 0 0 1 1 .24 2.1 2.1 0 0 1 .77.87 4.75 4.75 0 0 1 .44 3.27 9.18 9.18 0 0 1 -1.35 2.78l-.9 1.43a6.19 6.19 0 0 1 -2.08 2.31 2.11 2.11 0 0 1 -2.78-.55 2.78 2.78 0 0 1 -.28-1.07c-.38-3.43.61-9.28 5.18-9.28z" fill="#f2663b"/><path d="m67.2 33a2 2 0 0 0 -1.06.24 2.08 2.08 0 0 0 -.76.87 4.7 4.7 0 0 0 -.45 3.27 9.67 9.67 0 0 0 1.35 2.78l.9 1.43a6.19 6.19 0 0 0 2.08 2.31 2.1 2.1 0 0 0 2.74-.58 3 3 0 0 0 .29-1.07c.46-3.4-.53-9.25-5.09-9.25z" fill="#f2663b"/><g fill="#8acc9e"><path d="m91.32 29.91a7.14 7.14 0 0 0 1.73.14 6.18 6.18 0 0 1 3.06 1c.75.48 2 .92 2.16-.38.13-.78-.45-1-1-1.47a8.64 8.64 0 0 0 -5.06-1.92 2.46 2.46 0 0 0 -1.44.27c-1.05.66-.45 2.06.55 2.36z"/><path d="m80.09 29.91a7.1 7.1 0 0 1 -1.73.14 6.15 6.15 0 0 0 -3 1c-.75.48-2 .92-2.16-.38-.13-.78.45-1 1-1.47a8.67 8.67 0 0 1 5.06-1.92 2.47 2.47 0 0 1 1.45.27c.99.66.39 2.06-.62 2.36z"/><path d="m75.61 21.84c1.74.82 4.13 2.3 6.1 2.27 2.79 0 1.51-2.89 0-4.2a38.23 38.23 0 0 0 7.29 5.45c1.19.6 2.92 1.4 4.31 1.09 1.9-.44 1.19-1.66.5-3.35a6.31 6.31 0 0 0 5.58 3.81 28.23 28.23 0 0 0 -.55 6.31c0 .92 0 2.05.8 2.48a1.64 1.64 0 0 0 2-.55 4.39 4.39 0 0 0 .75-2.06 33.85 33.85 0 0 0 .29-9.69 12.68 12.68 0 0 0 -.9-3.76 14.29 14.29 0 0 0 -3.92-4.71 25.85 25.85 0 0 0 -6.63-4.49 16.78 16.78 0 0 0 -19.48 5.13c-1.84 2.63.63 4.78 3.86 6.27z"/><path d="m73.57 27.8c0 1.09-.8 2.34-2.14 1.4a3.92 3.92 0 0 1 -1.22-1.91 17 17 0 0 1 1.17 6.61 1.39 1.39 0 0 1 -.21.83 1 1 0 0 1 -1.22.11 2.57 2.57 0 0 1 -.81-1.05 24.84 24.84 0 0 1 -2.62-8.44c-.3-2.38.48-9.71 4.63-7.93 2.42 1 2.52 4.21 2.5 6.45 0 1.23-.14 2.46-.08 3.68a1 1 0 0 1 0 .25z"/></g><path d="m77 35.14c0 1-.4 1.86-.89 1.86s-.88-.83-.88-1.86.39-1.86.88-1.86.89.84.89 1.86z" fill="#292929"/><path d="m92 35c0 1-.39 1.86-.88 1.86s-.85-.86-.85-1.86.4-1.85.89-1.85.84.79.84 1.85z" fill="#292929"/><path d="m78.59 38.59a2.26 2.26 0 0 1 -2 1 3.37 3.37 0 0 0 -.61-.1.81.81 0 0 0 -.66.57 1.34 1.34 0 0 0 .11.9 2.38 2.38 0 0 0 1.77 1.22 5.2 5.2 0 0 0 2.26-.18 4.18 4.18 0 0 0 1.68-.85 4.51 4.51 0 0 0 1.1-3.15c.05-.81 0-3.75-1.52-3-.54.29-.69 1.23-1 1.73a9.24 9.24 0 0 1 -1.13 1.86z" fill="#45469b"/><path d="m80.49 45.94a3.52 3.52 0 0 0 1.18 1.06 1.87 1.87 0 0 0 1.6 0 1.77 1.77 0 0 0 1-1.22" fill="none" stroke="#292929" stroke-linecap="round" stroke-linejoin="round" stroke-width=".47"/><path d="m71.53 4.1a1.34 1.34 0 0 1 .11-.1 1 1 0 0 1 1.09-.31 1.26 1.26 0 0 1 .61 1.31 6.08 6.08 0 0 0 0 2.13c2-2.5 3.52-4.95 6.38-6.67a2.05 2.05 0 0 1 1.28-.46 1.56 1.56 0 0 1 1.16 1.55 4.74 4.74 0 0 1 -.55 2 17.43 17.43 0 0 1 3.11-2.64 2.43 2.43 0 0 1 1.28-.51 1.75 1.75 0 0 1 1.51 1.51 5.59 5.59 0 0 1 -.19 2.33 14.94 14.94 0 0 1 4.68-1.46 4.79 4.79 0 0 1 3.87.73c1 .9 1.15 2.93-.06 3.54a14.37 14.37 0 0 1 4.88-1.6 4.91 4.91 0 0 1 4.53 2 6.42 6.42 0 0 1 .82 2.76 20.07 20.07 0 0 1 -.54 7.56c1.46-1.39 4-.48 5 1.3.91 1.61-.12 4 .57 5.25s2.38.55 3.29 1.92a6 6 0 0 1 .67 4 19.12 19.12 0 0 1 -3.03 8.57l1.65-.15a.79.79 0 0 1 .48.07.71.71 0 0 1 .21.4c.82 3.78-4.45 6.27-7.45 5.51.35-.33.77.33.82.82a11.54 11.54 0 0 1 0 3.89 3.69 3.69 0 0 1 -2.37 2.8 2.23 2.23 0 0 1 -2.79-1.82 4.73 4.73 0 0 1 -2.91 5c-.86.31-2.07.14-2.29-.77a5.64 5.64 0 0 1 -4.26 3.44c-.77.13-1.84-.22-1.74-1a7 7 0 0 1 -4.76 1.49 3.49 3.49 0 0 1 -3-3.56 4.52 4.52 0 0 1 -4.22 1.56c-1.57-.49-2.64-2.49-1.79-3.81-1.77 2.81-5.2 3.92-7.91 1.63a3.07 3.07 0 0 1 -1.13-1.73 1.59 1.59 0 0 1 .83-1.76 7.62 7.62 0 0 1 -3.12 0c-3-.89-1.56-4.78.71-3.66-2.46-.45-5-1-6.91-2.67s-2.58-5-.79-6.83a7.5 7.5 0 0 1 -4.74-5 2.45 2.45 0 0 1 0-1.73 2.31 2.31 0 0 1 1.16-.95 8.35 8.35 0 0 1 4.14-.78 6.56 6.56 0 0 1 -4-4.83 2.05 2.05 0 0 1 .22-1.65 2.17 2.17 0 0 1 1.81-.72 22.65 22.65 0 0 1 5.8.66 5.84 5.84 0 0 1 -4-6.12 2.8 2.8 0 0 1 .46-1.38 2.41 2.41 0 0 1 2.42-.8 7.19 7.19 0 0 1 2.41 1.17c-.75-1.3-1.83-3.44 0-4.41a3.19 3.19 0 0 1 2.87.09c.47.23 1 .52 1.46.25l-2.39-2.14a1 1 0 0 1 -.32-.4c-.2-.58.62-1 1.23-.93a4 4 0 0 1 2.36.95c.12.1.26.22.41.19s.29-.39.27-.65a10.44 10.44 0 0 1 .3-3.43 3 3 0 0 1 .4-.95z" fill="#8acc9e"/><path d="m93.38 45.18a200.13 200.13 0 0 1 .71 23 3.72 3.72 0 0 1 -.31 1.72 1.87 1.87 0 0 1 -1.48.81 25.12 25.12 0 0 1 -13.58-1.71 2.84 2.84 0 0 1 -1.83-1.71 5.21 5.21 0 0 1 0-2 87.05 87.05 0 0 0 .08-18.61z" fill="#f2663b"/><path d="m69.91 36.69c.26 4.41.59 9 2.91 12.77 2.81 4.54 8.23 7 13.56 7.31 3.29.17 6.84-.52 9.16-2.86a13.68 13.68 0 0 0 2.95-5.41 46 46 0 0 0 1.42-23.92c-.72-3.46-1.92-7-4.39-9.51-6.23-6.39-17.61-3.77-22.76 2.73-4.5 5.69-3.25 12.2-2.85 18.89z" fill="#f2663b"/><path d="m103.7 33a2 2 0 0 1 1 .24 2.1 2.1 0 0 1 .77.87 4.75 4.75 0 0 1 .44 3.27 9.18 9.18 0 0 1 -1.35 2.78l-.9 1.43a6.19 6.19 0 0 1 -2.08 2.31 2.11 2.11 0 0 1 -2.78-.55 2.78 2.78 0 0 1 -.28-1.07c-.38-3.43.61-9.28 5.18-9.28z" fill="#f2663b"/><path d="m67.2 33a2 2 0 0 0 -1.06.24 2.08 2.08 0 0 0 -.76.87 4.7 4.7 0 0 0 -.45 3.27 9.67 9.67 0 0 0 1.35 2.78l.9 1.43a6.19 6.19 0 0 0 2.08 2.31 2.1 2.1 0 0 0 2.74-.58 3 3 0 0 0 .29-1.07c.46-3.4-.53-9.25-5.09-9.25z" fill="#f2663b"/><path d="m75.61 21.84c1.74.82 4.13 2.3 6.1 2.27 2.79 0 1.51-2.89 0-4.2a38.23 38.23 0 0 0 7.29 5.45c1.19.6 2.92 1.4 4.31 1.09 1.9-.44 1.19-1.66.5-3.35a6.31 6.31 0 0 0 5.58 3.81 28.23 28.23 0 0 0 -.55 6.31c0 .92 0 2.05.8 2.48a1.64 1.64 0 0 0 2-.55 4.39 4.39 0 0 0 .75-2.06 33.85 33.85 0 0 0 .29-9.69 12.68 12.68 0 0 0 -.9-3.76 14.29 14.29 0 0 0 -3.92-4.71 25.85 25.85 0 0 0 -6.63-4.49 16.78 16.78 0 0 0 -19.48 5.13c-1.84 2.63.63 4.78 3.86 6.27z" fill="#8acc9e"/><path d="m73.57 27.8c0 1.09-.8 2.34-2.14 1.4a3.92 3.92 0 0 1 -1.22-1.91 17 17 0 0 1 1.17 6.61 1.39 1.39 0 0 1 -.21.83 1 1 0 0 1 -1.22.11 2.57 2.57 0 0 1 -.81-1.05 24.84 24.84 0 0 1 -2.62-8.44c-.3-2.38.48-9.71 4.63-7.93 2.42 1 2.52 4.21 2.5 6.45 0 1.23-.14 2.46-.08 3.68a1 1 0 0 1 0 .25z" fill="#8acc9e"/><path d="m77 39.14c0 1-.4 1.86-.89 1.86s-.88-.83-.88-1.86.39-1.86.88-1.86.89.84.89 1.86z" fill="#292929"/><path d="m92 39c0 1-.39 1.86-.88 1.86s-.85-.86-.85-1.86.4-1.85.89-1.85.84.79.84 1.85z" fill="#292929"/><path d="m78.59 44.59a2.26 2.26 0 0 1 -2 1 3.37 3.37 0 0 0 -.61-.1.81.81 0 0 0 -.66.57 1.34 1.34 0 0 0 .11.9 2.38 2.38 0 0 0 1.77 1.22 5.2 5.2 0 0 0 2.26-.18 4.18 4.18 0 0 0 1.68-.85 4.51 4.51 0 0 0 1.1-3.15c.05-.81 0-3.75-1.52-3-.54.29-.69 1.23-1 1.73a9.24 9.24 0 0 1 -1.13 1.86z" fill="#45469b"/><path d="m80.49 50.94a3.52 3.52 0 0 0 1.18 1.06 1.87 1.87 0 0 0 1.6 0 1.77 1.77 0 0 0 1-1.22" fill="none" stroke="#292929" stroke-linecap="round" stroke-linejoin="round" stroke-width=".47"/><path d="m79.09 33.91a7.1 7.1 0 0 1 -1.73.14 6.15 6.15 0 0 0 -3 1c-.75.48-2 .92-2.16-.38-.13-.78.45-1 1-1.47a8.67 8.67 0 0 1 5.06-1.92 2.47 2.47 0 0 1 1.45.27c.99.66.39 2.06-.62 2.36z" fill="#8acc9e"/><path d="m91.32 33.91a7.14 7.14 0 0 0 1.73.14 6.18 6.18 0 0 1 3.06 1c.75.48 2 .92 2.16-.38.13-.78-.45-1-1-1.47a8.64 8.64 0 0 0 -5.06-1.92 2.46 2.46 0 0 0 -1.44.27c-1.05.66-.45 2.06.55 2.36z" fill="#8acc9e"/><ellipse cx="9.84" cy="76.55" fill="#f2663b" rx="9.84" ry="6.46" transform="matrix(.99999877 -.0015708 .0015708 .99999877 -.12 .01)"/><ellipse cx="17.86" cy="78.68" fill="#f2663b" rx="5.81" ry="3.59" transform="matrix(.45833934 -.88877728 .88877728 .45833934 -60.26 58.5)"/></svg>