<svg width="131" height="98" viewBox="0 0 131 98" fill="none" xmlns="http://www.w3.org/2000/svg">
<path d="M116.679 24.1337C115.741 18.9012 112.712 14.3162 111.68 9.04311C111.427 9.6092 110.814 12.3396 111.236 13.0527C111.277 13.0964 111.315 13.1402 111.355 13.184C111.308 13.1559 111.271 13.109 111.236 13.0527C108.082 9.61545 107.701 4.4143 105.209 0.45166C103.909 2.62532 103.509 5.24623 103.668 7.77331C103.828 10.3004 104.515 12.7649 105.259 15.1825C104.606 14.0597 103.95 12.9369 103.296 11.8141C103.384 15.6923 104.103 19.558 105.419 23.2079C105.069 22.7982 104.653 22.4479 104.19 22.1695C104.378 25.2721 104.665 28.2245 105.816 31.1644L106.032 31.7118C107.157 34.6016 108.32 37.5885 108.054 40.7598C107.923 42.3142 107.566 43.8436 106.991 45.3105C106.513 44.1751 105.925 43.1118 105.238 42.1422C106.588 40.9725 106.988 38.9052 106.175 37.1068C105.375 35.3397 103.731 34.095 102.408 33.0973C100.989 32.0245 99.5044 31.0018 98.0696 30.0104C97.6132 29.6976 97.1599 29.3817 96.7066 29.0658C96.2752 28.7656 95.4593 28.1244 94.6747 27.502C93.8588 26.8609 93.0898 26.2541 92.6553 25.9508C92.5177 25.8538 92.3521 25.7631 92.177 25.663C91.7425 25.4191 91.1986 25.1157 91.1079 24.731C91.0829 24.6216 90.9954 24.5402 90.886 24.5183C90.6109 24.4683 90.3483 24.5215 90.1138 24.5903C90.02 24.3713 89.8637 24.2744 89.7637 24.2337C89.598 24.1681 89.4073 24.1774 89.2167 24.2556C89.1354 24.0336 89.0228 23.8303 88.8822 23.652C88.8009 23.5488 88.6571 23.5175 88.5414 23.5738C87.4786 24.0899 87.1254 25.7694 87.2785 26.7827C87.5067 28.2839 89.2542 30.0854 90.1451 30.8298C90.7328 31.3208 91.3361 31.815 91.9426 32.3123C92.6522 32.8971 93.368 33.4851 94.0683 34.07C95.4218 35.2021 96.6691 36.45 97.7788 37.7824C98.0039 38.0545 98.1165 38.4736 98.0539 38.8239C98.0258 38.9896 97.9445 39.2117 97.7288 39.3368C97.5256 39.4556 97.2662 39.465 96.9473 39.465H96.6316C95.55 39.465 94.4434 39.4681 93.3493 39.5776C93.3211 39.1398 93.0585 38.7269 92.7303 38.4798C92.3833 38.2202 91.9738 38.1045 91.5768 37.9919C91.0798 37.8512 90.6109 37.7167 90.3295 37.3195C90.2482 37.2069 90.2014 37.0568 90.1482 36.8973C90.0857 36.7096 90.0232 36.5157 89.8981 36.3374C89.4136 35.64 88.4508 35.7432 87.9256 35.8464C87.2473 34.2357 86.3032 32.7751 85.1184 31.5022L84.8996 31.2676C83.868 30.1699 82.6989 28.9251 83.049 27.5802C83.1084 27.3582 83.2085 27.1424 83.3116 26.9141C83.4867 26.5325 83.6711 26.1384 83.668 25.6849C83.668 25.1439 83.4023 24.6685 83.1584 24.2681C82.13 22.5918 80.6357 21.322 79.1884 20.0928C78.7976 19.7613 78.4069 19.4298 78.0286 19.092C76.5531 17.7753 75.2809 16.2615 74.2493 14.5946L74.0617 14.2912C73.5209 13.4217 72.9613 12.521 72.5925 11.6015C72.3018 10.879 72.0767 10.8164 71.4546 10.8039C71.439 10.8039 71.4233 10.8039 71.4077 10.8039C71.3827 10.3942 71.2295 10.1065 70.7669 10.0033C70.7356 9.37776 70.4605 9.18072 70.2229 9.12755C69.5352 8.98055 68.588 10.0283 68.3317 10.6569C67.669 12.2833 68.4599 13.8783 69.1601 15.2889C69.2726 15.5141 69.382 15.733 69.4821 15.9488C70.3136 17.7253 71.4015 19.2765 72.7769 21.0592C73.5021 22.0006 74.1836 23.0015 74.8401 23.9679C75.4747 24.903 76.128 25.8663 76.8314 26.7858C76.3343 28.1995 75.6716 29.5475 74.8557 30.7954C74.7776 30.9142 74.6994 31.0393 74.6181 31.1644C74.3712 31.5554 74.1148 31.9588 73.8241 32.2841C73.6897 32.4342 73.5365 32.5531 73.3771 32.6782C73.2614 32.7689 73.1427 32.8596 73.0239 32.9659C72.9582 32.8909 72.8988 32.8002 72.8363 32.7095C72.7769 32.6188 72.7175 32.5343 72.6519 32.4561C72.5925 32.3842 72.4987 32.3467 72.4049 32.356C72.3111 32.3654 72.2299 32.4248 72.1861 32.5093C71.7609 33.3631 71.986 34.758 72.2299 35.8777C72.6769 37.945 74.615 39.3149 76.3281 40.5221C76.7657 40.8318 77.1783 41.1226 77.5441 41.4104C77.6879 41.523 78.8789 42.5989 79.4416 43.1399C76.6844 43.8655 73.8491 44.1533 71.0044 43.9969C70.2104 43.9562 69.3258 43.8593 68.5912 43.5121C68.6099 43.509 68.6255 43.5058 68.6412 43.5058C69.0413 43.4496 69.332 43.4058 69.3727 43.1274C69.4102 42.8584 69.1257 42.7302 69.0194 42.6833C68.5099 42.455 67.9753 42.2767 67.4595 42.1047C66.6968 41.8514 65.9778 41.6105 65.3182 41.2165C64.7337 40.8662 64.2272 40.4127 63.6927 39.931C63.1956 39.4838 62.6799 39.0209 62.0984 38.6518C59.5695 37.0537 56.2934 37.5541 53.7238 38.1671C53.208 38.2891 52.7453 38.4142 52.3202 38.6706C52.0764 38.8176 51.5606 39.1585 51.0698 39.6558C51.0479 39.6714 51.0229 39.6871 51.001 39.6996C50.5259 39.9936 49.9632 40.0968 49.3692 40.2031C49.1473 40.2438 48.9285 40.2844 48.7128 40.3314C48.5096 40.3783 48.322 40.4346 48.1407 40.4909C47.8062 40.5909 47.5061 40.6816 47.1873 40.6879C47.206 40.5972 47.181 40.5034 47.1154 40.4346C47.0497 40.3689 46.956 40.3376 46.8653 40.3532C46.3182 40.4471 45.8869 40.6785 45.4648 40.9006C44.9115 41.1946 44.4364 41.4479 43.758 41.3791C41.6542 41.1539 39.8443 39.7778 38.7814 37.9919C37.4841 35.812 38.4938 33.1942 37.6373 30.9049C37.5529 30.6797 36.9996 29.8446 36.712 29.9322C36.4713 30.0072 36.1806 31.9495 36.0649 32.281C35.4866 33.9793 34.5675 35.5587 33.389 36.9067C32.3637 38.0826 31.082 38.8833 29.9817 39.8653C30.0473 39.6495 30.1161 39.4369 30.1942 39.2242C30.3005 38.9302 30.413 38.6487 30.5256 38.3735C31.0851 37.0161 31.6791 35.8089 31.7979 34.2076C31.9385 32.3154 31.8229 29.5381 31.0226 27.796C30.5756 26.8234 29.7847 26.0602 29.0126 25.319C27.8716 24.2244 25.3739 22.4823 23.6983 23.4362C23.0825 23.7865 23.2576 24.7029 23.4514 25.3847C24.2329 28.1244 24.0047 32.037 22.7824 34.6454C22.3542 35.5587 21.6227 36.3406 20.9162 37.0943C19.994 38.0795 19.0375 39.096 18.6842 40.4596C18.4873 41.2227 18.5279 41.9984 18.5685 42.749L18.7999 47.0588C17.4776 47.0244 16.1584 47.8938 15.1393 48.6789C14.8486 48.9009 14.5641 49.1386 14.2859 49.3669C13.5106 50.0081 12.7792 50.6148 11.9132 50.9964C11.088 51.3592 10.2596 51.4937 9.38429 51.6375C8.73721 51.7439 8.06824 51.8533 7.40239 52.0629C7.31174 52.091 7.23984 52.1661 7.21483 52.2568C7.18982 52.3506 7.21483 52.4476 7.27735 52.5195C7.29611 52.5414 7.31799 52.5633 7.33987 52.5821C6.53961 52.6947 5.53303 52.9011 4.8203 53.2795C4.73277 53.3264 4.67338 53.4171 4.67025 53.5172C4.65149 54.149 5.22356 54.4461 5.64557 54.6619C5.7456 54.7151 5.84251 54.762 5.92378 54.8152C6.14261 54.9559 6.3583 55.1154 6.56775 55.2718C6.971 55.572 7.38676 55.8817 7.87755 56.0849C8.19953 56.2194 8.52776 56.3664 8.85599 56.5134C9.58748 56.8449 10.3346 57.1827 11.1099 57.3923C10.9285 57.458 10.7629 57.5674 10.6941 57.7738C10.641 57.9302 10.6628 58.0835 10.7504 58.2086C10.9348 58.4682 11.3318 58.4963 11.7601 58.5057C11.8038 58.5057 11.8445 58.5088 11.8757 58.5088C13.3168 58.5808 14.4703 58.5839 15.7739 58.3743C16.471 58.2617 17.1743 58.1116 17.8558 57.9677C18.7842 57.7707 19.7408 57.5643 20.6817 57.458C23.6139 57.1233 26.0335 59.0561 28.1717 60.7701C28.75 61.2329 29.3471 61.7115 29.9379 62.1368C32.7576 64.1666 36.1087 66.0525 40.4882 68.0729C48.0782 71.5727 56.134 73.7839 64.4304 74.644C65.9497 74.8004 67.4752 74.938 69.01 75.038C80.4857 75.7887 92.3552 74.5627 103.227 65.427C106.388 62.7717 108.057 59.4565 108.432 55.0747C110.136 52.7541 111.58 50.2395 112.718 47.603C113.412 45.9985 114.034 44.2627 114.619 42.2986C115.469 39.4463 116.119 36.5063 116.554 33.557C117.123 29.7258 117.16 26.8171 116.679 24.1337Z" fill="#FFD200"/>
<path d="M119.223 73.6336C119.286 73.3489 119.208 72.9736 118.986 72.517C118.883 72.295 118.689 71.9978 118.414 71.635C118.135 71.2691 117.804 70.8907 117.426 70.5091C117.048 70.1275 116.632 69.7491 116.191 69.3894C115.753 69.0298 115.306 68.742 114.869 68.5325C114.431 68.3261 114.009 68.2135 113.609 68.201C113.224 68.1885 112.871 68.3292 112.577 68.6201C111.899 69.2894 111.993 70.3433 112.087 71.3629C112.124 71.8039 112.162 72.2199 112.137 72.5952C112.137 72.614 112.127 72.6296 112.115 72.639C112.102 72.6484 112.083 72.6546 112.068 72.6515C112.002 72.6421 111.862 72.5858 111.602 72.4826C111.133 72.2981 110.255 71.954 109.823 71.954C109.717 71.954 109.636 71.9759 109.595 72.0229C109.53 72.101 109.583 72.2856 109.745 72.5358C109.773 72.5796 109.833 72.6546 109.927 72.7547C110.02 72.8579 110.136 72.983 110.274 73.13C110.411 73.277 110.564 73.4459 110.733 73.6336C110.902 73.8212 111.074 74.012 111.246 74.2028C111.599 74.5937 111.933 74.969 112.252 75.3224C112.574 75.6852 112.784 75.9292 112.896 76.0762C113.031 76.2451 113.168 76.4015 113.303 76.5391L113.693 76.9331C113.809 77.0489 113.94 77.1615 114.084 77.2647C114.225 77.3679 114.372 77.4429 114.519 77.4961C114.662 77.5461 114.812 77.5587 114.959 77.5336C115.106 77.5117 115.25 77.4304 115.385 77.2959C115.522 77.1583 115.619 77.0176 115.672 76.88C115.725 76.7392 115.747 76.6047 115.741 76.4765C115.735 76.3483 115.71 76.2263 115.669 76.1106C115.625 75.9917 115.581 75.8823 115.538 75.7885C115.331 75.4507 115.109 75.0754 114.863 74.6438C114.628 74.2403 114.4 73.815 114.181 73.374C113.965 72.9424 113.772 72.5045 113.606 72.0698C113.44 71.635 113.312 71.2159 113.231 70.8219C113.19 70.5998 113.184 70.4184 113.215 70.2777C113.262 70.0775 113.387 70.0275 113.484 70.0212C113.609 70.0118 113.775 70.0806 113.99 70.2339C114.194 70.3778 114.44 70.6217 114.722 70.9626C114.897 71.1753 115.081 71.4067 115.266 71.6569C115.45 71.9009 115.647 72.1573 115.853 72.4201C116.057 72.6765 116.266 72.9299 116.479 73.1675C116.691 73.4084 116.901 73.6242 117.104 73.815C117.41 74.0745 117.723 74.2372 118.035 74.2997C118.345 74.3592 118.611 74.3341 118.823 74.2184C119.023 74.1152 119.161 73.915 119.223 73.6336Z" fill="#00AEEF"/>
<path d="M109.189 73.9748C109.17 73.9717 109.151 73.9717 109.133 73.9717C108.376 73.9717 107.226 75.3353 106.885 75.8451C106.704 76.1172 106.569 76.3674 106.488 76.5926C106.288 77.0961 106.194 77.5997 106.21 78.0844C106.225 78.5723 106.325 79.0258 106.507 79.4387C106.688 79.8515 106.941 80.2143 107.263 80.5208C107.585 80.8273 107.957 81.0556 108.37 81.1964C108.904 81.3684 109.439 81.3872 109.961 81.2527C110.483 81.1182 110.949 80.8774 111.349 80.5333C111.746 80.1893 112.055 79.7702 112.262 79.2792C112.471 78.7913 112.531 78.2752 112.443 77.7435C112.384 77.4089 112.265 77.0993 112.09 76.824C111.605 76.0609 110.739 75.8701 109.902 75.6856C109.726 75.6481 109.551 75.6074 109.379 75.5636L109.32 75.548C109.298 75.5417 109.283 75.5261 109.276 75.5042C109.27 75.4823 109.276 75.4604 109.295 75.4448C109.586 75.1789 109.845 74.7692 109.695 74.4189C109.573 74.1406 109.411 73.9967 109.189 73.9748ZM109.345 76.6301C109.783 76.4518 110.23 76.5269 110.608 76.8334C110.808 76.996 110.955 77.1931 111.052 77.4183C111.149 77.6434 111.186 77.8843 111.161 78.1345C111.136 78.3847 111.039 78.6318 110.877 78.8695C110.667 79.1541 110.395 79.3511 110.064 79.4606C109.914 79.5106 109.764 79.5356 109.614 79.5356C109.436 79.5356 109.261 79.5012 109.089 79.4293C108.773 79.2979 108.557 79.0946 108.454 78.8257C108.354 78.563 108.32 78.2752 108.354 77.9687C108.42 77.3807 108.82 76.8428 109.345 76.6301Z" fill="#00AEEF"/>
<path d="M125.035 67.804C125.025 67.6945 124.96 67.5976 124.841 67.51C123.39 66.431 122.027 65.305 120.79 64.1603C119.552 63.0157 118.373 61.7896 117.285 60.5167C117.07 60.2603 116.826 60.1289 116.56 60.1289C116.291 60.1289 116.06 60.2102 115.869 60.3729C115.679 60.5355 115.56 60.7701 115.51 61.0703C115.46 61.3706 115.544 61.6958 115.76 62.0367C115.86 62.1962 115.988 62.3808 116.144 62.5809C116.297 62.7811 116.476 62.9938 116.669 63.2064C116.866 63.4254 117.066 63.638 117.27 63.8445C117.476 64.0571 117.682 64.251 117.879 64.4231C117.898 64.4387 117.904 64.4637 117.898 64.4856C117.892 64.5075 117.873 64.5263 117.851 64.5294C117.116 64.6608 116.604 64.9047 116.322 65.2519C116.041 65.599 115.91 65.9931 115.929 66.4216C115.947 66.8563 116.091 67.3036 116.354 67.7508C116.616 68.2012 116.941 68.5921 117.32 68.9111C117.47 69.0675 117.679 69.2395 117.942 69.4334C118.201 69.6242 118.498 69.8119 118.823 69.9901C119.145 70.1653 119.486 70.3217 119.839 70.4468C120.189 70.5719 120.533 70.6407 120.868 70.6501C121.196 70.6594 121.505 70.6 121.784 70.4749C122.059 70.3498 122.287 70.1215 122.462 69.79C122.578 69.5773 122.625 69.3427 122.596 69.0894C122.568 68.8298 122.499 68.5671 122.384 68.3106C122.268 68.0479 122.131 67.7915 121.981 67.5538C121.827 67.3067 121.693 67.0909 121.58 66.9064C121.565 66.8813 121.568 66.8532 121.587 66.8313C121.605 66.8125 121.634 66.8063 121.659 66.8188C121.871 66.9283 122.102 67.0534 122.346 67.191C122.603 67.3348 122.859 67.4756 123.118 67.6132C123.378 67.7508 123.622 67.879 123.847 67.9916C124.072 68.1042 124.25 68.1887 124.378 68.2387C124.491 68.295 124.594 68.3013 124.703 68.2637C124.816 68.2231 124.897 68.1636 124.957 68.0823C125.022 68.0104 125.047 67.9166 125.035 67.804ZM120.074 68.0729C120.042 68.1136 120.014 68.148 119.986 68.1793C119.855 68.3169 119.727 68.3732 119.602 68.3732C119.364 68.3732 119.139 68.173 118.917 67.976C118.87 67.9353 118.823 67.8915 118.776 67.8509C118.408 67.5381 118.086 67.1972 117.82 66.8469C117.551 66.4904 117.401 66.1432 117.379 65.818C117.37 65.4239 117.56 65.1799 117.935 65.1174C118.817 64.9673 119.911 66.0838 120.196 66.8813C120.318 67.2191 120.33 67.7352 120.074 68.0729Z" fill="#00AEEF"/>
<path d="M72.0955 85.1809C72.008 85.3623 72.0017 85.5687 71.9986 85.8002C71.9892 87.6329 72.133 89.0779 72.4456 90.3477C72.555 90.7886 72.6801 91.2234 72.8239 91.6425C72.9677 92.0678 73.1365 92.4713 73.3272 92.8497C73.5178 93.2282 73.7398 93.5565 73.9867 93.8255C74.2306 94.0945 74.515 94.3009 74.8308 94.4385C75.1434 94.5761 75.5029 94.623 75.8967 94.5793C76.2281 94.5417 76.5188 94.4229 76.7564 94.2258C76.9971 94.0257 77.2034 93.7849 77.3629 93.5159C77.5223 93.2438 77.6598 92.9529 77.7661 92.6496C77.8724 92.3462 77.9505 92.0616 78.0006 91.8051C78.185 90.9888 78.3194 90.1475 78.4007 89.3093C78.4195 89.1154 78.4413 88.9215 78.4601 88.7276C78.5476 87.8956 78.6383 87.0387 78.5914 86.2005C78.5726 85.8315 78.2663 85.2872 77.9943 85.256C77.813 85.231 77.7036 85.4718 77.6411 85.6719C77.5723 85.8971 77.5442 86.1661 77.5317 86.3506C77.4723 87.2451 77.3816 88.2991 77.1784 89.3187C77.0127 90.1569 76.7658 90.9763 76.4407 91.7582C76.2594 92.1617 76.0812 92.4025 75.8999 92.4963C75.828 92.5338 75.7561 92.5401 75.6842 92.5182C75.5529 92.4775 75.431 92.3399 75.3059 92.0991C75.1746 91.8489 75.0558 91.5612 74.9527 91.2421C74.8495 90.9263 74.7526 90.5916 74.6713 90.2476C74.5901 89.9067 74.5119 89.572 74.4369 89.2468C74.3619 88.9215 74.2837 88.6212 74.2024 88.3523L74.1493 88.1552C73.8773 87.1669 73.5397 85.9378 72.9114 85.1528C72.8239 85.0433 72.702 84.9119 72.5488 84.8869C72.5331 84.8838 72.5144 84.8838 72.4988 84.8838C72.3268 84.8869 72.1674 85.0277 72.0955 85.1809Z" fill="#00AEEF"/>
<path d="M98.4729 75.6731C97.6164 77.2776 100.145 82.2504 100.749 83.195C101.427 84.2521 102.215 85.2154 103.093 86.0567C103.443 86.3569 103.643 86.407 103.743 86.3945C103.828 86.3851 103.94 86.3413 103.934 86.0848C103.934 86.0692 103.94 86.0504 103.953 86.0411C103.965 86.0285 103.978 86.0254 103.997 86.0223C104.369 86.0317 104.7 85.9285 104.972 85.7189C105.247 85.5062 105.475 85.231 105.653 84.9057C105.832 84.5742 105.966 84.2177 106.05 83.8424C106.135 83.4639 106.179 83.1168 106.182 82.8134C106.188 82.4162 106.16 82.0127 106.097 81.6155C106.035 81.2215 105.932 80.8336 105.788 80.4615C105.644 80.0924 105.472 79.739 105.272 79.4137C105.075 79.0916 104.844 78.7945 104.587 78.538C104.3 78.2909 103.997 78.1408 103.69 78.0876C103.274 78.0188 102.912 78.1314 102.612 78.4254C101.724 79.2949 101.602 81.4248 101.733 82.3192C101.736 82.3505 101.721 82.3787 101.693 82.3881C101.665 82.3974 101.633 82.3849 101.618 82.3568C101.005 81.1683 100.655 79.7359 100.552 77.975C100.539 77.778 100.549 77.5528 100.558 77.312C100.583 76.6396 100.608 75.8796 100.217 75.4824C100.03 75.2916 99.7577 75.1978 99.3951 75.1978C99.3794 75.1978 99.3669 75.1978 99.3513 75.1978C98.9293 75.2009 98.6417 75.3573 98.4729 75.6731ZM102.849 80.9275C102.909 80.6397 103.087 79.9579 103.453 79.8735C103.631 79.8328 103.815 79.9329 104.003 80.1769C104.337 80.6053 104.447 81.3559 104.509 81.9658C104.562 82.51 104.578 83.0261 104.553 83.5077C104.528 84.0019 104.397 84.3741 104.184 84.5586C104.093 84.6368 103.987 84.6806 103.878 84.6806C103.865 84.6806 103.85 84.6806 103.837 84.6774C103.496 84.6462 103.193 84.2271 103.068 83.6078L103.031 83.4233C102.868 82.6257 102.684 81.7281 102.849 80.9275Z" fill="#00AEEF"/>
<path d="M85.5373 86.7319C85.2435 86.0407 84.7089 85.1494 83.8274 84.8335C83.6148 84.7553 83.396 84.7178 83.1678 84.7178C82.7895 84.7178 82.3925 84.8241 81.9799 85.0368C81.758 85.1494 81.5548 85.2745 81.3766 85.4058C81.0077 85.6842 80.6857 86.0282 80.4138 86.4223C80.1418 86.8195 79.9261 87.2449 79.7729 87.6858C79.6198 88.13 79.5197 88.5866 79.476 89.0495C79.4322 89.5092 79.4635 89.9533 79.5635 90.3693C79.6385 90.7196 79.7448 91.0667 79.8792 91.4045C80.0136 91.7423 80.1887 92.0551 80.4075 92.3334C80.6263 92.6118 80.8858 92.837 81.1859 93.009C81.4829 93.181 81.8424 93.2623 82.255 93.2529C82.6583 93.2216 83.0021 93.0903 83.2678 92.8557C83.5398 92.618 83.7617 92.3303 83.9305 92.0019C84.0993 91.6798 84.2244 91.3326 84.3025 90.9667C84.3807 90.6007 84.4401 90.2598 84.4839 89.9565C84.487 89.9283 84.5089 89.9095 84.5339 89.9033C84.5589 89.9002 84.587 89.9127 84.5995 89.9377C84.8152 90.3943 85.0497 90.8447 85.2904 91.2763C85.5311 91.7016 85.8343 92.0832 86.1938 92.4085C86.4095 92.5805 86.5689 92.6368 86.6689 92.568C86.7065 92.543 86.769 92.4523 86.7658 92.1489C86.7533 90.3756 86.1375 88.1487 85.5373 86.7319ZM83.5242 90.1347C83.4835 90.2598 83.446 90.3818 83.4116 90.4975C83.3116 90.8478 83.2209 91.0918 83.1334 91.2356C82.9521 91.5359 82.7708 91.6954 82.577 91.7235C82.5488 91.7267 82.5176 91.7298 82.4895 91.7298C82.33 91.7298 82.18 91.6641 82.0424 91.5296C81.8861 91.3795 81.7642 91.1574 81.6736 90.8697C81.5829 90.5851 81.5391 90.2692 81.5423 89.9346C81.5423 89.4623 81.6204 89.0151 81.7736 88.6022C81.9612 88.0956 82.305 87.7421 82.6739 87.6796C82.8802 87.6452 83.1959 87.6858 83.521 88.083C83.5992 88.1769 83.6617 88.2863 83.7055 88.3989C83.9087 88.9337 83.7055 89.5718 83.5242 90.1347Z" fill="#00AEEF"/>
<path d="M62.4017 93.1746C62.5642 92.9401 62.708 92.6899 62.8362 92.4334C62.9643 92.1738 63.08 91.9486 63.18 91.7516C63.1894 91.7297 63.2113 91.7172 63.2363 91.7172C63.2394 91.7172 63.2457 91.7172 63.2488 91.7172C63.2769 91.7234 63.2957 91.7453 63.2988 91.7735C63.3176 91.9987 63.3301 92.2614 63.3426 92.5554C63.3551 92.8494 63.3707 93.1402 63.3864 93.4342C63.4051 93.7282 63.4239 94.0003 63.4457 94.2568C63.4676 94.507 63.4895 94.704 63.5145 94.8385C63.527 94.9636 63.5739 95.0574 63.6646 95.1262C63.7552 95.2013 63.849 95.242 63.9522 95.2482C64.0491 95.2545 64.1428 95.2263 64.2335 95.1606C64.321 95.095 64.3711 94.9918 64.3836 94.8385C64.5805 92.6023 65.0306 90.3192 65.4652 88.1111C65.6809 87.0164 65.9028 85.8843 66.0904 84.7802C66.1716 84.2955 66.2654 83.7481 66.0966 83.254C65.9403 82.7942 65.4527 82.3845 64.9744 82.5096C64.593 82.6066 64.3179 82.9913 64.1335 83.6793C64.0928 83.8357 64.0522 83.9983 64.0178 84.1672C63.8209 85.0742 63.7333 86.0156 63.6458 86.9257C63.6177 87.2135 63.5927 87.4981 63.5614 87.7827C63.5583 87.8171 63.527 87.8421 63.4926 87.839C63.4583 87.8359 63.4332 87.8046 63.4364 87.7702C63.452 87.6169 63.0956 87.1697 62.8924 86.9633C62.6017 86.6662 62.1953 86.4504 61.839 86.4034C61.3951 86.344 60.9918 86.4378 60.6355 86.6787C60.276 86.9226 59.9696 87.2792 59.7258 87.7358C59.4819 88.1955 59.3194 88.6772 59.2444 89.1682C59.1912 89.3809 59.1506 89.6499 59.1256 89.972C59.1006 90.2941 59.0943 90.6476 59.1131 91.0166C59.1318 91.3857 59.1787 91.7578 59.2569 92.1238C59.3319 92.4866 59.4569 92.8181 59.6195 93.1058C59.782 93.3904 59.9946 93.625 60.2478 93.797C60.4979 93.9659 60.8136 94.041 61.1856 94.0191C61.4263 94.0066 61.6514 93.9221 61.8515 93.7689C62.0547 93.6062 62.2391 93.4061 62.4017 93.1746ZM61.1356 91.2543C61.1356 91.2543 61.1325 91.2543 61.1356 91.2543L61.1262 91.2512C60.4072 90.8133 61.1137 88.893 61.2638 88.5114C61.4263 88.0955 61.6452 87.7858 61.9109 87.5982C62.2422 87.3824 62.5486 87.4199 62.7987 87.7076C63.2769 88.255 63.1457 89.9876 62.361 90.9384C62.1203 91.2324 61.8515 91.3794 61.5733 91.3794C61.4295 91.3794 61.2794 91.3387 61.1356 91.2543Z" fill="#00AEEF"/>
<path d="M101.236 87.1512C101.149 86.7415 100.917 86.2005 100.805 85.944C100.783 85.894 100.767 85.8533 100.755 85.8252C100.323 84.7805 99.8201 83.7516 99.2606 82.7664C98.7948 81.947 98.2853 81.3871 97.707 81.0525C97.3475 80.8461 96.8192 80.6553 96.294 80.6553C96.1033 80.6553 95.9126 80.6803 95.7313 80.7397C94.0683 81.2839 93.2836 84.0987 93.4931 85.7219C93.5525 86.1786 93.6775 86.607 93.8682 86.9917C94.0182 87.3139 94.1964 87.6298 94.4027 87.9331C94.6091 88.2334 94.8498 88.4992 95.1217 88.7213C95.3937 88.9433 95.7 89.1091 96.0283 89.2123C96.3534 89.3155 96.7223 89.3155 97.1224 89.2154C97.51 89.0966 97.8132 88.8933 98.0227 88.6056C98.2353 88.3116 98.3916 87.9832 98.4791 87.6266C98.5729 87.2763 98.6198 86.9073 98.6166 86.5351C98.6104 86.1567 98.5979 85.8126 98.5729 85.5093C98.5697 85.4811 98.5854 85.4561 98.6104 85.4467C98.6354 85.4373 98.6635 85.4436 98.6823 85.4655C98.9918 85.8627 99.3169 86.2505 99.6513 86.6196C99.9796 86.9824 100.358 87.2889 100.78 87.5266C100.986 87.6423 101.139 87.6798 101.208 87.6298C101.28 87.5735 101.289 87.4046 101.236 87.1512ZM97.6476 86.2693C97.6288 86.6321 97.5913 86.8885 97.5381 87.0512C97.4287 87.3858 97.2849 87.5797 97.1036 87.6517C97.038 87.6767 96.9692 87.6923 96.8973 87.6923C96.7817 87.6923 96.6597 87.6548 96.5409 87.5797C96.3565 87.4671 96.1877 87.2763 96.0345 87.0168C95.8845 86.7572 95.772 86.46 95.7001 86.1348C95.5656 85.5218 95.3187 84.0331 95.9501 83.4732C96.2752 83.1855 96.566 83.0791 96.8129 83.1542C97.1005 83.2418 97.3193 83.5733 97.4631 84.1394C97.6632 84.9338 97.6632 85.969 97.6476 86.2693Z" fill="#00AEEF"/>
<path d="M91.0735 97.0968C91.0829 97.0968 91.0923 97.0968 91.1017 97.0968C91.5424 97.0905 91.9582 97.0092 92.3396 96.8497C92.9679 96.5714 93.4399 96.1867 93.7432 95.7113C94.0495 95.2327 94.2371 94.6886 94.309 94.0943C94.3777 93.4969 94.359 92.8621 94.2527 92.2084C94.1433 91.5516 93.987 90.8979 93.7869 90.263C93.4305 89.1402 93.0179 87.958 92.5646 86.757L91.5268 84.0173C91.5174 83.9923 91.5237 83.9672 91.5424 83.9485C92.0488 83.4825 92.4177 82.8601 92.5771 82.1876C92.624 81.9875 92.6428 81.6215 92.4083 81.5308C92.2864 81.4839 92.1457 81.5308 91.9988 81.5903L89.226 82.7068C88.1507 83.1384 87.7255 83.7233 87.2723 84.721C87.0691 85.1713 86.9378 85.6467 86.8846 86.1346C86.8315 86.6225 86.844 87.1136 86.919 87.5983C86.9941 88.0831 87.1254 88.5397 87.3035 88.9557C87.4848 89.3748 87.7099 89.7564 87.9756 90.0879C88.2413 90.4194 88.5289 90.6759 88.8353 90.8448C89.2167 91.0699 89.5793 91.1544 89.9169 91.0981C90.2576 91.0418 90.5671 90.9136 90.8359 90.7134C91.1048 90.5132 91.333 90.2724 91.5174 89.9972C91.6987 89.722 91.8113 89.4686 91.8519 89.2434C91.8582 89.2153 91.8832 89.1934 91.9113 89.1934C91.9394 89.1934 91.9644 89.2153 91.9707 89.2434C92.0207 89.4968 92.0801 89.7876 92.1457 90.1129C92.2114 90.4351 92.2739 90.7791 92.3364 91.1356C92.3521 91.2357 92.3739 91.3421 92.399 91.4578C92.5459 92.2053 92.7491 93.228 92.1489 93.7346C91.7519 94.0724 91.1986 94.16 90.7109 94.2038L90.5202 94.2194C90.092 94.2538 89.6512 94.2913 89.2667 94.4727C88.8509 94.6729 88.482 95.1202 88.5821 95.5955C88.7821 96.5682 90.1701 97.0968 91.0735 97.0968ZM90.9829 89.2122C90.7953 89.4749 90.5358 89.6062 90.2264 89.6062C90.0888 89.6062 89.9419 89.5812 89.7856 89.5281C88.9603 89.256 88.9072 88.5335 88.854 87.8392L88.8509 87.8048C88.8134 87.32 88.8634 86.8508 89.001 86.4067C89.1229 86.0033 89.498 85.2151 90.0294 85.1119C90.2889 85.0619 90.539 85.1839 90.7734 85.4778C91.3049 86.1471 91.6206 88.3271 90.9829 89.2122Z" fill="#00AEEF"/>
<path d="M126.691 64.1758C127.198 64.1101 127.798 63.6848 128.026 63.2282C128.211 62.8779 128.292 62.5088 128.27 62.1241C128.248 61.7394 128.154 61.3673 127.995 61.0201C127.836 60.6729 127.629 60.3571 127.382 60.085C127.135 59.8129 126.882 59.6033 126.629 59.4688C126.329 59.3124 126.019 59.2249 125.707 59.2124C125.394 59.1967 125.072 59.2249 124.753 59.2906C124.431 59.3562 124.106 59.4469 123.794 59.5564C123.468 59.669 123.15 59.7753 122.853 59.866C122.49 59.9505 122.168 59.9223 121.887 59.7878C121.608 59.6534 121.38 59.4563 121.208 59.203C121.149 59.1123 121.093 59.0091 121.043 58.8934C120.586 57.8863 120.968 57.6079 121.543 57.1888C121.662 57.1013 121.787 57.0106 121.918 56.9042C122.215 56.6603 122.387 56.3225 122.359 56.0441C122.337 55.8502 122.218 55.6907 122.012 55.5875C121.787 55.4749 121.58 55.4092 121.396 55.3967C121.268 55.3873 121.108 55.3905 120.924 55.4092C120.743 55.428 120.546 55.4874 120.342 55.5906C120.055 55.747 119.802 55.9503 119.595 56.1943C119.386 56.4413 119.22 56.7197 119.101 57.0199C118.983 57.3202 118.904 57.6361 118.87 57.9582C118.836 58.2803 118.842 58.5962 118.892 58.8934C118.951 59.2718 119.061 59.6408 119.223 59.9911C119.383 60.3383 119.583 60.651 119.814 60.9231C120.045 61.1921 120.314 61.4142 120.614 61.5862C120.915 61.7551 121.237 61.8614 121.568 61.8989C122.018 61.949 122.484 61.9083 122.956 61.7707C123.431 61.6331 123.89 61.4611 124.325 61.2641C124.619 61.1296 124.916 61.0232 125.213 60.9482C125.332 60.9169 125.45 60.9013 125.572 60.9013C125.757 60.9013 125.941 60.9388 126.126 61.0107C126.482 61.1546 127.026 61.5612 127.117 62.0209C127.229 62.5808 126.845 62.8935 126.504 63.1687C126.419 63.2375 126.341 63.3001 126.269 63.3658C126.057 63.5628 125.985 63.7661 126.063 63.9319C126.147 64.107 126.407 64.2134 126.691 64.1758Z" fill="#00AEEF"/>
<path d="M20.6693 69.7901C20.8006 69.7526 20.9256 69.7338 21.0569 69.7338C21.5696 69.7401 21.5696 70.1811 21.5696 70.6095C21.5696 71.0349 21.5696 71.4759 21.9635 71.6917C22.2073 71.8262 22.4761 71.8543 22.7387 71.773C23.0701 71.6729 23.3764 71.4071 23.5577 71.0599C23.6828 70.8222 23.7578 70.6002 23.7828 70.4C23.8016 70.2624 23.8047 70.0904 23.7953 69.8902C23.7859 69.6932 23.7359 69.4805 23.6421 69.2584C23.5015 68.9457 23.3108 68.6673 23.0763 68.4359C22.8388 68.2044 22.5699 68.0168 22.2761 67.8823C21.9822 67.7447 21.6696 67.6509 21.3508 67.6039C21.0288 67.557 20.7162 67.557 20.4161 67.6008C20.0347 67.6509 19.6596 67.7603 19.3032 67.923C18.9469 68.0856 18.6249 68.2889 18.3404 68.5297C18.0591 68.7705 17.8215 69.052 17.6339 69.371C17.4464 69.69 17.3245 70.0309 17.2713 70.3906C17.1963 70.8754 17.215 71.3789 17.3276 71.8887C17.4401 72.4016 17.587 72.9021 17.7652 73.3774C17.884 73.6965 17.9747 74.0186 18.0372 74.3376C18.0997 74.6629 18.0622 74.9913 17.9246 75.3103C17.7652 75.6793 17.4933 75.9296 17.1588 76.0109C16.7805 76.1047 16.3523 75.9827 15.9834 75.6793C15.9271 75.6324 15.8709 75.5824 15.8177 75.5292C15.7427 75.4604 15.6739 75.3916 15.5926 75.3353C15.4551 75.2384 15.3394 75.1883 15.2394 75.1883C15.18 75.1883 15.13 75.2071 15.0831 75.2415C14.8205 75.4479 14.8268 76.211 14.9674 76.5613C15.0956 76.8772 15.305 77.1212 15.5958 77.2932C15.9334 77.4996 16.296 77.5997 16.6836 77.5872C17.0681 77.5747 17.4464 77.4871 17.7996 77.3276C18.156 77.1649 18.4811 76.9554 18.7687 76.6989C19.0563 76.4425 19.2751 76.1766 19.4251 75.9077C19.5971 75.5886 19.7002 75.2571 19.7315 74.9225C19.7596 74.5847 19.7502 74.2375 19.7034 73.8966C19.6533 73.5495 19.5814 73.1992 19.4877 72.8551C19.3908 72.5017 19.3032 72.1577 19.2251 71.8324C19.1594 71.4446 19.2032 71.1006 19.3532 70.8035C19.5002 70.5095 19.7096 70.2718 19.9722 70.0966C20.0691 70.0341 20.1754 69.9778 20.291 69.9277C20.413 69.8714 20.538 69.8277 20.6693 69.7901Z" fill="#00AEEF"/>
<path d="M24.9176 81.5307C25.202 81.587 25.8554 80.6863 26.0523 80.336C26.2493 79.9888 26.4837 79.6229 26.7338 79.2382C27.7966 77.5962 29.0002 75.7322 27.9967 74.0214C27.4059 73.0143 26.1742 72.5984 24.7019 72.9143C24.2298 73.0143 23.7828 73.1739 23.3671 73.3865C22.9513 73.6023 22.5637 73.865 22.2136 74.1684C21.8666 74.4718 21.5821 74.8127 21.3664 75.1849C21.182 75.4883 21.0194 75.8135 20.8819 76.1513C20.7443 76.4891 20.6599 76.8362 20.6255 77.1897C20.5912 77.5399 20.6255 77.884 20.7224 78.2155C20.8194 78.5439 21.0225 78.8504 21.3289 79.1288C21.6415 79.3852 21.9822 79.526 22.3386 79.5385C22.6981 79.5541 23.0576 79.4978 23.4077 79.3758C23.7547 79.2601 24.086 79.0944 24.3924 78.8817C24.705 78.6659 24.9832 78.4626 25.2208 78.2749C25.2333 78.2655 25.2458 78.2624 25.2583 78.2624C25.2708 78.2624 25.2833 78.2655 25.2927 78.2749C25.3146 78.2906 25.324 78.3187 25.3146 78.3437C25.1583 78.8223 25.0145 79.307 24.8926 79.7887C24.7738 80.2641 24.73 80.7488 24.7644 81.2305C24.7769 81.3587 24.8175 81.512 24.9176 81.5307ZM25.1802 76.3546C25.177 76.4078 25.1708 76.4609 25.1614 76.5141C25.0145 77.3367 24.1111 78.0685 23.3577 78.2749C23.2045 78.3156 23.0701 78.3375 22.9576 78.3375C22.82 78.3375 22.7075 78.3062 22.6199 78.2436C22.4605 78.1311 22.3761 77.9622 22.3667 77.737C22.3574 77.5212 22.4199 77.2741 22.5543 77.002C22.6856 76.733 22.87 76.4766 23.1014 76.2326C23.5109 75.8041 24.3424 75.2036 24.8332 75.4163C25.0926 75.532 25.2083 75.8479 25.1802 76.3546Z" fill="#00AEEF"/>
<path d="M36.2055 83.1417C36.2712 82.9603 36.3806 82.7382 36.4963 82.5005C36.837 81.8062 37.259 80.9399 36.9871 80.4332C36.8526 80.1799 36.6557 80.0141 36.3869 79.9265C36.2399 79.8702 36.093 79.8452 35.9523 79.8452C35.8429 79.8452 35.7335 79.8608 35.6304 79.8953C35.3897 79.9734 35.199 80.1017 35.0645 80.2768C34.8676 80.5083 34.6457 80.846 34.4081 81.2808C34.1674 81.7218 33.9329 82.1878 33.711 82.6632C33.6391 82.8195 33.5547 82.9884 33.4671 83.1604C33.1639 83.7672 32.8169 84.4584 32.7607 85.0776L32.7575 85.1183C32.7357 85.4092 32.8201 85.7939 33.117 85.9971C33.539 86.2849 34.1361 86.0378 34.5175 85.7344C35.4334 85.0182 35.9211 83.9111 36.2055 83.1417Z" fill="#00AEEF"/>
<path d="M36.465 78.0654C36.4213 78.3687 36.4807 78.6689 36.6369 78.9566C36.687 79.0473 36.7807 79.1224 36.9089 79.1849C37.037 79.2443 37.1402 79.2662 37.2152 79.2506C37.509 79.1974 37.7716 79.0755 37.9966 78.8847C38.2185 78.6971 38.3311 78.4938 38.3373 78.2655C38.3342 78.1435 38.2998 78.0247 38.231 77.9121C38.1623 77.7996 38.0372 77.687 37.8591 77.5806C37.4434 77.3742 37.1058 77.3305 36.862 77.4556C36.6369 77.565 36.5057 77.7652 36.465 78.0654Z" fill="#00AEEF"/>
<path d="M48.9911 91.4111C49.0661 91.508 49.1568 91.5768 49.2568 91.6238C49.51 91.7395 49.8539 91.6863 50.129 91.4893C50.3728 91.3173 50.5478 91.0702 50.7385 90.7512C51.6357 89.2499 52.1734 87.5829 52.2109 86.1786C52.2171 85.9097 52.1234 85.6814 51.917 85.4843C51.7139 85.2873 51.47 85.1872 51.1918 85.1872C51.1668 85.1872 51.1449 85.1841 51.123 85.1841C50.8729 85.1841 50.651 85.2529 50.4634 85.3842C50.2571 85.5312 50.1165 85.7126 50.0414 85.9222C49.4412 87.3577 48.9348 88.6651 48.7785 90.1819C48.7535 90.4384 48.7285 90.7355 48.7973 91.0076C48.8348 91.1578 48.9004 91.2985 48.9911 91.4111Z" fill="#00AEEF"/>
<path d="M52.8077 83.9578C52.9827 83.7295 53.0515 83.5013 53.014 83.2792C52.9858 83.1604 52.9264 83.0509 52.8358 82.954C52.7451 82.8571 52.5982 82.7757 52.4044 82.7069C51.9543 82.5912 51.6168 82.6163 51.4042 82.7914C51.2042 82.9477 51.1198 83.1698 51.1417 83.4731C51.1636 83.7796 51.2823 84.061 51.4949 84.3081C51.5636 84.3863 51.6699 84.4425 51.8074 84.4738C51.945 84.5051 52.0512 84.5051 52.12 84.4738C52.3982 84.3644 52.6295 84.1892 52.8077 83.9578Z" fill="#00AEEF"/>
<path d="M32.1292 78L32.9201 78.4316C33.189 78.5786 33.4547 78.7193 33.7141 78.8569C33.9642 78.9883 34.1987 79.1071 34.4144 79.2103C34.5519 79.2729 34.677 79.2917 34.7801 79.2666C34.8833 79.2416 34.952 79.1947 34.9896 79.1259C35.0271 79.0602 35.0208 78.9789 34.977 78.8788C34.9302 78.7756 34.827 78.6787 34.6707 78.5942C34.48 78.491 34.2643 78.3753 34.0174 78.247C33.7829 78.1251 33.5453 78 33.2952 77.8717L32.495 77.4558C32.2543 77.3307 32.0355 77.2087 31.8448 77.093C31.8291 77.0836 31.8198 77.0711 31.8166 77.0523C31.8135 77.0367 31.8166 77.0179 31.826 77.0054C32.0042 76.7521 32.2105 76.4706 32.4356 76.1703C32.6607 75.8732 32.8764 75.5824 33.0858 75.3009C33.2921 75.0225 33.4703 74.7504 33.6204 74.4908C33.7673 74.2344 33.8579 74.0092 33.8954 73.8215C33.9298 73.6057 33.8861 73.4681 33.761 73.4056C33.6329 73.3399 33.4891 73.3712 33.3203 73.4963C33.1671 73.6026 32.9545 73.7871 32.6825 74.0498C32.4075 74.3157 32.123 74.594 31.8291 74.8849C31.5415 75.1695 31.2665 75.451 31.0101 75.7262C30.7569 76.0014 30.5881 76.1954 30.4943 76.3173C30.4756 76.3424 30.4412 76.3486 30.4162 76.333C30.3443 76.2923 30.2474 76.2423 30.1286 76.186C30.0067 76.1265 29.8598 76.0358 29.6878 75.917C29.6097 75.8576 29.5409 75.8294 29.4721 75.8294C29.4502 75.8294 29.4284 75.8326 29.4065 75.8388C29.3158 75.867 29.2533 75.9139 29.2127 75.9889C29.172 76.064 29.1689 76.1422 29.2002 76.236C29.2314 76.3267 29.3221 76.4018 29.4721 76.4612L30.0004 76.7489C30.0161 76.7583 30.0286 76.774 30.0317 76.7896C30.0348 76.8084 30.0317 76.8271 30.0192 76.8396C29.4252 77.5809 28.8469 78.3377 28.3061 79.0977C27.7653 79.8515 27.262 80.6553 26.8088 81.4872C26.443 82.2316 26.1898 83.0041 26.0585 83.7797C25.9272 84.5522 26.0116 85.3247 26.3148 86.0785C26.4461 86.4256 26.6493 86.7384 26.9119 87.0136C27.1745 87.2889 27.4777 87.5234 27.806 87.708C28.1342 87.8925 28.4812 88.0301 28.8407 88.1114C29.1939 88.1927 29.544 88.2115 29.8785 88.1646C30.2099 88.1177 30.5162 88.0019 30.7851 87.8205C31.0539 87.6423 31.2696 87.3764 31.4321 87.0324C31.504 86.876 31.5447 86.7165 31.5572 86.5508C31.5666 86.3912 31.5384 86.2443 31.4728 86.1129C31.404 85.9815 31.304 85.8752 31.1602 85.7907C31.0226 85.7094 30.8288 85.675 30.5881 85.6875C29.8879 85.7313 29.3346 85.6719 28.947 85.5186C28.5499 85.3623 28.2717 85.1308 28.1123 84.8337C27.956 84.5366 27.9029 84.1801 27.9529 83.7766C28.0029 83.3794 28.1217 82.9509 28.303 82.5037C28.4843 82.0596 28.7125 81.5935 28.9845 81.1244C29.2533 80.6553 29.5378 80.1987 29.8254 79.7702C30.1067 79.3511 30.3943 78.9445 30.6756 78.5661C30.9507 78.2001 31.1821 77.8811 31.3634 77.6247C31.3821 77.5965 31.4165 77.5903 31.4446 77.609C31.6416 77.7247 31.8635 77.853 32.1292 78Z" fill="#00AEEF"/>
<path d="M53.4768 91.6047C53.73 91.9019 54.0395 92.1458 54.4021 92.3303C54.7616 92.5117 55.1618 92.6024 55.6088 92.5868C56.0621 92.5774 56.4778 92.4742 56.8436 92.2834C57.2093 92.0926 57.525 91.8362 57.7814 91.5265C57.8689 91.4046 57.9439 91.2576 57.9939 91.0918C58.044 90.9292 58.0596 90.7728 58.0408 90.6258C58.0221 90.4819 57.9627 90.3693 57.8626 90.2786C57.7626 90.1911 57.6001 90.1473 57.3906 90.1535C57.2437 90.1598 57.0686 90.2223 56.8748 90.3412C56.6497 90.4788 56.4122 90.5601 56.1683 90.582C55.9245 90.6039 55.6994 90.5726 55.5025 90.4851C55.3056 90.3975 55.1461 90.2568 55.0305 90.0691C54.9148 89.8783 54.871 89.6406 54.9086 89.3623C54.9117 89.3435 54.9211 89.3279 54.9367 89.3185C54.9523 89.3091 54.9711 89.306 54.9898 89.3122C55.0617 89.3372 55.1399 89.3591 55.2274 89.3779C55.3181 89.3998 55.4212 89.4092 55.5369 89.4061C55.8589 89.4279 56.184 89.3998 56.5091 89.3216C56.8311 89.2434 57.128 89.1214 57.3875 88.9557C57.647 88.793 57.8626 88.5866 58.0377 88.3458C58.2065 88.1081 58.3065 87.8423 58.3316 87.5514C58.3597 87.173 58.2847 86.8227 58.1033 86.5068C57.9408 86.2284 57.7188 86.0158 57.4438 85.8782C57.1655 85.7374 56.8717 85.6498 56.5685 85.6186C56.5028 85.6154 56.4372 85.6123 56.3715 85.6123C55.9245 85.6123 55.4837 85.7124 55.0649 85.9125C54.5834 86.1409 54.1677 86.4442 53.8301 86.807C53.505 87.173 53.2549 87.5921 53.0861 88.0456C52.9173 88.5053 52.8047 88.9651 52.7516 89.4154C52.7328 89.797 52.786 90.1879 52.911 90.5758C53.0329 90.9605 53.2236 91.3076 53.4768 91.6047ZM55.8839 87.1042C56.0839 86.9009 56.3278 86.7883 56.5653 86.7851C56.8467 86.7789 57.1093 86.9447 57.1999 87.1855C57.3093 87.4826 57.0468 87.8297 56.7873 88.0393C56.5716 88.2113 56.2965 88.3458 56.0621 88.3458C55.9683 88.3458 55.8839 88.3239 55.8088 88.277C55.6182 88.1519 55.5244 87.9736 55.5431 87.7578C55.5619 87.5451 55.6869 87.3012 55.8839 87.1042Z" fill="#00AEEF"/>
<path d="M48.4565 88.2241C48.4846 88.1303 48.4815 88.0396 48.4471 87.9489C48.4127 87.8613 48.3408 87.8019 48.2252 87.7675C47.8751 87.6611 47.5187 87.5548 47.1561 87.4485C46.7966 87.3453 46.4277 87.2452 46.062 87.1576C46.0463 87.1545 46.0307 87.142 46.0245 87.1295C46.0151 87.1138 46.0151 87.0982 46.0182 87.0794C46.1307 86.7166 46.2589 86.3163 46.4027 85.8878C46.5496 85.4531 46.7122 85.0121 46.8841 84.5774C47.056 84.1426 47.2499 83.711 47.4562 83.2919C47.6656 82.8728 47.8938 82.4944 48.1408 82.166C48.319 81.9346 48.4878 81.7532 48.6503 81.6249C48.8191 81.4904 48.9629 81.4279 49.0817 81.4373C49.2099 81.4467 49.3099 81.5467 49.3724 81.7375C49.4287 81.9095 49.4475 82.1691 49.4225 82.5132C49.4099 82.6789 49.3912 82.8634 49.3631 83.0699C49.3349 83.27 49.2943 83.4952 49.2474 83.7392C49.1974 83.98 49.2036 84.1614 49.263 84.2771C49.3193 84.3897 49.3912 84.4522 49.485 84.4648C49.5819 84.4773 49.6913 84.446 49.8101 84.3678C49.932 84.2865 50.0258 84.1645 50.0852 84.0019C50.1821 83.7267 50.2696 83.4327 50.3415 83.1293C50.4134 82.8259 50.4603 82.5257 50.4759 82.2442C50.4915 81.9596 50.4759 81.6875 50.4322 81.4341C50.3884 81.1839 50.3009 80.9619 50.1696 80.768C50.0289 80.5741 49.8476 80.4239 49.635 80.3207C49.4193 80.2206 49.1817 80.1675 48.9285 80.1675H48.9254C48.6691 80.1675 48.4065 80.2144 48.1439 80.3051C47.8782 80.3958 47.6187 80.5271 47.3749 80.6929C46.9123 81.0213 46.4809 81.4279 46.0964 81.897C45.7087 82.3693 45.3586 82.876 45.0554 83.4014C44.749 83.9268 44.4802 84.4741 44.252 85.0246C44.0238 85.5719 43.8362 86.0942 43.6862 86.579C43.6768 86.6103 43.6456 86.629 43.6143 86.6197L43.1704 86.5196C43.0266 86.4883 42.8859 86.457 42.7546 86.4289C42.6796 86.4383 42.6202 86.4758 42.5671 86.5415C42.5077 86.6165 42.4733 86.6978 42.4639 86.7885C42.4545 86.8792 42.4639 86.9606 42.4952 87.0356C42.5202 87.1013 42.5702 87.1357 42.6484 87.1513C42.7546 87.1732 42.8609 87.1951 42.9641 87.217L43.0141 87.2264C43.1298 87.2483 43.2454 87.2671 43.358 87.2764C43.3767 87.2796 43.3923 87.2858 43.4017 87.3015C43.4111 87.3171 43.4142 87.3327 43.4111 87.3515C43.333 87.6893 43.2486 88.049 43.1548 88.418C43.0641 88.7808 42.9891 89.1405 42.936 89.4876C42.8828 89.8348 42.8484 90.1757 42.8422 90.501C42.8328 90.82 42.8734 91.1108 42.9641 91.3642C43.061 91.6676 43.2048 91.8959 43.3892 92.046C43.5705 92.193 43.7581 92.268 43.9519 92.2555C44.1426 92.2462 44.3302 92.1555 44.5052 91.9834C44.6834 91.8083 44.8303 91.5456 44.9366 91.1984C44.9772 91.0201 45.0335 90.795 45.1023 90.5322C45.1679 90.2695 45.243 89.9912 45.318 89.6941C45.3961 89.3969 45.4743 89.0967 45.5556 88.7902C45.6368 88.4837 45.7119 88.1866 45.7869 87.902C45.79 87.8863 45.8025 87.8738 45.815 87.8644C45.8306 87.855 45.8463 87.855 45.8619 87.8582C46.2152 87.9551 46.5715 88.0552 46.9279 88.1584C47.2842 88.2616 47.6406 88.368 47.9907 88.4743C48.1064 88.5087 48.2033 88.5024 48.2846 88.4493C48.3721 88.3867 48.4284 88.3148 48.4565 88.2241Z" fill="#00AEEF"/>
<path d="M41.3073 81.7623C41.6574 81.8623 41.7418 82.2033 41.8262 82.5348C41.8794 82.7506 41.9294 82.9539 42.0482 83.0821C42.2639 83.3198 42.4796 83.4105 42.6859 83.3542C43.036 83.2572 43.3142 82.7474 43.4111 82.2939C43.4611 82.0625 43.4705 81.8592 43.4424 81.6841C43.4236 81.5652 43.3861 81.4182 43.333 81.2525C43.2798 81.0898 43.1829 80.9209 43.0548 80.7583C42.8609 80.5269 42.6327 80.3392 42.3795 80.2016C42.1263 80.064 41.8544 79.9702 41.573 79.9264C41.2917 79.8795 41.0072 79.8763 40.7259 79.9139C40.4445 79.9514 40.1788 80.0265 39.935 80.1359C39.6255 80.2704 39.3348 80.4518 39.0722 80.6739C38.8096 80.8959 38.5877 81.1461 38.4064 81.4151C38.2282 81.6841 38.0938 81.9781 38.0125 82.2939C37.7405 83.3354 38.1875 84.28 38.6189 85.1901C38.7346 85.434 38.8534 85.6874 38.9597 85.9407C39.166 86.4349 39.3223 86.954 39.0691 87.3794C38.9222 87.6296 38.6346 87.8047 38.3032 87.8517C38.0437 87.8892 37.753 87.8516 37.4154 87.7391L37.3716 87.7234C37.2091 87.6703 37.0309 87.6108 36.8715 87.6108C36.7777 87.6108 36.6902 87.6296 36.6152 87.6828C36.5307 87.7422 36.4807 87.8298 36.462 87.9423C36.4307 88.1363 36.5057 88.3865 36.6495 88.5835C36.9528 88.9901 37.5561 89.3404 38.1844 89.4749C38.5564 89.5531 38.9003 89.5499 39.1754 89.4624C39.4973 89.3591 39.7943 89.1965 40.0538 88.9745C40.3164 88.7524 40.5383 88.4959 40.7196 88.2113C40.9009 87.9267 41.0228 87.6484 41.0822 87.3856C41.151 87.076 41.1573 86.7695 41.1041 86.4818C41.0479 86.1878 40.9572 85.9 40.8353 85.6217C40.7102 85.3402 40.5633 85.0619 40.4039 84.796C40.232 84.5083 40.0788 84.2487 39.9381 83.9953C39.7881 83.6795 39.7443 83.3761 39.7974 83.0884C39.8537 82.8037 39.9725 82.5504 40.1507 82.3377C40.2163 82.2627 40.2945 82.1907 40.3789 82.1157C40.4664 82.0437 40.5602 81.9749 40.6633 81.9093C40.7634 81.8467 40.8728 81.7998 40.9791 81.7685C41.0979 81.7341 41.2073 81.7341 41.3073 81.7623Z" fill="#00AEEF"/>
<path d="M10.8628 70.1555C11.2723 70.512 11.8443 70.709 12.3694 70.5714C12.5976 70.512 12.8039 70.3931 13.0008 70.2649C13.4259 69.9897 13.8541 69.6082 13.8948 69.1016C13.926 68.7044 13.7103 68.3354 13.5009 67.9977C13.2165 67.5349 12.8695 67.0282 12.3319 66.9282C11.8662 66.8406 11.413 67.097 11.0066 67.3441C10.7097 67.5255 10.4065 67.71 10.194 67.9852C9.64383 68.7044 10.2846 69.652 10.8628 70.1555Z" fill="#00AEEF"/>
<path d="M126.535 39.1145C126.945 39.471 127.517 39.668 128.042 39.5304C128.27 39.471 128.476 39.3521 128.673 39.2239C129.098 38.9487 129.526 38.5672 129.567 38.0606C129.598 37.6634 129.383 37.2944 129.173 36.9567C128.889 36.4938 128.542 35.9872 128.004 35.8872C127.538 35.7996 127.085 36.056 126.679 36.3031C126.382 36.4845 126.079 36.669 125.866 36.9442C125.316 37.6634 125.957 38.6141 126.535 39.1145Z" fill="#00AEEF"/>
<path d="M126.979 54.6052C127.388 54.9617 127.96 55.1587 128.486 55.0211C128.714 54.9617 128.92 54.8428 129.117 54.7146C129.542 54.4394 129.97 54.0579 130.011 53.5513C130.042 53.1541 129.826 52.7851 129.617 52.4474C129.333 51.9846 128.986 51.478 128.448 51.3779C127.982 51.2903 127.529 51.5467 127.123 51.7938C126.826 51.9752 126.523 52.1597 126.31 52.4349C125.76 53.1541 126.401 54.1017 126.979 54.6052Z" fill="#00AEEF"/>
<path d="M8.5589 39.4553C8.96836 39.8118 9.54036 40.0088 10.0655 39.8712C10.2937 39.8118 10.4999 39.6929 10.6969 39.5647C11.122 39.2895 11.5502 38.908 11.5908 38.4014C11.6221 38.0042 11.4064 37.6352 11.197 37.2975C10.9125 36.8347 10.5656 36.328 10.028 36.228C9.56224 36.1404 9.10902 36.3968 8.70268 36.6439C8.40574 36.8253 8.10255 37.0098 7.89 37.285C7.33676 38.0042 7.98065 38.9518 8.5589 39.4553Z" fill="#00AEEF"/>
<path d="M41.3322 22.4069C41.7417 22.7634 42.3137 22.9605 42.8388 22.8229C43.067 22.7634 43.2733 22.6446 43.4702 22.5164C43.8953 22.2412 44.3235 21.8597 44.3641 21.3531C44.3954 20.9559 44.1797 20.5869 43.9703 20.2491C43.6858 19.7863 43.3389 19.2797 42.8013 19.1796C42.3356 19.0921 41.8823 19.3485 41.476 19.5956C41.179 19.7769 40.8759 19.9614 40.6633 20.2366C40.1132 20.9559 40.754 21.9035 41.3322 22.4069Z" fill="#00AEEF"/>
<path d="M51.4136 25.8568C51.7136 25.8943 52.0106 25.7974 52.295 25.6973C52.7357 25.5472 53.3484 25.3533 53.2859 24.7779C53.2233 24.1994 52.5357 24.1525 52.0762 24.0118C51.6699 23.8867 51.1885 23.7741 50.8509 24.0305C50.2133 24.5152 50.6697 25.7599 51.4136 25.8568Z" fill="#00AEEF"/>
<path d="M0.865836 61.7362C1.1659 61.7737 1.46284 61.6768 1.74728 61.5767C2.188 61.4266 2.80063 61.2327 2.73812 60.6573C2.6756 60.0788 1.98795 60.0319 1.52848 59.8911C1.12214 59.7661 0.640787 59.6535 0.303214 59.9099C-0.334425 60.3946 0.121924 61.6393 0.865836 61.7362Z" fill="#00AEEF"/>
<path d="M96.2284 18.9386C96.1002 19.2107 96.1033 19.5265 96.1127 19.8267C96.1221 20.2927 96.119 20.9338 96.6878 21.0495C97.2567 21.1652 97.513 20.5241 97.785 20.1301C98.0288 19.7798 98.2819 19.3576 98.1382 18.9542C97.8694 18.2006 96.5441 18.26 96.2284 18.9386Z" fill="#00AEEF"/>
<path d="M11.1599 29.882C11.1224 30.1822 11.2255 30.4793 11.3255 30.7607C11.4818 31.1986 11.6756 31.8115 12.2538 31.7427C12.8321 31.677 12.8727 30.9859 13.0103 30.5262C13.1322 30.1165 13.2416 29.6349 12.979 29.3003C12.4883 28.6686 11.2505 29.1377 11.1599 29.882Z" fill="#00AEEF"/>
<path d="M120.468 43.0461C120.471 43.3463 120.608 43.6277 120.746 43.8967C120.955 44.3126 121.227 44.8911 121.793 44.7535C122.355 44.6128 122.309 43.9248 122.387 43.4495C122.455 43.0304 122.502 42.5363 122.199 42.2361C121.63 41.6732 120.461 42.2955 120.468 43.0461Z" fill="#00AEEF"/>
<path d="M77.244 11.8047C77.2472 12.1049 77.3847 12.3864 77.5222 12.6553C77.7316 13.0713 78.0036 13.6498 78.5693 13.5122C79.1319 13.3715 79.0851 12.6835 79.1632 12.2081C79.232 11.7891 79.2788 11.295 78.9757 10.9948C78.4068 10.4287 77.2378 11.0542 77.244 11.8047Z" fill="#00AEEF"/>
<path d="M111.358 13.1807C111.318 13.1369 111.28 13.0931 111.24 13.0493C111.271 13.1087 111.311 13.1525 111.358 13.1807Z" fill="#FFD200"/>
<path d="M48.3721 51.3719C49.7226 50.8746 51.1855 50.7151 52.6266 50.8714C52.9861 50.9152 53.3456 50.9747 53.702 51.0654C54.0583 51.1623 54.3991 51.2593 54.7617 51.4344C54.943 51.522 55.1306 51.644 55.2869 51.8035C55.4432 51.963 55.562 52.1412 55.6557 52.307C55.8464 52.6417 55.9746 52.9732 56.134 53.2171C56.2122 53.3422 56.2966 53.4423 56.3747 53.4955C56.4529 53.5518 56.5092 53.558 56.6029 53.5549C56.6936 53.5486 56.8155 53.5111 56.9405 53.4548C56.9562 53.4423 56.9468 53.4454 56.9468 53.4454C56.9468 53.4454 56.953 53.4235 56.9593 53.3829C56.9687 53.2984 56.953 53.1577 56.9187 53.017C56.8874 52.8731 56.8405 52.7198 56.7874 52.5666C56.678 52.257 56.5467 51.9442 56.4091 51.6283C56.1309 50.9965 55.8308 50.3585 55.5588 49.6955C55.2931 49.0293 55.0305 48.3444 54.9243 47.5593C54.8774 47.1684 54.868 46.7305 55.0274 46.277C55.1056 46.0519 55.2369 45.8298 55.4057 45.6453C55.5745 45.4607 55.7777 45.3169 55.984 45.2137C56.3997 45.0072 56.8124 44.9447 57.2063 44.9103C57.5595 44.8853 57.9127 44.8602 58.2753 44.8477C59.7571 44.7914 61.2451 45.1105 62.5924 45.5858C63.9522 46.0612 65.2214 46.6555 66.503 47.134C67.1439 47.3686 67.7816 47.5844 68.4318 47.7439C69.0539 47.9128 69.7854 47.9534 70.5544 48.2881C70.8388 48.41 70.967 48.7416 70.8451 49.023C70.7232 49.3045 70.4012 49.4359 70.1198 49.317L70.1136 49.3139C69.5853 49.095 68.8976 49.0512 68.1661 48.8761C67.4533 48.7103 66.7594 48.4976 66.0873 48.2505C64.7493 47.7533 63.4771 47.1653 62.1954 46.718C60.9168 46.2489 59.6258 45.9612 58.3035 45.9893C57.969 45.9956 57.6251 46.0143 57.2813 46.0362C56.9812 46.055 56.6905 46.1082 56.4748 46.2145C56.2591 46.3177 56.1278 46.4491 56.0465 46.6523C55.9652 46.8588 55.9465 47.1403 55.9777 47.4405C56.0402 48.0441 56.2528 48.6915 56.4935 49.3264C56.7342 49.9644 57.0156 50.5993 57.2813 51.2561C57.4157 51.5845 57.547 51.9192 57.6595 52.2726C57.7158 52.4509 57.7689 52.6323 57.8064 52.8324C57.844 53.0295 57.8752 53.2421 57.8377 53.508C57.8158 53.6393 57.7783 53.7895 57.6783 53.9333C57.5845 54.0772 57.4313 54.1929 57.2907 54.2555C57.0968 54.3368 56.878 54.4056 56.6186 54.4119C56.3622 54.4212 56.0653 54.3274 55.8683 54.1616C55.6651 54.0021 55.5401 53.8145 55.4369 53.6425C55.2337 53.2891 55.1212 52.9575 54.9743 52.6792C54.8273 52.3946 54.6867 52.2257 54.421 52.0849C54.1584 51.9442 53.827 51.8316 53.5144 51.7347C53.1956 51.6408 52.8673 51.5689 52.536 51.5126C51.2074 51.2999 49.807 51.3781 48.5097 51.7816H48.5065C48.394 51.816 48.2721 51.7534 48.2377 51.6408C48.2064 51.5282 48.2658 51.4125 48.3721 51.3719Z" fill="black"/>
<path d="M70.4293 52.7321C69.8853 52.9198 69.3633 52.9104 68.8475 52.901L68.0973 52.8698C67.8409 52.8635 67.5877 52.851 67.3314 52.8322C66.3092 52.7572 65.2838 52.5726 64.2929 52.2474L64.7681 51.6281C65.6558 52.8291 66.4467 54.0926 67.2126 55.3593C67.594 56.0036 67.9753 56.6041 68.3411 57.3015C68.6912 57.9896 68.9944 58.7089 69.1914 59.4627C69.3914 60.2133 69.5321 60.9827 69.5821 61.7552C69.6353 62.5277 69.604 63.3002 69.529 64.0633C69.4415 64.8233 69.3102 65.574 69.1351 66.3121C68.9538 67.0471 68.7443 67.7695 68.5068 68.4795C68.4099 68.7735 68.091 68.9298 67.7972 68.8329C67.5127 68.7359 67.3564 68.4326 67.4377 68.1448C67.8409 66.7499 68.1817 65.3456 68.338 63.9351C68.4067 63.2283 68.4255 62.5246 68.3974 61.824C68.3661 61.1234 68.2536 60.4322 68.0848 59.7567C67.9222 59.0749 67.6534 58.4275 67.3658 57.7863C67.0688 57.1639 66.6874 56.5009 66.3404 55.8628C65.6277 54.5774 64.89 53.317 64.096 52.091L64.0835 52.0691C63.9615 51.8814 64.0147 51.6312 64.2022 51.5093C64.3148 51.4373 64.4523 51.4279 64.5711 51.4717C65.4714 51.8252 66.428 52.041 67.4033 52.1786C67.6471 52.213 67.8909 52.2442 68.1379 52.2661L68.8881 52.3506C69.3696 52.3944 69.8728 52.4288 70.2949 52.3193L70.3105 52.3162C70.4261 52.2849 70.5418 52.3537 70.5699 52.4694C70.595 52.5852 70.5356 52.6946 70.4293 52.7321Z" fill="black"/>
<path d="M57.7689 41.2759C58.366 41.9733 59.1694 42.4393 59.979 42.8522C61.1607 43.4558 62.5173 44.0438 63.7709 44.3972" stroke="black" stroke-width="3.5797" stroke-miterlimit="10" stroke-linecap="round" stroke-linejoin="round"/>
<path d="M55.3056 46.3079C55.0899 46.2391 54.893 46.1484 54.6773 46.0827C53.9989 45.8732 52.3828 45.1507 51.6982 44.4408C50.973 43.6839 51.0542 42.6987 51.2074 41.6572" stroke="black" stroke-width="3.5797" stroke-miterlimit="10" stroke-linecap="round" stroke-linejoin="round"/>
<path d="M88.2664 53.8705C88.5759 53.2012 88.3258 52.2723 87.9226 51.4123C87.5224 50.5365 86.9847 49.6858 86.5315 48.7476C85.5061 46.8022 85.8531 44.3377 87.1598 42.6738C87.7975 41.8294 88.6415 41.1726 89.5543 40.6815C90.4765 40.1936 91.4925 39.9372 92.4834 39.7589C93.4837 39.5806 94.4903 39.468 95.5063 39.4555C95.7595 39.4555 96.0158 39.4587 96.269 39.4774C96.5191 39.4962 96.7629 39.5118 96.9911 39.4618C97.2162 39.4149 97.4319 39.2929 97.6195 39.1428C97.8039 38.9958 97.9665 38.8019 98.0134 38.5798V38.5767C98.0196 38.5392 98.0571 38.5173 98.0915 38.5235C98.1259 38.5298 98.1509 38.5642 98.1446 38.6017C98.0978 38.8801 97.9196 39.099 97.7258 39.271C97.5288 39.4399 97.3006 39.5838 97.0349 39.6526C96.7723 39.7214 96.5066 39.7089 96.2565 39.7026C96.0096 39.6932 95.7595 39.6995 95.5125 39.712C94.5185 39.7652 93.5275 39.9153 92.5584 40.1311C91.5831 40.35 90.6391 40.6315 89.7982 41.1225C88.9635 41.6167 88.2101 42.2547 87.6662 43.0429C87.1254 43.8248 86.7691 44.7318 86.719 45.67C86.7128 45.7857 86.7034 45.9046 86.7003 46.0203L86.719 46.3706C86.719 46.6052 86.7784 46.8335 86.8097 47.0649C86.8941 47.5028 87.0879 47.925 87.3098 48.3535C87.7631 49.2104 88.3383 50.0424 88.8166 50.9744C89.0573 51.4373 89.2699 51.9439 89.398 52.5006C89.5231 53.0542 89.5356 53.7048 89.2949 54.3053L89.2918 54.3115C89.1761 54.5993 88.851 54.7369 88.5634 54.6211C88.2758 54.5054 88.1382 54.1802 88.2539 53.8924C88.257 53.8862 88.2633 53.8768 88.2664 53.8705Z" fill="black"/>
<path d="M22.5917 38.2138C22.6918 38.0136 22.8168 37.8416 22.9449 37.6728C23.0106 37.5915 23.0762 37.507 23.1481 37.4288C23.2138 37.3538 23.3044 37.2475 23.4763 37.1536C23.5638 37.1067 23.6826 37.0629 23.8201 37.0661C23.9545 37.0661 24.0952 37.1161 24.2015 37.1943C24.4109 37.36 24.4671 37.5445 24.5078 37.6915C24.5453 37.8354 24.5484 38.0011 24.5453 38.1043C24.5453 38.2232 24.5328 38.3389 24.5172 38.4546C24.4609 38.9174 24.3077 39.3646 24.0858 39.7649C23.8608 40.1652 23.5545 40.5154 23.195 40.7812C23.1137 40.8438 22.995 40.825 22.9356 40.7437C22.8856 40.6749 22.8887 40.5842 22.9387 40.5185L22.9418 40.5154C23.1856 40.1964 23.3732 39.8493 23.5107 39.4928C23.6451 39.1332 23.7264 38.7579 23.7482 38.3826C23.7514 38.2013 23.7607 37.9824 23.7295 37.8917C23.717 37.8354 23.6826 37.8166 23.7232 37.8541C23.767 37.901 23.8701 37.876 23.8545 37.8729C23.8389 37.8792 23.7764 37.9198 23.692 37.9917C23.6107 38.0605 23.5263 38.1231 23.4419 38.1856C23.2669 38.3076 23.0887 38.4233 22.8856 38.514C22.773 38.564 22.6418 38.514 22.5917 38.4014C22.5605 38.342 22.5636 38.2732 22.5917 38.2138Z" fill="black"/>
<path d="M20.1878 51.3716C19.4782 51.8313 20.0065 52.6038 20.8724 52.6508C20.4567 52.9135 20.4192 53.4014 20.2285 53.6578C20.5817 53.7173 20.8693 53.883 21.2288 53.9018C19.9596 54.5304 15.8083 55.8534 14.6548 54.6117" stroke="black" stroke-width="2" stroke-miterlimit="10" stroke-linecap="round" stroke-linejoin="round"/>
<path d="M35.9743 66.2528C38.522 65.4208 41.2041 65.5835 43.6518 64.9267C44.8897 64.5952 46.1432 64.1761 47.4781 63.9915C48.1439 63.9008 48.8348 63.8727 49.5194 63.9603C50.2071 64.0478 50.8854 64.2543 51.5013 64.5733C53.8145 65.7555 56.1496 66.994 58.2722 68.5547C59.3257 69.3084 60.426 70.0778 61.3576 71.0943C61.8234 71.6009 62.236 72.1701 62.5611 72.7894C62.7268 73.099 62.8675 73.4181 62.9863 73.7464C63.1113 74.078 63.202 74.3657 63.3145 74.6753C63.4176 74.9662 63.2645 75.2852 62.9738 75.3884C62.683 75.4916 62.3642 75.3384 62.261 75.0475C62.261 75.0444 62.2579 75.0413 62.2579 75.0413L62.2548 75.0288C62.1547 74.7254 62.0516 74.3907 61.9515 74.1124C61.8546 73.8278 61.739 73.5494 61.6046 73.2836C61.3357 72.7487 60.9887 72.2515 60.5855 71.7917C59.7758 70.8722 58.7474 70.1122 57.7033 69.3366C55.6651 67.7759 53.4113 66.5249 51.1261 65.2989C50.0602 64.714 48.8097 64.5733 47.5687 64.7297C46.3214 64.8766 45.0867 65.2582 43.8144 65.5741C41.2135 66.2059 38.5658 65.9932 36.1275 66.7469C35.9899 66.7876 35.8461 66.7125 35.8024 66.5749C35.7649 66.4404 35.8399 66.2966 35.9743 66.2528Z" fill="black"/>
<path d="M102.837 48.6319C103.562 49.0166 104.087 49.5764 104.525 50.1613C104.959 50.7524 105.306 51.3841 105.581 52.0534C105.86 52.7134 106.032 53.4765 106.025 54.2146C106.025 54.9558 105.869 55.6783 105.628 56.3539C105.134 57.7081 104.303 58.8778 103.334 59.8943C102.852 60.3916 102.265 60.9013 101.518 61.1046C101.146 61.2047 100.745 61.2204 100.367 61.1453C99.9889 61.0702 99.6357 60.9139 99.3231 60.7137C98.6979 60.3134 98.2071 59.7723 97.7882 59.2031C97.3724 58.6307 97.016 58.0209 96.7066 57.3922C96.4002 56.7573 96.1345 56.1193 95.9344 55.4187C95.7344 54.6994 95.7281 53.9175 95.9094 53.1856C96.097 52.4538 96.4659 51.772 96.9598 51.2059C97.2036 50.9244 97.5068 50.6617 97.7507 50.4553C98.0101 50.2332 98.2727 50.0049 98.5509 49.7828C99.1042 49.345 99.6919 48.9165 100.405 48.6131C100.761 48.463 101.158 48.3535 101.589 48.3379L101.915 48.3473L102.243 48.4098C102.452 48.4692 102.643 48.5537 102.837 48.6319ZM102.355 49.6233C101.442 49.1417 100.22 49.8235 99.1793 50.596C98.9135 50.793 98.651 50.9995 98.3852 51.2153C98.1008 51.4373 97.882 51.6187 97.6631 51.8439C97.238 52.288 96.9129 52.826 96.7347 53.4108C96.5628 53.9957 96.5284 54.6274 96.6753 55.2342C96.8254 55.8566 97.0629 56.4977 97.3287 57.1014C97.6006 57.7081 97.9132 58.3023 98.2977 58.834C98.6791 59.3688 99.123 59.863 99.6482 60.207C100.167 60.5542 100.786 60.7106 101.361 60.5386C101.946 60.3665 102.437 59.9537 102.893 59.4658C103.809 58.5056 104.537 57.3516 104.934 56.1162C105.131 55.5 105.231 54.8558 105.2 54.2302C105.169 53.6016 105.009 53.0105 104.728 52.4225C104.456 51.8376 104.118 51.2778 103.721 50.7805C103.324 50.2895 102.852 49.8579 102.355 49.6233Z" fill="black"/>
<path d="M94.3652 59.1626C94.7966 59.6161 94.9341 60.1978 94.9247 60.7264C94.9154 61.2581 94.7809 61.7773 94.4683 62.2401C94.3839 62.359 94.2902 62.4528 94.1995 62.5404C94.112 62.6373 94.0088 62.7187 93.9025 62.7968C93.6931 62.9595 93.4493 63.0815 93.1898 63.1721C92.6709 63.3348 92.0207 63.3066 91.5205 62.9313C91.261 62.7593 91.086 62.4935 90.9453 62.2214C90.8328 61.943 90.7609 61.6428 90.764 61.3582C90.764 61.2143 90.764 61.0704 90.7921 60.9359C90.8172 60.7983 90.8265 60.667 90.8797 60.5137C90.9735 60.2229 91.111 59.982 91.2673 59.7537C91.5862 59.3065 92.0019 58.9218 92.5927 58.7154C92.8835 58.6153 93.2492 58.5934 93.5743 58.6903C93.8681 58.7685 94.1526 58.9374 94.3652 59.1626ZM93.7525 59.8069C93.6306 59.7099 93.493 59.6536 93.3398 59.6286C93.2117 59.6161 93.0991 59.6411 92.9585 59.7068C92.6834 59.8382 92.3927 60.1103 92.1613 60.4011C92.0457 60.5481 91.9488 60.7108 91.8894 60.8578C91.8581 60.9203 91.8394 61.0235 91.8143 61.1111C91.7831 61.2018 91.7831 61.2894 91.7706 61.3769C91.7456 61.5552 91.7675 61.7178 91.8019 61.8742C91.8612 62.015 91.9206 62.1682 92.0426 62.2683C92.2645 62.4903 92.6365 62.5842 93.0022 62.506C93.3649 62.4309 93.7243 62.1682 93.965 61.8773C94.4183 61.2612 94.2433 60.1916 93.7525 59.8069Z" fill="black"/>
<path d="M69.726 13.2459C69.2259 12.0513 69.4759 10.5784 70.3417 9.61523" stroke="black" stroke-width="1.7899" stroke-miterlimit="10" stroke-linecap="round" stroke-linejoin="round"/>
<path d="M71.5265 13.2807C71.1046 12.5614 71.1139 11.6076 71.5546 10.9009" stroke="black" stroke-width="2.6848" stroke-miterlimit="10" stroke-linecap="round" stroke-linejoin="round"/>
<path d="M89.623 28.4434C88.3695 27.355 87.9694 25.3971 88.6915 23.9053" stroke="black" stroke-width="1.7899" stroke-miterlimit="10" stroke-linecap="round" stroke-linejoin="round"/>
<path d="M90.7858 27.0826C90.167 26.454 89.8825 25.5127 90.0544 24.6465" stroke="black" stroke-width="2.6848" stroke-miterlimit="10" stroke-linecap="round" stroke-linejoin="round"/>
<path d="M25.227 23.8584C25.2895 24.587 24.9519 25.3376 24.3737 25.7816" stroke="black" stroke-width="3.5797" stroke-miterlimit="10" stroke-linecap="round" stroke-linejoin="round"/>
<path d="M70.3696 51.6751C69.4757 51.7033 68.5755 51.5532 67.7378 51.2373" stroke="black" stroke-width="1.7899" stroke-miterlimit="10" stroke-linecap="round" stroke-linejoin="round"/>
<path d="M70.3602 50.4457C69.5351 50.5208 68.6974 50.4207 67.9128 50.1611" stroke="black" stroke-width="1.7899" stroke-miterlimit="10" stroke-linecap="round" stroke-linejoin="round"/>
<path d="M63.5175 45.5074C62.8861 45.3948 62.2641 45.2197 61.6639 44.9883" stroke="black" stroke-width="1.7899" stroke-miterlimit="10" stroke-linecap="round" stroke-linejoin="round"/>
<path d="M103.5 4.73633C104.612 7.33847 105.86 9.88119 107.226 12.3582" stroke="black" stroke-width="2.6848" stroke-miterlimit="10" stroke-linecap="round" stroke-linejoin="round"/>
<path d="M104.59 14.7637C106.425 18.9108 108.829 22.8015 111.718 26.2982" stroke="black" stroke-width="1.7899" stroke-miterlimit="10" stroke-linecap="round" stroke-linejoin="round"/>
<path d="M104.309 23.2891C105.45 26.548 107.244 29.5755 109.555 32.1401" stroke="black" stroke-width="2.6848" stroke-miterlimit="10" stroke-linecap="round" stroke-linejoin="round"/>
<path d="M110.249 20.9717C111.174 22.4823 112.265 23.8928 113.49 25.1689" stroke="black" stroke-width="2.6848" stroke-miterlimit="10" stroke-linecap="round" stroke-linejoin="round"/>
<path d="M58.6437 67.4344C57.2966 66.5119 55.9463 65.5925 54.5991 64.6699" stroke="black" stroke-width="1.7899" stroke-miterlimit="10" stroke-linecap="round" stroke-linejoin="round"/>
<path d="M54.7209 68.4481C54.4083 68.2668 54.0958 68.0823 53.7832 67.9009" stroke="black" stroke-width="1.7899" stroke-miterlimit="10" stroke-linecap="round" stroke-linejoin="round"/>
<path d="M73.0864 37.3541C72.208 35.9279 71.8454 34.1921 72.0736 32.5313C72.6269 32.7753 73.0771 33.2538 73.2865 33.8199C73.7773 32.2374 74.49 30.7205 75.3997 29.335" stroke="black" stroke-width="1.7899" stroke-miterlimit="10" stroke-linecap="round" stroke-linejoin="round"/>
<path d="M106.894 4.48633C107.813 6.50674 108.954 8.42394 110.289 10.1973" stroke="black" stroke-width="1.7899" stroke-miterlimit="10" stroke-linecap="round" stroke-linejoin="round"/>
<path d="M109.664 28.065C107.038 24.0429 104.343 19.8488 103.671 15.0918" stroke="black" stroke-width="3.1527" stroke-miterlimit="10" stroke-linecap="round" stroke-linejoin="round"/>
<path d="M108.554 18.0351C106.222 13.8848 104.043 9.52498 103.378 4.80859" stroke="black" stroke-width="3.1527" stroke-miterlimit="10" stroke-linecap="round" stroke-linejoin="round"/>
<path d="M106.854 7.87007C106.875 7.93262 106.894 7.99516 106.916 8.05771C106.094 6.86936 105.516 5.51527 105.228 4.09863" stroke="black" stroke-width="3.1527" stroke-miterlimit="10" stroke-linecap="round" stroke-linejoin="round"/>
<path d="M33.861 46.6396C34.8864 46.846 35.993 46.7397 36.9495 46.3237C37.6716 46.0078 38.3906 45.3823 38.3375 44.5973C38.2812 43.7622 37.4247 43.2587 36.7245 42.8052C35.224 41.8357 31.7009 38.6862 33.5672 36.7909C33.5766 36.7784 33.5891 36.769 33.5953 36.7533C33.6141 36.697 33.5453 36.6564 33.489 36.6408C33.0326 36.5219 32.3168 36.3468 31.8854 36.5938C31.604 36.7565 30.9132 38.4391 31.3602 38.583C31.0038 38.4673 30.5818 38.5861 30.338 38.8738C29.1063 40.325 30.1536 43.2493 30.9726 44.6786C31.579 45.7389 32.6638 46.3988 33.861 46.6396Z" fill="#ED1555"/>
<path d="M31.2415 37.5854C31.0008 39.168 31.1196 40.8413 31.8261 42.2768C32.1387 42.9086 32.5513 43.4778 32.9952 44.0314C33.0046 44.0408 33.0139 44.0533 33.0202 44.0627" stroke="black" stroke-width="1.7899" stroke-miterlimit="10" stroke-linecap="round" stroke-linejoin="round"/>
<path d="M29.6472 26.1416C30.7882 28.3372 31.5634 30.7516 31.6416 33.2224C31.7197 35.6932 31.0633 38.2265 29.5721 40.2" stroke="black" stroke-width="3.5797" stroke-miterlimit="10" stroke-linecap="round" stroke-linejoin="round"/>
<path d="M33.8923 44.957C34.2143 45.1884 34.5862 45.3448 34.9769 45.4136" stroke="black" stroke-width="1.7899" stroke-miterlimit="10" stroke-linecap="round" stroke-linejoin="round"/>
</svg>
