<svg width="287" height="226" viewBox="0 0 287 226" fill="none" xmlns="http://www.w3.org/2000/svg">
<path d="M46.881 91.0467C54.071 91.0467 54.0822 79.8345 46.881 79.8345C39.6911 79.8345 39.6798 91.0467 46.881 91.0467Z" fill="white"/>
<path d="M15.6419 37.2939C15.9688 46.7638 20.7132 55.204 26.224 56.1205C20.871 56.9916 16.2505 65.1264 15.8899 74.3134C16.2956 63.9045 8.85772 58.5643 4.5415 55.3964C9.79308 54.6836 15.98 47.1371 15.6419 37.2939Z" fill="#FFE400"/>
<path d="M248.605 19.8701C248.898 28.4574 253.203 36.1283 258.206 36.9656C253.349 37.7576 249.157 45.1456 248.83 53.4727C249.202 44.0255 242.452 39.1831 238.53 36.3094C243.297 35.6645 248.909 28.8082 248.605 19.8701Z" fill="#F1653A"/>
<path d="M238.327 162.393C238.62 170.98 242.925 178.651 247.928 179.488C243.071 180.28 238.879 187.668 238.552 195.995C238.924 186.548 232.174 181.706 228.252 178.832C233.019 178.187 238.631 171.331 238.327 162.393Z" fill="#FFE400"/>
<path d="M280.001 69.5049C280.216 75.7615 283.36 81.3507 287 81.9616C283.461 82.5386 280.407 87.9241 280.171 93.9884C280.441 87.1095 275.516 83.5795 272.665 81.4751C276.147 81.0112 280.227 76.0104 280.001 69.5049Z" fill="#09BCCA"/>
<path d="M6.08552 159.688C6.26583 164.882 8.86908 169.509 11.8893 170.018C8.95924 170.493 6.4236 174.962 6.22075 179.997C6.44614 174.295 2.36659 171.365 0 169.622C2.87372 169.226 6.26583 165.085 6.08552 159.688Z" fill="#F1653A"/>
<path d="M34.9693 181.796C35.1496 186.99 37.7529 191.617 40.7731 192.126C37.843 192.601 35.3074 197.07 35.1045 202.105C35.3299 196.403 31.2504 193.472 28.8838 191.73C31.7575 191.345 35.1496 187.193 34.9693 181.796Z" fill="#09BCCA"/>
<path d="M117.315 210.579C113.585 208.531 109.776 206.223 107.883 203.282C107.59 204.368 107.421 205.477 107.229 206.585C101.854 202.026 98.36 197.115 95.1144 190.983C94.179 189.218 85.7945 171.444 87.5075 170.55C86.3467 171.15 85.1747 171.761 84.014 172.36C78.8075 165.968 76.6437 157.188 78.2891 149.099C75.8549 148.375 73.4319 147.651 70.9977 146.927C72.2824 146.202 73.5559 145.467 74.8406 144.743C71.4936 142.786 68.1465 140.817 64.7995 138.86C67.9888 137.819 71.1893 136.778 74.3786 135.726C70.5131 132.841 66.6364 129.944 62.771 127.059C64.6868 123.71 66.5913 120.361 68.5071 117.012C65.7461 117.193 62.9964 117.374 60.2354 117.544C61.6666 112.849 64.5628 108.617 68.417 105.596C66.2082 105.563 63.9994 105.54 61.7905 105.506C72.8572 99.2267 75.776 90.3226 81.3656 79.7779C86.0875 70.8738 91.9589 62.3204 100.062 56.7765C110.497 49.6374 122.815 45.372 135.346 44.1049C148.194 42.8037 157.874 44.5687 168.614 51.1422C189.598 63.9836 206.141 81.5429 213.861 105.438C212.306 107.316 209.826 108.391 207.392 108.233C211.021 109.737 213.771 113.199 214.424 117.092C211.923 116.82 209.421 116.548 206.919 116.266C209.421 119.264 213.061 121.278 216.926 121.787C217.862 121.911 212.542 129.967 212.475 130.352C211.585 134.798 212.655 134.074 217.591 134.606C216.768 139.912 213.478 144.788 208.88 147.526C211.224 147.356 213.557 147.175 215.901 147.006C213.805 149.879 209.207 150.298 207.629 153.5C206.626 155.537 207.246 157.946 207.471 160.209C208.159 167.337 204.428 173.13 198.827 176.977C198.873 175.144 198.625 173.186 197.87 171.489C198.591 173.198 195.334 181.31 194.68 183.426C193.193 188.234 190.86 192.861 188.268 197.149C188.2 197.263 186.409 190.655 186.161 189.942C182.374 203.202 175.184 214.652 161.525 219.551C155.226 221.814 148.261 222.414 142.604 226C136.248 222.018 129.892 218.024 123.536 214.041C121.778 212.932 119.558 211.801 117.315 210.579Z" fill="#FFE400"/>
<path d="M102.406 107.52C108.311 104.793 113.811 99.5433 117.101 94.9612C124.731 84.3373 124.956 72.435 122.736 59.6841C119.716 42.3171 118.239 24.984 114.07 7.78674C113.315 4.66407 112.109 1.08885 109.258 0.19504C106.08 -0.800592 103.093 2.19762 101.076 5.06006C95.0243 13.6248 90.5391 23.4793 87.9246 33.8995C86.9328 31.9761 85.9299 30.0527 84.9381 28.1293C81.4221 43.5616 78.2441 59.175 77.2636 75.0372C76.8579 81.5993 76.8467 88.3425 78.7737 94.5765C80.6896 100.811 84.8254 106.535 90.5616 108.64C94.3256 110.031 98.4615 109.341 102.406 107.52Z" fill="#FFE400"/>
<path d="M176.83 108.504C170.992 105.642 165.616 100.257 162.438 95.5952C155.057 84.7903 155.113 72.888 157.626 60.1937C161.052 42.9058 162.946 25.6067 167.51 8.52258C168.344 5.42254 169.628 1.86994 172.502 1.04402C175.703 0.127587 178.61 3.19368 180.56 6.10138C186.397 14.8132 190.669 24.7695 193.024 35.2463C194.061 33.3455 195.109 31.4448 196.146 29.544C199.29 45.0555 202.107 60.7367 202.716 76.6103C202.964 83.1837 202.817 89.9156 200.743 96.1043C198.681 102.293 194.41 107.916 188.629 109.885C184.831 111.209 180.729 110.417 176.83 108.504Z" fill="#FFE400"/>
<path d="M108.953 89.4399C110.306 91.2954 112.785 92.4041 115.118 91.7819C117.383 91.1822 119.152 88.9534 119.118 86.6001C119.04 80.5584 110.373 79.031 108.243 84.7106C107.612 86.4303 107.995 88.1161 108.953 89.4399Z" fill="#45459B"/>
<path d="M112.289 85.6723C112.504 86.634 113.383 87.3921 114.363 87.5165C115.343 87.641 116.358 87.1658 116.944 86.3625C117.451 85.6837 117.642 84.722 117.237 83.9752C115.997 81.7464 111.681 82.9117 112.289 85.6723Z" fill="white"/>
<path d="M110.069 87.0415C108.559 87.5054 109.72 89.8927 110.7 90.3226C111.444 90.6507 112.47 90.4018 112.785 89.6438C113.101 88.8631 112.548 87.9919 111.884 87.4941C111.354 87.1207 110.678 86.8492 110.069 87.0415Z" fill="white"/>
<path d="M160.861 89.4399C162.213 91.2954 164.692 92.4041 167.025 91.7819C169.29 91.1822 171.059 88.9534 171.026 86.6001C170.947 80.5584 162.281 79.031 160.151 84.7106C159.52 86.4303 159.903 88.1161 160.861 89.4399Z" fill="#45459B"/>
<path d="M164.196 85.6723C164.41 86.634 165.289 87.3921 166.27 87.5165C167.25 87.641 168.264 87.1658 168.85 86.3625C169.358 85.6837 169.549 84.722 169.143 83.9752C167.904 81.7464 163.588 82.9117 164.196 85.6723Z" fill="white"/>
<path d="M161.976 87.0415C160.466 87.5054 161.627 89.8927 162.607 90.3226C163.351 90.6507 164.377 90.4018 164.692 89.6438C165.008 88.8631 164.456 87.9919 163.791 87.4941C163.261 87.1207 162.596 86.8492 161.976 87.0415Z" fill="white"/>
<path d="M118.431 122.013C121.88 126.301 123.728 131.619 125.79 136.721C127.852 141.824 130.298 147.017 134.524 150.524C138.761 154.032 145.241 155.367 149.772 152.244C152.386 150.445 153.953 147.515 155.361 144.664C159.407 136.45 162.912 127.964 165.831 119.286C161.469 122.771 154.877 123.031 150.211 119.977C148.881 119.105 147.675 117.974 146.154 117.51C142.694 116.435 139.336 119.071 136.147 120.791C131.008 123.552 123.953 123.857 118.431 122.013Z" fill="#45459B"/>
<path d="M134.028 121.232C131.053 122.239 128.382 123.054 128.393 122.726C128.067 132.919 127.21 146.157 130.907 155.808C133.915 163.648 144.419 167.631 151.834 163.026C162.01 156.724 157.39 131.539 156.646 121.9C151.857 120.961 146.966 117.872 141.984 118.562C141.444 118.641 137.522 120.055 134.028 121.232Z" fill="#F1653A"/>
<path d="M133.859 108.266C133.295 106.773 133.825 105.302 135.854 104.318C138.795 102.881 142.243 102.507 145.421 103.277C147.1 103.684 148.78 104.465 149.749 105.902C152.183 109.533 148.408 111.129 145.804 112.633C144.666 113.301 143.449 113.98 142.131 113.957C140.925 113.935 139.832 113.324 138.784 112.724C137.6 112.045 136.417 111.344 135.414 110.416C134.659 109.737 134.129 109.002 133.859 108.266Z" fill="#45459B"/>
<path d="M101.369 171.681C108.074 175.935 115.219 179.171 122.646 181.219C126.365 182.203 130.129 182.995 133.938 183.357C137.736 183.776 141.556 183.901 145.354 183.629C149.152 183.437 152.938 182.848 156.646 181.966C160.376 181.14 164.016 179.895 167.589 178.458C174.711 175.517 181.394 171.444 187.524 166.409C188.065 165.968 188.854 166.047 189.294 166.59C189.677 167.054 189.665 167.71 189.316 168.163C184.234 174.691 177.506 179.997 170.011 183.776C166.281 185.711 162.303 187.159 158.246 188.313C154.167 189.41 149.974 190.078 145.76 190.372C141.534 190.587 137.285 190.417 133.115 189.806C128.957 189.15 124.832 188.177 120.899 186.695C113.022 183.833 105.73 179.364 99.9153 173.48C99.4645 173.028 99.4645 172.281 99.9266 171.828C100.31 171.444 100.918 171.399 101.369 171.681Z" fill="#09BCCA"/>
<path d="M152.544 201.109L146.402 193.031C146.323 192.929 146.21 192.873 146.086 192.873C145.962 192.873 145.85 192.929 145.771 193.031L139.742 201.109C139.64 201.256 139.64 201.449 139.742 201.584L145.771 209.663C145.85 209.764 145.962 209.821 146.086 209.821C146.21 209.821 146.323 209.764 146.402 209.663L152.544 201.584C152.656 201.449 152.656 201.245 152.544 201.109Z" fill="#F89C33"/>
</svg>
