<svg width="204" height="155" fill="none" xmlns="http://www.w3.org/2000/svg">
    <path
        d="M128.146 194.298c50.746 0 91.9-41.154 91.9-91.788 0-50.746-41.154-91.788-91.9-91.788-50.745 0-91.9 41.154-91.9 91.788-.11 50.634 41.043 91.788 91.9 91.788Z"
        fill="#09BCCA" />
    <path
        d="M150.898 17.971c4.127 13.718 3.681 20.298.669 27.213-7.249 17.175-18.067 20.521-34.573 16.618-9.703-2.342-10.819-21.637-8.923-33.57 1.004-5.688.669-9.592 5.911-13.83 4.238-3.234 7.25-4.573 13.049-5.91 9.146-2.343 20.968 1.56 23.867 9.479Z"
        fill="#C3C5C7" />
    <path
        d="M120.116 9.606s7.361 51.415.558 51.638c-6.915 0-10.484-7.918-11.153-18.402-1.004-14.945 1.004-25.205 10.595-33.236Z"
        fill="#fff" />
    <path
        d="M160.712.684c6.915-2.007 15.503.446 18.849 6.803 2.9 5.465 1.561 12.157 3.792 17.956 2.007 5.242 6.803 9.034 12.156 11.042 5.019 1.896 10.373 2.23 15.391 3.903 5.019 1.673 10.038 5.019 11.265 10.15 1.003 3.791-.335 7.918-2.565 11.264-3.458 5.241-9.034 9.033-15.057 10.706-6.022 1.673-12.603 1.45-18.625-.334-8.142-2.342-15.391-7.361-20.633-14.053-5.242-6.692-8.03-15.056-8.253-23.532-.112-3.011.223-6.134-.112-9.146-.557-4.795-3.234-9.145-8.253-9.48-1.338-.111-4.572.223-5.465-.78-1.226-1.339.558-3.011 1.673-4.015 4.796-4.35 9.369-8.7 15.837-10.484Z"
        fill="#C3C5C7" />
    <path
        d="M90.115 132.734c-4.907 9.146-7.026 12.826-13.272 21.302-1.561 1.896-3.122 4.015-5.241 5.242-2.231 1.338-5.02 1.784-7.25.669-2.119-1.004-3.457-3.234-3.792-5.465-.446-2.23-.111-4.572.446-6.915 2.566-13.606 5.242-21.859 11.376-34.239 2.565-4.907 4.684-10.149 7.584-15.056 3.012-5.354 6.357-10.707 9.592-15.949 2.23-3.457 5.576-6.022 9.814-6.245 2.788 0 5.688 1.226 7.584 3.68 2.454 3.569 1.785 8.365.781 12.157-3.681 12.602-9.145 24.536-15.28 36.023-.78 1.45-1.45 3.012-2.342 4.796Z"
        fill="#994396" />
    <path d="M150.118 23.213s9.703 19.852-12.938 36.024c-23.867 17.175 12.938-36.024 12.938-36.024Z" fill="#fff" />
    <path
        d="M119.893 43.177c.112 9.926.112 19.74.223 29.666 0 1.004 0 2.12.446 2.9 1.004 2.119 5.577 1.561 7.25 1.338 3.234-.111 6.803-.78 8.364-4.126.892-1.673.892-3.792.892-5.577 0-8.03.112-16.171.112-24.09-5.688-.334-11.376-.446-17.287-.111Z"
        fill="#ED6636" />
    <path
        d="M131.827 60.575c-5.688 2.342-12.826 1.227-16.506-3.457-2.788-3.458-3.681-7.919-4.015-12.268-.893-10.707-1.673-26.544 8.922-32.901 4.573-2.566 10.149-3.123 15.279-2.454 12.938 2.008 12.715 15.28 10.373 25.206-2.566 10.26-2.789 21.413-14.053 25.874Z"
        fill="#ED6636" />
    <path
        d="M111.417 29.459c-.446.111-.892.111-1.227 0-.446-.112-.892-.447-1.004-.67-.223-.669.224-1.338.893-1.896 1.45-1.227 3.234-1.784 5.13-1.784 1.561 0 2.9 1.338 1.45 2.453-1.562.893-3.569 1.562-5.242 1.896ZM134.95 31.131c.446.112.892.112 1.226 0 .447-.111.893-.446 1.004-.669.223-.669-.334-1.338-.892-1.896-1.45-1.227-3.234-1.784-5.13-1.784-1.562 0-2.9 1.338-1.45 2.453 1.673.893 3.792 1.562 5.242 1.896Z"
        fill="#C3C5C7" />
    <path
        d="M129.039 34.588c0 1.116-.558 1.896-1.116 1.896-.557 0-1.115-.78-1.115-1.896 0-1.115.558-1.896 1.115-1.896.558 0 1.116.781 1.116 1.896ZM114.094 33.696c0 1.116-.558 1.896-1.115 1.896-.558 0-1.116-.78-1.116-1.896 0-1.115.558-1.896 1.116-1.896.557-.111 1.115.781 1.115 1.896Z"
        fill="#010101" />
    <path
        d="M115.878 42.619c.335.78 1.227 1.227 2.231 1.115 1.226-.223 1.784-1.338 2.342-2.453.557-1.339 2.899-9.146-.335-8.923-2.454.223-3.123 5.911-3.792 7.696-.335.78-.446 1.45-.335 2.342-.111.111-.111.223-.111.223Z"
        fill="#45469C" />
    <path d="M116.771 48.084c.669.669 1.784 1.115 2.899.892 1.004-.112 2.008-.892 2.454-1.785" stroke="#010101"
        stroke-width=".663" stroke-miterlimit="10" stroke-linecap="round" stroke-linejoin="round" />
    <path
        d="m13.606 75.966 1.227-35.912c.112-2.12 1.896-3.792 3.904-3.68 2.119.111 3.792 1.895 3.68 3.903L21.08 76.189c-.112 2.12-1.896 3.792-3.904 3.68-2.007 0-3.68-1.784-3.569-3.903Z"
        fill="#9B4198" />
    <path
        d="m25.651 40.723.781.558c5.577 4.015 12.38 6.468 19.072 7.25l-.67 19.517c-6.803.334-13.718 2.119-19.517 5.688l-.78.557 1.114-33.57Z"
        fill="#45469B" />
    <path
        d="m49.407 48.865 13.383.446c3.123.111 5.577 2.788 5.465 5.91l-.223 7.585c-.111 3.123-2.788 5.576-5.91 5.465l-13.384-.446.669-18.96Zm9.034 11.822c1.003 0 1.896-.78 2.007-1.785 0-1.003-.78-1.896-1.784-2.007l-3.904-.112c-1.003 0-1.896.781-2.007 1.785 0 1.004.78 1.896 1.784 2.007l3.904.112Z"
        fill="#9B4198" />
    <path
        d="m49.965 81.097-3.68-.112c-3.123-.111-5.577-2.788-5.465-5.911l.111-2.677c1.227-.223 2.565-.334 3.792-.446l-.111 3.235c0 1.003.78 1.895 1.784 2.007l3.68.112.224-5.354 7.584.223-.67 12.045c-.111 2.12-1.896 3.792-3.903 3.68-2.12-.11-3.792-1.895-3.68-3.903l.334-2.9Z"
        fill="#45469B" />
    <path
        d="M6.357 45.853c.78-.67 2.008-.67 2.677.111l2.565 2.789c.67.78.67 2.007-.112 2.676-.78.67-2.007.67-2.676-.111L6.246 48.53c-.67-.781-.67-2.008.111-2.677ZM5.576 67.378l2.789-2.565c.78-.67 2.007-.67 2.676.111.67.781.67 2.008-.111 2.677l-2.788 2.565c-.781.67-2.008.67-2.677-.111-.67-.78-.67-2.008.111-2.677ZM0 57.676c0-1.004.892-1.896 2.008-1.785l5.353.223c1.004 0 1.896.893 1.784 2.008a1.822 1.822 0 0 1-2.007 1.784l-5.354-.223C.781 59.683 0 58.791 0 57.676Z"
        fill="#999" />
    <path
        d="M52.642 77.416c.334.334.557.669.78 1.004.558.334.893 1.896 1.116 2.565.446 1.004.669 2.007.892 3.011.334-1.004.557-2.007 1.004-2.9.111-.334.223-.557.446-.78.111-.112.223-.224.334-.224h.446c.447.112.67.558.781 1.004 2.23 6.915-4.126 11.71-5.8 18.068-.334 1.784-1.45 3.346-3.122 4.35-4.907 2.565-8.253-3.68-9.369-7.027-1.338-4.35-2.676-8.699-3.569-13.16-.669-3.011.558-3.68 3.235-5.019a25.361 25.361 0 0 1 8.141-2.342 8.234 8.234 0 0 1 2.343 0c1.003.335 1.784.78 2.342 1.45Z"
        fill="#F2663B" />
    <path
        d="M117.328 62.805c1.562-.111 21.191-1.226 22.194-1.226 1.004 0 .447 8.141.447 8.141s21.525 5.688 27.101 8.811c5.576 3.123 39.927 46.73 45.392 59.668-5.019 12.826-16.06 25.317-16.06 25.317l-29.444-40.597 8.142 58.218s-17.733 13.161-47.4 13.161c-29.666 0-50.634-15.168-50.634-15.168l11.71-52.642 7.92-49.63 19.963-6.246s-.892-7.695.669-7.807ZM54.426 96.598c1.338.112 2.565.67 3.457 2.12.781 1.226.67 2.899-.223 4.015 1.116.557 2.23 1.115 3.123 2.007.892.892 1.338 2.231 1.004 3.346-.112.334-.335.669-.558 1.004-.78.78-2.119.78-3.123.223-1.003-.558-1.672-1.45-2.453-2.342-2.008 2.788-5.019 4.907-8.365 5.911-1.561.446-3.569.892-5.242.78-1.896-.223-2.23-1.784-2.007-3.569.223-2.119 1.004-4.126 2.119-5.799-.558.335-1.227.669-1.896.669-.67 0-1.45-.334-1.673-.892-.223-.781.223-1.562.78-2.119 2.231-2.565 5.02-3.234 8.254-3.792 1.896-.446 4.572-1.673 6.803-1.562Z"
        fill="#994396" />
    <path
        d="M77.066 149.909c0 .112 0 .112 0 0 .892 7.361-9.145 14.388-16.84 10.596-3.458-1.673-5.243-5.131-6.692-8.365-4.35-9.926-7.361-20.521-8.811-31.228-.67-5.019-4.35-24.313 7.918-18.402 1.562.78 2.9 2.007 4.127 3.346 5.353 5.911 7.36 12.379 10.484 19.405 3.569 7.696 8.699 15.838 9.814 24.648Z"
        fill="#994396" />
    <path d="m123.574 71.059-4.573 122.793 3.123.223 3.68-123.016h-2.23Z" fill="#F89C33" />
    <path
        d="M141.195 32.358c2.008.112 11.153 3.346 11.042 1.227-.112-2.342-.335-8.922-1.673-10.93-1.116-1.784-2.454-3.346-4.461-4.238-1.785-.78-4.35-1.227-6.246-1.004-.892.112-.558 4.35.223 5.02a1.935 1.935 0 0 0 1.561.334 4.226 4.226 0 0 1 1.673 0c.223.111.446.223.558.446.112.223.112.557-.112.669-.111.112-.334.112-.557.112-.669.111-3.346-.112-3.569.669-.112.334.223.669.558.78a8.85 8.85 0 0 0 2.453.67c.335 0 .781.223.781.557 0 .335-.446.67-.781.67-.781 0-1.561-.112-2.342-.112-1.338 0-1.784 3.346-1.115 4.35.446.892 1.227.78 2.007.78Z"
        fill="#fff" />
    <path
        d="M145.433 31.02c1.562-.558 3.346-.446 4.573.669 1.673 1.338 2.119 4.015 1.115 6.023-.892 1.896-2.788 3.345-4.795 4.126-1.45.558-3.235.78-4.462-.111-1.115-.781-1.561-2.231-1.449-3.57.446-2.787 2.453-6.133 5.018-7.137Z"
        fill="#ED6636" />
    <path
        d="M152.348 28.677c2.788 0-4.907-18.513-11.264-21.748-6.357-3.234-9.369-4.126-17.845-1.003-5.799 2.565-19.071.669-19.071 9.703-.335 7.583 6.58 10.483 26.767 1.673 10.595-4.796 18.179 11.375 21.413 11.375Z"
        fill="#C3C5C7" /></svg>
