<svg enable-background="new 0 0 24 24" viewBox="0 0 24 24" xmlns="http://www.w3.org/2000/svg"><g fill="#999"><path d="m18.1 7.6h-2.5v-1.6h-.9v1.6h-5.4v-1.6h-.9v1.6h-2.5c-.4 0-.7.3-.7.7v9.4c0 .4.3.7.7.7h12.2c.4 0 .7-.3.7-.7v-9.5c-.1-.3-.4-.6-.7-.6zm-.2 9.9h-11.7v-9h2.2v1.1h.9v-1.1h5.4v1.1h.9v-1.1h2.2v9z"/><path d="m7.9 11.2h.9v.9h-.9z"/><path d="m10.4 11.2h.9v.9h-.9z"/><path d="m12.7 11.2h.9v.9h-.9z"/><path d="m15.1 11.2h.9v.9h-.9z"/><path d="m7.9 13.2h.9v.9h-.9z"/><path d="m10.4 13.2h.9v.9h-.9z"/><path d="m12.7 13.2h.9v.9h-.9z"/><path d="m15.1 13.2h.9v.9h-.9z"/><path d="m7.9 15.2h.9v.9h-.9z"/><path d="m10.4 15.2h.9v.9h-.9z"/><path d="m12.7 15.2h.9v.9h-.9z"/><path d="m15.1 15.2h.9v.9h-.9z"/></g></svg>