<?xml version="1.0" ?><svg id="Layer_1" style="enable-background:new 0 0 512 512;" version="1.1" viewBox="0 0 512 512" xml:space="preserve" xmlns="http://www.w3.org/2000/svg" xmlns:xlink="http://www.w3.org/1999/xlink"><style type="text/css">
	.st0{fill:#FFFFFF;}
	.st1{fill:#C60C30;}
	.st2{fill:#003478;}
	.st3{fill:#FF9933;}
	.st4{fill:#128807;}
	.st5{fill:#000088;}
	.st6{fill:#032774;}
	.st7{fill:#DF0333;}
	.st8{fill:#EE2B2C;}
	.st9{fill:#032767;}
	.st10{fill:#006747;}
	.st11{fill:#CD1225;}
	.st12{fill:#FBC942;}
	.st13{fill:#BD9B37;}
	.st14{fill:#9BA068;}
	.st15{fill:#707633;}
	.st16{fill:#006748;}
	.st17{fill:#CC2029;}
	.st18{fill:#30C1DB;}
	.st19{fill:#F7C740;}
	.st20{fill:#0C72A6;}
	.st21{fill:#F8A952;}
	.st22{fill:#943120;}
	.st23{fill:#231F20;}
	.st24{fill:#0B8388;}
	.st25{fill:#8BBDBE;}
	.st26{fill:#05534E;}
	.st27{fill:none;stroke:#39B54A;stroke-width:0.25;stroke-miterlimit:10;}
	.st28{fill:none;stroke:#00A651;stroke-miterlimit:10;}
	.st29{fill:none;stroke:#00A651;stroke-width:0.5;stroke-miterlimit:10;}
	.st30{fill:url(#SVGID_1_);}
	.st31{fill:url(#SVGID_2_);}
	.st32{fill:url(#SVGID_3_);}
	.st33{fill:url(#SVGID_4_);}
	.st34{fill:url(#SVGID_5_);}
	.st35{fill:url(#SVGID_6_);}
	.st36{fill:url(#SVGID_7_);}
	.st37{fill:url(#SVGID_8_);}
	.st38{fill:url(#SVGID_9_);}
	.st39{fill:url(#SVGID_10_);}
	.st40{fill:url(#SVGID_11_);}
	.st41{fill:url(#SVGID_12_);}
	.st42{fill:url(#SVGID_13_);}
	.st43{fill:url(#SVGID_14_);}
	.st44{fill:url(#SVGID_15_);}
	.st45{fill:#F8C73E;}
	.st46{fill:#77722F;}
	.st47{fill:#A7AB71;}
	.st48{fill:#949457;}
	.st49{fill:#AE6F2A;}
	.st50{fill:#FFF200;}
	.st51{fill:#C5C6A6;}
	.st52{fill:#A3A395;}
	.st53{fill:#4C2915;}
	.st54{fill:#8E4520;}
	.st55{fill:#D1A467;}
	.st56{fill:#AA6C2A;}
	.st57{fill:#DAAC6D;}
	.st58{fill:#8F4620;}
	.st59{fill:#BC7E2F;}
	.st60{fill:#E6E7E8;}
	.st61{fill:#F06D19;}
	.st62{fill:#19B43D;}
	.st63{fill:#07A3DC;}
	.st64{fill:#FBD023;}
	.st65{fill:#EC2938;}
	.st66{fill:#F9DF47;}
	.st67{fill:#0967C4;}
	.st68{fill:#C5A310;}
	.st69{clip-path:url(#SVGID_17_);}
	.st70{fill:#6FD7F2;}
	.st71{clip-path:url(#SVGID_19_);}
	.st72{fill:#FF0303;}
	.st73{fill:#FF6407;}
	.st74{fill:#FDFE1F;}
	.st75{fill:#00FE1E;}
	.st76{fill:#08CCFE;}
	.st77{fill:#120FFD;}
	.st78{fill:#810480;}
	.st79{fill:#0642A1;}
	.st80{fill:#02275F;}
	.st81{fill:#80A0D1;}
	.st82{fill:#FB3B3A;}
	.st83{fill:#FF0302;}
	.st84{fill:#520200;}
	.st85{fill:#940101;}
	.st86{clip-path:url(#SVGID_21_);}
	.st87{fill:#91BB35;}
	.st88{fill:#ECE62B;}
	.st89{fill:#C5CA2C;}
	.st90{fill:#95C82B;}
	.st91{fill:#009D4A;}
	.st92{fill:#BF0A30;}
	.st93{fill:#002868;}
	.st94{fill:#028832;}
	.st95{fill:#FBDC1D;}
	.st96{fill:#D91219;}
	.st97{fill:#0738A6;}
	.st98{fill:#FD0302;}
	.st99{fill:#060593;}
	.st100{fill:#115EAD;}
	.st101{fill:#C50C1E;}
	.st102{fill:#FEC315;}
	.st103{fill:#C7B011;}
	.st104{fill:#AC1518;}
	.st105{fill:#028E6E;}
	.st106{fill:#CBCBCB;}
	.st107{fill:#095BBD;}
	.st108{fill:#C7B013;}
	.st109{fill:#00AEEF;}
	.st110{fill:#C7B112;}
	.st111{fill:#FED592;}
	.st112{fill:#028D6E;}
	.st113{fill:#C7B012;}
	.st114{fill:#C6B011;}
	.st115{fill:#103BEE;}
	.st116{fill:#DB4445;}
	.st117{fill:#EC72A9;}
	.st118{fill:#006133;}
	.st119{fill:#D11133;}
	.st120{fill:#042B7D;}
	.st121{fill:#FEC527;}
	.st122{fill:#BF920D;}
</style><g><path class="st96" d="M510.4,284.4c-0.3,2.6-0.7,5.2-1,7.8c-0.2,1-0.3,2.1-0.5,3.2c-0.5,3.2-1.1,6.4-1.7,9.7   c-0.1,0.5-0.2,1-0.3,1.5v0.1c-0.1,0.5-0.2,1-0.2,1c-2.5,11.9-5.6,22.9-9.4,33.7H14.6c-3.4-9.8-6.3-19.8-8.6-30.1   c-0.2-0.5-0.3-1-0.4-1.5c-0.1-0.5-0.2-1-0.3-1.4c-1.6-7.9-2.9-15.8-3.7-23.9H510.4z"/><path class="st95" d="M497.4,341.3c-5.3,14.9-11.9,29.1-19.7,42.6c-2.8,4.9-5.8,9.6-8.9,14.3H43.1c-3.1-4.7-6-9.4-8.8-14.3   c-7.8-13.4-14.4-27.8-19.7-42.6H497.4z"/><path class="st96" d="M468.8,398.2c-4.1,6.1-8.4,12.1-13,17.8c-11.5,14.4-24.5,27.5-38.8,39.1H95c-14.3-11.6-27.4-24.7-38.8-39.1   c-4.6-5.7-9-11.7-13.1-17.8H468.8z"/><path class="st95" d="M417,455.1C372.9,490.7,317,512,256,512c-61,0-117-21.3-161-56.9H417z"/><path class="st96" d="M468.8,113.8H43.2c4.1-6.1,8.4-12.1,13-17.8c11.6-14.4,24.7-27.6,39-39.1h321.7c14.4,11.6,27.4,24.7,39,39.1   C460.4,101.7,464.8,107.6,468.8,113.8z"/><path class="st95" d="M416.8,56.9H95.1C139.1,21.3,195,0,256,0C316.9,0,372.9,21.3,416.8,56.9z"/><path class="st95" d="M497.4,170.7H14.6c5.2-14.9,11.8-29.2,19.7-42.7c2.8-4.8,5.7-9.6,8.9-14.2h425.7c3.1,4.6,6.1,9.4,8.9,14.2   C485.5,141.5,492.1,155.7,497.4,170.7z"/><path class="st96" d="M510.4,227.6H1.6c0,0,0.1-0.3,0.1-0.5V227l0.1-0.6c2.2-19.3,6.6-37.9,12.9-55.7h482.8   c3.2,8.8,5.7,17.9,7.9,27.1c0.1,0.2,0.1,0.5,0.2,0.7c0,0,0.1,0.5,0.2,0.7c1.3,5.9,2.4,11.8,3.4,17.8c0,0,0,0.4,0.1,0.6   c0,0,0.1,0.4,0.1,0.6C509.6,221.3,510.1,224.4,510.4,227.6z"/><path class="st95" d="M512,256c0,1.3,0,2.5-0.1,3.8c0,0.3,0,0.6,0,0.8v0.9l-0.1,0.3c0,0,0,0.4,0,0.6c-0.2,7.4-0.7,14.8-1.4,22.1   H1.6c-0.2-1.6-0.3-3-0.5-4.5c-0.1-0.9-0.2-1.7-0.2-2.5l0,0c-0.5-4.9-0.7-10-0.9-15.1c0-0.2,0-0.4,0-0.4c0-0.4,0-0.6,0-0.6   C0,260,0,258.8,0,257.5c0,0,0-0.3,0-0.6V256c0-1.7,0-3.5,0.1-5.2c0-0.2,0-0.3,0-0.3c0-0.4,0-0.6,0-0.6c0.1-5.3,0.4-10.5,0.9-15.6   c0-0.2,0.1-0.5,0.1-0.5c0-0.5,0.1-0.7,0.1-0.9c0.2-1.7,0.3-3.4,0.5-5.1v-0.2h508.8c0.8,7.2,1.3,14.6,1.5,22.1c0,0,0.1,0.4,0,0.6   c0,0,0.1,0.4,0.1,0.6C511.9,252.5,512,254.3,512,256z"/></g></svg>