<?xml version="1.0" encoding="UTF-8"?>
<svg width="17px" height="17px" viewBox="0 0 17 17" version="1.1" xmlns="http://www.w3.org/2000/svg" xmlns:xlink="http://www.w3.org/1999/xlink">
    <!-- Generator: Sketch 53.2 (72643) - https://sketchapp.com -->
    <title>united-states</title>
    <desc>Created with Sketch.</desc>
    <g id="----Login-e-Criar-conta" stroke="none" stroke-width="1" fill="none" fill-rule="evenodd">
        <g id="INICIAL-&gt;-Language" transform="translate(-1280.000000, -67.000000)" fill-rule="nonzero">
            <g id="Group-4" transform="translate(1263.000000, 17.000000)">
                <g id="united-states" transform="translate(17.000000, 50.000000)">
                    <circle id="Oval" fill="#F0F0F0" cx="8.5" cy="8.5" r="8.5"></circle>
                    <g id="Group" transform="translate(0.500000, 2.060606)" fill="#D80027">
                        <path d="M7.66850959,6.57071812 L16.3166667,6.57071812 C16.3166667,5.81537975 16.2169537,5.08364366 16.0311574,4.38757251 L7.66850959,4.38757251 L7.66850959,6.57071812 Z" id="Path"></path>
                        <path d="M7.66850959,2.20445958 L15.1002333,2.20445958 C14.592895,1.36850733 13.9442104,0.629612095 13.1878811,0.0213139712 L7.66850959,0.0213139712 L7.66850959,2.20445958 Z" id="Path"></path>
                        <path d="M8.02883598,14.9393939 C9.97935751,14.9393939 11.7721513,14.2586545 13.1878811,13.1201223 L2.86979087,13.1201223 C4.2855207,14.2586545 6.07831445,14.9393939 8.02883598,14.9393939 Z" id="Path"></path>
                        <path d="M0.95743869,10.9369767 L15.1002333,10.9369767 C15.5075348,10.2658808 15.8234112,9.53231404 16.0311574,8.75383105 L0.0265145833,8.75383105 C0.234260714,9.53231404 0.550137136,10.2658808 0.95743869,10.9369767 Z" id="Path"></path>
                    </g>
                    <path d="M3.93735937,1.36761861 L4.71195508,1.36761861 L3.99144727,1.90692791 L4.26666797,2.77957244 L3.54619336,2.24026314 L2.82571875,2.77957244 L3.06345312,2.02570253 C2.42907422,2.57014323 1.87305469,3.20800947 1.41485156,3.91874148 L1.66304492,3.91874148 L1.20441016,4.26203161 C1.13295703,4.38484292 1.06442578,4.50960417 0.99875,4.63621271 L1.21775781,5.33069531 L0.809160156,5.02483014 C0.707591797,5.24654048 0.614689453,5.47324538 0.531183594,5.70467116 L0.772470703,6.46986435 L1.66304492,6.46986435 L0.942537109,7.00917365 L1.21775781,7.88181818 L0.497283203,7.34250888 L0.0657089844,7.66558132 C0.0225117187,8.02334197 0,8.38773923 0,8.75757576 L8.5,8.75757576 C8.5,3.92093087 8.5,3.35073059 8.5,0 C6.82085156,0 5.25555664,0.501850142 3.93735937,1.36761861 Z M4.26666797,7.88181818 L3.54619336,7.34250888 L2.82571875,7.88181818 L3.10093945,7.00917365 L2.38043164,6.46986435 L3.27100586,6.46986435 L3.54619336,5.59721982 L3.82138086,6.46986435 L4.71195508,6.46986435 L3.99144727,7.00917365 L4.26666797,7.88181818 Z M3.99144727,4.45805078 L4.26666797,5.33069531 L3.54619336,4.79138601 L2.82571875,5.33069531 L3.10093945,4.45805078 L2.38043164,3.91874148 L3.27100586,3.91874148 L3.54619336,3.04609695 L3.82138086,3.91874148 L4.71195508,3.91874148 L3.99144727,4.45805078 Z M7.31557812,7.88181818 L6.59510352,7.34250888 L5.87462891,7.88181818 L6.14984961,7.00917365 L5.4293418,6.46986435 L6.31991602,6.46986435 L6.59510352,5.59721982 L6.87029102,6.46986435 L7.76086523,6.46986435 L7.04035742,7.00917365 L7.31557812,7.88181818 Z M7.04035742,4.45805078 L7.31557812,5.33069531 L6.59510352,4.79138601 L5.87462891,5.33069531 L6.14984961,4.45805078 L5.4293418,3.91874148 L6.31991602,3.91874148 L6.59510352,3.04609695 L6.87029102,3.91874148 L7.76086523,3.91874148 L7.04035742,4.45805078 Z M7.04035742,1.90692791 L7.31557812,2.77957244 L6.59510352,2.24026314 L5.87462891,2.77957244 L6.14984961,1.90692791 L5.4293418,1.36761861 L6.31991602,1.36761861 L6.59510352,0.494974077 L6.87029102,1.36761861 L7.76086523,1.36761861 L7.04035742,1.90692791 Z" id="Shape" fill="#0052B4"></path>
                </g>
            </g>
        </g>
    </g>
</svg>