<svg xmlns="http://www.w3.org/2000/svg" width="92" height="96" viewBox="0 0 92 96">
    <g fill="none" fill-rule="evenodd">
        <path fill="#FFF" d="M-850-215H350v1673H-850z"/>
        <path fill="#874F9C" d="M72.148 12.065c.95-.584 1.901-.973 2.852-1.265C68.156 4.768 59.506.876 50 0v11.19c6.179.778 11.787 3.21 16.54 6.81 1.236-2.432 3.137-4.476 5.608-5.935z"/>
        <path fill="#693E7C" d="M87.77 38.915l-.392.191c-2.448 1.34-5.19 1.915-7.833 1.82a30.47 30.47 0 0 1 .294 4.212c0 4.788-.979 9.288-2.839 13.405l3.916 2.202L86.692 64A43.878 43.878 0 0 0 91 45.043c0-2.777-.294-5.458-.783-8.043a9.345 9.345 0 0 1-2.448 1.915z"/>
        <path fill="#874F9C" d="M90.372 19.003c-1.63-2.856-4.317-4.76-7.291-5.618-1.631-.476-3.358-.476-5.085-.19-.096 0-.288.095-.384.095-.096 0-.288.095-.384.095-.287.096-.48.096-.767.19-.096 0-.192.096-.384.096l-.863.286c-.096 0-.192.095-.288.095-.384.19-.672.38-1.056.571-.48.286-.959.572-1.343.952l-.288.286c-.383.381-.863.667-1.15 1.143-.385.38-.672.762-.96 1.238-.096.095-.096.19-.192.285-.288.476-.576.857-.768 1.333-.287.667-.575 1.333-.767 2.095-.768 2.952-.48 6.19 1.247 9.046 1.631 2.857 4.317 4.761 7.292 5.618.671.19 1.439.286 2.11.381h1.919c.48 0 1.056-.095 1.535-.19h.096a9.483 9.483 0 0 0 1.535-.477c.096 0 .288-.095.384-.095.48-.19 1.055-.476 1.535-.762l.288-.19c.48-.286 1.055-.667 1.439-1.047.096-.096.192-.096.192-.19.384-.382.863-.763 1.151-1.239l.096-.095c1.151-1.333 1.919-2.857 2.399-4.57.767-2.952.383-6.19-1.248-9.142z"/>
        <path fill="#DE6B3E" d="M18.659 65l-4.879 2.786L9 70.476C14.366 77.969 21.976 83.83 30.951 87a14.695 14.695 0 0 1-.292-2.978c0-2.978.878-5.764 2.341-8.07C27.244 73.646 22.268 69.803 18.659 65z"/>
        <path fill="#E39A41" d="M77.313 67.19L73.361 65C69.7 69.857 64.783 73.667 59 76.048a14.975 14.975 0 0 1 2.313 8c0 1.047-.096 2-.289 2.952C69.988 83.857 77.7 78.048 83 70.524l-5.687-3.334zM57.619 86.74c0-.189.095-.283.095-.472 0-.19.096-.473.096-.662 0-.189 0-.283.095-.472 0-.378.095-.756.095-1.134 0-.567-.095-1.134-.095-1.7 0-.095 0-.284-.095-.379a9.82 9.82 0 0 0-.381-1.606s0-.095-.096-.095l-.571-1.417c-.095-.094-.095-.189-.19-.283-.286-.473-.477-.945-.762-1.323v-.095a10.896 10.896 0 0 0-1.334-1.606C52.286 73.323 49.333 72 46 72c-3.333 0-6.286 1.323-8.476 3.496-.476.473-.953 1.04-1.334 1.606v.095c-.285.472-.571.85-.857 1.323-.095.094-.095.189-.095.283l-.571 1.417s0 .095-.096.095c-.19.472-.285 1.04-.38 1.606 0 .095 0 .19-.096.378C34 82.866 34 83.433 34 84c0 .378 0 .756.095 1.134v.378c0 .283.095.567.095.756 0 .094.096.283.096.378.095.283.095.472.19.756 0 .094.095.283.095.378 0 .094.096.189.096.283a11.33 11.33 0 0 0 2.762 4.44C39.619 94.678 42.57 96 45.905 96c3.333 0 6.285-1.323 8.476-3.496 1.238-1.228 2.19-2.74 2.857-4.347 0-.094.095-.188.095-.283.096-.189.096-.283.19-.472 0-.284 0-.473.096-.662z"/>
        <path fill="#71BFCC" d="M12.18 45.11c0-1.432.098-2.863.292-4.294-2.625.096-5.25-.477-7.778-1.812l-.388-.191C3.43 38.24 2.556 37.668 1.778 37 1.292 39.671 1 42.343 1 45.11A43.848 43.848 0 0 0 5.278 64l4.764-2.767L15 58.466c-1.847-4.102-2.82-8.586-2.82-13.356z"/>
        <path fill="#429296" d="M17 10.8c.856.292 1.616.681 2.471 1.07l.38.195c2.472 1.46 4.373 3.6 5.704 5.935 4.658-3.697 10.266-6.032 16.445-6.81V0c-9.506.876-18.156 4.768-25 10.8z"/>
        <path fill="#71BFCC" d="M22.86 20.019c0-.097-.095-.097 0 0a6.172 6.172 0 0 0-.762-1.351c-.095-.097-.19-.193-.19-.386l-.858-1.158-.095-.096c-.381-.386-.762-.772-1.143-1.062l-.286-.29c-.381-.289-.857-.674-1.334-.964h-.095c-.381-.193-.667-.386-1.048-.579-.095-.096-.286-.096-.381-.193-.19-.096-.476-.193-.667-.29-.19-.096-.286-.096-.476-.096-.19-.096-.381-.096-.667-.193-.19 0-.286-.096-.476-.096-.096 0-.286-.097-.381-.097a12.668 12.668 0 0 0-5.05.193c-2.953.772-5.525 2.702-7.24 5.5l-.095.096c-1.62 2.895-2 6.175-1.238 9.166a13.392 13.392 0 0 0 2.381 4.632c0 .096.096.096.096.096.38.483.762.869 1.238 1.254.095.097.19.097.286.193.476.386 1.048.772 1.524 1.158h.095c.477.29.953.483 1.525.772.095.097.19.097.38.097a9.278 9.278 0 0 0 1.525.482h.095c.476.097 1.048.193 1.524.193h2.001c.762-.096 1.429-.193 2.096-.386a11.65 11.65 0 0 0 7.24-5.596c1.62-2.895 2-6.175 1.238-9.166a93.972 93.972 0 0 0-.762-1.833z"/>
    </g>
</svg>
