<?xml version="1.0" encoding="UTF-8"?>
<svg width="187px" height="20px" viewBox="0 0 187 20" version="1.1" xmlns="http://www.w3.org/2000/svg" xmlns:xlink="http://www.w3.org/1999/xlink">
    <!-- Generator: Sketch 49.1 (51147) - http://www.bohemiancoding.com/sketch -->
    <title>Group</title>
    <desc>Created with Sketch.</desc>
    <defs></defs>
    <g id="Page-1" stroke="none" stroke-width="1" fill="none" fill-rule="evenodd">
        <g id="logo-muted" transform="translate(-603.000000, -1195.000000)" fill="#C3C3C3" fill-rule="nonzero">
            <g id="Group" transform="translate(603.000000, 1195.000000)">
                <ellipse id="Oval" cx="6.854" cy="3.154" rx="2.89" ry="3.103"></ellipse>
                <ellipse id="Oval" cx="15.142" cy="3.154" rx="2.89" ry="3.103"></ellipse>
                <path d="M28.922,7.846 C28.5128901,7.5464813 28.0190329,7.38501454 27.512,7.385 C27.345,7.385 27.178,7.41 26.987,7.435 C26.3085679,7.59297108 25.7228409,8.0185609 25.363,8.615 L21.255,15.282 C20.873,15.897 20.754,16.615 20.873,17.333 C21.017,18.051 21.399,18.667 21.972,19.077 C22.545,19.487 23.214,19.615 23.882,19.487 C24.5608021,19.329274 25.1469286,18.903656 25.507,18.307 L29.614,11.641 C29.996,11.026 30.116,10.308 29.996,9.59 C29.8855594,8.88845881 29.4987643,8.26036706 28.922,7.846 Z M0.645,11.641 L4.753,18.308 C5.11284085,18.9044391 5.69856786,19.3300289 6.377,19.488 C7.045,19.641 7.714,19.488 8.287,19.077 C9.457,18.231 9.792,16.538 9.004,15.282 L4.896,8.615 C4.53615915,8.0185609 3.95043214,7.59297108 3.272,7.435 C3.09826269,7.40446514 2.92237882,7.38774615 2.746,7.385 C2.245,7.385 1.767,7.538 1.337,7.846 C0.191,8.692 -0.143,10.385 0.645,11.641 Z" id="Shape"></path>
                <ellipse id="Oval" cx="23.453" cy="3.154" rx="2.89" ry="3.103"></ellipse>
                <path d="M12.395,7.846 C11.9861659,7.54668311 11.4926911,7.38522687 10.986,7.385 C10.819,7.385 10.652,7.41 10.461,7.435 C9.78256786,7.59297108 9.19684085,8.0185609 8.837,8.615 L4.729,15.282 C4.347,15.897 4.227,16.615 4.347,17.333 C4.49,18.051 4.872,18.667 5.445,19.077 C6.018,19.487 6.687,19.615 7.355,19.487 C8.03380207,19.329274 8.61992862,18.903656 8.98,18.307 L13.088,11.641 C13.47,11.026 13.589,10.308 13.47,9.59 C13.3593122,8.88829821 12.972141,8.26018049 12.395,7.846 Z" id="Shape"></path>
                <path d="M8.526,9.59 C8.383,10.308 8.526,11.026 8.908,11.641 L13.016,18.308 C13.3758409,18.9044391 13.9615679,19.3300289 14.64,19.488 C15.309,19.641 16.001,19.488 16.55,19.077 C17.72,18.231 18.055,16.538 17.267,15.282 L13.159,8.615 C12.7991591,8.0185609 12.2134321,7.59297108 11.535,7.435 C11.368,7.41 11.201,7.385 11.01,7.385 C10.508,7.385 10.03,7.538 9.6,7.846 C9.0387799,8.27446686 8.65645044,8.89588586 8.527,9.59 L8.526,9.59 Z" id="Shape"></path>
                <path d="M17.124,8.615 L13.016,15.282 C12.634,15.897 12.514,16.615 12.634,17.333 C12.777,18.051 13.159,18.667 13.732,19.077 C14.306,19.487 14.974,19.615 15.643,19.487 C16.3214321,19.3290289 16.9071591,18.9034391 17.267,18.307 L21.375,11.641 C22.139,10.385 21.829,8.667 20.658,7.846 C20.2491659,7.54668311 19.7556911,7.38522687 19.249,7.385 C19.082,7.385 18.915,7.41 18.724,7.435 C18.0491371,7.58731656 17.4688834,8.01525364 17.124,8.615 Z M38.976,2.846 C38.976,1.692 39.836,0.769 40.911,0.769 L47.144,0.769 C49.15,0.769 50.75,1.359 51.754,2.436 C52.565,3.308 52.971,4.359 52.971,5.641 L52.971,5.692 C52.971,7.821 51.921,9.026 50.655,9.769 C52.685,10.615 53.951,11.872 53.951,14.41 L53.951,14.462 C53.951,17.923 51.323,19.641 47.359,19.641 L40.911,19.641 C39.836,19.641 38.976,18.718 38.976,17.564 L38.976,2.846 Z M46.332,8.41 C48.052,8.41 49.126,7.82 49.126,6.41 L49.126,6.36 C49.126,5.13 48.219,4.411 46.595,4.411 L42.774,4.411 L42.774,8.411 L46.332,8.411 L46.332,8.41 Z M47.359,16.026 C49.079,16.026 50.105,15.385 50.105,13.974 L50.105,13.924 C50.105,12.641 49.222,11.872 47.24,11.872 L42.75,11.872 L42.75,16.026 L47.359,16.026 Z M60.184,17.59 L60.184,2.82 C60.184,1.667 61.044,0.744 62.118,0.744 L71.886,0.744 C72.842,0.744 73.63,1.59 73.63,2.615 C73.63,3.641 72.842,4.462 71.886,4.462 L64.03,4.462 L64.03,8.308 L70.741,8.308 C71.696,8.308 72.484,9.154 72.484,10.179 C72.484,11.205 71.696,12.026 70.741,12.026 L64.03,12.026 L64.03,16 L72.007,16 C72.962,16 73.75,16.846 73.75,17.872 C73.75,18.897 72.962,19.718 72.007,19.718 L62.119,19.718 C61.045,19.667 60.185,18.744 60.185,17.59 L60.184,17.59 Z M79.744,17.667 C79.314,17.333 79.004,16.744 79.004,16.103 C79.004,15.026 79.815,14.179 80.818,14.179 C81.32,14.179 81.678,14.359 81.917,14.564 C83.254,15.615 84.711,16.256 86.431,16.256 C88.007,16.256 88.962,15.59 88.962,14.462 L88.962,14.41 C88.962,13.359 88.365,12.82 85.404,12 C81.845,11.026 79.553,9.974 79.553,6.205 L79.553,6.154 C79.553,2.718 82.132,0.462 85.714,0.462 C87.864,0.462 89.727,1.052 91.303,2.128 C91.733,2.41 92.163,2.974 92.163,3.769 C92.163,4.846 91.351,5.692 90.348,5.692 C89.965,5.692 89.678,5.59 89.368,5.385 C88.078,4.565 86.885,4.103 85.667,4.103 C84.186,4.103 83.397,4.821 83.397,5.743 L83.397,5.795 C83.397,7.025 84.162,7.435 87.195,8.282 C90.777,9.282 92.784,10.667 92.784,13.949 L92.784,14 C92.784,17.77 90.109,19.872 86.311,19.872 C84.066,19.949 81.726,19.179 79.744,17.667 Z M99.256,2.847 C99.256,1.692 100.116,0.769 101.19,0.769 L106.444,0.769 C110.648,0.769 113.204,3.436 113.204,7.308 L113.204,7.359 C113.204,11.744 110.027,14 106.086,14 L103.149,14 L103.149,17.77 C103.149,18.923 102.289,19.846 101.214,19.846 C100.139,19.846 99.28,18.923 99.28,17.769 L99.28,2.846 L99.256,2.846 L99.256,2.847 Z M106.206,10.307 C108.14,10.307 109.286,9.077 109.286,7.436 L109.286,7.385 C109.286,5.513 108.068,4.513 106.134,4.513 L103.149,4.513 L103.149,10.308 L106.205,10.308 L106.206,10.307 Z M119.293,2.667 C119.293,1.513 120.153,0.59 121.228,0.59 C122.302,0.59 123.162,1.513 123.162,2.667 L123.162,17.744 C123.162,18.897 122.302,19.821 121.228,19.821 C120.153,19.821 119.293,18.897 119.293,17.744 L119.293,2.667 Z M130.637,2.847 C130.637,1.692 131.497,0.769 132.572,0.769 L138.686,0.769 C140.931,0.769 142.674,1.436 143.82,2.692 C144.8,3.744 145.325,5.231 145.325,7.026 L145.325,7.076 C145.325,10.051 143.94,11.897 141.79,12.846 L144.49,16.359 C144.871,16.872 145.11,17.308 145.11,17.949 C145.11,19.103 144.203,19.872 143.271,19.872 C142.387,19.872 141.814,19.41 141.361,18.795 L137.587,13.667 L134.482,13.667 L134.482,17.795 C134.482,18.949 133.622,19.872 132.548,19.872 C131.473,19.872 130.613,18.949 130.613,17.795 L130.637,2.846 L130.637,2.847 Z M138.447,9.949 C140.334,9.949 141.408,8.872 141.408,7.282 L141.408,7.231 C141.408,5.436 140.262,4.538 138.351,4.538 L134.506,4.538 L134.506,9.974 L138.446,9.949 L138.447,9.949 Z M150.89,17 L157.027,2.103 C157.457,1.077 158.245,0.462 159.297,0.462 L159.511,0.462 C160.562,0.462 161.326,1.077 161.756,2.102 L167.894,17 C168.014,17.308 168.085,17.564 168.085,17.846 C168.085,18.949 167.273,19.846 166.246,19.846 C165.339,19.846 164.742,19.282 164.383,18.41 L163.189,15.436 L155.475,15.436 L154.233,18.538 C153.899,19.359 153.254,19.846 152.442,19.846 C151.439,19.846 150.651,18.974 150.651,17.897 C150.675,17.59 150.771,17.307 150.89,17 Z M161.804,11.744 L159.368,5.487 L156.932,11.744 L161.804,11.744 Z M174.199,2.667 C174.199,1.513 175.059,0.59 176.133,0.59 C177.208,0.59 178.068,1.513 178.068,2.667 L178.068,15.897 L185.233,15.897 C186.212,15.897 187,16.744 187,17.795 C187,18.846 186.212,19.692 185.233,19.692 L176.11,19.692 C175.035,19.692 174.175,18.769 174.175,17.615 L174.199,2.667 Z" id="Shape"></path>
                <path d="M17.148,11.641 L21.255,18.308 C21.6148409,18.9044391 22.2005679,19.3300289 22.879,19.488 C23.549,19.641 24.241,19.488 24.79,19.077 C25.96,18.231 26.295,16.538 25.507,15.282 L21.399,8.615 C21.0391591,8.0185609 20.4534321,7.59297108 19.775,7.435 C19.608,7.41 19.44,7.385 19.249,7.385 C18.748,7.385 18.27,7.538 17.84,7.846 C16.694,8.692 16.383,10.385 17.148,11.641 Z" id="Shape"></path>
            </g>
        </g>
    </g>
</svg>