<svg width="175" height="131" viewBox="0 0 175 131" fill="none" xmlns="http://www.w3.org/2000/svg">
<path d="M157.02 31.8753C155.759 24.8402 151.685 18.6638 150.289 11.5666C149.948 12.3322 149.131 16.0049 149.7 16.9567L149.855 17.1326C149.791 17.0866 149.738 17.0265 149.7 16.9567C145.451 12.3322 144.934 5.33842 141.625 0C139.958 3.00283 139.238 6.43958 139.557 9.85952C139.857 13.253 140.551 16.6 141.625 19.8328L138.968 15.3014C139.091 20.5323 140.054 25.7094 141.822 30.6338C141.347 30.0842 140.789 29.6128 140.167 29.2372C140.257 33.3784 141.008 37.4787 142.39 41.3831L142.68 42.1176C144.189 46.0077 145.781 50.0322 145.399 54.305C145.222 56.4058 144.737 58.4693 143.962 60.4297C143.347 58.9115 142.564 57.4677 141.625 56.1258C142.533 55.2804 143.145 54.1656 143.372 52.9457C143.6 51.7258 143.429 50.4651 142.886 49.3493C141.853 46.9698 139.599 45.2938 137.82 43.9488C136.042 42.6039 133.912 41.1245 131.979 39.8105C131.358 39.3967 130.748 38.9725 130.138 38.5484C129.528 38.1242 128.463 37.2758 127.398 36.4792C126.333 35.6826 125.268 34.8032 124.689 34.41C124.503 34.2859 124.276 34.1617 124.038 34.0272C123.459 33.6962 122.725 33.2927 122.601 32.7754C122.586 32.7027 122.549 32.6363 122.495 32.5846C122.442 32.533 122.374 32.4986 122.301 32.4857C121.954 32.4339 121.599 32.4658 121.267 32.5788C121.177 32.364 121.006 32.1931 120.792 32.1029C120.555 32.0131 120.294 32.0131 120.057 32.1029C119.951 31.8076 119.797 31.5316 119.603 31.2856C119.549 31.2206 119.475 31.1752 119.393 31.1565C119.31 31.1378 119.224 31.1468 119.148 31.1822C117.71 31.8857 117.235 34.1411 117.442 35.5067C117.752 37.5759 120.109 39.9554 121.309 40.9486C122.094 41.6107 122.911 42.2832 123.728 42.9453L126.592 45.3145C128.4 46.8269 130.068 48.4994 131.575 50.3115C131.733 50.5043 131.848 50.7287 131.912 50.9695C131.977 51.2104 131.989 51.4623 131.948 51.7082C131.932 51.849 131.885 51.9844 131.81 52.1044C131.734 52.2244 131.633 52.3259 131.513 52.4013C131.19 52.5479 130.833 52.6085 130.479 52.5772H130.055C128.587 52.5772 127.109 52.5772 125.641 52.7324C125.614 52.4405 125.525 52.1577 125.381 51.9026C125.236 51.6476 125.04 51.4261 124.803 51.253C124.331 50.9385 123.806 50.7141 123.252 50.5908C122.608 50.4888 122.018 50.1716 121.577 49.6908C121.469 49.5131 121.386 49.3217 121.329 49.1217C121.26 48.8539 121.148 48.5989 120.998 48.3665C120.347 47.425 119.044 47.5699 118.341 47.7044C117.442 45.544 116.16 43.5638 114.557 41.859L114.268 41.5383C112.872 40.0588 111.3 38.4346 111.776 36.5827C111.876 36.2762 111.993 35.9757 112.127 35.6826C112.416 35.1762 112.582 34.6093 112.613 34.0272C112.572 33.339 112.331 32.6776 111.921 32.1236C110.459 29.9704 108.657 28.0696 106.585 26.4955L105.024 25.1506C103.046 23.3892 101.332 21.3507 99.9374 19.0983L99.6789 18.6845C98.8869 17.5247 98.1951 16.2994 97.611 15.0221C97.2182 14.0496 96.9183 13.9875 96.0808 13.9875H96.0188C96.0224 13.741 95.9379 13.5014 95.7806 13.3117C95.6232 13.122 95.4034 12.9948 95.1607 12.9529C95.1607 12.1046 94.7471 11.8356 94.4266 11.7735C93.496 11.5666 92.2243 12.9839 91.8831 13.8426C90.9939 16.0359 92.0589 18.1879 92.9998 20.0501C93.1445 20.3501 93.2996 20.6502 93.434 20.9398C94.65 23.3924 96.1378 25.7002 97.8695 27.8198C98.8414 29.082 99.7616 30.4373 100.64 31.7408C101.519 33.0444 102.377 34.2962 103.318 35.5274C102.654 37.4282 101.761 39.2416 100.661 40.9279C100.546 41.0879 100.439 41.2537 100.341 41.4245C100.037 41.9514 99.6908 42.453 99.3067 42.9246C99.123 43.1221 98.9185 43.299 98.6967 43.4522L98.2211 43.8454C98.1383 43.7419 98.0556 43.6281 97.9729 43.504C97.8902 43.3798 97.8075 43.266 97.7248 43.1626C97.686 43.1134 97.6351 43.0752 97.5771 43.0516C97.5191 43.0281 97.456 43.0199 97.3939 43.0281C97.3319 43.0347 97.2727 43.0572 97.222 43.0935C97.1713 43.1297 97.1308 43.1785 97.1044 43.235C96.5254 44.3834 96.8253 46.256 97.1044 47.7664C97.7041 50.5494 100.32 52.391 102.615 53.9739C103.205 54.3877 103.763 54.7809 104.259 55.1637C104.445 55.3189 106.048 56.7673 106.813 57.5018C103.105 58.4773 99.2675 58.8648 95.4398 58.6502C94.3227 58.6418 93.2174 58.4206 92.183 57.9984H92.2553C92.793 57.926 93.1859 57.8743 93.2893 57.4915C93.3926 57.1087 93.0308 57.0052 92.8964 56.9018C92.2243 56.6121 91.5316 56.3534 90.8285 56.1258C89.827 55.8298 88.8599 55.4275 87.9439 54.9257C87.1781 54.4291 86.4583 53.8647 85.7933 53.2393C85.1284 52.6016 84.4088 52.0234 83.6428 51.5116C80.2412 49.3597 75.8263 50.0322 72.373 50.8598C71.7094 50.9829 71.0703 51.2136 70.481 51.5426C69.8381 51.8765 69.2376 52.2864 68.6923 52.7634L68.5992 52.8255C67.9179 53.187 67.174 53.4152 66.4073 53.498L65.5181 53.6739C65.2493 53.736 64.9908 53.8187 64.753 53.8911C64.3393 54.0346 63.908 54.1216 63.471 54.1498C63.4841 54.0896 63.482 54.027 63.465 53.9678C63.448 53.9085 63.4166 53.8545 63.3735 53.8104C63.3305 53.7663 63.2772 53.7336 63.2184 53.7152C63.1596 53.6968 63.0972 53.6932 63.0367 53.7049C62.3692 53.8414 61.7295 54.0897 61.1447 54.4395C60.4715 54.9013 59.6643 55.1269 58.8493 55.0809C57.4574 54.8863 56.129 54.3736 54.9671 53.5823C53.8052 52.7911 52.8411 51.7427 52.1495 50.5184C50.4126 47.5906 51.767 44.0937 50.64 41.0106C50.5263 40.7106 49.7819 39.5829 49.3993 39.7071C49.0168 39.8312 48.6756 42.4177 48.5308 42.8729C47.7419 45.1567 46.5163 47.265 44.9224 49.0803C43.4704 50.5076 41.9266 51.8381 40.3008 53.0635C40.3835 52.7738 40.4766 52.4841 40.58 52.2048C40.6834 51.9254 40.8798 51.4288 41.0349 51.0564C41.9154 49.2969 42.4922 47.401 42.7409 45.449C42.927 42.8936 42.7409 39.1588 41.7069 36.8103C41.0265 35.5387 40.1108 34.4082 39.0084 33.4789C37.4679 32.0098 34.1076 29.6613 31.8537 30.9442C31.0265 31.4201 31.2643 32.6513 31.5228 33.572C32.5749 37.6986 32.2592 42.0554 30.6233 45.987C29.9615 47.2105 29.1139 48.3238 28.1109 49.2873C26.7518 50.5177 25.7212 52.0682 25.1125 53.798C24.9062 54.819 24.8539 55.8652 24.9574 56.9018L25.2676 62.7057C23.4893 62.7057 21.7213 63.8334 20.3461 64.8887C19.9532 65.1887 19.5707 65.5094 19.1985 65.8095C18.2437 66.6895 17.1679 67.4282 16.0037 68.0028C14.9077 68.4359 13.7612 68.728 12.5917 68.8718C11.6939 68.9999 10.8061 69.19 9.93455 69.4408C9.87343 69.4623 9.81819 69.4978 9.77329 69.5445C9.7284 69.5912 9.6951 69.6479 9.67607 69.7098C9.66211 69.7716 9.66328 69.8359 9.67948 69.8971C9.69568 69.9584 9.72644 70.0148 9.76913 70.0616L9.85184 70.1443C8.67945 70.2802 7.53533 70.5978 6.46058 71.0858C6.40086 71.1152 6.35069 71.1609 6.31591 71.2177C6.28114 71.2745 6.26318 71.3399 6.26414 71.4065C6.26414 72.2549 7.00856 72.648 7.56688 72.9481C7.71162 73.0101 7.83569 73.0825 7.94943 73.1446C8.23892 73.3308 8.52842 73.5481 8.80758 73.7654C9.35119 74.1972 9.9448 74.5619 10.5756 74.8517L11.8887 75.431C12.87 75.9049 13.8862 76.3026 14.9284 76.6208C14.8011 76.6534 14.6837 76.7166 14.5864 76.805C14.4891 76.8933 14.4148 77.0041 14.3701 77.1277C14.3328 77.2244 14.3199 77.3288 14.3326 77.4316C14.3452 77.5345 14.3829 77.6327 14.4424 77.7175C14.6906 78.0589 15.2282 78.1002 15.7969 78.1106H15.9623C17.7147 78.2347 19.4754 78.1723 21.2146 77.9244C22.1452 77.7795 23.0964 77.5726 24.0166 77.376C25.2676 77.1071 26.5497 76.8381 27.8214 76.6932C31.771 76.238 35.0588 78.8451 37.9021 81.1523C38.6776 81.773 39.484 82.4144 40.2801 82.9938C44.7397 86.1257 49.4901 88.8212 54.4655 91.0428C64.6468 95.7501 75.5363 98.739 86.6928 99.8885C88.7607 100.109 90.8285 100.285 92.8964 100.416C108.343 101.451 124.317 99.7746 138.958 87.4839C141.033 85.7798 142.729 83.6591 143.934 81.2587C145.14 78.8583 145.829 76.2316 145.957 73.5481C148.256 70.4261 150.191 67.0523 151.726 63.492C152.73 61.165 153.586 58.7773 154.291 56.3431C155.436 52.4886 156.307 48.5577 156.896 44.5799C157.637 40.3808 157.679 36.0881 157.02 31.8753Z" fill="#FFD200"/>
<path d="M160.442 98.5124C160.503 97.9907 160.391 97.4635 160.122 97.0123C159.912 96.5882 159.656 96.1891 159.357 95.8225C158.946 95.2872 158.5 94.7792 158.023 94.3017C157.499 93.769 156.947 93.2648 156.369 92.7912C155.821 92.3374 155.221 91.9517 154.58 91.6428C154.051 91.3818 153.474 91.2305 152.884 91.198C152.626 91.1884 152.369 91.2342 152.13 91.3323C151.891 91.4305 151.676 91.5787 151.499 91.767C150.589 92.6671 150.713 94.0844 150.837 95.4604C150.903 96.0096 150.927 96.5629 150.91 97.1158V97.1778H150.837C150.63 97.1157 150.424 97.0433 150.217 96.9606C149.456 96.6102 148.653 96.3599 147.829 96.2157C147.717 96.2044 147.605 96.2379 147.518 96.3088C147.436 96.4122 147.518 96.6605 147.725 97.0019C147.796 97.105 147.876 97.2019 147.963 97.2916L148.428 97.7986L149.049 98.4814L149.741 99.247L151.085 100.757C151.394 101.086 151.684 101.431 151.954 101.792C152.117 102.016 152.3 102.223 152.502 102.413L153.029 102.94C153.189 103.102 153.362 103.251 153.546 103.385C153.727 103.517 153.925 103.621 154.135 103.696C154.332 103.747 154.539 103.747 154.735 103.696C154.953 103.656 155.152 103.547 155.304 103.385C155.476 103.23 155.607 103.034 155.686 102.816C155.759 102.647 155.791 102.462 155.779 102.278C155.78 102.108 155.748 101.94 155.686 101.782C155.624 101.627 155.573 101.471 155.511 101.347C155.231 100.892 154.932 100.385 154.601 99.8057C154.27 99.2263 153.98 98.6883 153.681 98.0986C153.381 97.5089 153.133 96.9295 152.905 96.3502C152.7 95.7995 152.531 95.2362 152.398 94.6638C152.357 94.4242 152.357 94.1792 152.398 93.9396C152.408 93.8478 152.449 93.7622 152.516 93.6979C152.582 93.6336 152.668 93.5946 152.76 93.5878C153.013 93.6077 153.253 93.7094 153.443 93.8775C153.826 94.1578 154.173 94.4844 154.477 94.85C154.714 95.1397 154.963 95.4501 155.211 95.7915C155.459 96.1329 155.728 96.464 156.007 96.8261C156.286 97.1882 156.565 97.5089 156.844 97.8606C157.124 98.2124 157.392 98.4504 157.692 98.7297C158.047 99.0501 158.477 99.2745 158.943 99.3815C159.289 99.467 159.655 99.4304 159.977 99.278C160.103 99.1894 160.21 99.0757 160.29 98.9439C160.37 98.8122 160.422 98.6653 160.442 98.5124Z" fill="#00ADEE"/>
<path d="M146.939 98.9677H146.857C145.823 98.9677 144.293 100.799 143.838 101.492C143.618 101.814 143.438 102.162 143.3 102.527C142.793 103.752 142.793 105.129 143.3 106.355C143.548 106.903 143.899 107.398 144.334 107.813C144.762 108.217 145.269 108.527 145.823 108.724C146.514 108.954 147.258 108.979 147.963 108.796C148.653 108.626 149.294 108.296 149.834 107.834C150.362 107.368 150.782 106.793 151.065 106.148C151.344 105.496 151.426 104.777 151.303 104.078C151.228 103.637 151.066 103.215 150.827 102.837C150.464 102.396 150.016 102.033 149.51 101.77C149.004 101.507 148.449 101.349 147.88 101.306L147.177 101.14H147.095C147.089 101.131 147.086 101.12 147.086 101.109C147.086 101.098 147.089 101.088 147.095 101.078C147.084 101.052 147.084 101.022 147.095 100.995C147.487 100.644 147.839 100.085 147.632 99.6194C147.595 99.4539 147.509 99.3034 147.386 99.1872C147.262 99.071 147.107 98.9946 146.939 98.9677ZM147.146 102.547C147.426 102.43 147.733 102.393 148.032 102.441C148.332 102.488 148.612 102.618 148.842 102.816C149.098 103.03 149.303 103.299 149.442 103.603C149.576 103.908 149.626 104.244 149.586 104.575C149.552 104.948 149.42 105.304 149.204 105.61C148.932 105.985 148.548 106.264 148.108 106.406C147.916 106.477 147.713 106.512 147.508 106.51C147.263 106.508 147.021 106.458 146.795 106.365C146.604 106.296 146.429 106.188 146.283 106.047C146.137 105.906 146.023 105.736 145.947 105.548C145.809 105.181 145.763 104.787 145.812 104.399C145.858 104.009 146.005 103.637 146.239 103.321C146.473 103.005 146.786 102.756 147.146 102.599V102.547Z" fill="#00ADEE"/>
<path d="M168.269 90.66C168.254 90.5793 168.222 90.5027 168.176 90.435C168.13 90.3673 168.07 90.3101 168 90.2668C166.106 88.8608 164.287 87.3551 162.552 85.7561C160.887 84.2141 159.312 82.5767 157.837 80.8522C157.724 80.6986 157.578 80.5724 157.41 80.4829C157.242 80.3933 157.055 80.3428 156.865 80.3349C156.525 80.3271 156.193 80.445 155.934 80.666C155.672 80.9109 155.503 81.2405 155.459 81.5971C155.404 82.0576 155.522 82.5221 155.79 82.9006C155.924 83.1179 156.1 83.3662 156.307 83.6352C156.513 83.9042 156.751 84.1939 157.02 84.4836C157.289 84.7732 157.547 85.0629 157.827 85.3422C158.106 85.6216 158.385 85.8802 158.643 86.1182C158.654 86.1296 158.659 86.1443 158.659 86.1596C158.659 86.1748 158.654 86.1896 158.643 86.2009C158.639 86.2156 158.631 86.2289 158.62 86.2398C158.609 86.2506 158.596 86.2586 158.581 86.263C157.8 86.3364 157.069 86.6803 156.513 87.2355C156.144 87.6742 155.953 88.2351 155.976 88.8081C156.021 89.4428 156.22 90.057 156.555 90.5979C156.895 91.1876 157.332 91.7157 157.847 92.1601C158.112 92.4116 158.391 92.6466 158.685 92.8636C159.067 93.1326 159.47 93.3913 159.874 93.6189C160.315 93.858 160.775 94.0621 161.249 94.2293C161.69 94.3901 162.154 94.4809 162.624 94.4983C163.049 94.5163 163.473 94.4385 163.865 94.2707C164.265 94.0781 164.587 93.7528 164.775 93.3499C164.928 93.0611 164.992 92.7337 164.961 92.4084C164.917 92.0509 164.819 91.7022 164.671 91.3738C164.519 91.0134 164.336 90.6672 164.123 90.3393L163.586 89.4599C163.575 89.4468 163.569 89.4303 163.569 89.4133C163.569 89.3963 163.575 89.3798 163.586 89.3668C163.601 89.3565 163.619 89.3511 163.637 89.3511C163.656 89.3511 163.674 89.3565 163.689 89.3668C163.978 89.5116 164.289 89.6875 164.609 89.8634L165.643 90.4324L166.677 90.9497L167.39 91.2807C167.459 91.3116 167.533 91.3275 167.607 91.3275C167.682 91.3275 167.756 91.3116 167.825 91.2807C167.963 91.2389 168.083 91.1513 168.166 91.0324C168.248 90.9268 168.285 90.7929 168.269 90.66ZM161.59 91.0221C161.557 91.0772 161.515 91.1263 161.466 91.1669C161.403 91.2442 161.324 91.3073 161.235 91.3519C161.146 91.3965 161.049 91.4216 160.949 91.4256C160.594 91.3527 160.271 91.1677 160.029 90.8979L159.843 90.7324C159.366 90.3273 158.932 89.8731 158.55 89.3771C158.228 88.9794 158.024 88.499 157.961 87.9908C157.934 87.7703 157.995 87.5482 158.131 87.3721C158.266 87.1961 158.465 87.0802 158.685 87.0493C159.863 86.8424 161.342 88.3529 161.724 89.4288C161.832 89.696 161.873 89.9852 161.844 90.2717C161.815 90.5582 161.718 90.8335 161.559 91.0738L161.59 91.0221Z" fill="#00ADEE"/>
<path d="M97.0113 114.052C96.9051 114.318 96.8592 114.604 96.8769 114.89C96.8244 116.959 97.0258 119.026 97.4766 121.046C97.6317 121.646 97.7971 122.225 97.9936 122.794C98.1809 123.35 98.4055 123.893 98.6656 124.418C98.9024 124.894 99.2015 125.336 99.5548 125.732C99.8733 126.083 100.26 126.365 100.692 126.56C101.146 126.75 101.642 126.814 102.129 126.746C102.554 126.705 102.956 126.539 103.287 126.27C103.613 126.003 103.89 125.681 104.104 125.318C104.323 124.948 104.503 124.556 104.642 124.149C104.778 123.779 104.886 123.398 104.962 123.011C105.213 121.903 105.393 120.78 105.5 119.649C105.512 119.389 105.54 119.13 105.583 118.873C105.729 117.745 105.788 116.607 105.758 115.469C105.758 114.973 105.324 114.238 104.952 114.197C104.58 114.155 104.559 114.486 104.476 114.755C104.402 115.058 104.354 115.366 104.331 115.676C104.261 117.016 104.102 118.35 103.856 119.67C103.626 120.796 103.279 121.895 102.822 122.949C102.704 123.366 102.449 123.73 102.098 123.984C102.053 124.004 102.003 124.015 101.953 124.015C101.904 124.015 101.854 124.004 101.809 123.984C101.633 123.984 101.468 123.746 101.302 123.425C101.112 123.053 100.953 122.665 100.826 122.266C100.682 121.842 100.558 121.387 100.444 120.932C100.33 120.477 100.227 120.021 100.123 119.587C100.02 119.152 99.9166 118.738 99.8133 118.376L99.7409 118.107C99.4392 116.671 98.8749 115.303 98.0763 114.072C97.9626 113.893 97.7853 113.764 97.58 113.71H97.5179C97.4123 113.722 97.3111 113.76 97.2229 113.819C97.1347 113.879 97.0622 113.958 97.0113 114.052Z" fill="#00ADEE"/>
<path d="M132.516 101.254C131.358 103.416 134.76 110.11 135.618 111.383C136.515 112.784 137.573 114.076 138.771 115.231C139.247 115.635 139.516 115.707 139.65 115.686C139.785 115.666 139.919 115.614 139.909 115.273V115.21C139.918 115.205 139.929 115.202 139.94 115.202C139.951 115.202 139.961 115.205 139.971 115.21C140.443 115.227 140.906 115.081 141.284 114.797C141.663 114.499 141.977 114.126 142.204 113.7C142.44 113.249 142.618 112.769 142.731 112.272C142.841 111.818 142.9 111.353 142.907 110.886C142.916 110.346 142.878 109.806 142.793 109.272C142.713 108.741 142.574 108.221 142.38 107.72C142.195 107.226 141.963 106.752 141.687 106.303C141.425 105.877 141.117 105.481 140.767 105.123C140.426 104.81 140.009 104.592 139.557 104.492C139.296 104.443 139.026 104.458 138.771 104.538C138.517 104.617 138.286 104.758 138.099 104.947C136.91 106.117 136.745 108.982 136.921 110.182C136.932 110.195 136.938 110.212 136.938 110.229C136.938 110.246 136.932 110.263 136.921 110.276C136.905 110.286 136.887 110.291 136.869 110.291C136.851 110.291 136.833 110.286 136.817 110.276C135.929 108.433 135.44 106.423 135.38 104.378V103.489C135.546 102.639 135.379 101.757 134.915 101.026C134.768 100.887 134.594 100.78 134.403 100.713C134.213 100.645 134.01 100.618 133.809 100.633C133.556 100.592 133.296 100.629 133.065 100.74C132.834 100.851 132.642 101.031 132.516 101.254ZM138.399 108.331C138.482 107.937 138.72 107.027 139.216 106.903C139.454 106.903 139.702 106.986 139.95 107.317C140.38 108.048 140.615 108.878 140.632 109.727C140.705 110.414 140.726 111.106 140.695 111.796C140.712 112.314 140.535 112.82 140.198 113.214C140.085 113.315 139.937 113.371 139.785 113.369C139.319 113.369 138.916 112.759 138.751 111.931L138.699 111.683C138.388 110.594 138.286 109.457 138.399 108.331Z" fill="#00ADEE"/>
<path d="M115.105 116.142C114.911 115.583 114.607 115.069 114.211 114.63C113.815 114.191 113.335 113.836 112.799 113.586C112.515 113.482 112.213 113.43 111.91 113.431C111.352 113.444 110.805 113.593 110.318 113.866C110.029 114.001 109.755 114.168 109.501 114.362C108.996 114.741 108.559 115.203 108.209 115.728C107.856 116.257 107.568 116.827 107.351 117.424C107.144 118.02 107.009 118.638 106.947 119.266C106.886 119.861 106.925 120.463 107.061 121.046C107.171 121.517 107.313 121.98 107.485 122.432C107.67 122.877 107.909 123.298 108.198 123.684C108.487 124.045 108.837 124.354 109.232 124.594C109.671 124.836 110.169 124.95 110.669 124.925C111.172 124.906 111.654 124.717 112.034 124.387C112.404 124.067 112.706 123.677 112.923 123.239C113.157 122.8 113.328 122.329 113.43 121.842C113.533 121.356 113.616 120.89 113.678 120.487C113.683 120.471 113.69 120.457 113.701 120.445C113.712 120.432 113.725 120.422 113.739 120.415C113.754 120.409 113.77 120.405 113.786 120.405C113.802 120.405 113.818 120.408 113.833 120.414C114.123 121.035 114.433 121.635 114.764 122.225C115.085 122.792 115.493 123.306 115.973 123.746C116.263 123.973 116.48 124.046 116.615 123.963C116.749 123.88 116.749 123.808 116.749 123.394C116.628 120.899 116.072 118.444 115.105 116.142ZM112.396 120.725C112.396 120.89 112.282 121.056 112.241 121.211C112.159 121.57 112.034 121.917 111.869 122.246C111.621 122.649 111.383 122.866 111.124 122.908H111C110.773 122.898 110.559 122.802 110.401 122.639C110.171 122.383 110.001 122.079 109.904 121.749C109.785 121.339 109.725 120.914 109.729 120.487C109.728 119.873 109.833 119.265 110.039 118.687C110.12 118.395 110.273 118.128 110.484 117.911C110.696 117.694 110.959 117.533 111.248 117.445C111.472 117.421 111.697 117.459 111.9 117.556C112.103 117.653 112.275 117.805 112.396 117.994C112.501 118.119 112.582 118.263 112.634 118.418C112.81 119.192 112.727 120.003 112.396 120.725Z" fill="#00ADEE"/>
<path d="M83.9633 124.811C84.1861 124.484 84.3798 124.138 84.5422 123.777L85.0075 122.856C85.019 122.851 85.0313 122.849 85.0437 122.849C85.0561 122.849 85.0684 122.851 85.0799 122.856C85.0958 122.861 85.11 122.871 85.1209 122.884C85.1318 122.896 85.1391 122.912 85.1419 122.928C85.1441 123.274 85.1648 123.62 85.204 123.963C85.1937 124.357 85.2144 124.752 85.266 125.142C85.328 125.536 85.266 125.908 85.3384 126.249C85.4107 126.591 85.4004 126.85 85.4314 127.036C85.438 127.11 85.4597 127.183 85.4952 127.249C85.5308 127.314 85.5794 127.372 85.6382 127.419C85.7437 127.515 85.8784 127.573 86.0208 127.584C86.1547 127.594 86.2875 127.553 86.393 127.47C86.4582 127.418 86.5107 127.352 86.5465 127.277C86.5824 127.202 86.6006 127.119 86.5997 127.036C86.9185 123.98 87.4052 120.944 88.0576 117.942C88.3471 116.462 88.6469 114.942 88.8951 113.452C89.0702 112.773 89.0702 112.061 88.8951 111.383C88.8121 111.056 88.6131 110.771 88.3352 110.58C88.0574 110.39 87.7198 110.307 87.3855 110.348C86.8686 110.483 86.5067 110.989 86.2585 111.921C86.1965 112.127 86.1448 112.355 86.0931 112.572C85.8561 113.8 85.6903 115.04 85.5968 116.286C85.5799 116.674 85.542 117.061 85.4831 117.445C85.4833 117.463 85.4771 117.48 85.4657 117.493C85.4543 117.506 85.4384 117.515 85.4211 117.518C85.4001 117.513 85.3815 117.501 85.3683 117.484C85.3551 117.467 85.3482 117.446 85.3487 117.425C85.1872 117.015 84.9405 116.645 84.625 116.338C84.2412 115.942 83.7417 115.677 83.1981 115.583C82.6329 115.502 82.0579 115.635 81.5852 115.955C81.0671 116.326 80.6452 116.816 80.3549 117.383C80.0342 117.984 79.8174 118.634 79.7138 119.307C79.6328 119.648 79.5775 119.993 79.5484 120.342C79.5174 120.811 79.5174 121.281 79.5484 121.749C79.5777 122.25 79.6434 122.748 79.7449 123.239C79.8384 123.702 80.0022 124.149 80.2308 124.563C80.4395 124.934 80.7293 125.252 81.0786 125.494C81.4573 125.723 81.8994 125.825 82.34 125.784C82.668 125.775 82.9839 125.659 83.2395 125.453C83.5122 125.277 83.7563 125.061 83.9633 124.811ZM82.2573 122.225C81.2854 121.635 82.2573 119.049 82.4434 118.532C82.6061 118.048 82.9083 117.623 83.3119 117.311C83.4843 117.172 83.7041 117.106 83.9244 117.128C84.1446 117.149 84.3478 117.255 84.4905 117.425C85.1316 118.159 84.9558 120.528 83.9012 121.77C83.782 121.938 83.6279 122.079 83.4495 122.182C83.2711 122.286 83.0726 122.35 82.8673 122.37C82.6453 122.368 82.4277 122.307 82.2366 122.194L82.2573 122.225Z" fill="#00ADEE"/>
<path d="M136.228 116.711C136.093 116.15 135.898 115.606 135.649 115.086L135.577 114.921C134.996 113.5 134.326 112.118 133.571 110.783C133.092 109.848 132.38 109.053 131.503 108.475C130.922 108.145 130.269 107.96 129.601 107.937C129.341 107.939 129.084 107.977 128.835 108.051C126.602 108.786 125.548 112.572 125.827 114.755C125.9 115.352 126.072 115.932 126.333 116.473C126.541 116.91 126.779 117.332 127.047 117.735C127.327 118.119 127.653 118.466 128.019 118.769C128.38 119.065 128.794 119.29 129.239 119.432C129.722 119.566 130.233 119.566 130.717 119.432C131.2 119.302 131.626 119.015 131.927 118.614C132.22 118.219 132.43 117.768 132.547 117.29C132.673 116.811 132.732 116.316 132.723 115.821V114.445C132.717 114.439 132.712 114.432 132.709 114.424C132.705 114.416 132.704 114.407 132.704 114.398C132.704 114.39 132.705 114.381 132.709 114.373C132.712 114.365 132.717 114.358 132.723 114.352C132.729 114.346 132.736 114.341 132.744 114.338C132.752 114.334 132.761 114.333 132.769 114.333C132.778 114.333 132.787 114.334 132.795 114.338C132.803 114.341 132.81 114.346 132.816 114.352C133.23 114.879 133.664 115.386 134.119 115.904C134.558 116.388 135.071 116.8 135.639 117.124C135.918 117.28 136.114 117.331 136.207 117.269C136.3 117.207 136.3 117.052 136.228 116.711ZM131.4 115.521C131.398 115.871 131.349 116.219 131.255 116.555C131.1 117.011 130.914 117.269 130.665 117.362C130.579 117.405 130.483 117.426 130.386 117.425C130.216 117.419 130.051 117.365 129.911 117.269C129.629 117.072 129.396 116.814 129.228 116.514C129.024 116.141 128.874 115.74 128.784 115.324C128.598 114.497 128.267 112.49 129.115 111.745C129.253 111.577 129.432 111.449 129.636 111.373C129.839 111.297 130.058 111.275 130.273 111.31C130.665 111.434 130.955 111.879 131.151 112.634C131.358 113.582 131.441 114.552 131.4 115.521Z" fill="#00ADEE"/>
<path d="M122.549 130.088C123.12 130.088 123.686 129.975 124.214 129.757C124.984 129.448 125.643 128.914 126.106 128.225C126.521 127.569 126.779 126.825 126.861 126.053C126.961 125.206 126.936 124.348 126.788 123.508C126.64 122.621 126.43 121.747 126.158 120.89C125.682 119.38 125.124 117.787 124.514 116.173L123.118 112.479C123.108 112.449 123.108 112.416 123.118 112.386C123.81 111.758 124.296 110.936 124.514 110.027C124.576 109.748 124.607 109.262 124.286 109.138C124.1 109.097 123.904 109.126 123.738 109.22L120.068 110.7C119.457 110.931 118.904 111.294 118.449 111.762C117.993 112.231 117.646 112.793 117.431 113.41C117.161 114.014 116.986 114.656 116.914 115.314C116.832 115.97 116.832 116.634 116.914 117.29C117.011 117.917 117.188 118.529 117.442 119.111C117.672 119.659 117.975 120.174 118.341 120.642C118.655 121.06 119.048 121.412 119.499 121.677C119.914 121.988 120.431 122.132 120.947 122.08C121.396 122.011 121.822 121.833 122.187 121.563C122.549 121.303 122.858 120.976 123.097 120.601C123.315 120.289 123.47 119.937 123.552 119.566C123.554 119.548 123.563 119.53 123.576 119.517C123.589 119.504 123.606 119.496 123.624 119.494C123.644 119.494 123.662 119.501 123.676 119.515C123.689 119.528 123.697 119.547 123.697 119.566C123.769 119.907 123.852 120.301 123.935 120.735C124.017 121.17 124.11 121.635 124.193 122.111C124.182 122.261 124.211 122.411 124.276 122.546C124.472 123.58 124.751 124.925 123.935 125.649C123.357 126.034 122.675 126.233 121.981 126.218H121.732C121.152 126.239 120.58 126.354 120.037 126.56C119.742 126.68 119.494 126.892 119.328 127.164C119.163 127.435 119.089 127.753 119.117 128.07C119.468 129.322 121.34 130.088 122.549 130.088ZM122.456 119.483C122.344 119.653 122.19 119.791 122.009 119.883C121.827 119.976 121.625 120.02 121.422 120.011C121.218 120.006 121.016 119.971 120.823 119.907C119.716 119.535 119.644 118.573 119.572 117.631C119.518 116.997 119.584 116.358 119.768 115.748C119.933 115.2 120.44 114.145 121.153 114C121.355 113.971 121.561 114.003 121.745 114.092C121.929 114.18 122.083 114.321 122.187 114.497C122.859 115.355 123.294 118.283 122.456 119.483Z" fill="#00ADEE"/>
<path d="M170.492 85.7768C170.865 85.7058 171.219 85.5554 171.53 85.3359C171.84 85.1163 172.1 84.8328 172.291 84.5042C172.535 84.0475 172.647 83.5313 172.612 83.0145C172.591 82.5021 172.468 81.999 172.25 81.535C172.039 81.075 171.76 80.6494 171.423 80.2728C171.134 79.9332 170.783 79.6522 170.389 79.4452C170.007 79.2364 169.583 79.1162 169.148 79.0934C168.718 79.0763 168.288 79.1111 167.866 79.1969C167.427 79.2873 166.995 79.4083 166.574 79.559L165.302 79.9728C164.869 80.0889 164.409 80.0524 163.999 79.8693C163.636 79.6866 163.323 79.4164 163.089 79.0831C163.007 78.9471 162.934 78.8054 162.872 78.6589C162.252 77.3139 162.769 76.9311 163.544 76.3725L164.04 75.9897C164.227 75.8577 164.379 75.6825 164.484 75.4789C164.588 75.2753 164.642 75.0494 164.64 74.8206C164.62 74.6865 164.566 74.5598 164.483 74.4528C164.399 74.3458 164.29 74.2623 164.165 74.2102C163.907 74.0731 163.627 73.9854 163.337 73.9516C163.131 73.9516 162.913 73.9516 162.696 73.9516C162.427 73.9933 162.165 74.0771 161.921 74.1999C161.525 74.3997 161.173 74.6777 160.887 75.0172C160.606 75.3486 160.38 75.7222 160.215 76.1242C160.06 76.5304 159.955 76.9544 159.905 77.3864C159.853 77.8055 159.853 78.2294 159.905 78.6485C159.985 79.1596 160.135 79.6574 160.349 80.128C160.557 80.5796 160.824 81.0007 161.145 81.3798C161.438 81.7326 161.787 82.0334 162.179 82.2696C162.574 82.4966 163.01 82.6409 163.461 82.6937C164.091 82.7549 164.726 82.6952 165.333 82.5179C165.963 82.3383 166.578 82.11 167.173 81.835C167.56 81.6587 167.961 81.5168 168.373 81.4109C168.778 81.3086 169.205 81.3376 169.593 81.4936C169.899 81.6111 170.176 81.7928 170.406 82.0266C170.636 82.2604 170.814 82.5408 170.926 82.8489C171.081 83.6042 170.565 84.0283 170.11 84.4008L169.789 84.6594C169.51 84.9284 169.407 85.1974 169.52 85.425C169.615 85.5883 169.765 85.7129 169.942 85.7772C170.12 85.8414 170.315 85.8413 170.492 85.7768Z" fill="#00ADEE"/>
<path d="M27.7904 93.3395C27.9607 93.2852 28.139 93.2607 28.3177 93.2671C29.0001 93.2671 29.0001 93.8672 29.0001 94.4465C29.0001 95.0259 29.0001 95.6052 29.5377 95.8949C29.6938 95.9817 29.8657 96.0364 30.0432 96.056C30.2207 96.0755 30.4004 96.0595 30.5716 96.0087C30.809 95.9322 31.0284 95.8084 31.2167 95.6448C31.405 95.4812 31.5584 95.2813 31.6676 95.0569C31.8525 94.7832 31.976 94.4726 32.0294 94.1465C32.0501 93.9159 32.0501 93.6839 32.0294 93.4533C32.0122 93.1604 31.9422 92.873 31.8227 92.605C31.6207 92.1921 31.3397 91.823 30.9955 91.5187C30.6914 91.2184 30.3426 90.9671 29.9616 90.7738C29.5656 90.5877 29.1438 90.4622 28.7106 90.4013C28.2924 90.3393 27.8674 90.3393 27.4492 90.4013C26.4191 90.5461 25.4511 90.9801 24.6576 91.6532C24.3021 91.981 23.9988 92.3613 23.7581 92.7809C23.4877 93.1968 23.2983 93.6602 23.1998 94.1465C23.0972 94.8348 23.1218 95.5362 23.2721 96.2156C23.4261 96.8964 23.6229 97.5668 23.8615 98.2227C24.0262 98.641 24.1508 99.0741 24.2337 99.516C24.3177 99.9595 24.2636 100.418 24.0786 100.83C23.9957 101.059 23.8582 101.265 23.678 101.429C23.4979 101.593 23.2805 101.71 23.0447 101.771C22.7645 101.822 22.4766 101.808 22.2026 101.731C21.9286 101.654 21.6757 101.515 21.4628 101.326L21.2456 101.12L20.9458 100.861C20.8078 100.754 20.6435 100.686 20.4702 100.664C20.3925 100.668 20.3172 100.693 20.2531 100.737C19.9016 101.016 19.9119 102.04 20.098 102.516C20.2583 102.946 20.5565 103.309 20.9458 103.551C21.384 103.828 21.8961 103.965 22.414 103.944C22.9319 103.935 23.4424 103.819 23.9132 103.603C24.3892 103.39 24.8289 103.104 25.2159 102.754C25.5684 102.462 25.869 102.112 26.1051 101.72C26.3337 101.308 26.4745 100.854 26.5186 100.385C26.5703 99.9278 26.5703 99.4662 26.5186 99.009C26.453 98.5342 26.3563 98.0641 26.2291 97.602C26.1051 97.1261 25.981 96.6709 25.8776 96.226C25.7851 95.757 25.8468 95.2707 26.0534 94.8397C26.2414 94.4556 26.5266 94.1275 26.8805 93.8878L27.3148 93.6602C27.4624 93.538 27.6217 93.4305 27.7904 93.3395Z" fill="#00ADEE"/>
<path d="M33.539 109.138C33.9319 109.22 34.8004 108.01 35.0692 107.534C35.338 107.058 35.6482 106.572 35.9894 106.055C37.4162 103.841 39.0911 101.337 37.685 99.0297C36.8992 97.6744 35.2346 97.1157 33.2598 97.5399C32.6352 97.6758 32.0305 97.8914 31.4608 98.1814C30.9011 98.4628 30.377 98.8101 29.8996 99.2159C29.4497 99.6071 29.0656 100.068 28.7623 100.582C28.5124 100.999 28.2946 101.435 28.1109 101.885C27.926 102.33 27.811 102.801 27.7697 103.282C27.7175 103.744 27.7597 104.212 27.8938 104.658C28.0488 105.135 28.3312 105.561 28.7106 105.889C29.0889 106.218 29.5647 106.414 30.065 106.448C30.5543 106.467 31.0426 106.389 31.5021 106.22C31.9727 106.064 32.4184 105.841 32.8256 105.558C33.2495 105.268 33.6217 104.999 33.9422 104.741C33.9515 104.754 33.9565 104.771 33.9565 104.787C33.9565 104.804 33.9515 104.82 33.9422 104.834C33.7251 105.475 33.539 106.127 33.3735 106.779C33.2068 107.413 33.1473 108.07 33.1978 108.724C33.3218 108.91 33.3839 109.117 33.539 109.138ZM33.9008 102.175V102.423C33.7268 102.99 33.413 103.504 32.9885 103.918C32.5639 104.332 32.0421 104.633 31.4711 104.792C31.2958 104.841 31.1153 104.869 30.9335 104.875C30.7722 104.886 30.6121 104.842 30.4786 104.751C30.3717 104.672 30.2851 104.569 30.2257 104.451C30.1664 104.332 30.1361 104.201 30.1374 104.068C30.136 103.708 30.2211 103.354 30.3855 103.034C30.5846 102.656 30.8351 102.308 31.1299 101.999C31.6779 101.43 32.7945 100.613 33.4563 100.902C33.7458 101.099 33.9008 101.523 33.8698 102.206L33.9008 102.175Z" fill="#00ADEE"/>
<path d="M48.7066 111.31C48.7996 111.062 48.9444 110.762 49.0995 110.451C49.5544 109.51 50.1334 108.382 49.7612 107.668C49.6793 107.506 49.5658 107.362 49.4272 107.245C49.2887 107.128 49.128 107.04 48.9547 106.986C48.7671 106.911 48.5672 106.873 48.3654 106.872C48.2175 106.871 48.0706 106.895 47.9312 106.944C47.6317 107.028 47.3671 107.205 47.1764 107.451C46.8399 107.875 46.5423 108.329 46.2872 108.806C45.9667 109.407 45.6462 110.027 45.3464 110.669C45.2533 110.876 45.1396 111.103 45.0258 111.341C44.5608 112.138 44.2388 113.01 44.0746 113.917V113.979C44.0536 114.201 44.0868 114.424 44.1715 114.629C44.2562 114.835 44.3897 115.017 44.5606 115.159C45.1292 115.552 45.9357 115.159 46.4526 114.807C47.5049 113.866 48.2837 112.658 48.7066 111.31Z" fill="#00ADEE"/>
<path d="M49.0478 104.492C48.9921 104.906 49.0719 105.327 49.2753 105.692C49.3686 105.828 49.4974 105.935 49.6475 106.003C49.7695 106.074 49.91 106.106 50.0507 106.096C50.4339 106.027 50.7913 105.855 51.0846 105.599C51.2169 105.5 51.3268 105.375 51.407 105.23C51.4872 105.086 51.5359 104.926 51.5499 104.761C51.541 104.593 51.4913 104.43 51.4051 104.285C51.2751 104.098 51.1012 103.945 50.8985 103.841C50.7037 103.708 50.4807 103.624 50.2473 103.593C50.0139 103.563 49.7766 103.587 49.5544 103.665C49.4088 103.751 49.2864 103.871 49.1981 104.015C49.1098 104.16 49.0582 104.323 49.0478 104.492Z" fill="#00ADEE"/>
<path d="M65.911 122.442C66.0005 122.556 66.1128 122.649 66.2406 122.717C66.3684 122.784 66.509 122.824 66.6532 122.834C66.7973 122.844 66.942 122.823 67.0777 122.773C67.2134 122.724 67.3373 122.646 67.4412 122.546C67.791 122.267 68.0737 121.914 68.2684 121.511C69.4381 119.641 70.1174 117.506 70.2431 115.304C70.253 115.129 70.2227 114.954 70.1546 114.792C70.0865 114.631 69.9824 114.487 69.8503 114.372C69.7237 114.243 69.5724 114.141 69.4054 114.072C69.2384 114.002 69.0592 113.967 68.8784 113.969H68.7853C68.4663 113.961 68.1537 114.06 67.8961 114.248C67.6363 114.425 67.4377 114.678 67.3275 114.973C66.4768 116.787 65.9018 118.719 65.6215 120.704C65.5594 121.07 65.5594 121.445 65.6215 121.811C65.6662 122.042 65.7655 122.258 65.911 122.442Z" fill="#00ADEE"/>
<path d="M71.0496 112.407C71.1597 112.285 71.2417 112.14 71.2899 111.983C71.3382 111.825 71.3514 111.659 71.3288 111.496C71.2984 111.33 71.2149 111.177 71.091 111.062C70.9276 110.904 70.7292 110.787 70.512 110.72C70.2927 110.634 70.0564 110.599 69.8214 110.619C69.5865 110.638 69.3593 110.712 69.1575 110.834C69.027 110.946 68.9265 111.089 68.8651 111.25C68.8038 111.411 68.7834 111.584 68.806 111.755C68.8361 112.173 69.0033 112.569 69.2816 112.883C69.3996 112.996 69.5462 113.074 69.7055 113.11C69.8438 113.151 69.9911 113.151 70.1294 113.11C70.4934 112.962 70.8111 112.719 71.0496 112.407Z" fill="#00ADEE"/>
<path d="M43.2165 104.389L44.2504 104.968L45.2843 105.537C45.6152 105.713 45.9357 105.879 46.2252 106.013C46.3776 106.093 46.5526 106.119 46.7215 106.086C46.7787 106.076 46.8332 106.055 46.8813 106.023C46.9295 105.991 46.9702 105.949 47.0006 105.899C47.0262 105.848 47.0394 105.791 47.0394 105.734C47.0394 105.676 47.0262 105.62 47.0006 105.568C46.9148 105.394 46.7675 105.258 46.5871 105.185C46.3389 105.041 46.0391 104.885 45.7186 104.72L44.7467 104.213L43.7128 103.654C43.3819 103.478 43.0924 103.313 42.834 103.158C42.8285 103.148 42.8256 103.138 42.8256 103.127C42.8256 103.116 42.8285 103.105 42.834 103.096C43.0718 102.754 43.3509 102.371 43.6508 101.968L44.5296 100.799C44.7888 100.448 45.027 100.082 45.243 99.7022C45.4177 99.4257 45.5436 99.1213 45.6152 98.8021C45.6152 98.5125 45.6152 98.3262 45.4394 98.2435C45.3379 98.206 45.2278 98.1978 45.1218 98.2197C45.0159 98.2417 44.9181 98.2929 44.8398 98.3676C44.5371 98.5961 44.2504 98.845 43.9816 99.1125C43.6094 99.4643 43.2268 99.8471 42.834 100.23C42.4411 100.613 42.0792 100.995 41.7277 101.368C41.4827 101.621 41.2515 101.887 41.0349 102.165C41.0196 102.175 41.0016 102.18 40.9832 102.18C40.9648 102.18 40.9468 102.175 40.9315 102.165L40.549 101.968C40.3411 101.861 40.1408 101.74 39.9493 101.606C39.911 101.569 39.8657 101.539 39.816 101.52C39.7663 101.5 39.7132 101.491 39.6598 101.492H39.5771C39.4668 101.523 39.3713 101.593 39.3083 101.689C39.267 101.799 39.267 101.92 39.3083 102.03C39.3874 102.172 39.5164 102.279 39.6702 102.33L40.3836 102.723C40.3884 102.735 40.3909 102.747 40.3909 102.759C40.3909 102.772 40.3884 102.784 40.3836 102.796C39.5771 103.83 38.8017 104.865 38.0779 105.827C37.3206 106.854 36.6299 107.929 36.0101 109.044C35.5178 110.024 35.1696 111.069 34.9762 112.148C34.8033 113.194 34.9214 114.268 35.3174 115.252C35.4952 115.721 35.77 116.148 36.1238 116.504C36.4734 116.877 36.8779 117.194 37.3232 117.445C37.7605 117.692 38.2303 117.877 38.7189 117.994C39.1769 118.097 39.6495 118.118 40.1147 118.056C40.5497 117.995 40.9662 117.839 41.3348 117.6C41.7143 117.343 42.0149 116.984 42.2033 116.566C42.3059 116.349 42.3623 116.113 42.3687 115.873C42.3943 115.667 42.3578 115.459 42.2638 115.274C42.1698 115.09 42.0226 114.938 41.8414 114.838C41.6023 114.716 41.3321 114.669 41.0659 114.704C40.3206 114.778 39.5679 114.701 38.8534 114.476C38.3808 114.311 37.9841 113.98 37.7367 113.545C37.5157 113.107 37.4397 112.611 37.5196 112.127C37.605 111.537 37.7648 110.96 37.9952 110.41C38.2566 109.773 38.5606 109.154 38.9051 108.558C39.2669 107.927 39.6495 107.306 40.0424 106.737C40.4353 106.168 40.8075 105.62 41.19 105.113C41.5726 104.606 41.8724 104.192 42.1102 103.841C42.1275 103.831 42.1471 103.825 42.1671 103.825C42.187 103.825 42.2066 103.831 42.2239 103.841L43.2165 104.389Z" fill="#00ADEE"/>
<path d="M71.9492 122.701C72.289 123.13 72.7153 123.482 73.2002 123.735C73.7049 123.981 74.2625 124.099 74.8235 124.077C75.4004 124.076 75.9683 123.934 76.4777 123.663C76.9636 123.407 77.3927 123.055 77.7391 122.628C77.8702 122.451 77.9682 122.251 78.0286 122.039C78.1009 121.837 78.1222 121.62 78.0907 121.408C78.0693 121.229 77.985 121.064 77.8529 120.942C77.6663 120.811 77.4385 120.752 77.2118 120.777C76.9527 120.807 76.7046 120.9 76.4881 121.046C76.2031 121.233 75.8764 121.346 75.5369 121.377C75.2304 121.415 74.9194 121.368 74.6374 121.242C74.3739 121.126 74.1533 120.931 74.0067 120.683C73.8443 120.394 73.7859 120.058 73.8412 119.732C73.8358 119.722 73.8329 119.711 73.8329 119.701C73.8329 119.69 73.8358 119.679 73.8412 119.67H73.9033L74.2238 119.752C74.3643 119.773 74.5072 119.773 74.6477 119.752C75.0852 119.782 75.5247 119.744 75.9504 119.638C76.3724 119.543 76.7746 119.375 77.1394 119.142C77.481 118.931 77.7765 118.653 78.0079 118.325C78.2342 118.024 78.3705 117.665 78.4008 117.29C78.4484 116.801 78.3436 116.31 78.101 115.883C77.8915 115.521 77.583 115.227 77.2118 115.035C76.8437 114.848 76.4439 114.732 76.0332 114.693H75.7747C75.1657 114.691 74.5643 114.829 74.017 115.097C73.3922 115.385 72.8274 115.788 72.3524 116.286C71.9073 116.769 71.5566 117.33 71.3185 117.942C71.0992 118.537 70.9466 119.155 70.8635 119.783C70.853 120.312 70.9263 120.84 71.0807 121.346C71.2787 121.85 71.5738 122.31 71.9492 122.701ZM75.1957 116.649C75.4318 116.392 75.7577 116.236 76.1055 116.214C76.286 116.207 76.4644 116.255 76.6175 116.351C76.7705 116.447 76.8912 116.586 76.9637 116.752C77.1084 117.155 76.7569 117.621 76.4054 117.9C76.1341 118.139 75.7934 118.284 75.4335 118.314C75.3136 118.314 75.1959 118.282 75.0923 118.221C74.9729 118.149 74.8758 118.045 74.8119 117.921C74.748 117.796 74.7198 117.657 74.7304 117.518C74.7832 117.184 74.9472 116.878 75.1957 116.649Z" fill="#00ADEE"/>
<path d="M65.1976 118.149C65.2386 118.028 65.2386 117.897 65.1976 117.776C65.1722 117.716 65.1326 117.663 65.0821 117.622C65.0317 117.58 64.972 117.552 64.9081 117.538L63.4606 117.104C62.985 116.959 62.4887 116.835 61.9924 116.711C61.987 116.701 61.9841 116.69 61.9841 116.68C61.9841 116.669 61.987 116.658 61.9924 116.649C62.1475 116.162 62.3129 115.614 62.5094 115.045C62.7058 114.476 62.923 113.866 63.1608 113.276C63.3986 112.686 63.6467 112.117 63.9259 111.548C64.1963 111.018 64.5074 110.509 64.8564 110.027C65.0566 109.762 65.2854 109.519 65.5388 109.303C65.6966 109.155 65.9016 109.067 66.1178 109.055C66.2935 109.055 66.4279 109.2 66.5107 109.458C66.6014 109.795 66.6259 110.147 66.583 110.493C66.5939 110.747 66.566 111.002 66.5003 111.248C66.4176 111.527 66.4073 111.817 66.3452 112.148C66.2625 112.382 66.2625 112.638 66.3452 112.872C66.3684 112.937 66.4085 112.994 66.4612 113.038C66.514 113.081 66.5775 113.11 66.6451 113.121C66.8017 113.133 66.9573 113.085 67.0793 112.986C67.2558 112.872 67.3873 112.7 67.4515 112.5C67.5951 112.115 67.7126 111.721 67.8031 111.32C67.8977 110.93 67.9565 110.532 67.9788 110.131C68.0149 109.787 68.0149 109.44 67.9788 109.096C67.9265 108.773 67.8029 108.465 67.617 108.196C67.4374 107.935 67.191 107.728 66.9036 107.596C66.6047 107.46 66.2805 107.39 65.9523 107.389C65.6005 107.391 65.2513 107.451 64.9184 107.565C64.5522 107.695 64.2046 107.872 63.8845 108.093C63.2421 108.554 62.6648 109.101 62.1682 109.717C61.6437 110.367 61.1735 111.059 60.7621 111.786C60.3698 112.494 60.0244 113.226 59.7281 113.979C59.4364 114.655 59.181 115.346 58.963 116.049C58.95 116.059 58.9335 116.065 58.9165 116.065C58.8995 116.065 58.883 116.059 58.87 116.049L58.2703 115.914L57.712 115.79C57.6607 115.797 57.6113 115.814 57.5668 115.841C57.5224 115.868 57.4839 115.903 57.4535 115.945C57.3818 116.042 57.3356 116.156 57.3191 116.276C57.2984 116.385 57.2984 116.498 57.3191 116.607C57.3324 116.652 57.3597 116.691 57.3969 116.719C57.4341 116.747 57.4794 116.762 57.5259 116.762L57.9498 116.855H57.8774L58.3427 116.928C58.3521 116.922 58.3628 116.92 58.3737 116.92C58.3846 116.92 58.3953 116.922 58.4047 116.928C58.4096 116.939 58.4121 116.952 58.4121 116.964C58.4121 116.977 58.4096 116.989 58.4047 117C58.3013 117.456 58.1876 117.931 58.0635 118.428C57.9395 118.914 57.8361 119.401 57.7637 119.866C57.6916 120.318 57.6502 120.774 57.6396 121.232C57.6286 121.624 57.681 122.015 57.7947 122.39C57.8952 122.747 58.0962 123.066 58.3737 123.311C58.4745 123.406 58.5932 123.479 58.7228 123.527C58.8525 123.575 58.9904 123.597 59.1285 123.591C59.4133 123.568 59.679 123.438 59.8729 123.228C60.1497 122.938 60.3488 122.582 60.4519 122.194C60.5139 121.946 60.5863 121.646 60.6794 121.294C60.7724 120.942 60.8655 120.57 60.9689 120.166C61.0722 119.763 61.1756 119.37 61.2894 118.956C61.4031 118.542 61.4961 118.138 61.5995 117.756H61.6616L63.0987 118.159L64.5255 118.583C64.6514 118.635 64.7926 118.635 64.9184 118.583C64.9983 118.541 65.0659 118.479 65.1148 118.402C65.1637 118.326 65.1922 118.239 65.1976 118.149Z" fill="#00ADEE"/>
<path d="M55.5718 109.458C56.0474 109.593 56.1611 110.048 56.2749 110.493C56.3165 110.756 56.4153 111.007 56.5644 111.227C56.6604 111.364 56.7924 111.471 56.9458 111.537C57.0992 111.603 57.2678 111.624 57.4329 111.6C57.697 111.457 57.923 111.252 58.0921 111.004C58.2612 110.756 58.3684 110.47 58.4047 110.172C58.4565 109.899 58.4565 109.618 58.4047 109.344C58.3724 109.148 58.324 108.954 58.26 108.765C58.1695 108.525 58.0403 108.301 57.8774 108.103C57.6253 107.795 57.3165 107.539 56.9676 107.348C56.6458 107.167 56.2964 107.042 55.9337 106.975C55.5571 106.913 55.1729 106.913 54.7964 106.975C54.4404 107.026 54.0927 107.123 53.7624 107.265C52.9266 107.638 52.2107 108.236 51.6946 108.993C51.4582 109.356 51.2803 109.754 51.1673 110.172C50.9655 111.528 51.2552 112.912 51.9841 114.072C52.1392 114.404 52.3046 114.745 52.439 115.107C52.6162 115.396 52.7226 115.723 52.7495 116.061C52.7765 116.399 52.7232 116.739 52.5941 117.052C52.4775 117.226 52.3248 117.372 52.1463 117.481C51.9678 117.59 51.7678 117.659 51.5602 117.683C51.1546 117.723 50.7452 117.674 50.3608 117.538C50.1453 117.455 49.919 117.403 49.6888 117.383C49.5689 117.384 49.4512 117.416 49.3476 117.476C49.2911 117.518 49.2436 117.57 49.2081 117.631C49.1725 117.691 49.1496 117.758 49.1408 117.828C49.1121 118.135 49.2007 118.442 49.389 118.687C49.9241 119.308 50.6524 119.73 51.4568 119.887C51.8941 120.001 52.3533 120.001 52.7906 119.887C53.2255 119.751 53.6271 119.526 53.9692 119.225C54.3225 118.93 54.6262 118.581 54.8687 118.19C55.0954 117.849 55.2599 117.471 55.3547 117.073C55.4374 116.673 55.4374 116.262 55.3547 115.862C55.2813 115.463 55.1598 115.074 54.9928 114.704C54.8246 114.319 54.6312 113.945 54.4138 113.586C54.176 113.203 53.9796 112.852 53.7831 112.552C53.5983 112.173 53.5334 111.747 53.597 111.331C53.6603 110.95 53.8245 110.592 54.0726 110.296L54.3828 109.996C54.5034 109.894 54.6313 109.801 54.7653 109.717C54.8975 109.636 55.0401 109.573 55.1892 109.531C55.3088 109.475 55.4403 109.45 55.5718 109.458Z" fill="#00ADEE"/>
<path d="M14.5975 93.8258C14.8713 94.0793 15.2025 94.2626 15.5627 94.36C15.9229 94.4573 16.3013 94.4657 16.6654 94.3844C16.9693 94.2952 17.2559 94.1553 17.5132 93.9706C17.8197 93.8186 18.0877 93.599 18.2972 93.3284C18.5067 93.0579 18.6523 92.7433 18.7229 92.4084C18.7133 91.866 18.5242 91.342 18.1852 90.9186C17.8027 90.2979 17.3374 89.615 16.624 89.4805C15.9806 89.4497 15.347 89.6476 14.8353 90.0392C14.4207 90.2562 14.0493 90.5472 13.7394 90.8979C12.9536 91.8704 13.8221 93.1119 14.5975 93.8258Z" fill="#00ADEE"/>
<path d="M170.285 52.0496C170.558 52.3044 170.89 52.4878 171.25 52.5835C171.611 52.6791 171.99 52.6841 172.353 52.5979C172.657 52.5087 172.944 52.3688 173.201 52.184C173.506 52.0308 173.774 51.8108 173.983 51.5405C174.193 51.2701 174.339 50.9562 174.411 50.6218C174.391 50.0813 174.203 49.5605 173.873 49.132C173.49 48.5113 173.025 47.8285 172.301 47.694C171.661 47.662 171.03 47.8602 170.523 48.2527C170.108 48.4735 169.737 48.7679 169.427 49.1217C168.641 50.0942 169.541 51.3667 170.285 52.0496Z" fill="#00ADEE"/>
<path d="M170.885 72.8963C171.159 73.1499 171.49 73.3332 171.85 73.4305C172.21 73.5278 172.589 73.5362 172.953 73.455C173.254 73.3594 173.54 73.2199 173.801 73.0412C174.107 72.8881 174.375 72.6668 174.583 72.3942C174.791 72.1216 174.933 71.805 175 71.4686C174.989 70.9313 174.804 70.4122 174.473 69.9891C174.09 69.3581 173.625 68.6752 172.901 68.5511C172.256 68.5089 171.619 68.708 171.112 69.1098C170.717 69.3283 170.366 69.6196 170.079 69.9685C169.241 70.941 170.099 72.2238 170.885 72.8963Z" fill="#00ADEE"/>
<path d="M11.4958 52.5048C11.7696 52.7583 12.1008 52.9416 12.461 53.039C12.8211 53.1363 13.1995 53.1447 13.5636 53.0634C13.865 52.9678 14.1506 52.8284 14.4115 52.6496C14.7182 52.4953 14.9863 52.2737 15.1957 52.0015C15.4051 51.7292 15.5505 51.4133 15.6211 51.077C15.6014 50.5365 15.4134 50.0157 15.0835 49.5873C14.701 48.9665 14.2357 48.2837 13.5119 48.1492C12.8704 48.1211 12.2398 48.3228 11.7336 48.7182C11.319 48.9352 10.9476 49.2262 10.6376 49.5769C9.85186 50.5494 10.7204 51.8219 11.4958 52.5048Z" fill="#00ADEE"/>
<path d="M55.6028 29.5578C55.8766 29.8114 56.2078 29.9947 56.568 30.092C56.9281 30.1893 57.3065 30.1977 57.6706 30.1165C57.9763 30.0236 58.2657 29.884 58.5288 29.7027C58.8355 29.5496 59.103 29.3283 59.3109 29.0557C59.5188 28.7831 59.6615 28.4665 59.7281 28.1301C59.7156 27.59 59.5308 27.068 59.2008 26.6403C58.8183 26.0196 58.353 25.3368 57.6293 25.2023C56.9754 25.164 56.3295 25.3623 55.8096 25.7609C55.3978 25.982 55.0299 26.2766 54.724 26.63C53.9692 27.6025 54.8274 28.875 55.6028 29.5578Z" fill="#00ADEE"/>
<path d="M69.1782 34.141C69.5861 34.1633 69.9935 34.0888 70.3672 33.9238C70.9566 33.7169 71.7734 33.4582 71.6907 32.6823C71.6079 31.9064 70.6567 31.8443 70.0674 31.6477C69.8103 31.5201 69.5272 31.4537 69.2403 31.4537C68.9533 31.4537 68.6702 31.5201 68.4131 31.6477C68.2376 31.843 68.1156 32.0804 68.0591 32.3369C68.0025 32.5933 68.0132 32.8601 68.0903 33.1111C68.1673 33.3622 68.308 33.589 68.4987 33.7695C68.6893 33.95 68.9234 34.078 69.1782 34.141Z" fill="#00ADEE"/>
<path d="M1.14622 82.4972C1.55072 82.5186 1.95455 82.4441 2.32489 82.2799C2.92456 82.0833 3.74136 81.8247 3.65865 81.0384C3.57593 80.2522 2.62473 80.2004 2.03539 80.0039C1.77832 79.8762 1.49523 79.8098 1.20825 79.8098C0.92128 79.8098 0.638192 79.8762 0.381118 80.0039C0.208526 80.2002 0.0890787 80.4376 0.034162 80.6933C-0.0207547 80.949 -0.00931002 81.2144 0.0674049 81.4644C0.14412 81.7144 0.283548 81.9406 0.472399 82.1214C0.661249 82.3022 0.893227 82.4316 1.14622 82.4972Z" fill="#00ADEE"/>
<path d="M129.487 24.8298C129.353 25.2113 129.3 25.6165 129.332 26.0196C129.332 26.6507 129.332 27.5094 130.107 27.6646C130.883 27.8198 131.213 26.9611 131.586 26.4334C131.779 26.2227 131.923 25.9708 132.005 25.6967C132.088 25.4225 132.107 25.1332 132.061 24.8505C131.699 23.8884 129.921 23.9711 129.487 24.8298Z" fill="#00ADEE"/>
<path d="M15.0007 39.6139C14.9793 40.022 15.0537 40.4295 15.2179 40.8037C15.4246 41.3934 15.6935 42.2107 16.4689 42.128C17.2443 42.0452 17.3064 41.0934 17.5028 40.483C17.6303 40.2276 17.6966 39.946 17.6966 39.6605C17.6966 39.375 17.6303 39.0934 17.5028 38.838C17.3049 38.6657 17.0662 38.5469 16.8095 38.4928C16.5527 38.4386 16.2864 38.451 16.0358 38.5287C15.7852 38.6065 15.5586 38.7469 15.3775 38.9369C15.1963 39.1268 15.0666 39.3598 15.0007 39.6139Z" fill="#00ADEE"/>
<path d="M162.117 57.3362C162.153 57.7423 162.28 58.135 162.49 58.4846C162.769 59.0433 163.141 59.8192 163.896 59.633C164.65 59.4468 164.588 58.5156 164.692 57.8846C164.778 57.6113 164.801 57.3218 164.758 57.0383C164.715 56.7549 164.607 56.4852 164.444 56.2499C163.679 55.4843 162.107 56.3223 162.117 57.3362Z" fill="#00ADEE"/>
<path d="M103.939 15.2807C103.974 15.6867 104.101 16.0794 104.311 16.4291C104.59 16.9877 104.962 17.7637 105.717 17.5774C106.472 17.3912 106.42 16.4601 106.523 15.829C106.608 15.5549 106.629 15.265 106.584 14.9816C106.54 14.6981 106.43 14.4288 106.265 14.1944C106.049 14.0563 105.802 13.975 105.547 13.958C105.291 13.9411 105.035 13.989 104.803 14.0974C104.571 14.2057 104.37 14.371 104.219 14.5779C104.068 14.7848 103.971 15.0265 103.939 15.2807Z" fill="#00ADEE"/>
<path d="M149.896 17.1325L149.741 16.9567C149.779 17.0264 149.832 17.0866 149.896 17.1325Z" fill="#FFD200"/>
<path d="M65.1149 68.5407C66.945 67.885 68.9003 67.6551 70.8325 67.8682C71.32 67.9234 71.8035 68.0098 72.28 68.1269C72.7697 68.2485 73.2473 68.4148 73.7068 68.6235C73.9721 68.7454 74.2137 68.9135 74.4202 69.1201C74.615 69.3247 74.7819 69.5543 74.9165 69.8029C75.1646 70.2478 75.3404 70.6926 75.5575 71.0237C75.6412 71.169 75.7497 71.2986 75.878 71.4065C75.969 71.4684 76.0784 71.4976 76.1882 71.4893C76.3452 71.4651 76.4982 71.4198 76.6431 71.3548V71.2513C76.6356 70.8715 76.5585 70.4963 76.4156 70.1443C76.2709 69.7305 76.0951 69.3063 75.8987 68.8821C75.5368 68.0338 75.1232 67.1751 74.7614 66.2853C74.3606 65.3655 74.0758 64.3994 73.9136 63.4092C73.8287 62.8305 73.8746 62.2401 74.048 61.6815C74.2813 61.0557 74.7432 60.5418 75.3404 60.2434C75.858 60.0065 76.4158 59.8696 76.9843 59.8399C77.4496 59.8399 77.9355 59.7675 78.4214 59.7468C80.4059 59.7261 82.3766 60.077 84.2321 60.7814C86.0621 61.4228 87.7681 62.2194 89.4947 62.8505C90.3444 63.1696 91.2107 63.4424 92.0899 63.6679C93.0595 63.8345 94.0139 64.0802 94.9435 64.4024C95.0327 64.4489 95.1116 64.5131 95.1754 64.591C95.2391 64.6688 95.2865 64.7588 95.3145 64.8555C95.3425 64.9522 95.3507 65.0536 95.3384 65.1536C95.3262 65.2535 95.2939 65.3499 95.2433 65.437C95.1605 65.589 95.028 65.7079 94.868 65.7738C94.708 65.8398 94.5303 65.8487 94.3645 65.7991C93.4922 65.5384 92.6048 65.3311 91.7073 65.1783C90.7624 64.9495 89.8305 64.6698 88.9157 64.3403C87.1167 63.6679 85.4004 62.8712 83.6738 62.2712C82.0096 61.603 80.2352 61.2521 78.4421 61.2366C77.9826 61.2251 77.5228 61.2493 77.067 61.309C76.7118 61.332 76.3626 61.4124 76.0331 61.547C75.9012 61.6002 75.7818 61.68 75.6822 61.7814C75.5826 61.8829 75.5049 62.0038 75.4541 62.1367C75.3608 62.4731 75.3293 62.8236 75.361 63.1713C75.4883 64.0445 75.7209 64.8991 76.0538 65.7163C76.3846 66.575 76.7568 67.4337 77.0877 68.3131C77.2635 68.758 77.4392 69.2029 77.5943 69.6891C77.7913 70.2174 77.8724 70.782 77.8321 71.3444C77.8226 71.4407 77.7982 71.535 77.7597 71.6238C77.7327 71.7296 77.6833 71.8283 77.615 71.9134C77.4887 72.1056 77.309 72.2567 77.098 72.348C76.8132 72.483 76.5033 72.557 76.1882 72.5652C75.8147 72.5731 75.4497 72.4526 75.1543 72.2238C74.9173 72.0265 74.7177 71.7882 74.5649 71.5203C74.2961 71.0444 74.1514 70.5995 73.9446 70.2271C73.8009 69.8802 73.5364 69.5971 73.2001 69.4305C72.8087 69.2353 72.4003 69.076 71.9801 68.9546C71.5459 68.8304 71.1116 68.7373 70.667 68.6545C68.8569 68.365 67.0048 68.4888 65.2493 69.0166C65.2154 69.0297 65.1792 69.0357 65.143 69.0344C65.1067 69.0331 65.071 69.0245 65.0382 69.009C65.0053 68.9935 64.976 68.9716 64.9518 68.9444C64.9277 68.9173 64.9093 68.8855 64.8978 68.8511C64.8928 68.7823 64.9116 68.7138 64.9512 68.6573C64.9907 68.6007 65.0485 68.5596 65.1149 68.5407Z" fill="#231F20"/>
<path d="M94.7678 70.3512C94.0776 70.5564 93.3558 70.6336 92.6379 70.5788H90.57C89.1637 70.4933 87.774 70.2291 86.4344 69.7926L87.0754 68.9649C88.2644 70.5788 89.3293 72.2756 90.3632 73.9826C90.8802 74.8517 91.3972 75.669 91.8831 76.6001C92.3684 77.5361 92.7531 78.521 93.0308 79.5383C93.3107 80.552 93.484 81.5922 93.5477 82.642C93.6115 83.6768 93.5873 84.7151 93.4754 85.7457C93.3617 86.7626 93.1856 87.7715 92.9481 88.7667C92.6999 89.8013 92.4208 90.7324 92.1002 91.6946C92.0657 91.7877 92.0132 91.8731 91.9456 91.9459C91.8781 92.0187 91.7968 92.0775 91.7065 92.1188C91.6163 92.1601 91.5187 92.1832 91.4195 92.1867C91.3203 92.1903 91.2214 92.1742 91.1284 92.1394C90.9545 92.0719 90.8113 91.9432 90.7256 91.7774C90.6399 91.6117 90.6177 91.4203 90.6631 91.2394C91.2312 89.3886 91.636 87.4915 91.8728 85.5699C91.9798 84.6394 92.0213 83.7025 91.9968 82.7662C91.9542 81.8261 91.8121 80.8932 91.5729 79.9832C91.3345 79.0693 91.0126 78.1792 90.6114 77.3243C90.2082 76.4966 89.6912 75.5965 89.2259 74.7378C88.2747 73.0101 87.2822 71.3134 86.2069 69.6684C86.1318 69.5455 86.1071 69.3983 86.1379 69.2575C86.1688 69.1168 86.2527 68.9934 86.3723 68.9132C86.4487 68.8724 86.5339 68.8511 86.6205 68.8511C86.707 68.8511 86.7922 68.8724 86.8686 68.9132C88.0986 69.379 89.3791 69.6985 90.6838 69.865C91.0043 69.865 91.3351 69.9581 91.7177 69.9891L92.7516 70.1029C93.3781 70.2064 94.0172 70.2064 94.6437 70.1029C94.7177 70.084 94.7962 70.0952 94.862 70.1339C94.9279 70.1727 94.9758 70.2359 94.9952 70.3099C94.9645 70.3365 94.9271 70.3543 94.8871 70.3616C94.8471 70.3689 94.8059 70.3653 94.7678 70.3512Z" fill="#231F20"/>
<path d="M85.7933 59.9123H85.5865C83.7782 59.3627 82.0236 58.6493 80.3445 57.7811C79.1365 57.2329 78.0503 56.4485 77.1497 55.474C77.0226 55.3317 76.9523 55.1476 76.9523 54.9567C76.9523 54.7658 77.0226 54.5817 77.1497 54.4394C77.2908 54.31 77.4753 54.2382 77.6667 54.2382C77.8581 54.2382 78.0425 54.31 78.1836 54.4394C78.9679 55.2575 79.9014 55.9178 80.9339 56.3844C82.5224 57.2226 84.1834 57.9151 85.8967 58.4536C85.9927 58.4809 86.0824 58.5271 86.1605 58.5893C86.2386 58.6516 86.3036 58.7287 86.3516 58.8163C86.3997 58.9039 86.43 59.0001 86.4406 59.0995C86.4513 59.1988 86.4421 59.2993 86.4137 59.395C86.3641 59.549 86.2677 59.6836 86.138 59.7801C86.0082 59.8766 85.8515 59.93 85.6899 59.933L85.7933 59.9123Z" fill="#231F20"/>
<path d="M74.4202 62.4781H74.1927L73.7585 62.3229C73.6371 62.2679 73.5129 62.2196 73.3862 62.1781C71.7969 61.6697 70.3243 60.8503 69.0541 59.7675C67.7514 58.4019 68.0202 56.5914 68.196 55.3913C68.2119 55.1918 68.3051 55.0065 68.4559 54.875C68.6066 54.7435 68.8028 54.6763 69.0024 54.6877C69.1012 54.693 69.1979 54.7179 69.2869 54.7609C69.3759 54.804 69.4555 54.8644 69.5209 54.9385C69.5864 55.0127 69.6364 55.0991 69.6681 55.1929C69.6998 55.2866 69.7125 55.3857 69.7055 55.4844C69.7105 55.5256 69.7105 55.5673 69.7055 55.6085C69.478 57.119 69.4884 58.0191 70.1708 58.7123C71.2566 59.6129 72.5066 60.2945 73.8515 60.7193L74.3581 60.9056L74.7097 61.0297C74.8753 61.0874 75.0152 61.2017 75.1049 61.3525C75.1945 61.5033 75.2281 61.6809 75.1997 61.854C75.1712 62.0271 75.0826 62.1847 74.9495 62.2989C74.8164 62.413 74.6472 62.4765 74.4719 62.4781H74.4202Z" fill="#231F20"/>
<path d="M118.775 71.9031C118.931 71.3508 118.97 70.7721 118.889 70.204C118.809 69.6358 118.612 69.0906 118.31 68.6028C117.772 67.4234 117.049 66.275 116.439 65.0128C115.795 63.7092 115.533 62.25 115.683 60.8037C115.833 59.3575 116.389 57.9832 117.287 56.8396C118.157 55.725 119.257 54.8111 120.512 54.1601C121.753 53.5428 123.082 53.1239 124.452 52.9186C125.792 52.6672 127.151 52.5288 128.515 52.5048H129.549C129.871 52.5461 130.198 52.5461 130.521 52.5048C130.832 52.431 131.123 52.2858 131.369 52.0806C131.628 51.8943 131.814 51.6237 131.896 51.315C131.889 51.2917 131.892 51.2668 131.904 51.2455C131.915 51.2243 131.935 51.2084 131.958 51.2012C131.973 51.1866 131.994 51.1785 132.015 51.1785C132.036 51.1785 132.056 51.1866 132.072 51.2012C132.077 51.2106 132.08 51.2213 132.08 51.2322C132.08 51.2431 132.077 51.2538 132.072 51.2633C131.996 51.6217 131.794 51.9411 131.503 52.1633C131.239 52.4023 130.924 52.579 130.583 52.6806C130.243 52.7531 129.895 52.774 129.549 52.7427H128.515C127.178 52.8149 125.85 53.0018 124.545 53.3014C123.243 53.5526 121.987 54.0027 120.823 54.636C119.698 55.2885 118.722 56.1696 117.959 57.2224C117.221 58.2641 116.781 59.4874 116.687 60.7607V61.7021C116.708 62.0149 116.749 62.3259 116.811 62.6333C116.956 63.2401 117.182 63.8247 117.483 64.3714C118.093 65.5197 118.868 66.6371 119.551 67.8993C119.906 68.5487 120.167 69.2454 120.326 69.9684C120.531 70.7701 120.484 71.6152 120.192 72.3893C120.156 72.4883 120.1 72.5787 120.027 72.6546C119.954 72.7306 119.866 72.7905 119.769 72.8304C119.671 72.8703 119.567 72.8895 119.462 72.8866C119.356 72.8837 119.253 72.8588 119.158 72.8135C119.059 72.7776 118.969 72.7214 118.893 72.6484C118.817 72.5755 118.757 72.4875 118.717 72.3901C118.677 72.2927 118.658 72.188 118.661 72.0827C118.664 71.9775 118.689 71.874 118.734 71.7789L118.775 71.9031Z" fill="#231F20"/>
<path d="M30.4372 50.8288C30.5739 50.5737 30.733 50.3313 30.9128 50.1045L31.1919 49.7735C31.3169 49.6279 31.4633 49.5023 31.6262 49.401C31.7702 49.3272 31.9296 49.2882 32.0915 49.2872C32.2784 49.2872 32.4602 49.349 32.6084 49.4631C32.8182 49.6324 32.9611 49.8707 33.0116 50.1356C33.0737 50.4777 33.0737 50.8281 33.0116 51.1702C32.9304 51.7922 32.7303 52.3928 32.4223 52.9393C32.1207 53.4723 31.7124 53.9372 31.223 54.3049C31.1769 54.3486 31.1158 54.3729 31.0524 54.3729C30.9889 54.3729 30.9279 54.3486 30.8818 54.3049C30.8473 54.2625 30.8286 54.2096 30.8286 54.1549C30.8286 54.1003 30.8473 54.0473 30.8818 54.0049C31.2043 53.5872 31.4622 53.1234 31.6469 52.6289C31.8255 52.147 31.9334 51.6417 31.9674 51.1288C31.9984 50.9126 31.9984 50.6932 31.9674 50.477C31.9674 50.3942 31.9054 50.3735 31.9674 50.477C32.0294 50.5805 32.1638 50.477 32.1432 50.477L31.926 50.6943L31.5848 50.9529C31.3492 51.1268 31.0963 51.2759 30.8301 51.3978C30.7574 51.429 30.6753 51.4302 30.6017 51.4012C30.5281 51.3721 30.469 51.3151 30.4372 51.2426C30.3935 51.1825 30.3699 51.11 30.3699 51.0357C30.3699 50.9613 30.3935 50.8889 30.4372 50.8288Z" fill="#231F20"/>
<path d="M21.9797 74.0033C21.5161 74.0479 21.0482 73.9986 20.6041 73.8581C20.16 73.7177 19.7487 73.4891 19.3949 73.1859C19.3555 73.1466 19.3243 73.0998 19.303 73.0483C19.2817 72.9968 19.2707 72.9416 19.2707 72.8859C19.2707 72.8302 19.2817 72.775 19.303 72.7235C19.3243 72.6721 19.3555 72.6253 19.3949 72.5859C19.4334 72.5468 19.4793 72.5157 19.5299 72.4946C19.5805 72.4734 19.6348 72.4624 19.6896 72.4624C19.7445 72.4624 19.7987 72.4734 19.8493 72.4946C19.8999 72.5157 19.9458 72.5468 19.9843 72.5859C21.0182 73.7343 24.8851 72.8652 27.2217 72.0169H27.139C27.073 72.0032 27.0111 71.974 26.9586 71.9316C26.9061 71.8892 26.8645 71.8349 26.8372 71.7732C26.8099 71.7115 26.7977 71.6441 26.8017 71.5767C26.8056 71.5094 26.8255 71.4439 26.8598 71.3858C26.9327 71.2762 26.9918 71.1581 27.0356 71.034C27.1043 70.8603 27.1838 70.691 27.2734 70.5271C27.0451 70.441 26.8401 70.3026 26.6749 70.1229C26.5098 69.9433 26.3889 69.7273 26.3222 69.4925C26.2629 69.2351 26.2894 68.9653 26.3977 68.7243C26.506 68.4833 26.6901 68.2844 26.9219 68.1579C26.968 68.128 27.0196 68.1075 27.0737 68.0976C27.1278 68.0877 27.1833 68.0885 27.2371 68.1C27.2908 68.1115 27.3418 68.1335 27.3871 68.1648C27.4323 68.196 27.471 68.2359 27.5009 68.2821C27.5307 68.3283 27.5512 68.3799 27.5612 68.434C27.5711 68.4881 27.5703 68.5437 27.5588 68.5975C27.5472 68.6513 27.5252 68.7023 27.494 68.7475C27.4628 68.7928 27.423 68.8315 27.3768 68.8614C27.1804 68.9959 27.0976 69.1304 27.1287 69.2753C27.222 69.4465 27.3617 69.5879 27.5319 69.6831C27.702 69.7782 27.8956 69.8234 28.0902 69.8132C28.1788 69.8171 28.2638 69.8493 28.3327 69.9052C28.4016 69.9611 28.4507 70.0377 28.4728 70.1236C28.4969 70.2109 28.4918 70.3037 28.4582 70.3878C28.4246 70.4719 28.3643 70.5426 28.2867 70.5892C28.0582 70.7722 27.8921 71.0216 27.8111 71.303H27.8938C28.1115 71.3769 28.337 71.4255 28.5658 71.4479C28.6605 71.4516 28.7513 71.4869 28.8236 71.5483C28.8959 71.6097 28.9455 71.6935 28.9646 71.7865C28.9836 71.8794 28.971 71.976 28.9287 72.0609C28.8864 72.1458 28.8169 72.2141 28.7312 72.2548C26.6082 73.2505 24.319 73.8434 21.9797 74.0033Z" fill="#231F20"/>
<path d="M48.3964 88.5701C51.829 87.4528 55.4374 87.67 58.7356 86.7906C60.4306 86.2618 62.1572 85.8403 63.9052 85.5285C64.8143 85.4043 65.736 85.4043 66.6451 85.5285C67.5785 85.6424 68.4848 85.919 69.3229 86.3458C72.4977 87.8853 75.5437 89.6774 78.4318 91.7049C79.9253 92.6958 81.3114 93.84 82.5674 95.119C83.2033 95.8091 83.7488 96.5774 84.1907 97.4054C84.4159 97.8199 84.6062 98.2525 84.7594 98.6986C84.9248 99.1435 85.0488 99.5263 85.1936 99.9401C85.2402 100.032 85.2675 100.132 85.2739 100.235C85.2803 100.338 85.2656 100.441 85.2308 100.538C85.1959 100.635 85.1416 100.723 85.0712 100.799C85.0008 100.874 84.9158 100.934 84.8214 100.975C84.7287 101.02 84.628 101.045 84.5251 101.05C84.4223 101.055 84.3196 101.039 84.2231 101.003C84.1265 100.968 84.0382 100.913 83.9633 100.842C83.8885 100.771 83.8287 100.686 83.7875 100.592C83.7875 100.592 83.7875 100.519 83.7875 100.478C83.6531 100.064 83.5186 99.6194 83.3842 99.2366C83.2613 98.8549 83.1057 98.4845 82.919 98.1296C82.5533 97.3825 82.091 96.6868 81.5439 96.0605C80.3613 94.8373 79.0628 93.732 77.6667 92.7602C74.8668 90.7151 71.9072 88.8988 68.8163 87.3286C67.3416 86.5735 65.6668 86.302 64.0292 86.5527C62.3214 86.8238 60.6327 87.2039 58.9734 87.6907C55.4684 88.5494 51.9117 88.2597 48.6342 89.2736C48.545 89.3011 48.4487 89.292 48.3663 89.2483C48.2839 89.2046 48.2222 89.13 48.1947 89.0409C48.1673 88.9517 48.1764 88.8553 48.2201 88.7728C48.2637 88.6903 48.3383 88.6286 48.4274 88.6012L48.3964 88.5701Z" fill="#231F20"/>
<path d="M138.389 64.8576C139.292 65.3653 140.066 66.0731 140.653 66.9268C141.234 67.7118 141.713 68.5669 142.08 69.4718C142.473 70.4046 142.67 71.4082 142.659 72.4204C142.652 73.4068 142.47 74.384 142.121 75.3069C141.434 77.0941 140.377 78.7159 139.02 80.0659C138.371 80.8236 137.527 81.3889 136.579 81.7005C136.069 81.8197 135.539 81.8197 135.029 81.7005C134.528 81.596 134.051 81.3996 133.622 81.1212C132.812 80.564 132.111 79.8627 131.555 79.052C130.996 78.284 130.508 77.4667 130.097 76.6104C129.681 75.7534 129.335 74.8643 129.063 73.9516C128.804 72.9682 128.804 71.9346 129.063 70.9513C129.326 69.9612 129.819 69.0468 130.5 68.2821C130.816 67.9094 131.161 67.5633 131.534 67.2475L132.568 66.3474C133.325 65.7101 134.167 65.1809 135.07 64.7749C135.572 64.5492 136.112 64.4228 136.662 64.4024H137.096L137.541 64.4852C137.872 64.6404 138.12 64.7542 138.389 64.8576ZM137.737 66.2129C136.507 65.5611 134.863 66.4819 133.467 67.5268C133.107 67.7829 132.762 68.0593 132.433 68.3545C132.088 68.6119 131.763 68.8955 131.462 69.2028C130.899 69.7929 130.472 70.4992 130.211 71.272C129.972 72.0684 129.943 72.9132 130.128 73.7239C130.354 74.5839 130.648 75.4245 131.007 76.238C131.372 77.0494 131.811 77.8252 132.32 78.5554C132.808 79.2728 133.421 79.8966 134.129 80.397C134.459 80.637 134.837 80.8014 135.237 80.8783C135.638 80.9551 136.05 80.9427 136.445 80.8418C137.249 80.5535 137.963 80.0573 138.513 79.4038C139.753 78.1231 140.692 76.5822 141.263 74.893C141.529 74.072 141.648 73.2104 141.615 72.348C141.572 71.503 141.358 70.6756 140.984 69.9167C140.623 69.1278 140.165 68.3874 139.619 67.713C139.114 67.0764 138.471 66.5634 137.737 66.2129Z" fill="#231F20"/>
<path d="M126.985 79.0314C127.5 79.5941 127.771 80.3381 127.739 81.1005C127.744 81.8368 127.528 82.5575 127.119 83.1697C126.686 83.7502 126.088 84.1865 125.403 84.4215C125.028 84.5477 124.629 84.5845 124.238 84.5288C123.846 84.4731 123.473 84.3265 123.149 84.1008C122.82 83.8481 122.554 83.5222 122.373 83.149C122.227 82.776 122.147 82.3804 122.136 81.9799C122.125 81.7904 122.125 81.6004 122.136 81.4109C122.166 81.219 122.207 81.029 122.26 80.8419C122.384 80.4748 122.558 80.1267 122.777 79.8073C123.211 79.1644 123.837 78.6755 124.565 78.4106C124.993 78.2763 125.451 78.2763 125.878 78.4106C126.297 78.5125 126.68 78.7272 126.985 79.0314ZM126.158 79.9004C126.004 79.7651 125.813 79.6787 125.61 79.6521C125.43 79.6445 125.252 79.6837 125.093 79.7659C124.688 80.0022 124.336 80.3191 124.059 80.697C123.913 80.8879 123.791 81.0965 123.697 81.3178C123.697 81.4316 123.624 81.5454 123.593 81.6592C123.578 81.7759 123.578 81.8942 123.593 82.0109C123.552 82.2332 123.552 82.4611 123.593 82.6834C123.657 82.8821 123.767 83.0629 123.914 83.211C124.088 83.3649 124.296 83.4744 124.521 83.5302C124.746 83.5861 124.981 83.5866 125.206 83.5318C125.719 83.3994 126.173 83.1011 126.499 82.6834C126.759 82.2446 126.863 81.7305 126.793 81.225C126.724 80.7195 126.485 80.2526 126.116 79.9004H126.158Z" fill="#231F20"/>
<path d="M93.8269 17.5878C93.7522 17.5895 93.6788 17.5687 93.6161 17.5281C93.5534 17.4875 93.5044 17.429 93.4753 17.3602C93.1211 16.4821 93.0176 15.5228 93.1765 14.5893C93.3353 13.6558 93.7502 12.7848 94.3748 12.0735C94.4094 12.0388 94.4505 12.0112 94.4958 11.9924C94.541 11.9736 94.5895 11.9639 94.6385 11.9639C94.6875 11.9639 94.736 11.9736 94.7812 11.9924C94.8265 12.0112 94.8676 12.0388 94.9021 12.0735C94.9381 12.1073 94.9668 12.1482 94.9864 12.1936C95.006 12.239 95.0161 12.2879 95.0161 12.3373C95.0161 12.3867 95.006 12.4356 94.9864 12.481C94.9668 12.5264 94.9381 12.5672 94.9021 12.6011C94.3781 13.2089 94.0298 13.9483 93.895 14.7396C93.7601 15.5309 93.8438 16.344 94.137 17.0912C94.1574 17.1366 94.1685 17.1856 94.1697 17.2354C94.1708 17.2852 94.162 17.3347 94.1437 17.381C94.1253 17.4273 94.0979 17.4694 94.0631 17.505C94.0282 17.5405 93.9865 17.5686 93.9406 17.5878H93.8269Z" fill="#231F20"/>
<path d="M96.2462 17.8361C96.148 17.8355 96.0517 17.8094 95.9665 17.7605C95.8813 17.7115 95.8103 17.6413 95.7603 17.5567C95.4251 16.9821 95.2485 16.3288 95.2485 15.6635C95.2485 14.9981 95.4251 14.3448 95.7603 13.7702C95.7995 13.7061 95.8509 13.6504 95.9117 13.6063C95.9725 13.5622 96.0414 13.5306 96.1144 13.5133C96.1875 13.496 96.2632 13.4933 96.3373 13.5054C96.4114 13.5176 96.4823 13.5442 96.5461 13.584C96.6716 13.6666 96.7601 13.7948 96.7929 13.9415C96.8257 14.0882 96.8002 14.242 96.7218 14.3702C96.4881 14.7667 96.3649 15.2187 96.3649 15.679C96.3649 16.1393 96.4881 16.5912 96.7218 16.9877C96.7592 17.0509 96.7838 17.1208 96.7941 17.1935C96.8045 17.2661 96.8004 17.3401 96.7822 17.4112C96.7639 17.4823 96.7319 17.5492 96.6878 17.6078C96.6437 17.6665 96.5886 17.716 96.5254 17.7533C96.4422 17.8071 96.3453 17.8358 96.2462 17.8361Z" fill="#231F20"/>
<path d="M120.595 38.0621C120.507 38.063 120.422 38.0296 120.357 37.969C119.466 37.1604 118.854 36.0893 118.611 34.9104C118.368 33.7314 118.505 32.5056 119.003 31.4097C119.047 31.3198 119.125 31.251 119.22 31.2181C119.315 31.1852 119.419 31.1909 119.509 31.2339C119.554 31.2549 119.593 31.2845 119.626 31.3208C119.659 31.3572 119.684 31.3996 119.7 31.4457C119.716 31.4918 119.724 31.5407 119.721 31.5896C119.718 31.6384 119.706 31.6863 119.685 31.7305C119.256 32.6768 119.136 33.735 119.344 34.7533C119.552 35.7717 120.077 36.6981 120.843 37.3999C120.91 37.4676 120.947 37.5586 120.947 37.6534C120.947 37.7482 120.91 37.8392 120.843 37.9069C120.814 37.9482 120.778 37.9832 120.735 38.0099C120.692 38.0366 120.645 38.0543 120.595 38.0621Z" fill="#231F20"/>
<path d="M122.167 36.4171C122.016 36.4135 121.873 36.3546 121.763 36.2516C121.285 35.7578 120.931 35.1561 120.733 34.4971C120.535 33.8381 120.499 33.1412 120.626 32.465C120.651 32.3944 120.689 32.3292 120.738 32.2733C120.788 32.2173 120.848 32.1717 120.915 32.1391C120.982 32.1064 121.055 32.0873 121.13 32.0829C121.205 32.0785 121.279 32.0888 121.35 32.1133C121.47 32.1488 121.574 32.225 121.644 32.3289C121.713 32.4327 121.745 32.5577 121.732 32.6823C121.646 33.1778 121.676 33.6867 121.822 34.1683C121.967 34.6498 122.223 35.0905 122.57 35.455C122.622 35.5061 122.664 35.5672 122.693 35.6347C122.721 35.7022 122.736 35.7748 122.736 35.8481C122.736 35.9214 122.721 35.994 122.693 36.0615C122.664 36.129 122.622 36.1901 122.57 36.2412C122.521 36.2996 122.459 36.3458 122.389 36.3763C122.319 36.4068 122.243 36.4208 122.167 36.4171Z" fill="#231F20"/>
<path d="M32.7842 34.8549C32.591 34.8552 32.405 34.7813 32.2646 34.6485C32.1242 34.5157 32.04 34.3341 32.0295 34.141C32.0262 34.0236 32.0508 33.9072 32.1011 33.8011C32.1514 33.695 32.226 33.6023 32.319 33.5306C32.6105 33.3065 32.8417 33.0131 32.9915 32.6772C33.1413 32.3412 33.2051 31.9731 33.1771 31.6063C33.1627 31.4065 33.2272 31.2089 33.3567 31.0561C33.4862 30.9033 33.6705 30.8074 33.8698 30.789C33.9677 30.7805 34.0662 30.7914 34.1598 30.8212C34.2534 30.851 34.3401 30.899 34.4151 30.9624C34.49 31.0259 34.5517 31.1036 34.5965 31.191C34.6414 31.2784 34.6685 31.3739 34.6763 31.4718C34.7279 32.0919 34.6234 32.7151 34.3723 33.2843C34.1213 33.8536 33.7317 34.3509 33.2391 34.7307C33.1059 34.8225 32.9455 34.8663 32.7842 34.8549Z" fill="#231F20"/>
<path d="M94.4059 69.3167C93.2476 69.313 92.0992 69.1028 91.0147 68.6959C90.9685 68.6783 90.9263 68.6517 90.8904 68.6177C90.8545 68.5837 90.8256 68.5429 90.8054 68.4978C90.7853 68.4526 90.7742 68.4039 90.7728 68.3545C90.7715 68.3051 90.7799 68.2559 90.7975 68.2097C90.8152 68.1635 90.8417 68.1212 90.8757 68.0853C90.9097 68.0494 90.9504 68.0205 90.9955 68.0003C91.0407 67.9802 91.0893 67.9691 91.1387 67.9677C91.1881 67.9663 91.2373 67.9747 91.2835 67.9924C92.3664 68.3991 93.5186 68.5889 94.6747 68.5511C94.7754 68.5509 94.8724 68.5895 94.9455 68.6588C95.0186 68.7281 95.0623 68.8229 95.0676 68.9235C95.069 68.9724 95.0607 69.0211 95.0433 69.0669C95.0258 69.1126 94.9996 69.1544 94.9659 69.1899C94.9323 69.2255 94.8921 69.2541 94.8474 69.274C94.8028 69.294 94.7546 69.305 94.7057 69.3063H94.4059V69.3167Z" fill="#231F20"/>
<path d="M93.9613 67.7027C93.0432 67.6966 92.1321 67.5429 91.2628 67.2475C91.216 67.2335 91.1726 67.2101 91.1351 67.1788C91.0976 67.1475 91.0668 67.109 91.0446 67.0655C91.0224 67.022 91.0092 66.9745 91.0058 66.9257C91.0024 66.877 91.0089 66.8281 91.025 66.782C91.0579 66.6883 91.126 66.6112 91.2147 66.5668C91.3034 66.5224 91.4059 66.5142 91.5006 66.544C92.4994 66.8733 93.5539 66.9999 94.6023 66.9165C94.6979 66.9076 94.7932 66.936 94.8683 66.9958C94.9435 67.0555 94.9926 67.142 95.0055 67.2372C95.0142 67.3344 94.9844 67.4312 94.9226 67.5066C94.8607 67.5821 94.7717 67.6302 94.6747 67.6407C94.4472 67.6924 94.2094 67.7027 93.9613 67.7027Z" fill="#231F20"/>
<path d="M85.4624 61.04H85.4004C84.5248 60.8848 83.6662 60.6457 82.8363 60.3262C82.7441 60.2892 82.6699 60.2178 82.6293 60.127C82.5888 60.0363 82.5852 59.9333 82.6191 59.8399C82.652 59.749 82.7189 59.6743 82.8057 59.6319C82.8926 59.5894 82.9925 59.5824 83.0844 59.6123C83.8711 59.9134 84.6847 60.1386 85.5141 60.2848C85.6043 60.3059 85.6837 60.359 85.7377 60.4343C85.7917 60.5095 85.8166 60.6018 85.8078 60.6941C85.799 60.7863 85.757 60.8722 85.6897 60.9358C85.6224 60.9994 85.5343 61.0365 85.4418 61.04H85.4624Z" fill="#231F20"/>
<path d="M144.293 16.5532C144.192 16.5523 144.093 16.5251 144.006 16.4743C143.919 16.4235 143.847 16.3508 143.796 16.2635C141.942 12.9032 140.262 9.45012 138.761 5.91775C138.702 5.78056 138.7 5.62555 138.755 5.48682C138.811 5.3481 138.919 5.23702 139.056 5.17803C139.193 5.11904 139.348 5.11696 139.486 5.17225C139.625 5.22755 139.736 5.33569 139.795 5.47288C141.284 8.93872 142.959 12.3735 144.789 15.6842C144.859 15.8161 144.874 15.9703 144.832 16.1136C144.789 16.2568 144.692 16.3776 144.561 16.4497C144.485 16.5112 144.391 16.5474 144.293 16.5532Z" fill="#231F20"/>
<path d="M150.372 35.1756C150.317 35.1776 150.261 35.1665 150.211 35.1431C150.161 35.1198 150.117 35.0848 150.082 35.0411C146.166 30.3051 142.92 25.0518 140.436 19.4294C140.416 19.3845 140.404 19.3361 140.403 19.2869C140.401 19.2377 140.409 19.1886 140.426 19.1425C140.444 19.0964 140.47 19.0541 140.503 19.0181C140.537 18.9821 140.577 18.9531 140.622 18.9328C140.667 18.9124 140.715 18.901 140.764 18.8994C140.814 18.8977 140.863 18.9057 140.909 18.923C140.955 18.9403 140.997 18.9665 141.033 19.0001C141.069 19.0338 141.098 19.0741 141.118 19.119C143.582 24.6785 146.792 29.8753 150.661 34.5652C150.696 34.5998 150.724 34.6409 150.742 34.6862C150.761 34.7315 150.771 34.78 150.771 34.829C150.771 34.8781 150.761 34.9266 150.742 34.9719C150.724 35.0171 150.696 35.0582 150.661 35.0928C150.622 35.1261 150.575 35.1506 150.525 35.1648C150.476 35.1791 150.423 35.1828 150.372 35.1756Z" fill="#231F20"/>
<path d="M147.425 43.2246C147.347 43.2256 147.269 43.2094 147.198 43.1773C147.127 43.1451 147.063 43.0977 147.012 43.0384C143.848 39.5111 141.409 35.3944 139.836 30.9235C139.812 30.8542 139.801 30.7808 139.805 30.7074C139.809 30.6339 139.827 30.562 139.859 30.4957C139.891 30.4294 139.935 30.37 139.99 30.3209C140.044 30.2718 140.108 30.234 140.178 30.2096C140.319 30.1597 140.474 30.1675 140.61 30.2314C140.745 30.2953 140.85 30.4102 140.901 30.551C142.413 34.8784 144.767 38.8626 147.829 42.2728C147.914 42.3504 147.973 42.453 147.997 42.5661C148.021 42.6791 148.008 42.7968 147.961 42.9024C147.914 43.0079 147.835 43.0959 147.735 43.1537C147.635 43.2116 147.52 43.2364 147.405 43.2246H147.425Z" fill="#231F20"/>
<path d="M152.729 33.841C152.652 33.8407 152.576 33.8251 152.505 33.7948C152.434 33.7646 152.37 33.7205 152.316 33.6651C150.639 31.9169 149.152 29.9956 147.88 27.9336C147.841 27.872 147.814 27.8032 147.801 27.7311C147.789 27.6589 147.79 27.585 147.807 27.5137C147.823 27.4423 147.854 27.375 147.897 27.3156C147.939 27.2562 147.994 27.206 148.056 27.168C148.185 27.0937 148.337 27.0716 148.481 27.1062C148.625 27.1409 148.751 27.2296 148.832 27.3542C150.062 29.3521 151.501 31.2143 153.122 32.9099C153.226 33.0162 153.285 33.1593 153.285 33.3082C153.285 33.4571 153.226 33.6001 153.122 33.7065C153.011 33.7952 152.872 33.8427 152.729 33.841Z" fill="#231F20"/>
<path d="M78.9074 90.5462C78.8289 90.5478 78.7522 90.5222 78.6903 90.4738L73.2519 86.7597C73.1696 86.7034 73.113 86.6168 73.0946 86.5188C73.0762 86.4208 73.0974 86.3195 73.1536 86.2372C73.2099 86.1549 73.2964 86.0983 73.3944 86.0798C73.4923 86.0614 73.5935 86.0827 73.6758 86.1389L79.1142 89.853C79.1787 89.8995 79.2272 89.9649 79.2529 90.0403C79.2785 90.1156 79.2801 90.197 79.2574 90.2733C79.2346 90.3495 79.1887 90.4168 79.126 90.4657C79.0632 90.5146 78.9869 90.5427 78.9074 90.5462Z" fill="#231F20"/>
<path d="M73.6241 91.9118C73.5628 91.9256 73.4992 91.9256 73.438 91.9118L72.1766 91.1669C72.0936 91.121 72.0319 91.0443 72.0049 90.9534C71.9778 90.8625 71.9875 90.7645 72.0318 90.6807C72.0815 90.5959 72.1626 90.5343 72.2575 90.5091C72.3524 90.4839 72.4533 90.4972 72.5384 90.5462L73.8102 91.2911C73.8956 91.3427 73.9574 91.4257 73.9825 91.5224C74.0076 91.619 73.994 91.7216 73.9446 91.8084C73.9022 91.8483 73.8514 91.8783 73.796 91.8962C73.7405 91.9141 73.6818 91.9194 73.6241 91.9118Z" fill="#231F20"/>
<path d="M98.3451 50.0528C98.2812 50.0526 98.2185 50.0364 98.1625 50.0057C98.1065 49.975 98.0591 49.9307 98.0246 49.877C96.7958 47.8566 96.2958 45.4759 96.6081 43.1315C96.6191 43.0736 96.6423 43.0188 96.6762 42.9706C96.7101 42.9224 96.7538 42.8821 96.8045 42.8522C96.856 42.8266 96.9126 42.8134 96.97 42.8134C97.0274 42.8134 97.084 42.8266 97.1354 42.8522C97.6944 43.0992 98.1765 43.4923 98.5312 43.9902C99.1821 42.1203 100.061 40.3378 101.147 38.6828C101.203 38.6025 101.289 38.547 101.385 38.5278C101.481 38.5085 101.581 38.527 101.664 38.5794C101.706 38.6057 101.742 38.64 101.77 38.6803C101.798 38.7206 101.818 38.7661 101.829 38.8143C101.839 38.8624 101.84 38.9121 101.831 38.9606C101.823 39.009 101.804 39.0553 101.778 39.0967C100.57 40.9386 99.6269 42.9411 98.9758 45.0455C98.9533 45.121 98.9068 45.1871 98.8434 45.2338C98.7799 45.2805 98.703 45.3052 98.6242 45.3041C98.5473 45.3043 98.4719 45.2818 98.4076 45.2395C98.3433 45.1972 98.2928 45.1369 98.2624 45.0662C98.0721 44.5604 97.7378 44.1215 97.3008 43.804C97.1509 45.7935 97.6282 47.7799 98.6656 49.4838C98.6936 49.5262 98.7126 49.5738 98.7215 49.6238C98.7304 49.6737 98.729 49.725 98.7174 49.7744C98.7057 49.8238 98.6842 49.8703 98.6539 49.9111C98.6237 49.9519 98.5854 49.986 98.5415 50.0114C98.4803 50.0408 98.4129 50.055 98.3451 50.0528Z" fill="#231F20"/>
<path d="M148.418 13.4495C148.36 13.4495 148.303 13.4365 148.251 13.4114C148.2 13.3863 148.154 13.3498 148.118 13.3046C146.31 10.8892 144.764 8.2881 143.507 5.54529C143.486 5.50045 143.475 5.45204 143.473 5.40282C143.472 5.3536 143.48 5.30453 143.497 5.25842C143.532 5.16529 143.602 5.08985 143.693 5.04869C143.783 5.00753 143.887 5.00403 143.98 5.03895C144.026 5.05625 144.068 5.08245 144.104 5.11608C144.14 5.1497 144.169 5.19008 144.189 5.23491C145.422 7.92816 146.94 10.481 148.718 12.8494C148.777 12.9295 148.802 13.0294 148.788 13.1279C148.775 13.2263 148.724 13.3157 148.645 13.377C148.58 13.427 148.5 13.4526 148.418 13.4495Z" fill="#231F20"/>
<path d="M147.57 37.8345C147.461 37.8335 147.354 37.8056 147.258 37.7532C147.163 37.7009 147.082 37.6257 147.022 37.5344C143.631 32.3616 139.785 26.4748 138.854 19.8018C138.83 19.6306 138.874 19.4569 138.977 19.3177C139.079 19.1785 139.232 19.0849 139.402 19.0569C139.488 19.0437 139.576 19.0477 139.661 19.0687C139.746 19.0896 139.825 19.1272 139.896 19.1791C139.966 19.231 140.025 19.2963 140.07 19.3712C140.115 19.4461 140.144 19.5292 140.157 19.6156C141.056 25.9886 144.81 31.7408 148.118 36.8102C148.167 36.8822 148.201 36.9632 148.219 37.0484C148.237 37.1337 148.237 37.2216 148.221 37.3071C148.205 37.3926 148.172 37.4741 148.124 37.5468C148.076 37.6196 148.014 37.6822 147.942 37.731C147.831 37.8012 147.702 37.8372 147.57 37.8345Z" fill="#231F20"/>
<path d="M146.081 24.3332C145.964 24.3312 145.848 24.2986 145.747 24.2388C145.645 24.179 145.561 24.0939 145.502 23.9918C142.4 18.4361 139.371 12.4046 138.461 5.95914C138.446 5.87417 138.449 5.7871 138.468 5.703C138.487 5.61889 138.522 5.5394 138.572 5.46915C138.622 5.3989 138.686 5.33929 138.759 5.29375C138.832 5.24822 138.914 5.21768 138.999 5.2039C139.085 5.1907 139.173 5.1947 139.258 5.21567C139.343 5.23665 139.422 5.27418 139.492 5.3261C139.563 5.37803 139.622 5.44332 139.667 5.51823C139.711 5.59314 139.741 5.67618 139.754 5.76257C140.632 11.97 143.579 17.8878 146.64 23.3504C146.684 23.4263 146.712 23.5102 146.724 23.5973C146.735 23.6844 146.729 23.7729 146.706 23.8576C146.683 23.9423 146.643 24.0216 146.589 24.0908C146.535 24.1601 146.468 24.2178 146.391 24.2608C146.294 24.3068 146.189 24.3314 146.081 24.3332Z" fill="#231F20"/>
<path d="M143.879 10.9044C143.771 10.9055 143.664 10.8795 143.568 10.829C143.473 10.7784 143.391 10.7048 143.331 10.6147C142.174 8.93759 141.365 7.04476 140.953 5.04871C140.935 4.96309 140.934 4.87472 140.95 4.78871C140.966 4.70271 140.999 4.62078 141.047 4.54766C141.096 4.47454 141.158 4.41169 141.23 4.36273C141.303 4.31377 141.384 4.27968 141.47 4.26243C141.555 4.24431 141.644 4.24334 141.73 4.25958C141.816 4.27582 141.898 4.30895 141.971 4.35705C142.044 4.40516 142.107 4.46728 142.155 4.53983C142.204 4.61238 142.238 4.69392 142.256 4.77972C142.596 6.4198 143.226 7.9859 144.117 9.40428C144.265 9.48801 144.376 9.6248 144.427 9.78708L144.51 10.0354C144.554 10.1872 144.544 10.3495 144.482 10.4948C144.419 10.6401 144.309 10.7592 144.168 10.832C144.081 10.8825 143.98 10.9075 143.879 10.9044Z" fill="#231F20"/>
<path d="M45.5531 62.1677C46.9428 62.4487 48.385 62.3008 49.6888 61.7435C50.6607 61.3193 51.6222 60.4813 51.5499 59.4157C51.4775 58.3501 50.3298 57.6156 49.3786 57.0052C47.3108 55.7016 42.6168 51.4598 45.1292 48.9148C45.1238 48.8772 45.107 48.8422 45.0811 48.8145C45.0552 48.7868 45.0215 48.7676 44.9845 48.7596C44.3023 48.4885 43.5494 48.4521 42.8443 48.6561C42.4617 48.8734 41.5415 51.1391 42.1309 51.3357C41.8881 51.2704 41.6319 51.2756 41.392 51.3507C41.1521 51.4258 40.9386 51.5677 40.7764 51.7598C39.1221 53.7049 40.5283 57.6466 41.6346 59.5709C42.0645 60.2587 42.6367 60.8463 43.3126 61.2942C43.9886 61.7421 44.7525 62.04 45.5531 62.1677Z" fill="#EC1555"/>
<path d="M44.4365 59.0743C44.3803 59.0819 44.3232 59.0765 44.2695 59.0585C44.2157 59.0406 44.1667 59.0106 44.1263 58.9709C43.5009 58.2201 42.9568 57.4052 42.5031 56.5396C41.5751 54.4933 41.2902 52.2131 41.6863 50.0011C41.6926 49.952 41.7087 49.9046 41.7335 49.8618C41.7583 49.819 41.7915 49.7816 41.8309 49.7517C41.8704 49.7218 41.9154 49.7001 41.9634 49.6879C42.0113 49.6757 42.0612 49.6731 42.1102 49.6804C42.2102 49.6957 42.3 49.75 42.3601 49.8314C42.4201 49.9129 42.4455 50.0148 42.4307 50.1149C42.0663 52.1725 42.3293 54.2922 43.1855 56.1982C43.6105 57.0172 44.1236 57.7874 44.7157 58.495C44.7472 58.5329 44.7709 58.5767 44.7854 58.6238C44.7999 58.671 44.8048 58.7205 44.8 58.7696C44.7952 58.8187 44.7807 58.8663 44.7574 58.9098C44.734 58.9532 44.7023 58.9916 44.664 59.0226C44.5978 59.0688 44.5162 59.0874 44.4365 59.0743Z" fill="#231F20"/>
<path d="M39.7425 54.2532C39.5718 54.2626 39.4034 54.2113 39.2669 54.1084C39.112 53.9894 39.01 53.8143 38.9829 53.6207C38.9558 53.4272 39.0058 53.2308 39.1222 53.0738C40.9859 50.4866 41.9122 47.3408 41.7483 44.1557C41.5921 40.9293 40.7047 37.7807 39.1532 34.948C39.0462 34.7765 39.0117 34.5695 39.0573 34.3726C39.1029 34.1757 39.2248 34.0049 39.3961 33.8979C39.5675 33.7909 39.7744 33.7564 39.9712 33.802C40.168 33.8476 40.3386 33.9695 40.4456 34.141C40.4703 34.1802 40.4911 34.2218 40.5076 34.2652C42.1631 37.3003 43.1104 40.6711 43.2785 44.1247C43.43 47.6538 42.3802 51.1298 40.3008 53.9842C40.2317 54.0655 40.1462 54.1315 40.0501 54.1778C39.9539 54.2241 39.8492 54.2498 39.7425 54.2532Z" fill="#231F20"/>
<path d="M47.0523 60.8952H46.9799C46.399 60.7879 45.8485 60.5549 45.367 60.2124C45.3259 60.1854 45.2907 60.1503 45.2636 60.1093C45.2365 60.0683 45.218 60.0222 45.2093 59.9738C45.2006 59.9254 45.2019 59.8757 45.213 59.8278C45.2241 59.7799 45.2448 59.7347 45.274 59.6951C45.3337 59.6153 45.4223 59.562 45.5208 59.5465C45.6193 59.531 45.7199 59.5547 45.8012 59.6123C46.1896 59.8892 46.6346 60.0765 47.104 60.1607C47.2021 60.1784 47.2894 60.2337 47.3473 60.3149C47.4052 60.396 47.4292 60.4966 47.4142 60.5952C47.3994 60.6801 47.3549 60.757 47.2885 60.812C47.2222 60.867 47.1384 60.8965 47.0523 60.8952Z" fill="#231F20"/>
</svg>
