<?xml version="1.0" encoding="UTF-8"?>
<svg width="26px" height="18px" viewBox="0 0 26 18" version="1.1" xmlns="http://www.w3.org/2000/svg" xmlns:xlink="http://www.w3.org/1999/xlink">
    <!-- Generator: Sketch 53.2 (72643) - https://sketchapp.com -->
    <title>Group 2</title>
    <desc>Created with Sketch.</desc>
    <g id="----Login-e-Criar-conta" stroke="none" stroke-width="1" fill="none" fill-rule="evenodd">
        <g id="INICIAL-&gt;-LOGIN-&gt;-Private-key" transform="translate(-853.000000, -417.000000)" fill="#00BDCD" fill-rule="nonzero">
            <g id="Group-2" transform="translate(853.000000, 417.000000)">
                <path d="M5.10869891,13.8913011 C1.61720816,11.8301147 1.61648472e-13,9 1.61648472e-13,9 C1.61648472e-13,9 4,2 13,2 C14.3045107,2 15.5039752,2.14706466 16.6014388,2.39856122 L15.7519017,3.2480983 C14.8971484,3.0900546 13.9800929,3 13,3 C5,3 1.19995117,9 1.19995117,9 C1.19995117,9 2.71472808,11.3917225 5.84492713,13.1550729 L5.10869891,13.8913011 L5.10869891,13.8913011 L5.10869891,13.8913011 Z" id="eye-hidden-path"></path>
                <path d="M9.398561,15.601439 C10.4960246,15.8529356 11.6954892,16.0000001 13,16 C22,15.999999 26,9 26,9 C26,9 24.3827918,6.1698856 20.8913008,4.1086992 L20.1550727,4.8449273 C23.2852719,6.6082776 24.8000488,9 24.8000488,9 C24.8000488,9 21,14.999999 13,15 C12.019907,15.0000001 11.1028515,14.9099455 10.2480981,14.7519019 L9.398561,15.601439 L9.398561,15.601439 L9.398561,15.601439 Z" id="eye-hidden-path"></path>
                <path d="M16.8986531,8.1013469 C16.9649658,8.3902115 17,8.6910144 17,9 C17,11.2091391 15.2091391,13 13,13 C12.6910144,13 12.3902115,12.9649658 12.1013469,12.8986531 L13,12 C13.7677669,12.0000001 14.5355339,11.7071068 15.1213203,11.1213203 C15.7071068,10.5355339 16.0000001,9.7677669 16,9 L16.8986531,8.1013469 L16.8986531,8.1013469 L16.8986531,8.1013469 Z" id="eye-hidden-path"></path>
                <path d="M13.8986531,5.1013469 C13.6097885,5.0350342 13.3089856,5 13,5 C10.7908609,5 9,6.7908609 9,9 C9,9.3089856 9.0350342,9.6097885 9.1013469,9.8986531 L10,9 C9.9999999,8.2322331 10.2928932,7.4644661 10.8786797,6.8786797 C11.4644661,6.2928932 12.2322331,5.9999999 13,6 L13.8986531,5.1013469 L13.8986531,5.1013469 L13.8986531,5.1013469 Z" id="eye-hidden-path"></path>
                <polygon id="eye-hidden-path" points="21 0 4 17 5 18 22 1"></polygon>
            </g>
        </g>
    </g>
</svg>