<svg width="21" height="15" fill="none" xmlns="http://www.w3.org/2000/svg">
	<mask id="a" maskUnits="userSpaceOnUse" x="0" y="0" width="21" height="15">
		<path d="M19 0H2a2 2 0 00-2 2v11a2 2 0 002 2h17a2 2 0 002-2V2a2 2 0 00-2-2z" fill="#fff" />
	</mask>
	<g mask="url(#a)">
		<path d="M19 0H2a2 2 0 00-2 2v11a2 2 0 002 2h17a2 2 0 002-2V2a2 2 0 00-2-2z" fill="#FDDF00" />
		<path fill-rule="evenodd" clip-rule="evenodd" d="M0 10h21v5H0v-5z" fill="#DD0A07" />
		<path fill-rule="evenodd" clip-rule="evenodd" d="M0 0h21v5H0V0z" fill="#008A2A" />
		<path d="M10.5 12a4.5 4.5 0 100-9 4.5 4.5 0 000 9z" fill="#0643B2" />
		<path fill-rule="evenodd" clip-rule="evenodd"
			d="M10.498 8.75l-1.47.773.28-1.637-1.188-1.16 1.643-.237.735-1.49.734 1.49 1.643.237-1.19 1.16.282 1.636"
			fill="#FDDF00" />
		<path d="M19 .5H2A1.5 1.5 0 00.5 2v11A1.5 1.5 0 002 14.5h17a1.5 1.5 0 001.5-1.5V2A1.5 1.5 0 0019 .5z"
			stroke="#000" stroke-opacity=".1" />
	</g>
</svg>
