<svg width="21" height="15" fill="none" xmlns="http://www.w3.org/2000/svg">
    <mask id="a" maskUnits="userSpaceOnUse" x="0" y="0" width="21" height="15">
        <path d="M19 0H2a2 2 0 00-2 2v11a2 2 0 002 2h17a2 2 0 002-2V2a2 2 0 00-2-2z" fill="#fff" />
    </mask>
    <g mask="url(#a)">
        <path d="M19 0H2a2 2 0 00-2 2v11a2 2 0 002 2h17a2 2 0 002-2V2a2 2 0 00-2-2z" fill="#fff" />
        <path fill-rule="evenodd" clip-rule="evenodd"
            d="M0 0h5v15H0V0zm16 0h5v15h-5V0zm-5.5 4l-1 2L8 5v2L7 8l2 1h1v2h1V9h1l2-1-1-1V5l-1.6 1-.9-2z" fill="red" />
        <path d="M19 .5H2A1.5 1.5 0 00.5 2v11A1.5 1.5 0 002 14.5h17a1.5 1.5 0 001.5-1.5V2A1.5 1.5 0 0019 .5z"
            stroke="#000" stroke-opacity=".1" />
    </g>
</svg>
