<svg width="21" height="15" fill="none" xmlns="http://www.w3.org/2000/svg">
    <mask id="a" maskUnits="userSpaceOnUse" x="0" y="0" width="21" height="15">
        <path d="M19 0H2a2 2 0 00-2 2v11a2 2 0 002 2h17a2 2 0 002-2V2a2 2 0 00-2-2z" fill="#fff" />
    </mask>
    <g mask="url(#a)">
        <path d="M19 0H2a2 2 0 00-2 2v11a2 2 0 002 2h17a2 2 0 002-2V2a2 2 0 00-2-2z" fill="#009C34" />
        <path fill-rule="evenodd" clip-rule="evenodd" d="M10.5 2L18 7.5 10.5 13 3 7.5" fill="#F8E23D" />
        <path d="M10.5 11a3.5 3.5 0 100-7 3.5 3.5 0 000 7z" fill="#002478" />
        <path fill-rule="evenodd" clip-rule="evenodd" d="M9 9v1h1V9H9zm2 0v1h1V9h-1z" fill="#91A1C3" />
        <path d="M8 6s2.264.4 3.896 1.098L14 8" stroke="#C9D0E0" />
        <path d="M19 .5H2A1.5 1.5 0 00.5 2v11A1.5 1.5 0 002 14.5h17a1.5 1.5 0 001.5-1.5V2A1.5 1.5 0 0019 .5z"
            stroke="#000" stroke-opacity=".1" />
    </g>
</svg>
