<?xml version="1.0" encoding="UTF-8" standalone="no"?>
<!-- Generator: Adobe Illustrator 21.0.0, SVG Export Plug-In . SVG Version: 6.00 Build 0)  -->

<svg
   xmlns:dc="http://purl.org/dc/elements/1.1/"
   xmlns:cc="http://creativecommons.org/ns#"
   xmlns:rdf="http://www.w3.org/1999/02/22-rdf-syntax-ns#"
   xmlns:svg="http://www.w3.org/2000/svg"
   xmlns="http://www.w3.org/2000/svg"
   xmlns:sodipodi="http://sodipodi.sourceforge.net/DTD/sodipodi-0.dtd"
   xmlns:inkscape="http://www.inkscape.org/namespaces/inkscape"
   version="1.1"
   id="Layer_1"
   x="0px"
   y="0px"
   viewBox="0 0 924.72443 924.72443"
   xml:space="preserve"
   sodipodi:docname="BS_isologo.svg"
   inkscape:version="0.92.2 (5c3e80d, 2017-08-06)"
   width="924.72443"
   height="924.72443"
   inkscape:export-filename="/home/karla/Documents/00 BeSpiral/Branding/BeSpiral Logo 2018/BS_isologo .png"
   inkscape:export-xdpi="96"
   inkscape:export-ydpi="96"><metadata
     id="metadata949"><rdf:RDF><cc:Work
         rdf:about=""><dc:format>image/svg+xml</dc:format><dc:type
           rdf:resource="http://purl.org/dc/dcmitype/StillImage" /><dc:title></dc:title></cc:Work></rdf:RDF></metadata><defs
     id="defs947" /><sodipodi:namedview
     pagecolor="#ffffff"
     bordercolor="#666666"
     borderopacity="1"
     objecttolerance="10"
     gridtolerance="10"
     guidetolerance="10"
     inkscape:pageopacity="0"
     inkscape:pageshadow="2"
     inkscape:window-width="1309"
     inkscape:window-height="713"
     id="namedview945"
     showgrid="false"
     inkscape:zoom="0.396875"
     inkscape:cx="529.13385"
     inkscape:cy="495.90553"
     inkscape:window-x="57"
     inkscape:window-y="27"
     inkscape:window-maximized="1"
     inkscape:current-layer="Layer_1" /><style
     type="text/css"
     id="style918">
	.st0{fill:#F99D33;}
	.st1{fill:#00BDCD;}
	.st2{fill:#9B4198;}
	.st3{fill:#F2663B;}
	.st4{fill:#8ACC9E;}
	.st5{fill:#45469B;}
</style><g
     id="g942"
     transform="matrix(1.1089856,0,0,1.1089856,-501.84968,-296.3756)"><circle
       class="st0"
       cx="702.70392"
       cy="559.44073"
       id="circle920"
       r="58.240768"
       style="fill:#f99d33;stroke-width:4.8132863" /><circle
       class="st1"
       cx="869.72504"
       cy="559.44073"
       id="circle922"
       r="58.240768"
       style="fill:#00bdcd;stroke-width:4.8132863" /><path
       class="st2"
       d="m 1147.4515,647.52396 c -8.6639,-5.77595 -18.2904,-8.66392 -28.3983,-8.66392 -3.3693,0 -6.7387,0.48133 -10.5893,0.96266 -13.4772,2.88797 -25.0291,10.58923 -32.7303,22.14112 l -82.78856,125.14545 c -7.70125,11.55188 -10.1079,25.02909 -7.70125,38.50629 2.88797,13.4772 10.58923,25.02909 22.14111,32.73035 11.5519,7.70125 25.0291,10.1079 38.5063,7.70125 13.4772,-2.88797 25.0291,-10.58923 32.7303,-22.14111 l 82.7886,-125.14545 c 7.7012,-11.55189 10.1079,-25.02909 7.7012,-38.50629 -2.4066,-13.47721 -10.1079,-25.02909 -21.6598,-32.73035 z"
       id="path924"
       inkscape:connector-curvature="0"
       style="fill:#9b4198;stroke-width:4.8132863" /><path
       class="st3"
       d="m 577.55842,718.7606 82.78853,125.14545 c 7.70126,11.55188 19.25314,19.25314 32.73035,22.14111 13.4772,2.88798 26.9544,0 38.50629,-7.70125 23.5851,-15.88385 30.3237,-47.65154 14.43986,-71.23664 L 663.23492,661.96382 c -7.70126,-11.55189 -19.25315,-19.25315 -32.73035,-22.14112 -3.3693,-0.48133 -6.7386,-0.96266 -10.58923,-0.96266 -10.1079,0 -19.73447,2.88797 -28.39839,8.66392 -23.10377,15.88384 -29.84238,47.65153 -13.95853,71.23664 z"
       id="path926"
       inkscape:connector-curvature="0"
       style="fill:#f2663b;stroke-width:4.8132863" /><circle
       class="st2"
       cx="1037.2273"
       cy="559.44073"
       id="circle928"
       r="58.240768"
       style="fill:#9b4198;stroke-width:4.8132863" /><path
       class="st0"
       d="m 814.37212,647.52396 c -8.66392,-5.77595 -18.29049,-8.66392 -28.39839,-8.66392 -3.3693,0 -6.73861,0.48133 -10.58923,0.96266 -13.47721,2.88797 -25.02909,10.58923 -32.73035,22.14112 l -82.78853,125.14545 c -7.70126,11.55188 -10.1079,25.02909 -7.70126,38.50629 2.88797,13.4772 10.58923,25.02909 22.14112,32.73035 11.55189,7.70125 25.02909,10.1079 38.50629,7.70125 13.4772,-2.88797 25.02909,-10.58923 32.73035,-22.14111 L 828.33065,718.7606 c 7.70126,-11.55189 10.1079,-25.02909 7.70126,-38.50629 -2.40665,-13.47721 -10.10791,-25.02909 -21.65979,-32.73035 z"
       id="path930"
       inkscape:connector-curvature="0"
       style="fill:#f99d33;stroke-width:4.8132863" /><path
       class="st4"
       d="m 736.39687,680.25431 c -2.88797,13.4772 0,26.9544 7.70126,38.50629 l 82.78853,125.14545 c 7.70126,11.55188 19.25315,19.25314 32.73035,22.14111 13.4772,2.88798 27.43573,0 38.50629,-7.70125 23.5851,-15.88385 30.32371,-47.65154 14.43986,-71.23664 L 829.77463,661.96382 c -7.70126,-11.55189 -19.25314,-19.25315 -32.73035,-22.14112 -3.3693,-0.48133 -6.7386,-0.96266 -10.58923,-0.96266 -10.1079,0 -19.73447,2.88797 -28.39839,8.66392 -11.07056,7.70126 -18.77181,19.25314 -21.65979,32.73035 z"
       id="path932"
       inkscape:connector-curvature="0"
       style="fill:#8acc9e;stroke-width:4.8132863" /><path
       class="st1"
       d="m 909.67519,661.96382 -82.78853,125.14545 c -7.70126,11.55188 -10.1079,25.02909 -7.70126,38.50629 2.88797,13.4772 10.58923,25.02909 22.14112,32.73035 11.55189,7.70125 25.02909,10.1079 38.50629,7.70125 13.4772,-2.88797 25.02909,-10.58923 32.73035,-22.14111 L 995.35169,718.7606 c 15.40251,-23.58511 9.14521,-55.83413 -14.43986,-71.23664 -8.66392,-5.77595 -18.29049,-8.66392 -28.39839,-8.66392 -3.3693,0 -6.7386,0.48133 -10.58923,0.96266 -13.4772,2.88797 -25.02909,10.58923 -32.24902,22.14112 z"
       id="path934"
       inkscape:connector-curvature="0"
       style="fill:#00bdcd;stroke-width:4.8132863" /><path
       class="st5"
       d="m 910.15652,718.7606 82.78852,125.14545 c 7.70126,11.55188 19.25316,19.25314 32.73036,22.14111 13.4772,2.88798 27.4357,0 38.5063,-7.70125 23.5851,-15.88385 30.3237,-47.65154 14.4398,-71.23664 L 995.83302,661.96382 c -7.70126,-11.55189 -19.25315,-19.25315 -32.73035,-22.14112 -3.3693,-0.48133 -6.7386,-0.96266 -10.58923,-0.96266 -10.1079,0 -19.73448,2.88797 -28.39839,8.66392 -23.10378,15.88384 -29.36105,47.65153 -13.95853,71.23664 z"
       id="path940"
       inkscape:connector-curvature="0"
       style="fill:#45469b;stroke-width:4.8132863" /></g></svg>