<?xml version="1.0" encoding="UTF-8"?>
<svg width="783px" height="78px" viewBox="0 0 783 78" version="1.1" xmlns="http://www.w3.org/2000/svg" xmlns:xlink="http://www.w3.org/1999/xlink">
    <!-- Generator: Sketch 49.1 (51147) - http://www.bohemiancoding.com/sketch -->
    <title>logo</title>
    <desc>Created with Sketch.</desc>
    <defs></defs>
    <g id="Page-1" stroke="none" stroke-width="1" fill="none" fill-rule="evenodd">
        <g id="logo" fill-rule="nonzero">
            <circle id="Oval" fill="#F99D33" cx="28.7" cy="12.3" r="12.1"></circle>
            <circle id="Oval" fill="#00BDCD" cx="63.4" cy="12.3" r="12.1"></circle>
            <path d="M121.1,30.6 C119.3,29.4 117.3,28.8 115.2,28.8 C114.5,28.8 113.8,28.9 113,29 C110.2,29.6 107.8,31.2 106.2,33.6 L89,59.6 C87.4,62 86.9,64.8 87.4,67.6 C88,70.4 89.6,72.8 92,74.4 C94.4,76 97.2,76.5 100,76 C102.8,75.4 105.2,73.8 106.8,71.4 L124,45.4 C125.6,43 126.1,40.2 125.6,37.4 C125.1,34.6 123.5,32.2 121.1,30.6 Z" id="Shape" fill="#9B4198"></path>
            <path d="M2.7,45.4 L19.9,71.4 C21.5,73.8 23.9,75.4 26.7,76 C29.5,76.6 32.3,76 34.7,74.4 C39.6,71.1 41,64.5 37.7,59.6 L20.5,33.6 C18.9,31.2 16.5,29.6 13.7,29 C13,28.9 12.3,28.8 11.5,28.8 C9.4,28.8 7.4,29.4 5.6,30.6 C0.8,33.9 -0.6,40.5 2.7,45.4 Z" id="Shape" fill="#F2663B"></path>
            <circle id="Oval" fill="#9B4198" cx="98.2" cy="12.3" r="12.1"></circle>
            <path d="M51.9,30.6 C50.1,29.4 48.1,28.8 46,28.8 C45.3,28.8 44.6,28.9 43.8,29 C41,29.6 38.6,31.2 37,33.6 L19.8,59.6 C18.2,62 17.7,64.8 18.2,67.6 C18.8,70.4 20.4,72.8 22.8,74.4 C25.2,76 28,76.5 30.8,76 C33.6,75.4 36,73.8 37.6,71.4 L54.8,45.4 C56.4,43 56.9,40.2 56.4,37.4 C55.9,34.6 54.3,32.2 51.9,30.6 Z" id="Shape" fill="#F99D33"></path>
            <path d="M35.7,37.4 C35.1,40.2 35.7,43 37.3,45.4 L54.5,71.4 C56.1,73.8 58.5,75.4 61.3,76 C64.1,76.6 67,76 69.3,74.4 C74.2,71.1 75.6,64.5 72.3,59.6 L55.1,33.6 C53.5,31.2 51.1,29.6 48.3,29 C47.6,28.9 46.9,28.8 46.1,28.8 C44,28.8 42,29.4 40.2,30.6 C37.9,32.2 36.3,34.6 35.7,37.4 Z" id="Shape" fill="#8ACC9E"></path>
            <path d="M71.7,33.6 L54.5,59.6 C52.9,62 52.4,64.8 52.9,67.6 C53.5,70.4 55.1,72.8 57.5,74.4 C59.9,76 62.7,76.5 65.5,76 C68.3,75.4 70.7,73.8 72.3,71.4 L89.5,45.4 C92.7,40.5 91.4,33.8 86.5,30.6 C84.7,29.4 82.7,28.8 80.6,28.8 C79.9,28.8 79.2,28.9 78.4,29 C75.6,29.6 73.2,31.2 71.7,33.6 Z" id="Shape" fill="#00BDCD"></path>
            <path d="M163.2,11.1 C163.2,6.6 166.8,3 171.3,3 L197.4,3 C205.8,3 212.5,5.3 216.7,9.5 C220.1,12.9 221.8,17 221.8,22 L221.8,22.2 C221.8,30.5 217.4,35.2 212.1,38.1 C220.6,41.4 225.9,46.3 225.9,56.2 L225.9,56.4 C225.9,69.9 214.9,76.6 198.3,76.6 L171.3,76.6 C166.8,76.6 163.2,73 163.2,68.5 L163.2,11.1 Z M194,32.8 C201.2,32.8 205.7,30.5 205.7,25 L205.7,24.8 C205.7,20 201.9,17.2 195.1,17.2 L179.1,17.2 L179.1,32.8 L194,32.8 Z M198.3,62.5 C205.5,62.5 209.8,60 209.8,54.5 L209.8,54.3 C209.8,49.3 206.1,46.3 197.8,46.3 L179,46.3 L179,62.5 L198.3,62.5 Z M252,68.6 L252,11 C252,6.5 255.6,2.9 260.1,2.9 L301,2.9 C305,2.9 308.3,6.2 308.3,10.2 C308.3,14.2 305,17.4 301,17.4 L268.1,17.4 L268.1,32.4 L296.2,32.4 C300.2,32.4 303.5,35.7 303.5,39.7 C303.5,43.7 300.2,46.9 296.2,46.9 L268.1,46.9 L268.1,62.4 L301.5,62.4 C305.5,62.4 308.8,65.7 308.8,69.7 C308.8,73.7 305.5,76.9 301.5,76.9 L260.1,76.9 C255.6,76.7 252,73.1 252,68.6 Z" id="Shape" fill="#45469B"></path>
            <path d="M333.9,68.9 C332.1,67.6 330.8,65.3 330.8,62.8 C330.8,58.6 334.2,55.3 338.4,55.3 C340.5,55.3 342,56 343,56.8 C348.6,60.9 354.7,63.4 361.9,63.4 C368.5,63.4 372.5,60.8 372.5,56.4 L372.5,56.2 C372.5,52.1 370,50 357.6,46.8 C342.7,43 333.1,38.9 333.1,24.2 L333.1,24 C333.1,10.6 343.9,1.8 358.9,1.8 C367.9,1.8 375.7,4.1 382.3,8.3 C384.1,9.4 385.9,11.6 385.9,14.7 C385.9,18.9 382.5,22.2 378.3,22.2 C376.7,22.2 375.5,21.8 374.2,21 C368.8,17.8 363.8,16 358.7,16 C352.5,16 349.2,18.8 349.2,22.4 L349.2,22.6 C349.2,27.4 352.4,29 365.1,32.3 C380.1,36.2 388.5,41.6 388.5,54.4 L388.5,54.6 C388.5,69.3 377.3,77.5 361.4,77.5 C352,77.8 342.2,74.8 333.9,68.9 Z M415.6,11.1 C415.6,6.6 419.2,3 423.7,3 L445.7,3 C463.3,3 474,13.4 474,28.5 L474,28.7 C474,45.8 460.7,54.6 444.2,54.6 L431.9,54.6 L431.9,69.3 C431.9,73.8 428.3,77.4 423.8,77.4 C419.3,77.4 415.7,73.8 415.7,69.3 L415.7,11.1 L415.6,11.1 Z M444.7,40.2 C452.8,40.2 457.6,35.4 457.6,29 L457.6,28.8 C457.6,21.5 452.5,17.6 444.4,17.6 L431.9,17.6 L431.9,40.2 L444.7,40.2 Z M499.5,10.4 C499.5,5.9 503.1,2.3 507.6,2.3 C512.1,2.3 515.7,5.9 515.7,10.4 L515.7,69.2 C515.7,73.7 512.1,77.3 507.6,77.3 C503.1,77.3 499.5,73.7 499.5,69.2 L499.5,10.4 Z M547,11.1 C547,6.6 550.6,3 555.1,3 L580.7,3 C590.1,3 597.4,5.6 602.2,10.5 C606.3,14.6 608.5,20.4 608.5,27.4 L608.5,27.6 C608.5,39.2 602.7,46.4 593.7,50.1 L605,63.8 C606.6,65.8 607.6,67.5 607.6,70 C607.6,74.5 603.8,77.5 599.9,77.5 C596.2,77.5 593.8,75.7 591.9,73.3 L576.1,53.3 L563.1,53.3 L563.1,69.4 C563.1,73.9 559.5,77.5 555,77.5 C550.5,77.5 546.9,73.9 546.9,69.4 L546.9,11.1 L547,11.1 Z M579.7,38.8 C587.6,38.8 592.1,34.6 592.1,28.4 L592.1,28.2 C592.1,21.2 587.3,17.7 579.3,17.7 L563.2,17.7 L563.2,38.9 L579.7,38.9 L579.7,38.8 Z M631.8,66.3 L657.5,8.2 C659.3,4.2 662.6,1.8 667,1.8 L667.9,1.8 C672.3,1.8 675.5,4.2 677.3,8.2 L703,66.3 C703.5,67.5 703.8,68.5 703.8,69.6 C703.8,73.9 700.4,77.4 696.1,77.4 C692.3,77.4 689.8,75.2 688.3,71.8 L683.3,60.2 L651,60.2 L645.8,72.3 C644.4,75.5 641.7,77.4 638.3,77.4 C634.1,77.4 630.8,74 630.8,69.8 C630.9,68.6 631.3,67.5 631.8,66.3 Z M677.5,45.8 L667.3,21.4 L657.1,45.8 L677.5,45.8 Z M729.4,10.4 C729.4,5.9 733,2.3 737.5,2.3 C742,2.3 745.6,5.9 745.6,10.4 L745.6,62 L775.6,62 C779.7,62 783,65.3 783,69.4 C783,73.5 779.7,76.8 775.6,76.8 L737.4,76.8 C732.9,76.8 729.3,73.2 729.3,68.7 L729.3,10.4 L729.4,10.4 Z" id="Shape" fill="#F99D33"></path>
            <path d="M71.8,45.4 L89,71.4 C90.6,73.8 93,75.4 95.8,76 C98.6,76.6 101.5,76 103.8,74.4 C108.7,71.1 110.1,64.5 106.8,59.6 L89.6,33.6 C88,31.2 85.6,29.6 82.8,29 C82.1,28.9 81.4,28.8 80.6,28.8 C78.5,28.8 76.5,29.4 74.7,30.6 C69.9,33.9 68.6,40.5 71.8,45.4 Z" id="Shape" fill="#45469B"></path>
        </g>
    </g>
</svg>