<?xml version="1.0" encoding="UTF-8"?>
<svg width="14px" height="9px" viewBox="0 0 14 9" version="1.1" xmlns="http://www.w3.org/2000/svg" xmlns:xlink="http://www.w3.org/1999/xlink">
    <!-- Generator: sketchtool 55.2 (78181) - https://sketchapp.com -->
    <title>4686C353-947D-496D-BC16-DC6D985A9A7E</title>
    <desc>Created with sketchtool.</desc>
    <g id="Communities---current" stroke="none" stroke-width="1" fill="none" fill-rule="evenodd">
        <g id="Explore/-Details/-Close-accordian" transform="translate(-1079.000000, -572.000000)" fill="#FFFFFF" stroke="#FFFFFF" stroke-width="2">
            <g id="Group-7" transform="translate(349.000000, 554.000000)">
                <path d="M731,19.3909181 C731,19.3435338 731.009872,19.294176 731.029615,19.242843 C731.049358,19.1915101 731.078973,19.1461009 731.11846,19.106614 C731.197434,19.0355377 731.292201,19 731.402764,19 C731.513327,19 731.608094,19.0355377 731.687068,19.106614 L737.041461,24.4610069 L742.312932,19.189536 C742.391906,19.1105623 742.486673,19.071076 742.597236,19.071076 C742.707799,19.071076 742.802566,19.1105623 742.88154,19.189536 C742.960514,19.2685098 743,19.3632768 743,19.4738401 C743,19.5844033 742.960514,19.6791704 742.88154,19.7581441 L737.325765,25.3139191 C737.246791,25.3928928 737.152024,25.4323791 737.041461,25.4323791 C736.930898,25.4323791 736.836131,25.3928928 736.757157,25.3139191 L731.11846,19.6870681 C731.078973,19.6475812 731.049358,19.602172 731.029615,19.5508391 C731.009872,19.4995062 731,19.4461997 731,19.3909181 Z" id="Arrow-down---simple-line-icons"></path>
            </g>
        </g>
    </g>
</svg>