<svg width="34" height="36" fill="none" xmlns="http://www.w3.org/2000/svg">
    <path
        d="M33.73 9.742L24.558.212A.693.693 0 0024.06 0H10.39a2.777 2.777 0 00-2.774 2.773v9.689h-5.54c-1.144 0-2.075.93-2.075 2.075v10.388C0 26.069.931 27 2.076 27h5.54v6.232A2.775 2.775 0 0010.39 36h20.759a2.774 2.774 0 002.774-2.767v-23.01a.693.693 0 00-.193-.48zm-9.5-7.873l7.53 7.823h-7.53V1.87zM2.077 25.615a.691.691 0 01-.691-.69V14.537c0-.381.31-.69.69-.69H20.77c.382 0 .692.309.692.69v10.388c0 .38-.31.69-.692.69H2.076zm30.462 7.618c0 .762-.623 1.382-1.39 1.382H10.39c-.767 0-1.39-.62-1.39-1.383V27h11.77c1.145 0 2.076-.93 2.076-2.075V14.537a2.078 2.078 0 00-2.076-2.075H9V2.773a1.39 1.39 0 011.39-1.388h12.456v9c0 .382.31.692.692.692h9v22.156z"
        fill="#fff" />
    <path
        d="M8.276 17.57a1.56 1.56 0 00-.856-.581c-.221-.06-.697-.09-1.427-.09H4.066v5.947h1.2v-2.243h.783c.544 0 .959-.029 1.246-.085.21-.046.418-.14.622-.282.205-.142.373-.338.505-.586.133-.25.2-.556.2-.921 0-.473-.116-.86-.346-1.158zm-1.028 1.637a.788.788 0 01-.375.293c-.16.062-.476.093-.95.093h-.657v-1.688h.58c.433 0 .721.014.864.041a.83.83 0 01.483.264c.127.14.19.319.19.535a.8.8 0 01-.135.462zM14.393 18.524c-.13-.38-.319-.701-.567-.963a1.988 1.988 0 00-.897-.548c-.26-.076-.637-.114-1.132-.114H9.603v5.947h2.26c.443 0 .797-.042 1.062-.126.354-.113.636-.271.844-.474.276-.268.488-.618.637-1.05.121-.355.182-.777.182-1.267 0-.556-.065-1.025-.194-1.405zm-1.168 2.442c-.08.266-.186.458-.314.574-.129.116-.29.199-.485.247-.149.038-.39.057-.726.057h-.896v-3.939h.539c.49 0 .818.02.986.057.224.049.41.142.555.28.146.138.26.33.341.576.081.246.122.6.122 1.059 0 .46-.04.823-.122 1.089zM19.691 17.905V16.9h-4.076v5.947h1.2V20.32h2.483v-1.006h-2.483v-1.408h2.876z"
        fill="#fff" />
</svg>
